%TF.GenerationSoftware,KiCad,Pcbnew,9.0.7-9.0.7~ubuntu22.04.1*%
%TF.CreationDate,2026-03-09T22:23:56-05:00*%
%TF.ProjectId,elrs-lvs,656c7273-2d6c-4767-932e-6b696361645f,2*%
%TF.SameCoordinates,Original*%
%TF.FileFunction,Copper,L4,Bot*%
%TF.FilePolarity,Positive*%
%FSLAX46Y46*%
G04 Gerber Fmt 4.6, Leading zero omitted, Abs format (unit mm)*
G04 Created by KiCad (PCBNEW 9.0.7-9.0.7~ubuntu22.04.1) date 2026-03-09 22:23:56*
%MOMM*%
%LPD*%
G01*
G04 APERTURE LIST*
G04 Aperture macros list*
%AMRoundRect*
0 Rectangle with rounded corners*
0 $1 Rounding radius*
0 $2 $3 $4 $5 $6 $7 $8 $9 X,Y pos of 4 corners*
0 Add a 4 corners polygon primitive as box body*
4,1,4,$2,$3,$4,$5,$6,$7,$8,$9,$2,$3,0*
0 Add four circle primitives for the rounded corners*
1,1,$1+$1,$2,$3*
1,1,$1+$1,$4,$5*
1,1,$1+$1,$6,$7*
1,1,$1+$1,$8,$9*
0 Add four rect primitives between the rounded corners*
20,1,$1+$1,$2,$3,$4,$5,0*
20,1,$1+$1,$4,$5,$6,$7,0*
20,1,$1+$1,$6,$7,$8,$9,0*
20,1,$1+$1,$8,$9,$2,$3,0*%
G04 Aperture macros list end*
%TA.AperFunction,ComponentPad*%
%ADD10R,1.700000X1.700000*%
%TD*%
%TA.AperFunction,ComponentPad*%
%ADD11O,1.700000X1.700000*%
%TD*%
%TA.AperFunction,ComponentPad*%
%ADD12RoundRect,0.250000X0.725000X-0.600000X0.725000X0.600000X-0.725000X0.600000X-0.725000X-0.600000X0*%
%TD*%
%TA.AperFunction,ComponentPad*%
%ADD13O,1.950000X1.700000*%
%TD*%
%TA.AperFunction,ViaPad*%
%ADD14C,0.450000*%
%TD*%
%TA.AperFunction,Conductor*%
%ADD15C,0.500000*%
%TD*%
%TA.AperFunction,Conductor*%
%ADD16C,1.000000*%
%TD*%
%TA.AperFunction,Conductor*%
%ADD17C,0.101600*%
%TD*%
G04 APERTURE END LIST*
D10*
%TO.P,J7,1,Pin_1*%
%TO.N,Net-(J7-Pin_1)*%
X7225000Y-17350000D03*
D11*
%TO.P,J7,2,Pin_2*%
%TO.N,+5V*%
X4685000Y-17350000D03*
%TO.P,J7,3,Pin_3*%
%TO.N,GND*%
X2145000Y-17350000D03*
%TD*%
D10*
%TO.P,J8,1,Pin_1*%
%TO.N,Net-(J8-Pin_1)*%
X7225000Y-19890000D03*
D11*
%TO.P,J8,2,Pin_2*%
%TO.N,+5V*%
X4685000Y-19890000D03*
%TO.P,J8,3,Pin_3*%
%TO.N,GND*%
X2145000Y-19890000D03*
%TD*%
D10*
%TO.P,J2,1,Pin_1*%
%TO.N,Net-(J2-Pin_1)*%
X7225000Y-4650000D03*
D11*
%TO.P,J2,2,Pin_2*%
%TO.N,+5V*%
X4685000Y-4650000D03*
%TO.P,J2,3,Pin_3*%
%TO.N,GND*%
X2145000Y-4650000D03*
%TD*%
D10*
%TO.P,J1,1,Pin_1*%
%TO.N,Net-(J1-Pin_1)*%
X7225000Y-2110000D03*
D11*
%TO.P,J1,2,Pin_2*%
%TO.N,+5V*%
X4685000Y-2110000D03*
%TO.P,J1,3,Pin_3*%
%TO.N,GND*%
X2145000Y-2110000D03*
%TD*%
D10*
%TO.P,J3,1,Pin_1*%
%TO.N,Net-(J3-Pin_1)*%
X7225000Y-7190000D03*
D11*
%TO.P,J3,2,Pin_2*%
%TO.N,+5V*%
X4685000Y-7190000D03*
%TO.P,J3,3,Pin_3*%
%TO.N,GND*%
X2145000Y-7190000D03*
%TD*%
D10*
%TO.P,J4,1,Pin_1*%
%TO.N,Net-(J4-Pin_1)*%
X7225000Y-9730000D03*
D11*
%TO.P,J4,2,Pin_2*%
%TO.N,+5V*%
X4685000Y-9730000D03*
%TO.P,J4,3,Pin_3*%
%TO.N,GND*%
X2145000Y-9730000D03*
%TD*%
D10*
%TO.P,J6,1,Pin_1*%
%TO.N,Net-(J6-Pin_1)*%
X7225000Y-14810000D03*
D11*
%TO.P,J6,2,Pin_2*%
%TO.N,+5V*%
X4685000Y-14810000D03*
%TO.P,J6,3,Pin_3*%
%TO.N,GND*%
X2145000Y-14810000D03*
%TD*%
D12*
%TO.P,J12,1,Pin_1*%
%TO.N,Net-(J12-Pin_1)*%
X37850000Y-18480000D03*
D13*
%TO.P,J12,2,Pin_2*%
%TO.N,Net-(J12-Pin_2)*%
X37850000Y-15980000D03*
%TO.P,J12,3,Pin_3*%
%TO.N,Net-(J12-Pin_3)*%
X37850000Y-13480000D03*
%TO.P,J12,4,Pin_4*%
%TO.N,Net-(J12-Pin_4)*%
X37850000Y-10980000D03*
%TO.P,J12,5,Pin_5*%
%TO.N,Net-(J12-Pin_5)*%
X37850000Y-8480000D03*
%TO.P,J12,6,Pin_6*%
%TO.N,Net-(J12-Pin_6)*%
X37850000Y-5980000D03*
%TO.P,J12,7,Pin_7*%
%TO.N,Net-(J12-Pin_7)*%
X37850000Y-3480000D03*
%TD*%
D10*
%TO.P,J5,1,Pin_1*%
%TO.N,Net-(J5-Pin_1)*%
X7225000Y-12270000D03*
D11*
%TO.P,J5,2,Pin_2*%
%TO.N,+5V*%
X4685000Y-12270000D03*
%TO.P,J5,3,Pin_3*%
%TO.N,GND*%
X2145000Y-12270000D03*
%TD*%
D14*
%TO.N,GND*%
X36320000Y-12700000D03*
X36310000Y-7740000D03*
X16100000Y-6160000D03*
X30430000Y-17630000D03*
X11050000Y-11240000D03*
X27400000Y-17750000D03*
X21580000Y-19840000D03*
X15890000Y-17770000D03*
X36310000Y-10210000D03*
X14480000Y-1410000D03*
X36310000Y-17710000D03*
X33290000Y-2820000D03*
X11180000Y-17590000D03*
X23960000Y-1860000D03*
X19590000Y-11660000D03*
X28510000Y-8000000D03*
X28150000Y-15090000D03*
X36320000Y-5190000D03*
X28650000Y-12250000D03*
X31420000Y-1870000D03*
X33290000Y-10330000D03*
X33190000Y-14000000D03*
X14550000Y-15880000D03*
X16100500Y-2630000D03*
X36310000Y-15200000D03*
X32610000Y-16080000D03*
X33290000Y-5300000D03*
X24360000Y-5080000D03*
X11180000Y-18420000D03*
X25050000Y-3790000D03*
X26680000Y-10280000D03*
X33910000Y-20000000D03*
X29880000Y-1860000D03*
X22440000Y-1870000D03*
X33160000Y-13260000D03*
X33290000Y-7860000D03*
X24620000Y-12850000D03*
X10570000Y-1400000D03*
X14600000Y-2270000D03*
X29660000Y-15060000D03*
X19330000Y-2440000D03*
X12350000Y-1400000D03*
X30260000Y-5890000D03*
%TO.N,/V_DCC*%
X26540000Y-8060000D03*
X31220000Y-13000000D03*
%TO.N,+3.3V*%
X27900000Y-9680000D03*
X24970000Y-19860000D03*
X13250000Y-12360000D03*
X11030000Y-13310000D03*
X34300000Y-10250000D03*
X18650000Y-1140000D03*
X15500000Y-13420000D03*
X18650000Y-1769003D03*
X15450000Y-8840000D03*
X26070000Y-12030000D03*
X33590000Y-17990000D03*
X34300000Y-2790000D03*
X26370000Y-16420000D03*
X23360000Y-5130000D03*
X32280000Y-5880000D03*
X23895597Y-11686899D03*
X34300000Y-15290000D03*
X34290000Y-5310000D03*
X18090000Y-16040000D03*
X16290000Y-15190000D03*
X34660000Y-13020000D03*
X22156546Y-7344462D03*
X34310000Y-7770000D03*
X15450000Y-11910000D03*
%TO.N,/RESET*%
X13830000Y-17640000D03*
X19040000Y-6650000D03*
X20830000Y-16990000D03*
%TO.N,/SERIAL_RX*%
X13520000Y-9850000D03*
X24620000Y-7050000D03*
%TO.N,/LVS6*%
X32770000Y-7000000D03*
X25760000Y-15210000D03*
%TO.N,/LVS2*%
X23500000Y-17640000D03*
X32620000Y-17000000D03*
%TO.N,/SERIAL_TX*%
X27440000Y-7070000D03*
X13740000Y-10730000D03*
%TO.N,/LVS1*%
X32080000Y-18270000D03*
X21500000Y-19000000D03*
%TO.N,/LVS3*%
X31140000Y-15130000D03*
X24360000Y-16840000D03*
%TO.N,/LVS5*%
X32740000Y-9730000D03*
X22940000Y-15100000D03*
%TO.N,/BOOT*%
X13220000Y-18540000D03*
X24100000Y-7660000D03*
%TO.N,/LVS4*%
X33580000Y-12530000D03*
X25130000Y-16280000D03*
%TO.N,/LVS7*%
X21910000Y-16890000D03*
X24020000Y-18281800D03*
X32620000Y-4490000D03*
%TO.N,/VS_5V*%
X22400000Y-16160000D03*
X12030000Y-13450000D03*
%TO.N,/RADIO_MOSI*%
X24100000Y-9810000D03*
X25760000Y-13300000D03*
%TO.N,/RADIO_DIO1*%
X29341600Y-9370459D03*
X23840000Y-10880000D03*
%TO.N,/RADIO_BUSY*%
X30410000Y-10280000D03*
X23040000Y-8470000D03*
%TO.N,/RADIO_RST*%
X17840000Y-7560000D03*
X31660000Y-12230000D03*
%TO.N,/PWM1*%
X14380000Y-9800000D03*
X10910000Y-5020000D03*
%TO.N,+5V*%
X26315000Y-3740000D03*
X26310000Y-2610000D03*
%TO.N,/PWM2*%
X10000000Y-5440000D03*
X15270000Y-9950000D03*
%TO.N,/PWM3*%
X8690000Y-5940000D03*
X24900000Y-15120000D03*
%TO.N,/PWM4*%
X10030000Y-10450000D03*
X24780000Y-14290000D03*
%TO.N,/PWM5*%
X20300000Y-7240000D03*
X10010000Y-11550000D03*
%TO.N,/PWM6*%
X10710000Y-14800000D03*
X20750000Y-6450000D03*
%TO.N,/PWM7*%
X18890000Y-7530000D03*
X10020000Y-16660000D03*
%TO.N,/PWM8*%
X21560000Y-6640000D03*
X10010000Y-19170000D03*
%TD*%
D15*
%TO.N,+5V*%
X4685000Y-2110000D02*
X4685000Y-3200000D01*
X4855000Y-3370000D02*
X24331558Y-3370000D01*
X4685000Y-3200000D02*
X4855000Y-3370000D01*
X24331558Y-3370000D02*
X25091558Y-2610000D01*
X25091558Y-2610000D02*
X26310000Y-2610000D01*
D16*
%TO.N,GND*%
X2145000Y-2110000D02*
X2145000Y-19890000D01*
D17*
%TO.N,/RESET*%
X20830000Y-16990000D02*
X14480000Y-16990000D01*
X16940000Y-7180000D02*
X16940000Y-9420000D01*
X16940000Y-9420000D02*
X18340000Y-10820000D01*
X17480000Y-6640000D02*
X16940000Y-7180000D01*
X20830000Y-16000000D02*
X20830000Y-16990000D01*
X14480000Y-16990000D02*
X13830000Y-17640000D01*
X18340000Y-13510000D02*
X20830000Y-16000000D01*
X19040000Y-6650000D02*
X19030000Y-6640000D01*
X19030000Y-6640000D02*
X17480000Y-6640000D01*
X18340000Y-10820000D02*
X18340000Y-13510000D01*
%TO.N,/SERIAL_RX*%
X14861800Y-5628200D02*
X13520000Y-6970000D01*
X20173142Y-5628200D02*
X14861800Y-5628200D01*
X21508694Y-5461000D02*
X20340343Y-5461000D01*
X13520000Y-6970000D02*
X13520000Y-9850000D01*
X20340343Y-5461000D02*
X20173142Y-5628200D01*
X24620000Y-7050000D02*
X24404600Y-6834600D01*
X22882295Y-6834600D02*
X21508694Y-5461000D01*
X24404600Y-6834600D02*
X22882295Y-6834600D01*
%TO.N,/LVS6*%
X34242079Y-11060000D02*
X33560000Y-11060000D01*
X31880000Y-14070000D02*
X26660000Y-14070000D01*
X33220000Y-8800000D02*
X33940000Y-8800000D01*
X33940000Y-8800000D02*
X34831800Y-9691800D01*
X26660000Y-14070000D02*
X25760000Y-14970000D01*
X34831800Y-9691800D02*
X34831800Y-10470279D01*
X32430801Y-13519199D02*
X31880000Y-14070000D01*
X34831800Y-10470279D02*
X34242079Y-11060000D01*
X25760000Y-14970000D02*
X25760000Y-15210000D01*
X32758200Y-8338200D02*
X33220000Y-8800000D01*
X32758200Y-7011800D02*
X32758200Y-8338200D01*
X32770000Y-7000000D02*
X32758200Y-7011800D01*
X33560000Y-11060000D02*
X32430801Y-12189199D01*
X32430801Y-12189199D02*
X32430801Y-13519199D01*
%TO.N,/LVS2*%
X32620000Y-17000000D02*
X26740000Y-17000000D01*
X23500000Y-17640000D02*
X26100000Y-17640000D01*
X26100000Y-17640000D02*
X26740000Y-17000000D01*
%TO.N,/SERIAL_TX*%
X24636744Y-6247544D02*
X24809200Y-6420000D01*
X13303269Y-10490000D02*
X12914200Y-10100931D01*
X22940000Y-6247544D02*
X24636744Y-6247544D01*
X12914200Y-6195800D02*
X14030000Y-5080000D01*
X14030000Y-5080000D02*
X21772456Y-5080000D01*
X21772456Y-5080000D02*
X22940000Y-6247544D01*
X24809200Y-6420000D02*
X26790000Y-6420000D01*
X13740000Y-10730000D02*
X13500000Y-10490000D01*
X13500000Y-10490000D02*
X13303269Y-10490000D01*
X12914200Y-10100931D02*
X12914200Y-6195800D01*
X26790000Y-6420000D02*
X27440000Y-7070000D01*
%TO.N,/LVS1*%
X22891800Y-20391800D02*
X29958200Y-20391800D01*
X29958200Y-20391800D02*
X32080000Y-18270000D01*
X21500000Y-19000000D02*
X22891800Y-20391800D01*
%TO.N,/LVS3*%
X25430000Y-16840000D02*
X25838200Y-16431800D01*
X30381800Y-15888200D02*
X31140000Y-15130000D01*
X24360000Y-16840000D02*
X25430000Y-16840000D01*
X25838200Y-16431800D02*
X25838200Y-16188530D01*
X26138531Y-15888200D02*
X30381800Y-15888200D01*
X25838200Y-16188530D02*
X26138531Y-15888200D01*
%TO.N,/LVS5*%
X32200000Y-12772079D02*
X31440279Y-13531800D01*
X32740000Y-9730000D02*
X32200000Y-10270000D01*
X25371132Y-14024401D02*
X25030931Y-13684200D01*
X24355800Y-13684200D02*
X22940000Y-15100000D01*
X32200000Y-10270000D02*
X32200000Y-12772079D01*
X26434635Y-14024401D02*
X25371132Y-14024401D01*
X31440279Y-13531800D02*
X26927236Y-13531800D01*
X25030931Y-13684200D02*
X24355800Y-13684200D01*
X26927236Y-13531800D02*
X26434635Y-14024401D01*
%TO.N,/BOOT*%
X15981800Y-7228200D02*
X17357400Y-5852600D01*
X13106600Y-13501321D02*
X15981800Y-10626121D01*
X13220000Y-18540000D02*
X13106600Y-18426600D01*
X22698200Y-7028200D02*
X23468200Y-7028200D01*
X17357400Y-5852600D02*
X20219705Y-5852600D01*
X20219705Y-5852600D02*
X20419706Y-5652600D01*
X15981800Y-10626121D02*
X15981800Y-7228200D01*
X13106600Y-18426600D02*
X13106600Y-13501321D01*
X20419706Y-5652600D02*
X21322600Y-5652600D01*
X23468200Y-7028200D02*
X24100000Y-7660000D01*
X21322600Y-5652600D02*
X22698200Y-7028200D01*
%TO.N,/LVS4*%
X32622401Y-12778563D02*
X32870964Y-12530000D01*
X25220000Y-16260000D02*
X25460000Y-16260000D01*
X32870964Y-12530000D02*
X33580000Y-12530000D01*
X25130000Y-16280000D02*
X25200000Y-16280000D01*
X32622401Y-14177599D02*
X32622401Y-12778563D01*
X25460000Y-16260000D02*
X27230000Y-14490000D01*
X32310000Y-14490000D02*
X32622401Y-14177599D01*
X25200000Y-16280000D02*
X25220000Y-16260000D01*
X27230000Y-14490000D02*
X32310000Y-14490000D01*
%TO.N,/LVS7*%
X32620000Y-4490000D02*
X32620000Y-5467921D01*
X34430000Y-6650000D02*
X35191800Y-7411800D01*
X29871456Y-18063200D02*
X27838879Y-18063200D01*
X35191800Y-15180279D02*
X32633879Y-17738200D01*
X32811800Y-5981800D02*
X33480000Y-6650000D01*
X32620000Y-5467921D02*
X32811800Y-5659721D01*
X33480000Y-6650000D02*
X34430000Y-6650000D01*
X29970056Y-18161800D02*
X29871456Y-18063200D01*
X32633879Y-17738200D02*
X31073879Y-17738200D01*
X30650279Y-18161800D02*
X29970056Y-18161800D01*
X31073879Y-17738200D02*
X30650279Y-18161800D01*
X27620279Y-18281800D02*
X24020000Y-18281800D01*
X27838879Y-18063200D02*
X27620279Y-18281800D01*
X35191800Y-7411800D02*
X35191800Y-15180279D01*
X32811800Y-5659721D02*
X32811800Y-5981800D01*
%TO.N,/RADIO_MOSI*%
X25760000Y-13300000D02*
X25360000Y-12900000D01*
X25360000Y-11070000D02*
X24100000Y-9810000D01*
X25360000Y-12900000D02*
X25360000Y-11070000D01*
%TO.N,/RADIO_DIO1*%
X23520000Y-9420000D02*
X23520000Y-10560000D01*
X24400000Y-9148200D02*
X24270000Y-9278200D01*
X23671800Y-9278200D02*
X23530000Y-9420000D01*
X29341600Y-9370459D02*
X29119341Y-9148200D01*
X24270000Y-9278200D02*
X23671800Y-9278200D01*
X29119341Y-9148200D02*
X24400000Y-9148200D01*
X23520000Y-10560000D02*
X23840000Y-10880000D01*
X23530000Y-9420000D02*
X23520000Y-9420000D01*
%TO.N,/RADIO_BUSY*%
X30410000Y-9533269D02*
X30410000Y-10280000D01*
X23353400Y-8783400D02*
X26839643Y-8783400D01*
X26953043Y-8670000D02*
X29546731Y-8670000D01*
X29546731Y-8670000D02*
X30410000Y-9533269D01*
X26839643Y-8783400D02*
X26953043Y-8670000D01*
X23040000Y-8470000D02*
X23353400Y-8783400D01*
%TO.N,/RADIO_RST*%
X29330000Y-11140000D02*
X30420000Y-12230000D01*
X25539721Y-13831800D02*
X25980279Y-13831800D01*
X30420000Y-12230000D02*
X31660000Y-12230000D01*
X24397921Y-13380000D02*
X24399721Y-13381800D01*
X24399721Y-13381800D02*
X24840279Y-13381800D01*
X17840000Y-7560000D02*
X23660000Y-13380000D01*
X28230000Y-11140000D02*
X29330000Y-11140000D01*
X23660000Y-13380000D02*
X24397921Y-13380000D01*
X25087921Y-13380000D02*
X25539721Y-13831800D01*
X26861272Y-12508728D02*
X28230000Y-11140000D01*
X24842079Y-13380000D02*
X25087921Y-13380000D01*
X26861272Y-12950807D02*
X26861272Y-12508728D01*
X25980279Y-13831800D02*
X26861272Y-12950807D01*
X24840279Y-13381800D02*
X24842079Y-13380000D01*
%TO.N,/PWM1*%
X10910000Y-5020000D02*
X10985800Y-5095800D01*
X10985800Y-5095800D02*
X10985800Y-8727879D01*
X13960278Y-11261800D02*
X14600000Y-10622078D01*
X14600000Y-10622078D02*
X14600000Y-10020000D01*
X13519721Y-11261800D02*
X13960278Y-11261800D01*
X10985800Y-8727879D02*
X13519721Y-11261800D01*
X14600000Y-10020000D02*
X14380000Y-9800000D01*
D15*
%TO.N,+5V*%
X26310000Y-2610000D02*
X26310000Y-3735000D01*
D16*
X4685000Y-2110000D02*
X4685000Y-19890000D01*
D15*
X26310000Y-3735000D02*
X26315000Y-3740000D01*
D17*
%TO.N,/PWM2*%
X15270000Y-9950000D02*
X15270000Y-10223042D01*
X10000000Y-8013043D02*
X10000000Y-5440000D01*
X13440357Y-11453400D02*
X10000000Y-8013043D01*
X15270000Y-10223042D02*
X14039642Y-11453400D01*
X14039642Y-11453400D02*
X13440357Y-11453400D01*
%TO.N,/PWM3*%
X20940000Y-20260000D02*
X20940000Y-18807921D01*
X21279721Y-18468200D02*
X21551800Y-18468200D01*
X20275000Y-20925000D02*
X20940000Y-20260000D01*
X9755000Y-20925000D02*
X20275000Y-20925000D01*
X8690000Y-19860000D02*
X9755000Y-20925000D01*
X21551800Y-18468200D02*
X24900000Y-15120000D01*
X20940000Y-18807921D02*
X21279721Y-18468200D01*
X8690000Y-5940000D02*
X8690000Y-19860000D01*
%TO.N,/PWM4*%
X20953400Y-18276600D02*
X21315200Y-18276600D01*
X12635800Y-13626279D02*
X10582079Y-15680000D01*
X21315200Y-18276600D02*
X22931800Y-16660000D01*
X9080000Y-16540000D02*
X9080000Y-19660000D01*
X18860000Y-20370000D02*
X20953400Y-18276600D01*
X9940000Y-15680000D02*
X9080000Y-16540000D01*
X12635800Y-13199069D02*
X12635800Y-13626279D01*
X10030000Y-10450000D02*
X11012079Y-10450000D01*
X9080000Y-19660000D02*
X9790000Y-20370000D01*
X12500000Y-11937921D02*
X12500000Y-13063269D01*
X24780000Y-14450000D02*
X24780000Y-14290000D01*
X22931800Y-16298200D02*
X24780000Y-14450000D01*
X12500000Y-13063269D02*
X12635800Y-13199069D01*
X10582079Y-15680000D02*
X9940000Y-15680000D01*
X11012079Y-10450000D02*
X12500000Y-11937921D01*
X22931800Y-16660000D02*
X22931800Y-16298200D01*
X9790000Y-20370000D02*
X18860000Y-20370000D01*
%TO.N,/PWM5*%
X27219721Y-7601800D02*
X27660279Y-7601800D01*
X23879721Y-8191800D02*
X24323107Y-8191800D01*
X25414907Y-7100000D02*
X26717921Y-7100000D01*
X9468200Y-11008200D02*
X10010000Y-11550000D01*
X22050000Y-4630000D02*
X11272079Y-4630000D01*
X24323107Y-8191800D02*
X25414907Y-7100000D01*
X11130279Y-4488200D02*
X10199721Y-4488200D01*
X23434521Y-7746600D02*
X23879721Y-8191800D01*
X11272079Y-4630000D02*
X11130279Y-4488200D01*
X9468200Y-5219721D02*
X9468200Y-11008200D01*
X27971800Y-7290279D02*
X27971800Y-6311800D01*
X20300000Y-7272079D02*
X21118557Y-8090636D01*
X10199721Y-4488200D02*
X9468200Y-5219721D01*
X27971800Y-6311800D02*
X27391600Y-5731600D01*
X22267103Y-8090636D02*
X22611139Y-7746600D01*
X26717921Y-7100000D02*
X27219721Y-7601800D01*
X27391600Y-5731600D02*
X23151600Y-5731600D01*
X22611139Y-7746600D02*
X23434521Y-7746600D01*
X21118557Y-8090636D02*
X22267103Y-8090636D01*
X27660279Y-7601800D02*
X27971800Y-7290279D01*
X20300000Y-7240000D02*
X20300000Y-7272079D01*
X23151600Y-5731600D02*
X22050000Y-4630000D01*
%TO.N,/PWM6*%
X28500000Y-5640000D02*
X28500000Y-7210000D01*
X25294600Y-8385400D02*
X23707479Y-8385400D01*
X10710000Y-14800000D02*
X9276600Y-13366600D01*
X27870279Y-7839721D02*
X27071800Y-7839721D01*
X24829721Y-4321800D02*
X27181800Y-4321800D01*
X10118530Y-4295599D02*
X17979133Y-4295599D01*
X23261279Y-7939200D02*
X22689503Y-7939200D01*
X28500000Y-7210000D02*
X27870279Y-7839721D01*
X27181800Y-4321800D02*
X28500000Y-5640000D01*
X27071800Y-7839721D02*
X26760279Y-7528200D01*
X19768200Y-7460279D02*
X19768200Y-7019721D01*
X9275599Y-5139944D02*
X9276600Y-5138943D01*
X18914666Y-4301800D02*
X18920866Y-4295599D01*
X9275599Y-11087977D02*
X9275599Y-5139944D01*
X26151800Y-7528200D02*
X25294600Y-8385400D01*
X19768200Y-7019721D02*
X20337921Y-6450000D01*
X20591157Y-8283236D02*
X19768200Y-7460279D01*
X23707479Y-8385400D02*
X23261279Y-7939200D01*
X26760279Y-7528200D02*
X26151800Y-7528200D01*
X24803520Y-4295599D02*
X24829721Y-4321800D01*
X9276600Y-13366600D02*
X9276600Y-11088978D01*
X9276600Y-5137529D02*
X10118530Y-4295599D01*
X20337921Y-6450000D02*
X20750000Y-6450000D01*
X18920866Y-4295599D02*
X24803520Y-4295599D01*
X9276600Y-5138943D02*
X9276600Y-5137529D01*
X17985335Y-4301800D02*
X18914666Y-4301800D01*
X22345466Y-8283237D02*
X20591157Y-8283236D01*
X17979133Y-4295599D02*
X17985335Y-4301800D01*
X22689503Y-7939200D02*
X22345466Y-8283237D01*
X9276600Y-11088978D02*
X9275599Y-11087977D01*
%TO.N,/PWM7*%
X9478200Y-17201800D02*
X9478200Y-19391691D01*
X17621721Y-7026200D02*
X18386200Y-7026200D01*
X21361800Y-11833879D02*
X17308200Y-7780279D01*
X21361800Y-17221418D02*
X21361800Y-11833879D01*
X17308200Y-7780279D02*
X17308200Y-7339721D01*
X14644960Y-19801746D02*
X16924906Y-17521800D01*
X16924906Y-17521800D02*
X21061418Y-17521800D01*
X10020000Y-16660000D02*
X9478200Y-17201800D01*
X18386200Y-7026200D02*
X18890000Y-7530000D01*
X9478200Y-19391691D02*
X9888254Y-19801746D01*
X21061418Y-17521800D02*
X21361800Y-17221418D01*
X9888254Y-19801746D02*
X14644960Y-19801746D01*
X17308200Y-7339721D02*
X17621721Y-7026200D01*
%TO.N,/PWM8*%
X13609721Y-17108200D02*
X13298200Y-17419721D01*
X15081800Y-16100279D02*
X14073879Y-17108200D01*
X15081800Y-14942521D02*
X15081800Y-16100279D01*
X21000931Y-5844200D02*
X20499069Y-5844200D01*
X21560000Y-6640000D02*
X21560000Y-6403269D01*
X13751800Y-18313878D02*
X13751800Y-18828200D01*
X13298200Y-17860279D02*
X13751800Y-18313878D01*
X17615800Y-6044200D02*
X16547161Y-7112839D01*
X16547161Y-13477161D02*
X15081800Y-14942521D01*
X13410000Y-19170000D02*
X10010000Y-19170000D01*
X14073879Y-17108200D02*
X13609721Y-17108200D01*
X16547161Y-7112839D02*
X16547161Y-13477161D01*
X20499069Y-5844200D02*
X20299069Y-6044200D01*
X13751800Y-18828200D02*
X13410000Y-19170000D01*
X20299069Y-6044200D02*
X17615800Y-6044200D01*
X21560000Y-6403269D02*
X21000931Y-5844200D01*
X13298200Y-17419721D02*
X13298200Y-17860279D01*
%TD*%
%TA.AperFunction,Conductor*%
%TO.N,GND*%
G36*
X16617691Y-17260985D02*
G01*
X16663446Y-17313789D01*
X16673390Y-17382947D01*
X16644365Y-17446503D01*
X16638333Y-17452981D01*
X14577187Y-19514127D01*
X14515864Y-19547612D01*
X14489506Y-19550446D01*
X13684308Y-19550446D01*
X13617269Y-19530761D01*
X13571514Y-19477957D01*
X13561570Y-19408799D01*
X13590595Y-19345243D01*
X13596627Y-19338765D01*
X13775392Y-19160000D01*
X13964842Y-18970550D01*
X14003100Y-18878187D01*
X14003100Y-18778213D01*
X14003100Y-18263891D01*
X13966993Y-18176722D01*
X13959525Y-18107256D01*
X13990800Y-18044777D01*
X14019551Y-18021887D01*
X14091263Y-17980485D01*
X14170485Y-17901263D01*
X14226503Y-17804237D01*
X14255500Y-17696018D01*
X14255500Y-17621253D01*
X14275185Y-17554214D01*
X14291819Y-17533572D01*
X14418824Y-17406568D01*
X14547773Y-17277619D01*
X14609096Y-17244134D01*
X14635454Y-17241300D01*
X16550652Y-17241300D01*
X16617691Y-17260985D01*
G37*
%TD.AperFunction*%
%TA.AperFunction,Conductor*%
G36*
X12774634Y-13945351D02*
G01*
X12830567Y-13987223D01*
X12854984Y-14052687D01*
X12855300Y-14061533D01*
X12855300Y-18287452D01*
X12838688Y-18349450D01*
X12823499Y-18375758D01*
X12823497Y-18375763D01*
X12794500Y-18483982D01*
X12794500Y-18596018D01*
X12821916Y-18698334D01*
X12823497Y-18704236D01*
X12823498Y-18704239D01*
X12839930Y-18732700D01*
X12856403Y-18800600D01*
X12833550Y-18866627D01*
X12778629Y-18909818D01*
X12732543Y-18918700D01*
X10411810Y-18918700D01*
X10344771Y-18899015D01*
X10324129Y-18882381D01*
X10271265Y-18829517D01*
X10271263Y-18829515D01*
X10206579Y-18792169D01*
X10174239Y-18773498D01*
X10174238Y-18773497D01*
X10174237Y-18773497D01*
X10066018Y-18744500D01*
X9953982Y-18744500D01*
X9885591Y-18762824D01*
X9815743Y-18761162D01*
X9757881Y-18721999D01*
X9730377Y-18657771D01*
X9729500Y-18643050D01*
X9729500Y-17357253D01*
X9738144Y-17327812D01*
X9744668Y-17297826D01*
X9748422Y-17292810D01*
X9749185Y-17290214D01*
X9765815Y-17269576D01*
X9913572Y-17121818D01*
X9974895Y-17088334D01*
X10001253Y-17085500D01*
X10076016Y-17085500D01*
X10076018Y-17085500D01*
X10184237Y-17056503D01*
X10281263Y-17000485D01*
X10360485Y-16921263D01*
X10416503Y-16824237D01*
X10445500Y-16716018D01*
X10445500Y-16603982D01*
X10416503Y-16495763D01*
X10360485Y-16398737D01*
X10281263Y-16319515D01*
X10184237Y-16263497D01*
X10076018Y-16234500D01*
X10040254Y-16234500D01*
X10019008Y-16228261D01*
X9996920Y-16226682D01*
X9986136Y-16218609D01*
X9973215Y-16214815D01*
X9958715Y-16198081D01*
X9940987Y-16184810D01*
X9936279Y-16172189D01*
X9927460Y-16162011D01*
X9924308Y-16140093D01*
X9916570Y-16119346D01*
X9919432Y-16106185D01*
X9917516Y-16092853D01*
X9926715Y-16072709D01*
X9931422Y-16051073D01*
X9944690Y-16033347D01*
X9946541Y-16029297D01*
X9952573Y-16022819D01*
X10007773Y-15967619D01*
X10069096Y-15934134D01*
X10095454Y-15931300D01*
X10632064Y-15931300D01*
X10632066Y-15931300D01*
X10724429Y-15893042D01*
X12643619Y-13973852D01*
X12704942Y-13940367D01*
X12774634Y-13945351D01*
G37*
%TD.AperFunction*%
%TA.AperFunction,Conductor*%
G36*
X31036330Y-17270985D02*
G01*
X31082085Y-17323789D01*
X31092029Y-17392947D01*
X31063004Y-17456503D01*
X31016744Y-17489861D01*
X30931528Y-17525158D01*
X30931527Y-17525159D01*
X30582506Y-17874181D01*
X30521183Y-17907666D01*
X30494825Y-17910500D01*
X30125510Y-17910500D01*
X30058471Y-17890815D01*
X30037829Y-17874181D01*
X30013806Y-17850158D01*
X29921444Y-17811900D01*
X29921443Y-17811900D01*
X27888866Y-17811900D01*
X27788892Y-17811900D01*
X27788890Y-17811900D01*
X27696528Y-17850158D01*
X27696527Y-17850159D01*
X27552506Y-17994181D01*
X27491183Y-18027666D01*
X27464825Y-18030500D01*
X26364254Y-18030500D01*
X26297215Y-18010815D01*
X26251460Y-17958011D01*
X26241516Y-17888853D01*
X26270541Y-17825297D01*
X26276573Y-17818819D01*
X26807773Y-17287619D01*
X26869096Y-17254134D01*
X26895454Y-17251300D01*
X30969291Y-17251300D01*
X31036330Y-17270985D01*
G37*
%TD.AperFunction*%
%TA.AperFunction,Conductor*%
G36*
X16215195Y-10850632D02*
G01*
X16271128Y-10892504D01*
X16295545Y-10957968D01*
X16295861Y-10966814D01*
X16295861Y-13321706D01*
X16276176Y-13388745D01*
X16259542Y-13409387D01*
X16137181Y-13531748D01*
X16075858Y-13565233D01*
X16006166Y-13560249D01*
X15950233Y-13518377D01*
X15925816Y-13452913D01*
X15925500Y-13444067D01*
X15925500Y-13363984D01*
X15925500Y-13363982D01*
X15896503Y-13255763D01*
X15840485Y-13158737D01*
X15761263Y-13079515D01*
X15690628Y-13038734D01*
X15664239Y-13023498D01*
X15664238Y-13023497D01*
X15664237Y-13023497D01*
X15556018Y-12994500D01*
X15443982Y-12994500D01*
X15335763Y-13023497D01*
X15335760Y-13023498D01*
X15238740Y-13079513D01*
X15238734Y-13079517D01*
X15159517Y-13158734D01*
X15159513Y-13158740D01*
X15103498Y-13255760D01*
X15103497Y-13255763D01*
X15074500Y-13363982D01*
X15074500Y-13476018D01*
X15103291Y-13583466D01*
X15103497Y-13584236D01*
X15103498Y-13584239D01*
X15111658Y-13598373D01*
X15159515Y-13681263D01*
X15238737Y-13760485D01*
X15335763Y-13816503D01*
X15443982Y-13845500D01*
X15443984Y-13845500D01*
X15524067Y-13845500D01*
X15591106Y-13865185D01*
X15636861Y-13917989D01*
X15646805Y-13987147D01*
X15617780Y-14050703D01*
X15611748Y-14057181D01*
X14922009Y-14746919D01*
X14922008Y-14746919D01*
X14922009Y-14746920D01*
X14868758Y-14800171D01*
X14830500Y-14892532D01*
X14830500Y-15944825D01*
X14810815Y-16011864D01*
X14794181Y-16032506D01*
X14006106Y-16820581D01*
X13944783Y-16854066D01*
X13918425Y-16856900D01*
X13659708Y-16856900D01*
X13559734Y-16856900D01*
X13559732Y-16856900D01*
X13559730Y-16856901D01*
X13529352Y-16869484D01*
X13459883Y-16876953D01*
X13397404Y-16845678D01*
X13361752Y-16785588D01*
X13357900Y-16754923D01*
X13357900Y-13656775D01*
X13377585Y-13589736D01*
X13394219Y-13569094D01*
X14131086Y-12832227D01*
X14879048Y-12084264D01*
X14940369Y-12050781D01*
X15010061Y-12055765D01*
X15065994Y-12097637D01*
X15074114Y-12109947D01*
X15109515Y-12171263D01*
X15188737Y-12250485D01*
X15285763Y-12306503D01*
X15393982Y-12335500D01*
X15393984Y-12335500D01*
X15506016Y-12335500D01*
X15506018Y-12335500D01*
X15614237Y-12306503D01*
X15711263Y-12250485D01*
X15790485Y-12171263D01*
X15846503Y-12074237D01*
X15875500Y-11966018D01*
X15875500Y-11853982D01*
X15846503Y-11745763D01*
X15790485Y-11648737D01*
X15711263Y-11569515D01*
X15649947Y-11534114D01*
X15601731Y-11483547D01*
X15588509Y-11414940D01*
X15614477Y-11350075D01*
X15624258Y-11339054D01*
X16084180Y-10879133D01*
X16145503Y-10845648D01*
X16215195Y-10850632D01*
G37*
%TD.AperFunction*%
%TA.AperFunction,Conductor*%
G36*
X34859834Y-10900151D02*
G01*
X34915767Y-10942023D01*
X34940184Y-11007487D01*
X34940500Y-11016333D01*
X34940500Y-12493050D01*
X34920815Y-12560089D01*
X34868011Y-12605844D01*
X34798853Y-12615788D01*
X34784412Y-12612826D01*
X34716018Y-12594500D01*
X34603982Y-12594500D01*
X34495763Y-12623497D01*
X34495760Y-12623498D01*
X34398740Y-12679513D01*
X34398734Y-12679517D01*
X34319517Y-12758734D01*
X34319513Y-12758740D01*
X34263498Y-12855760D01*
X34263497Y-12855763D01*
X34234500Y-12963982D01*
X34234500Y-13076018D01*
X34263497Y-13184237D01*
X34319515Y-13281263D01*
X34398737Y-13360485D01*
X34495763Y-13416503D01*
X34603982Y-13445500D01*
X34603984Y-13445500D01*
X34716016Y-13445500D01*
X34716018Y-13445500D01*
X34784408Y-13427175D01*
X34854255Y-13428837D01*
X34912118Y-13467998D01*
X34939623Y-13532227D01*
X34940500Y-13546949D01*
X34940500Y-15024825D01*
X34931855Y-15054266D01*
X34925331Y-15084254D01*
X34921577Y-15089268D01*
X34920815Y-15091864D01*
X34904179Y-15112508D01*
X34881932Y-15134754D01*
X34820608Y-15168238D01*
X34750917Y-15163252D01*
X34694984Y-15121379D01*
X34686866Y-15109071D01*
X34662913Y-15067584D01*
X34640485Y-15028737D01*
X34561263Y-14949515D01*
X34478365Y-14901654D01*
X34464239Y-14893498D01*
X34464238Y-14893497D01*
X34464237Y-14893497D01*
X34356018Y-14864500D01*
X34243982Y-14864500D01*
X34135763Y-14893497D01*
X34135760Y-14893498D01*
X34038740Y-14949513D01*
X34038734Y-14949517D01*
X33959517Y-15028734D01*
X33959513Y-15028740D01*
X33903498Y-15125760D01*
X33903497Y-15125763D01*
X33874500Y-15233982D01*
X33874500Y-15346018D01*
X33899813Y-15440486D01*
X33903497Y-15454236D01*
X33903498Y-15454239D01*
X33918172Y-15479655D01*
X33959515Y-15551263D01*
X34038737Y-15630485D01*
X34119072Y-15676866D01*
X34167287Y-15727433D01*
X34180511Y-15796040D01*
X34154543Y-15860904D01*
X34144753Y-15871934D01*
X33190953Y-16825733D01*
X33129630Y-16859218D01*
X33059938Y-16854234D01*
X33004005Y-16812362D01*
X32995885Y-16800052D01*
X32960485Y-16738737D01*
X32881263Y-16659515D01*
X32802498Y-16614040D01*
X32784239Y-16603498D01*
X32784238Y-16603497D01*
X32784237Y-16603497D01*
X32676018Y-16574500D01*
X32563982Y-16574500D01*
X32455763Y-16603497D01*
X32455760Y-16603498D01*
X32358740Y-16659513D01*
X32358734Y-16659517D01*
X32305871Y-16712381D01*
X32244548Y-16745866D01*
X32218190Y-16748700D01*
X26883959Y-16748700D01*
X26816920Y-16729015D01*
X26771165Y-16676211D01*
X26761221Y-16607053D01*
X26765263Y-16592319D01*
X26764399Y-16592088D01*
X26766503Y-16584237D01*
X26795500Y-16476018D01*
X26795500Y-16363982D01*
X26777175Y-16295591D01*
X26778838Y-16225743D01*
X26818001Y-16167881D01*
X26882229Y-16140377D01*
X26896950Y-16139500D01*
X30431785Y-16139500D01*
X30431787Y-16139500D01*
X30524150Y-16101242D01*
X31033572Y-15591818D01*
X31094895Y-15558334D01*
X31121253Y-15555500D01*
X31196016Y-15555500D01*
X31196018Y-15555500D01*
X31304237Y-15526503D01*
X31401263Y-15470485D01*
X31480485Y-15391263D01*
X31536503Y-15294237D01*
X31565500Y-15186018D01*
X31565500Y-15073982D01*
X31536503Y-14965763D01*
X31514295Y-14927298D01*
X31497823Y-14859401D01*
X31520675Y-14793374D01*
X31575596Y-14750183D01*
X31621683Y-14741300D01*
X32359985Y-14741300D01*
X32359987Y-14741300D01*
X32452350Y-14703042D01*
X32835443Y-14319949D01*
X32873701Y-14227586D01*
X32873701Y-14127612D01*
X32873701Y-12934017D01*
X32882345Y-12904576D01*
X32888869Y-12874590D01*
X32892623Y-12869574D01*
X32893386Y-12866978D01*
X32910020Y-12846336D01*
X32938737Y-12817619D01*
X33000060Y-12784134D01*
X33026418Y-12781300D01*
X33178190Y-12781300D01*
X33245229Y-12800985D01*
X33265871Y-12817619D01*
X33318737Y-12870485D01*
X33415763Y-12926503D01*
X33523982Y-12955500D01*
X33523984Y-12955500D01*
X33636016Y-12955500D01*
X33636018Y-12955500D01*
X33744237Y-12926503D01*
X33841263Y-12870485D01*
X33920485Y-12791263D01*
X33976503Y-12694237D01*
X34005500Y-12586018D01*
X34005500Y-12473982D01*
X33976503Y-12365763D01*
X33920485Y-12268737D01*
X33841263Y-12189515D01*
X33744237Y-12133497D01*
X33636018Y-12104500D01*
X33523982Y-12104500D01*
X33415763Y-12133497D01*
X33415760Y-12133498D01*
X33318740Y-12189513D01*
X33318734Y-12189517D01*
X33265871Y-12242381D01*
X33238943Y-12257084D01*
X33213125Y-12273677D01*
X33206924Y-12274568D01*
X33204548Y-12275866D01*
X33178190Y-12278700D01*
X32996053Y-12278700D01*
X32929014Y-12259015D01*
X32883259Y-12206211D01*
X32873315Y-12137053D01*
X32902340Y-12073497D01*
X32908372Y-12067019D01*
X33627772Y-11347619D01*
X33689095Y-11314134D01*
X33715453Y-11311300D01*
X34292064Y-11311300D01*
X34292066Y-11311300D01*
X34384429Y-11273042D01*
X34728819Y-10928652D01*
X34790142Y-10895167D01*
X34859834Y-10900151D01*
G37*
%TD.AperFunction*%
%TA.AperFunction,Conductor*%
G36*
X17396503Y-8224420D02*
G01*
X17402981Y-8230452D01*
X21074181Y-11901652D01*
X21107666Y-11962975D01*
X21110500Y-11989333D01*
X21110500Y-15625746D01*
X21090815Y-15692785D01*
X21038011Y-15738540D01*
X20968853Y-15748484D01*
X20905297Y-15719459D01*
X20898819Y-15713427D01*
X18627619Y-13442227D01*
X18594134Y-13380904D01*
X18591300Y-13354546D01*
X18591300Y-10770014D01*
X18591299Y-10770011D01*
X18568829Y-10715763D01*
X18553042Y-10677650D01*
X18482350Y-10606958D01*
X17227619Y-9352227D01*
X17194134Y-9290904D01*
X17191300Y-9264546D01*
X17191300Y-8318133D01*
X17210985Y-8251094D01*
X17263789Y-8205339D01*
X17332947Y-8195395D01*
X17396503Y-8224420D01*
G37*
%TD.AperFunction*%
%TA.AperFunction,Conductor*%
G36*
X30725356Y-14760985D02*
G01*
X30771111Y-14813789D01*
X30781055Y-14882947D01*
X30765705Y-14927296D01*
X30753327Y-14948737D01*
X30743497Y-14965763D01*
X30714500Y-15073982D01*
X30714500Y-15148745D01*
X30694815Y-15215784D01*
X30678181Y-15236426D01*
X30314027Y-15600581D01*
X30252704Y-15634066D01*
X30226346Y-15636900D01*
X26737854Y-15636900D01*
X26670815Y-15617215D01*
X26625060Y-15564411D01*
X26615116Y-15495253D01*
X26644141Y-15431697D01*
X26650173Y-15425219D01*
X27297773Y-14777619D01*
X27359096Y-14744134D01*
X27385454Y-14741300D01*
X30658317Y-14741300D01*
X30725356Y-14760985D01*
G37*
%TD.AperFunction*%
%TA.AperFunction,Conductor*%
G36*
X10923664Y-10720985D02*
G01*
X10944306Y-10737619D01*
X12212381Y-12005694D01*
X12245866Y-12067017D01*
X12248700Y-12093375D01*
X12248700Y-12906490D01*
X12229015Y-12973529D01*
X12176211Y-13019284D01*
X12107053Y-13029228D01*
X12092614Y-13026267D01*
X12086019Y-13024500D01*
X12086018Y-13024500D01*
X11973982Y-13024500D01*
X11865763Y-13053497D01*
X11865760Y-13053498D01*
X11768740Y-13109513D01*
X11768734Y-13109517D01*
X11689517Y-13188734D01*
X11689515Y-13188737D01*
X11667420Y-13227007D01*
X11616852Y-13275222D01*
X11548245Y-13288444D01*
X11483381Y-13262476D01*
X11442853Y-13205562D01*
X11440258Y-13197099D01*
X11426503Y-13145763D01*
X11370485Y-13048737D01*
X11291263Y-12969515D01*
X11216761Y-12926501D01*
X11194239Y-12913498D01*
X11194238Y-12913497D01*
X11194237Y-12913497D01*
X11086018Y-12884500D01*
X10973982Y-12884500D01*
X10865763Y-12913497D01*
X10865760Y-12913498D01*
X10768740Y-12969513D01*
X10768734Y-12969517D01*
X10689517Y-13048734D01*
X10689513Y-13048740D01*
X10633498Y-13145760D01*
X10633497Y-13145763D01*
X10604500Y-13253982D01*
X10604500Y-13366018D01*
X10633497Y-13474237D01*
X10689515Y-13571263D01*
X10768737Y-13650485D01*
X10865763Y-13706503D01*
X10973982Y-13735500D01*
X10973984Y-13735500D01*
X11086016Y-13735500D01*
X11086018Y-13735500D01*
X11194237Y-13706503D01*
X11291263Y-13650485D01*
X11370485Y-13571263D01*
X11392580Y-13532992D01*
X11443144Y-13484778D01*
X11511751Y-13471554D01*
X11576616Y-13497521D01*
X11617145Y-13554434D01*
X11619740Y-13562898D01*
X11633495Y-13614232D01*
X11633498Y-13614239D01*
X11636542Y-13619511D01*
X11689515Y-13711263D01*
X11768737Y-13790485D01*
X11817607Y-13818700D01*
X11849071Y-13836866D01*
X11897287Y-13887433D01*
X11910510Y-13956040D01*
X11884541Y-14020905D01*
X11874752Y-14031934D01*
X11280953Y-14625733D01*
X11219630Y-14659218D01*
X11149938Y-14654234D01*
X11094005Y-14612362D01*
X11085885Y-14600052D01*
X11062761Y-14560000D01*
X11050485Y-14538737D01*
X10971263Y-14459515D01*
X10898228Y-14417348D01*
X10874239Y-14403498D01*
X10874238Y-14403497D01*
X10874237Y-14403497D01*
X10766018Y-14374500D01*
X10691254Y-14374500D01*
X10624215Y-14354815D01*
X10603573Y-14338181D01*
X9564219Y-13298827D01*
X9530734Y-13237504D01*
X9527900Y-13211146D01*
X9527900Y-11969010D01*
X9547585Y-11901971D01*
X9600389Y-11856216D01*
X9669547Y-11846272D01*
X9733103Y-11875297D01*
X9739581Y-11881329D01*
X9748737Y-11890485D01*
X9845763Y-11946503D01*
X9953982Y-11975500D01*
X9953984Y-11975500D01*
X10066016Y-11975500D01*
X10066018Y-11975500D01*
X10174237Y-11946503D01*
X10271263Y-11890485D01*
X10350485Y-11811263D01*
X10406503Y-11714237D01*
X10435500Y-11606018D01*
X10435500Y-11493982D01*
X10406503Y-11385763D01*
X10350485Y-11288737D01*
X10271263Y-11209515D01*
X10174237Y-11153497D01*
X10066018Y-11124500D01*
X9991254Y-11124500D01*
X9961813Y-11115855D01*
X9931827Y-11109332D01*
X9926811Y-11105577D01*
X9924215Y-11104815D01*
X9903573Y-11088181D01*
X9902573Y-11087181D01*
X9869088Y-11025858D01*
X9874072Y-10956166D01*
X9915944Y-10900233D01*
X9981408Y-10875816D01*
X9990254Y-10875500D01*
X10086016Y-10875500D01*
X10086018Y-10875500D01*
X10194237Y-10846503D01*
X10291263Y-10790485D01*
X10344129Y-10737619D01*
X10405452Y-10704134D01*
X10431810Y-10701300D01*
X10856625Y-10701300D01*
X10923664Y-10720985D01*
G37*
%TD.AperFunction*%
%TA.AperFunction,Conductor*%
G36*
X29241585Y-11410985D02*
G01*
X29262227Y-11427619D01*
X30206958Y-12372350D01*
X30277650Y-12443042D01*
X30370013Y-12481300D01*
X30837590Y-12481300D01*
X30904629Y-12500985D01*
X30950384Y-12553789D01*
X30960328Y-12622947D01*
X30931303Y-12686503D01*
X30925271Y-12692981D01*
X30879517Y-12738734D01*
X30879513Y-12738740D01*
X30823498Y-12835760D01*
X30823497Y-12835763D01*
X30794500Y-12943982D01*
X30794500Y-13056018D01*
X30809597Y-13112362D01*
X30812825Y-13124407D01*
X30811162Y-13194257D01*
X30771999Y-13252119D01*
X30707771Y-13279623D01*
X30693050Y-13280500D01*
X27181123Y-13280500D01*
X27114084Y-13260815D01*
X27068329Y-13208011D01*
X27058385Y-13138853D01*
X27071306Y-13105130D01*
X27069640Y-13104440D01*
X27076993Y-13086689D01*
X27112572Y-13000794D01*
X27112572Y-12900820D01*
X27112572Y-12664182D01*
X27132257Y-12597143D01*
X27148891Y-12576501D01*
X28297773Y-11427619D01*
X28359096Y-11394134D01*
X28385454Y-11391300D01*
X29174546Y-11391300D01*
X29241585Y-11410985D01*
G37*
%TD.AperFunction*%
%TA.AperFunction,Conductor*%
G36*
X19480975Y-7515732D02*
G01*
X19534853Y-7560217D01*
X19546723Y-7582266D01*
X19555157Y-7602627D01*
X19555158Y-7602629D01*
X20378115Y-8425586D01*
X20448807Y-8496278D01*
X20541170Y-8534536D01*
X22295478Y-8534536D01*
X22295479Y-8534537D01*
X22395453Y-8534537D01*
X22477666Y-8500482D01*
X22492229Y-8498193D01*
X22512840Y-8500880D01*
X22533508Y-8498658D01*
X22546788Y-8505305D01*
X22561513Y-8507225D01*
X22577398Y-8520627D01*
X22595987Y-8529932D01*
X22603774Y-8542880D01*
X22614915Y-8552280D01*
X22620675Y-8570983D01*
X22631266Y-8588593D01*
X22643495Y-8634232D01*
X22643496Y-8634236D01*
X22643497Y-8634237D01*
X22699515Y-8731263D01*
X22778737Y-8810485D01*
X22875763Y-8866503D01*
X22983982Y-8895500D01*
X22983984Y-8895500D01*
X23058746Y-8895500D01*
X23125785Y-8915185D01*
X23126652Y-8915747D01*
X23137372Y-8922763D01*
X23140357Y-8925748D01*
X23140358Y-8925750D01*
X23211050Y-8996442D01*
X23303413Y-9034700D01*
X23303414Y-9034700D01*
X23308399Y-9034700D01*
X23326712Y-9046686D01*
X23342140Y-9064793D01*
X23360662Y-9079719D01*
X23364383Y-9090898D01*
X23372026Y-9099869D01*
X23375215Y-9123444D01*
X23382727Y-9146013D01*
X23379813Y-9157429D01*
X23381393Y-9169108D01*
X23371330Y-9190664D01*
X23365448Y-9213712D01*
X23353230Y-9229440D01*
X23351839Y-9232420D01*
X23350027Y-9233563D01*
X23346488Y-9238119D01*
X23306958Y-9277649D01*
X23268700Y-9370011D01*
X23268700Y-10609988D01*
X23306958Y-10702350D01*
X23378181Y-10773573D01*
X23411666Y-10834896D01*
X23414500Y-10861254D01*
X23414500Y-10936018D01*
X23443497Y-11044237D01*
X23499515Y-11141263D01*
X23499517Y-11141265D01*
X23581819Y-11223567D01*
X23615304Y-11284890D01*
X23610320Y-11354582D01*
X23581819Y-11398929D01*
X23555114Y-11425633D01*
X23555110Y-11425639D01*
X23499095Y-11522659D01*
X23499094Y-11522662D01*
X23470097Y-11630881D01*
X23470097Y-11742917D01*
X23490227Y-11818041D01*
X23499094Y-11851135D01*
X23499095Y-11851138D01*
X23513043Y-11875297D01*
X23555112Y-11948162D01*
X23634334Y-12027384D01*
X23731360Y-12083402D01*
X23839579Y-12112399D01*
X23839581Y-12112399D01*
X23951613Y-12112399D01*
X23951615Y-12112399D01*
X24059834Y-12083402D01*
X24156860Y-12027384D01*
X24236082Y-11948162D01*
X24292100Y-11851136D01*
X24321097Y-11742917D01*
X24321097Y-11630881D01*
X24292100Y-11522662D01*
X24236082Y-11425636D01*
X24156860Y-11346414D01*
X24153778Y-11343332D01*
X24120293Y-11282009D01*
X24125277Y-11212317D01*
X24153778Y-11167970D01*
X24180485Y-11141263D01*
X24236503Y-11044237D01*
X24265500Y-10936018D01*
X24265500Y-10823982D01*
X24236503Y-10715763D01*
X24180485Y-10618737D01*
X24101263Y-10539515D01*
X24004237Y-10483497D01*
X23896018Y-10454500D01*
X23895300Y-10454500D01*
X23894717Y-10454329D01*
X23887958Y-10453439D01*
X23888096Y-10452384D01*
X23886614Y-10451949D01*
X23877653Y-10453238D01*
X23853612Y-10442259D01*
X23828261Y-10434815D01*
X23822333Y-10427974D01*
X23814097Y-10424213D01*
X23799807Y-10401978D01*
X23782506Y-10382011D01*
X23780218Y-10371496D01*
X23776323Y-10365435D01*
X23771300Y-10330500D01*
X23771300Y-10323959D01*
X23790985Y-10256920D01*
X23843789Y-10211165D01*
X23912947Y-10201221D01*
X23927680Y-10205263D01*
X23927912Y-10204399D01*
X23935761Y-10206502D01*
X23935763Y-10206503D01*
X24043982Y-10235500D01*
X24043984Y-10235500D01*
X24118746Y-10235500D01*
X24185785Y-10255185D01*
X24206427Y-10271819D01*
X25072381Y-11137773D01*
X25105866Y-11199096D01*
X25108700Y-11225454D01*
X25108700Y-12949985D01*
X25108701Y-12949990D01*
X25111707Y-12957248D01*
X25115164Y-12989402D01*
X25120020Y-13021370D01*
X25118876Y-13023928D01*
X25119176Y-13026718D01*
X25104697Y-13055641D01*
X25091502Y-13085155D01*
X25089155Y-13086689D01*
X25087900Y-13089197D01*
X25060097Y-13105692D01*
X25033026Y-13123396D01*
X25029339Y-13123940D01*
X25027811Y-13124848D01*
X24998132Y-13128696D01*
X24997629Y-13128700D01*
X24792092Y-13128700D01*
X24788067Y-13130366D01*
X24771815Y-13130496D01*
X24771572Y-13130426D01*
X24770829Y-13130500D01*
X24469171Y-13130500D01*
X24450894Y-13128700D01*
X24447908Y-13128700D01*
X23815454Y-13128700D01*
X23748415Y-13109015D01*
X23727773Y-13092381D01*
X18802573Y-8167181D01*
X18769088Y-8105858D01*
X18774072Y-8036166D01*
X18815944Y-7980233D01*
X18881408Y-7955816D01*
X18890254Y-7955500D01*
X18946016Y-7955500D01*
X18946018Y-7955500D01*
X19054237Y-7926503D01*
X19151263Y-7870485D01*
X19230485Y-7791263D01*
X19286503Y-7694237D01*
X19312390Y-7597624D01*
X19348752Y-7537968D01*
X19411599Y-7507438D01*
X19480975Y-7515732D01*
G37*
%TD.AperFunction*%
%TA.AperFunction,Conductor*%
G36*
X16742785Y-5899185D02*
G01*
X16788540Y-5951989D01*
X16798484Y-6021147D01*
X16769459Y-6084703D01*
X16763427Y-6091181D01*
X15768759Y-7085848D01*
X15768758Y-7085849D01*
X15730500Y-7178211D01*
X15730500Y-8313050D01*
X15710815Y-8380089D01*
X15658011Y-8425844D01*
X15588853Y-8435788D01*
X15574412Y-8432826D01*
X15506018Y-8414500D01*
X15393982Y-8414500D01*
X15285763Y-8443497D01*
X15285760Y-8443498D01*
X15188740Y-8499513D01*
X15188734Y-8499517D01*
X15109517Y-8578734D01*
X15109513Y-8578740D01*
X15053498Y-8675760D01*
X15053497Y-8675763D01*
X15024500Y-8783982D01*
X15024500Y-8896018D01*
X15051409Y-8996442D01*
X15053497Y-9004236D01*
X15053498Y-9004239D01*
X15071085Y-9034700D01*
X15109515Y-9101263D01*
X15188737Y-9180485D01*
X15285763Y-9236503D01*
X15393982Y-9265500D01*
X15393984Y-9265500D01*
X15506016Y-9265500D01*
X15506018Y-9265500D01*
X15574408Y-9247175D01*
X15599397Y-9247769D01*
X15624147Y-9244211D01*
X15633728Y-9248586D01*
X15644255Y-9248837D01*
X15664958Y-9262849D01*
X15687703Y-9273236D01*
X15693396Y-9282095D01*
X15702118Y-9287998D01*
X15711960Y-9310981D01*
X15725477Y-9332014D01*
X15727756Y-9347868D01*
X15729623Y-9352227D01*
X15730500Y-9366949D01*
X15730500Y-9510948D01*
X15710815Y-9577987D01*
X15658011Y-9623742D01*
X15588853Y-9633686D01*
X15538852Y-9612625D01*
X15538302Y-9613579D01*
X15434239Y-9553498D01*
X15434238Y-9553497D01*
X15434237Y-9553497D01*
X15326018Y-9524500D01*
X15213982Y-9524500D01*
X15105763Y-9553497D01*
X15105760Y-9553498D01*
X15008740Y-9609513D01*
X15008733Y-9609518D01*
X14966166Y-9652085D01*
X14904843Y-9685569D01*
X14835151Y-9680584D01*
X14779218Y-9638712D01*
X14771099Y-9626403D01*
X14761349Y-9609515D01*
X14720485Y-9538737D01*
X14641263Y-9459515D01*
X14561920Y-9413706D01*
X14544239Y-9403498D01*
X14544238Y-9403497D01*
X14544237Y-9403497D01*
X14436018Y-9374500D01*
X14323982Y-9374500D01*
X14215763Y-9403497D01*
X14215760Y-9403498D01*
X14118740Y-9459513D01*
X14118734Y-9459517D01*
X14039517Y-9538734D01*
X14039510Y-9538743D01*
X14036482Y-9543989D01*
X14018389Y-9561239D01*
X14003407Y-9581253D01*
X13993537Y-9584934D01*
X13985914Y-9592203D01*
X13961366Y-9596933D01*
X13937943Y-9605670D01*
X13927649Y-9603430D01*
X13917306Y-9605424D01*
X13894097Y-9596131D01*
X13869670Y-9590818D01*
X13856844Y-9581216D01*
X13852442Y-9579454D01*
X13841416Y-9569667D01*
X13807619Y-9535870D01*
X13774134Y-9474547D01*
X13771300Y-9448189D01*
X13771300Y-7125454D01*
X13790985Y-7058415D01*
X13807619Y-7037773D01*
X14929573Y-5915819D01*
X14990896Y-5882334D01*
X15017254Y-5879500D01*
X16675746Y-5879500D01*
X16742785Y-5899185D01*
G37*
%TD.AperFunction*%
%TA.AperFunction,Conductor*%
G36*
X33335719Y-6867207D02*
G01*
X33337147Y-6867002D01*
X33366946Y-6875176D01*
X33430013Y-6901300D01*
X33430014Y-6901300D01*
X33529987Y-6901300D01*
X34274546Y-6901300D01*
X34341585Y-6920985D01*
X34362227Y-6937619D01*
X34589418Y-7164810D01*
X34622903Y-7226133D01*
X34617919Y-7295825D01*
X34576047Y-7351758D01*
X34510583Y-7376175D01*
X34469644Y-7372266D01*
X34401973Y-7354134D01*
X34366018Y-7344500D01*
X34253982Y-7344500D01*
X34145763Y-7373497D01*
X34145760Y-7373498D01*
X34048740Y-7429513D01*
X34048734Y-7429517D01*
X33969517Y-7508734D01*
X33969513Y-7508740D01*
X33913498Y-7605760D01*
X33913497Y-7605763D01*
X33884500Y-7713982D01*
X33884500Y-7826018D01*
X33913497Y-7934237D01*
X33969515Y-8031263D01*
X34048737Y-8110485D01*
X34145763Y-8166503D01*
X34253982Y-8195500D01*
X34253984Y-8195500D01*
X34366016Y-8195500D01*
X34366018Y-8195500D01*
X34474237Y-8166503D01*
X34571263Y-8110485D01*
X34650485Y-8031263D01*
X34706503Y-7934237D01*
X34706503Y-7934236D01*
X34709113Y-7929716D01*
X34759680Y-7881500D01*
X34828287Y-7868277D01*
X34893152Y-7894245D01*
X34933680Y-7951159D01*
X34940500Y-7991716D01*
X34940500Y-9145746D01*
X34920815Y-9212785D01*
X34868011Y-9258540D01*
X34798853Y-9268484D01*
X34735297Y-9239459D01*
X34728819Y-9233427D01*
X34082350Y-8586958D01*
X33989988Y-8548700D01*
X33989987Y-8548700D01*
X33375454Y-8548700D01*
X33308415Y-8529015D01*
X33287773Y-8512381D01*
X33045819Y-8270427D01*
X33012334Y-8209104D01*
X33009500Y-8182746D01*
X33009500Y-7413610D01*
X33029185Y-7346571D01*
X33045819Y-7325929D01*
X33075923Y-7295825D01*
X33110485Y-7261263D01*
X33166503Y-7164237D01*
X33195500Y-7056018D01*
X33195500Y-6989740D01*
X33204743Y-6958259D01*
X33212859Y-6926466D01*
X33214538Y-6924902D01*
X33215185Y-6922701D01*
X33239973Y-6901221D01*
X33263996Y-6878856D01*
X33266255Y-6878448D01*
X33267989Y-6876946D01*
X33300471Y-6872275D01*
X33332756Y-6866451D01*
X33335719Y-6867207D01*
G37*
%TD.AperFunction*%
%TA.AperFunction,Conductor*%
G36*
X24739266Y-4556337D02*
G01*
X24779734Y-4573100D01*
X24879708Y-4573100D01*
X27026346Y-4573100D01*
X27093385Y-4592785D01*
X27114027Y-4609419D01*
X28212381Y-5707773D01*
X28227084Y-5734700D01*
X28243677Y-5760519D01*
X28244568Y-5766719D01*
X28245866Y-5769096D01*
X28248700Y-5795454D01*
X28248700Y-5933946D01*
X28229015Y-6000985D01*
X28176211Y-6046740D01*
X28107053Y-6056684D01*
X28043497Y-6027659D01*
X28037019Y-6021627D01*
X27533950Y-5518558D01*
X27441588Y-5480300D01*
X27441587Y-5480300D01*
X23863854Y-5480300D01*
X23796815Y-5460615D01*
X23751060Y-5407811D01*
X23741116Y-5338653D01*
X23753826Y-5301927D01*
X23753392Y-5301747D01*
X23756414Y-5294448D01*
X23756465Y-5294304D01*
X23756484Y-5294269D01*
X23756503Y-5294237D01*
X23785500Y-5186018D01*
X23785500Y-5073982D01*
X23756503Y-4965763D01*
X23700485Y-4868737D01*
X23621263Y-4789515D01*
X23621261Y-4789514D01*
X23621259Y-4789512D01*
X23601814Y-4778286D01*
X23553598Y-4727719D01*
X23540376Y-4659112D01*
X23566344Y-4594247D01*
X23623258Y-4553719D01*
X23663814Y-4546899D01*
X24691814Y-4546899D01*
X24739266Y-4556337D01*
G37*
%TD.AperFunction*%
%TA.AperFunction,Conductor*%
G36*
X25802539Y-3080185D02*
G01*
X25848294Y-3132989D01*
X25859500Y-3184500D01*
X25859500Y-3794309D01*
X25875494Y-3853998D01*
X25883713Y-3884673D01*
X25891680Y-3914406D01*
X25890017Y-3984256D01*
X25850855Y-4042119D01*
X25786626Y-4069623D01*
X25771905Y-4070500D01*
X24941427Y-4070500D01*
X24893974Y-4061061D01*
X24853508Y-4044299D01*
X24853507Y-4044299D01*
X24497512Y-4044299D01*
X24479024Y-4038870D01*
X24459761Y-4038413D01*
X24446190Y-4029229D01*
X24430473Y-4024614D01*
X24417857Y-4010054D01*
X24401896Y-3999253D01*
X24395445Y-3984189D01*
X24384718Y-3971810D01*
X24381975Y-3952738D01*
X24374390Y-3935025D01*
X24377105Y-3918869D01*
X24374774Y-3902652D01*
X24382778Y-3885124D01*
X24385973Y-3866122D01*
X24396993Y-3853998D01*
X24403799Y-3839096D01*
X24420009Y-3828678D01*
X24432970Y-3814420D01*
X24460622Y-3802578D01*
X24462577Y-3801322D01*
X24465414Y-3800526D01*
X24465414Y-3800525D01*
X24465416Y-3800524D01*
X24465419Y-3800524D01*
X24479544Y-3796739D01*
X24492550Y-3793254D01*
X24492551Y-3793254D01*
X24492555Y-3793253D01*
X24492556Y-3793252D01*
X24505445Y-3789799D01*
X24608172Y-3730489D01*
X25241842Y-3096819D01*
X25303165Y-3063334D01*
X25329523Y-3060500D01*
X25735500Y-3060500D01*
X25802539Y-3080185D01*
G37*
%TD.AperFunction*%
%TA.AperFunction,Conductor*%
G36*
X18517807Y-520185D02*
G01*
X18563562Y-572989D01*
X18573506Y-642147D01*
X18544481Y-705703D01*
X18492689Y-738986D01*
X18493270Y-740388D01*
X18485760Y-743498D01*
X18388740Y-799513D01*
X18388734Y-799517D01*
X18309517Y-878734D01*
X18309513Y-878740D01*
X18253498Y-975760D01*
X18253497Y-975763D01*
X18224500Y-1083982D01*
X18224500Y-1196018D01*
X18250761Y-1294024D01*
X18253497Y-1304236D01*
X18253498Y-1304239D01*
X18304456Y-1392501D01*
X18320929Y-1460401D01*
X18304457Y-1516500D01*
X18253497Y-1604765D01*
X18253497Y-1604766D01*
X18224500Y-1712985D01*
X18224500Y-1825021D01*
X18253497Y-1933240D01*
X18309515Y-2030266D01*
X18388737Y-2109488D01*
X18485763Y-2165506D01*
X18593982Y-2194503D01*
X18593984Y-2194503D01*
X18706016Y-2194503D01*
X18706018Y-2194503D01*
X18814237Y-2165506D01*
X18911263Y-2109488D01*
X18990485Y-2030266D01*
X19046503Y-1933240D01*
X19075500Y-1825021D01*
X19075500Y-1712985D01*
X19046503Y-1604766D01*
X18995542Y-1516500D01*
X18979070Y-1448601D01*
X18995541Y-1392504D01*
X19046503Y-1304237D01*
X19075500Y-1196018D01*
X19075500Y-1083982D01*
X19046503Y-975763D01*
X18990485Y-878737D01*
X18911263Y-799515D01*
X18814237Y-743497D01*
X18814235Y-743496D01*
X18806730Y-740388D01*
X18807542Y-738425D01*
X18757479Y-707911D01*
X18726949Y-645065D01*
X18735243Y-575689D01*
X18779727Y-521811D01*
X18846279Y-500535D01*
X18849232Y-500500D01*
X45375500Y-500500D01*
X45442539Y-520185D01*
X45488294Y-572989D01*
X45499500Y-624500D01*
X45499500Y-21375500D01*
X45479815Y-21442539D01*
X45427011Y-21488294D01*
X45375500Y-21499500D01*
X624500Y-21499500D01*
X557461Y-21479815D01*
X511706Y-21427011D01*
X500500Y-21375500D01*
X500500Y-19639999D01*
X1070884Y-19639999D01*
X1070885Y-19640000D01*
X1711988Y-19640000D01*
X1679075Y-19697007D01*
X1645000Y-19824174D01*
X1645000Y-19955826D01*
X1679075Y-20082993D01*
X1711988Y-20140000D01*
X1070885Y-20140000D01*
X1072085Y-20147584D01*
X1125591Y-20312255D01*
X1204195Y-20466524D01*
X1305967Y-20606602D01*
X1428397Y-20729032D01*
X1568475Y-20830804D01*
X1722744Y-20909408D01*
X1887415Y-20962914D01*
X1887414Y-20962914D01*
X1894999Y-20964115D01*
X1895000Y-20964114D01*
X1895000Y-20323012D01*
X1952007Y-20355925D01*
X2079174Y-20390000D01*
X2210826Y-20390000D01*
X2337993Y-20355925D01*
X2395000Y-20323012D01*
X2395000Y-20964115D01*
X2402584Y-20962914D01*
X2567255Y-20909408D01*
X2721524Y-20830804D01*
X2861602Y-20729032D01*
X2984032Y-20606602D01*
X3085804Y-20466524D01*
X3164408Y-20312255D01*
X3217914Y-20147584D01*
X3219115Y-20140000D01*
X2578012Y-20140000D01*
X2610925Y-20082993D01*
X2645000Y-19955826D01*
X2645000Y-19824174D01*
X2610925Y-19697007D01*
X2578012Y-19640000D01*
X3219115Y-19640000D01*
X3219115Y-19639999D01*
X3217914Y-19632415D01*
X3164408Y-19467744D01*
X3085804Y-19313475D01*
X2984032Y-19173397D01*
X2861602Y-19050967D01*
X2721524Y-18949195D01*
X2567257Y-18870591D01*
X2402589Y-18817087D01*
X2402581Y-18817085D01*
X2395000Y-18815884D01*
X2395000Y-19456988D01*
X2337993Y-19424075D01*
X2210826Y-19390000D01*
X2079174Y-19390000D01*
X1952007Y-19424075D01*
X1895000Y-19456988D01*
X1895000Y-18815884D01*
X1894999Y-18815884D01*
X1887418Y-18817085D01*
X1887410Y-18817087D01*
X1722742Y-18870591D01*
X1568475Y-18949195D01*
X1428397Y-19050967D01*
X1305967Y-19173397D01*
X1204195Y-19313475D01*
X1125591Y-19467744D01*
X1072085Y-19632415D01*
X1070884Y-19639999D01*
X500500Y-19639999D01*
X500500Y-17099999D01*
X1070884Y-17099999D01*
X1070885Y-17100000D01*
X1711988Y-17100000D01*
X1679075Y-17157007D01*
X1645000Y-17284174D01*
X1645000Y-17415826D01*
X1679075Y-17542993D01*
X1711988Y-17600000D01*
X1070885Y-17600000D01*
X1072085Y-17607584D01*
X1125591Y-17772255D01*
X1204195Y-17926524D01*
X1305967Y-18066602D01*
X1428397Y-18189032D01*
X1568475Y-18290804D01*
X1722744Y-18369408D01*
X1887415Y-18422914D01*
X1887414Y-18422914D01*
X1894999Y-18424115D01*
X1895000Y-18424114D01*
X1895000Y-17783012D01*
X1952007Y-17815925D01*
X2079174Y-17850000D01*
X2210826Y-17850000D01*
X2337993Y-17815925D01*
X2395000Y-17783012D01*
X2395000Y-18424115D01*
X2402584Y-18422914D01*
X2567255Y-18369408D01*
X2721524Y-18290804D01*
X2861602Y-18189032D01*
X2984032Y-18066602D01*
X3085804Y-17926524D01*
X3164408Y-17772255D01*
X3217914Y-17607584D01*
X3219115Y-17600000D01*
X2578012Y-17600000D01*
X2610925Y-17542993D01*
X2645000Y-17415826D01*
X2645000Y-17284174D01*
X2610925Y-17157007D01*
X2578012Y-17100000D01*
X3219115Y-17100000D01*
X3219115Y-17099999D01*
X3217914Y-17092415D01*
X3164408Y-16927744D01*
X3085804Y-16773475D01*
X2984032Y-16633397D01*
X2861602Y-16510967D01*
X2721524Y-16409195D01*
X2567257Y-16330591D01*
X2402589Y-16277087D01*
X2402581Y-16277085D01*
X2395000Y-16275884D01*
X2395000Y-16916988D01*
X2337993Y-16884075D01*
X2210826Y-16850000D01*
X2079174Y-16850000D01*
X1952007Y-16884075D01*
X1895000Y-16916988D01*
X1895000Y-16275884D01*
X1894999Y-16275884D01*
X1887418Y-16277085D01*
X1887410Y-16277087D01*
X1722742Y-16330591D01*
X1568475Y-16409195D01*
X1428397Y-16510967D01*
X1305967Y-16633397D01*
X1204195Y-16773475D01*
X1125591Y-16927744D01*
X1072085Y-17092415D01*
X1070884Y-17099999D01*
X500500Y-17099999D01*
X500500Y-14559999D01*
X1070884Y-14559999D01*
X1070885Y-14560000D01*
X1711988Y-14560000D01*
X1679075Y-14617007D01*
X1645000Y-14744174D01*
X1645000Y-14875826D01*
X1679075Y-15002993D01*
X1711988Y-15060000D01*
X1070885Y-15060000D01*
X1072085Y-15067584D01*
X1125591Y-15232255D01*
X1204195Y-15386524D01*
X1305967Y-15526602D01*
X1428397Y-15649032D01*
X1568475Y-15750804D01*
X1722744Y-15829408D01*
X1887415Y-15882914D01*
X1887414Y-15882914D01*
X1894999Y-15884115D01*
X1895000Y-15884114D01*
X1895000Y-15243012D01*
X1952007Y-15275925D01*
X2079174Y-15310000D01*
X2210826Y-15310000D01*
X2337993Y-15275925D01*
X2395000Y-15243012D01*
X2395000Y-15884115D01*
X2402584Y-15882914D01*
X2567255Y-15829408D01*
X2721524Y-15750804D01*
X2861602Y-15649032D01*
X2984032Y-15526602D01*
X3085804Y-15386524D01*
X3164408Y-15232255D01*
X3217914Y-15067584D01*
X3219115Y-15060000D01*
X2578012Y-15060000D01*
X2610925Y-15002993D01*
X2645000Y-14875826D01*
X2645000Y-14744174D01*
X2610925Y-14617007D01*
X2578012Y-14560000D01*
X3219115Y-14560000D01*
X3219115Y-14559999D01*
X3217914Y-14552415D01*
X3164408Y-14387744D01*
X3085804Y-14233475D01*
X2984032Y-14093397D01*
X2861602Y-13970967D01*
X2721524Y-13869195D01*
X2567257Y-13790591D01*
X2402589Y-13737087D01*
X2402581Y-13737085D01*
X2395000Y-13735884D01*
X2395000Y-14376988D01*
X2337993Y-14344075D01*
X2210826Y-14310000D01*
X2079174Y-14310000D01*
X1952007Y-14344075D01*
X1895000Y-14376988D01*
X1895000Y-13735884D01*
X1894999Y-13735884D01*
X1887418Y-13737085D01*
X1887410Y-13737087D01*
X1722742Y-13790591D01*
X1568475Y-13869195D01*
X1428397Y-13970967D01*
X1305967Y-14093397D01*
X1204195Y-14233475D01*
X1125591Y-14387744D01*
X1072085Y-14552415D01*
X1070884Y-14559999D01*
X500500Y-14559999D01*
X500500Y-12019999D01*
X1070884Y-12019999D01*
X1070885Y-12020000D01*
X1711988Y-12020000D01*
X1679075Y-12077007D01*
X1645000Y-12204174D01*
X1645000Y-12335826D01*
X1679075Y-12462993D01*
X1711988Y-12520000D01*
X1070885Y-12520000D01*
X1072085Y-12527584D01*
X1125591Y-12692255D01*
X1204195Y-12846524D01*
X1305967Y-12986602D01*
X1428397Y-13109032D01*
X1568475Y-13210804D01*
X1722744Y-13289408D01*
X1887415Y-13342914D01*
X1887414Y-13342914D01*
X1894999Y-13344115D01*
X1895000Y-13344114D01*
X1895000Y-12703012D01*
X1952007Y-12735925D01*
X2079174Y-12770000D01*
X2210826Y-12770000D01*
X2337993Y-12735925D01*
X2395000Y-12703012D01*
X2395000Y-13344115D01*
X2402584Y-13342914D01*
X2567255Y-13289408D01*
X2721524Y-13210804D01*
X2861602Y-13109032D01*
X2984032Y-12986602D01*
X3085804Y-12846524D01*
X3164408Y-12692255D01*
X3217914Y-12527584D01*
X3219115Y-12520000D01*
X2578012Y-12520000D01*
X2610925Y-12462993D01*
X2645000Y-12335826D01*
X2645000Y-12204174D01*
X2610925Y-12077007D01*
X2578012Y-12020000D01*
X3219115Y-12020000D01*
X3219115Y-12019999D01*
X3217914Y-12012415D01*
X3164408Y-11847744D01*
X3085804Y-11693475D01*
X2984032Y-11553397D01*
X2861602Y-11430967D01*
X2721524Y-11329195D01*
X2567257Y-11250591D01*
X2402589Y-11197087D01*
X2402581Y-11197085D01*
X2395000Y-11195884D01*
X2395000Y-11836988D01*
X2337993Y-11804075D01*
X2210826Y-11770000D01*
X2079174Y-11770000D01*
X1952007Y-11804075D01*
X1895000Y-11836988D01*
X1895000Y-11195884D01*
X1894999Y-11195884D01*
X1887418Y-11197085D01*
X1887410Y-11197087D01*
X1722742Y-11250591D01*
X1568475Y-11329195D01*
X1428397Y-11430967D01*
X1305967Y-11553397D01*
X1204195Y-11693475D01*
X1125591Y-11847744D01*
X1072085Y-12012415D01*
X1070884Y-12019999D01*
X500500Y-12019999D01*
X500500Y-9479999D01*
X1070884Y-9479999D01*
X1070885Y-9480000D01*
X1711988Y-9480000D01*
X1679075Y-9537007D01*
X1645000Y-9664174D01*
X1645000Y-9795826D01*
X1679075Y-9922993D01*
X1711988Y-9980000D01*
X1070885Y-9980000D01*
X1072085Y-9987584D01*
X1125591Y-10152255D01*
X1204195Y-10306524D01*
X1305967Y-10446602D01*
X1428397Y-10569032D01*
X1568475Y-10670804D01*
X1722744Y-10749408D01*
X1887415Y-10802914D01*
X1887414Y-10802914D01*
X1894999Y-10804115D01*
X1895000Y-10804114D01*
X1895000Y-10163012D01*
X1952007Y-10195925D01*
X2079174Y-10230000D01*
X2210826Y-10230000D01*
X2337993Y-10195925D01*
X2395000Y-10163012D01*
X2395000Y-10804115D01*
X2402584Y-10802914D01*
X2567255Y-10749408D01*
X2721524Y-10670804D01*
X2861602Y-10569032D01*
X2984032Y-10446602D01*
X3085804Y-10306524D01*
X3164408Y-10152255D01*
X3217914Y-9987584D01*
X3219115Y-9980000D01*
X2578012Y-9980000D01*
X2610925Y-9922993D01*
X2645000Y-9795826D01*
X2645000Y-9664174D01*
X2610925Y-9537007D01*
X2578012Y-9480000D01*
X3219115Y-9480000D01*
X3219115Y-9479999D01*
X3217914Y-9472415D01*
X3164408Y-9307744D01*
X3085804Y-9153475D01*
X2984032Y-9013397D01*
X2861602Y-8890967D01*
X2721524Y-8789195D01*
X2567257Y-8710591D01*
X2402589Y-8657087D01*
X2402581Y-8657085D01*
X2395000Y-8655884D01*
X2395000Y-9296988D01*
X2337993Y-9264075D01*
X2210826Y-9230000D01*
X2079174Y-9230000D01*
X1952007Y-9264075D01*
X1895000Y-9296988D01*
X1895000Y-8655884D01*
X1894999Y-8655884D01*
X1887418Y-8657085D01*
X1887410Y-8657087D01*
X1722742Y-8710591D01*
X1568475Y-8789195D01*
X1428397Y-8890967D01*
X1305967Y-9013397D01*
X1204195Y-9153475D01*
X1125591Y-9307744D01*
X1072085Y-9472415D01*
X1070884Y-9479999D01*
X500500Y-9479999D01*
X500500Y-6939999D01*
X1070884Y-6939999D01*
X1070885Y-6940000D01*
X1711988Y-6940000D01*
X1679075Y-6997007D01*
X1645000Y-7124174D01*
X1645000Y-7255826D01*
X1679075Y-7382993D01*
X1711988Y-7440000D01*
X1070885Y-7440000D01*
X1072085Y-7447584D01*
X1125591Y-7612255D01*
X1204195Y-7766524D01*
X1305967Y-7906602D01*
X1428397Y-8029032D01*
X1568475Y-8130804D01*
X1722744Y-8209408D01*
X1887415Y-8262914D01*
X1887414Y-8262914D01*
X1894999Y-8264115D01*
X1895000Y-8264114D01*
X1895000Y-7623012D01*
X1952007Y-7655925D01*
X2079174Y-7690000D01*
X2210826Y-7690000D01*
X2337993Y-7655925D01*
X2395000Y-7623012D01*
X2395000Y-8264115D01*
X2402584Y-8262914D01*
X2567255Y-8209408D01*
X2721524Y-8130804D01*
X2861602Y-8029032D01*
X2984032Y-7906602D01*
X3085804Y-7766524D01*
X3164408Y-7612255D01*
X3217914Y-7447584D01*
X3219115Y-7440000D01*
X2578012Y-7440000D01*
X2610925Y-7382993D01*
X2645000Y-7255826D01*
X2645000Y-7124174D01*
X2610925Y-6997007D01*
X2578012Y-6940000D01*
X3219115Y-6940000D01*
X3219115Y-6939999D01*
X3217914Y-6932415D01*
X3164408Y-6767744D01*
X3085804Y-6613475D01*
X2984032Y-6473397D01*
X2861602Y-6350967D01*
X2721524Y-6249195D01*
X2567257Y-6170591D01*
X2402589Y-6117087D01*
X2402581Y-6117085D01*
X2395000Y-6115884D01*
X2395000Y-6756988D01*
X2337993Y-6724075D01*
X2210826Y-6690000D01*
X2079174Y-6690000D01*
X1952007Y-6724075D01*
X1895000Y-6756988D01*
X1895000Y-6115884D01*
X1894999Y-6115884D01*
X1887418Y-6117085D01*
X1887410Y-6117087D01*
X1722742Y-6170591D01*
X1568475Y-6249195D01*
X1428397Y-6350967D01*
X1305967Y-6473397D01*
X1204195Y-6613475D01*
X1125591Y-6767744D01*
X1072085Y-6932415D01*
X1070884Y-6939999D01*
X500500Y-6939999D01*
X500500Y-4399999D01*
X1070884Y-4399999D01*
X1070885Y-4400000D01*
X1711988Y-4400000D01*
X1679075Y-4457007D01*
X1645000Y-4584174D01*
X1645000Y-4715826D01*
X1679075Y-4842993D01*
X1711988Y-4900000D01*
X1070885Y-4900000D01*
X1072085Y-4907584D01*
X1125591Y-5072255D01*
X1204195Y-5226524D01*
X1305967Y-5366602D01*
X1428397Y-5489032D01*
X1568475Y-5590804D01*
X1722744Y-5669408D01*
X1887415Y-5722914D01*
X1887414Y-5722914D01*
X1894999Y-5724115D01*
X1895000Y-5724114D01*
X1895000Y-5083012D01*
X1952007Y-5115925D01*
X2079174Y-5150000D01*
X2210826Y-5150000D01*
X2337993Y-5115925D01*
X2395000Y-5083012D01*
X2395000Y-5724115D01*
X2402584Y-5722914D01*
X2567255Y-5669408D01*
X2721524Y-5590804D01*
X2861602Y-5489032D01*
X2984032Y-5366602D01*
X3085804Y-5226524D01*
X3164408Y-5072255D01*
X3217914Y-4907584D01*
X3219115Y-4900000D01*
X2578012Y-4900000D01*
X2610925Y-4842993D01*
X2645000Y-4715826D01*
X2645000Y-4584174D01*
X2610925Y-4457007D01*
X2578012Y-4400000D01*
X3219115Y-4400000D01*
X3219115Y-4399999D01*
X3217914Y-4392415D01*
X3164408Y-4227744D01*
X3085804Y-4073475D01*
X2984032Y-3933397D01*
X2861602Y-3810967D01*
X2721524Y-3709195D01*
X2567257Y-3630591D01*
X2402589Y-3577087D01*
X2402581Y-3577085D01*
X2395000Y-3575884D01*
X2395000Y-4216988D01*
X2337993Y-4184075D01*
X2210826Y-4150000D01*
X2079174Y-4150000D01*
X1952007Y-4184075D01*
X1895000Y-4216988D01*
X1895000Y-3575884D01*
X1894999Y-3575884D01*
X1887418Y-3577085D01*
X1887410Y-3577087D01*
X1722742Y-3630591D01*
X1568475Y-3709195D01*
X1428397Y-3810967D01*
X1305967Y-3933397D01*
X1204195Y-4073475D01*
X1125591Y-4227744D01*
X1072085Y-4392415D01*
X1070884Y-4399999D01*
X500500Y-4399999D01*
X500500Y-1859999D01*
X1070884Y-1859999D01*
X1070885Y-1860000D01*
X1711988Y-1860000D01*
X1679075Y-1917007D01*
X1645000Y-2044174D01*
X1645000Y-2175826D01*
X1679075Y-2302993D01*
X1711988Y-2360000D01*
X1070885Y-2360000D01*
X1072085Y-2367584D01*
X1125591Y-2532255D01*
X1204195Y-2686524D01*
X1305967Y-2826602D01*
X1428397Y-2949032D01*
X1568475Y-3050804D01*
X1722744Y-3129408D01*
X1887415Y-3182914D01*
X1887414Y-3182914D01*
X1894999Y-3184115D01*
X1895000Y-3184114D01*
X1895000Y-2543012D01*
X1952007Y-2575925D01*
X2079174Y-2610000D01*
X2210826Y-2610000D01*
X2337993Y-2575925D01*
X2395000Y-2543012D01*
X2395000Y-3184115D01*
X2402584Y-3182914D01*
X2567255Y-3129408D01*
X2721524Y-3050804D01*
X2861602Y-2949032D01*
X2984032Y-2826602D01*
X3085804Y-2686524D01*
X3164408Y-2532255D01*
X3217914Y-2367584D01*
X3219115Y-2360000D01*
X2578012Y-2360000D01*
X2610925Y-2302993D01*
X2645000Y-2175826D01*
X2645000Y-2044174D01*
X2634913Y-2006530D01*
X3634500Y-2006530D01*
X3634500Y-2213469D01*
X3674868Y-2416412D01*
X3674870Y-2416420D01*
X3740939Y-2575925D01*
X3754059Y-2607598D01*
X3869023Y-2779655D01*
X3948182Y-2858814D01*
X3981666Y-2920135D01*
X3984500Y-2946494D01*
X3984500Y-3813505D01*
X3964815Y-3880544D01*
X3948181Y-3901186D01*
X3869025Y-3980341D01*
X3869024Y-3980342D01*
X3754058Y-4152403D01*
X3674870Y-4343579D01*
X3674868Y-4343587D01*
X3634500Y-4546530D01*
X3634500Y-4753469D01*
X3674868Y-4956412D01*
X3674870Y-4956420D01*
X3740939Y-5115925D01*
X3754059Y-5147598D01*
X3869023Y-5319655D01*
X3948182Y-5398814D01*
X3981666Y-5460135D01*
X3984500Y-5486494D01*
X3984500Y-6353505D01*
X3964815Y-6420544D01*
X3948181Y-6441186D01*
X3869025Y-6520341D01*
X3869024Y-6520342D01*
X3754058Y-6692403D01*
X3674870Y-6883579D01*
X3674868Y-6883587D01*
X3634500Y-7086530D01*
X3634500Y-7293469D01*
X3674868Y-7496412D01*
X3674870Y-7496420D01*
X3740939Y-7655925D01*
X3754059Y-7687598D01*
X3869023Y-7859655D01*
X3948182Y-7938814D01*
X3981666Y-8000135D01*
X3984500Y-8026494D01*
X3984500Y-8893505D01*
X3964815Y-8960544D01*
X3948181Y-8981186D01*
X3869025Y-9060341D01*
X3869024Y-9060342D01*
X3754058Y-9232403D01*
X3674870Y-9423579D01*
X3674868Y-9423587D01*
X3634500Y-9626530D01*
X3634500Y-9833469D01*
X3674868Y-10036412D01*
X3674870Y-10036420D01*
X3744449Y-10204399D01*
X3754059Y-10227598D01*
X3869023Y-10399655D01*
X3948182Y-10478814D01*
X3981666Y-10540135D01*
X3984500Y-10566494D01*
X3984500Y-11433505D01*
X3964815Y-11500544D01*
X3948181Y-11521186D01*
X3869025Y-11600341D01*
X3869024Y-11600342D01*
X3754058Y-11772403D01*
X3674870Y-11963579D01*
X3674868Y-11963587D01*
X3634500Y-12166530D01*
X3634500Y-12373469D01*
X3674868Y-12576412D01*
X3674870Y-12576420D01*
X3750388Y-12758737D01*
X3754059Y-12767598D01*
X3869023Y-12939655D01*
X3948182Y-13018814D01*
X3981666Y-13080135D01*
X3984500Y-13106494D01*
X3984500Y-13973505D01*
X3964815Y-14040544D01*
X3948181Y-14061186D01*
X3869025Y-14140341D01*
X3869024Y-14140342D01*
X3754058Y-14312403D01*
X3674870Y-14503579D01*
X3674868Y-14503587D01*
X3634500Y-14706530D01*
X3634500Y-14913469D01*
X3674868Y-15116412D01*
X3674870Y-15116420D01*
X3748524Y-15294237D01*
X3754059Y-15307598D01*
X3869023Y-15479655D01*
X3948182Y-15558814D01*
X3981666Y-15620135D01*
X3984500Y-15646494D01*
X3984500Y-16513505D01*
X3964815Y-16580544D01*
X3948181Y-16601186D01*
X3869025Y-16680341D01*
X3869024Y-16680342D01*
X3754058Y-16852403D01*
X3674870Y-17043579D01*
X3674868Y-17043587D01*
X3634500Y-17246530D01*
X3634500Y-17453469D01*
X3674868Y-17656412D01*
X3674870Y-17656420D01*
X3745014Y-17825763D01*
X3754059Y-17847598D01*
X3869023Y-18019655D01*
X3948182Y-18098814D01*
X3981666Y-18160135D01*
X3984500Y-18186494D01*
X3984500Y-19053505D01*
X3964815Y-19120544D01*
X3948181Y-19141186D01*
X3869025Y-19220341D01*
X3869024Y-19220342D01*
X3754058Y-19392403D01*
X3674870Y-19583579D01*
X3674868Y-19583587D01*
X3634500Y-19786530D01*
X3634500Y-19993469D01*
X3674868Y-20196412D01*
X3674870Y-20196420D01*
X3754058Y-20387596D01*
X3869024Y-20559657D01*
X4015342Y-20705975D01*
X4015345Y-20705977D01*
X4187402Y-20820941D01*
X4378580Y-20900130D01*
X4523052Y-20928867D01*
X4581530Y-20940499D01*
X4581534Y-20940500D01*
X4581535Y-20940500D01*
X4788466Y-20940500D01*
X4788467Y-20940499D01*
X4991420Y-20900130D01*
X5182598Y-20820941D01*
X5354655Y-20705977D01*
X5500977Y-20559655D01*
X5615941Y-20387598D01*
X5695130Y-20196420D01*
X5735500Y-19993465D01*
X5735500Y-19786535D01*
X5695130Y-19583580D01*
X5615941Y-19392402D01*
X5500977Y-19220345D01*
X5500975Y-19220342D01*
X5421819Y-19141186D01*
X5388334Y-19079863D01*
X5385500Y-19053505D01*
X5385500Y-18186494D01*
X5405185Y-18119455D01*
X5421814Y-18098817D01*
X5500977Y-18019655D01*
X5615941Y-17847598D01*
X5695130Y-17656420D01*
X5735500Y-17453465D01*
X5735500Y-17246535D01*
X5695130Y-17043580D01*
X5615941Y-16852402D01*
X5500977Y-16680345D01*
X5500975Y-16680342D01*
X5421819Y-16601186D01*
X5388334Y-16539863D01*
X5385500Y-16513505D01*
X5385500Y-15646494D01*
X5405185Y-15579455D01*
X5421814Y-15558817D01*
X5500977Y-15479655D01*
X5615941Y-15307598D01*
X5695130Y-15116420D01*
X5735500Y-14913465D01*
X5735500Y-14706535D01*
X5695130Y-14503580D01*
X5615941Y-14312402D01*
X5500977Y-14140345D01*
X5500975Y-14140342D01*
X5421819Y-14061186D01*
X5388334Y-13999863D01*
X5385500Y-13973505D01*
X5385500Y-13106494D01*
X5405185Y-13039455D01*
X5421814Y-13018817D01*
X5500977Y-12939655D01*
X5615941Y-12767598D01*
X5695130Y-12576420D01*
X5735500Y-12373465D01*
X5735500Y-12166535D01*
X5695130Y-11963580D01*
X5615941Y-11772402D01*
X5500977Y-11600345D01*
X5500975Y-11600342D01*
X5421819Y-11521186D01*
X5388334Y-11459863D01*
X5385500Y-11433505D01*
X5385500Y-10566494D01*
X5405185Y-10499455D01*
X5421814Y-10478817D01*
X5500977Y-10399655D01*
X5615941Y-10227598D01*
X5695130Y-10036420D01*
X5735500Y-9833465D01*
X5735500Y-9626535D01*
X5695130Y-9423580D01*
X5615941Y-9232402D01*
X5500977Y-9060345D01*
X5500975Y-9060342D01*
X5421819Y-8981186D01*
X5388334Y-8919863D01*
X5385500Y-8893505D01*
X5385500Y-8026494D01*
X5405185Y-7959455D01*
X5421814Y-7938817D01*
X5500977Y-7859655D01*
X5615941Y-7687598D01*
X5695130Y-7496420D01*
X5735500Y-7293465D01*
X5735500Y-7086535D01*
X5695130Y-6883580D01*
X5615941Y-6692402D01*
X5500977Y-6520345D01*
X5500975Y-6520342D01*
X5421819Y-6441186D01*
X5388334Y-6379863D01*
X5385500Y-6353505D01*
X5385500Y-5486494D01*
X5405185Y-5419455D01*
X5421814Y-5398817D01*
X5500977Y-5319655D01*
X5615941Y-5147598D01*
X5695130Y-4956420D01*
X5735500Y-4753465D01*
X5735500Y-4546535D01*
X5695130Y-4343580D01*
X5615941Y-4152402D01*
X5531284Y-4025703D01*
X5523057Y-4013390D01*
X5502180Y-3946713D01*
X5520665Y-3879333D01*
X5572644Y-3832643D01*
X5626160Y-3820500D01*
X6050500Y-3820500D01*
X6117539Y-3840185D01*
X6163294Y-3892989D01*
X6174500Y-3944500D01*
X6174500Y-5519752D01*
X6186131Y-5578229D01*
X6186132Y-5578230D01*
X6230447Y-5644552D01*
X6296769Y-5688867D01*
X6296770Y-5688868D01*
X6355247Y-5700499D01*
X6355250Y-5700500D01*
X6355252Y-5700500D01*
X8094749Y-5700500D01*
X8106954Y-5698072D01*
X8130411Y-5693406D01*
X8200002Y-5699632D01*
X8255180Y-5742495D01*
X8278425Y-5808384D01*
X8278419Y-5821772D01*
X8277716Y-5834656D01*
X8264500Y-5883982D01*
X8264500Y-5996018D01*
X8268174Y-6009730D01*
X8267098Y-6029473D01*
X8261774Y-6044519D01*
X8261395Y-6060478D01*
X8250360Y-6076782D01*
X8243794Y-6095342D01*
X8231179Y-6105122D01*
X8222233Y-6118342D01*
X8204135Y-6126092D01*
X8188578Y-6138155D01*
X8172678Y-6139563D01*
X8158005Y-6145847D01*
X8119092Y-6144342D01*
X8094748Y-6139500D01*
X6355252Y-6139500D01*
X6355247Y-6139500D01*
X6296770Y-6151131D01*
X6296769Y-6151132D01*
X6230447Y-6195447D01*
X6186132Y-6261769D01*
X6186131Y-6261770D01*
X6174500Y-6320247D01*
X6174500Y-8059752D01*
X6186131Y-8118229D01*
X6186132Y-8118230D01*
X6230447Y-8184552D01*
X6296769Y-8228867D01*
X6296770Y-8228868D01*
X6355247Y-8240499D01*
X6355250Y-8240500D01*
X6355252Y-8240500D01*
X8094750Y-8240500D01*
X8094751Y-8240499D01*
X8109568Y-8237552D01*
X8153229Y-8228868D01*
X8153229Y-8228867D01*
X8153231Y-8228867D01*
X8219552Y-8184552D01*
X8219553Y-8184551D01*
X8227019Y-8177086D01*
X8288342Y-8143601D01*
X8358034Y-8148585D01*
X8413967Y-8190457D01*
X8438384Y-8255921D01*
X8438700Y-8264767D01*
X8438700Y-8655233D01*
X8419015Y-8722272D01*
X8366211Y-8768027D01*
X8297053Y-8777971D01*
X8233497Y-8748946D01*
X8227019Y-8742914D01*
X8219553Y-8735448D01*
X8153230Y-8691132D01*
X8153229Y-8691131D01*
X8094752Y-8679500D01*
X8094748Y-8679500D01*
X6355252Y-8679500D01*
X6355247Y-8679500D01*
X6296770Y-8691131D01*
X6296769Y-8691132D01*
X6230447Y-8735447D01*
X6186132Y-8801769D01*
X6186131Y-8801770D01*
X6174500Y-8860247D01*
X6174500Y-10599752D01*
X6186131Y-10658229D01*
X6186132Y-10658230D01*
X6230447Y-10724552D01*
X6296769Y-10768867D01*
X6296770Y-10768868D01*
X6355247Y-10780499D01*
X6355250Y-10780500D01*
X6355252Y-10780500D01*
X8094750Y-10780500D01*
X8094751Y-10780499D01*
X8109568Y-10777552D01*
X8153229Y-10768868D01*
X8153229Y-10768867D01*
X8153231Y-10768867D01*
X8219552Y-10724552D01*
X8219553Y-10724551D01*
X8227019Y-10717086D01*
X8288342Y-10683601D01*
X8358034Y-10688585D01*
X8413967Y-10730457D01*
X8438384Y-10795921D01*
X8438700Y-10804767D01*
X8438700Y-11195233D01*
X8419015Y-11262272D01*
X8366211Y-11308027D01*
X8297053Y-11317971D01*
X8233497Y-11288946D01*
X8227019Y-11282914D01*
X8219553Y-11275448D01*
X8153230Y-11231132D01*
X8153229Y-11231131D01*
X8094752Y-11219500D01*
X8094748Y-11219500D01*
X6355252Y-11219500D01*
X6355247Y-11219500D01*
X6296770Y-11231131D01*
X6296769Y-11231132D01*
X6230447Y-11275447D01*
X6186132Y-11341769D01*
X6186131Y-11341770D01*
X6174500Y-11400247D01*
X6174500Y-13139752D01*
X6186131Y-13198229D01*
X6186132Y-13198230D01*
X6230447Y-13264552D01*
X6296769Y-13308867D01*
X6296770Y-13308868D01*
X6355247Y-13320499D01*
X6355250Y-13320500D01*
X6355252Y-13320500D01*
X8094750Y-13320500D01*
X8094751Y-13320499D01*
X8109568Y-13317552D01*
X8153229Y-13308868D01*
X8153229Y-13308867D01*
X8153231Y-13308867D01*
X8219552Y-13264552D01*
X8219553Y-13264551D01*
X8227019Y-13257086D01*
X8288342Y-13223601D01*
X8358034Y-13228585D01*
X8413967Y-13270457D01*
X8438384Y-13335921D01*
X8438700Y-13344767D01*
X8438700Y-13735233D01*
X8419015Y-13802272D01*
X8366211Y-13848027D01*
X8297053Y-13857971D01*
X8233497Y-13828946D01*
X8227019Y-13822914D01*
X8219553Y-13815448D01*
X8153230Y-13771132D01*
X8153229Y-13771131D01*
X8094752Y-13759500D01*
X8094748Y-13759500D01*
X6355252Y-13759500D01*
X6355247Y-13759500D01*
X6296770Y-13771131D01*
X6296769Y-13771132D01*
X6230447Y-13815447D01*
X6186132Y-13881769D01*
X6186131Y-13881770D01*
X6174500Y-13940247D01*
X6174500Y-15679752D01*
X6186131Y-15738229D01*
X6186132Y-15738230D01*
X6230447Y-15804552D01*
X6296769Y-15848867D01*
X6296770Y-15848868D01*
X6355247Y-15860499D01*
X6355250Y-15860500D01*
X6355252Y-15860500D01*
X8094750Y-15860500D01*
X8094751Y-15860499D01*
X8109568Y-15857552D01*
X8153229Y-15848868D01*
X8153229Y-15848867D01*
X8153231Y-15848867D01*
X8219552Y-15804552D01*
X8219553Y-15804551D01*
X8227019Y-15797086D01*
X8288342Y-15763601D01*
X8358034Y-15768585D01*
X8413967Y-15810457D01*
X8438384Y-15875921D01*
X8438700Y-15884767D01*
X8438700Y-16275233D01*
X8419015Y-16342272D01*
X8366211Y-16388027D01*
X8297053Y-16397971D01*
X8233497Y-16368946D01*
X8227019Y-16362914D01*
X8219553Y-16355448D01*
X8153230Y-16311132D01*
X8153229Y-16311131D01*
X8094752Y-16299500D01*
X8094748Y-16299500D01*
X6355252Y-16299500D01*
X6355247Y-16299500D01*
X6296770Y-16311131D01*
X6296769Y-16311132D01*
X6230447Y-16355447D01*
X6186132Y-16421769D01*
X6186131Y-16421770D01*
X6174500Y-16480247D01*
X6174500Y-18219752D01*
X6186131Y-18278229D01*
X6186132Y-18278230D01*
X6230447Y-18344552D01*
X6296769Y-18388867D01*
X6296770Y-18388868D01*
X6355247Y-18400499D01*
X6355250Y-18400500D01*
X6355252Y-18400500D01*
X8094750Y-18400500D01*
X8094751Y-18400499D01*
X8109568Y-18397552D01*
X8153229Y-18388868D01*
X8153229Y-18388867D01*
X8153231Y-18388867D01*
X8219552Y-18344552D01*
X8219553Y-18344551D01*
X8227019Y-18337086D01*
X8288342Y-18303601D01*
X8358034Y-18308585D01*
X8413967Y-18350457D01*
X8438384Y-18415921D01*
X8438700Y-18424767D01*
X8438700Y-18815233D01*
X8419015Y-18882272D01*
X8366211Y-18928027D01*
X8297053Y-18937971D01*
X8233497Y-18908946D01*
X8227019Y-18902914D01*
X8219553Y-18895448D01*
X8153230Y-18851132D01*
X8153229Y-18851131D01*
X8094752Y-18839500D01*
X8094748Y-18839500D01*
X6355252Y-18839500D01*
X6355247Y-18839500D01*
X6296770Y-18851131D01*
X6296769Y-18851132D01*
X6230447Y-18895447D01*
X6186132Y-18961769D01*
X6186131Y-18961770D01*
X6174500Y-19020247D01*
X6174500Y-20759752D01*
X6186131Y-20818229D01*
X6186132Y-20818230D01*
X6230447Y-20884552D01*
X6296769Y-20928867D01*
X6296770Y-20928868D01*
X6355247Y-20940499D01*
X6355250Y-20940500D01*
X6355252Y-20940500D01*
X8094750Y-20940500D01*
X8094751Y-20940499D01*
X8109568Y-20937552D01*
X8153229Y-20928868D01*
X8153229Y-20928867D01*
X8153231Y-20928867D01*
X8219552Y-20884552D01*
X8263867Y-20818231D01*
X8263867Y-20818229D01*
X8263868Y-20818229D01*
X8275499Y-20759752D01*
X8275500Y-20759750D01*
X8275500Y-20100254D01*
X8295185Y-20033215D01*
X8347989Y-19987460D01*
X8417147Y-19977516D01*
X8480703Y-20006541D01*
X8487181Y-20012573D01*
X9612650Y-21138042D01*
X9705013Y-21176300D01*
X9705015Y-21176300D01*
X20324985Y-21176300D01*
X20324987Y-21176300D01*
X20417350Y-21138042D01*
X21153042Y-20402350D01*
X21191300Y-20309987D01*
X21191300Y-20210013D01*
X21191300Y-19519393D01*
X21196393Y-19502046D01*
X21196468Y-19483968D01*
X21206033Y-19469218D01*
X21210985Y-19452354D01*
X21224645Y-19440516D01*
X21234484Y-19425346D01*
X21250506Y-19418108D01*
X21263789Y-19406599D01*
X21281681Y-19404026D01*
X21298159Y-19396583D01*
X21322858Y-19398105D01*
X21332947Y-19396655D01*
X21333452Y-19396729D01*
X21340497Y-19397771D01*
X21443982Y-19425500D01*
X21527870Y-19425500D01*
X21536898Y-19426836D01*
X21560668Y-19437809D01*
X21585785Y-19445185D01*
X21598047Y-19455066D01*
X21600334Y-19456122D01*
X21601363Y-19457738D01*
X21606427Y-19461819D01*
X22749450Y-20604842D01*
X22841813Y-20643100D01*
X22841815Y-20643100D01*
X30008185Y-20643100D01*
X30008187Y-20643100D01*
X30100550Y-20604842D01*
X31973572Y-18731818D01*
X32034895Y-18698334D01*
X32061253Y-18695500D01*
X32136016Y-18695500D01*
X32136018Y-18695500D01*
X32244237Y-18666503D01*
X32341263Y-18610485D01*
X32420485Y-18531263D01*
X32476503Y-18434237D01*
X32505500Y-18326018D01*
X32505500Y-18213982D01*
X32487175Y-18145591D01*
X32488838Y-18075743D01*
X32528001Y-18017881D01*
X32592229Y-17990377D01*
X32606950Y-17989500D01*
X32683864Y-17989500D01*
X32683866Y-17989500D01*
X32776229Y-17951242D01*
X32973070Y-17754399D01*
X33034392Y-17720916D01*
X33104083Y-17725900D01*
X33160017Y-17767771D01*
X33184434Y-17833236D01*
X33180525Y-17874175D01*
X33173268Y-17901259D01*
X33164500Y-17933982D01*
X33164500Y-18046018D01*
X33193497Y-18154237D01*
X33249515Y-18251263D01*
X33328737Y-18330485D01*
X33425763Y-18386503D01*
X33533982Y-18415500D01*
X33533984Y-18415500D01*
X33646016Y-18415500D01*
X33646018Y-18415500D01*
X33754237Y-18386503D01*
X33851263Y-18330485D01*
X33930485Y-18251263D01*
X33986503Y-18154237D01*
X34015500Y-18046018D01*
X34015500Y-17933982D01*
X33986503Y-17825763D01*
X33986484Y-17825730D01*
X36674500Y-17825730D01*
X36674500Y-19134269D01*
X36677353Y-19164699D01*
X36677353Y-19164701D01*
X36722206Y-19292880D01*
X36722207Y-19292882D01*
X36802850Y-19402150D01*
X36912118Y-19482793D01*
X36932432Y-19489901D01*
X37040299Y-19527646D01*
X37070730Y-19530500D01*
X37070734Y-19530500D01*
X38629270Y-19530500D01*
X38659699Y-19527646D01*
X38659701Y-19527646D01*
X38732860Y-19502046D01*
X38787882Y-19482793D01*
X38897150Y-19402150D01*
X38977793Y-19292882D01*
X39003176Y-19220341D01*
X39022646Y-19164701D01*
X39022646Y-19164699D01*
X39025500Y-19134269D01*
X39025500Y-17825730D01*
X39022646Y-17795300D01*
X39022646Y-17795298D01*
X38989006Y-17699163D01*
X38977793Y-17667118D01*
X38897150Y-17557850D01*
X38787882Y-17477207D01*
X38787880Y-17477206D01*
X38659700Y-17432353D01*
X38629270Y-17429500D01*
X38629266Y-17429500D01*
X37070734Y-17429500D01*
X37070730Y-17429500D01*
X37040300Y-17432353D01*
X37040298Y-17432353D01*
X36912119Y-17477206D01*
X36912117Y-17477207D01*
X36802850Y-17557850D01*
X36722207Y-17667117D01*
X36722206Y-17667119D01*
X36677353Y-17795298D01*
X36677353Y-17795300D01*
X36674500Y-17825730D01*
X33986484Y-17825730D01*
X33930485Y-17728737D01*
X33851263Y-17649515D01*
X33754237Y-17593497D01*
X33646018Y-17564500D01*
X33533982Y-17564500D01*
X33474175Y-17580525D01*
X33404325Y-17578862D01*
X33346462Y-17539699D01*
X33318959Y-17475470D01*
X33330546Y-17406568D01*
X33354399Y-17373070D01*
X34850938Y-15876530D01*
X36674500Y-15876530D01*
X36674500Y-16083469D01*
X36714868Y-16286412D01*
X36714870Y-16286420D01*
X36793404Y-16476018D01*
X36794059Y-16477598D01*
X36818051Y-16513505D01*
X36909024Y-16649657D01*
X37055342Y-16795975D01*
X37055345Y-16795977D01*
X37227402Y-16910941D01*
X37418580Y-16990130D01*
X37621530Y-17030499D01*
X37621534Y-17030500D01*
X37621535Y-17030500D01*
X38078466Y-17030500D01*
X38078467Y-17030499D01*
X38281420Y-16990130D01*
X38472598Y-16910941D01*
X38644655Y-16795977D01*
X38790977Y-16649655D01*
X38905941Y-16477598D01*
X38985130Y-16286420D01*
X39025500Y-16083465D01*
X39025500Y-15876535D01*
X38985130Y-15673580D01*
X38905941Y-15482402D01*
X38790977Y-15310345D01*
X38790975Y-15310342D01*
X38644657Y-15164024D01*
X38509898Y-15073982D01*
X38472598Y-15049059D01*
X38428845Y-15030936D01*
X38281420Y-14969870D01*
X38281412Y-14969868D01*
X38078469Y-14929500D01*
X38078465Y-14929500D01*
X37621535Y-14929500D01*
X37621530Y-14929500D01*
X37418587Y-14969868D01*
X37418579Y-14969870D01*
X37227403Y-15049058D01*
X37055342Y-15164024D01*
X36909024Y-15310342D01*
X36794058Y-15482403D01*
X36714870Y-15673579D01*
X36714868Y-15673587D01*
X36674500Y-15876530D01*
X34850938Y-15876530D01*
X35316708Y-15410760D01*
X35316711Y-15410759D01*
X35334149Y-15393321D01*
X35334150Y-15393321D01*
X35404842Y-15322629D01*
X35443100Y-15230266D01*
X35443100Y-13376530D01*
X36674500Y-13376530D01*
X36674500Y-13583469D01*
X36714868Y-13786412D01*
X36714870Y-13786420D01*
X36792363Y-13973505D01*
X36794059Y-13977598D01*
X36800490Y-13987223D01*
X36909024Y-14149657D01*
X37055342Y-14295975D01*
X37055345Y-14295977D01*
X37227402Y-14410941D01*
X37418580Y-14490130D01*
X37621530Y-14530499D01*
X37621534Y-14530500D01*
X37621535Y-14530500D01*
X38078466Y-14530500D01*
X38078467Y-14530499D01*
X38281420Y-14490130D01*
X38472598Y-14410941D01*
X38644655Y-14295977D01*
X38790977Y-14149655D01*
X38905941Y-13977598D01*
X38985130Y-13786420D01*
X39025500Y-13583465D01*
X39025500Y-13376535D01*
X38985130Y-13173580D01*
X38905941Y-12982402D01*
X38790977Y-12810345D01*
X38790975Y-12810342D01*
X38644657Y-12664024D01*
X38510673Y-12574500D01*
X38472598Y-12549059D01*
X38458086Y-12543048D01*
X38281420Y-12469870D01*
X38281412Y-12469868D01*
X38078469Y-12429500D01*
X38078465Y-12429500D01*
X37621535Y-12429500D01*
X37621530Y-12429500D01*
X37418587Y-12469868D01*
X37418579Y-12469870D01*
X37227403Y-12549058D01*
X37055342Y-12664024D01*
X36909024Y-12810342D01*
X36794058Y-12982403D01*
X36714870Y-13173579D01*
X36714868Y-13173587D01*
X36674500Y-13376530D01*
X35443100Y-13376530D01*
X35443100Y-10876530D01*
X36674500Y-10876530D01*
X36674500Y-11083469D01*
X36714868Y-11286412D01*
X36714870Y-11286420D01*
X36772535Y-11425636D01*
X36794059Y-11477598D01*
X36831822Y-11534114D01*
X36909024Y-11649657D01*
X37055342Y-11795975D01*
X37055345Y-11795977D01*
X37227402Y-11910941D01*
X37418580Y-11990130D01*
X37568743Y-12019999D01*
X37621530Y-12030499D01*
X37621534Y-12030500D01*
X37621535Y-12030500D01*
X38078466Y-12030500D01*
X38078467Y-12030499D01*
X38281420Y-11990130D01*
X38472598Y-11910941D01*
X38644655Y-11795977D01*
X38790977Y-11649655D01*
X38905941Y-11477598D01*
X38985130Y-11286420D01*
X39025500Y-11083465D01*
X39025500Y-10876535D01*
X38985130Y-10673580D01*
X38905941Y-10482402D01*
X38790977Y-10310345D01*
X38790975Y-10310342D01*
X38644657Y-10164024D01*
X38523466Y-10083048D01*
X38472598Y-10049059D01*
X38461770Y-10044574D01*
X38281420Y-9969870D01*
X38281412Y-9969868D01*
X38078469Y-9929500D01*
X38078465Y-9929500D01*
X37621535Y-9929500D01*
X37621530Y-9929500D01*
X37418587Y-9969868D01*
X37418579Y-9969870D01*
X37227403Y-10049058D01*
X37055342Y-10164024D01*
X36909024Y-10310342D01*
X36794058Y-10482403D01*
X36714870Y-10673579D01*
X36714868Y-10673587D01*
X36674500Y-10876530D01*
X35443100Y-10876530D01*
X35443100Y-8376530D01*
X36674500Y-8376530D01*
X36674500Y-8583469D01*
X36714868Y-8786412D01*
X36714870Y-8786420D01*
X36781772Y-8947936D01*
X36794059Y-8977598D01*
X36811860Y-9004239D01*
X36909024Y-9149657D01*
X37055342Y-9295975D01*
X37055345Y-9295977D01*
X37227402Y-9410941D01*
X37418580Y-9490130D01*
X37591371Y-9524500D01*
X37621530Y-9530499D01*
X37621534Y-9530500D01*
X37621535Y-9530500D01*
X38078466Y-9530500D01*
X38078467Y-9530499D01*
X38281420Y-9490130D01*
X38472598Y-9410941D01*
X38644655Y-9295977D01*
X38790977Y-9149655D01*
X38905941Y-8977598D01*
X38985130Y-8786420D01*
X39025500Y-8583465D01*
X39025500Y-8376535D01*
X38985130Y-8173580D01*
X38905941Y-7982402D01*
X38790977Y-7810345D01*
X38790975Y-7810342D01*
X38644657Y-7664024D01*
X38489297Y-7560217D01*
X38472598Y-7549059D01*
X38392526Y-7515892D01*
X38281420Y-7469870D01*
X38281412Y-7469868D01*
X38078469Y-7429500D01*
X38078465Y-7429500D01*
X37621535Y-7429500D01*
X37621530Y-7429500D01*
X37418587Y-7469868D01*
X37418579Y-7469870D01*
X37227403Y-7549058D01*
X37055342Y-7664024D01*
X36909024Y-7810342D01*
X36794058Y-7982403D01*
X36714870Y-8173579D01*
X36714868Y-8173587D01*
X36674500Y-8376530D01*
X35443100Y-8376530D01*
X35443100Y-7361813D01*
X35404842Y-7269450D01*
X35334150Y-7198758D01*
X34572350Y-6436958D01*
X34479988Y-6398700D01*
X34479987Y-6398700D01*
X33635453Y-6398700D01*
X33568414Y-6379015D01*
X33547772Y-6362381D01*
X33143516Y-5958124D01*
X33099419Y-5914027D01*
X33078944Y-5876530D01*
X36674500Y-5876530D01*
X36674500Y-6083469D01*
X36714868Y-6286412D01*
X36714870Y-6286420D01*
X36778976Y-6441186D01*
X36794059Y-6477598D01*
X36837792Y-6543050D01*
X36909024Y-6649657D01*
X37055342Y-6795975D01*
X37055345Y-6795977D01*
X37227402Y-6910941D01*
X37418580Y-6990130D01*
X37621530Y-7030499D01*
X37621534Y-7030500D01*
X37621535Y-7030500D01*
X38078466Y-7030500D01*
X38078467Y-7030499D01*
X38281420Y-6990130D01*
X38472598Y-6910941D01*
X38644655Y-6795977D01*
X38790977Y-6649655D01*
X38905941Y-6477598D01*
X38985130Y-6286420D01*
X39025500Y-6083465D01*
X39025500Y-5876535D01*
X38985130Y-5673580D01*
X38905941Y-5482402D01*
X38790977Y-5310345D01*
X38790975Y-5310342D01*
X38644657Y-5164024D01*
X38538332Y-5092981D01*
X38472598Y-5049059D01*
X38471813Y-5048734D01*
X38281420Y-4969870D01*
X38281412Y-4969868D01*
X38078469Y-4929500D01*
X38078465Y-4929500D01*
X37621535Y-4929500D01*
X37621530Y-4929500D01*
X37418587Y-4969868D01*
X37418579Y-4969870D01*
X37227403Y-5049058D01*
X37055342Y-5164024D01*
X36909024Y-5310342D01*
X36794058Y-5482403D01*
X36714870Y-5673579D01*
X36714868Y-5673587D01*
X36674500Y-5876530D01*
X33078944Y-5876530D01*
X33065934Y-5852704D01*
X33063100Y-5826346D01*
X33063100Y-5609735D01*
X33063099Y-5609732D01*
X33060823Y-5604237D01*
X33024842Y-5517371D01*
X32954150Y-5446679D01*
X32907619Y-5400148D01*
X32892915Y-5373220D01*
X32876323Y-5347402D01*
X32875431Y-5341201D01*
X32874134Y-5338825D01*
X32871300Y-5312467D01*
X32871300Y-5253982D01*
X33864500Y-5253982D01*
X33864500Y-5366018D01*
X33893223Y-5473212D01*
X33893497Y-5474236D01*
X33893498Y-5474239D01*
X33912169Y-5506579D01*
X33949515Y-5571263D01*
X34028737Y-5650485D01*
X34125763Y-5706503D01*
X34233982Y-5735500D01*
X34233984Y-5735500D01*
X34346016Y-5735500D01*
X34346018Y-5735500D01*
X34454237Y-5706503D01*
X34551263Y-5650485D01*
X34630485Y-5571263D01*
X34686503Y-5474237D01*
X34715500Y-5366018D01*
X34715500Y-5253982D01*
X34686503Y-5145763D01*
X34630485Y-5048737D01*
X34551263Y-4969515D01*
X34454237Y-4913497D01*
X34346018Y-4884500D01*
X34233982Y-4884500D01*
X34125763Y-4913497D01*
X34125760Y-4913498D01*
X34028740Y-4969513D01*
X34028734Y-4969517D01*
X33949517Y-5048734D01*
X33949513Y-5048740D01*
X33893498Y-5145760D01*
X33893497Y-5145763D01*
X33864500Y-5253982D01*
X32871300Y-5253982D01*
X32871300Y-4891810D01*
X32890985Y-4824771D01*
X32907619Y-4804129D01*
X32933462Y-4778286D01*
X32960485Y-4751263D01*
X33016503Y-4654237D01*
X33045500Y-4546018D01*
X33045500Y-4433982D01*
X33016503Y-4325763D01*
X32960485Y-4228737D01*
X32881263Y-4149515D01*
X32784237Y-4093497D01*
X32676018Y-4064500D01*
X32563982Y-4064500D01*
X32455763Y-4093497D01*
X32455760Y-4093498D01*
X32358740Y-4149513D01*
X32358734Y-4149517D01*
X32279517Y-4228734D01*
X32279513Y-4228740D01*
X32223498Y-4325760D01*
X32223497Y-4325763D01*
X32194500Y-4433982D01*
X32194500Y-4546018D01*
X32216351Y-4627565D01*
X32223497Y-4654236D01*
X32223498Y-4654239D01*
X32242169Y-4686579D01*
X32279515Y-4751263D01*
X32279517Y-4751265D01*
X32332381Y-4804129D01*
X32365866Y-4865452D01*
X32368700Y-4891810D01*
X32368700Y-5330500D01*
X32349015Y-5397539D01*
X32296211Y-5443294D01*
X32244700Y-5454500D01*
X32223982Y-5454500D01*
X32115763Y-5483497D01*
X32115760Y-5483498D01*
X32018740Y-5539513D01*
X32018734Y-5539517D01*
X31939517Y-5618734D01*
X31939513Y-5618740D01*
X31883498Y-5715760D01*
X31883497Y-5715763D01*
X31854500Y-5823982D01*
X31854500Y-5936018D01*
X31878530Y-6025697D01*
X31883497Y-6044236D01*
X31883498Y-6044239D01*
X31888816Y-6053450D01*
X31939515Y-6141263D01*
X32018737Y-6220485D01*
X32115763Y-6276503D01*
X32223982Y-6305500D01*
X32223984Y-6305500D01*
X32336016Y-6305500D01*
X32336018Y-6305500D01*
X32444237Y-6276503D01*
X32541263Y-6220485D01*
X32541267Y-6220480D01*
X32542032Y-6219895D01*
X32542748Y-6219618D01*
X32543208Y-6219004D01*
X32544959Y-6218350D01*
X32548302Y-6216421D01*
X32548626Y-6216982D01*
X32575267Y-6207046D01*
X32607201Y-6194701D01*
X32607952Y-6194855D01*
X32608672Y-6194587D01*
X32642131Y-6201865D01*
X32675646Y-6208740D01*
X32676444Y-6209330D01*
X32676945Y-6209439D01*
X32705199Y-6230590D01*
X32837428Y-6362819D01*
X32870913Y-6424142D01*
X32865929Y-6493834D01*
X32824057Y-6549767D01*
X32758593Y-6574184D01*
X32749747Y-6574500D01*
X32713982Y-6574500D01*
X32605763Y-6603497D01*
X32605760Y-6603498D01*
X32508740Y-6659513D01*
X32508734Y-6659517D01*
X32429517Y-6738734D01*
X32429513Y-6738740D01*
X32373498Y-6835760D01*
X32373497Y-6835763D01*
X32344500Y-6943982D01*
X32344500Y-7056018D01*
X32373497Y-7164237D01*
X32429515Y-7261263D01*
X32429517Y-7261265D01*
X32470581Y-7302329D01*
X32504066Y-7363652D01*
X32506900Y-7390010D01*
X32506900Y-8388188D01*
X32535197Y-8456503D01*
X32545158Y-8480550D01*
X33077650Y-9013042D01*
X33170013Y-9051300D01*
X33269987Y-9051300D01*
X33784546Y-9051300D01*
X33851585Y-9070985D01*
X33872227Y-9087619D01*
X34397427Y-9612819D01*
X34430912Y-9674142D01*
X34425928Y-9743834D01*
X34384056Y-9799767D01*
X34318592Y-9824184D01*
X34309746Y-9824500D01*
X34243982Y-9824500D01*
X34135763Y-9853497D01*
X34135760Y-9853498D01*
X34038740Y-9909513D01*
X34038734Y-9909517D01*
X33959517Y-9988734D01*
X33959513Y-9988740D01*
X33903498Y-10085760D01*
X33903497Y-10085763D01*
X33874500Y-10193982D01*
X33874500Y-10306018D01*
X33900213Y-10401978D01*
X33903497Y-10414236D01*
X33903498Y-10414239D01*
X33920817Y-10444236D01*
X33959515Y-10511263D01*
X33959517Y-10511265D01*
X34044484Y-10596232D01*
X34042208Y-10598507D01*
X34074511Y-10642732D01*
X34078678Y-10712477D01*
X34044476Y-10773404D01*
X33982764Y-10806167D01*
X33957829Y-10808700D01*
X33510011Y-10808700D01*
X33417649Y-10846958D01*
X33417648Y-10846959D01*
X32662981Y-11601627D01*
X32601658Y-11635112D01*
X32531966Y-11630128D01*
X32476033Y-11588256D01*
X32451616Y-11522792D01*
X32451300Y-11513946D01*
X32451300Y-10425453D01*
X32459944Y-10396012D01*
X32466468Y-10366026D01*
X32470222Y-10361010D01*
X32470985Y-10358414D01*
X32487615Y-10337776D01*
X32633572Y-10191818D01*
X32694895Y-10158334D01*
X32721253Y-10155500D01*
X32796016Y-10155500D01*
X32796018Y-10155500D01*
X32904237Y-10126503D01*
X33001263Y-10070485D01*
X33080485Y-9991263D01*
X33136503Y-9894237D01*
X33165500Y-9786018D01*
X33165500Y-9673982D01*
X33136503Y-9565763D01*
X33080485Y-9468737D01*
X33001263Y-9389515D01*
X32904237Y-9333497D01*
X32796018Y-9304500D01*
X32683982Y-9304500D01*
X32575763Y-9333497D01*
X32575760Y-9333498D01*
X32478740Y-9389513D01*
X32478734Y-9389517D01*
X32399517Y-9468734D01*
X32399513Y-9468740D01*
X32343498Y-9565760D01*
X32343497Y-9565763D01*
X32314500Y-9673982D01*
X32314500Y-9748745D01*
X32294815Y-9815784D01*
X32278181Y-9836426D01*
X32057650Y-10056958D01*
X31986959Y-10127648D01*
X31986958Y-10127649D01*
X31948700Y-10220011D01*
X31948700Y-11705247D01*
X31929015Y-11772286D01*
X31876211Y-11818041D01*
X31807053Y-11827985D01*
X31792609Y-11825022D01*
X31716018Y-11804500D01*
X31603982Y-11804500D01*
X31495763Y-11833497D01*
X31495760Y-11833498D01*
X31398740Y-11889513D01*
X31398734Y-11889517D01*
X31345871Y-11942381D01*
X31284548Y-11975866D01*
X31258190Y-11978700D01*
X30575454Y-11978700D01*
X30508415Y-11959015D01*
X30487773Y-11942381D01*
X29472350Y-10926958D01*
X29379988Y-10888700D01*
X29379987Y-10888700D01*
X28279987Y-10888700D01*
X28180013Y-10888700D01*
X28180011Y-10888700D01*
X28087649Y-10926958D01*
X26718924Y-12295683D01*
X26718923Y-12295685D01*
X26718922Y-12295686D01*
X26679109Y-12335499D01*
X26649114Y-12365494D01*
X26643737Y-12368429D01*
X26643948Y-12372844D01*
X26638003Y-12391066D01*
X26609973Y-12458737D01*
X26609972Y-12458742D01*
X26609972Y-12795353D01*
X26590287Y-12862392D01*
X26573653Y-12883034D01*
X26330953Y-13125733D01*
X26269630Y-13159218D01*
X26199938Y-13154234D01*
X26144005Y-13112362D01*
X26135885Y-13100052D01*
X26122009Y-13076018D01*
X26100485Y-13038737D01*
X26021263Y-12959515D01*
X25924237Y-12903497D01*
X25816018Y-12874500D01*
X25741254Y-12874500D01*
X25711813Y-12865855D01*
X25681827Y-12859332D01*
X25676811Y-12855577D01*
X25674215Y-12854815D01*
X25653573Y-12838181D01*
X25647619Y-12832227D01*
X25614134Y-12770904D01*
X25611300Y-12744546D01*
X25611300Y-12470433D01*
X25630985Y-12403394D01*
X25683789Y-12357639D01*
X25752947Y-12347695D01*
X25800857Y-12367876D01*
X25801698Y-12366421D01*
X25808736Y-12370484D01*
X25808737Y-12370485D01*
X25905763Y-12426503D01*
X26013982Y-12455500D01*
X26013984Y-12455500D01*
X26126016Y-12455500D01*
X26126018Y-12455500D01*
X26234237Y-12426503D01*
X26331263Y-12370485D01*
X26410485Y-12291263D01*
X26416054Y-12281616D01*
X26444810Y-12254195D01*
X26452601Y-12218384D01*
X26454017Y-12215862D01*
X26466503Y-12194237D01*
X26495500Y-12086018D01*
X26495500Y-11973982D01*
X26466503Y-11865763D01*
X26410485Y-11768737D01*
X26331263Y-11689515D01*
X26262227Y-11649657D01*
X26234239Y-11633498D01*
X26234238Y-11633497D01*
X26234237Y-11633497D01*
X26126018Y-11604500D01*
X26013982Y-11604500D01*
X25905763Y-11633497D01*
X25905760Y-11633498D01*
X25801698Y-11693579D01*
X25800696Y-11691844D01*
X25745605Y-11713137D01*
X25677161Y-11699092D01*
X25627177Y-11650273D01*
X25611300Y-11589566D01*
X25611300Y-11020014D01*
X25611299Y-11020011D01*
X25609776Y-11016333D01*
X25573042Y-10927650D01*
X25502350Y-10856958D01*
X24561819Y-9916427D01*
X24528334Y-9855104D01*
X24525500Y-9828746D01*
X24525500Y-9753984D01*
X24525500Y-9753982D01*
X24496503Y-9645763D01*
X24461709Y-9585499D01*
X24445237Y-9517600D01*
X24468089Y-9451573D01*
X24523011Y-9408382D01*
X24569097Y-9399500D01*
X27373050Y-9399500D01*
X27440089Y-9419185D01*
X27485844Y-9471989D01*
X27495788Y-9541147D01*
X27492826Y-9555587D01*
X27474500Y-9623982D01*
X27474500Y-9736018D01*
X27503497Y-9844237D01*
X27559515Y-9941263D01*
X27638737Y-10020485D01*
X27735763Y-10076503D01*
X27843982Y-10105500D01*
X27843984Y-10105500D01*
X27956016Y-10105500D01*
X27956018Y-10105500D01*
X28064237Y-10076503D01*
X28161263Y-10020485D01*
X28240485Y-9941263D01*
X28296503Y-9844237D01*
X28325500Y-9736018D01*
X28325500Y-9623982D01*
X28307175Y-9555591D01*
X28308838Y-9485743D01*
X28348001Y-9427881D01*
X28412229Y-9400377D01*
X28426950Y-9399500D01*
X28813723Y-9399500D01*
X28880762Y-9419185D01*
X28926517Y-9471989D01*
X28933496Y-9491401D01*
X28938350Y-9509515D01*
X28945097Y-9534697D01*
X28945098Y-9534698D01*
X28955952Y-9553497D01*
X29001115Y-9631722D01*
X29080337Y-9710944D01*
X29177363Y-9766962D01*
X29285582Y-9795959D01*
X29285584Y-9795959D01*
X29397616Y-9795959D01*
X29397618Y-9795959D01*
X29505837Y-9766962D01*
X29602863Y-9710944D01*
X29682085Y-9631722D01*
X29738103Y-9534696D01*
X29749702Y-9491405D01*
X29752860Y-9486223D01*
X29753294Y-9480165D01*
X29770834Y-9456734D01*
X29786064Y-9431747D01*
X29791526Y-9429093D01*
X29795166Y-9424232D01*
X29822582Y-9414006D01*
X29848910Y-9401216D01*
X29854940Y-9401936D01*
X29860630Y-9399815D01*
X29889227Y-9406035D01*
X29918286Y-9409510D01*
X29924485Y-9413706D01*
X29928903Y-9414667D01*
X29957157Y-9435818D01*
X30122381Y-9601042D01*
X30155866Y-9662365D01*
X30158700Y-9688723D01*
X30158700Y-9878189D01*
X30139015Y-9945228D01*
X30122382Y-9965869D01*
X30069518Y-10018733D01*
X30069513Y-10018740D01*
X30013498Y-10115760D01*
X30013497Y-10115763D01*
X29984500Y-10223982D01*
X29984500Y-10336018D01*
X30010973Y-10434815D01*
X30013497Y-10444236D01*
X30013498Y-10444239D01*
X30018201Y-10452384D01*
X30069515Y-10541263D01*
X30148737Y-10620485D01*
X30245763Y-10676503D01*
X30353982Y-10705500D01*
X30353984Y-10705500D01*
X30466016Y-10705500D01*
X30466018Y-10705500D01*
X30574237Y-10676503D01*
X30671263Y-10620485D01*
X30750485Y-10541263D01*
X30806503Y-10444237D01*
X30835500Y-10336018D01*
X30835500Y-10223982D01*
X30806503Y-10115763D01*
X30750485Y-10018737D01*
X30737766Y-10006018D01*
X30697618Y-9965869D01*
X30664134Y-9904546D01*
X30661300Y-9878189D01*
X30661300Y-9483283D01*
X30661299Y-9483280D01*
X30660009Y-9480165D01*
X30623042Y-9390919D01*
X30552350Y-9320227D01*
X29689081Y-8456958D01*
X29656586Y-8443498D01*
X29596719Y-8418700D01*
X29596718Y-8418700D01*
X27039004Y-8418700D01*
X26971965Y-8399015D01*
X26926210Y-8346211D01*
X26916266Y-8277053D01*
X26922175Y-8253144D01*
X26925964Y-8242489D01*
X26936503Y-8224237D01*
X26948856Y-8178134D01*
X26950517Y-8173465D01*
X26968227Y-8149038D01*
X26983935Y-8123268D01*
X26988530Y-8121035D01*
X26991530Y-8116899D01*
X27019640Y-8105922D01*
X27046782Y-8092738D01*
X27055209Y-8092034D01*
X27056614Y-8091486D01*
X27058125Y-8091790D01*
X27067346Y-8091021D01*
X27920264Y-8091021D01*
X27920266Y-8091021D01*
X28012629Y-8052763D01*
X28713042Y-7352350D01*
X28751300Y-7259987D01*
X28751300Y-7160013D01*
X28751300Y-5590013D01*
X28713042Y-5497650D01*
X28642350Y-5426958D01*
X27324150Y-4108758D01*
X27287307Y-4093497D01*
X27231788Y-4070500D01*
X27231787Y-4070500D01*
X26854435Y-4070500D01*
X26787396Y-4050815D01*
X26741641Y-3998011D01*
X26731697Y-3928853D01*
X26734660Y-3914408D01*
X26750846Y-3853998D01*
X26765499Y-3799309D01*
X26765499Y-3680691D01*
X26764725Y-3677802D01*
X26760500Y-3645709D01*
X26760500Y-3376530D01*
X36674500Y-3376530D01*
X36674500Y-3583469D01*
X36714868Y-3786412D01*
X36714870Y-3786420D01*
X36791661Y-3971810D01*
X36794059Y-3977598D01*
X36834694Y-4038413D01*
X36909024Y-4149657D01*
X37055342Y-4295975D01*
X37055345Y-4295977D01*
X37227402Y-4410941D01*
X37418580Y-4490130D01*
X37621530Y-4530499D01*
X37621534Y-4530500D01*
X37621535Y-4530500D01*
X38078466Y-4530500D01*
X38078467Y-4530499D01*
X38281420Y-4490130D01*
X38472598Y-4410941D01*
X38644655Y-4295977D01*
X38790977Y-4149655D01*
X38905941Y-3977598D01*
X38985130Y-3786420D01*
X39025500Y-3583465D01*
X39025500Y-3376535D01*
X38985130Y-3173580D01*
X38905941Y-2982402D01*
X38790977Y-2810345D01*
X38790975Y-2810342D01*
X38644657Y-2664024D01*
X38475040Y-2550691D01*
X38472598Y-2549059D01*
X38423529Y-2528734D01*
X38281420Y-2469870D01*
X38281412Y-2469868D01*
X38078469Y-2429500D01*
X38078465Y-2429500D01*
X37621535Y-2429500D01*
X37621530Y-2429500D01*
X37418587Y-2469868D01*
X37418579Y-2469870D01*
X37227403Y-2549058D01*
X37055342Y-2664024D01*
X36909024Y-2810342D01*
X36794058Y-2982403D01*
X36714870Y-3173579D01*
X36714868Y-3173587D01*
X36674500Y-3376530D01*
X26760500Y-3376530D01*
X26760500Y-2733982D01*
X33874500Y-2733982D01*
X33874500Y-2846018D01*
X33903497Y-2954237D01*
X33959515Y-3051263D01*
X34038737Y-3130485D01*
X34135763Y-3186503D01*
X34243982Y-3215500D01*
X34243984Y-3215500D01*
X34356016Y-3215500D01*
X34356018Y-3215500D01*
X34464237Y-3186503D01*
X34561263Y-3130485D01*
X34640485Y-3051263D01*
X34696503Y-2954237D01*
X34725500Y-2846018D01*
X34725500Y-2733982D01*
X34696503Y-2625763D01*
X34640485Y-2528737D01*
X34561263Y-2449515D01*
X34464237Y-2393497D01*
X34356018Y-2364500D01*
X34243982Y-2364500D01*
X34135763Y-2393497D01*
X34135760Y-2393498D01*
X34038740Y-2449513D01*
X34038734Y-2449517D01*
X33959517Y-2528734D01*
X33959513Y-2528740D01*
X33903498Y-2625760D01*
X33903497Y-2625763D01*
X33874500Y-2733982D01*
X26760500Y-2733982D01*
X26760500Y-2550693D01*
X26760500Y-2550691D01*
X26729799Y-2436114D01*
X26670489Y-2333387D01*
X26586613Y-2249511D01*
X26483886Y-2190201D01*
X26369309Y-2159500D01*
X25032249Y-2159500D01*
X24917672Y-2190201D01*
X24910223Y-2194502D01*
X24910221Y-2194503D01*
X24814947Y-2249508D01*
X24814942Y-2249512D01*
X24181274Y-2883181D01*
X24119951Y-2916666D01*
X24093593Y-2919500D01*
X8399500Y-2919500D01*
X8332461Y-2899815D01*
X8286706Y-2847011D01*
X8275500Y-2795500D01*
X8275500Y-1240249D01*
X8275499Y-1240247D01*
X8263868Y-1181770D01*
X8263867Y-1181769D01*
X8219552Y-1115447D01*
X8153230Y-1071132D01*
X8153229Y-1071131D01*
X8094752Y-1059500D01*
X8094748Y-1059500D01*
X6355252Y-1059500D01*
X6355247Y-1059500D01*
X6296770Y-1071131D01*
X6296769Y-1071132D01*
X6230447Y-1115447D01*
X6186132Y-1181769D01*
X6186131Y-1181770D01*
X6174500Y-1240247D01*
X6174500Y-2795500D01*
X6154815Y-2862539D01*
X6102011Y-2908294D01*
X6050500Y-2919500D01*
X5639523Y-2919500D01*
X5572484Y-2899815D01*
X5526729Y-2847011D01*
X5516785Y-2777853D01*
X5536421Y-2726610D01*
X5615940Y-2607600D01*
X5615940Y-2607599D01*
X5615941Y-2607598D01*
X5695130Y-2416420D01*
X5735500Y-2213465D01*
X5735500Y-2006535D01*
X5695130Y-1803580D01*
X5615941Y-1612402D01*
X5500977Y-1440345D01*
X5500975Y-1440342D01*
X5354657Y-1294024D01*
X5207979Y-1196018D01*
X5182598Y-1179059D01*
X5158784Y-1169195D01*
X4991420Y-1099870D01*
X4991412Y-1099868D01*
X4788469Y-1059500D01*
X4788465Y-1059500D01*
X4581535Y-1059500D01*
X4581530Y-1059500D01*
X4378587Y-1099868D01*
X4378579Y-1099870D01*
X4187403Y-1179058D01*
X4015342Y-1294024D01*
X3869024Y-1440342D01*
X3754058Y-1612403D01*
X3674870Y-1803579D01*
X3674868Y-1803587D01*
X3634500Y-2006530D01*
X2634913Y-2006530D01*
X2610925Y-1917007D01*
X2578012Y-1860000D01*
X3219115Y-1860000D01*
X3219115Y-1859999D01*
X3217914Y-1852415D01*
X3164408Y-1687744D01*
X3085804Y-1533475D01*
X2984032Y-1393397D01*
X2861602Y-1270967D01*
X2721524Y-1169195D01*
X2567257Y-1090591D01*
X2402589Y-1037087D01*
X2402581Y-1037085D01*
X2395000Y-1035884D01*
X2395000Y-1676988D01*
X2337993Y-1644075D01*
X2210826Y-1610000D01*
X2079174Y-1610000D01*
X1952007Y-1644075D01*
X1895000Y-1676988D01*
X1895000Y-1035884D01*
X1894999Y-1035884D01*
X1887418Y-1037085D01*
X1887410Y-1037087D01*
X1722742Y-1090591D01*
X1568475Y-1169195D01*
X1428397Y-1270967D01*
X1305967Y-1393397D01*
X1204195Y-1533475D01*
X1125591Y-1687744D01*
X1072085Y-1852415D01*
X1070884Y-1859999D01*
X500500Y-1859999D01*
X500500Y-624500D01*
X520185Y-557461D01*
X572989Y-511706D01*
X624500Y-500500D01*
X18450768Y-500500D01*
X18517807Y-520185D01*
G37*
%TD.AperFunction*%
%TD*%
M02*
