%TF.GenerationSoftware,KiCad,Pcbnew,8.0.7-8.0.7-0~ubuntu22.04.1*%
%TF.CreationDate,2024-12-11T19:39:49-06:00*%
%TF.ProjectId,elrs-lvs,656c7273-2d6c-4767-932e-6b696361645f,1*%
%TF.SameCoordinates,Original*%
%TF.FileFunction,Copper,L1,Top*%
%TF.FilePolarity,Positive*%
%FSLAX46Y46*%
G04 Gerber Fmt 4.6, Leading zero omitted, Abs format (unit mm)*
G04 Created by KiCad (PCBNEW 8.0.7-8.0.7-0~ubuntu22.04.1) date 2024-12-11 19:39:49*
%MOMM*%
%LPD*%
G01*
G04 APERTURE LIST*
G04 Aperture macros list*
%AMRoundRect*
0 Rectangle with rounded corners*
0 $1 Rounding radius*
0 $2 $3 $4 $5 $6 $7 $8 $9 X,Y pos of 4 corners*
0 Add a 4 corners polygon primitive as box body*
4,1,4,$2,$3,$4,$5,$6,$7,$8,$9,$2,$3,0*
0 Add four circle primitives for the rounded corners*
1,1,$1+$1,$2,$3*
1,1,$1+$1,$4,$5*
1,1,$1+$1,$6,$7*
1,1,$1+$1,$8,$9*
0 Add four rect primitives between the rounded corners*
20,1,$1+$1,$2,$3,$4,$5,0*
20,1,$1+$1,$4,$5,$6,$7,0*
20,1,$1+$1,$6,$7,$8,$9,0*
20,1,$1+$1,$8,$9,$2,$3,0*%
G04 Aperture macros list end*
%TA.AperFunction,SMDPad,CuDef*%
%ADD10RoundRect,0.218750X0.381250X-0.218750X0.381250X0.218750X-0.381250X0.218750X-0.381250X-0.218750X0*%
%TD*%
%TA.AperFunction,SMDPad,CuDef*%
%ADD11RoundRect,0.075000X-0.075000X-0.075000X0.075000X-0.075000X0.075000X0.075000X-0.075000X0.075000X0*%
%TD*%
%TA.AperFunction,SMDPad,CuDef*%
%ADD12C,0.250000*%
%TD*%
%TA.AperFunction,SMDPad,CuDef*%
%ADD13RoundRect,0.075000X0.075000X-0.075000X0.075000X0.075000X-0.075000X0.075000X-0.075000X-0.075000X0*%
%TD*%
%TA.AperFunction,SMDPad,CuDef*%
%ADD14RoundRect,0.075000X0.075000X0.075000X-0.075000X0.075000X-0.075000X-0.075000X0.075000X-0.075000X0*%
%TD*%
%TA.AperFunction,SMDPad,CuDef*%
%ADD15RoundRect,0.218750X0.256250X-0.218750X0.256250X0.218750X-0.256250X0.218750X-0.256250X-0.218750X0*%
%TD*%
%TA.AperFunction,SMDPad,CuDef*%
%ADD16RoundRect,0.250000X0.475000X-0.250000X0.475000X0.250000X-0.475000X0.250000X-0.475000X-0.250000X0*%
%TD*%
%TA.AperFunction,SMDPad,CuDef*%
%ADD17RoundRect,0.250000X1.100000X-0.325000X1.100000X0.325000X-1.100000X0.325000X-1.100000X-0.325000X0*%
%TD*%
%TA.AperFunction,SMDPad,CuDef*%
%ADD18RoundRect,0.135000X0.185000X-0.135000X0.185000X0.135000X-0.185000X0.135000X-0.185000X-0.135000X0*%
%TD*%
%TA.AperFunction,SMDPad,CuDef*%
%ADD19RoundRect,0.075000X-0.075000X0.075000X-0.075000X-0.075000X0.075000X-0.075000X0.075000X0.075000X0*%
%TD*%
%TA.AperFunction,SMDPad,CuDef*%
%ADD20R,1.100000X2.000000*%
%TD*%
%TA.AperFunction,SMDPad,CuDef*%
%ADD21R,1.100000X0.800000*%
%TD*%
%TA.AperFunction,SMDPad,CuDef*%
%ADD22RoundRect,0.250000X0.250000X-0.275000X0.250000X0.275000X-0.250000X0.275000X-0.250000X-0.275000X0*%
%TD*%
%TA.AperFunction,SMDPad,CuDef*%
%ADD23RoundRect,0.250000X0.000000X-0.353553X0.353553X0.000000X0.000000X0.353553X-0.353553X0.000000X0*%
%TD*%
%TA.AperFunction,SMDPad,CuDef*%
%ADD24RoundRect,0.250000X0.275000X-0.850000X0.275000X0.850000X-0.275000X0.850000X-0.275000X-0.850000X0*%
%TD*%
%TA.AperFunction,SMDPad,CuDef*%
%ADD25RoundRect,0.337500X0.000000X-0.477297X0.477297X0.000000X0.000000X0.477297X-0.477297X0.000000X0*%
%TD*%
%TA.AperFunction,ComponentPad*%
%ADD26R,1.700000X1.700000*%
%TD*%
%TA.AperFunction,ComponentPad*%
%ADD27O,1.700000X1.700000*%
%TD*%
%TA.AperFunction,SMDPad,CuDef*%
%ADD28R,0.550000X0.550000*%
%TD*%
%TA.AperFunction,SMDPad,CuDef*%
%ADD29R,0.500000X0.300000*%
%TD*%
%TA.AperFunction,SMDPad,CuDef*%
%ADD30R,0.533400X0.558800*%
%TD*%
%TA.AperFunction,SMDPad,CuDef*%
%ADD31R,0.533400X0.279400*%
%TD*%
%TA.AperFunction,SMDPad,CuDef*%
%ADD32R,0.939800X2.844800*%
%TD*%
%TA.AperFunction,SMDPad,CuDef*%
%ADD33RoundRect,0.140000X-0.140000X-0.170000X0.140000X-0.170000X0.140000X0.170000X-0.140000X0.170000X0*%
%TD*%
%TA.AperFunction,SMDPad,CuDef*%
%ADD34RoundRect,0.135000X0.135000X0.185000X-0.135000X0.185000X-0.135000X-0.185000X0.135000X-0.185000X0*%
%TD*%
%TA.AperFunction,SMDPad,CuDef*%
%ADD35RoundRect,0.112500X0.112500X-0.187500X0.112500X0.187500X-0.112500X0.187500X-0.112500X-0.187500X0*%
%TD*%
%TA.AperFunction,SMDPad,CuDef*%
%ADD36R,0.508000X0.457200*%
%TD*%
%TA.AperFunction,SMDPad,CuDef*%
%ADD37R,0.700000X0.700000*%
%TD*%
%TA.AperFunction,SMDPad,CuDef*%
%ADD38RoundRect,0.250000X0.250000X0.475000X-0.250000X0.475000X-0.250000X-0.475000X0.250000X-0.475000X0*%
%TD*%
%TA.AperFunction,SMDPad,CuDef*%
%ADD39R,0.457200X0.508000*%
%TD*%
%TA.AperFunction,SMDPad,CuDef*%
%ADD40RoundRect,0.140000X-0.170000X0.140000X-0.170000X-0.140000X0.170000X-0.140000X0.170000X0.140000X0*%
%TD*%
%TA.AperFunction,SMDPad,CuDef*%
%ADD41RoundRect,0.150000X0.150000X0.700000X-0.150000X0.700000X-0.150000X-0.700000X0.150000X-0.700000X0*%
%TD*%
%TA.AperFunction,SMDPad,CuDef*%
%ADD42RoundRect,0.250000X0.250000X1.100000X-0.250000X1.100000X-0.250000X-1.100000X0.250000X-1.100000X0*%
%TD*%
%TA.AperFunction,SMDPad,CuDef*%
%ADD43RoundRect,0.140000X0.170000X-0.140000X0.170000X0.140000X-0.170000X0.140000X-0.170000X-0.140000X0*%
%TD*%
%TA.AperFunction,SMDPad,CuDef*%
%ADD44R,0.800000X0.900000*%
%TD*%
%TA.AperFunction,SMDPad,CuDef*%
%ADD45RoundRect,0.062500X-0.062500X0.337500X-0.062500X-0.337500X0.062500X-0.337500X0.062500X0.337500X0*%
%TD*%
%TA.AperFunction,SMDPad,CuDef*%
%ADD46RoundRect,0.062500X-0.337500X0.062500X-0.337500X-0.062500X0.337500X-0.062500X0.337500X0.062500X0*%
%TD*%
%TA.AperFunction,HeatsinkPad*%
%ADD47R,5.300000X5.300000*%
%TD*%
%TA.AperFunction,ComponentPad*%
%ADD48RoundRect,0.250000X0.725000X-0.600000X0.725000X0.600000X-0.725000X0.600000X-0.725000X-0.600000X0*%
%TD*%
%TA.AperFunction,ComponentPad*%
%ADD49O,1.950000X1.700000*%
%TD*%
%TA.AperFunction,SMDPad,CuDef*%
%ADD50RoundRect,0.062500X-0.350000X-0.062500X0.350000X-0.062500X0.350000X0.062500X-0.350000X0.062500X0*%
%TD*%
%TA.AperFunction,SMDPad,CuDef*%
%ADD51RoundRect,0.062500X-0.062500X-0.350000X0.062500X-0.350000X0.062500X0.350000X-0.062500X0.350000X0*%
%TD*%
%TA.AperFunction,HeatsinkPad*%
%ADD52R,2.600000X2.600000*%
%TD*%
%TA.AperFunction,ViaPad*%
%ADD53C,0.500000*%
%TD*%
%TA.AperFunction,ViaPad*%
%ADD54C,0.350000*%
%TD*%
%TA.AperFunction,ViaPad*%
%ADD55C,1.500000*%
%TD*%
%TA.AperFunction,Conductor*%
%ADD56C,0.250000*%
%TD*%
%TA.AperFunction,Conductor*%
%ADD57C,0.600000*%
%TD*%
%TA.AperFunction,Conductor*%
%ADD58C,0.939800*%
%TD*%
%TA.AperFunction,Conductor*%
%ADD59C,1.000000*%
%TD*%
%TA.AperFunction,Conductor*%
%ADD60C,0.156500*%
%TD*%
%TA.AperFunction,Conductor*%
%ADD61C,0.533400*%
%TD*%
%TA.AperFunction,Conductor*%
%ADD62C,0.558800*%
%TD*%
%TA.AperFunction,Conductor*%
%ADD63C,0.279400*%
%TD*%
%TA.AperFunction,Conductor*%
%ADD64C,0.500000*%
%TD*%
G04 APERTURE END LIST*
%TA.AperFunction,EtchedComponent*%
%TO.C,JP26*%
G36*
X23640000Y-12480000D02*
G01*
X23940000Y-12480000D01*
X23940000Y-12620000D01*
X23640000Y-12620000D01*
X23640000Y-12480000D01*
G37*
%TD.AperFunction*%
%TA.AperFunction,EtchedComponent*%
%TO.C,JP34*%
G36*
X17390000Y-7870000D02*
G01*
X17530000Y-7870000D01*
X17530000Y-7570000D01*
X17390000Y-7570000D01*
X17390000Y-7870000D01*
G37*
%TD.AperFunction*%
%TA.AperFunction,EtchedComponent*%
%TO.C,JP12*%
G36*
X14780000Y-14620000D02*
G01*
X14480000Y-14620000D01*
X14480000Y-14480000D01*
X14780000Y-14480000D01*
X14780000Y-14620000D01*
G37*
%TD.AperFunction*%
%TA.AperFunction,EtchedComponent*%
%TO.C,JP35*%
G36*
X16890000Y-7870000D02*
G01*
X17030000Y-7870000D01*
X17030000Y-7570000D01*
X16890000Y-7570000D01*
X16890000Y-7870000D01*
G37*
%TD.AperFunction*%
%TA.AperFunction,EtchedComponent*%
%TO.C,JP4*%
G36*
X18530000Y-7570000D02*
G01*
X18390000Y-7570000D01*
X18390000Y-7870000D01*
X18530000Y-7870000D01*
X18530000Y-7570000D01*
G37*
%TD.AperFunction*%
%TA.AperFunction,EtchedComponent*%
%TO.C,JP21*%
G36*
X14780000Y-13120000D02*
G01*
X14480000Y-13120000D01*
X14480000Y-12980000D01*
X14780000Y-12980000D01*
X14780000Y-13120000D01*
G37*
%TD.AperFunction*%
%TA.AperFunction,EtchedComponent*%
%TO.C,JP23*%
G36*
X14780000Y-13620001D02*
G01*
X14480000Y-13620001D01*
X14480000Y-13480001D01*
X14780000Y-13480001D01*
X14780000Y-13620001D01*
G37*
%TD.AperFunction*%
%TA.AperFunction,EtchedComponent*%
%TO.C,JP31*%
G36*
X14780000Y-11120001D02*
G01*
X14480000Y-11120001D01*
X14480000Y-10980001D01*
X14780000Y-10980001D01*
X14780000Y-11120001D01*
G37*
%TD.AperFunction*%
%TA.AperFunction,EtchedComponent*%
%TO.C,JP36*%
G36*
X17030000Y-16730000D02*
G01*
X16890000Y-16730000D01*
X16890000Y-17030000D01*
X17030000Y-17030000D01*
X17030000Y-16730000D01*
G37*
%TD.AperFunction*%
%TA.AperFunction,EtchedComponent*%
%TO.C,JP5*%
G36*
X18030001Y-7570000D02*
G01*
X17890001Y-7570000D01*
X17890001Y-7870000D01*
X18030001Y-7870000D01*
X18030001Y-7570000D01*
G37*
%TD.AperFunction*%
%TA.AperFunction,EtchedComponent*%
%TO.C,JP19*%
G36*
X18530000Y-16730000D02*
G01*
X18390000Y-16730000D01*
X18390000Y-17030000D01*
X18530000Y-17030000D01*
X18530000Y-16730000D01*
G37*
%TD.AperFunction*%
%TA.AperFunction,EtchedComponent*%
%TO.C,JP16*%
G36*
X14780000Y-15120000D02*
G01*
X14480000Y-15120000D01*
X14480000Y-14980000D01*
X14780000Y-14980000D01*
X14780000Y-15120000D01*
G37*
%TD.AperFunction*%
%TA.AperFunction,EtchedComponent*%
%TO.C,JP20*%
G36*
X14780000Y-12119999D02*
G01*
X14480000Y-12119999D01*
X14480000Y-11979999D01*
X14780000Y-11979999D01*
X14780000Y-12119999D01*
G37*
%TD.AperFunction*%
%TA.AperFunction,EtchedComponent*%
%TO.C,L2*%
G36*
X21390000Y-7470000D02*
G01*
X21530000Y-7470000D01*
X21530000Y-7170000D01*
X21390000Y-7170000D01*
X21390000Y-7470000D01*
G37*
%TD.AperFunction*%
%TA.AperFunction,EtchedComponent*%
%TO.C,JP15*%
G36*
X23640001Y-13480000D02*
G01*
X23940001Y-13480000D01*
X23940001Y-13620000D01*
X23640001Y-13620000D01*
X23640001Y-13480000D01*
G37*
%TD.AperFunction*%
%TA.AperFunction,EtchedComponent*%
%TO.C,JP32*%
G36*
X16389999Y-7870000D02*
G01*
X16529999Y-7870000D01*
X16529999Y-7570000D01*
X16389999Y-7570000D01*
X16389999Y-7870000D01*
G37*
%TD.AperFunction*%
%TA.AperFunction,EtchedComponent*%
%TO.C,JP1*%
G36*
X20030000Y-7570000D02*
G01*
X19890000Y-7570000D01*
X19890000Y-7870000D01*
X20030000Y-7870000D01*
X20030000Y-7570000D01*
G37*
%TD.AperFunction*%
%TA.AperFunction,EtchedComponent*%
%TO.C,JP18*%
G36*
X18030000Y-16730001D02*
G01*
X17890000Y-16730001D01*
X17890000Y-17030001D01*
X18030000Y-17030001D01*
X18030000Y-16730001D01*
G37*
%TD.AperFunction*%
%TA.AperFunction,EtchedComponent*%
%TO.C,JP33*%
G36*
X14780000Y-9619999D02*
G01*
X14480000Y-9619999D01*
X14480000Y-9479999D01*
X14780000Y-9479999D01*
X14780000Y-9619999D01*
G37*
%TD.AperFunction*%
%TA.AperFunction,EtchedComponent*%
%TO.C,JP3*%
G36*
X19030000Y-7570000D02*
G01*
X18890000Y-7570000D01*
X18890000Y-7870000D01*
X19030000Y-7870000D01*
X19030000Y-7570000D01*
G37*
%TD.AperFunction*%
%TA.AperFunction,EtchedComponent*%
%TO.C,JP25*%
G36*
X23640000Y-14480000D02*
G01*
X23940000Y-14480000D01*
X23940000Y-14620000D01*
X23640000Y-14620000D01*
X23640000Y-14480000D01*
G37*
%TD.AperFunction*%
%TA.AperFunction,EtchedComponent*%
%TO.C,JP14*%
G36*
X14780000Y-14120000D02*
G01*
X14480000Y-14120000D01*
X14480000Y-13980000D01*
X14780000Y-13980000D01*
X14780000Y-14120000D01*
G37*
%TD.AperFunction*%
%TA.AperFunction,EtchedComponent*%
%TO.C,JP7*%
G36*
X17390000Y-17030000D02*
G01*
X17530000Y-17030000D01*
X17530000Y-16730000D01*
X17390000Y-16730000D01*
X17390000Y-17030000D01*
G37*
%TD.AperFunction*%
%TA.AperFunction,EtchedComponent*%
%TO.C,JP2*%
G36*
X19530000Y-7570000D02*
G01*
X19390000Y-7570000D01*
X19390000Y-7870000D01*
X19530000Y-7870000D01*
X19530000Y-7570000D01*
G37*
%TD.AperFunction*%
%TA.AperFunction,EtchedComponent*%
%TO.C,JP13*%
G36*
X23640000Y-12980000D02*
G01*
X23940000Y-12980000D01*
X23940000Y-13120000D01*
X23640000Y-13120000D01*
X23640000Y-12980000D01*
G37*
%TD.AperFunction*%
%TA.AperFunction,EtchedComponent*%
%TO.C,JP22*%
G36*
X14780000Y-11620000D02*
G01*
X14480000Y-11620000D01*
X14480000Y-11480000D01*
X14780000Y-11480000D01*
X14780000Y-11620000D01*
G37*
%TD.AperFunction*%
%TA.AperFunction,EtchedComponent*%
%TO.C,JP8*%
G36*
X19890000Y-17030000D02*
G01*
X20030000Y-17030000D01*
X20030000Y-16730000D01*
X19890000Y-16730000D01*
X19890000Y-17030000D01*
G37*
%TD.AperFunction*%
%TA.AperFunction,EtchedComponent*%
%TO.C,JP17*%
G36*
X21030000Y-16730000D02*
G01*
X20890000Y-16730000D01*
X20890000Y-17030000D01*
X21030000Y-17030000D01*
X21030000Y-16730000D01*
G37*
%TD.AperFunction*%
%TA.AperFunction,EtchedComponent*%
%TO.C,JP29*%
G36*
X14780000Y-10120000D02*
G01*
X14480000Y-10120000D01*
X14480000Y-9980000D01*
X14780000Y-9980000D01*
X14780000Y-10120000D01*
G37*
%TD.AperFunction*%
%TA.AperFunction,EtchedComponent*%
%TO.C,JP27*%
G36*
X23640000Y-13980000D02*
G01*
X23940000Y-13980000D01*
X23940000Y-14120000D01*
X23640000Y-14120000D01*
X23640000Y-13980000D01*
G37*
%TD.AperFunction*%
%TD*%
D10*
%TO.P,L1,1,1*%
%TO.N,/V_DCC*%
X31800000Y-19412501D03*
%TO.P,L1,2,2*%
%TO.N,Net-(U2-DCC_SW)*%
X31800000Y-17287501D03*
%TD*%
D11*
%TO.P,JP26,1,A*%
%TO.N,Net-(JP26-A)*%
X23490000Y-12550000D03*
%TO.P,JP26,2,B*%
%TO.N,/LED_RGB*%
X24090000Y-12550000D03*
%TD*%
D12*
%TO.P,TP9,1,1*%
%TO.N,Net-(TP9-Pad1)*%
X25592501Y-16930000D03*
%TD*%
D13*
%TO.P,JP34,1,A*%
%TO.N,Net-(JP34-A)*%
X17460000Y-8020000D03*
%TO.P,JP34,2,B*%
%TO.N,/LVS7*%
X17460000Y-7420000D03*
%TD*%
D14*
%TO.P,JP12,1,A*%
%TO.N,Net-(JP12-A)*%
X14930000Y-14550000D03*
%TO.P,JP12,2,B*%
%TO.N,/BOOT*%
X14330000Y-14550000D03*
%TD*%
D15*
%TO.P,D3,1,K*%
%TO.N,GND*%
X18040000Y-4067499D03*
%TO.P,D3,2,A*%
%TO.N,Net-(D3-A)*%
X18040000Y-2492499D03*
%TD*%
D12*
%TO.P,TP13,1,1*%
%TO.N,Net-(U1-CAP1_NC)*%
X23450000Y-9550000D03*
%TD*%
D16*
%TO.P,C2,1*%
%TO.N,VIN*%
X11960000Y-4040000D03*
%TO.P,C2,2*%
%TO.N,GND*%
X11960000Y-2140000D03*
%TD*%
D12*
%TO.P,TP16,1,1*%
%TO.N,/RADIO_DIO1*%
X27592500Y-18920000D03*
%TD*%
D11*
%TO.P,C23,1*%
%TO.N,Net-(J9-In)*%
X21460000Y-6640000D03*
%TO.P,C23,2*%
%TO.N,GND*%
X22060000Y-6640000D03*
%TD*%
D12*
%TO.P,TP4,1,1*%
%TO.N,Net-(U1-CLK)*%
X19460000Y-16540000D03*
%TD*%
D17*
%TO.P,F1,1*%
%TO.N,+5V*%
X11300000Y-9155000D03*
%TO.P,F1,2*%
%TO.N,VIN*%
X11300000Y-6205000D03*
%TD*%
D18*
%TO.P,R3,1*%
%TO.N,Net-(U3-PG)*%
X16830000Y-6190000D03*
%TO.P,R3,2*%
%TO.N,/RESET*%
X16830000Y-5170000D03*
%TD*%
D12*
%TO.P,TP15,1,1*%
%TO.N,/RADIO_BUSY*%
X27092500Y-18920000D03*
%TD*%
D13*
%TO.P,JP35,1,A*%
%TO.N,Net-(JP35-A)*%
X16960000Y-8020000D03*
%TO.P,JP35,2,B*%
%TO.N,/VS_5V*%
X16960000Y-7420000D03*
%TD*%
D19*
%TO.P,JP4,1,A*%
%TO.N,/LVS4*%
X18460000Y-7420000D03*
%TO.P,JP4,2,B*%
%TO.N,Net-(JP4-B)*%
X18460000Y-8020000D03*
%TD*%
D20*
%TO.P,D1,1,K*%
%TO.N,VIN*%
X10020000Y-4032700D03*
D21*
%TO.P,D1,2,A*%
%TO.N,GND*%
X10020000Y-2132700D03*
%TD*%
D14*
%TO.P,JP21,1,A*%
%TO.N,Net-(JP21-A)*%
X14930000Y-13050000D03*
%TO.P,JP21,2,B*%
%TO.N,/RADIO_DIO1*%
X14330000Y-13050000D03*
%TD*%
%TO.P,JP23,1,A*%
%TO.N,Net-(JP23-A)*%
X14930000Y-13550001D03*
%TO.P,JP23,2,B*%
%TO.N,/RADIO_MISO*%
X14330000Y-13550001D03*
%TD*%
D22*
%TO.P,J13,1,In*%
%TO.N,Net-(J13-In)*%
X28090000Y-11025038D03*
D23*
X28090000Y-10995318D03*
D24*
%TO.P,J13,2,Ext*%
%TO.N,GND*%
X26615000Y-9500038D03*
X29565000Y-9500038D03*
D25*
X26569720Y-9475038D03*
X29610280Y-9475038D03*
X28090000Y-7954758D03*
%TD*%
D26*
%TO.P,J7,1,Pin_1*%
%TO.N,Net-(J7-Pin_1)*%
X7225000Y-17350000D03*
D27*
%TO.P,J7,2,Pin_2*%
%TO.N,+5V*%
X4685000Y-17350000D03*
%TO.P,J7,3,Pin_3*%
%TO.N,GND*%
X2145000Y-17350000D03*
%TD*%
D14*
%TO.P,JP31,1,A*%
%TO.N,Net-(JP31-A)*%
X14930000Y-11050001D03*
%TO.P,JP31,2,B*%
%TO.N,/PWM4*%
X14330000Y-11050001D03*
%TD*%
D19*
%TO.P,JP36,1,A*%
%TO.N,Net-(JP36-A)*%
X16960000Y-16580000D03*
%TO.P,JP36,2,B*%
%TO.N,+3.3V*%
X16960000Y-17180000D03*
%TD*%
%TO.P,JP5,1,A*%
%TO.N,/RESET*%
X17960001Y-7420000D03*
%TO.P,JP5,2,B*%
%TO.N,Net-(JP5-B)*%
X17960001Y-8020000D03*
%TD*%
D12*
%TO.P,TP11,1,1*%
%TO.N,Net-(U1-XTAL_P_NC)*%
X23450000Y-11050000D03*
%TD*%
D28*
%TO.P,U4,1*%
%TO.N,Net-(U2-RFIO)*%
X28090000Y-13400000D03*
D29*
%TO.P,U4,2*%
%TO.N,GND*%
X28440000Y-12800000D03*
D28*
%TO.P,U4,3*%
%TO.N,Net-(J13-In)*%
X28090000Y-12200000D03*
D29*
%TO.P,U4,4*%
%TO.N,GND*%
X27740000Y-12800000D03*
%TD*%
D12*
%TO.P,TP12,1,1*%
%TO.N,Net-(U1-CAP2_NC)*%
X23450000Y-10050000D03*
%TD*%
D19*
%TO.P,JP19,1,A*%
%TO.N,Net-(JP19-A)*%
X18460000Y-16580000D03*
%TO.P,JP19,2,B*%
%TO.N,/PWM5*%
X18460000Y-17180000D03*
%TD*%
D12*
%TO.P,TP8,1,1*%
%TO.N,Net-(U2-DIO3)*%
X28592500Y-18919999D03*
%TD*%
D19*
%TO.P,JP24,1,A*%
%TO.N,Net-(JP24-A)*%
X21460000Y-16580000D03*
%TO.P,JP24,2,B*%
%TO.N,/PWM8*%
X21460000Y-17180000D03*
%TD*%
D14*
%TO.P,JP16,1,A*%
%TO.N,Net-(JP16-A)*%
X14930000Y-15050000D03*
%TO.P,JP16,2,B*%
%TO.N,/RADIO_BUSY*%
X14330000Y-15050000D03*
%TD*%
%TO.P,JP20,1,A*%
%TO.N,Net-(JP20-A)*%
X14930000Y-12049999D03*
%TO.P,JP20,2,B*%
%TO.N,/RADIO_SCK*%
X14330000Y-12049999D03*
%TD*%
D26*
%TO.P,J8,1,Pin_1*%
%TO.N,Net-(J8-Pin_1)*%
X7225000Y-19890000D03*
D27*
%TO.P,J8,2,Pin_2*%
%TO.N,+5V*%
X4685000Y-19890000D03*
%TO.P,J8,3,Pin_3*%
%TO.N,GND*%
X2145000Y-19890000D03*
%TD*%
D30*
%TO.P,U3,1,VIN*%
%TO.N,VIN*%
X13571000Y-4042499D03*
D31*
%TO.P,U3,2,VIN*%
X13571000Y-4679874D03*
%TO.P,U3,3,EN*%
X13571000Y-5180000D03*
%TO.P,U3,4,MODE*%
%TO.N,Net-(U3-MODE)*%
X13571000Y-5680126D03*
D30*
%TO.P,U3,5,SS/TR*%
%TO.N,Net-(U3-SS{slash}TR)*%
X13571000Y-6317501D03*
%TO.P,U3,6,PG*%
%TO.N,Net-(U3-PG)*%
X15730000Y-6317501D03*
D31*
%TO.P,U3,7,FB*%
%TO.N,Net-(U3-FB)*%
X15730000Y-5680126D03*
%TO.P,U3,8,SW*%
%TO.N,unconnected-(U3-SW-Pad8)*%
X15730000Y-5180000D03*
%TO.P,U3,9,VOUT*%
%TO.N,+3.3V*%
X15730000Y-4679874D03*
D30*
%TO.P,U3,10,VOUT*%
X15730000Y-4042499D03*
D32*
%TO.P,U3,11,GND*%
%TO.N,GND*%
X14650500Y-5180000D03*
%TD*%
D33*
%TO.P,C9,1*%
%TO.N,Net-(C9-Pad1)*%
X24062501Y-16530000D03*
%TO.P,C9,2*%
%TO.N,/RADIO_XIN*%
X25022501Y-16530000D03*
%TD*%
D34*
%TO.P,R1,1*%
%TO.N,+3.3V*%
X19970000Y-6220000D03*
%TO.P,R1,2*%
%TO.N,/RESET*%
X18950000Y-6220000D03*
%TD*%
D26*
%TO.P,J2,1,Pin_1*%
%TO.N,Net-(J2-Pin_1)*%
X7225000Y-4650000D03*
D27*
%TO.P,J2,2,Pin_2*%
%TO.N,+5V*%
X4685000Y-4650000D03*
%TO.P,J2,3,Pin_3*%
%TO.N,GND*%
X2145000Y-4650000D03*
%TD*%
D13*
%TO.P,L2,1*%
%TO.N,Net-(U1-LNA_IN)*%
X21460000Y-7620000D03*
%TO.P,L2,2*%
%TO.N,Net-(J9-In)*%
X21460000Y-7020000D03*
%TD*%
D12*
%TO.P,TP20,1,1*%
%TO.N,/RADIO_MISO*%
X31082500Y-15930000D03*
%TD*%
D11*
%TO.P,JP15,1,A*%
%TO.N,Net-(JP15-A)*%
X23490001Y-13550000D03*
%TO.P,JP15,2,B*%
%TO.N,/SERIAL_RX*%
X24090001Y-13550000D03*
%TD*%
D13*
%TO.P,JP32,1,A*%
%TO.N,Net-(JP32-A)*%
X16459999Y-8020000D03*
%TO.P,JP32,2,B*%
%TO.N,/LVS5*%
X16459999Y-7420000D03*
%TD*%
D35*
%TO.P,D2,1,K*%
%TO.N,+3.3V*%
X24580000Y-10880000D03*
%TO.P,D2,2,A*%
%TO.N,GND*%
X24580000Y-8780000D03*
%TD*%
D22*
%TO.P,J9,1,In*%
%TO.N,Net-(J9-In)*%
X21460000Y-5470000D03*
D23*
X21460000Y-5440281D03*
D25*
%TO.P,J9,2,Ext*%
%TO.N,GND*%
X19939720Y-3920000D03*
D24*
X19985000Y-3944999D03*
X22935000Y-3944999D03*
D25*
X21460000Y-2399720D03*
X22980280Y-3920000D03*
%TD*%
D26*
%TO.P,J1,1,Pin_1*%
%TO.N,Net-(J1-Pin_1)*%
X7225000Y-2110000D03*
D27*
%TO.P,J1,2,Pin_2*%
%TO.N,+5V*%
X4685000Y-2110000D03*
%TO.P,J1,3,Pin_3*%
%TO.N,GND*%
X2145000Y-2110000D03*
%TD*%
D19*
%TO.P,JP1,1,A*%
%TO.N,/LVS1*%
X19960000Y-7420000D03*
%TO.P,JP1,2,B*%
%TO.N,Net-(JP1-B)*%
X19960000Y-8020000D03*
%TD*%
%TO.P,JP18,1,A*%
%TO.N,Net-(JP18-A)*%
X17960000Y-16580001D03*
%TO.P,JP18,2,B*%
%TO.N,/PWM6*%
X17960000Y-17180001D03*
%TD*%
D11*
%TO.P,C22,1*%
%TO.N,Net-(U1-LNA_IN)*%
X21460000Y-8000000D03*
%TO.P,C22,2*%
%TO.N,GND*%
X22060000Y-8000000D03*
%TD*%
D14*
%TO.P,JP33,1,A*%
%TO.N,Net-(JP33-A)*%
X14930000Y-9549999D03*
%TO.P,JP33,2,B*%
%TO.N,/LVS6*%
X14330000Y-9549999D03*
%TD*%
D26*
%TO.P,J3,1,Pin_1*%
%TO.N,Net-(J3-Pin_1)*%
X7225000Y-7190000D03*
D27*
%TO.P,J3,2,Pin_2*%
%TO.N,+5V*%
X4685000Y-7190000D03*
%TO.P,J3,3,Pin_3*%
%TO.N,GND*%
X2145000Y-7190000D03*
%TD*%
D12*
%TO.P,TP18,1,1*%
%TO.N,/RADIO_SCK*%
X31082500Y-14930000D03*
%TD*%
D26*
%TO.P,J4,1,Pin_1*%
%TO.N,Net-(J4-Pin_1)*%
X7225000Y-9730000D03*
D27*
%TO.P,J4,2,Pin_2*%
%TO.N,+5V*%
X4685000Y-9730000D03*
%TO.P,J4,3,Pin_3*%
%TO.N,GND*%
X2145000Y-9730000D03*
%TD*%
D19*
%TO.P,JP3,1,A*%
%TO.N,/LVS3*%
X18960000Y-7420000D03*
%TO.P,JP3,2,B*%
%TO.N,Net-(JP3-B)*%
X18960000Y-8020000D03*
%TD*%
D11*
%TO.P,JP25,1,A*%
%TO.N,Net-(JP25-A)*%
X23490000Y-14550000D03*
%TO.P,JP25,2,B*%
%TO.N,/PWM1*%
X24090000Y-14550000D03*
%TD*%
D36*
%TO.P,SW2,1,A*%
%TO.N,/BOOT*%
X10800000Y-15980001D03*
X10000002Y-15980001D03*
%TO.P,SW2,2,B*%
%TO.N,GND*%
X10800000Y-18621601D03*
X10000002Y-18621601D03*
%TD*%
D12*
%TO.P,TP6,1,1*%
%TO.N,Net-(U2-XTB)*%
X25592500Y-17430000D03*
%TD*%
D26*
%TO.P,J6,1,Pin_1*%
%TO.N,Net-(J6-Pin_1)*%
X7225000Y-14810000D03*
D27*
%TO.P,J6,2,Pin_2*%
%TO.N,+5V*%
X4685000Y-14810000D03*
%TO.P,J6,3,Pin_3*%
%TO.N,GND*%
X2145000Y-14810000D03*
%TD*%
D37*
%TO.P,D4,1,DOUT*%
%TO.N,/RGB*%
X14000000Y-17380000D03*
%TO.P,D4,2,VSS*%
%TO.N,GND*%
X14000000Y-16280000D03*
%TO.P,D4,3,DIN*%
%TO.N,/LED_RGB*%
X12200000Y-16280000D03*
%TO.P,D4,4,VDD*%
%TO.N,/LEDPWR*%
X12200000Y-17380000D03*
%TD*%
D14*
%TO.P,JP14,1,A*%
%TO.N,Net-(JP14-A)*%
X14930000Y-14050000D03*
%TO.P,JP14,2,B*%
%TO.N,/RADIO_MOSI*%
X14330000Y-14050000D03*
%TD*%
D38*
%TO.P,C6,1*%
%TO.N,+3.3V*%
X16250000Y-2390000D03*
%TO.P,C6,2*%
%TO.N,GND*%
X14350000Y-2390000D03*
%TD*%
D12*
%TO.P,TP10,1,1*%
%TO.N,Net-(U1-XTAL_N_NC)*%
X23450000Y-11550000D03*
%TD*%
D13*
%TO.P,JP7,1,A*%
%TO.N,/PWM8*%
X17460000Y-17180000D03*
%TO.P,JP7,2,B*%
%TO.N,Net-(JP7-B)*%
X17460000Y-16580000D03*
%TD*%
D39*
%TO.P,SW1,1,A*%
%TO.N,/RESET*%
X13120800Y-12079999D03*
X13120800Y-11280001D03*
%TO.P,SW1,2,B*%
%TO.N,GND*%
X10479200Y-12079999D03*
X10479200Y-11280001D03*
%TD*%
D19*
%TO.P,JP2,1,A*%
%TO.N,/LVS2*%
X19460000Y-7420000D03*
%TO.P,JP2,2,B*%
%TO.N,Net-(JP2-B)*%
X19460000Y-8020000D03*
%TD*%
D12*
%TO.P,TP7,1,1*%
%TO.N,Net-(U2-DIO2)*%
X28092500Y-18920000D03*
%TD*%
D11*
%TO.P,JP13,1,A*%
%TO.N,Net-(JP13-A)*%
X23490000Y-13050000D03*
%TO.P,JP13,2,B*%
%TO.N,/SERIAL_TX*%
X24090000Y-13050000D03*
%TD*%
D12*
%TO.P,TP14,1,1*%
%TO.N,/RADIO_RST*%
X25592500Y-15930000D03*
%TD*%
%TO.P,TP19,1,1*%
%TO.N,/RADIO_MOSI*%
X31082499Y-15430000D03*
%TD*%
D40*
%TO.P,C13,1*%
%TO.N,/V_DCC*%
X30110000Y-19260001D03*
%TO.P,C13,2*%
%TO.N,GND*%
X30110000Y-20220001D03*
%TD*%
D14*
%TO.P,JP22,1,A*%
%TO.N,Net-(JP22-A)*%
X14930000Y-11550000D03*
%TO.P,JP22,2,B*%
%TO.N,/RADIO_NSS*%
X14330000Y-11550000D03*
%TD*%
D13*
%TO.P,JP8,1,A*%
%TO.N,/PWM7*%
X19960000Y-17180000D03*
%TO.P,JP8,2,B*%
%TO.N,Net-(JP8-B)*%
X19960000Y-16580000D03*
%TD*%
D12*
%TO.P,TP5,1,1*%
%TO.N,Net-(U1-CMD)*%
X18960000Y-16540000D03*
%TD*%
D19*
%TO.P,JP28,1,A*%
%TO.N,Net-(JP28-A)*%
X21960000Y-16580000D03*
%TO.P,JP28,2,B*%
%TO.N,/PWM7*%
X21960000Y-17180000D03*
%TD*%
%TO.P,JP17,1,A*%
%TO.N,Net-(JP17-A)*%
X20960000Y-16580000D03*
%TO.P,JP17,2,B*%
%TO.N,/RADIO_RST*%
X20960000Y-17180000D03*
%TD*%
D12*
%TO.P,TP3,1,1*%
%TO.N,Net-(U1-SD1)*%
X20460000Y-16540000D03*
%TD*%
D14*
%TO.P,JP29,1,A*%
%TO.N,Net-(JP29-A)*%
X14930000Y-10050000D03*
%TO.P,JP29,2,B*%
%TO.N,/PWM3*%
X14330000Y-10050000D03*
%TD*%
D12*
%TO.P,TP2,1,1*%
%TO.N,Net-(U1-IO16)*%
X16460000Y-16540000D03*
%TD*%
D41*
%TO.P,J10,1,Pin_1*%
%TO.N,GND*%
X30600000Y-5780000D03*
%TO.P,J10,2,Pin_2*%
%TO.N,+5V*%
X29350000Y-5780000D03*
%TO.P,J10,3,Pin_3*%
%TO.N,Net-(J10-Pin_3)*%
X28100000Y-5780000D03*
%TO.P,J10,4,Pin_4*%
%TO.N,Net-(J10-Pin_4)*%
X26850000Y-5780000D03*
D42*
%TO.P,J10,MP,MountPin*%
%TO.N,GND*%
X32450000Y-2580000D03*
X25000000Y-2580000D03*
%TD*%
D43*
%TO.P,C1,1*%
%TO.N,/RESET*%
X18000000Y-6260000D03*
%TO.P,C1,2*%
%TO.N,GND*%
X18000000Y-5300000D03*
%TD*%
D44*
%TO.P,Y1,1,1*%
%TO.N,GND*%
X24702500Y-19100000D03*
%TO.P,Y1,2,2*%
X24702500Y-17700000D03*
%TO.P,Y1,3,3*%
%TO.N,Net-(C9-Pad1)*%
X23602500Y-17700000D03*
%TO.P,Y1,4,4*%
%TO.N,+3.3V*%
X23602500Y-19100000D03*
%TD*%
D26*
%TO.P,J11,1,Pin_1*%
%TO.N,/RGB*%
X13415000Y-19880000D03*
D27*
%TO.P,J11,2,Pin_2*%
%TO.N,/LEDPWR*%
X15955000Y-19880000D03*
%TO.P,J11,3,Pin_3*%
%TO.N,GND*%
X18495000Y-19880000D03*
%TD*%
D18*
%TO.P,R10,1*%
%TO.N,/RADIO_NSS*%
X29650000Y-13149999D03*
%TO.P,R10,2*%
%TO.N,+3.3V*%
X29650000Y-12129999D03*
%TD*%
D45*
%TO.P,U1,1,VDDA*%
%TO.N,+3.3V*%
X21960000Y-8850000D03*
%TO.P,U1,2,LNA_IN*%
%TO.N,Net-(U1-LNA_IN)*%
X21460000Y-8850000D03*
%TO.P,U1,3,VDDA3P3*%
%TO.N,+3.3V*%
X20960000Y-8850000D03*
%TO.P,U1,4,VDDA3P3*%
X20460000Y-8850000D03*
%TO.P,U1,5,SENSOR_VP*%
%TO.N,Net-(JP1-B)*%
X19960000Y-8850000D03*
%TO.P,U1,6,SENSOR_CAPP*%
%TO.N,Net-(JP2-B)*%
X19460000Y-8850000D03*
%TO.P,U1,7,SENSOR_CAPN*%
%TO.N,Net-(JP3-B)*%
X18960000Y-8850000D03*
%TO.P,U1,8,SENSOR_VN*%
%TO.N,Net-(JP4-B)*%
X18460000Y-8850000D03*
%TO.P,U1,9,EN*%
%TO.N,Net-(JP5-B)*%
X17960000Y-8850000D03*
%TO.P,U1,10,IO34*%
%TO.N,Net-(JP34-A)*%
X17460000Y-8850000D03*
%TO.P,U1,11,IO35*%
%TO.N,Net-(JP35-A)*%
X16960000Y-8850000D03*
%TO.P,U1,12,IO32*%
%TO.N,Net-(JP32-A)*%
X16460000Y-8850000D03*
D46*
%TO.P,U1,13,IO33*%
%TO.N,Net-(JP33-A)*%
X15760000Y-9550000D03*
%TO.P,U1,14,IO25*%
%TO.N,Net-(JP29-A)*%
X15760000Y-10050000D03*
%TO.P,U1,15,IO26*%
%TO.N,Net-(JP30-A)*%
X15760000Y-10550000D03*
%TO.P,U1,16,IO27*%
%TO.N,Net-(JP31-A)*%
X15760000Y-11050000D03*
%TO.P,U1,17,IO14*%
%TO.N,Net-(JP22-A)*%
X15760000Y-11550000D03*
%TO.P,U1,18,IO12*%
%TO.N,Net-(JP20-A)*%
X15760000Y-12050000D03*
%TO.P,U1,19,VDD3P3_RTC*%
%TO.N,+3.3V*%
X15760000Y-12550000D03*
%TO.P,U1,20,IO13*%
%TO.N,Net-(JP21-A)*%
X15760000Y-13050000D03*
%TO.P,U1,21,IO15*%
%TO.N,Net-(JP23-A)*%
X15760000Y-13550000D03*
%TO.P,U1,22,IO2*%
%TO.N,Net-(JP14-A)*%
X15760000Y-14050000D03*
%TO.P,U1,23,IO0*%
%TO.N,Net-(JP12-A)*%
X15760000Y-14550000D03*
%TO.P,U1,24,IO4*%
%TO.N,Net-(JP16-A)*%
X15760000Y-15050000D03*
D45*
%TO.P,U1,25,IO16*%
%TO.N,Net-(U1-IO16)*%
X16460000Y-15750000D03*
%TO.P,U1,26,VDD_SDIO*%
%TO.N,Net-(JP36-A)*%
X16960000Y-15750000D03*
%TO.P,U1,27,IO17*%
%TO.N,Net-(JP7-B)*%
X17460000Y-15750000D03*
%TO.P,U1,28,SD2/IO9*%
%TO.N,Net-(JP18-A)*%
X17960000Y-15750000D03*
%TO.P,U1,29,SD3/IO10*%
%TO.N,Net-(JP19-A)*%
X18460000Y-15750000D03*
%TO.P,U1,30,CMD*%
%TO.N,Net-(U1-CMD)*%
X18960000Y-15750000D03*
%TO.P,U1,31,CLK*%
%TO.N,Net-(U1-CLK)*%
X19460000Y-15750000D03*
%TO.P,U1,32,SD0*%
%TO.N,Net-(JP8-B)*%
X19960000Y-15750000D03*
%TO.P,U1,33,SD1*%
%TO.N,Net-(U1-SD1)*%
X20460000Y-15750000D03*
%TO.P,U1,34,IO5*%
%TO.N,Net-(JP17-A)*%
X20960000Y-15750000D03*
%TO.P,U1,35,IO18*%
%TO.N,Net-(JP24-A)*%
X21460000Y-15750000D03*
%TO.P,U1,36,IO23*%
%TO.N,Net-(JP28-A)*%
X21960000Y-15750000D03*
D46*
%TO.P,U1,37,VDD3P3_CPU*%
%TO.N,+3.3V*%
X22660000Y-15050000D03*
%TO.P,U1,38,IO19*%
%TO.N,Net-(JP25-A)*%
X22660000Y-14550000D03*
%TO.P,U1,39,IO22*%
%TO.N,Net-(JP27-A)*%
X22660000Y-14050000D03*
%TO.P,U1,40,U0RXD/IO3*%
%TO.N,Net-(JP15-A)*%
X22660000Y-13550000D03*
%TO.P,U1,41,U0TXD/IO1*%
%TO.N,Net-(JP13-A)*%
X22660000Y-13050000D03*
%TO.P,U1,42,IO21*%
%TO.N,Net-(JP26-A)*%
X22660000Y-12550000D03*
%TO.P,U1,43,VDDA*%
%TO.N,+3.3V*%
X22660000Y-12050000D03*
%TO.P,U1,44,XTAL_N_NC*%
%TO.N,Net-(U1-XTAL_N_NC)*%
X22660000Y-11550000D03*
%TO.P,U1,45,XTAL_P_NC*%
%TO.N,Net-(U1-XTAL_P_NC)*%
X22660000Y-11050000D03*
%TO.P,U1,46,VDDA*%
%TO.N,+3.3V*%
X22660000Y-10550000D03*
%TO.P,U1,47,CAP2_NC*%
%TO.N,Net-(U1-CAP2_NC)*%
X22660000Y-10050000D03*
%TO.P,U1,48,CAP1_NC*%
%TO.N,Net-(U1-CAP1_NC)*%
X22660000Y-9550000D03*
D47*
%TO.P,U1,49,GND*%
%TO.N,GND*%
X19210000Y-12300000D03*
%TD*%
D48*
%TO.P,J12,1,Pin_1*%
%TO.N,Net-(J12-Pin_1)*%
X37850000Y-18480000D03*
D49*
%TO.P,J12,2,Pin_2*%
%TO.N,Net-(J12-Pin_2)*%
X37850000Y-15980000D03*
%TO.P,J12,3,Pin_3*%
%TO.N,Net-(J12-Pin_3)*%
X37850000Y-13480000D03*
%TO.P,J12,4,Pin_4*%
%TO.N,Net-(J12-Pin_4)*%
X37850000Y-10980000D03*
%TO.P,J12,5,Pin_5*%
%TO.N,Net-(J12-Pin_5)*%
X37850000Y-8480000D03*
%TO.P,J12,6,Pin_6*%
%TO.N,Net-(J12-Pin_6)*%
X37850000Y-5980000D03*
%TO.P,J12,7,Pin_7*%
%TO.N,Net-(J12-Pin_7)*%
X37850000Y-3480000D03*
%TD*%
D14*
%TO.P,JP30,1,A*%
%TO.N,Net-(JP30-A)*%
X14930000Y-10550000D03*
%TO.P,JP30,2,B*%
%TO.N,/VBAT_DET*%
X14330000Y-10550000D03*
%TD*%
D11*
%TO.P,JP27,1,A*%
%TO.N,Net-(JP27-A)*%
X23490000Y-14050000D03*
%TO.P,JP27,2,B*%
%TO.N,/PWM2*%
X24090000Y-14050000D03*
%TD*%
D26*
%TO.P,J5,1,Pin_1*%
%TO.N,Net-(J5-Pin_1)*%
X7225000Y-12270000D03*
D27*
%TO.P,J5,2,Pin_2*%
%TO.N,+5V*%
X4685000Y-12270000D03*
%TO.P,J5,3,Pin_3*%
%TO.N,GND*%
X2145000Y-12270000D03*
%TD*%
D50*
%TO.P,U2,1,VR_PA*%
%TO.N,Net-(U2-VR_PA)*%
X26402500Y-14929999D03*
%TO.P,U2,2,VDD_IN*%
%TO.N,/V_DCC*%
X26402500Y-15429999D03*
%TO.P,U2,3,NRESET*%
%TO.N,/RADIO_RST*%
X26402500Y-15929999D03*
%TO.P,U2,4,XTA*%
%TO.N,/RADIO_XIN*%
X26402500Y-16429999D03*
%TO.P,U2,5,GND*%
%TO.N,Net-(TP9-Pad1)*%
X26402500Y-16929999D03*
%TO.P,U2,6,XTB*%
%TO.N,Net-(U2-XTB)*%
X26402500Y-17429999D03*
D51*
%TO.P,U2,7,BUSY*%
%TO.N,/RADIO_BUSY*%
X27090000Y-18117499D03*
%TO.P,U2,8,DIO1*%
%TO.N,/RADIO_DIO1*%
X27590000Y-18117499D03*
%TO.P,U2,9,DIO2*%
%TO.N,Net-(U2-DIO2)*%
X28090000Y-18117499D03*
%TO.P,U2,10,DIO3*%
%TO.N,Net-(U2-DIO3)*%
X28590000Y-18117499D03*
%TO.P,U2,11,VBAT_IO*%
%TO.N,+3.3V*%
X29090000Y-18117499D03*
%TO.P,U2,12,DCC_FB*%
%TO.N,/V_DCC*%
X29590000Y-18117499D03*
D50*
%TO.P,U2,13,GND*%
%TO.N,GND*%
X30277500Y-17429999D03*
%TO.P,U2,14,DCC_SW*%
%TO.N,Net-(U2-DCC_SW)*%
X30277500Y-16929999D03*
%TO.P,U2,15,VBAT*%
%TO.N,+3.3V*%
X30277500Y-16429999D03*
%TO.P,U2,16,MISO_TX*%
%TO.N,/RADIO_MISO*%
X30277500Y-15929999D03*
%TO.P,U2,17,MOSI_RX*%
%TO.N,/RADIO_MOSI*%
X30277500Y-15429999D03*
%TO.P,U2,18,SCK_RTSN*%
%TO.N,/RADIO_SCK*%
X30277500Y-14929999D03*
D51*
%TO.P,U2,19,NSS_CTS*%
%TO.N,/RADIO_NSS*%
X29590000Y-14242499D03*
%TO.P,U2,20,GND*%
%TO.N,GND*%
X29090000Y-14242499D03*
%TO.P,U2,21,GND*%
X28590000Y-14242499D03*
%TO.P,U2,22,RFIO*%
%TO.N,Net-(U2-RFIO)*%
X28090000Y-14242499D03*
%TO.P,U2,23,GND*%
%TO.N,GND*%
X27590000Y-14242499D03*
%TO.P,U2,24,GND*%
X27090000Y-14242499D03*
D52*
%TO.P,U2,25,EP_GND*%
X28340000Y-16179999D03*
%TD*%
D53*
%TO.N,GND*%
X36310000Y-7480000D03*
X17630000Y-14070000D03*
X14650000Y-6850000D03*
X26940000Y-8060000D03*
X27400000Y-16180000D03*
X28330000Y-17120000D03*
X19700000Y-9990000D03*
X19210000Y-12300000D03*
X29260000Y-17100000D03*
X36310000Y-17090000D03*
X29280000Y-16190000D03*
X24090000Y-2340000D03*
X29260000Y-15260000D03*
X18780000Y-10050000D03*
X20340000Y-2560000D03*
X17640000Y-12050000D03*
X29220000Y-8079999D03*
X14630000Y-4750000D03*
X21320000Y-10550000D03*
X36310000Y-4980000D03*
D54*
X28900000Y-11954620D03*
D53*
X14650000Y-4150000D03*
X27420000Y-17100000D03*
X22497184Y-2610694D03*
X30260001Y-17820000D03*
X28340000Y-16179999D03*
X28340000Y-15240000D03*
X30660000Y-20220000D03*
X36310000Y-14980000D03*
D54*
X22060000Y-7680000D03*
D53*
X14710000Y-16710000D03*
D55*
X30900000Y-3980000D03*
D53*
X16920000Y-10070000D03*
X29560000Y-10850000D03*
X17900000Y-10070000D03*
X36310000Y-2490000D03*
X18491753Y-5069381D03*
D54*
X11340000Y-18477400D03*
D53*
X13260656Y-2587861D03*
D54*
X28834999Y-13475000D03*
X14640000Y-5810000D03*
X22070000Y-6960000D03*
D53*
X36310000Y-9980000D03*
X24370929Y-8086289D03*
D54*
X27380000Y-13390000D03*
X21450000Y-14550000D03*
D53*
X19980000Y-5290000D03*
X14650000Y-3520000D03*
X17630000Y-13110000D03*
X26580000Y-10850000D03*
D54*
X27310004Y-11932750D03*
D53*
X24702501Y-18400000D03*
X27420000Y-15260000D03*
X11010000Y-10857400D03*
X12000000Y-2880000D03*
X36310000Y-12480000D03*
X19200000Y-13230000D03*
X22930000Y-5290000D03*
%TO.N,Net-(U2-VR_PA)*%
X26410000Y-14520000D03*
%TO.N,/V_DCC*%
X29910000Y-18740000D03*
X25420000Y-15350000D03*
D54*
%TO.N,+3.3V*%
X23280000Y-10550000D03*
X20960000Y-8240000D03*
D53*
X13067213Y-17184794D03*
D54*
X15180000Y-12560000D03*
D53*
X12700000Y-15100000D03*
X30290000Y-12110000D03*
D54*
X23280000Y-12050000D03*
D53*
X31840000Y-9980000D03*
D54*
X22300000Y-8840000D03*
X16669381Y-17364210D03*
D53*
X15910000Y-3440000D03*
D54*
X20450000Y-8240000D03*
D53*
X23600000Y-19839990D03*
X29180000Y-19070000D03*
X16226359Y-4301556D03*
X31511281Y-16406512D03*
X23520004Y-15180000D03*
D54*
%TO.N,/LED_RGB*%
X12200000Y-15680000D03*
X24090000Y-12160000D03*
D53*
%TO.N,/LEDPWR*%
X12200000Y-18019998D03*
%TO.N,VIN*%
X11180000Y-17390000D03*
X11045000Y-5285000D03*
D54*
%TO.N,/RESET*%
X16910000Y-4660000D03*
X12590000Y-12110000D03*
%TO.N,/SERIAL_RX*%
X25832750Y-6708971D03*
%TO.N,/LVS6*%
X14370000Y-9130000D03*
%TO.N,/LVS2*%
X19511321Y-7050000D03*
%TO.N,/SERIAL_TX*%
X25150000Y-6190000D03*
%TO.N,/LVS1*%
X20062303Y-7139202D03*
%TO.N,/LVS3*%
X18940000Y-7010000D03*
%TO.N,/LVS5*%
X16450000Y-7320000D03*
%TO.N,/BOOT*%
X11279799Y-15732510D03*
X13888981Y-14662144D03*
%TO.N,/LVS4*%
X18410000Y-7050000D03*
%TO.N,/LVS7*%
X17350000Y-1420000D03*
X17460000Y-7230000D03*
%TO.N,/VS_5V*%
X13710000Y-7580000D03*
X16950000Y-7090000D03*
%TO.N,/RADIO_NSS*%
X13940000Y-11550000D03*
X30611845Y-13359205D03*
%TO.N,/RADIO_MOSI*%
X31463331Y-15352552D03*
X13960000Y-14050000D03*
%TO.N,/RADIO_MISO*%
X31820000Y-15840000D03*
X13860703Y-13454216D03*
%TO.N,/RADIO_SCK*%
X31080000Y-14560000D03*
X14320000Y-12390000D03*
%TO.N,/RADIO_RST*%
X20871608Y-17497868D03*
%TO.N,Net-(D3-A)*%
X18040000Y-1850000D03*
%TO.N,/PWM1*%
X23960000Y-10120000D03*
X12782587Y-1372763D03*
X26160000Y-11910000D03*
D53*
%TO.N,+5V*%
X10920000Y-8110000D03*
D55*
X29300000Y-3180000D03*
D54*
%TO.N,/PWM2*%
X13400000Y-1370000D03*
%TO.N,/PWM3*%
X13170000Y-7230000D03*
%TO.N,/PWM4*%
X11110000Y-10150000D03*
%TO.N,/PWM5*%
X19264500Y-17677250D03*
X10470000Y-12970000D03*
%TO.N,/PWM6*%
X18070000Y-17609996D03*
%TO.N,/PWM7*%
X19540000Y-17170000D03*
X22073882Y-17592078D03*
%TO.N,/PWM8*%
X21470000Y-17580000D03*
X17196000Y-17660000D03*
%TO.N,/VBAT_DET*%
X33660000Y-1910000D03*
X33650000Y-4420000D03*
X33660000Y-11840000D03*
X33650000Y-6910000D03*
X33670000Y-9380000D03*
X32664430Y-16190000D03*
X13700000Y-10330000D03*
X33650000Y-16930000D03*
X33640000Y-14430000D03*
%TO.N,Net-(U3-MODE)*%
X13020000Y-5710000D03*
%TO.N,Net-(U3-FB)*%
X16250000Y-5670000D03*
%TO.N,Net-(U3-SS{slash}TR)*%
X13130000Y-6320000D03*
%TO.N,Net-(J10-Pin_4)*%
X26850000Y-4650000D03*
%TO.N,Net-(J10-Pin_3)*%
X28100000Y-4650000D03*
%TD*%
D56*
%TO.N,GND*%
X22060000Y-8000000D02*
X22060000Y-7680000D01*
X30110000Y-20220000D02*
X30660000Y-20220000D01*
X28090000Y-7954758D02*
X27045242Y-7954758D01*
X10479199Y-12079999D02*
X10479199Y-11280001D01*
X29560000Y-10850000D02*
X29560000Y-11360000D01*
X22935000Y-3944999D02*
X22935000Y-5285000D01*
X26569720Y-8430280D02*
X26940000Y-8060000D01*
X27380000Y-13390000D02*
X27590000Y-13600000D01*
X19985000Y-5285000D02*
X19980000Y-5290000D01*
X32450000Y-2580000D02*
X32450000Y-3340000D01*
X28790000Y-12840000D02*
X28750000Y-12800000D01*
X10479199Y-11280001D02*
X10587399Y-11280001D01*
X24702500Y-19100000D02*
X24702501Y-18400000D01*
D57*
X30600000Y-4280000D02*
X30900000Y-3980000D01*
D56*
X27090000Y-14930000D02*
X27420000Y-15260000D01*
X12000000Y-2180001D02*
X11960000Y-2140001D01*
X11252701Y-2132701D02*
X10020000Y-2132701D01*
X22935000Y-3944999D02*
X22935000Y-3048510D01*
X28834999Y-13475000D02*
X28790000Y-13430000D01*
D58*
X14650000Y-6850000D02*
X14650000Y-5820000D01*
D56*
X14650500Y-6849500D02*
X14650000Y-6850000D01*
X29560000Y-11360000D02*
X28965380Y-11954620D01*
X31810000Y-3980000D02*
X30900000Y-3980000D01*
X28834999Y-13475000D02*
X29090000Y-13730000D01*
D58*
X14650000Y-5820000D02*
X14640000Y-5810000D01*
D56*
X14650500Y-5180000D02*
X14650500Y-3520500D01*
X14600000Y-16710000D02*
X14170000Y-16280000D01*
X27390000Y-12900001D02*
X27390000Y-12012746D01*
X28750000Y-12800000D02*
X28439999Y-12799999D01*
X28834999Y-13475000D02*
X28590000Y-13720000D01*
X27590000Y-14242500D02*
X27590000Y-15090000D01*
X14650500Y-5180000D02*
X14650500Y-6849500D01*
X29590000Y-17430000D02*
X29260000Y-17100000D01*
X32450000Y-3340000D02*
X31810000Y-3980000D01*
X24330000Y-2580000D02*
X24090000Y-2340000D01*
X13458517Y-2390000D02*
X13260656Y-2587861D01*
X10800000Y-18621602D02*
X11195798Y-18621602D01*
X26569720Y-9475038D02*
X26569720Y-8430280D01*
X27390000Y-13380000D02*
X27390000Y-12900001D01*
X12812796Y-2140001D02*
X13260656Y-2587861D01*
X22286210Y-2399720D02*
X22497184Y-2610694D01*
D58*
X14650000Y-2689999D02*
X14350001Y-2390000D01*
D56*
X11960000Y-2140001D02*
X12812796Y-2140001D01*
X27390000Y-12012746D02*
X27310004Y-11932750D01*
X10587399Y-11280001D02*
X11010000Y-10857400D01*
X12000000Y-2880000D02*
X12000000Y-2180001D01*
X29260000Y-17100000D02*
X28340000Y-16179999D01*
X18230619Y-5069381D02*
X18491753Y-5069381D01*
X26580000Y-11202746D02*
X27310004Y-11932750D01*
X30277500Y-17430000D02*
X30277500Y-17802501D01*
X27045242Y-7954758D02*
X26940000Y-8060000D01*
X22935000Y-3048510D02*
X22497184Y-2610694D01*
D58*
X14650000Y-3520000D02*
X14650000Y-2689999D01*
D59*
X2145000Y-2110000D02*
X2145000Y-19889999D01*
X2145000Y-19889999D02*
X2145001Y-19890000D01*
D56*
X22935000Y-5285000D02*
X22930000Y-5290000D01*
X22060000Y-6950000D02*
X22070000Y-6960000D01*
X14170000Y-16280000D02*
X14000000Y-16280000D01*
X29610280Y-9475038D02*
X29610281Y-8470280D01*
X19939720Y-2960280D02*
X20340000Y-2560000D01*
X28790000Y-12840000D02*
X28790000Y-12064620D01*
X27090000Y-13680000D02*
X27090001Y-14242500D01*
X22060000Y-6640000D02*
X22060000Y-6950000D01*
X26569720Y-10839720D02*
X26580000Y-10850000D01*
X29565000Y-9500038D02*
X29565000Y-10845000D01*
X29090000Y-13730000D02*
X29090000Y-14242501D01*
D60*
X24580000Y-8780000D02*
X24580000Y-8295360D01*
D56*
X20500280Y-2399720D02*
X20340000Y-2560000D01*
X18040000Y-4617628D02*
X18491753Y-5069381D01*
X26569720Y-9475038D02*
X26569720Y-10839720D01*
X14710000Y-16710000D02*
X14600000Y-16710000D01*
X21460000Y-2399720D02*
X20500280Y-2399720D01*
X27590000Y-13600000D02*
X27590000Y-14242501D01*
X11195798Y-18621602D02*
X11340000Y-18477400D01*
X14650500Y-3520500D02*
X14650000Y-3520000D01*
X29094758Y-7954757D02*
X29220000Y-8079999D01*
X27380000Y-13390000D02*
X27390000Y-13380000D01*
X18040000Y-4067500D02*
X18040000Y-4617628D01*
X21460000Y-2399720D02*
X22286210Y-2399720D01*
X27090000Y-14242499D02*
X27090000Y-14930000D01*
X29565000Y-10845000D02*
X29560000Y-10850000D01*
X28790000Y-12064620D02*
X28900000Y-11954620D01*
D58*
X14650000Y-3520000D02*
X14650000Y-4150000D01*
D56*
X27390000Y-12900001D02*
X27490000Y-12800000D01*
X29090000Y-15090000D02*
X29260000Y-15260000D01*
X14350001Y-2390000D02*
X13458517Y-2390000D01*
X27490000Y-12800000D02*
X27740001Y-12800000D01*
X24702500Y-19100000D02*
X24702500Y-17700000D01*
X27590000Y-15090000D02*
X27420000Y-15260000D01*
X28590000Y-14242499D02*
X28590000Y-14990000D01*
X28590000Y-14990000D02*
X28340000Y-15240000D01*
X28090000Y-7954758D02*
X29094758Y-7954757D01*
X28590000Y-13720000D02*
X28590000Y-14242500D01*
D60*
X24580000Y-8295360D02*
X24370929Y-8086289D01*
D56*
X19939720Y-3920000D02*
X19939720Y-2960280D01*
X28965380Y-11954620D02*
X28900000Y-11954620D01*
X30277500Y-17430000D02*
X29590000Y-17430000D01*
X29090000Y-14242500D02*
X29090000Y-15090000D01*
X10000002Y-18621602D02*
X10800000Y-18621602D01*
X18000000Y-5300000D02*
X18230619Y-5069381D01*
X26580000Y-10850000D02*
X26580000Y-11202746D01*
X12000000Y-2880000D02*
X11252701Y-2132701D01*
X28790000Y-13430000D02*
X28790000Y-12840000D01*
X27380000Y-13390000D02*
X27090000Y-13680000D01*
D57*
X30600000Y-5780000D02*
X30600000Y-4280000D01*
D56*
X30277500Y-17802501D02*
X30260001Y-17820000D01*
X25000000Y-2580000D02*
X24330000Y-2580000D01*
X29610281Y-8470280D02*
X29220000Y-8079999D01*
X19985000Y-3944999D02*
X19985000Y-5285000D01*
%TO.N,Net-(U2-VR_PA)*%
X26402501Y-14527499D02*
X26410000Y-14520000D01*
X26402501Y-14930000D02*
X26402501Y-14527499D01*
%TO.N,/V_DCC*%
X30110000Y-19260000D02*
X31647500Y-19260000D01*
X30110000Y-18940000D02*
X29910000Y-18740000D01*
X30110000Y-19260000D02*
X30110000Y-18940000D01*
X31647500Y-19260000D02*
X31800000Y-19412501D01*
X26402501Y-15430000D02*
X25500000Y-15430000D01*
X29910000Y-18740000D02*
X29590000Y-18420000D01*
X25500000Y-15430000D02*
X25420000Y-15350000D01*
X29590000Y-18420000D02*
X29590000Y-18117500D01*
%TO.N,+3.3V*%
X16226359Y-4553515D02*
X16226359Y-4301556D01*
X20616303Y-6866304D02*
X19969999Y-6220000D01*
X30277499Y-16430000D02*
X31487793Y-16430000D01*
X16960000Y-17180000D02*
X16775790Y-17364210D01*
X16775790Y-17364210D02*
X16669381Y-17364210D01*
X23602500Y-19100000D02*
X23602500Y-19837490D01*
X15760000Y-12550000D02*
X15190000Y-12550000D01*
X23602500Y-19837490D02*
X23600000Y-19839990D01*
X21960000Y-8850000D02*
X22290000Y-8850000D01*
X16226359Y-4301556D02*
X16226359Y-3916359D01*
X22660000Y-12050000D02*
X23280000Y-12050000D01*
X16380000Y-3820000D02*
X16380000Y-4147915D01*
X23390004Y-15050000D02*
X23520004Y-15180000D01*
X20959999Y-8240001D02*
X20960000Y-8240000D01*
D61*
X15730000Y-4042499D02*
X15730000Y-3620000D01*
D56*
X22660000Y-10550001D02*
X23279999Y-10550001D01*
X16380000Y-4147915D02*
X16226359Y-4301556D01*
X30270000Y-12130000D02*
X30290000Y-12110000D01*
D61*
X15730000Y-3620000D02*
X15910000Y-3440000D01*
D60*
X23672640Y-10550000D02*
X24002640Y-10880000D01*
D56*
X15730000Y-4679874D02*
X16100000Y-4679874D01*
X15190000Y-12550000D02*
X15180000Y-12560000D01*
X23279999Y-10550001D02*
X23280000Y-10550000D01*
D62*
X15730000Y-4042499D02*
X16380000Y-4042499D01*
D56*
X15910000Y-3600000D02*
X15910000Y-3440000D01*
D60*
X23280000Y-10550000D02*
X23672640Y-10550000D01*
D56*
X29650000Y-12130000D02*
X30270000Y-12130000D01*
D62*
X16380000Y-3820000D02*
X16380000Y-2520001D01*
D56*
X22660000Y-15050000D02*
X23390004Y-15050000D01*
X29090000Y-18979999D02*
X29180000Y-19070000D01*
D62*
X16380000Y-2520001D02*
X16249999Y-2390000D01*
D56*
X16226359Y-3916359D02*
X15910000Y-3600000D01*
X20616303Y-8073697D02*
X20616303Y-6866304D01*
X29090000Y-18117499D02*
X29090000Y-18979999D01*
X16100000Y-4679874D02*
X16226359Y-4553515D01*
X20450000Y-8240000D02*
X20616303Y-8073697D01*
X22290000Y-8850000D02*
X22300000Y-8840000D01*
X20959999Y-8850000D02*
X20959999Y-8240001D01*
X20460000Y-8250000D02*
X20450000Y-8240000D01*
D62*
X15910000Y-3440000D02*
X15910000Y-2729999D01*
X15910000Y-2729999D02*
X16249999Y-2390000D01*
X16380000Y-4042499D02*
X16380000Y-3820000D01*
D56*
X20460000Y-8850000D02*
X20460000Y-8250000D01*
X31487793Y-16430000D02*
X31511281Y-16406512D01*
D60*
X24002640Y-10880000D02*
X24580000Y-10880000D01*
%TO.N,Net-(J9-In)*%
X21460000Y-6640000D02*
X21460000Y-5470000D01*
X21460000Y-7020000D02*
X21460000Y-6640000D01*
%TO.N,Net-(C9-Pad1)*%
X23602500Y-16990001D02*
X24062501Y-16530000D01*
X23602500Y-17700000D02*
X23602500Y-16990001D01*
D56*
%TO.N,/RGB*%
X14000000Y-18050000D02*
X13415000Y-18635000D01*
X13415000Y-18635000D02*
X13415000Y-19880000D01*
X14000000Y-17380000D02*
X14000000Y-18050000D01*
D60*
%TO.N,/LED_RGB*%
X24090000Y-12160000D02*
X24090000Y-12550000D01*
X12200000Y-16280000D02*
X12200000Y-15680000D01*
%TO.N,/RADIO_XIN*%
X26402501Y-16430000D02*
X25122502Y-16430000D01*
X25122502Y-16430000D02*
X25022501Y-16530000D01*
D56*
%TO.N,/LEDPWR*%
X12200000Y-17380000D02*
X12200000Y-18019998D01*
%TO.N,Net-(U2-DCC_SW)*%
X31321900Y-17287500D02*
X31800000Y-17287501D01*
X30964400Y-16929999D02*
X31321900Y-17287500D01*
X30277499Y-16930000D02*
X30964400Y-16929999D01*
%TO.N,VIN*%
X10770000Y-5240000D02*
X10770000Y-5674999D01*
X11960000Y-4039999D02*
X10027300Y-4039999D01*
X10020000Y-4032699D02*
X10020000Y-4490000D01*
X11960000Y-4039999D02*
X11045000Y-4954999D01*
D62*
X13571000Y-4042499D02*
X11962500Y-4042499D01*
D56*
X10020000Y-4490000D02*
X10770000Y-5240000D01*
D60*
X12599875Y-5109875D02*
X12599875Y-4679874D01*
X13571000Y-5180000D02*
X12670000Y-5180000D01*
D62*
X11962500Y-4042499D02*
X11960000Y-4039999D01*
D56*
X10770000Y-5674999D02*
X11300000Y-6204999D01*
D57*
X12599875Y-4679874D02*
X11960000Y-4039999D01*
D56*
X11045000Y-4954999D02*
X11045000Y-5285000D01*
D60*
X12670000Y-5180000D02*
X12599875Y-5109875D01*
D63*
X13571000Y-4679874D02*
X12599875Y-4679874D01*
D56*
%TO.N,/RESET*%
X13120801Y-12079999D02*
X12620001Y-12079999D01*
D60*
X16830000Y-5170001D02*
X16910001Y-5170001D01*
X16910001Y-5170001D02*
X18000000Y-6260000D01*
X17960001Y-7420000D02*
X17960001Y-6299999D01*
X17960001Y-6299999D02*
X18000000Y-6260000D01*
X18000000Y-6260000D02*
X18910001Y-6260000D01*
X18910001Y-6260000D02*
X18950001Y-6220000D01*
D56*
X16910000Y-4660000D02*
X16910000Y-5090001D01*
X16910000Y-5090001D02*
X16830000Y-5170001D01*
X12620001Y-12079999D02*
X12590000Y-12110000D01*
X13120801Y-12079999D02*
X13120801Y-11280001D01*
%TO.N,Net-(U1-IO16)*%
X16460000Y-15750000D02*
X16460000Y-16540000D01*
D60*
%TO.N,/SERIAL_RX*%
X25337294Y-7742066D02*
X25832750Y-7246610D01*
X25832750Y-7246610D02*
X25832750Y-6708971D01*
X24460000Y-13550000D02*
X25337294Y-12672706D01*
X25337294Y-12672706D02*
X25337294Y-7742066D01*
X24090001Y-13550000D02*
X24460000Y-13550000D01*
%TO.N,/LVS6*%
X14370000Y-9130000D02*
X14370000Y-9509999D01*
X14370000Y-9509999D02*
X14330000Y-9549999D01*
%TO.N,/LVS2*%
X19460000Y-7101321D02*
X19511321Y-7050000D01*
X19460000Y-7420000D02*
X19460000Y-7101321D01*
%TO.N,/SERIAL_TX*%
X24330000Y-13050000D02*
X25054120Y-12325880D01*
X25054120Y-6285880D02*
X25150000Y-6190000D01*
X25054120Y-12325880D02*
X25054120Y-6285880D01*
X24090000Y-13050000D02*
X24330000Y-13050000D01*
%TO.N,/LVS1*%
X19960000Y-7241505D02*
X20062303Y-7139202D01*
X19960000Y-7420000D02*
X19960000Y-7241505D01*
%TO.N,/LVS3*%
X18960000Y-7030000D02*
X18940000Y-7010000D01*
X18960000Y-7420000D02*
X18960000Y-7030000D01*
D56*
%TO.N,Net-(JP3-B)*%
X18960000Y-8850000D02*
X18960000Y-8020000D01*
%TO.N,Net-(U2-XTB)*%
X26402500Y-17430000D02*
X25592500Y-17430000D01*
D60*
%TO.N,/LVS5*%
X16459999Y-7420000D02*
X16459999Y-7329999D01*
X16459999Y-7329999D02*
X16450000Y-7320000D01*
%TO.N,/BOOT*%
X14001125Y-14550000D02*
X13888981Y-14662144D01*
X14330000Y-14550000D02*
X14001125Y-14550000D01*
X10000002Y-15980000D02*
X10800000Y-15980000D01*
X10800000Y-15980000D02*
X11032309Y-15980000D01*
X11032309Y-15980000D02*
X11279799Y-15732510D01*
D56*
%TO.N,Net-(U1-SD1)*%
X20460000Y-15750000D02*
X20460000Y-16540000D01*
%TO.N,Net-(U1-CLK)*%
X19460000Y-15750000D02*
X19460000Y-16540000D01*
D60*
%TO.N,/LVS4*%
X18460000Y-7420000D02*
X18460000Y-7100000D01*
X18460000Y-7100000D02*
X18410000Y-7050000D01*
%TO.N,/LVS7*%
X17350000Y-1420000D02*
X17382250Y-1452250D01*
X17382250Y-7152250D02*
X17460000Y-7230000D01*
X17460000Y-7420000D02*
X17460000Y-7230000D01*
%TO.N,/VS_5V*%
X15130000Y-7580000D02*
X13710000Y-7580000D01*
X16960000Y-7100000D02*
X16950000Y-7090000D01*
X16747750Y-6887750D02*
X15822250Y-6887750D01*
X16960000Y-7420000D02*
X16960000Y-7100000D01*
X16950000Y-7090000D02*
X16747750Y-6887750D01*
X15822250Y-6887750D02*
X15130000Y-7580000D01*
%TO.N,/RADIO_NSS*%
X29590000Y-13209999D02*
X29650000Y-13149999D01*
X14330000Y-11550000D02*
X13940000Y-11550000D01*
X30402638Y-13149998D02*
X30611845Y-13359205D01*
X29650000Y-13149998D02*
X30402638Y-13149998D01*
X29589999Y-14242500D02*
X29590000Y-13209999D01*
D56*
%TO.N,/RADIO_MOSI*%
X30277499Y-15430000D02*
X31082499Y-15430000D01*
D60*
X13960000Y-14050000D02*
X14330000Y-14050000D01*
X31385883Y-15430000D02*
X31463331Y-15352552D01*
X31082499Y-15430000D02*
X31385883Y-15430000D01*
D56*
%TO.N,/RADIO_MISO*%
X30277500Y-15930000D02*
X31082500Y-15930000D01*
D60*
X31735738Y-15924262D02*
X31820000Y-15840000D01*
X31082500Y-15930000D02*
X31088238Y-15924262D01*
X31088238Y-15924262D02*
X31735738Y-15924262D01*
X13956488Y-13550001D02*
X13860703Y-13454216D01*
X14330000Y-13550001D02*
X13956488Y-13550001D01*
D56*
%TO.N,Net-(U2-RFIO)*%
X28090000Y-14242500D02*
X28090000Y-13400000D01*
D60*
%TO.N,/RADIO_DIO1*%
X13851399Y-15169394D02*
X15914191Y-17232186D01*
X22779690Y-20750000D02*
X25762500Y-20750000D01*
X14330000Y-13050000D02*
X14226966Y-12946966D01*
X14226966Y-12946966D02*
X13650593Y-12946966D01*
X13353453Y-13244106D02*
X13353453Y-14843976D01*
D56*
X27590000Y-18917500D02*
X27592500Y-18920000D01*
X27590000Y-18117499D02*
X27590000Y-18917500D01*
D60*
X20429690Y-18400000D02*
X22779690Y-20750000D01*
X15914191Y-17232186D02*
X15914191Y-17677020D01*
X15914191Y-17677020D02*
X16637171Y-18400000D01*
X13678871Y-15169394D02*
X13851399Y-15169394D01*
X16637171Y-18400000D02*
X20429690Y-18400000D01*
X13650593Y-12946966D02*
X13353453Y-13244106D01*
X25762500Y-20750000D02*
X27592500Y-18920000D01*
X13353453Y-14843976D02*
X13678871Y-15169394D01*
%TO.N,/RADIO_SCK*%
X14320000Y-12059999D02*
X14330000Y-12049999D01*
X14320000Y-12390000D02*
X14320000Y-12059999D01*
X31082500Y-14930000D02*
X31082500Y-14562500D01*
D56*
X30277499Y-14930000D02*
X31082500Y-14930000D01*
D60*
X31082500Y-14562500D02*
X31080000Y-14560000D01*
%TO.N,Net-(J13-In)*%
X28090000Y-12200000D02*
X28090000Y-11025038D01*
%TO.N,/RADIO_BUSY*%
X27092500Y-18920000D02*
X25682500Y-20330000D01*
X16162131Y-16882131D02*
X14330000Y-15050000D01*
X25682500Y-20330000D02*
X22710330Y-20330000D01*
D56*
X27090001Y-18917500D02*
X27092500Y-18920000D01*
X27090000Y-18117500D02*
X27090001Y-18917500D01*
D60*
X20532390Y-18152060D02*
X16739870Y-18152060D01*
X16162131Y-17574320D02*
X16162131Y-16882131D01*
X22710330Y-20330000D02*
X20532390Y-18152060D01*
X16739870Y-18152060D02*
X16162131Y-17574320D01*
D56*
%TO.N,Net-(JP1-B)*%
X19960000Y-8850000D02*
X19960000Y-8020000D01*
D60*
%TO.N,/RADIO_RST*%
X25592500Y-15930000D02*
X23160000Y-15930000D01*
X21259890Y-18087250D02*
X20871608Y-17698968D01*
X22190004Y-18087250D02*
X21259890Y-18087250D01*
X23160000Y-15930000D02*
X22506132Y-16583868D01*
X20871608Y-17698968D02*
X20871608Y-17497868D01*
D56*
X26402500Y-15930000D02*
X25592500Y-15930000D01*
D60*
X20960000Y-17180000D02*
X20960000Y-17409476D01*
X22506132Y-17771122D02*
X22190004Y-18087250D01*
X22506132Y-16583868D02*
X22506132Y-17771122D01*
X20960000Y-17409476D02*
X20871608Y-17497868D01*
D56*
%TO.N,Net-(JP2-B)*%
X19460000Y-8850000D02*
X19460000Y-8020000D01*
D60*
%TO.N,Net-(D3-A)*%
X18040000Y-2492498D02*
X18040000Y-1850000D01*
%TO.N,/PWM1*%
X23888679Y-10048679D02*
X23888679Y-6020000D01*
X21925459Y-1210000D02*
X18110000Y-1210000D01*
X26440000Y-13100000D02*
X26440000Y-12190000D01*
X18110000Y-1210000D02*
X17887750Y-987750D01*
X14392250Y-987750D02*
X14392250Y-989044D01*
X13579044Y-1802250D02*
X13212074Y-1802250D01*
X13212074Y-1802250D02*
X12782587Y-1372763D01*
X23964766Y-5943913D02*
X23964766Y-3249307D01*
X26440000Y-12190000D02*
X26160000Y-11910000D01*
X24090000Y-14550000D02*
X24990000Y-14550000D01*
X23964766Y-3249307D02*
X21925459Y-1210000D01*
X14392250Y-989044D02*
X13579044Y-1802250D01*
X23960000Y-10120000D02*
X23888679Y-10048679D01*
X24990000Y-14550000D02*
X26440000Y-13100000D01*
X17887750Y-987750D02*
X14392250Y-987750D01*
X23888679Y-6020000D02*
X23964766Y-5943913D01*
D64*
%TO.N,+5V*%
X4695000Y-10990000D02*
X4685000Y-10980000D01*
X8680000Y-10990000D02*
X4695000Y-10990000D01*
X10514999Y-9155001D02*
X8680000Y-10990000D01*
D56*
X10920000Y-8775001D02*
X11300000Y-9155001D01*
D64*
X10535001Y-9155001D02*
X9830000Y-8450000D01*
D57*
X29350000Y-5780000D02*
X29350000Y-3230000D01*
D59*
X4685000Y-8480000D02*
X4685000Y-10980000D01*
D64*
X11300000Y-9155001D02*
X10514999Y-9155001D01*
X4715000Y-8450000D02*
X4685000Y-8480000D01*
D56*
X10920000Y-8110000D02*
X10920000Y-8775001D01*
D59*
X4685000Y-2110000D02*
X4685000Y-8480000D01*
D56*
X29350000Y-3230000D02*
X29300000Y-3180000D01*
D64*
X11300000Y-9155001D02*
X10535001Y-9155001D01*
X9830000Y-8450000D02*
X4715000Y-8450000D01*
D59*
X4685000Y-10980000D02*
X4685000Y-19889999D01*
D60*
%TO.N,/PWM2*%
X25470000Y-5370000D02*
X26270000Y-6170000D01*
X26270000Y-6170000D02*
X26270000Y-7160000D01*
X24220000Y-4720000D02*
X24870000Y-5370000D01*
X21805909Y-739810D02*
X24220000Y-3153901D01*
X24220000Y-3153901D02*
X24220000Y-4720000D01*
X24870000Y-5370000D02*
X25470000Y-5370000D01*
X24820000Y-14050000D02*
X24090000Y-14050000D01*
X25585234Y-13284766D02*
X24820000Y-14050000D01*
X13400000Y-1370000D02*
X14030190Y-739810D01*
X14030190Y-739810D02*
X21805909Y-739810D01*
X26270000Y-7160000D02*
X25585234Y-7844766D01*
X25585234Y-7844766D02*
X25585234Y-13284766D01*
%TO.N,/PWM3*%
X14330000Y-10050000D02*
X13170000Y-8890000D01*
X13170000Y-8890000D02*
X13170000Y-7230000D01*
%TO.N,/PWM4*%
X14330000Y-11050001D02*
X14049999Y-10770000D01*
X11730000Y-10770000D02*
X11110000Y-10150000D01*
X14049999Y-10770000D02*
X11730000Y-10770000D01*
%TO.N,/PWM5*%
X18767250Y-17180000D02*
X19264500Y-17677250D01*
X18460000Y-17180000D02*
X18767250Y-17180000D01*
%TO.N,/PWM6*%
X17960000Y-17180001D02*
X17960000Y-17499996D01*
X17960000Y-17499996D02*
X18070000Y-17609996D01*
%TO.N,/PWM7*%
X21960000Y-17478196D02*
X22073882Y-17592078D01*
X21960000Y-17180000D02*
X21960000Y-17478196D01*
X19950000Y-17170000D02*
X19960000Y-17180000D01*
X19540000Y-17170000D02*
X19950000Y-17170000D01*
%TO.N,/PWM8*%
X17460000Y-17396000D02*
X17196000Y-17660000D01*
X17460000Y-17180000D02*
X17460000Y-17396000D01*
X21460000Y-17570000D02*
X21470000Y-17580000D01*
X21460000Y-17180000D02*
X21460000Y-17570000D01*
D56*
%TO.N,Net-(JP4-B)*%
X18460000Y-8850000D02*
X18460000Y-8020000D01*
%TO.N,Net-(JP5-B)*%
X17960000Y-8850000D02*
X17960000Y-8020001D01*
%TO.N,Net-(U1-CMD)*%
X18960000Y-15750000D02*
X18960000Y-16540000D01*
%TO.N,Net-(U2-DIO2)*%
X28089999Y-18917500D02*
X28092500Y-18920000D01*
X28090000Y-18117500D02*
X28089999Y-18917500D01*
%TO.N,Net-(JP7-B)*%
X17460000Y-15750000D02*
X17460000Y-16580000D01*
%TO.N,Net-(JP8-B)*%
X19960001Y-15750000D02*
X19960000Y-16580000D01*
%TO.N,Net-(U2-DIO3)*%
X28590000Y-18117500D02*
X28590000Y-18917500D01*
X28590000Y-18917500D02*
X28592500Y-18919999D01*
%TO.N,Net-(JP12-A)*%
X15760000Y-14550000D02*
X14930000Y-14550000D01*
%TO.N,Net-(TP9-Pad1)*%
X26402500Y-16930000D02*
X25592501Y-16930000D01*
%TO.N,Net-(JP13-A)*%
X22660000Y-13050000D02*
X23510000Y-13050000D01*
%TO.N,Net-(JP14-A)*%
X15760001Y-14050000D02*
X14930000Y-14050000D01*
%TO.N,Net-(JP16-A)*%
X15760000Y-15050000D02*
X14930000Y-15050000D01*
%TO.N,Net-(JP17-A)*%
X20959999Y-15750000D02*
X20960000Y-16580000D01*
%TO.N,Net-(JP18-A)*%
X17960000Y-15750000D02*
X17960000Y-16580001D01*
%TO.N,Net-(JP19-A)*%
X18459999Y-15750000D02*
X18460000Y-16580000D01*
%TO.N,Net-(JP20-A)*%
X15760000Y-12050000D02*
X14909999Y-12050000D01*
%TO.N,Net-(JP21-A)*%
X15760000Y-13050000D02*
X14930000Y-13050000D01*
%TO.N,Net-(JP22-A)*%
X15760001Y-11550000D02*
X14910000Y-11550000D01*
%TO.N,Net-(JP23-A)*%
X15760000Y-13550000D02*
X14930000Y-13550001D01*
%TO.N,Net-(JP24-A)*%
X21460000Y-15750000D02*
X21460000Y-16580000D01*
%TO.N,Net-(JP25-A)*%
X22660000Y-14550000D02*
X23490000Y-14550000D01*
%TO.N,Net-(JP26-A)*%
X22660000Y-12550000D02*
X23490000Y-12550000D01*
%TO.N,Net-(JP27-A)*%
X22659999Y-14050000D02*
X23490000Y-14050000D01*
%TO.N,Net-(JP29-A)*%
X15760000Y-10050000D02*
X14930000Y-10050000D01*
%TO.N,Net-(JP31-A)*%
X15760000Y-11050000D02*
X14930000Y-11050001D01*
%TO.N,Net-(JP32-A)*%
X16460000Y-8850000D02*
X16460000Y-8020001D01*
X16460000Y-8020001D02*
X16459999Y-8020000D01*
%TO.N,Net-(JP33-A)*%
X15760000Y-9550000D02*
X14930000Y-9549999D01*
%TO.N,Net-(JP34-A)*%
X17460001Y-8020001D02*
X17460000Y-8020000D01*
X17460001Y-8850000D02*
X17460001Y-8020001D01*
%TO.N,Net-(JP35-A)*%
X16960000Y-8850000D02*
X16960000Y-8020000D01*
%TO.N,Net-(JP36-A)*%
X16960000Y-15750000D02*
X16960000Y-16580000D01*
D60*
%TO.N,/VBAT_DET*%
X33650000Y-16930000D02*
X33404430Y-16930000D01*
X33404430Y-16930000D02*
X32664430Y-16190000D01*
X14110000Y-10330000D02*
X13700000Y-10330000D01*
X14330000Y-10550000D02*
X14110000Y-10330000D01*
D56*
%TO.N,Net-(JP30-A)*%
X15760000Y-10550000D02*
X14930000Y-10550000D01*
%TO.N,Net-(JP15-A)*%
X22660000Y-13550000D02*
X23490000Y-13550001D01*
%TO.N,Net-(JP28-A)*%
X21960000Y-15750000D02*
X21960000Y-16580000D01*
D60*
%TO.N,Net-(U3-MODE)*%
X13571000Y-5680126D02*
X13049874Y-5680126D01*
X13049874Y-5680126D02*
X13020000Y-5710000D01*
%TO.N,Net-(U3-FB)*%
X15730000Y-5680126D02*
X16239874Y-5680126D01*
X16239874Y-5680126D02*
X16250000Y-5670000D01*
%TO.N,Net-(U3-SS{slash}TR)*%
X13571000Y-6317501D02*
X13132499Y-6317501D01*
X13132499Y-6317501D02*
X13130000Y-6320000D01*
%TO.N,Net-(U3-PG)*%
X16702498Y-6317501D02*
X16830000Y-6189999D01*
X15730000Y-6317501D02*
X16702498Y-6317501D01*
D56*
%TO.N,Net-(U1-XTAL_N_NC)*%
X22659999Y-11550000D02*
X23450000Y-11550000D01*
%TO.N,Net-(U1-XTAL_P_NC)*%
X22660000Y-11050000D02*
X23450000Y-11050000D01*
%TO.N,Net-(U1-CAP2_NC)*%
X22660000Y-10050000D02*
X23450000Y-10050000D01*
%TO.N,Net-(U1-CAP1_NC)*%
X22660000Y-9550000D02*
X23450000Y-9550000D01*
D60*
%TO.N,Net-(U1-LNA_IN)*%
X21460000Y-8850000D02*
X21460000Y-8000000D01*
X21460000Y-8000000D02*
X21460000Y-7620000D01*
%TO.N,Net-(J10-Pin_4)*%
X26850000Y-4650000D02*
X26850000Y-5780000D01*
%TO.N,Net-(J10-Pin_3)*%
X28100000Y-5780000D02*
X28100000Y-4650000D01*
%TD*%
%TA.AperFunction,Conductor*%
%TO.N,+3.3V*%
G36*
X16693039Y-1679685D02*
G01*
X16738794Y-1732489D01*
X16750000Y-1784000D01*
X16750000Y-2876011D01*
X16749745Y-2883966D01*
X16661849Y-4251226D01*
X16645643Y-4305006D01*
X16385744Y-4757735D01*
X16335296Y-4806075D01*
X16278205Y-4820000D01*
X15584000Y-4820000D01*
X15516961Y-4800315D01*
X15471206Y-4747511D01*
X15460000Y-4696000D01*
X15460000Y-3666491D01*
X15460678Y-3653542D01*
X15658340Y-1771051D01*
X15684918Y-1706434D01*
X15742211Y-1666443D01*
X15781662Y-1660000D01*
X16626000Y-1660000D01*
X16693039Y-1679685D01*
G37*
%TD.AperFunction*%
%TD*%
%TA.AperFunction,Conductor*%
%TO.N,VIN*%
G36*
X10583344Y-3032979D02*
G01*
X10825154Y-3086961D01*
X13743018Y-3738349D01*
X13804157Y-3772167D01*
X13837308Y-3833671D01*
X13840000Y-3859370D01*
X13840000Y-4696000D01*
X13820315Y-4763039D01*
X13767511Y-4808794D01*
X13716000Y-4820000D01*
X12890000Y-4820000D01*
X12683456Y-5538411D01*
X12674768Y-5560443D01*
X12658426Y-5592515D01*
X12658425Y-5592519D01*
X12639819Y-5709996D01*
X12639819Y-5710003D01*
X12658473Y-5827783D01*
X12660000Y-5847180D01*
X12660000Y-6706000D01*
X12640315Y-6773039D01*
X12587511Y-6818794D01*
X12536000Y-6830000D01*
X9594000Y-6830000D01*
X9526961Y-6810315D01*
X9481206Y-6757511D01*
X9470000Y-6706000D01*
X9470000Y-3154000D01*
X9489685Y-3086961D01*
X9542489Y-3041206D01*
X9594000Y-3030000D01*
X10556327Y-3030000D01*
X10583344Y-3032979D01*
G37*
%TD.AperFunction*%
%TD*%
%TA.AperFunction,Conductor*%
%TO.N,GND*%
G36*
X13642965Y-520185D02*
G01*
X13688720Y-572989D01*
X13698664Y-642147D01*
X13669639Y-705703D01*
X13663626Y-712161D01*
X13422070Y-953717D01*
X13411817Y-963970D01*
X13350494Y-997454D01*
X13343534Y-998761D01*
X13282521Y-1008424D01*
X13282520Y-1008424D01*
X13211862Y-1044426D01*
X13176535Y-1062427D01*
X13176534Y-1062428D01*
X13168636Y-1068166D01*
X13167644Y-1066800D01*
X13116270Y-1094853D01*
X13046578Y-1089869D01*
X13014955Y-1069545D01*
X13013951Y-1070929D01*
X13006053Y-1065191D01*
X13006052Y-1065190D01*
X12900069Y-1011189D01*
X12900067Y-1011188D01*
X12900064Y-1011187D01*
X12782590Y-992582D01*
X12782584Y-992582D01*
X12665109Y-1011187D01*
X12665108Y-1011187D01*
X12559120Y-1065191D01*
X12559116Y-1065194D01*
X12475018Y-1149292D01*
X12475015Y-1149296D01*
X12421011Y-1255284D01*
X12421011Y-1255285D01*
X12402406Y-1372759D01*
X12402406Y-1372766D01*
X12421011Y-1490240D01*
X12421011Y-1490241D01*
X12421012Y-1490244D01*
X12421013Y-1490245D01*
X12453265Y-1553544D01*
X12475015Y-1596229D01*
X12475018Y-1596233D01*
X12559116Y-1680331D01*
X12559120Y-1680334D01*
X12559122Y-1680336D01*
X12665105Y-1734337D01*
X12726121Y-1744000D01*
X12789254Y-1773927D01*
X12794404Y-1778792D01*
X13040917Y-2025305D01*
X13040918Y-2025306D01*
X13040920Y-2025307D01*
X13061068Y-2036939D01*
X13104480Y-2062003D01*
X13104479Y-2062003D01*
X13119450Y-2066014D01*
X13119454Y-2066015D01*
X13119462Y-2066017D01*
X13175376Y-2081000D01*
X13175377Y-2081000D01*
X13615739Y-2081000D01*
X13615742Y-2081000D01*
X13686637Y-2062003D01*
X13688408Y-2060980D01*
X13688434Y-2060973D01*
X13688431Y-2060967D01*
X13717518Y-2044174D01*
X13750201Y-2025305D01*
X14472687Y-1302819D01*
X14534010Y-1269334D01*
X14560368Y-1266500D01*
X15562586Y-1266500D01*
X15629625Y-1286185D01*
X15675380Y-1338989D01*
X15685324Y-1408147D01*
X15656299Y-1471703D01*
X15629684Y-1493099D01*
X15630284Y-1493959D01*
X15624591Y-1497932D01*
X15624590Y-1497933D01*
X15599773Y-1515254D01*
X15567292Y-1537927D01*
X15547604Y-1553545D01*
X15494867Y-1628263D01*
X15468290Y-1692876D01*
X15468289Y-1692880D01*
X15458918Y-1729981D01*
X15453963Y-1749596D01*
X15453962Y-1749599D01*
X15265838Y-3541245D01*
X15263181Y-3555596D01*
X15262800Y-3558492D01*
X15262800Y-3563704D01*
X15262122Y-3576653D01*
X15256301Y-3632090D01*
X15255459Y-3642794D01*
X15254782Y-3655721D01*
X15254500Y-3666507D01*
X15254500Y-3946572D01*
X15250274Y-3978667D01*
X15250100Y-3979313D01*
X15250100Y-4105680D01*
X15250275Y-4106332D01*
X15254500Y-4138424D01*
X15254500Y-4696007D01*
X15259196Y-4739682D01*
X15259966Y-4743218D01*
X15262800Y-4769578D01*
X15262800Y-4839322D01*
X15263530Y-4842993D01*
X15276012Y-4905747D01*
X15276012Y-4954127D01*
X15262801Y-5020547D01*
X15262800Y-5020552D01*
X15262800Y-5339448D01*
X15262801Y-5339452D01*
X15276012Y-5405873D01*
X15276012Y-5454253D01*
X15262800Y-5520678D01*
X15262800Y-5839578D01*
X15275768Y-5904772D01*
X15275768Y-5953154D01*
X15262800Y-6018348D01*
X15262800Y-6616653D01*
X15274431Y-6675130D01*
X15274432Y-6675131D01*
X15318748Y-6741454D01*
X15346331Y-6759885D01*
X15391136Y-6813498D01*
X15399842Y-6882823D01*
X15369686Y-6945850D01*
X15365120Y-6950667D01*
X15050857Y-7264931D01*
X14989534Y-7298416D01*
X14963176Y-7301250D01*
X14013427Y-7301250D01*
X13946388Y-7281565D01*
X13940545Y-7277571D01*
X13933466Y-7272428D01*
X13933465Y-7272427D01*
X13827482Y-7218426D01*
X13827480Y-7218425D01*
X13827477Y-7218424D01*
X13710003Y-7199819D01*
X13709996Y-7199819D01*
X13671885Y-7205855D01*
X13602592Y-7196900D01*
X13549140Y-7151903D01*
X13534557Y-7121700D01*
X13531574Y-7112520D01*
X13531574Y-7112518D01*
X13477573Y-7006535D01*
X13477571Y-7006533D01*
X13471834Y-6998636D01*
X13473683Y-6997292D01*
X13446636Y-6947759D01*
X13451620Y-6878067D01*
X13493492Y-6822134D01*
X13558956Y-6797717D01*
X13567802Y-6797401D01*
X13857450Y-6797401D01*
X13857451Y-6797400D01*
X13872268Y-6794453D01*
X13915929Y-6785769D01*
X13915929Y-6785768D01*
X13915931Y-6785768D01*
X13982252Y-6741453D01*
X14026567Y-6675132D01*
X14026567Y-6675130D01*
X14026568Y-6675130D01*
X14038199Y-6616653D01*
X14038200Y-6616651D01*
X14038200Y-6018351D01*
X14030693Y-5980611D01*
X14026567Y-5959870D01*
X14026566Y-5959869D01*
X14025231Y-5953156D01*
X14025231Y-5904770D01*
X14026566Y-5898058D01*
X14026567Y-5898057D01*
X14036703Y-5847101D01*
X14038200Y-5839575D01*
X14038200Y-5520675D01*
X14038199Y-5520673D01*
X14024988Y-5454254D01*
X14024988Y-5405872D01*
X14038199Y-5339452D01*
X14038200Y-5339450D01*
X14038200Y-5020549D01*
X14038199Y-5020547D01*
X14024988Y-4954128D01*
X14024988Y-4905746D01*
X14037470Y-4842993D01*
X14038200Y-4839322D01*
X14038200Y-4755639D01*
X14039462Y-4737991D01*
X14040961Y-4727568D01*
X14045500Y-4696000D01*
X14045500Y-4142156D01*
X14049725Y-4110063D01*
X14050900Y-4105679D01*
X14050900Y-3979319D01*
X14049724Y-3974932D01*
X14045500Y-3942840D01*
X14045500Y-3859359D01*
X14044382Y-3837961D01*
X14041690Y-3812262D01*
X14041687Y-3812254D01*
X14040718Y-3807514D01*
X14038200Y-3782651D01*
X14038200Y-3743348D01*
X14038199Y-3743346D01*
X14026568Y-3684869D01*
X14026567Y-3684868D01*
X13982252Y-3618546D01*
X13915930Y-3574231D01*
X13858696Y-3562846D01*
X13838924Y-3557174D01*
X13787793Y-3537786D01*
X13787794Y-3537786D01*
X10869928Y-2886398D01*
X10628131Y-2832418D01*
X10623787Y-2831696D01*
X10605867Y-2828717D01*
X10605859Y-2828716D01*
X10578841Y-2825737D01*
X10578846Y-2825737D01*
X10556348Y-2824500D01*
X10556327Y-2824500D01*
X9594000Y-2824500D01*
X9593992Y-2824500D01*
X9550317Y-2829196D01*
X9549688Y-2829333D01*
X9549538Y-2829366D01*
X9548739Y-2829452D01*
X9547030Y-2829729D01*
X9547015Y-2829637D01*
X9523180Y-2832200D01*
X9450247Y-2832200D01*
X9391770Y-2843831D01*
X9391769Y-2843832D01*
X9325447Y-2888147D01*
X9281132Y-2954469D01*
X9281131Y-2954470D01*
X9269500Y-3012947D01*
X9269500Y-3110355D01*
X9268238Y-3128002D01*
X9264500Y-3154000D01*
X9264500Y-6706007D01*
X9269197Y-6749686D01*
X9280397Y-6801174D01*
X9282890Y-6811372D01*
X9282891Y-6811375D01*
X9288624Y-6822134D01*
X9325900Y-6892085D01*
X9336474Y-6904288D01*
X9371660Y-6944895D01*
X9387694Y-6961259D01*
X9389246Y-6962843D01*
X9389247Y-6962844D01*
X9389249Y-6962845D01*
X9469059Y-7007488D01*
X9469063Y-7007490D01*
X9536102Y-7027175D01*
X9594000Y-7035500D01*
X9594004Y-7035500D01*
X12535991Y-7035500D01*
X12536000Y-7035500D01*
X12579684Y-7030803D01*
X12608875Y-7024452D01*
X12631174Y-7019602D01*
X12631190Y-7019598D01*
X12631195Y-7019597D01*
X12641373Y-7017110D01*
X12641374Y-7017109D01*
X12648904Y-7015269D01*
X12649665Y-7018386D01*
X12704579Y-7013985D01*
X12766187Y-7046944D01*
X12800196Y-7107978D01*
X12801734Y-7154770D01*
X12791653Y-7218424D01*
X12789819Y-7230002D01*
X12789819Y-7230003D01*
X12808424Y-7347477D01*
X12808424Y-7347478D01*
X12808425Y-7347481D01*
X12808426Y-7347482D01*
X12861842Y-7452317D01*
X12862429Y-7453468D01*
X12867568Y-7460541D01*
X12891048Y-7526347D01*
X12891250Y-7533426D01*
X12891250Y-8387021D01*
X12871565Y-8454060D01*
X12818761Y-8499815D01*
X12749603Y-8509759D01*
X12693617Y-8486791D01*
X12612886Y-8427209D01*
X12612880Y-8427206D01*
X12484700Y-8382353D01*
X12454270Y-8379500D01*
X12454266Y-8379500D01*
X11479489Y-8379500D01*
X11412450Y-8359815D01*
X11366695Y-8307011D01*
X11356751Y-8237853D01*
X11361834Y-8202495D01*
X11375133Y-8110000D01*
X11356697Y-7981774D01*
X11302882Y-7863937D01*
X11218049Y-7766033D01*
X11109069Y-7695996D01*
X11109065Y-7695994D01*
X11109064Y-7695994D01*
X10984774Y-7659500D01*
X10984772Y-7659500D01*
X10855228Y-7659500D01*
X10855226Y-7659500D01*
X10730935Y-7695994D01*
X10730932Y-7695995D01*
X10730931Y-7695996D01*
X10690261Y-7722133D01*
X10621950Y-7766033D01*
X10537118Y-7863937D01*
X10537117Y-7863938D01*
X10483302Y-7981774D01*
X10464867Y-8110000D01*
X10468564Y-8135715D01*
X10458620Y-8204873D01*
X10412865Y-8257677D01*
X10345825Y-8277361D01*
X10278786Y-8257676D01*
X10258145Y-8241042D01*
X10106616Y-8089513D01*
X10106614Y-8089511D01*
X10003887Y-8030201D01*
X9968857Y-8020815D01*
X9968854Y-8020814D01*
X9934429Y-8011590D01*
X9889309Y-7999500D01*
X9889308Y-7999500D01*
X8399500Y-7999500D01*
X8332461Y-7979815D01*
X8286706Y-7927011D01*
X8275500Y-7875500D01*
X8275500Y-6320249D01*
X8275499Y-6320247D01*
X8263868Y-6261770D01*
X8263867Y-6261769D01*
X8219552Y-6195447D01*
X8153230Y-6151132D01*
X8153229Y-6151131D01*
X8094752Y-6139500D01*
X8094748Y-6139500D01*
X6355252Y-6139500D01*
X6355247Y-6139500D01*
X6296770Y-6151131D01*
X6296769Y-6151132D01*
X6230447Y-6195447D01*
X6186132Y-6261769D01*
X6186131Y-6261770D01*
X6174500Y-6320247D01*
X6174500Y-7875500D01*
X6154815Y-7942539D01*
X6102011Y-7988294D01*
X6050500Y-7999500D01*
X5641809Y-7999500D01*
X5574770Y-7979815D01*
X5529015Y-7927011D01*
X5519071Y-7857853D01*
X5545954Y-7796836D01*
X5562685Y-7776450D01*
X5660232Y-7593954D01*
X5720300Y-7395934D01*
X5740583Y-7190000D01*
X5720300Y-6984066D01*
X5660232Y-6786046D01*
X5562685Y-6603550D01*
X5561763Y-6602427D01*
X5517446Y-6548426D01*
X5431410Y-6443590D01*
X5430827Y-6443112D01*
X5430604Y-6442784D01*
X5427103Y-6439283D01*
X5427767Y-6438618D01*
X5391498Y-6385365D01*
X5385500Y-6347265D01*
X5385500Y-5492734D01*
X5405185Y-5425695D01*
X5427275Y-5400881D01*
X5427107Y-5400713D01*
X5430003Y-5397816D01*
X5430838Y-5396879D01*
X5431410Y-5396410D01*
X5562685Y-5236450D01*
X5660232Y-5053954D01*
X5720300Y-4855934D01*
X5740583Y-4650000D01*
X5720300Y-4444066D01*
X5660232Y-4246046D01*
X5562685Y-4063550D01*
X5524048Y-4016471D01*
X5495699Y-3981927D01*
X5431410Y-3903590D01*
X5430827Y-3903112D01*
X5430604Y-3902784D01*
X5427103Y-3899283D01*
X5427767Y-3898618D01*
X5391498Y-3845365D01*
X5385500Y-3807265D01*
X5385500Y-3780247D01*
X6174500Y-3780247D01*
X6174500Y-5519752D01*
X6186131Y-5578229D01*
X6186132Y-5578230D01*
X6230447Y-5644552D01*
X6296769Y-5688867D01*
X6296770Y-5688868D01*
X6355247Y-5700499D01*
X6355250Y-5700500D01*
X6355252Y-5700500D01*
X8094750Y-5700500D01*
X8094751Y-5700499D01*
X8112751Y-5696919D01*
X8153229Y-5688868D01*
X8153229Y-5688867D01*
X8153231Y-5688867D01*
X8219552Y-5644552D01*
X8263867Y-5578231D01*
X8263867Y-5578229D01*
X8263868Y-5578229D01*
X8275315Y-5520678D01*
X8275500Y-5519748D01*
X8275500Y-3780252D01*
X8275500Y-3780249D01*
X8275499Y-3780247D01*
X8263868Y-3721770D01*
X8263867Y-3721769D01*
X8219552Y-3655447D01*
X8153230Y-3611132D01*
X8153229Y-3611131D01*
X8094752Y-3599500D01*
X8094748Y-3599500D01*
X6355252Y-3599500D01*
X6355247Y-3599500D01*
X6296770Y-3611131D01*
X6296769Y-3611132D01*
X6230447Y-3655447D01*
X6186132Y-3721769D01*
X6186131Y-3721770D01*
X6174500Y-3780247D01*
X5385500Y-3780247D01*
X5385500Y-2952734D01*
X5405185Y-2885695D01*
X5427275Y-2860881D01*
X5427107Y-2860713D01*
X5430003Y-2857816D01*
X5430838Y-2856879D01*
X5431410Y-2856410D01*
X5562685Y-2696450D01*
X5660232Y-2513954D01*
X5720300Y-2315934D01*
X5740583Y-2110000D01*
X5720300Y-1904066D01*
X5660232Y-1706046D01*
X5562685Y-1523550D01*
X5508223Y-1457187D01*
X5431410Y-1363589D01*
X5281121Y-1240252D01*
X5281115Y-1240247D01*
X6174500Y-1240247D01*
X6174500Y-2979752D01*
X6186131Y-3038229D01*
X6186132Y-3038230D01*
X6230447Y-3104552D01*
X6296769Y-3148867D01*
X6296770Y-3148868D01*
X6355247Y-3160499D01*
X6355250Y-3160500D01*
X6355252Y-3160500D01*
X8094750Y-3160500D01*
X8094751Y-3160499D01*
X8109568Y-3157552D01*
X8153229Y-3148868D01*
X8153229Y-3148867D01*
X8153231Y-3148867D01*
X8219552Y-3104552D01*
X8263867Y-3038231D01*
X8263867Y-3038229D01*
X8263868Y-3038229D01*
X8275499Y-2979752D01*
X8275500Y-2979750D01*
X8275500Y-1240249D01*
X8275499Y-1240247D01*
X8263868Y-1181770D01*
X8263867Y-1181769D01*
X8219552Y-1115447D01*
X8153230Y-1071132D01*
X8153229Y-1071131D01*
X8094752Y-1059500D01*
X8094748Y-1059500D01*
X6355252Y-1059500D01*
X6355247Y-1059500D01*
X6296770Y-1071131D01*
X6296769Y-1071132D01*
X6230447Y-1115447D01*
X6186132Y-1181769D01*
X6186131Y-1181770D01*
X6174500Y-1240247D01*
X5281115Y-1240247D01*
X5271450Y-1232315D01*
X5088954Y-1134768D01*
X4890934Y-1074700D01*
X4890932Y-1074699D01*
X4890934Y-1074699D01*
X4685000Y-1054417D01*
X4479067Y-1074699D01*
X4281043Y-1134769D01*
X4252285Y-1150141D01*
X4098550Y-1232315D01*
X4098548Y-1232316D01*
X4098547Y-1232317D01*
X3938589Y-1363589D01*
X3828338Y-1497933D01*
X3807315Y-1523550D01*
X3794008Y-1548445D01*
X3709769Y-1706043D01*
X3649699Y-1904067D01*
X3629417Y-2110000D01*
X3649699Y-2315932D01*
X3663067Y-2360000D01*
X3709768Y-2513954D01*
X3807315Y-2696450D01*
X3938590Y-2856410D01*
X3939159Y-2856877D01*
X3939379Y-2857199D01*
X3942893Y-2860713D01*
X3942226Y-2861379D01*
X3978496Y-2914618D01*
X3984500Y-2952734D01*
X3984500Y-3807265D01*
X3964815Y-3874304D01*
X3942729Y-3899115D01*
X3942897Y-3899283D01*
X3940021Y-3902158D01*
X3939173Y-3903110D01*
X3938590Y-3903590D01*
X3938588Y-3903592D01*
X3807317Y-4063546D01*
X3709769Y-4246043D01*
X3649699Y-4444067D01*
X3629417Y-4650000D01*
X3649699Y-4855932D01*
X3662401Y-4897805D01*
X3709768Y-5053954D01*
X3807315Y-5236450D01*
X3938590Y-5396410D01*
X3939159Y-5396877D01*
X3939379Y-5397199D01*
X3942893Y-5400713D01*
X3942226Y-5401379D01*
X3978496Y-5454618D01*
X3984500Y-5492734D01*
X3984500Y-6347265D01*
X3964815Y-6414304D01*
X3942729Y-6439115D01*
X3942897Y-6439283D01*
X3940021Y-6442158D01*
X3939173Y-6443110D01*
X3938590Y-6443590D01*
X3938588Y-6443592D01*
X3807317Y-6603546D01*
X3709769Y-6786043D01*
X3709768Y-6786045D01*
X3709768Y-6786046D01*
X3706688Y-6796199D01*
X3649699Y-6984067D01*
X3629417Y-7190000D01*
X3649699Y-7395932D01*
X3669298Y-7460541D01*
X3709768Y-7593954D01*
X3807315Y-7776450D01*
X3938590Y-7936410D01*
X3939159Y-7936877D01*
X3939379Y-7937199D01*
X3942893Y-7940713D01*
X3942226Y-7941379D01*
X3978496Y-7994618D01*
X3984500Y-8032734D01*
X3984500Y-8887265D01*
X3964815Y-8954304D01*
X3942729Y-8979115D01*
X3942897Y-8979283D01*
X3940021Y-8982158D01*
X3939173Y-8983110D01*
X3938590Y-8983590D01*
X3938588Y-8983592D01*
X3807317Y-9143546D01*
X3709769Y-9326043D01*
X3649699Y-9524067D01*
X3629417Y-9730000D01*
X3649699Y-9935932D01*
X3659994Y-9969870D01*
X3709768Y-10133954D01*
X3807315Y-10316450D01*
X3938590Y-10476410D01*
X3939159Y-10476877D01*
X3939379Y-10477199D01*
X3942893Y-10480713D01*
X3942226Y-10481379D01*
X3978496Y-10534618D01*
X3984500Y-10572734D01*
X3984500Y-11427265D01*
X3964815Y-11494304D01*
X3942729Y-11519115D01*
X3942897Y-11519283D01*
X3940021Y-11522158D01*
X3939173Y-11523110D01*
X3938590Y-11523590D01*
X3938588Y-11523592D01*
X3807317Y-11683546D01*
X3709769Y-11866043D01*
X3649699Y-12064067D01*
X3629417Y-12270000D01*
X3649699Y-12475932D01*
X3676164Y-12563174D01*
X3709768Y-12673954D01*
X3807315Y-12856450D01*
X3938590Y-13016410D01*
X3939159Y-13016877D01*
X3939379Y-13017199D01*
X3942893Y-13020713D01*
X3942226Y-13021379D01*
X3978496Y-13074618D01*
X3984500Y-13112734D01*
X3984500Y-13967265D01*
X3964815Y-14034304D01*
X3942729Y-14059115D01*
X3942897Y-14059283D01*
X3940021Y-14062158D01*
X3939173Y-14063110D01*
X3938590Y-14063590D01*
X3938588Y-14063592D01*
X3807317Y-14223546D01*
X3709769Y-14406043D01*
X3649699Y-14604067D01*
X3629417Y-14810000D01*
X3649699Y-15015932D01*
X3658511Y-15044980D01*
X3709768Y-15213954D01*
X3807315Y-15396450D01*
X3938590Y-15556410D01*
X3939159Y-15556877D01*
X3939379Y-15557199D01*
X3942893Y-15560713D01*
X3942226Y-15561379D01*
X3978496Y-15614618D01*
X3984500Y-15652734D01*
X3984500Y-16507265D01*
X3964815Y-16574304D01*
X3942729Y-16599115D01*
X3942897Y-16599283D01*
X3940021Y-16602158D01*
X3939173Y-16603110D01*
X3938590Y-16603590D01*
X3938588Y-16603592D01*
X3807317Y-16763546D01*
X3709769Y-16946043D01*
X3709768Y-16946045D01*
X3709768Y-16946046D01*
X3706265Y-16957594D01*
X3649699Y-17144067D01*
X3629417Y-17350000D01*
X3649699Y-17555932D01*
X3679734Y-17654944D01*
X3709768Y-17753954D01*
X3807315Y-17936450D01*
X3938590Y-18096410D01*
X3939159Y-18096877D01*
X3939379Y-18097199D01*
X3942893Y-18100713D01*
X3942226Y-18101379D01*
X3978496Y-18154618D01*
X3984500Y-18192734D01*
X3984500Y-19047265D01*
X3964815Y-19114304D01*
X3942729Y-19139115D01*
X3942897Y-19139283D01*
X3940021Y-19142158D01*
X3939173Y-19143110D01*
X3938590Y-19143590D01*
X3938588Y-19143592D01*
X3807317Y-19303546D01*
X3709769Y-19486043D01*
X3649699Y-19684067D01*
X3629417Y-19890000D01*
X3649699Y-20095932D01*
X3663067Y-20140000D01*
X3709768Y-20293954D01*
X3807315Y-20476450D01*
X3807317Y-20476452D01*
X3938589Y-20636410D01*
X4035209Y-20715702D01*
X4098550Y-20767685D01*
X4281046Y-20865232D01*
X4479066Y-20925300D01*
X4479065Y-20925300D01*
X4497529Y-20927118D01*
X4685000Y-20945583D01*
X4890934Y-20925300D01*
X5088954Y-20865232D01*
X5271450Y-20767685D01*
X5431410Y-20636410D01*
X5562685Y-20476450D01*
X5660232Y-20293954D01*
X5720300Y-20095934D01*
X5740583Y-19890000D01*
X5720300Y-19684066D01*
X5660232Y-19486046D01*
X5562685Y-19303550D01*
X5553928Y-19292880D01*
X5507150Y-19235880D01*
X5431410Y-19143590D01*
X5430827Y-19143112D01*
X5430604Y-19142784D01*
X5427103Y-19139283D01*
X5427767Y-19138618D01*
X5391498Y-19085365D01*
X5385500Y-19047265D01*
X5385500Y-19020247D01*
X6174500Y-19020247D01*
X6174500Y-20759752D01*
X6186131Y-20818229D01*
X6186132Y-20818230D01*
X6230447Y-20884552D01*
X6296769Y-20928867D01*
X6296770Y-20928868D01*
X6355247Y-20940499D01*
X6355250Y-20940500D01*
X6355252Y-20940500D01*
X8094750Y-20940500D01*
X8094751Y-20940499D01*
X8109568Y-20937552D01*
X8153229Y-20928868D01*
X8153229Y-20928867D01*
X8153231Y-20928867D01*
X8219552Y-20884552D01*
X8263867Y-20818231D01*
X8263867Y-20818229D01*
X8263868Y-20818229D01*
X8275499Y-20759752D01*
X8275500Y-20759750D01*
X8275500Y-19020249D01*
X8275499Y-19020247D01*
X8263868Y-18961770D01*
X8263867Y-18961769D01*
X8219552Y-18895447D01*
X8188695Y-18874829D01*
X9496002Y-18874829D01*
X9510505Y-18947741D01*
X9510507Y-18947745D01*
X9565762Y-19030440D01*
X9648457Y-19085695D01*
X9648461Y-19085697D01*
X9721373Y-19100200D01*
X9721376Y-19100201D01*
X9771402Y-19100201D01*
X10228602Y-19100201D01*
X10278628Y-19100201D01*
X10278630Y-19100200D01*
X10351544Y-19085697D01*
X10352542Y-19085284D01*
X10354894Y-19085030D01*
X10363526Y-19083314D01*
X10363679Y-19084085D01*
X10422011Y-19077811D01*
X10447460Y-19085284D01*
X10448457Y-19085697D01*
X10521371Y-19100200D01*
X10521374Y-19100201D01*
X10571400Y-19100201D01*
X11028600Y-19100201D01*
X11078626Y-19100201D01*
X11078628Y-19100200D01*
X11151540Y-19085697D01*
X11151544Y-19085695D01*
X11234239Y-19030440D01*
X11289494Y-18947745D01*
X11289496Y-18947741D01*
X11303999Y-18874829D01*
X11304000Y-18874827D01*
X11304000Y-18850201D01*
X11028600Y-18850201D01*
X11028600Y-19100201D01*
X10571400Y-19100201D01*
X10571400Y-18850201D01*
X10228602Y-18850201D01*
X10228602Y-19100201D01*
X9771402Y-19100201D01*
X9771402Y-18850201D01*
X9496002Y-18850201D01*
X9496002Y-18874829D01*
X8188695Y-18874829D01*
X8153230Y-18851132D01*
X8153229Y-18851131D01*
X8094752Y-18839500D01*
X8094748Y-18839500D01*
X6355252Y-18839500D01*
X6355247Y-18839500D01*
X6296770Y-18851131D01*
X6296769Y-18851132D01*
X6230447Y-18895447D01*
X6186132Y-18961769D01*
X6186131Y-18961770D01*
X6174500Y-19020247D01*
X5385500Y-19020247D01*
X5385500Y-18192734D01*
X5405185Y-18125695D01*
X5427275Y-18100881D01*
X5427107Y-18100713D01*
X5430003Y-18097816D01*
X5430838Y-18096879D01*
X5431410Y-18096410D01*
X5562685Y-17936450D01*
X5660232Y-17753954D01*
X5720300Y-17555934D01*
X5740583Y-17350000D01*
X5720300Y-17144066D01*
X5660232Y-16946046D01*
X5562685Y-16763550D01*
X5561086Y-16761602D01*
X5509981Y-16699330D01*
X5431410Y-16603590D01*
X5430827Y-16603112D01*
X5430604Y-16602784D01*
X5427103Y-16599283D01*
X5427767Y-16598618D01*
X5391498Y-16545365D01*
X5385500Y-16507265D01*
X5385500Y-16480247D01*
X6174500Y-16480247D01*
X6174500Y-18219752D01*
X6186131Y-18278229D01*
X6186132Y-18278230D01*
X6230447Y-18344552D01*
X6296769Y-18388867D01*
X6296770Y-18388868D01*
X6355247Y-18400499D01*
X6355250Y-18400500D01*
X6355252Y-18400500D01*
X8094750Y-18400500D01*
X8094751Y-18400499D01*
X8109568Y-18397552D01*
X8153229Y-18388868D01*
X8153229Y-18388867D01*
X8153231Y-18388867D01*
X8183903Y-18368372D01*
X9496002Y-18368372D01*
X9496002Y-18393001D01*
X9771402Y-18393001D01*
X10228602Y-18393001D01*
X10571400Y-18393001D01*
X11028600Y-18393001D01*
X11304000Y-18393001D01*
X11304000Y-18368374D01*
X11303999Y-18368372D01*
X11289496Y-18295460D01*
X11289494Y-18295456D01*
X11234239Y-18212761D01*
X11151544Y-18157506D01*
X11151540Y-18157504D01*
X11078627Y-18143001D01*
X11028600Y-18143001D01*
X11028600Y-18393001D01*
X10571400Y-18393001D01*
X10571400Y-18143001D01*
X10521374Y-18143001D01*
X10448453Y-18157505D01*
X10447449Y-18157922D01*
X10445083Y-18158176D01*
X10436478Y-18159888D01*
X10436324Y-18159117D01*
X10377979Y-18165388D01*
X10352553Y-18157922D01*
X10351548Y-18157505D01*
X10278628Y-18143001D01*
X10228602Y-18143001D01*
X10228602Y-18393001D01*
X9771402Y-18393001D01*
X9771402Y-18143001D01*
X9721375Y-18143001D01*
X9648461Y-18157504D01*
X9648457Y-18157506D01*
X9565762Y-18212761D01*
X9510507Y-18295456D01*
X9510505Y-18295460D01*
X9496002Y-18368372D01*
X8183903Y-18368372D01*
X8219552Y-18344552D01*
X8263867Y-18278231D01*
X8263867Y-18278229D01*
X8263868Y-18278229D01*
X8275499Y-18219752D01*
X8275500Y-18219750D01*
X8275500Y-16480249D01*
X8275499Y-16480247D01*
X8263868Y-16421770D01*
X8263867Y-16421769D01*
X8219552Y-16355447D01*
X8153230Y-16311132D01*
X8153229Y-16311131D01*
X8094752Y-16299500D01*
X8094748Y-16299500D01*
X6355252Y-16299500D01*
X6355247Y-16299500D01*
X6296770Y-16311131D01*
X6296769Y-16311132D01*
X6230447Y-16355447D01*
X6186132Y-16421769D01*
X6186131Y-16421770D01*
X6174500Y-16480247D01*
X5385500Y-16480247D01*
X5385500Y-15652734D01*
X5405185Y-15585695D01*
X5427275Y-15560881D01*
X5427107Y-15560713D01*
X5430003Y-15557816D01*
X5430838Y-15556879D01*
X5431410Y-15556410D01*
X5562685Y-15396450D01*
X5660232Y-15213954D01*
X5720300Y-15015934D01*
X5740583Y-14810000D01*
X5720300Y-14604066D01*
X5660232Y-14406046D01*
X5562685Y-14223550D01*
X5542066Y-14198426D01*
X5479696Y-14122427D01*
X5431410Y-14063590D01*
X5430827Y-14063112D01*
X5430604Y-14062784D01*
X5427103Y-14059283D01*
X5427767Y-14058618D01*
X5391498Y-14005365D01*
X5385500Y-13967265D01*
X5385500Y-13940247D01*
X6174500Y-13940247D01*
X6174500Y-15679752D01*
X6186131Y-15738229D01*
X6186132Y-15738230D01*
X6230447Y-15804552D01*
X6296769Y-15848867D01*
X6296770Y-15848868D01*
X6355247Y-15860499D01*
X6355250Y-15860500D01*
X6355252Y-15860500D01*
X8094750Y-15860500D01*
X8094751Y-15860499D01*
X8109568Y-15857552D01*
X8153229Y-15848868D01*
X8153229Y-15848867D01*
X8153231Y-15848867D01*
X8219552Y-15804552D01*
X8263867Y-15738231D01*
X8263867Y-15738229D01*
X8263868Y-15738229D01*
X8275499Y-15679752D01*
X8275500Y-15679750D01*
X8275500Y-13940249D01*
X8275499Y-13940247D01*
X8263868Y-13881770D01*
X8263867Y-13881769D01*
X8219552Y-13815447D01*
X8153230Y-13771132D01*
X8153229Y-13771131D01*
X8094752Y-13759500D01*
X8094748Y-13759500D01*
X6355252Y-13759500D01*
X6355247Y-13759500D01*
X6296770Y-13771131D01*
X6296769Y-13771132D01*
X6230447Y-13815447D01*
X6186132Y-13881769D01*
X6186131Y-13881770D01*
X6174500Y-13940247D01*
X5385500Y-13940247D01*
X5385500Y-13112734D01*
X5405185Y-13045695D01*
X5427275Y-13020881D01*
X5427107Y-13020713D01*
X5430003Y-13017816D01*
X5430838Y-13016879D01*
X5431410Y-13016410D01*
X5562685Y-12856450D01*
X5660232Y-12673954D01*
X5720300Y-12475934D01*
X5740583Y-12270000D01*
X5720300Y-12064066D01*
X5660232Y-11866046D01*
X5562685Y-11683550D01*
X5549498Y-11667482D01*
X5529542Y-11643165D01*
X5502229Y-11578855D01*
X5514020Y-11509988D01*
X5561172Y-11458427D01*
X5625395Y-11440500D01*
X6050500Y-11440500D01*
X6117539Y-11460185D01*
X6163294Y-11512989D01*
X6174500Y-11564500D01*
X6174500Y-13139752D01*
X6186131Y-13198229D01*
X6186132Y-13198230D01*
X6230447Y-13264552D01*
X6296769Y-13308867D01*
X6296770Y-13308868D01*
X6355247Y-13320499D01*
X6355250Y-13320500D01*
X6355252Y-13320500D01*
X8094750Y-13320500D01*
X8094751Y-13320499D01*
X8109568Y-13317552D01*
X8153229Y-13308868D01*
X8153229Y-13308867D01*
X8153231Y-13308867D01*
X8219552Y-13264552D01*
X8263867Y-13198231D01*
X8263867Y-13198229D01*
X8263868Y-13198229D01*
X8275499Y-13139752D01*
X8275500Y-13139750D01*
X8275500Y-12358627D01*
X10000600Y-12358627D01*
X10015103Y-12431539D01*
X10015105Y-12431543D01*
X10070359Y-12514238D01*
X10139170Y-12560215D01*
X10183976Y-12613827D01*
X10192683Y-12683152D01*
X10166661Y-12737542D01*
X10168166Y-12738636D01*
X10162428Y-12746533D01*
X10108424Y-12852521D01*
X10108424Y-12852522D01*
X10089819Y-12969996D01*
X10089819Y-12970003D01*
X10108424Y-13087477D01*
X10108424Y-13087478D01*
X10108425Y-13087481D01*
X10108426Y-13087482D01*
X10150116Y-13169304D01*
X10162428Y-13193466D01*
X10162431Y-13193470D01*
X10246529Y-13277568D01*
X10246533Y-13277571D01*
X10246535Y-13277573D01*
X10352518Y-13331574D01*
X10352520Y-13331574D01*
X10352522Y-13331575D01*
X10469997Y-13350181D01*
X10470000Y-13350181D01*
X10470003Y-13350181D01*
X10587477Y-13331575D01*
X10587478Y-13331575D01*
X10587479Y-13331574D01*
X10587482Y-13331574D01*
X10693465Y-13277573D01*
X10777573Y-13193465D01*
X10831574Y-13087482D01*
X10831575Y-13087477D01*
X10850181Y-12970003D01*
X10850181Y-12969996D01*
X10831575Y-12852522D01*
X10831575Y-12852521D01*
X10831574Y-12852519D01*
X10831574Y-12852518D01*
X10777573Y-12746535D01*
X10777571Y-12746533D01*
X10777570Y-12746531D01*
X10775858Y-12744174D01*
X10774664Y-12740827D01*
X10773142Y-12737840D01*
X10773528Y-12737643D01*
X10752383Y-12678366D01*
X10768213Y-12610313D01*
X10807291Y-12568192D01*
X10888040Y-12514237D01*
X10943294Y-12431543D01*
X10943296Y-12431539D01*
X10957799Y-12358627D01*
X10957800Y-12358625D01*
X10957800Y-12308599D01*
X10000600Y-12308599D01*
X10000600Y-12358627D01*
X8275500Y-12358627D01*
X8275500Y-11564500D01*
X8277225Y-11558627D01*
X10000599Y-11558627D01*
X10015104Y-11631547D01*
X10015521Y-11632552D01*
X10015775Y-11634917D01*
X10017487Y-11643523D01*
X10016716Y-11643676D01*
X10022987Y-11702022D01*
X10015521Y-11727448D01*
X10015104Y-11728452D01*
X10000600Y-11801372D01*
X10000600Y-11851399D01*
X10250600Y-11851399D01*
X10707800Y-11851399D01*
X10957800Y-11851399D01*
X10957800Y-11801372D01*
X10957799Y-11801370D01*
X10943296Y-11728456D01*
X10942883Y-11727459D01*
X10942629Y-11725106D01*
X10940913Y-11716475D01*
X10941684Y-11716321D01*
X10935410Y-11657990D01*
X10942883Y-11632541D01*
X10943296Y-11631543D01*
X10957799Y-11558629D01*
X10957800Y-11558627D01*
X10957800Y-11508601D01*
X10707800Y-11508601D01*
X10707800Y-11851399D01*
X10250600Y-11851399D01*
X10250600Y-11508601D01*
X10000600Y-11508601D01*
X10000600Y-11558627D01*
X10000599Y-11558627D01*
X8277225Y-11558627D01*
X8295185Y-11497461D01*
X8347989Y-11451706D01*
X8399500Y-11440500D01*
X8739308Y-11440500D01*
X8739309Y-11440500D01*
X8829673Y-11416286D01*
X8853887Y-11409799D01*
X8956614Y-11350489D01*
X9305731Y-11001372D01*
X10000600Y-11001372D01*
X10000600Y-11051401D01*
X10250600Y-11051401D01*
X10707800Y-11051401D01*
X10957800Y-11051401D01*
X10957800Y-11001374D01*
X10957799Y-11001372D01*
X10943296Y-10928460D01*
X10943294Y-10928456D01*
X10888039Y-10845761D01*
X10805344Y-10790506D01*
X10805340Y-10790504D01*
X10732427Y-10776001D01*
X10707800Y-10776001D01*
X10707800Y-11051401D01*
X10250600Y-11051401D01*
X10250600Y-10776001D01*
X10225973Y-10776001D01*
X10153059Y-10790504D01*
X10153055Y-10790506D01*
X10070360Y-10845761D01*
X10015105Y-10928456D01*
X10015103Y-10928460D01*
X10000600Y-11001372D01*
X9305731Y-11001372D01*
X10340284Y-9966819D01*
X10401607Y-9933334D01*
X10427965Y-9930500D01*
X10619399Y-9930500D01*
X10686438Y-9950185D01*
X10732193Y-10002989D01*
X10742137Y-10072147D01*
X10741872Y-10073898D01*
X10729819Y-10149997D01*
X10729819Y-10150003D01*
X10748424Y-10267477D01*
X10748424Y-10267478D01*
X10748425Y-10267481D01*
X10748426Y-10267482D01*
X10799792Y-10368294D01*
X10802428Y-10373466D01*
X10802431Y-10373470D01*
X10886529Y-10457568D01*
X10886533Y-10457571D01*
X10886535Y-10457573D01*
X10992518Y-10511574D01*
X11053534Y-10521237D01*
X11116667Y-10551164D01*
X11121817Y-10556029D01*
X11558843Y-10993055D01*
X11558844Y-10993056D01*
X11558846Y-10993057D01*
X11573252Y-11001374D01*
X11622406Y-11029753D01*
X11622405Y-11029753D01*
X11637376Y-11033764D01*
X11637380Y-11033765D01*
X11637388Y-11033767D01*
X11693302Y-11048750D01*
X12567700Y-11048750D01*
X12634739Y-11068435D01*
X12680494Y-11121239D01*
X12691700Y-11172750D01*
X12691700Y-11553750D01*
X12697386Y-11582338D01*
X12691157Y-11651929D01*
X12648293Y-11707106D01*
X12595166Y-11729000D01*
X12472521Y-11748424D01*
X12366533Y-11802428D01*
X12366529Y-11802431D01*
X12282431Y-11886529D01*
X12282428Y-11886533D01*
X12228424Y-11992521D01*
X12228424Y-11992522D01*
X12209819Y-12109996D01*
X12209819Y-12110003D01*
X12228424Y-12227477D01*
X12228424Y-12227478D01*
X12228425Y-12227481D01*
X12228426Y-12227482D01*
X12279393Y-12327511D01*
X12282428Y-12333466D01*
X12282431Y-12333470D01*
X12366529Y-12417568D01*
X12366533Y-12417571D01*
X12366535Y-12417573D01*
X12472518Y-12471574D01*
X12472520Y-12471574D01*
X12472522Y-12471575D01*
X12589997Y-12490181D01*
X12590000Y-12490181D01*
X12590003Y-12490181D01*
X12683575Y-12475361D01*
X12752868Y-12484316D01*
X12771863Y-12494732D01*
X12813969Y-12522866D01*
X12813970Y-12522867D01*
X12872447Y-12534498D01*
X12872450Y-12534499D01*
X13369486Y-12534499D01*
X13436525Y-12554184D01*
X13482280Y-12606988D01*
X13492224Y-12676146D01*
X13463199Y-12739702D01*
X13457167Y-12746180D01*
X13130399Y-13072947D01*
X13130395Y-13072952D01*
X13104319Y-13118120D01*
X13104317Y-13118124D01*
X13093700Y-13136511D01*
X13074703Y-13207409D01*
X13074703Y-14578207D01*
X13055018Y-14645246D01*
X13002214Y-14691001D01*
X12933056Y-14700945D01*
X12897962Y-14687857D01*
X12897131Y-14689678D01*
X12889066Y-14685994D01*
X12764774Y-14649500D01*
X12764772Y-14649500D01*
X12635228Y-14649500D01*
X12635226Y-14649500D01*
X12510935Y-14685994D01*
X12510932Y-14685995D01*
X12510931Y-14685996D01*
X12487670Y-14700945D01*
X12401950Y-14756033D01*
X12317118Y-14853937D01*
X12317117Y-14853938D01*
X12263302Y-14971774D01*
X12244867Y-15100000D01*
X12254561Y-15167424D01*
X12244617Y-15236583D01*
X12198862Y-15289387D01*
X12151221Y-15307544D01*
X12082521Y-15318424D01*
X11976533Y-15372428D01*
X11976529Y-15372431D01*
X11892431Y-15456529D01*
X11892426Y-15456536D01*
X11837005Y-15565305D01*
X11789031Y-15616100D01*
X11721210Y-15632895D01*
X11655075Y-15610357D01*
X11616038Y-15565305D01*
X11587372Y-15509045D01*
X11587367Y-15509039D01*
X11503269Y-15424941D01*
X11503265Y-15424938D01*
X11503264Y-15424937D01*
X11397281Y-15370936D01*
X11397279Y-15370935D01*
X11397276Y-15370934D01*
X11279802Y-15352329D01*
X11279796Y-15352329D01*
X11162321Y-15370934D01*
X11162320Y-15370934D01*
X11056332Y-15424938D01*
X11056328Y-15424941D01*
X10966688Y-15514582D01*
X10905365Y-15548067D01*
X10879007Y-15550901D01*
X10526247Y-15550901D01*
X10467770Y-15562532D01*
X10456487Y-15567207D01*
X10455922Y-15565844D01*
X10402211Y-15582661D01*
X10343756Y-15566623D01*
X10343515Y-15567207D01*
X10338869Y-15565282D01*
X10334832Y-15564175D01*
X10332359Y-15562585D01*
X10332231Y-15562532D01*
X10273754Y-15550901D01*
X10273750Y-15550901D01*
X9726254Y-15550901D01*
X9726249Y-15550901D01*
X9667772Y-15562532D01*
X9667771Y-15562533D01*
X9601449Y-15606848D01*
X9557134Y-15673170D01*
X9557133Y-15673171D01*
X9545502Y-15731648D01*
X9545502Y-16228353D01*
X9557133Y-16286830D01*
X9557134Y-16286831D01*
X9601449Y-16353153D01*
X9667771Y-16397468D01*
X9667772Y-16397469D01*
X9726249Y-16409100D01*
X9726252Y-16409101D01*
X9726254Y-16409101D01*
X10273752Y-16409101D01*
X10273753Y-16409100D01*
X10289340Y-16406000D01*
X10332231Y-16397469D01*
X10343515Y-16392795D01*
X10344079Y-16394157D01*
X10397781Y-16377340D01*
X10456246Y-16393375D01*
X10456487Y-16392795D01*
X10461107Y-16394708D01*
X10465162Y-16395821D01*
X10467647Y-16397417D01*
X10467770Y-16397469D01*
X10526247Y-16409100D01*
X10526250Y-16409101D01*
X10526252Y-16409101D01*
X11073750Y-16409101D01*
X11073751Y-16409100D01*
X11089338Y-16406000D01*
X11132229Y-16397469D01*
X11132229Y-16397468D01*
X11132231Y-16397468D01*
X11198552Y-16353153D01*
X11242867Y-16286832D01*
X11242867Y-16286830D01*
X11242868Y-16286830D01*
X11254499Y-16228353D01*
X11254500Y-16228351D01*
X11254500Y-16222604D01*
X11274185Y-16155565D01*
X11326989Y-16109810D01*
X11359099Y-16100130D01*
X11397281Y-16094084D01*
X11469207Y-16057435D01*
X11537874Y-16044540D01*
X11602615Y-16070816D01*
X11642872Y-16127923D01*
X11649500Y-16167921D01*
X11649500Y-16649752D01*
X11661131Y-16708229D01*
X11661132Y-16708230D01*
X11696465Y-16761109D01*
X11717343Y-16827786D01*
X11698859Y-16895166D01*
X11696465Y-16898891D01*
X11661132Y-16951769D01*
X11661132Y-16951770D01*
X11659270Y-16961131D01*
X11626884Y-17023042D01*
X11566168Y-17057616D01*
X11496399Y-17053875D01*
X11470614Y-17041255D01*
X11462056Y-17035755D01*
X11369069Y-16975996D01*
X11369065Y-16975994D01*
X11369064Y-16975994D01*
X11244774Y-16939500D01*
X11244772Y-16939500D01*
X11115228Y-16939500D01*
X11115226Y-16939500D01*
X10990935Y-16975994D01*
X10990932Y-16975995D01*
X10990931Y-16975996D01*
X10949478Y-17002636D01*
X10881950Y-17046033D01*
X10797118Y-17143937D01*
X10797117Y-17143938D01*
X10743302Y-17261774D01*
X10724867Y-17390000D01*
X10743302Y-17518225D01*
X10793790Y-17628776D01*
X10797118Y-17636063D01*
X10852519Y-17700000D01*
X10879954Y-17731663D01*
X10881951Y-17733967D01*
X10990931Y-17804004D01*
X11091255Y-17833461D01*
X11115225Y-17840499D01*
X11115227Y-17840500D01*
X11115228Y-17840500D01*
X11244773Y-17840500D01*
X11244773Y-17840499D01*
X11369069Y-17804004D01*
X11474143Y-17736477D01*
X11541180Y-17716793D01*
X11608219Y-17736477D01*
X11653974Y-17789281D01*
X11656450Y-17796949D01*
X11656458Y-17796946D01*
X11661132Y-17808230D01*
X11705445Y-17874549D01*
X11714081Y-17883184D01*
X11710913Y-17886351D01*
X11740277Y-17921413D01*
X11749371Y-17988667D01*
X11744867Y-18019996D01*
X11744867Y-18019997D01*
X11763302Y-18148223D01*
X11809720Y-18249862D01*
X11817118Y-18266061D01*
X11901951Y-18363965D01*
X12010931Y-18434002D01*
X12054062Y-18446666D01*
X12135225Y-18470497D01*
X12135227Y-18470498D01*
X12135228Y-18470498D01*
X12264773Y-18470498D01*
X12264773Y-18470497D01*
X12389069Y-18434002D01*
X12498049Y-18363965D01*
X12582882Y-18266061D01*
X12636697Y-18148224D01*
X12655133Y-18019998D01*
X12650628Y-17988668D01*
X12660571Y-17919513D01*
X12688971Y-17886242D01*
X12685917Y-17883188D01*
X12694551Y-17874553D01*
X12697510Y-17870125D01*
X12738867Y-17808231D01*
X12738867Y-17808229D01*
X12738868Y-17808229D01*
X12750499Y-17749752D01*
X12750500Y-17749750D01*
X12750500Y-17726963D01*
X12770185Y-17659924D01*
X12822989Y-17614169D01*
X12892147Y-17604225D01*
X12909434Y-17607986D01*
X13002438Y-17635293D01*
X13002440Y-17635294D01*
X13002441Y-17635294D01*
X13131986Y-17635294D01*
X13131986Y-17635293D01*
X13256282Y-17598798D01*
X13358463Y-17533129D01*
X13425499Y-17513446D01*
X13492539Y-17533130D01*
X13538294Y-17585934D01*
X13549500Y-17637445D01*
X13549500Y-17739894D01*
X13549501Y-17739902D01*
X13555330Y-17769212D01*
X13577542Y-17802457D01*
X13577601Y-17802496D01*
X13577702Y-17802617D01*
X13586179Y-17811094D01*
X13585420Y-17811852D01*
X13622406Y-17856108D01*
X13631114Y-17925433D01*
X13600960Y-17988461D01*
X13596392Y-17993280D01*
X13154537Y-18435135D01*
X13154533Y-18435141D01*
X13111681Y-18509362D01*
X13111680Y-18509362D01*
X13101962Y-18545637D01*
X13101962Y-18545638D01*
X13089500Y-18592147D01*
X13089500Y-18705500D01*
X13069815Y-18772539D01*
X13017011Y-18818294D01*
X12965500Y-18829500D01*
X12545247Y-18829500D01*
X12486770Y-18841131D01*
X12486769Y-18841132D01*
X12420447Y-18885447D01*
X12376132Y-18951769D01*
X12376131Y-18951770D01*
X12364500Y-19010247D01*
X12364500Y-20749752D01*
X12376131Y-20808229D01*
X12376132Y-20808230D01*
X12420447Y-20874552D01*
X12486769Y-20918867D01*
X12486770Y-20918868D01*
X12545247Y-20930499D01*
X12545250Y-20930500D01*
X12545252Y-20930500D01*
X14284750Y-20930500D01*
X14284751Y-20930499D01*
X14299568Y-20927552D01*
X14343229Y-20918868D01*
X14343229Y-20918867D01*
X14343231Y-20918867D01*
X14409552Y-20874552D01*
X14453867Y-20808231D01*
X14453867Y-20808229D01*
X14453868Y-20808229D01*
X14465499Y-20749752D01*
X14465500Y-20749750D01*
X14465500Y-19880000D01*
X14899417Y-19880000D01*
X14919699Y-20085932D01*
X14949734Y-20184944D01*
X14979768Y-20283954D01*
X15077315Y-20466450D01*
X15111969Y-20508677D01*
X15208589Y-20626410D01*
X15305209Y-20705702D01*
X15368550Y-20757685D01*
X15551046Y-20855232D01*
X15749066Y-20915300D01*
X15749065Y-20915300D01*
X15767529Y-20917118D01*
X15955000Y-20935583D01*
X16160934Y-20915300D01*
X16358954Y-20855232D01*
X16541450Y-20757685D01*
X16701410Y-20626410D01*
X16832685Y-20466450D01*
X16930232Y-20283954D01*
X16990300Y-20085934D01*
X17010583Y-19880000D01*
X16990300Y-19674066D01*
X16930232Y-19476046D01*
X16832685Y-19293550D01*
X16775067Y-19223342D01*
X16701410Y-19133589D01*
X16551121Y-19010252D01*
X16541450Y-19002315D01*
X16358954Y-18904768D01*
X16160934Y-18844700D01*
X16160932Y-18844699D01*
X16160934Y-18844699D01*
X15955000Y-18824417D01*
X15749067Y-18844699D01*
X15551043Y-18904769D01*
X15477192Y-18944244D01*
X15368550Y-19002315D01*
X15368548Y-19002316D01*
X15368547Y-19002317D01*
X15208589Y-19133589D01*
X15077863Y-19292882D01*
X15077315Y-19293550D01*
X15047142Y-19350000D01*
X14979769Y-19476043D01*
X14979768Y-19476045D01*
X14979768Y-19476046D01*
X14976735Y-19486046D01*
X14919699Y-19674067D01*
X14899417Y-19880000D01*
X14465500Y-19880000D01*
X14465500Y-19010249D01*
X14465499Y-19010247D01*
X14453868Y-18951770D01*
X14453867Y-18951769D01*
X14409552Y-18885447D01*
X14343230Y-18841132D01*
X14343229Y-18841131D01*
X14284752Y-18829500D01*
X14284748Y-18829500D01*
X13980189Y-18829500D01*
X13913150Y-18809815D01*
X13867395Y-18757011D01*
X13857451Y-18687853D01*
X13886476Y-18624297D01*
X13892508Y-18617819D01*
X14076325Y-18434002D01*
X14260465Y-18249862D01*
X14303318Y-18175639D01*
X14325500Y-18092853D01*
X14325500Y-18007147D01*
X14325500Y-17933519D01*
X14345185Y-17866480D01*
X14380613Y-17830414D01*
X14389210Y-17824669D01*
X14389213Y-17824669D01*
X14422457Y-17802457D01*
X14444669Y-17769213D01*
X14450500Y-17739899D01*
X14450499Y-17020102D01*
X14444669Y-16990787D01*
X14443587Y-16988174D01*
X14442925Y-16982015D01*
X14442287Y-16978807D01*
X14442574Y-16978749D01*
X14436120Y-16918705D01*
X14467396Y-16856226D01*
X14489260Y-16837621D01*
X14530239Y-16810240D01*
X14585494Y-16727544D01*
X14585496Y-16727540D01*
X14599999Y-16654628D01*
X14600000Y-16654626D01*
X14600000Y-16611569D01*
X14619685Y-16544530D01*
X14672489Y-16498775D01*
X14741647Y-16488831D01*
X14805203Y-16517856D01*
X14811681Y-16523888D01*
X15599122Y-17311329D01*
X15632607Y-17372652D01*
X15635441Y-17399010D01*
X15635441Y-17713718D01*
X15652527Y-17777482D01*
X15654438Y-17784613D01*
X15654439Y-17784616D01*
X15691133Y-17848173D01*
X15691135Y-17848176D01*
X15691136Y-17848177D01*
X16466014Y-18623055D01*
X16466015Y-18623056D01*
X16466017Y-18623057D01*
X16470029Y-18625373D01*
X16525002Y-18657111D01*
X16529578Y-18659753D01*
X16600473Y-18678750D01*
X17909730Y-18678750D01*
X17976769Y-18698435D01*
X18022524Y-18751239D01*
X18032468Y-18820397D01*
X18003443Y-18883953D01*
X17975008Y-18908177D01*
X17829260Y-18998421D01*
X17678608Y-19135757D01*
X17555754Y-19298443D01*
X17464890Y-19480921D01*
X17464885Y-19480934D01*
X17422471Y-19629999D01*
X17422472Y-19630000D01*
X18061988Y-19630000D01*
X18029075Y-19687007D01*
X17995000Y-19814174D01*
X17995000Y-19945826D01*
X18029075Y-20072993D01*
X18061988Y-20130000D01*
X17422472Y-20130000D01*
X17464885Y-20279065D01*
X17464890Y-20279078D01*
X17555754Y-20461556D01*
X17678608Y-20624242D01*
X17829260Y-20761578D01*
X18002584Y-20868897D01*
X18192678Y-20942539D01*
X18245000Y-20952320D01*
X18245000Y-20313012D01*
X18302007Y-20345925D01*
X18429174Y-20380000D01*
X18560826Y-20380000D01*
X18687993Y-20345925D01*
X18745000Y-20313012D01*
X18745000Y-20952320D01*
X18797321Y-20942539D01*
X18987415Y-20868897D01*
X19160739Y-20761578D01*
X19311391Y-20624242D01*
X19434245Y-20461556D01*
X19525109Y-20279078D01*
X19525114Y-20279065D01*
X19567528Y-20130000D01*
X18928012Y-20130000D01*
X18960925Y-20072993D01*
X18995000Y-19945826D01*
X18995000Y-19814174D01*
X18960925Y-19687007D01*
X18928012Y-19630000D01*
X19567528Y-19630000D01*
X19567528Y-19629999D01*
X19525114Y-19480934D01*
X19525109Y-19480921D01*
X19434245Y-19298443D01*
X19311391Y-19135757D01*
X19160739Y-18998421D01*
X19014992Y-18908177D01*
X18968357Y-18856148D01*
X18957253Y-18787167D01*
X18985207Y-18723133D01*
X19043342Y-18684376D01*
X19080270Y-18678750D01*
X20262866Y-18678750D01*
X20329905Y-18698435D01*
X20350547Y-18715069D01*
X22608530Y-20973054D01*
X22608532Y-20973055D01*
X22608533Y-20973056D01*
X22672097Y-21009753D01*
X22742992Y-21028750D01*
X22742993Y-21028750D01*
X25799196Y-21028750D01*
X25799198Y-21028750D01*
X25870093Y-21009753D01*
X25933657Y-20973055D01*
X26436710Y-20470001D01*
X29562562Y-20470001D01*
X29564464Y-20482017D01*
X29620552Y-20592094D01*
X29620555Y-20592099D01*
X29707901Y-20679445D01*
X29707906Y-20679449D01*
X29817984Y-20735537D01*
X29860000Y-20742191D01*
X29860000Y-20742189D01*
X30360000Y-20742189D01*
X30402022Y-20735534D01*
X30512091Y-20679450D01*
X30512098Y-20679445D01*
X30599444Y-20592099D01*
X30599449Y-20592092D01*
X30655533Y-20482023D01*
X30655534Y-20482020D01*
X30657438Y-20470001D01*
X30360000Y-20470001D01*
X30360000Y-20742189D01*
X29860000Y-20742189D01*
X29860000Y-20470001D01*
X29562562Y-20470001D01*
X26436710Y-20470001D01*
X27647182Y-19259528D01*
X27702768Y-19227436D01*
X27718139Y-19223318D01*
X27721194Y-19221553D01*
X27740782Y-19212419D01*
X27757761Y-19206240D01*
X27762791Y-19202018D01*
X27826799Y-19174004D01*
X27895791Y-19185041D01*
X27922206Y-19202017D01*
X27927234Y-19206236D01*
X27927239Y-19206240D01*
X27927243Y-19206241D01*
X27927244Y-19206242D01*
X27944257Y-19212434D01*
X27963825Y-19221555D01*
X27966922Y-19223343D01*
X27989337Y-19229344D01*
X27999642Y-19232592D01*
X28035106Y-19245500D01*
X28041612Y-19245500D01*
X28041782Y-19245510D01*
X28049710Y-19245508D01*
X28049712Y-19245509D01*
X28095086Y-19245500D01*
X28149894Y-19245500D01*
X28185440Y-19232561D01*
X28195696Y-19229325D01*
X28218199Y-19223292D01*
X28221208Y-19221553D01*
X28240824Y-19212403D01*
X28257761Y-19206240D01*
X28262791Y-19202018D01*
X28326798Y-19174003D01*
X28395790Y-19185040D01*
X28422205Y-19202015D01*
X28422210Y-19202019D01*
X28427239Y-19206239D01*
X28444266Y-19212436D01*
X28463823Y-19221554D01*
X28465638Y-19222601D01*
X28466880Y-19223318D01*
X28466919Y-19223340D01*
X28466918Y-19223340D01*
X28466922Y-19223342D01*
X28489337Y-19229343D01*
X28499642Y-19232591D01*
X28535106Y-19245499D01*
X28541612Y-19245499D01*
X28541782Y-19245509D01*
X28549710Y-19245507D01*
X28549712Y-19245508D01*
X28595086Y-19245499D01*
X28649894Y-19245499D01*
X28649895Y-19245498D01*
X28660575Y-19243615D01*
X28661259Y-19247495D01*
X28710516Y-19244329D01*
X28771597Y-19278255D01*
X28796081Y-19313792D01*
X28797117Y-19316062D01*
X28797118Y-19316063D01*
X28881951Y-19413967D01*
X28990931Y-19484004D01*
X29115225Y-19520499D01*
X29115227Y-19520500D01*
X29115228Y-19520500D01*
X29244773Y-19520500D01*
X29244773Y-19520499D01*
X29369069Y-19484004D01*
X29429998Y-19444847D01*
X29497036Y-19425163D01*
X29564075Y-19444848D01*
X29609418Y-19496758D01*
X29656776Y-19598317D01*
X29675777Y-19617318D01*
X29709262Y-19678641D01*
X29704278Y-19748333D01*
X29675778Y-19792680D01*
X29620552Y-19847905D01*
X29620550Y-19847909D01*
X29564466Y-19957978D01*
X29564465Y-19957981D01*
X29562561Y-19970000D01*
X29562561Y-19970001D01*
X30657438Y-19970001D01*
X30655535Y-19957984D01*
X30599447Y-19847907D01*
X30599444Y-19847902D01*
X30548723Y-19797181D01*
X30515238Y-19735858D01*
X30520222Y-19666166D01*
X30562094Y-19610233D01*
X30627558Y-19585816D01*
X30636404Y-19585500D01*
X30881121Y-19585500D01*
X30948160Y-19605185D01*
X30993915Y-19657989D01*
X31003594Y-19690102D01*
X31015047Y-19762418D01*
X31030467Y-19792680D01*
X31075342Y-19880752D01*
X31075344Y-19880754D01*
X31075346Y-19880757D01*
X31169243Y-19974654D01*
X31169245Y-19974655D01*
X31169249Y-19974659D01*
X31287580Y-20034952D01*
X31287581Y-20034952D01*
X31287583Y-20034953D01*
X31287582Y-20034953D01*
X31385749Y-20050501D01*
X31385754Y-20050501D01*
X32214251Y-20050501D01*
X32312417Y-20034953D01*
X32312418Y-20034952D01*
X32312420Y-20034952D01*
X32430751Y-19974659D01*
X32524658Y-19880752D01*
X32584951Y-19762421D01*
X32584951Y-19762419D01*
X32584952Y-19762418D01*
X32600500Y-19664252D01*
X32600500Y-19160749D01*
X32584952Y-19062583D01*
X32563383Y-19020252D01*
X32524658Y-18944250D01*
X32524654Y-18944246D01*
X32524653Y-18944244D01*
X32430756Y-18850347D01*
X32430753Y-18850345D01*
X32430751Y-18850343D01*
X32312420Y-18790050D01*
X32312419Y-18790049D01*
X32312416Y-18790048D01*
X32312417Y-18790048D01*
X32214251Y-18774501D01*
X32214246Y-18774501D01*
X31385754Y-18774501D01*
X31385749Y-18774501D01*
X31287582Y-18790048D01*
X31233359Y-18817677D01*
X31169249Y-18850343D01*
X31169248Y-18850344D01*
X31169244Y-18850346D01*
X31121412Y-18898180D01*
X31060089Y-18931666D01*
X31033730Y-18934500D01*
X30627402Y-18934500D01*
X30560363Y-18914815D01*
X30539721Y-18898182D01*
X30511003Y-18869464D01*
X30478316Y-18836777D01*
X30442511Y-18820080D01*
X30390074Y-18773909D01*
X30387545Y-18769721D01*
X30382301Y-18760639D01*
X30375337Y-18748576D01*
X30359989Y-18704227D01*
X30353595Y-18659753D01*
X30346697Y-18611774D01*
X30328427Y-18571769D01*
X30292884Y-18493940D01*
X30292882Y-18493938D01*
X30292882Y-18493937D01*
X30208049Y-18396033D01*
X30202241Y-18389330D01*
X30203757Y-18388016D01*
X30172214Y-18338935D01*
X30172214Y-18269066D01*
X30209988Y-18210287D01*
X30273544Y-18181262D01*
X30291191Y-18180000D01*
X30400000Y-18180000D01*
X30400000Y-17928998D01*
X30419685Y-17861959D01*
X30472489Y-17816204D01*
X30524000Y-17804998D01*
X30664115Y-17804998D01*
X30709630Y-17799006D01*
X30809507Y-17752432D01*
X30863808Y-17698131D01*
X30925131Y-17664646D01*
X30994823Y-17669630D01*
X31050757Y-17711501D01*
X31061974Y-17729516D01*
X31075341Y-17755750D01*
X31075346Y-17755757D01*
X31169243Y-17849654D01*
X31169245Y-17849655D01*
X31169249Y-17849659D01*
X31287580Y-17909952D01*
X31287581Y-17909952D01*
X31287583Y-17909953D01*
X31287582Y-17909953D01*
X31385749Y-17925501D01*
X31385754Y-17925501D01*
X32214251Y-17925501D01*
X32312417Y-17909953D01*
X32312418Y-17909952D01*
X32312420Y-17909952D01*
X32430751Y-17849659D01*
X32454680Y-17825730D01*
X36674500Y-17825730D01*
X36674500Y-19134269D01*
X36677353Y-19164699D01*
X36677353Y-19164701D01*
X36722206Y-19292880D01*
X36722207Y-19292882D01*
X36802850Y-19402150D01*
X36912118Y-19482793D01*
X36932432Y-19489901D01*
X37040299Y-19527646D01*
X37070730Y-19530500D01*
X37070734Y-19530500D01*
X38629270Y-19530500D01*
X38659699Y-19527646D01*
X38659701Y-19527646D01*
X38723790Y-19505219D01*
X38787882Y-19482793D01*
X38897150Y-19402150D01*
X38977793Y-19292882D01*
X39004650Y-19216129D01*
X39022646Y-19164701D01*
X39022646Y-19164699D01*
X39025500Y-19134269D01*
X39025500Y-17825730D01*
X39022646Y-17795300D01*
X39022646Y-17795298D01*
X38981338Y-17677249D01*
X38977793Y-17667118D01*
X38897150Y-17557850D01*
X38787882Y-17477207D01*
X38787880Y-17477206D01*
X38659700Y-17432353D01*
X38629270Y-17429500D01*
X38629266Y-17429500D01*
X37070734Y-17429500D01*
X37070730Y-17429500D01*
X37040300Y-17432353D01*
X37040298Y-17432353D01*
X36912119Y-17477206D01*
X36912117Y-17477207D01*
X36802850Y-17557850D01*
X36722207Y-17667117D01*
X36722206Y-17667119D01*
X36677353Y-17795298D01*
X36677353Y-17795300D01*
X36674500Y-17825730D01*
X32454680Y-17825730D01*
X32524658Y-17755752D01*
X32584951Y-17637421D01*
X32584951Y-17637419D01*
X32584952Y-17637418D01*
X32600500Y-17539252D01*
X32600500Y-17035749D01*
X32584952Y-16937583D01*
X32580834Y-16929501D01*
X32524658Y-16819250D01*
X32524654Y-16819246D01*
X32524653Y-16819244D01*
X32472268Y-16766859D01*
X32438783Y-16705536D01*
X32443767Y-16635844D01*
X32485639Y-16579911D01*
X32551103Y-16555494D01*
X32579336Y-16556703D01*
X32607965Y-16561237D01*
X32671097Y-16591165D01*
X32676247Y-16596029D01*
X33233273Y-17153055D01*
X33288248Y-17184794D01*
X33288247Y-17184794D01*
X33288250Y-17184795D01*
X33296837Y-17189753D01*
X33367732Y-17208750D01*
X33367734Y-17208750D01*
X33375582Y-17210853D01*
X33374717Y-17214080D01*
X33417716Y-17233100D01*
X33418636Y-17231834D01*
X33426533Y-17237571D01*
X33426535Y-17237573D01*
X33532518Y-17291574D01*
X33532520Y-17291574D01*
X33532522Y-17291575D01*
X33649997Y-17310181D01*
X33650000Y-17310181D01*
X33650003Y-17310181D01*
X33767477Y-17291575D01*
X33767478Y-17291575D01*
X33767479Y-17291574D01*
X33767482Y-17291574D01*
X33873465Y-17237573D01*
X33957573Y-17153465D01*
X34011574Y-17047482D01*
X34011575Y-17047477D01*
X34030181Y-16930003D01*
X34030181Y-16929996D01*
X34011575Y-16812522D01*
X34011575Y-16812521D01*
X34011574Y-16812519D01*
X34011574Y-16812518D01*
X33957573Y-16706535D01*
X33957571Y-16706533D01*
X33957568Y-16706529D01*
X33873470Y-16622431D01*
X33873466Y-16622428D01*
X33873465Y-16622427D01*
X33767482Y-16568426D01*
X33767480Y-16568425D01*
X33767477Y-16568424D01*
X33650003Y-16549819D01*
X33649997Y-16549819D01*
X33522879Y-16569952D01*
X33522671Y-16568641D01*
X33462892Y-16570345D01*
X33406744Y-16538102D01*
X33070459Y-16201817D01*
X33036974Y-16140494D01*
X33035672Y-16133567D01*
X33026004Y-16072518D01*
X32972003Y-15966535D01*
X32972001Y-15966533D01*
X32971998Y-15966529D01*
X32887900Y-15882431D01*
X32887896Y-15882428D01*
X32887895Y-15882427D01*
X32876321Y-15876530D01*
X36674500Y-15876530D01*
X36674500Y-16083469D01*
X36714868Y-16286412D01*
X36714870Y-16286420D01*
X36792170Y-16473039D01*
X36794059Y-16477598D01*
X36834486Y-16538102D01*
X36909024Y-16649657D01*
X37055342Y-16795975D01*
X37055345Y-16795977D01*
X37227402Y-16910941D01*
X37418580Y-16990130D01*
X37577631Y-17021767D01*
X37621530Y-17030499D01*
X37621534Y-17030500D01*
X37621535Y-17030500D01*
X38078466Y-17030500D01*
X38078467Y-17030499D01*
X38281420Y-16990130D01*
X38472598Y-16910941D01*
X38644655Y-16795977D01*
X38790977Y-16649655D01*
X38905941Y-16477598D01*
X38985130Y-16286420D01*
X39025500Y-16083465D01*
X39025500Y-15876535D01*
X38985130Y-15673580D01*
X38905941Y-15482402D01*
X38790977Y-15310345D01*
X38790975Y-15310342D01*
X38644657Y-15164024D01*
X38476661Y-15051774D01*
X38472598Y-15049059D01*
X38462750Y-15044980D01*
X38281420Y-14969870D01*
X38281412Y-14969868D01*
X38078469Y-14929500D01*
X38078465Y-14929500D01*
X37621535Y-14929500D01*
X37621530Y-14929500D01*
X37418587Y-14969868D01*
X37418579Y-14969870D01*
X37227403Y-15049058D01*
X37055342Y-15164024D01*
X36909024Y-15310342D01*
X36794058Y-15482403D01*
X36714870Y-15673579D01*
X36714868Y-15673587D01*
X36674500Y-15876530D01*
X32876321Y-15876530D01*
X32781912Y-15828426D01*
X32781910Y-15828425D01*
X32781907Y-15828424D01*
X32664433Y-15809819D01*
X32664427Y-15809819D01*
X32546952Y-15828424D01*
X32546951Y-15828424D01*
X32440963Y-15882428D01*
X32440958Y-15882431D01*
X32410986Y-15912404D01*
X32349662Y-15945889D01*
X32279971Y-15940903D01*
X32224038Y-15899031D01*
X32200832Y-15844119D01*
X32200180Y-15840004D01*
X32200181Y-15840000D01*
X32181574Y-15722518D01*
X32127573Y-15616535D01*
X32127571Y-15616533D01*
X32127568Y-15616529D01*
X32043470Y-15532431D01*
X32043467Y-15532429D01*
X32043465Y-15532427D01*
X31937482Y-15478426D01*
X31937481Y-15478425D01*
X31937478Y-15478424D01*
X31929187Y-15475730D01*
X31871514Y-15436289D01*
X31844319Y-15371929D01*
X31843512Y-15357801D01*
X31843512Y-15352548D01*
X31824906Y-15235074D01*
X31824906Y-15235073D01*
X31824905Y-15235071D01*
X31824905Y-15235070D01*
X31770904Y-15129087D01*
X31770902Y-15129085D01*
X31770899Y-15129081D01*
X31686801Y-15044983D01*
X31686797Y-15044980D01*
X31686796Y-15044979D01*
X31580813Y-14990978D01*
X31580812Y-14990977D01*
X31580809Y-14990976D01*
X31508930Y-14979592D01*
X31445795Y-14949663D01*
X31408864Y-14890351D01*
X31408554Y-14889215D01*
X31401986Y-14864705D01*
X31399644Y-14854141D01*
X31394487Y-14824891D01*
X31402231Y-14755453D01*
X31406105Y-14747092D01*
X31441574Y-14677482D01*
X31446680Y-14645246D01*
X31460181Y-14560003D01*
X31460181Y-14559996D01*
X31441575Y-14442522D01*
X31441575Y-14442521D01*
X31441574Y-14442519D01*
X31441574Y-14442518D01*
X31435194Y-14429996D01*
X33259819Y-14429996D01*
X33259819Y-14430003D01*
X33278424Y-14547477D01*
X33278424Y-14547478D01*
X33278425Y-14547481D01*
X33278426Y-14547482D01*
X33328239Y-14645246D01*
X33332428Y-14653466D01*
X33332431Y-14653470D01*
X33416529Y-14737568D01*
X33416533Y-14737571D01*
X33416535Y-14737573D01*
X33522518Y-14791574D01*
X33522520Y-14791574D01*
X33522522Y-14791575D01*
X33639997Y-14810181D01*
X33640000Y-14810181D01*
X33640003Y-14810181D01*
X33757477Y-14791575D01*
X33757478Y-14791575D01*
X33757479Y-14791574D01*
X33757482Y-14791574D01*
X33863465Y-14737573D01*
X33947573Y-14653465D01*
X34001574Y-14547482D01*
X34001575Y-14547477D01*
X34020181Y-14430003D01*
X34020181Y-14429996D01*
X34001575Y-14312522D01*
X34001575Y-14312521D01*
X34001574Y-14312519D01*
X34001574Y-14312518D01*
X33947573Y-14206535D01*
X33947571Y-14206533D01*
X33947568Y-14206529D01*
X33863470Y-14122431D01*
X33863466Y-14122428D01*
X33863465Y-14122427D01*
X33757482Y-14068426D01*
X33757480Y-14068425D01*
X33757477Y-14068424D01*
X33640003Y-14049819D01*
X33639997Y-14049819D01*
X33522522Y-14068424D01*
X33522521Y-14068424D01*
X33416533Y-14122428D01*
X33416529Y-14122431D01*
X33332431Y-14206529D01*
X33332428Y-14206533D01*
X33278424Y-14312521D01*
X33278424Y-14312522D01*
X33259819Y-14429996D01*
X31435194Y-14429996D01*
X31387573Y-14336535D01*
X31387571Y-14336533D01*
X31387568Y-14336529D01*
X31303470Y-14252431D01*
X31303466Y-14252428D01*
X31303465Y-14252427D01*
X31197482Y-14198426D01*
X31197480Y-14198425D01*
X31197477Y-14198424D01*
X31080003Y-14179819D01*
X31079997Y-14179819D01*
X30962522Y-14198424D01*
X30962521Y-14198424D01*
X30856533Y-14252428D01*
X30856529Y-14252431D01*
X30772431Y-14336529D01*
X30772428Y-14336533D01*
X30718424Y-14442521D01*
X30718424Y-14442522D01*
X30709338Y-14499896D01*
X30679409Y-14563031D01*
X30620098Y-14599963D01*
X30586865Y-14604499D01*
X30524000Y-14604499D01*
X30456961Y-14584814D01*
X30411206Y-14532010D01*
X30400000Y-14480499D01*
X30400000Y-14180000D01*
X30039499Y-14180000D01*
X29972460Y-14160315D01*
X29926705Y-14107511D01*
X29915499Y-14056000D01*
X29915499Y-13866601D01*
X29915499Y-13866599D01*
X29900240Y-13789882D01*
X29896425Y-13784172D01*
X29875546Y-13717498D01*
X29894029Y-13650117D01*
X29946006Y-13603426D01*
X29947068Y-13602924D01*
X30030404Y-13564064D01*
X30084870Y-13509597D01*
X30146189Y-13476115D01*
X30215881Y-13481099D01*
X30271815Y-13522970D01*
X30283032Y-13540985D01*
X30304271Y-13582668D01*
X30304276Y-13582675D01*
X30388374Y-13666773D01*
X30388378Y-13666776D01*
X30388380Y-13666778D01*
X30494363Y-13720779D01*
X30494365Y-13720779D01*
X30494367Y-13720780D01*
X30611842Y-13739386D01*
X30611845Y-13739386D01*
X30611848Y-13739386D01*
X30729322Y-13720780D01*
X30729323Y-13720780D01*
X30729324Y-13720779D01*
X30729327Y-13720779D01*
X30835310Y-13666778D01*
X30919418Y-13582670D01*
X30973419Y-13476687D01*
X30973702Y-13474902D01*
X30989282Y-13376530D01*
X36674500Y-13376530D01*
X36674500Y-13583469D01*
X36714868Y-13786412D01*
X36714870Y-13786420D01*
X36792730Y-13974391D01*
X36794059Y-13977598D01*
X36836710Y-14041430D01*
X36909024Y-14149657D01*
X37055342Y-14295975D01*
X37055345Y-14295977D01*
X37227402Y-14410941D01*
X37418580Y-14490130D01*
X37568748Y-14520000D01*
X37621530Y-14530499D01*
X37621534Y-14530500D01*
X37621535Y-14530500D01*
X38078466Y-14530500D01*
X38078467Y-14530499D01*
X38281420Y-14490130D01*
X38472598Y-14410941D01*
X38644655Y-14295977D01*
X38790977Y-14149655D01*
X38905941Y-13977598D01*
X38985130Y-13786420D01*
X39025500Y-13583465D01*
X39025500Y-13376535D01*
X38985130Y-13173580D01*
X38905941Y-12982402D01*
X38790977Y-12810345D01*
X38790975Y-12810342D01*
X38644657Y-12664024D01*
X38512170Y-12575500D01*
X38472598Y-12549059D01*
X38468730Y-12547457D01*
X38281420Y-12469870D01*
X38281412Y-12469868D01*
X38078469Y-12429500D01*
X38078465Y-12429500D01*
X37621535Y-12429500D01*
X37621530Y-12429500D01*
X37418587Y-12469868D01*
X37418579Y-12469870D01*
X37227403Y-12549058D01*
X37055342Y-12664024D01*
X36909024Y-12810342D01*
X36794058Y-12982403D01*
X36714870Y-13173579D01*
X36714868Y-13173587D01*
X36674500Y-13376530D01*
X30989282Y-13376530D01*
X30992026Y-13359208D01*
X30992026Y-13359201D01*
X30973420Y-13241727D01*
X30973420Y-13241726D01*
X30973419Y-13241724D01*
X30973419Y-13241723D01*
X30919418Y-13135740D01*
X30919416Y-13135738D01*
X30919413Y-13135734D01*
X30835315Y-13051636D01*
X30835311Y-13051633D01*
X30835310Y-13051632D01*
X30729327Y-12997631D01*
X30729325Y-12997630D01*
X30729322Y-12997629D01*
X30668309Y-12987966D01*
X30605174Y-12958037D01*
X30600026Y-12953174D01*
X30573794Y-12926942D01*
X30546928Y-12911431D01*
X30510231Y-12890245D01*
X30439336Y-12871248D01*
X30439334Y-12871248D01*
X30214783Y-12871248D01*
X30147744Y-12851563D01*
X30122091Y-12826910D01*
X30121736Y-12827266D01*
X30044592Y-12750122D01*
X30011107Y-12688799D01*
X30016091Y-12619107D01*
X30057963Y-12563174D01*
X30123427Y-12538757D01*
X30167206Y-12543463D01*
X30180807Y-12547457D01*
X30225227Y-12560500D01*
X30225228Y-12560500D01*
X30354773Y-12560500D01*
X30354773Y-12560499D01*
X30479069Y-12524004D01*
X30588049Y-12453967D01*
X30672882Y-12356063D01*
X30726697Y-12238226D01*
X30745133Y-12110000D01*
X30726697Y-11981774D01*
X30672882Y-11863937D01*
X30652137Y-11839996D01*
X33279819Y-11839996D01*
X33279819Y-11840003D01*
X33298424Y-11957477D01*
X33298424Y-11957478D01*
X33298425Y-11957481D01*
X33298426Y-11957482D01*
X33346793Y-12052408D01*
X33352428Y-12063466D01*
X33352431Y-12063470D01*
X33436529Y-12147568D01*
X33436533Y-12147571D01*
X33436535Y-12147573D01*
X33542518Y-12201574D01*
X33542520Y-12201574D01*
X33542522Y-12201575D01*
X33659997Y-12220181D01*
X33660000Y-12220181D01*
X33660003Y-12220181D01*
X33777477Y-12201575D01*
X33777478Y-12201575D01*
X33777479Y-12201574D01*
X33777482Y-12201574D01*
X33883465Y-12147573D01*
X33967573Y-12063465D01*
X34021574Y-11957482D01*
X34027223Y-11921817D01*
X34040181Y-11840003D01*
X34040181Y-11839996D01*
X34021575Y-11722522D01*
X34021575Y-11722521D01*
X34021574Y-11722519D01*
X34021574Y-11722518D01*
X33967573Y-11616535D01*
X33967571Y-11616533D01*
X33967568Y-11616529D01*
X33883470Y-11532431D01*
X33883466Y-11532428D01*
X33883465Y-11532427D01*
X33777482Y-11478426D01*
X33777480Y-11478425D01*
X33777477Y-11478424D01*
X33660003Y-11459819D01*
X33659997Y-11459819D01*
X33542522Y-11478424D01*
X33542521Y-11478424D01*
X33436533Y-11532428D01*
X33436529Y-11532431D01*
X33352431Y-11616529D01*
X33352428Y-11616533D01*
X33298424Y-11722521D01*
X33298424Y-11722522D01*
X33279819Y-11839996D01*
X30652137Y-11839996D01*
X30588049Y-11766033D01*
X30479069Y-11695996D01*
X30479065Y-11695994D01*
X30479064Y-11695994D01*
X30354774Y-11659500D01*
X30354772Y-11659500D01*
X30225228Y-11659500D01*
X30225226Y-11659500D01*
X30100929Y-11695996D01*
X30095746Y-11698363D01*
X30026587Y-11708304D01*
X29991837Y-11697950D01*
X29923173Y-11665931D01*
X29923171Y-11665930D01*
X29923172Y-11665930D01*
X29874317Y-11659499D01*
X29874316Y-11659499D01*
X29425684Y-11659499D01*
X29425683Y-11659499D01*
X29376828Y-11665930D01*
X29269595Y-11715934D01*
X29185935Y-11799594D01*
X29135931Y-11906827D01*
X29129500Y-11955682D01*
X29129500Y-12304315D01*
X29135931Y-12353170D01*
X29185935Y-12460403D01*
X29277267Y-12551735D01*
X29274443Y-12554558D01*
X29305183Y-12593041D01*
X29312352Y-12662541D01*
X29280808Y-12724885D01*
X29277101Y-12728097D01*
X29277267Y-12728263D01*
X29185936Y-12819593D01*
X29141094Y-12915756D01*
X29094921Y-12968195D01*
X29027727Y-12987346D01*
X28960846Y-12967130D01*
X28941031Y-12951031D01*
X28940000Y-12950000D01*
X27240000Y-12950000D01*
X27240000Y-12974628D01*
X27254503Y-13047540D01*
X27254505Y-13047544D01*
X27309760Y-13130239D01*
X27392455Y-13185494D01*
X27392459Y-13185496D01*
X27465371Y-13199999D01*
X27465374Y-13200000D01*
X27590500Y-13200000D01*
X27657539Y-13219685D01*
X27703294Y-13272489D01*
X27714500Y-13324000D01*
X27714500Y-13685895D01*
X27715000Y-13696055D01*
X27715000Y-14056000D01*
X27695315Y-14123039D01*
X27642511Y-14168794D01*
X27591000Y-14180000D01*
X27589000Y-14180000D01*
X27521961Y-14160315D01*
X27476206Y-14107511D01*
X27465000Y-14056000D01*
X27465000Y-13583406D01*
X27464998Y-13583405D01*
X27445375Y-13585989D01*
X27445372Y-13585989D01*
X27392404Y-13610689D01*
X27323326Y-13621180D01*
X27287596Y-13610688D01*
X27234632Y-13585990D01*
X27215000Y-13583405D01*
X27215000Y-14056000D01*
X27195315Y-14123039D01*
X27142511Y-14168794D01*
X27091000Y-14180000D01*
X27089000Y-14180000D01*
X27021961Y-14160315D01*
X26976206Y-14107511D01*
X26965000Y-14056000D01*
X26965000Y-13583406D01*
X26964998Y-13583405D01*
X26945375Y-13585989D01*
X26945370Y-13585990D01*
X26845491Y-13632565D01*
X26767566Y-13710490D01*
X26720990Y-13810372D01*
X26715000Y-13855876D01*
X26715000Y-13974391D01*
X26695315Y-14041430D01*
X26642511Y-14087185D01*
X26573353Y-14097129D01*
X26556067Y-14093369D01*
X26474772Y-14069500D01*
X26345228Y-14069500D01*
X26345226Y-14069500D01*
X26220935Y-14105994D01*
X26220932Y-14105995D01*
X26220931Y-14105996D01*
X26195358Y-14122431D01*
X26111950Y-14176033D01*
X26027118Y-14273937D01*
X26027117Y-14273938D01*
X25973302Y-14391774D01*
X25954867Y-14520000D01*
X25954867Y-14520004D01*
X25956396Y-14530641D01*
X25946451Y-14599799D01*
X25902550Y-14651385D01*
X25863495Y-14677482D01*
X25862887Y-14677888D01*
X25804760Y-14764882D01*
X25804758Y-14764886D01*
X25788311Y-14847572D01*
X25786178Y-14847147D01*
X25763666Y-14902852D01*
X25706619Y-14943194D01*
X25636818Y-14946289D01*
X25614932Y-14938674D01*
X25609063Y-14935993D01*
X25484774Y-14899500D01*
X25484772Y-14899500D01*
X25355228Y-14899500D01*
X25355223Y-14899500D01*
X25349649Y-14900301D01*
X25280491Y-14890353D01*
X25227691Y-14844594D01*
X25208011Y-14777553D01*
X25227700Y-14710515D01*
X25244325Y-14689886D01*
X26663056Y-13271156D01*
X26699753Y-13207593D01*
X26718750Y-13136698D01*
X26718750Y-13063302D01*
X26718750Y-12153302D01*
X26699753Y-12082407D01*
X26682433Y-12052407D01*
X26681043Y-12050000D01*
X26663057Y-12018846D01*
X26663056Y-12018844D01*
X26566029Y-11921817D01*
X26532544Y-11860494D01*
X26531242Y-11853567D01*
X26521574Y-11792518D01*
X26467573Y-11686535D01*
X26467571Y-11686533D01*
X26467568Y-11686529D01*
X26383470Y-11602431D01*
X26383466Y-11602428D01*
X26383465Y-11602427D01*
X26277482Y-11548426D01*
X26277480Y-11548425D01*
X26277477Y-11548424D01*
X26160003Y-11529819D01*
X26159997Y-11529819D01*
X26042522Y-11548424D01*
X26033240Y-11551441D01*
X26032677Y-11549708D01*
X25975602Y-11560424D01*
X25910863Y-11534144D01*
X25870610Y-11477035D01*
X25863984Y-11437044D01*
X25863984Y-10865995D01*
X25883669Y-10798956D01*
X25936473Y-10753201D01*
X26005631Y-10743257D01*
X26062296Y-10766729D01*
X26097910Y-10793390D01*
X26097913Y-10793392D01*
X26232620Y-10843634D01*
X26232627Y-10843636D01*
X26292155Y-10850037D01*
X26292172Y-10850038D01*
X26365000Y-10850038D01*
X26365000Y-8150038D01*
X26865000Y-8150038D01*
X26865000Y-10850038D01*
X26937828Y-10850038D01*
X26937844Y-10850037D01*
X26997372Y-10843636D01*
X26997376Y-10843635D01*
X27124628Y-10796173D01*
X27194320Y-10791189D01*
X27255643Y-10824674D01*
X27289128Y-10885997D01*
X27290577Y-10930836D01*
X27280858Y-10995318D01*
X27295560Y-11092853D01*
X27301099Y-11129604D01*
X27301099Y-11129607D01*
X27360019Y-11251956D01*
X27360986Y-11253123D01*
X27361430Y-11254155D01*
X27364095Y-11258310D01*
X27363407Y-11258751D01*
X27388598Y-11317306D01*
X27389500Y-11332234D01*
X27389500Y-11354307D01*
X27392353Y-11384737D01*
X27392353Y-11384739D01*
X27437206Y-11512918D01*
X27437207Y-11512920D01*
X27517850Y-11622188D01*
X27627118Y-11702831D01*
X27650923Y-11711160D01*
X27707697Y-11751881D01*
X27733445Y-11816833D01*
X27724528Y-11875653D01*
X27720330Y-11885786D01*
X27714500Y-11915098D01*
X27714500Y-11915100D01*
X27714500Y-11915101D01*
X27714500Y-12167482D01*
X27714501Y-12276000D01*
X27694817Y-12343039D01*
X27642013Y-12388794D01*
X27590501Y-12400000D01*
X27465373Y-12400000D01*
X27392459Y-12414503D01*
X27392455Y-12414505D01*
X27309760Y-12469760D01*
X27254505Y-12552455D01*
X27254503Y-12552459D01*
X27240000Y-12625371D01*
X27240000Y-12650000D01*
X28940000Y-12650000D01*
X28940000Y-12625373D01*
X28939999Y-12625371D01*
X28925496Y-12552459D01*
X28925494Y-12552455D01*
X28870239Y-12469760D01*
X28787544Y-12414505D01*
X28787540Y-12414503D01*
X28714627Y-12400000D01*
X28589500Y-12400000D01*
X28522461Y-12380315D01*
X28476706Y-12327511D01*
X28465500Y-12276000D01*
X28465499Y-11915105D01*
X28465498Y-11915097D01*
X28463853Y-11906826D01*
X28459669Y-11885787D01*
X28459666Y-11885783D01*
X28455471Y-11875652D01*
X28448004Y-11806182D01*
X28479280Y-11743704D01*
X28529075Y-11711161D01*
X28552882Y-11702831D01*
X28662150Y-11622188D01*
X28742793Y-11512920D01*
X28772765Y-11427265D01*
X28787646Y-11384739D01*
X28787646Y-11384737D01*
X28790500Y-11354307D01*
X28790500Y-11332234D01*
X28810185Y-11265195D01*
X28819014Y-11253123D01*
X28819978Y-11251960D01*
X28878901Y-11129605D01*
X28899142Y-10995318D01*
X28889422Y-10930834D01*
X28896853Y-10876530D01*
X36674500Y-10876530D01*
X36674500Y-11083469D01*
X36714868Y-11286412D01*
X36714870Y-11286420D01*
X36786694Y-11459819D01*
X36794059Y-11477598D01*
X36842436Y-11550000D01*
X36909024Y-11649657D01*
X37055342Y-11795975D01*
X37055345Y-11795977D01*
X37227402Y-11910941D01*
X37418580Y-11990130D01*
X37568743Y-12019999D01*
X37621530Y-12030499D01*
X37621534Y-12030500D01*
X37621535Y-12030500D01*
X38078466Y-12030500D01*
X38078467Y-12030499D01*
X38281420Y-11990130D01*
X38472598Y-11910941D01*
X38644655Y-11795977D01*
X38790977Y-11649655D01*
X38905941Y-11477598D01*
X38985130Y-11286420D01*
X39025500Y-11083465D01*
X39025500Y-10876535D01*
X38985130Y-10673580D01*
X38905941Y-10482402D01*
X38790977Y-10310345D01*
X38790975Y-10310342D01*
X38644657Y-10164024D01*
X38507152Y-10072147D01*
X38472598Y-10049059D01*
X38408305Y-10022428D01*
X38281420Y-9969870D01*
X38281412Y-9969868D01*
X38078469Y-9929500D01*
X38078465Y-9929500D01*
X37621535Y-9929500D01*
X37621530Y-9929500D01*
X37418587Y-9969868D01*
X37418579Y-9969870D01*
X37227403Y-10049058D01*
X37055342Y-10164024D01*
X36909024Y-10310342D01*
X36794058Y-10482403D01*
X36714870Y-10673579D01*
X36714868Y-10673587D01*
X36674500Y-10876530D01*
X28896853Y-10876530D01*
X28898894Y-10861613D01*
X28944288Y-10808499D01*
X29011192Y-10788358D01*
X29055370Y-10796173D01*
X29182620Y-10843634D01*
X29182627Y-10843636D01*
X29242155Y-10850037D01*
X29242172Y-10850038D01*
X29315000Y-10850038D01*
X29815000Y-10850038D01*
X29887828Y-10850038D01*
X29887844Y-10850037D01*
X29947372Y-10843636D01*
X29947379Y-10843634D01*
X30082086Y-10793392D01*
X30082093Y-10793388D01*
X30197187Y-10707228D01*
X30197190Y-10707225D01*
X30283350Y-10592131D01*
X30283354Y-10592124D01*
X30333596Y-10457417D01*
X30333598Y-10457410D01*
X30339999Y-10397882D01*
X30340000Y-10397865D01*
X30340000Y-10237313D01*
X30339999Y-10237313D01*
X30267181Y-10310131D01*
X30205858Y-10343615D01*
X30136166Y-10338631D01*
X30091819Y-10310130D01*
X29815000Y-10033310D01*
X29815000Y-10850038D01*
X29315000Y-10850038D01*
X29315000Y-9980000D01*
X31384867Y-9980000D01*
X31403302Y-10108225D01*
X31450934Y-10212522D01*
X31457118Y-10226063D01*
X31541951Y-10323967D01*
X31650931Y-10394004D01*
X31775225Y-10430499D01*
X31775227Y-10430500D01*
X31775228Y-10430500D01*
X31904773Y-10430500D01*
X31904773Y-10430499D01*
X32029069Y-10394004D01*
X32138049Y-10323967D01*
X32222882Y-10226063D01*
X32276697Y-10108226D01*
X32295133Y-9980000D01*
X32276697Y-9851774D01*
X32222882Y-9733937D01*
X32138049Y-9636033D01*
X32029069Y-9565996D01*
X32029065Y-9565994D01*
X32029064Y-9565994D01*
X31904774Y-9529500D01*
X31904772Y-9529500D01*
X31775228Y-9529500D01*
X31775226Y-9529500D01*
X31650935Y-9565994D01*
X31650932Y-9565995D01*
X31650931Y-9565996D01*
X31599677Y-9598934D01*
X31541950Y-9636033D01*
X31457118Y-9733937D01*
X31457117Y-9733938D01*
X31403302Y-9851774D01*
X31384867Y-9980000D01*
X29315000Y-9980000D01*
X29315000Y-9475037D01*
X29963833Y-9475037D01*
X29963833Y-9475039D01*
X30441128Y-9952334D01*
X30441129Y-9952334D01*
X30530237Y-9863226D01*
X30600757Y-9771326D01*
X30600759Y-9771323D01*
X30659954Y-9628410D01*
X30659956Y-9628405D01*
X30680147Y-9475039D01*
X30680147Y-9475036D01*
X30667635Y-9379996D01*
X33289819Y-9379996D01*
X33289819Y-9380003D01*
X33308424Y-9497477D01*
X33308424Y-9497478D01*
X33308425Y-9497481D01*
X33308426Y-9497482D01*
X33327168Y-9534266D01*
X33362428Y-9603466D01*
X33362431Y-9603470D01*
X33446529Y-9687568D01*
X33446533Y-9687571D01*
X33446535Y-9687573D01*
X33552518Y-9741574D01*
X33552520Y-9741574D01*
X33552522Y-9741575D01*
X33669997Y-9760181D01*
X33670000Y-9760181D01*
X33670003Y-9760181D01*
X33787477Y-9741575D01*
X33787478Y-9741575D01*
X33787479Y-9741574D01*
X33787482Y-9741574D01*
X33893465Y-9687573D01*
X33977573Y-9603465D01*
X34031574Y-9497482D01*
X34032738Y-9490131D01*
X34050181Y-9380003D01*
X34050181Y-9379996D01*
X34031575Y-9262522D01*
X34031575Y-9262521D01*
X34031574Y-9262519D01*
X34031574Y-9262518D01*
X33977573Y-9156535D01*
X33977571Y-9156533D01*
X33977568Y-9156529D01*
X33893470Y-9072431D01*
X33893466Y-9072428D01*
X33893465Y-9072427D01*
X33787482Y-9018426D01*
X33787480Y-9018425D01*
X33787477Y-9018424D01*
X33670003Y-8999819D01*
X33669997Y-8999819D01*
X33552522Y-9018424D01*
X33552521Y-9018424D01*
X33446533Y-9072428D01*
X33446529Y-9072431D01*
X33362431Y-9156529D01*
X33362428Y-9156533D01*
X33308424Y-9262521D01*
X33308424Y-9262522D01*
X33289819Y-9379996D01*
X30667635Y-9379996D01*
X30659956Y-9321670D01*
X30659954Y-9321665D01*
X30600759Y-9178753D01*
X30600757Y-9178750D01*
X30530233Y-9086843D01*
X30441129Y-8997740D01*
X29963833Y-9475037D01*
X29315000Y-9475037D01*
X29315000Y-8916763D01*
X29815000Y-8916763D01*
X30091819Y-8639944D01*
X30153142Y-8606459D01*
X30222833Y-8611443D01*
X30267181Y-8639943D01*
X30340000Y-8712761D01*
X30340000Y-8602210D01*
X30339999Y-8602193D01*
X30333598Y-8542665D01*
X30333596Y-8542658D01*
X30283354Y-8407951D01*
X30283350Y-8407944D01*
X30259833Y-8376530D01*
X36674500Y-8376530D01*
X36674500Y-8583469D01*
X36714868Y-8786412D01*
X36714870Y-8786420D01*
X36770277Y-8920185D01*
X36794059Y-8977598D01*
X36834989Y-9038855D01*
X36909024Y-9149657D01*
X37055342Y-9295975D01*
X37055345Y-9295977D01*
X37227402Y-9410941D01*
X37418580Y-9490130D01*
X37589189Y-9524066D01*
X37621530Y-9530499D01*
X37621534Y-9530500D01*
X37621535Y-9530500D01*
X38078466Y-9530500D01*
X38078467Y-9530499D01*
X38281420Y-9490130D01*
X38472598Y-9410941D01*
X38644655Y-9295977D01*
X38790977Y-9149655D01*
X38905941Y-8977598D01*
X38985130Y-8786420D01*
X39025500Y-8583465D01*
X39025500Y-8376535D01*
X38985130Y-8173580D01*
X38905941Y-7982402D01*
X38790977Y-7810345D01*
X38790975Y-7810342D01*
X38644657Y-7664024D01*
X38550639Y-7601204D01*
X38472598Y-7549059D01*
X38397294Y-7517867D01*
X38281420Y-7469870D01*
X38281412Y-7469868D01*
X38078469Y-7429500D01*
X38078465Y-7429500D01*
X37621535Y-7429500D01*
X37621530Y-7429500D01*
X37418587Y-7469868D01*
X37418579Y-7469870D01*
X37227403Y-7549058D01*
X37055342Y-7664024D01*
X36909024Y-7810342D01*
X36794058Y-7982403D01*
X36714870Y-8173579D01*
X36714868Y-8173587D01*
X36674500Y-8376530D01*
X30259833Y-8376530D01*
X30197190Y-8292850D01*
X30197187Y-8292847D01*
X30082093Y-8206687D01*
X30082086Y-8206683D01*
X29947379Y-8156441D01*
X29947372Y-8156439D01*
X29887844Y-8150038D01*
X29815000Y-8150038D01*
X29815000Y-8916763D01*
X29315000Y-8916763D01*
X29315000Y-8150038D01*
X29275553Y-8150038D01*
X29208514Y-8130353D01*
X29162759Y-8077549D01*
X29152614Y-8009853D01*
X29159867Y-7954758D01*
X29159867Y-7954756D01*
X29139676Y-7801390D01*
X29139674Y-7801385D01*
X29080479Y-7658473D01*
X29080477Y-7658470D01*
X29009953Y-7566563D01*
X28920849Y-7477460D01*
X28354457Y-8043853D01*
X28293134Y-8077338D01*
X28223443Y-8072354D01*
X28179095Y-8043853D01*
X28090000Y-7954758D01*
X28000904Y-8043854D01*
X27939581Y-8077338D01*
X27869889Y-8072354D01*
X27825542Y-8043853D01*
X27259150Y-7477461D01*
X27170046Y-7566565D01*
X27170042Y-7566570D01*
X27099522Y-7658469D01*
X27099520Y-7658472D01*
X27040325Y-7801385D01*
X27040323Y-7801390D01*
X27020133Y-7954756D01*
X27020133Y-7954758D01*
X27027386Y-8009853D01*
X27016620Y-8078888D01*
X26970240Y-8131144D01*
X26904447Y-8150038D01*
X26865000Y-8150038D01*
X26365000Y-8150038D01*
X26292155Y-8150038D01*
X26232627Y-8156439D01*
X26232620Y-8156441D01*
X26097913Y-8206683D01*
X26097910Y-8206685D01*
X26062295Y-8233347D01*
X25996830Y-8257764D01*
X25928557Y-8242912D01*
X25879152Y-8193507D01*
X25863984Y-8134080D01*
X25863984Y-8011590D01*
X25883669Y-7944551D01*
X25900303Y-7923909D01*
X26173102Y-7651110D01*
X26493055Y-7331157D01*
X26529753Y-7267594D01*
X26541861Y-7222406D01*
X26548750Y-7196698D01*
X26548750Y-6954500D01*
X26568435Y-6887461D01*
X26621239Y-6841706D01*
X26672750Y-6830500D01*
X27033261Y-6830500D01*
X27061036Y-6826453D01*
X27101393Y-6820573D01*
X27206483Y-6769198D01*
X27289198Y-6686483D01*
X27340573Y-6581393D01*
X27350500Y-6513260D01*
X27350500Y-5046740D01*
X27350500Y-5046739D01*
X27599500Y-5046739D01*
X27599500Y-6513260D01*
X27609426Y-6581391D01*
X27660803Y-6686485D01*
X27743514Y-6769196D01*
X27743515Y-6769196D01*
X27743517Y-6769198D01*
X27749634Y-6772188D01*
X27801217Y-6819314D01*
X27819134Y-6886847D01*
X27797695Y-6953347D01*
X27770665Y-6981965D01*
X27701806Y-7034803D01*
X27612702Y-7123907D01*
X28090000Y-7601204D01*
X28090001Y-7601204D01*
X28567296Y-7123908D01*
X28478195Y-7034807D01*
X28478190Y-7034803D01*
X28417116Y-6987937D01*
X28375915Y-6931508D01*
X28374634Y-6909996D01*
X33269819Y-6909996D01*
X33269819Y-6910003D01*
X33288424Y-7027477D01*
X33288424Y-7027478D01*
X33288425Y-7027481D01*
X33288426Y-7027482D01*
X33341246Y-7131148D01*
X33342428Y-7133466D01*
X33342431Y-7133470D01*
X33426529Y-7217568D01*
X33426533Y-7217571D01*
X33426535Y-7217573D01*
X33532518Y-7271574D01*
X33532520Y-7271574D01*
X33532522Y-7271575D01*
X33649997Y-7290181D01*
X33650000Y-7290181D01*
X33650003Y-7290181D01*
X33767477Y-7271575D01*
X33767478Y-7271575D01*
X33767479Y-7271574D01*
X33767482Y-7271574D01*
X33873465Y-7217573D01*
X33957573Y-7133465D01*
X34011574Y-7027482D01*
X34013217Y-7017110D01*
X34030181Y-6910003D01*
X34030181Y-6909996D01*
X34011575Y-6792522D01*
X34011575Y-6792521D01*
X34011574Y-6792519D01*
X34011574Y-6792518D01*
X33957573Y-6686535D01*
X33957571Y-6686533D01*
X33957568Y-6686529D01*
X33873470Y-6602431D01*
X33873466Y-6602428D01*
X33873465Y-6602427D01*
X33767482Y-6548426D01*
X33767480Y-6548425D01*
X33767477Y-6548424D01*
X33650003Y-6529819D01*
X33649997Y-6529819D01*
X33532522Y-6548424D01*
X33532521Y-6548424D01*
X33426533Y-6602428D01*
X33426529Y-6602431D01*
X33342431Y-6686529D01*
X33342428Y-6686533D01*
X33288424Y-6792521D01*
X33288424Y-6792522D01*
X33269819Y-6909996D01*
X28374634Y-6909996D01*
X28371762Y-6861762D01*
X28405975Y-6800843D01*
X28438143Y-6778163D01*
X28456483Y-6769198D01*
X28539198Y-6686483D01*
X28590573Y-6581393D01*
X28600500Y-6513260D01*
X28600500Y-5046740D01*
X28590573Y-4978607D01*
X28539198Y-4873517D01*
X28539196Y-4873515D01*
X28539196Y-4873514D01*
X28502365Y-4836683D01*
X28468880Y-4775360D01*
X28467573Y-4729604D01*
X28467896Y-4727568D01*
X28475069Y-4682274D01*
X28480181Y-4650001D01*
X28480181Y-4649996D01*
X28461575Y-4532522D01*
X28461575Y-4532521D01*
X28461574Y-4532519D01*
X28461574Y-4532518D01*
X28407573Y-4426535D01*
X28407571Y-4426533D01*
X28407568Y-4426529D01*
X28323470Y-4342431D01*
X28323466Y-4342428D01*
X28323465Y-4342427D01*
X28217482Y-4288426D01*
X28217480Y-4288425D01*
X28217477Y-4288424D01*
X28100003Y-4269819D01*
X28099997Y-4269819D01*
X27982522Y-4288424D01*
X27982521Y-4288424D01*
X27876533Y-4342428D01*
X27876529Y-4342431D01*
X27792431Y-4426529D01*
X27792428Y-4426533D01*
X27738424Y-4532521D01*
X27738424Y-4532522D01*
X27719819Y-4649996D01*
X27719819Y-4649997D01*
X27719819Y-4650000D01*
X27721403Y-4660000D01*
X27732427Y-4729605D01*
X27723471Y-4798898D01*
X27697635Y-4836682D01*
X27660803Y-4873514D01*
X27609426Y-4978608D01*
X27599500Y-5046739D01*
X27350500Y-5046739D01*
X27340573Y-4978607D01*
X27289198Y-4873517D01*
X27289196Y-4873515D01*
X27289196Y-4873514D01*
X27252365Y-4836683D01*
X27218880Y-4775360D01*
X27217573Y-4729604D01*
X27217896Y-4727568D01*
X27225069Y-4682274D01*
X27230181Y-4650001D01*
X27230181Y-4649996D01*
X27211575Y-4532522D01*
X27211575Y-4532521D01*
X27211574Y-4532519D01*
X27211574Y-4532518D01*
X27157573Y-4426535D01*
X27157571Y-4426533D01*
X27157568Y-4426529D01*
X27073470Y-4342431D01*
X27073466Y-4342428D01*
X27073465Y-4342427D01*
X26967482Y-4288426D01*
X26967480Y-4288425D01*
X26967477Y-4288424D01*
X26850003Y-4269819D01*
X26849997Y-4269819D01*
X26732522Y-4288424D01*
X26732521Y-4288424D01*
X26626533Y-4342428D01*
X26626529Y-4342431D01*
X26542431Y-4426529D01*
X26542428Y-4426533D01*
X26488424Y-4532521D01*
X26488424Y-4532522D01*
X26469819Y-4649996D01*
X26469819Y-4649997D01*
X26469819Y-4650000D01*
X26471403Y-4660000D01*
X26482427Y-4729605D01*
X26473471Y-4798898D01*
X26447635Y-4836682D01*
X26410803Y-4873514D01*
X26359426Y-4978608D01*
X26349500Y-5046739D01*
X26349500Y-5555925D01*
X26329815Y-5622964D01*
X26277011Y-5668719D01*
X26207853Y-5678663D01*
X26144297Y-5649638D01*
X26137819Y-5643606D01*
X25641158Y-5146946D01*
X25641156Y-5146944D01*
X25614290Y-5131433D01*
X25577593Y-5110247D01*
X25506698Y-5091250D01*
X25506696Y-5091250D01*
X25036824Y-5091250D01*
X24969785Y-5071565D01*
X24949143Y-5054931D01*
X24535069Y-4640857D01*
X24501584Y-4579534D01*
X24498750Y-4553176D01*
X24498750Y-4296175D01*
X24518435Y-4229136D01*
X24571239Y-4183381D01*
X24636007Y-4172886D01*
X24702158Y-4179999D01*
X24702172Y-4180000D01*
X24750000Y-4180000D01*
X25250000Y-4180000D01*
X25297828Y-4180000D01*
X25297844Y-4179999D01*
X25357372Y-4173598D01*
X25357379Y-4173596D01*
X25492086Y-4123354D01*
X25492093Y-4123350D01*
X25607187Y-4037190D01*
X25607190Y-4037187D01*
X25693350Y-3922093D01*
X25693354Y-3922086D01*
X25743596Y-3787379D01*
X25743598Y-3787372D01*
X25749999Y-3727844D01*
X25750000Y-3727827D01*
X25750000Y-3180000D01*
X28344901Y-3180000D01*
X28363252Y-3366331D01*
X28363253Y-3366333D01*
X28417604Y-3545502D01*
X28505862Y-3710623D01*
X28505864Y-3710626D01*
X28624642Y-3855357D01*
X28769373Y-3974135D01*
X28769374Y-3974135D01*
X28769375Y-3974136D01*
X28777852Y-3978667D01*
X28783951Y-3981927D01*
X28833796Y-4030888D01*
X28849500Y-4091286D01*
X28849500Y-6513260D01*
X28859426Y-6581391D01*
X28910803Y-6686485D01*
X28993514Y-6769196D01*
X28993515Y-6769196D01*
X28993517Y-6769198D01*
X29098607Y-6820573D01*
X29118360Y-6823451D01*
X29166739Y-6830500D01*
X29166740Y-6830500D01*
X29533261Y-6830500D01*
X29561036Y-6826453D01*
X29601393Y-6820573D01*
X29706483Y-6769198D01*
X29789198Y-6686483D01*
X29836042Y-6590660D01*
X29883169Y-6539080D01*
X29950703Y-6521165D01*
X30017201Y-6542606D01*
X30061552Y-6596594D01*
X30064528Y-6604548D01*
X30122356Y-6718041D01*
X30122363Y-6718050D01*
X30211949Y-6807636D01*
X30211954Y-6807639D01*
X30324854Y-6865165D01*
X30349998Y-6869147D01*
X30350000Y-6869146D01*
X30850000Y-6869146D01*
X30850001Y-6869147D01*
X30875145Y-6865165D01*
X30988045Y-6807639D01*
X30988050Y-6807636D01*
X31077636Y-6718050D01*
X31077639Y-6718046D01*
X31135166Y-6605144D01*
X31150000Y-6511486D01*
X31150000Y-6030000D01*
X30850000Y-6030000D01*
X30850000Y-6869146D01*
X30350000Y-6869146D01*
X30350000Y-5876530D01*
X36674500Y-5876530D01*
X36674500Y-6083469D01*
X36714868Y-6286412D01*
X36714870Y-6286420D01*
X36767841Y-6414304D01*
X36794059Y-6477598D01*
X36821226Y-6518257D01*
X36909024Y-6649657D01*
X37055342Y-6795975D01*
X37055345Y-6795977D01*
X37227402Y-6910941D01*
X37418580Y-6990130D01*
X37621530Y-7030499D01*
X37621534Y-7030500D01*
X37621535Y-7030500D01*
X38078466Y-7030500D01*
X38078467Y-7030499D01*
X38281420Y-6990130D01*
X38472598Y-6910941D01*
X38644655Y-6795977D01*
X38790977Y-6649655D01*
X38905941Y-6477598D01*
X38985130Y-6286420D01*
X39025500Y-6083465D01*
X39025500Y-5876535D01*
X38985130Y-5673580D01*
X38905941Y-5482402D01*
X38790977Y-5310345D01*
X38790975Y-5310342D01*
X38644657Y-5164024D01*
X38481386Y-5054931D01*
X38472598Y-5049059D01*
X38466999Y-5046740D01*
X38281420Y-4969870D01*
X38281412Y-4969868D01*
X38078469Y-4929500D01*
X38078465Y-4929500D01*
X37621535Y-4929500D01*
X37621530Y-4929500D01*
X37418587Y-4969868D01*
X37418579Y-4969870D01*
X37227403Y-5049058D01*
X37055342Y-5164024D01*
X36909024Y-5310342D01*
X36794058Y-5482403D01*
X36714870Y-5673579D01*
X36714868Y-5673587D01*
X36674500Y-5876530D01*
X30350000Y-5876530D01*
X30350000Y-5530000D01*
X30850000Y-5530000D01*
X31149999Y-5530000D01*
X31149999Y-5048520D01*
X31135164Y-4954850D01*
X31135162Y-4954844D01*
X31077643Y-4841958D01*
X31077636Y-4841949D01*
X30988050Y-4752363D01*
X30988046Y-4752360D01*
X30875143Y-4694833D01*
X30850000Y-4690851D01*
X30850000Y-5530000D01*
X30350000Y-5530000D01*
X30350000Y-4690851D01*
X30324856Y-4694833D01*
X30211953Y-4752360D01*
X30211949Y-4752363D01*
X30122363Y-4841949D01*
X30122360Y-4841954D01*
X30084985Y-4915306D01*
X30037010Y-4966102D01*
X29969189Y-4982897D01*
X29903054Y-4960359D01*
X29859603Y-4905644D01*
X29850500Y-4859011D01*
X29850500Y-4419996D01*
X33269819Y-4419996D01*
X33269819Y-4420003D01*
X33288424Y-4537477D01*
X33288424Y-4537478D01*
X33288425Y-4537481D01*
X33288426Y-4537482D01*
X33341098Y-4640857D01*
X33342428Y-4643466D01*
X33342431Y-4643470D01*
X33426529Y-4727568D01*
X33426533Y-4727571D01*
X33426535Y-4727573D01*
X33532518Y-4781574D01*
X33532520Y-4781574D01*
X33532522Y-4781575D01*
X33649997Y-4800181D01*
X33650000Y-4800181D01*
X33650003Y-4800181D01*
X33767477Y-4781575D01*
X33767478Y-4781575D01*
X33767479Y-4781574D01*
X33767482Y-4781574D01*
X33873465Y-4727573D01*
X33957573Y-4643465D01*
X34011574Y-4537482D01*
X34012680Y-4530499D01*
X34030181Y-4420003D01*
X34030181Y-4419996D01*
X34011575Y-4302522D01*
X34011575Y-4302521D01*
X34011574Y-4302519D01*
X34011574Y-4302518D01*
X33957573Y-4196535D01*
X33957571Y-4196533D01*
X33957568Y-4196529D01*
X33873470Y-4112431D01*
X33873466Y-4112428D01*
X33873465Y-4112427D01*
X33767482Y-4058426D01*
X33767480Y-4058425D01*
X33767477Y-4058424D01*
X33650003Y-4039819D01*
X33649997Y-4039819D01*
X33532522Y-4058424D01*
X33532521Y-4058424D01*
X33426533Y-4112428D01*
X33426529Y-4112431D01*
X33342431Y-4196529D01*
X33342428Y-4196533D01*
X33288424Y-4302521D01*
X33288424Y-4302522D01*
X33269819Y-4419996D01*
X29850500Y-4419996D01*
X29850500Y-4016471D01*
X29870185Y-3949432D01*
X29895833Y-3920620D01*
X29975357Y-3855357D01*
X30080005Y-3727844D01*
X31700000Y-3727844D01*
X31706401Y-3787372D01*
X31706403Y-3787379D01*
X31756645Y-3922086D01*
X31756649Y-3922093D01*
X31842809Y-4037187D01*
X31842812Y-4037190D01*
X31957906Y-4123350D01*
X31957913Y-4123354D01*
X32092620Y-4173596D01*
X32092627Y-4173598D01*
X32152155Y-4179999D01*
X32152172Y-4180000D01*
X32200000Y-4180000D01*
X32700000Y-4180000D01*
X32747828Y-4180000D01*
X32747844Y-4179999D01*
X32807372Y-4173598D01*
X32807379Y-4173596D01*
X32942086Y-4123354D01*
X32942093Y-4123350D01*
X33057187Y-4037190D01*
X33057190Y-4037187D01*
X33143350Y-3922093D01*
X33143354Y-3922086D01*
X33193596Y-3787379D01*
X33193598Y-3787372D01*
X33199999Y-3727844D01*
X33200000Y-3727827D01*
X33200000Y-3376530D01*
X36674500Y-3376530D01*
X36674500Y-3583469D01*
X36714868Y-3786412D01*
X36714870Y-3786420D01*
X36792624Y-3974135D01*
X36794059Y-3977598D01*
X36848065Y-4058424D01*
X36909024Y-4149657D01*
X37055342Y-4295975D01*
X37055345Y-4295977D01*
X37227402Y-4410941D01*
X37418580Y-4490130D01*
X37621530Y-4530499D01*
X37621534Y-4530500D01*
X37621535Y-4530500D01*
X38078466Y-4530500D01*
X38078467Y-4530499D01*
X38281420Y-4490130D01*
X38472598Y-4410941D01*
X38644655Y-4295977D01*
X38790977Y-4149655D01*
X38905941Y-3977598D01*
X38985130Y-3786420D01*
X39025500Y-3583465D01*
X39025500Y-3376535D01*
X38985130Y-3173580D01*
X38905941Y-2982402D01*
X38790977Y-2810345D01*
X38790975Y-2810342D01*
X38644657Y-2664024D01*
X38550932Y-2601400D01*
X38472598Y-2549059D01*
X38407996Y-2522300D01*
X38281420Y-2469870D01*
X38281412Y-2469868D01*
X38078469Y-2429500D01*
X38078465Y-2429500D01*
X37621535Y-2429500D01*
X37621530Y-2429500D01*
X37418587Y-2469868D01*
X37418579Y-2469870D01*
X37227403Y-2549058D01*
X37055342Y-2664024D01*
X36909024Y-2810342D01*
X36794058Y-2982403D01*
X36714870Y-3173579D01*
X36714868Y-3173587D01*
X36674500Y-3376530D01*
X33200000Y-3376530D01*
X33200000Y-2830000D01*
X32700000Y-2830000D01*
X32700000Y-4180000D01*
X32200000Y-4180000D01*
X32200000Y-2830000D01*
X31700000Y-2830000D01*
X31700000Y-3727844D01*
X30080005Y-3727844D01*
X30094136Y-3710625D01*
X30182396Y-3545501D01*
X30236747Y-3366331D01*
X30255099Y-3180000D01*
X30236747Y-2993669D01*
X30182396Y-2814499D01*
X30171269Y-2793681D01*
X30094137Y-2649376D01*
X30094135Y-2649373D01*
X29975357Y-2504642D01*
X29830626Y-2385864D01*
X29830623Y-2385862D01*
X29665502Y-2297604D01*
X29486333Y-2243253D01*
X29486331Y-2243252D01*
X29300000Y-2224901D01*
X29113668Y-2243252D01*
X29113666Y-2243253D01*
X28934497Y-2297604D01*
X28769376Y-2385862D01*
X28769373Y-2385864D01*
X28624642Y-2504642D01*
X28505864Y-2649373D01*
X28505862Y-2649376D01*
X28417604Y-2814497D01*
X28363253Y-2993666D01*
X28363252Y-2993668D01*
X28344901Y-3180000D01*
X25750000Y-3180000D01*
X25750000Y-2830000D01*
X25250000Y-2830000D01*
X25250000Y-4180000D01*
X24750000Y-4180000D01*
X24750000Y-2830000D01*
X24341673Y-2830000D01*
X24274634Y-2810315D01*
X24253992Y-2793681D01*
X22892466Y-1432155D01*
X24250000Y-1432155D01*
X24250000Y-2330000D01*
X24750000Y-2330000D01*
X25250000Y-2330000D01*
X25750000Y-2330000D01*
X25750000Y-1432172D01*
X25749999Y-1432155D01*
X31700000Y-1432155D01*
X31700000Y-2330000D01*
X32200000Y-2330000D01*
X32700000Y-2330000D01*
X33200000Y-2330000D01*
X33200000Y-2280401D01*
X33219685Y-2213362D01*
X33272489Y-2167607D01*
X33341647Y-2157663D01*
X33405203Y-2186688D01*
X33411681Y-2192720D01*
X33436529Y-2217568D01*
X33436533Y-2217571D01*
X33436535Y-2217573D01*
X33542518Y-2271574D01*
X33542520Y-2271574D01*
X33542522Y-2271575D01*
X33659997Y-2290181D01*
X33660000Y-2290181D01*
X33660003Y-2290181D01*
X33777477Y-2271575D01*
X33777478Y-2271575D01*
X33777479Y-2271574D01*
X33777482Y-2271574D01*
X33883465Y-2217573D01*
X33967573Y-2133465D01*
X34021574Y-2027482D01*
X34021575Y-2027477D01*
X34040181Y-1910003D01*
X34040181Y-1909996D01*
X34021575Y-1792522D01*
X34021575Y-1792521D01*
X34021574Y-1792519D01*
X34021574Y-1792518D01*
X33967573Y-1686535D01*
X33967571Y-1686533D01*
X33967568Y-1686529D01*
X33883470Y-1602431D01*
X33883466Y-1602428D01*
X33883465Y-1602427D01*
X33777482Y-1548426D01*
X33777480Y-1548425D01*
X33777477Y-1548424D01*
X33660003Y-1529819D01*
X33659997Y-1529819D01*
X33542522Y-1548424D01*
X33542521Y-1548424D01*
X33436533Y-1602428D01*
X33436529Y-1602431D01*
X33411681Y-1627280D01*
X33350358Y-1660765D01*
X33280666Y-1655781D01*
X33224733Y-1613909D01*
X33200316Y-1548445D01*
X33200000Y-1539599D01*
X33200000Y-1432172D01*
X33199999Y-1432155D01*
X33193598Y-1372627D01*
X33193596Y-1372620D01*
X33143354Y-1237913D01*
X33143350Y-1237906D01*
X33057190Y-1122812D01*
X33057187Y-1122809D01*
X32942093Y-1036649D01*
X32942086Y-1036645D01*
X32807379Y-986403D01*
X32807372Y-986401D01*
X32747844Y-980000D01*
X32700000Y-980000D01*
X32700000Y-2330000D01*
X32200000Y-2330000D01*
X32200000Y-980000D01*
X32152155Y-980000D01*
X32092627Y-986401D01*
X32092620Y-986403D01*
X31957913Y-1036645D01*
X31957906Y-1036649D01*
X31842812Y-1122809D01*
X31842809Y-1122812D01*
X31756649Y-1237906D01*
X31756645Y-1237913D01*
X31706403Y-1372620D01*
X31706401Y-1372627D01*
X31700000Y-1432155D01*
X25749999Y-1432155D01*
X25743598Y-1372627D01*
X25743596Y-1372620D01*
X25693354Y-1237913D01*
X25693350Y-1237906D01*
X25607190Y-1122812D01*
X25607187Y-1122809D01*
X25492093Y-1036649D01*
X25492086Y-1036645D01*
X25357379Y-986403D01*
X25357372Y-986401D01*
X25297844Y-980000D01*
X25250000Y-980000D01*
X25250000Y-2330000D01*
X24750000Y-2330000D01*
X24750000Y-980000D01*
X24702155Y-980000D01*
X24642627Y-986401D01*
X24642620Y-986403D01*
X24507913Y-1036645D01*
X24507906Y-1036649D01*
X24392812Y-1122809D01*
X24392809Y-1122812D01*
X24306649Y-1237906D01*
X24306645Y-1237913D01*
X24256403Y-1372620D01*
X24256401Y-1372627D01*
X24250000Y-1432155D01*
X22892466Y-1432155D01*
X22172492Y-712181D01*
X22139007Y-650858D01*
X22143991Y-581166D01*
X22185863Y-525233D01*
X22251327Y-500816D01*
X22260173Y-500500D01*
X45375500Y-500500D01*
X45442539Y-520185D01*
X45488294Y-572989D01*
X45499500Y-624500D01*
X45499500Y-21375500D01*
X45479815Y-21442539D01*
X45427011Y-21488294D01*
X45375500Y-21499500D01*
X624500Y-21499500D01*
X557461Y-21479815D01*
X511706Y-21427011D01*
X500500Y-21375500D01*
X500500Y-19639999D01*
X1072471Y-19639999D01*
X1072472Y-19640000D01*
X1711988Y-19640000D01*
X1679075Y-19697007D01*
X1645000Y-19824174D01*
X1645000Y-19955826D01*
X1679075Y-20082993D01*
X1711988Y-20140000D01*
X1072472Y-20140000D01*
X1114885Y-20289065D01*
X1114890Y-20289078D01*
X1205754Y-20471556D01*
X1328608Y-20634242D01*
X1479260Y-20771578D01*
X1652584Y-20878897D01*
X1842678Y-20952539D01*
X1895000Y-20962320D01*
X1895000Y-20323012D01*
X1952007Y-20355925D01*
X2079174Y-20390000D01*
X2210826Y-20390000D01*
X2337993Y-20355925D01*
X2395000Y-20323012D01*
X2395000Y-20962320D01*
X2447321Y-20952539D01*
X2637415Y-20878897D01*
X2810739Y-20771578D01*
X2961391Y-20634242D01*
X3084245Y-20471556D01*
X3175109Y-20289078D01*
X3175114Y-20289065D01*
X3217528Y-20140000D01*
X2578012Y-20140000D01*
X2610925Y-20082993D01*
X2645000Y-19955826D01*
X2645000Y-19824174D01*
X2610925Y-19697007D01*
X2578012Y-19640000D01*
X3217528Y-19640000D01*
X3217528Y-19639999D01*
X3175114Y-19490934D01*
X3175109Y-19490921D01*
X3084245Y-19308443D01*
X2961391Y-19145757D01*
X2810739Y-19008421D01*
X2637413Y-18901101D01*
X2447315Y-18827458D01*
X2447309Y-18827456D01*
X2395001Y-18817677D01*
X2395000Y-18817679D01*
X2395000Y-19456988D01*
X2337993Y-19424075D01*
X2210826Y-19390000D01*
X2079174Y-19390000D01*
X1952007Y-19424075D01*
X1895000Y-19456988D01*
X1895000Y-18817679D01*
X1894998Y-18817677D01*
X1842690Y-18827456D01*
X1842684Y-18827458D01*
X1652586Y-18901101D01*
X1479260Y-19008421D01*
X1328608Y-19145757D01*
X1205754Y-19308443D01*
X1114890Y-19490921D01*
X1114885Y-19490934D01*
X1072471Y-19639999D01*
X500500Y-19639999D01*
X500500Y-17099999D01*
X1072471Y-17099999D01*
X1072472Y-17100000D01*
X1711988Y-17100000D01*
X1679075Y-17157007D01*
X1645000Y-17284174D01*
X1645000Y-17415826D01*
X1679075Y-17542993D01*
X1711988Y-17600000D01*
X1072472Y-17600000D01*
X1114885Y-17749065D01*
X1114890Y-17749078D01*
X1205754Y-17931556D01*
X1328608Y-18094242D01*
X1479260Y-18231578D01*
X1652584Y-18338897D01*
X1842678Y-18412539D01*
X1895000Y-18422320D01*
X1895000Y-17783012D01*
X1952007Y-17815925D01*
X2079174Y-17850000D01*
X2210826Y-17850000D01*
X2337993Y-17815925D01*
X2395000Y-17783012D01*
X2395000Y-18422320D01*
X2447321Y-18412539D01*
X2637415Y-18338897D01*
X2810739Y-18231578D01*
X2961391Y-18094242D01*
X3084245Y-17931556D01*
X3175109Y-17749078D01*
X3175114Y-17749065D01*
X3217528Y-17600000D01*
X2578012Y-17600000D01*
X2610925Y-17542993D01*
X2645000Y-17415826D01*
X2645000Y-17284174D01*
X2610925Y-17157007D01*
X2578012Y-17100000D01*
X3217528Y-17100000D01*
X3217528Y-17099999D01*
X3175114Y-16950934D01*
X3175109Y-16950921D01*
X3084245Y-16768443D01*
X2961391Y-16605757D01*
X2810739Y-16468421D01*
X2637413Y-16361101D01*
X2447315Y-16287458D01*
X2447309Y-16287456D01*
X2395001Y-16277677D01*
X2395000Y-16277679D01*
X2395000Y-16916988D01*
X2337993Y-16884075D01*
X2210826Y-16850000D01*
X2079174Y-16850000D01*
X1952007Y-16884075D01*
X1895000Y-16916988D01*
X1895000Y-16277679D01*
X1894998Y-16277677D01*
X1842690Y-16287456D01*
X1842684Y-16287458D01*
X1652586Y-16361101D01*
X1479260Y-16468421D01*
X1328608Y-16605757D01*
X1205754Y-16768443D01*
X1114890Y-16950921D01*
X1114885Y-16950934D01*
X1072471Y-17099999D01*
X500500Y-17099999D01*
X500500Y-14559999D01*
X1072471Y-14559999D01*
X1072472Y-14560000D01*
X1711988Y-14560000D01*
X1679075Y-14617007D01*
X1645000Y-14744174D01*
X1645000Y-14875826D01*
X1679075Y-15002993D01*
X1711988Y-15060000D01*
X1072472Y-15060000D01*
X1114885Y-15209065D01*
X1114890Y-15209078D01*
X1205754Y-15391556D01*
X1328608Y-15554242D01*
X1479260Y-15691578D01*
X1652584Y-15798897D01*
X1842678Y-15872539D01*
X1895000Y-15882320D01*
X1895000Y-15243012D01*
X1952007Y-15275925D01*
X2079174Y-15310000D01*
X2210826Y-15310000D01*
X2337993Y-15275925D01*
X2395000Y-15243012D01*
X2395000Y-15882320D01*
X2447321Y-15872539D01*
X2637415Y-15798897D01*
X2810739Y-15691578D01*
X2961391Y-15554242D01*
X3084245Y-15391556D01*
X3175109Y-15209078D01*
X3175114Y-15209065D01*
X3217528Y-15060000D01*
X2578012Y-15060000D01*
X2610925Y-15002993D01*
X2645000Y-14875826D01*
X2645000Y-14744174D01*
X2610925Y-14617007D01*
X2578012Y-14560000D01*
X3217528Y-14560000D01*
X3217528Y-14559999D01*
X3175114Y-14410934D01*
X3175109Y-14410921D01*
X3084245Y-14228443D01*
X2961391Y-14065757D01*
X2810739Y-13928421D01*
X2637413Y-13821101D01*
X2447315Y-13747458D01*
X2447309Y-13747456D01*
X2395001Y-13737677D01*
X2395000Y-13737679D01*
X2395000Y-14376988D01*
X2337993Y-14344075D01*
X2210826Y-14310000D01*
X2079174Y-14310000D01*
X1952007Y-14344075D01*
X1895000Y-14376988D01*
X1895000Y-13737679D01*
X1894998Y-13737677D01*
X1842690Y-13747456D01*
X1842684Y-13747458D01*
X1652586Y-13821101D01*
X1479260Y-13928421D01*
X1328608Y-14065757D01*
X1205754Y-14228443D01*
X1114890Y-14410921D01*
X1114885Y-14410934D01*
X1072471Y-14559999D01*
X500500Y-14559999D01*
X500500Y-12019999D01*
X1072471Y-12019999D01*
X1072472Y-12020000D01*
X1711988Y-12020000D01*
X1679075Y-12077007D01*
X1645000Y-12204174D01*
X1645000Y-12335826D01*
X1679075Y-12462993D01*
X1711988Y-12520000D01*
X1072472Y-12520000D01*
X1114885Y-12669065D01*
X1114890Y-12669078D01*
X1205754Y-12851556D01*
X1328608Y-13014242D01*
X1479260Y-13151578D01*
X1652584Y-13258897D01*
X1842678Y-13332539D01*
X1895000Y-13342320D01*
X1895000Y-12703012D01*
X1952007Y-12735925D01*
X2079174Y-12770000D01*
X2210826Y-12770000D01*
X2337993Y-12735925D01*
X2395000Y-12703012D01*
X2395000Y-13342320D01*
X2447321Y-13332539D01*
X2637415Y-13258897D01*
X2810739Y-13151578D01*
X2961391Y-13014242D01*
X3084245Y-12851556D01*
X3175109Y-12669078D01*
X3175114Y-12669065D01*
X3217528Y-12520000D01*
X2578012Y-12520000D01*
X2610925Y-12462993D01*
X2645000Y-12335826D01*
X2645000Y-12204174D01*
X2610925Y-12077007D01*
X2578012Y-12020000D01*
X3217528Y-12020000D01*
X3217528Y-12019999D01*
X3175114Y-11870934D01*
X3175109Y-11870921D01*
X3084245Y-11688443D01*
X2961391Y-11525757D01*
X2810739Y-11388421D01*
X2637413Y-11281101D01*
X2447315Y-11207458D01*
X2447309Y-11207456D01*
X2395001Y-11197677D01*
X2395000Y-11197679D01*
X2395000Y-11836988D01*
X2337993Y-11804075D01*
X2210826Y-11770000D01*
X2079174Y-11770000D01*
X1952007Y-11804075D01*
X1895000Y-11836988D01*
X1895000Y-11197679D01*
X1894998Y-11197677D01*
X1842690Y-11207456D01*
X1842684Y-11207458D01*
X1652586Y-11281101D01*
X1479260Y-11388421D01*
X1328608Y-11525757D01*
X1205754Y-11688443D01*
X1114890Y-11870921D01*
X1114885Y-11870934D01*
X1072471Y-12019999D01*
X500500Y-12019999D01*
X500500Y-9479999D01*
X1072471Y-9479999D01*
X1072472Y-9480000D01*
X1711988Y-9480000D01*
X1679075Y-9537007D01*
X1645000Y-9664174D01*
X1645000Y-9795826D01*
X1679075Y-9922993D01*
X1711988Y-9980000D01*
X1072472Y-9980000D01*
X1114885Y-10129065D01*
X1114890Y-10129078D01*
X1205754Y-10311556D01*
X1328608Y-10474242D01*
X1479260Y-10611578D01*
X1652584Y-10718897D01*
X1842678Y-10792539D01*
X1895000Y-10802320D01*
X1895000Y-10163012D01*
X1952007Y-10195925D01*
X2079174Y-10230000D01*
X2210826Y-10230000D01*
X2337993Y-10195925D01*
X2395000Y-10163012D01*
X2395000Y-10802320D01*
X2447321Y-10792539D01*
X2637415Y-10718897D01*
X2810739Y-10611578D01*
X2961391Y-10474242D01*
X3084245Y-10311556D01*
X3175109Y-10129078D01*
X3175114Y-10129065D01*
X3217528Y-9980000D01*
X2578012Y-9980000D01*
X2610925Y-9922993D01*
X2645000Y-9795826D01*
X2645000Y-9664174D01*
X2610925Y-9537007D01*
X2578012Y-9480000D01*
X3217528Y-9480000D01*
X3217528Y-9479999D01*
X3175114Y-9330934D01*
X3175109Y-9330921D01*
X3084245Y-9148443D01*
X2961391Y-8985757D01*
X2810739Y-8848421D01*
X2637413Y-8741101D01*
X2447315Y-8667458D01*
X2447309Y-8667456D01*
X2395001Y-8657677D01*
X2395000Y-8657679D01*
X2395000Y-9296988D01*
X2337993Y-9264075D01*
X2210826Y-9230000D01*
X2079174Y-9230000D01*
X1952007Y-9264075D01*
X1895000Y-9296988D01*
X1895000Y-8657679D01*
X1894998Y-8657677D01*
X1842690Y-8667456D01*
X1842684Y-8667458D01*
X1652586Y-8741101D01*
X1479260Y-8848421D01*
X1328608Y-8985757D01*
X1205754Y-9148443D01*
X1114890Y-9330921D01*
X1114885Y-9330934D01*
X1072471Y-9479999D01*
X500500Y-9479999D01*
X500500Y-6939999D01*
X1072471Y-6939999D01*
X1072472Y-6940000D01*
X1711988Y-6940000D01*
X1679075Y-6997007D01*
X1645000Y-7124174D01*
X1645000Y-7255826D01*
X1679075Y-7382993D01*
X1711988Y-7440000D01*
X1072472Y-7440000D01*
X1114885Y-7589065D01*
X1114890Y-7589078D01*
X1205754Y-7771556D01*
X1328608Y-7934242D01*
X1479260Y-8071578D01*
X1652584Y-8178897D01*
X1842678Y-8252539D01*
X1895000Y-8262320D01*
X1895000Y-7623012D01*
X1952007Y-7655925D01*
X2079174Y-7690000D01*
X2210826Y-7690000D01*
X2337993Y-7655925D01*
X2395000Y-7623012D01*
X2395000Y-8262320D01*
X2447321Y-8252539D01*
X2637415Y-8178897D01*
X2810739Y-8071578D01*
X2961391Y-7934242D01*
X3084245Y-7771556D01*
X3175109Y-7589078D01*
X3175114Y-7589065D01*
X3217528Y-7440000D01*
X2578012Y-7440000D01*
X2610925Y-7382993D01*
X2645000Y-7255826D01*
X2645000Y-7124174D01*
X2610925Y-6997007D01*
X2578012Y-6940000D01*
X3217528Y-6940000D01*
X3217528Y-6939999D01*
X3175114Y-6790934D01*
X3175109Y-6790921D01*
X3084245Y-6608443D01*
X2961391Y-6445757D01*
X2810739Y-6308421D01*
X2637413Y-6201101D01*
X2447315Y-6127458D01*
X2447309Y-6127456D01*
X2395001Y-6117677D01*
X2395000Y-6117679D01*
X2395000Y-6756988D01*
X2337993Y-6724075D01*
X2210826Y-6690000D01*
X2079174Y-6690000D01*
X1952007Y-6724075D01*
X1895000Y-6756988D01*
X1895000Y-6117679D01*
X1894998Y-6117677D01*
X1842690Y-6127456D01*
X1842684Y-6127458D01*
X1652586Y-6201101D01*
X1479260Y-6308421D01*
X1328608Y-6445757D01*
X1205754Y-6608443D01*
X1114890Y-6790921D01*
X1114885Y-6790934D01*
X1072471Y-6939999D01*
X500500Y-6939999D01*
X500500Y-4399999D01*
X1072471Y-4399999D01*
X1072472Y-4400000D01*
X1711988Y-4400000D01*
X1679075Y-4457007D01*
X1645000Y-4584174D01*
X1645000Y-4715826D01*
X1679075Y-4842993D01*
X1711988Y-4900000D01*
X1072472Y-4900000D01*
X1114885Y-5049065D01*
X1114890Y-5049078D01*
X1205754Y-5231556D01*
X1328608Y-5394242D01*
X1479260Y-5531578D01*
X1652584Y-5638897D01*
X1842678Y-5712539D01*
X1895000Y-5722320D01*
X1895000Y-5083012D01*
X1952007Y-5115925D01*
X2079174Y-5150000D01*
X2210826Y-5150000D01*
X2337993Y-5115925D01*
X2395000Y-5083012D01*
X2395000Y-5722320D01*
X2447321Y-5712539D01*
X2637415Y-5638897D01*
X2810739Y-5531578D01*
X2961391Y-5394242D01*
X3084245Y-5231556D01*
X3175109Y-5049078D01*
X3175114Y-5049065D01*
X3217528Y-4900000D01*
X2578012Y-4900000D01*
X2610925Y-4842993D01*
X2645000Y-4715826D01*
X2645000Y-4584174D01*
X2610925Y-4457007D01*
X2578012Y-4400000D01*
X3217528Y-4400000D01*
X3217528Y-4399999D01*
X3175114Y-4250934D01*
X3175109Y-4250921D01*
X3084245Y-4068443D01*
X2961391Y-3905757D01*
X2810739Y-3768421D01*
X2637413Y-3661101D01*
X2447315Y-3587458D01*
X2447309Y-3587456D01*
X2395001Y-3577677D01*
X2395000Y-3577679D01*
X2395000Y-4216988D01*
X2337993Y-4184075D01*
X2210826Y-4150000D01*
X2079174Y-4150000D01*
X1952007Y-4184075D01*
X1895000Y-4216988D01*
X1895000Y-3577679D01*
X1894998Y-3577677D01*
X1842690Y-3587456D01*
X1842684Y-3587458D01*
X1652586Y-3661101D01*
X1479260Y-3768421D01*
X1328608Y-3905757D01*
X1205754Y-4068443D01*
X1114890Y-4250921D01*
X1114885Y-4250934D01*
X1072471Y-4399999D01*
X500500Y-4399999D01*
X500500Y-1859999D01*
X1072471Y-1859999D01*
X1072472Y-1860000D01*
X1711988Y-1860000D01*
X1679075Y-1917007D01*
X1645000Y-2044174D01*
X1645000Y-2175826D01*
X1679075Y-2302993D01*
X1711988Y-2360000D01*
X1072472Y-2360000D01*
X1114885Y-2509065D01*
X1114890Y-2509078D01*
X1205754Y-2691556D01*
X1328608Y-2854242D01*
X1479260Y-2991578D01*
X1652584Y-3098897D01*
X1842678Y-3172539D01*
X1895000Y-3182320D01*
X1895000Y-2543012D01*
X1952007Y-2575925D01*
X2079174Y-2610000D01*
X2210826Y-2610000D01*
X2337993Y-2575925D01*
X2395000Y-2543012D01*
X2395000Y-3182320D01*
X2447321Y-3172539D01*
X2637415Y-3098897D01*
X2810739Y-2991578D01*
X2961391Y-2854242D01*
X3084245Y-2691556D01*
X3175109Y-2509078D01*
X3175114Y-2509065D01*
X3217528Y-2360000D01*
X2578012Y-2360000D01*
X2610925Y-2302993D01*
X2645000Y-2175826D01*
X2645000Y-2044174D01*
X2610925Y-1917007D01*
X2578012Y-1860000D01*
X3217528Y-1860000D01*
X3217528Y-1859999D01*
X3175114Y-1710934D01*
X3175109Y-1710921D01*
X3084245Y-1528443D01*
X2961391Y-1365757D01*
X2810739Y-1228421D01*
X2637413Y-1121101D01*
X2447315Y-1047458D01*
X2447309Y-1047456D01*
X2395001Y-1037677D01*
X2395000Y-1037679D01*
X2395000Y-1676988D01*
X2337993Y-1644075D01*
X2210826Y-1610000D01*
X2079174Y-1610000D01*
X1952007Y-1644075D01*
X1895000Y-1676988D01*
X1895000Y-1037679D01*
X1894998Y-1037677D01*
X1842690Y-1047456D01*
X1842684Y-1047458D01*
X1652586Y-1121101D01*
X1479260Y-1228421D01*
X1328608Y-1365757D01*
X1205754Y-1528443D01*
X1114890Y-1710921D01*
X1114885Y-1710934D01*
X1072471Y-1859999D01*
X500500Y-1859999D01*
X500500Y-624500D01*
X520185Y-557461D01*
X572989Y-511706D01*
X624500Y-500500D01*
X13575926Y-500500D01*
X13642965Y-520185D01*
G37*
%TD.AperFunction*%
%TA.AperFunction,Conductor*%
G36*
X24895539Y-17719685D02*
G01*
X24941294Y-17772489D01*
X24952500Y-17824000D01*
X24952500Y-18850000D01*
X25352500Y-18850000D01*
X25352500Y-18625373D01*
X25352499Y-18625371D01*
X25337996Y-18552459D01*
X25337994Y-18552455D01*
X25282159Y-18468891D01*
X25261281Y-18402213D01*
X25279766Y-18334833D01*
X25282159Y-18331109D01*
X25337994Y-18247544D01*
X25337996Y-18247540D01*
X25352499Y-18174628D01*
X25352500Y-18174626D01*
X25352500Y-17866127D01*
X25372185Y-17799088D01*
X25424989Y-17753333D01*
X25494147Y-17743389D01*
X25518908Y-17749604D01*
X25535106Y-17755500D01*
X25549647Y-17755500D01*
X26176000Y-17755500D01*
X26243039Y-17775185D01*
X26288794Y-17827989D01*
X26300000Y-17879500D01*
X26300000Y-18180000D01*
X26640500Y-18180000D01*
X26707539Y-18199685D01*
X26753294Y-18252489D01*
X26764500Y-18304000D01*
X26764500Y-18802425D01*
X26744815Y-18869464D01*
X26728181Y-18890106D01*
X25603357Y-20014931D01*
X25542034Y-20048416D01*
X25515676Y-20051250D01*
X24167862Y-20051250D01*
X24100823Y-20031565D01*
X24055068Y-19978761D01*
X24045124Y-19909606D01*
X24046221Y-19901970D01*
X24048297Y-19887531D01*
X24077320Y-19823977D01*
X24136097Y-19786201D01*
X24195227Y-19783560D01*
X24277873Y-19800000D01*
X24452500Y-19800000D01*
X24952500Y-19800000D01*
X25127126Y-19800000D01*
X25127128Y-19799999D01*
X25200040Y-19785496D01*
X25200044Y-19785494D01*
X25282739Y-19730239D01*
X25337994Y-19647544D01*
X25337996Y-19647540D01*
X25352499Y-19574628D01*
X25352500Y-19574626D01*
X25352500Y-19350000D01*
X24952500Y-19350000D01*
X24952500Y-19800000D01*
X24452500Y-19800000D01*
X24452500Y-17824000D01*
X24472185Y-17756961D01*
X24524989Y-17711206D01*
X24576500Y-17700000D01*
X24828500Y-17700000D01*
X24895539Y-17719685D01*
G37*
%TD.AperFunction*%
%TA.AperFunction,Conductor*%
G36*
X13307171Y-15195913D02*
G01*
X13327813Y-15212548D01*
X13507715Y-15392450D01*
X13507716Y-15392451D01*
X13507718Y-15392452D01*
X13552384Y-15418238D01*
X13571278Y-15429147D01*
X13617960Y-15441655D01*
X13677617Y-15478019D01*
X13708146Y-15540866D01*
X13699851Y-15610242D01*
X13655366Y-15664120D01*
X13610056Y-15683046D01*
X13552458Y-15694503D01*
X13552455Y-15694505D01*
X13469760Y-15749760D01*
X13414505Y-15832455D01*
X13414503Y-15832459D01*
X13400000Y-15905371D01*
X13400000Y-16030000D01*
X13876000Y-16030000D01*
X13943039Y-16049685D01*
X13988794Y-16102489D01*
X14000000Y-16154000D01*
X14000000Y-16406000D01*
X13980315Y-16473039D01*
X13927511Y-16518794D01*
X13876000Y-16530000D01*
X13400000Y-16530000D01*
X13400000Y-16647344D01*
X13380315Y-16714383D01*
X13327511Y-16760138D01*
X13258353Y-16770082D01*
X13241067Y-16766322D01*
X13131985Y-16734294D01*
X13002441Y-16734294D01*
X12909433Y-16761602D01*
X12839563Y-16761601D01*
X12780786Y-16723825D01*
X12751762Y-16660269D01*
X12750500Y-16642624D01*
X12750500Y-15910249D01*
X12750499Y-15910247D01*
X12738868Y-15851770D01*
X12738867Y-15851769D01*
X12694551Y-15785446D01*
X12682811Y-15777602D01*
X12638005Y-15723990D01*
X12629298Y-15654665D01*
X12659452Y-15591638D01*
X12718895Y-15554918D01*
X12751701Y-15550500D01*
X12764773Y-15550500D01*
X12764773Y-15550499D01*
X12889069Y-15514004D01*
X12998049Y-15443967D01*
X13082882Y-15346063D01*
X13127340Y-15248714D01*
X13173092Y-15195914D01*
X13240132Y-15176229D01*
X13307171Y-15195913D01*
G37*
%TD.AperFunction*%
%TA.AperFunction,Conductor*%
G36*
X29088362Y-13058753D02*
G01*
X29125082Y-13118196D01*
X29129500Y-13151002D01*
X29129500Y-13324315D01*
X29135931Y-13373170D01*
X29170841Y-13448034D01*
X29173966Y-13468612D01*
X29177957Y-13473038D01*
X29178264Y-13472732D01*
X29178681Y-13473149D01*
X29179638Y-13474902D01*
X29190578Y-13487034D01*
X29192161Y-13489295D01*
X29188787Y-13491657D01*
X29212166Y-13534472D01*
X29215000Y-13560830D01*
X29215000Y-14056000D01*
X29195315Y-14123039D01*
X29142511Y-14168794D01*
X29091000Y-14180000D01*
X29089000Y-14180000D01*
X29021961Y-14160315D01*
X28976206Y-14107511D01*
X28965000Y-14056000D01*
X28965000Y-13583406D01*
X28964999Y-13583405D01*
X28945375Y-13585989D01*
X28945372Y-13585989D01*
X28892404Y-13610689D01*
X28823326Y-13621180D01*
X28787596Y-13610688D01*
X28734632Y-13585990D01*
X28715000Y-13583405D01*
X28715000Y-14056000D01*
X28695315Y-14123039D01*
X28642511Y-14168794D01*
X28591000Y-14180000D01*
X28589000Y-14180000D01*
X28521961Y-14160315D01*
X28476206Y-14107511D01*
X28465000Y-14056000D01*
X28465000Y-13696066D01*
X28465499Y-13685899D01*
X28465499Y-13684904D01*
X28465500Y-13684899D01*
X28465499Y-13323998D01*
X28485183Y-13256961D01*
X28537987Y-13211206D01*
X28589499Y-13200000D01*
X28714626Y-13200000D01*
X28714628Y-13199999D01*
X28787540Y-13185496D01*
X28787544Y-13185494D01*
X28870239Y-13130240D01*
X28902397Y-13082112D01*
X28956009Y-13037306D01*
X29025334Y-13028599D01*
X29088362Y-13058753D01*
G37*
%TD.AperFunction*%
%TA.AperFunction,Conductor*%
G36*
X24448719Y-5343377D02*
G01*
X24455197Y-5349409D01*
X24698844Y-5593056D01*
X24754576Y-5625232D01*
X24762407Y-5629753D01*
X24833302Y-5648750D01*
X24868656Y-5648750D01*
X24935695Y-5668435D01*
X24981450Y-5721239D01*
X24991394Y-5790397D01*
X24962369Y-5853953D01*
X24934021Y-5876135D01*
X24934427Y-5876694D01*
X24926529Y-5882431D01*
X24842431Y-5966529D01*
X24842428Y-5966533D01*
X24788424Y-6072521D01*
X24788424Y-6072522D01*
X24769819Y-6189996D01*
X24769819Y-6189997D01*
X24769819Y-6190000D01*
X24770682Y-6195447D01*
X24774293Y-6218248D01*
X24774592Y-6241056D01*
X24775370Y-6241056D01*
X24775370Y-10255500D01*
X24755685Y-10322539D01*
X24702881Y-10368294D01*
X24651370Y-10379500D01*
X24444265Y-10379500D01*
X24377226Y-10359815D01*
X24331471Y-10307011D01*
X24321527Y-10237853D01*
X24321779Y-10236182D01*
X24340181Y-10120000D01*
X24340181Y-10119996D01*
X24321575Y-10002522D01*
X24321575Y-10002521D01*
X24321574Y-10002519D01*
X24321574Y-10002518D01*
X24267573Y-9896535D01*
X24267571Y-9896533D01*
X24267568Y-9896529D01*
X24203748Y-9832709D01*
X24170263Y-9771386D01*
X24167429Y-9745028D01*
X24167429Y-9422946D01*
X24187114Y-9355907D01*
X24239918Y-9310152D01*
X24309076Y-9300208D01*
X24345890Y-9311546D01*
X24355000Y-9315999D01*
X24355000Y-8243998D01*
X24354999Y-8243998D01*
X24345889Y-8248452D01*
X24277016Y-8260212D01*
X24212719Y-8232868D01*
X24173412Y-8175104D01*
X24167429Y-8137052D01*
X24167429Y-6183616D01*
X24184042Y-6121616D01*
X24191531Y-6108643D01*
X24224519Y-6051507D01*
X24230571Y-6028919D01*
X24243516Y-5980611D01*
X24243516Y-5437090D01*
X24263201Y-5370051D01*
X24316005Y-5324296D01*
X24385163Y-5314352D01*
X24448719Y-5343377D01*
G37*
%TD.AperFunction*%
%TA.AperFunction,Conductor*%
G36*
X23128039Y-3964684D02*
G01*
X23173794Y-4017488D01*
X23185000Y-4068999D01*
X23185000Y-5294999D01*
X23257828Y-5294999D01*
X23257844Y-5294998D01*
X23317372Y-5288597D01*
X23317379Y-5288595D01*
X23452086Y-5238353D01*
X23452089Y-5238351D01*
X23487704Y-5211690D01*
X23553168Y-5187272D01*
X23621441Y-5202123D01*
X23670847Y-5251527D01*
X23686016Y-5310956D01*
X23686016Y-5780296D01*
X23669405Y-5842294D01*
X23665624Y-5848842D01*
X23665624Y-5848843D01*
X23637211Y-5898057D01*
X23637210Y-5898059D01*
X23628926Y-5912405D01*
X23618007Y-5953154D01*
X23614424Y-5966529D01*
X23609929Y-5983303D01*
X23609929Y-9100500D01*
X23590244Y-9167539D01*
X23537440Y-9213294D01*
X23485929Y-9224500D01*
X22824000Y-9224500D01*
X22756961Y-9204815D01*
X22711206Y-9152011D01*
X22700000Y-9100500D01*
X22700000Y-8780000D01*
X22691796Y-8771796D01*
X22666707Y-8730855D01*
X22666004Y-8731214D01*
X22661574Y-8722520D01*
X22661574Y-8722518D01*
X22607573Y-8616535D01*
X22607571Y-8616533D01*
X22607568Y-8616529D01*
X22523470Y-8532431D01*
X22523466Y-8532428D01*
X22523465Y-8532427D01*
X22419640Y-8479526D01*
X22368847Y-8431554D01*
X22352052Y-8363733D01*
X22374589Y-8297598D01*
X22388259Y-8281360D01*
X22405331Y-8264287D01*
X22453767Y-8160417D01*
X22453769Y-8160409D01*
X22455140Y-8150000D01*
X22184000Y-8150000D01*
X22116961Y-8130315D01*
X22071206Y-8077511D01*
X22060000Y-8026000D01*
X22060000Y-8000000D01*
X22034000Y-8000000D01*
X21966961Y-7980315D01*
X21921206Y-7927511D01*
X21910000Y-7876000D01*
X21910000Y-7850000D01*
X22210000Y-7850000D01*
X22455140Y-7850000D01*
X22455140Y-7849999D01*
X22453769Y-7839590D01*
X22453767Y-7839582D01*
X22405331Y-7735711D01*
X22324287Y-7654667D01*
X22220415Y-7606231D01*
X22210000Y-7604859D01*
X22210000Y-7850000D01*
X21910000Y-7850000D01*
X21910000Y-7604860D01*
X21896020Y-7592600D01*
X21876006Y-7589479D01*
X21823752Y-7543097D01*
X21807243Y-7501499D01*
X21794515Y-7437505D01*
X21762029Y-7388887D01*
X21741153Y-7322214D01*
X21759637Y-7254834D01*
X21761992Y-7251167D01*
X21794515Y-7202495D01*
X21807244Y-7138498D01*
X21839628Y-7076591D01*
X21900343Y-7042016D01*
X21902270Y-7041918D01*
X21910000Y-7035139D01*
X21910000Y-7035138D01*
X22210000Y-7035138D01*
X22220415Y-7033768D01*
X22324288Y-6985331D01*
X22405331Y-6904288D01*
X22453767Y-6800417D01*
X22453769Y-6800409D01*
X22455140Y-6790000D01*
X22210000Y-6790000D01*
X22210000Y-7035138D01*
X21910000Y-7035138D01*
X21910000Y-6490000D01*
X22210000Y-6490000D01*
X22455140Y-6490000D01*
X22455140Y-6489999D01*
X22453769Y-6479590D01*
X22453767Y-6479582D01*
X22405331Y-6375711D01*
X22324287Y-6294667D01*
X22220415Y-6246231D01*
X22210000Y-6244859D01*
X22210000Y-6490000D01*
X21910000Y-6490000D01*
X21910000Y-6219898D01*
X21929685Y-6152859D01*
X21960367Y-6120128D01*
X22010042Y-6083466D01*
X22032150Y-6067150D01*
X22112793Y-5957882D01*
X22141202Y-5876694D01*
X22157646Y-5829701D01*
X22157646Y-5829699D01*
X22160500Y-5799269D01*
X22160500Y-5777197D01*
X22180185Y-5710158D01*
X22189014Y-5698086D01*
X22189978Y-5696923D01*
X22248901Y-5574568D01*
X22269142Y-5440281D01*
X22259422Y-5375796D01*
X22268894Y-5306574D01*
X22314289Y-5253459D01*
X22381193Y-5233319D01*
X22425370Y-5241134D01*
X22552620Y-5288595D01*
X22552627Y-5288597D01*
X22612155Y-5294998D01*
X22612172Y-5294999D01*
X22685000Y-5294999D01*
X22685000Y-4068999D01*
X22704685Y-4001960D01*
X22757489Y-3956205D01*
X22809000Y-3944999D01*
X23061000Y-3944999D01*
X23128039Y-3964684D01*
G37*
%TD.AperFunction*%
%TA.AperFunction,Conductor*%
G36*
X20925741Y-1508435D02*
G01*
X20948284Y-1534451D01*
X21549095Y-2135262D01*
X21582580Y-2196585D01*
X21577596Y-2266277D01*
X21549095Y-2310624D01*
X21370904Y-2488815D01*
X21309581Y-2522300D01*
X21239889Y-2517316D01*
X21195542Y-2488815D01*
X20629150Y-1922423D01*
X20540046Y-2011527D01*
X20540042Y-2011532D01*
X20469522Y-2103431D01*
X20469520Y-2103434D01*
X20410325Y-2246347D01*
X20410323Y-2246352D01*
X20390133Y-2399718D01*
X20390133Y-2399721D01*
X20397386Y-2454814D01*
X20386620Y-2523849D01*
X20340240Y-2576105D01*
X20274447Y-2594999D01*
X20235000Y-2594999D01*
X20235000Y-5294999D01*
X20307828Y-5294999D01*
X20307844Y-5294998D01*
X20367372Y-5288597D01*
X20367376Y-5288596D01*
X20494628Y-5241134D01*
X20564320Y-5236150D01*
X20625643Y-5269635D01*
X20659128Y-5330958D01*
X20660577Y-5375797D01*
X20651339Y-5437090D01*
X20650858Y-5440281D01*
X20670661Y-5571658D01*
X20671099Y-5574567D01*
X20671099Y-5574570D01*
X20730019Y-5696919D01*
X20730986Y-5698086D01*
X20731430Y-5699118D01*
X20734095Y-5703273D01*
X20733407Y-5703714D01*
X20758598Y-5762269D01*
X20759500Y-5777197D01*
X20759500Y-5799269D01*
X20762353Y-5829699D01*
X20762353Y-5829701D01*
X20805553Y-5953156D01*
X20807207Y-5957882D01*
X20887850Y-6067150D01*
X20997118Y-6147793D01*
X21054717Y-6167947D01*
X21098205Y-6183165D01*
X21154981Y-6223886D01*
X21180728Y-6288839D01*
X21181250Y-6300206D01*
X21181250Y-6336432D01*
X21161565Y-6403471D01*
X21160352Y-6405322D01*
X21125486Y-6457502D01*
X21125483Y-6457509D01*
X21109500Y-6537863D01*
X21109500Y-6606772D01*
X21089815Y-6673811D01*
X21037011Y-6719566D01*
X20967853Y-6729510D01*
X20904297Y-6700485D01*
X20878112Y-6668770D01*
X20876768Y-6666442D01*
X20476819Y-6266493D01*
X20443334Y-6205170D01*
X20440500Y-6178812D01*
X20440500Y-5995683D01*
X20434068Y-5946828D01*
X20434068Y-5946827D01*
X20384065Y-5839596D01*
X20300404Y-5755935D01*
X20193173Y-5705932D01*
X20193171Y-5705931D01*
X20193172Y-5705931D01*
X20144317Y-5699500D01*
X20144316Y-5699500D01*
X19795684Y-5699500D01*
X19795683Y-5699500D01*
X19746828Y-5705931D01*
X19639595Y-5755935D01*
X19548264Y-5847267D01*
X19545440Y-5844443D01*
X19506958Y-5875183D01*
X19437458Y-5882352D01*
X19375114Y-5850808D01*
X19371901Y-5847101D01*
X19371736Y-5847267D01*
X19280404Y-5755935D01*
X19173173Y-5705932D01*
X19173171Y-5705931D01*
X19173172Y-5705931D01*
X19124317Y-5699500D01*
X19124316Y-5699500D01*
X18775684Y-5699500D01*
X18775683Y-5699500D01*
X18726828Y-5705931D01*
X18716509Y-5710743D01*
X18647431Y-5721232D01*
X18583648Y-5692710D01*
X18545410Y-5634232D01*
X18544917Y-5571802D01*
X18544008Y-5571658D01*
X18544873Y-5566194D01*
X18544859Y-5564365D01*
X18545492Y-5562286D01*
X18547438Y-5550000D01*
X18124000Y-5550000D01*
X18056961Y-5530315D01*
X18011206Y-5477511D01*
X18000000Y-5426000D01*
X18000000Y-5300000D01*
X17874000Y-5300000D01*
X17806961Y-5280315D01*
X17761206Y-5227511D01*
X17750000Y-5176000D01*
X17750000Y-4884999D01*
X18250000Y-4884999D01*
X18250000Y-5050000D01*
X18547438Y-5050000D01*
X18545535Y-5037983D01*
X18489447Y-4927906D01*
X18489444Y-4927901D01*
X18471470Y-4909927D01*
X18437985Y-4848604D01*
X18442969Y-4778912D01*
X18484841Y-4722979D01*
X18509588Y-4709791D01*
X18509541Y-4709701D01*
X18517753Y-4705360D01*
X18549033Y-4682274D01*
X19210000Y-4682274D01*
X19210000Y-4842843D01*
X19216401Y-4902371D01*
X19216403Y-4902378D01*
X19266645Y-5037085D01*
X19266649Y-5037092D01*
X19352809Y-5152186D01*
X19352812Y-5152189D01*
X19467906Y-5238349D01*
X19467913Y-5238353D01*
X19602620Y-5288595D01*
X19602627Y-5288597D01*
X19662155Y-5294998D01*
X19662172Y-5294999D01*
X19735000Y-5294999D01*
X19735000Y-4478273D01*
X19734999Y-4478272D01*
X19458180Y-4755092D01*
X19396857Y-4788577D01*
X19327165Y-4783593D01*
X19282818Y-4755092D01*
X19210000Y-4682274D01*
X18549033Y-4682274D01*
X18631449Y-4621448D01*
X18715359Y-4507754D01*
X18762031Y-4374378D01*
X18765000Y-4342721D01*
X18765000Y-4341468D01*
X18765070Y-4341229D01*
X18765136Y-4339821D01*
X18765478Y-4339837D01*
X18784685Y-4274429D01*
X18837489Y-4228674D01*
X18906647Y-4218730D01*
X18970203Y-4247755D01*
X18987376Y-4265982D01*
X19019767Y-4308195D01*
X19108869Y-4397296D01*
X19586166Y-3920000D01*
X19586166Y-3919999D01*
X19108870Y-3442703D01*
X19019766Y-3531807D01*
X19019762Y-3531812D01*
X18949242Y-3623711D01*
X18949240Y-3623714D01*
X18946103Y-3631290D01*
X18902261Y-3685693D01*
X18835966Y-3707756D01*
X18768267Y-3690475D01*
X18720658Y-3639337D01*
X18716259Y-3628945D01*
X18715361Y-3627245D01*
X18631449Y-3513549D01*
X18517755Y-3429639D01*
X18384379Y-3382967D01*
X18384380Y-3382967D01*
X18352722Y-3379999D01*
X18290000Y-3379999D01*
X18290000Y-4793637D01*
X18270315Y-4860676D01*
X18253681Y-4881318D01*
X18250000Y-4884999D01*
X17750000Y-4884999D01*
X17750000Y-4731362D01*
X17769685Y-4664323D01*
X17786319Y-4643681D01*
X17790000Y-4640000D01*
X17790000Y-4317499D01*
X17314999Y-4317499D01*
X17293264Y-4339234D01*
X17231941Y-4372718D01*
X17162249Y-4367733D01*
X17138777Y-4355134D01*
X17133465Y-4352427D01*
X17027482Y-4298426D01*
X17027481Y-4298425D01*
X17027478Y-4298424D01*
X16977974Y-4290584D01*
X16914839Y-4260655D01*
X16877908Y-4201343D01*
X16873627Y-4160162D01*
X16897277Y-3792276D01*
X17315000Y-3792276D01*
X17315000Y-3817499D01*
X17790000Y-3817499D01*
X17790000Y-3379999D01*
X17727278Y-3379999D01*
X17695620Y-3382967D01*
X17562244Y-3429639D01*
X17448550Y-3513549D01*
X17364640Y-3627243D01*
X17317968Y-3760619D01*
X17315000Y-3792276D01*
X16897277Y-3792276D01*
X16954822Y-2897150D01*
X16955140Y-2890550D01*
X16955395Y-2882595D01*
X16955500Y-2876011D01*
X16955500Y-1842775D01*
X16975185Y-1775736D01*
X17027989Y-1729981D01*
X17097147Y-1720037D01*
X17135788Y-1732288D01*
X17232518Y-1781574D01*
X17232520Y-1781574D01*
X17232522Y-1781575D01*
X17349997Y-1800181D01*
X17359759Y-1800181D01*
X17359759Y-1802408D01*
X17415932Y-1809666D01*
X17469386Y-1854661D01*
X17490027Y-1921412D01*
X17471304Y-1988726D01*
X17453723Y-2010865D01*
X17440347Y-2024241D01*
X17440343Y-2024247D01*
X17440342Y-2024248D01*
X17421105Y-2062002D01*
X17380047Y-2142581D01*
X17364500Y-2240747D01*
X17364500Y-2744250D01*
X17380047Y-2842416D01*
X17397165Y-2876011D01*
X17440342Y-2960750D01*
X17440344Y-2960752D01*
X17440346Y-2960755D01*
X17534243Y-3054652D01*
X17534245Y-3054653D01*
X17534249Y-3054657D01*
X17652580Y-3114950D01*
X17652581Y-3114950D01*
X17652583Y-3114951D01*
X17652582Y-3114951D01*
X17750749Y-3130499D01*
X17750754Y-3130499D01*
X18329251Y-3130499D01*
X18427417Y-3114951D01*
X18427418Y-3114950D01*
X18427420Y-3114950D01*
X18545751Y-3054657D01*
X18553254Y-3047154D01*
X19210000Y-3047154D01*
X19210000Y-3157724D01*
X19282818Y-3084906D01*
X19344141Y-3051421D01*
X19413833Y-3056405D01*
X19458180Y-3084906D01*
X19735000Y-3361726D01*
X19735000Y-2594999D01*
X19662155Y-2594999D01*
X19602627Y-2601400D01*
X19602620Y-2601402D01*
X19467913Y-2651644D01*
X19467906Y-2651648D01*
X19352812Y-2737808D01*
X19352809Y-2737811D01*
X19266649Y-2852905D01*
X19266645Y-2852912D01*
X19216403Y-2987619D01*
X19216401Y-2987626D01*
X19210000Y-3047154D01*
X18553254Y-3047154D01*
X18639658Y-2960750D01*
X18699951Y-2842419D01*
X18699951Y-2842417D01*
X18699952Y-2842416D01*
X18715500Y-2744250D01*
X18715500Y-2240747D01*
X18699952Y-2142581D01*
X18683351Y-2110000D01*
X18639658Y-2024248D01*
X18639654Y-2024244D01*
X18639653Y-2024242D01*
X18545756Y-1930345D01*
X18545752Y-1930342D01*
X18545751Y-1930341D01*
X18519582Y-1917007D01*
X18479293Y-1896478D01*
X18428497Y-1848503D01*
X18413116Y-1805391D01*
X18401575Y-1732522D01*
X18401575Y-1732521D01*
X18401574Y-1732519D01*
X18401574Y-1732518D01*
X18369231Y-1669042D01*
X18356336Y-1600376D01*
X18382612Y-1535635D01*
X18439719Y-1495378D01*
X18479717Y-1488750D01*
X20858702Y-1488750D01*
X20925741Y-1508435D01*
G37*
%TD.AperFunction*%
%TD*%
M02*
