%TF.GenerationSoftware,KiCad,Pcbnew,9.0.7-9.0.7~ubuntu22.04.1*%
%TF.CreationDate,2026-03-11T20:55:57-05:00*%
%TF.ProjectId,elrs-lvs,656c7273-2d6c-4767-932e-6b696361645f,2*%
%TF.SameCoordinates,Original*%
%TF.FileFunction,Drillmap*%
%TF.FilePolarity,Positive*%
%FSLAX45Y45*%
G04 Gerber Fmt 4.5, Leading zero omitted, Abs format (unit mm)*
G04 Created by KiCad (PCBNEW 9.0.7-9.0.7~ubuntu22.04.1) date 2026-03-11 20:55:57*
%MOMM*%
%LPD*%
G01*
G04 APERTURE LIST*
%ADD10C,0.100000*%
%ADD11C,0.200000*%
%ADD12C,0.115200*%
G04 APERTURE END LIST*
D10*
X0Y0D02*
X4600000Y0D01*
X4600000Y-2200000D01*
X0Y-2200000D01*
X0Y0D01*
D11*
D12*
X279900Y-1042400D02*
X395100Y-1157600D01*
X395100Y-1042400D02*
X279900Y-1157600D01*
X4342400Y-142400D02*
X4457600Y-257600D01*
X4457600Y-142400D02*
X4342400Y-257600D01*
X4342400Y-1942400D02*
X4457600Y-2057600D01*
X4457600Y-1942400D02*
X4342400Y-2057600D01*
D11*
X255777Y-2516484D02*
X255777Y-2316484D01*
X255777Y-2316484D02*
X303396Y-2316484D01*
X303396Y-2316484D02*
X331967Y-2326008D01*
X331967Y-2326008D02*
X351015Y-2345055D01*
X351015Y-2345055D02*
X360539Y-2364103D01*
X360539Y-2364103D02*
X370062Y-2402198D01*
X370062Y-2402198D02*
X370062Y-2430770D01*
X370062Y-2430770D02*
X360539Y-2468865D01*
X360539Y-2468865D02*
X351015Y-2487912D01*
X351015Y-2487912D02*
X331967Y-2506960D01*
X331967Y-2506960D02*
X303396Y-2516484D01*
X303396Y-2516484D02*
X255777Y-2516484D01*
X455777Y-2516484D02*
X455777Y-2383150D01*
X455777Y-2421246D02*
X465301Y-2402198D01*
X465301Y-2402198D02*
X474824Y-2392674D01*
X474824Y-2392674D02*
X493872Y-2383150D01*
X493872Y-2383150D02*
X512920Y-2383150D01*
X579586Y-2516484D02*
X579586Y-2383150D01*
X579586Y-2316484D02*
X570063Y-2326008D01*
X570063Y-2326008D02*
X579586Y-2335531D01*
X579586Y-2335531D02*
X589110Y-2326008D01*
X589110Y-2326008D02*
X579586Y-2316484D01*
X579586Y-2316484D02*
X579586Y-2335531D01*
X703396Y-2516484D02*
X684348Y-2506960D01*
X684348Y-2506960D02*
X674824Y-2487912D01*
X674824Y-2487912D02*
X674824Y-2316484D01*
X808158Y-2516484D02*
X789110Y-2506960D01*
X789110Y-2506960D02*
X779586Y-2487912D01*
X779586Y-2487912D02*
X779586Y-2316484D01*
X1036729Y-2516484D02*
X1036729Y-2316484D01*
X1036729Y-2316484D02*
X1103396Y-2459341D01*
X1103396Y-2459341D02*
X1170063Y-2316484D01*
X1170063Y-2316484D02*
X1170063Y-2516484D01*
X1351015Y-2516484D02*
X1351015Y-2411722D01*
X1351015Y-2411722D02*
X1341491Y-2392674D01*
X1341491Y-2392674D02*
X1322444Y-2383150D01*
X1322444Y-2383150D02*
X1284348Y-2383150D01*
X1284348Y-2383150D02*
X1265301Y-2392674D01*
X1351015Y-2506960D02*
X1331967Y-2516484D01*
X1331967Y-2516484D02*
X1284348Y-2516484D01*
X1284348Y-2516484D02*
X1265301Y-2506960D01*
X1265301Y-2506960D02*
X1255777Y-2487912D01*
X1255777Y-2487912D02*
X1255777Y-2468865D01*
X1255777Y-2468865D02*
X1265301Y-2449817D01*
X1265301Y-2449817D02*
X1284348Y-2440293D01*
X1284348Y-2440293D02*
X1331967Y-2440293D01*
X1331967Y-2440293D02*
X1351015Y-2430770D01*
X1446253Y-2383150D02*
X1446253Y-2583150D01*
X1446253Y-2392674D02*
X1465301Y-2383150D01*
X1465301Y-2383150D02*
X1503396Y-2383150D01*
X1503396Y-2383150D02*
X1522443Y-2392674D01*
X1522443Y-2392674D02*
X1531967Y-2402198D01*
X1531967Y-2402198D02*
X1541491Y-2421246D01*
X1541491Y-2421246D02*
X1541491Y-2478389D01*
X1541491Y-2478389D02*
X1531967Y-2497436D01*
X1531967Y-2497436D02*
X1522443Y-2506960D01*
X1522443Y-2506960D02*
X1503396Y-2516484D01*
X1503396Y-2516484D02*
X1465301Y-2516484D01*
X1465301Y-2516484D02*
X1446253Y-2506960D01*
X1627205Y-2497436D02*
X1636729Y-2506960D01*
X1636729Y-2506960D02*
X1627205Y-2516484D01*
X1627205Y-2516484D02*
X1617682Y-2506960D01*
X1617682Y-2506960D02*
X1627205Y-2497436D01*
X1627205Y-2497436D02*
X1627205Y-2516484D01*
X1627205Y-2392674D02*
X1636729Y-2402198D01*
X1636729Y-2402198D02*
X1627205Y-2411722D01*
X1627205Y-2411722D02*
X1617682Y-2402198D01*
X1617682Y-2402198D02*
X1627205Y-2392674D01*
X1627205Y-2392674D02*
X1627205Y-2411722D01*
D12*
X-120200Y-2787400D02*
X-5000Y-2902600D01*
X-5000Y-2787400D02*
X-120200Y-2902600D01*
D11*
X360539Y-2936484D02*
X246253Y-2936484D01*
X303396Y-2936484D02*
X303396Y-2736484D01*
X303396Y-2736484D02*
X284348Y-2765055D01*
X284348Y-2765055D02*
X265301Y-2784103D01*
X265301Y-2784103D02*
X246253Y-2793627D01*
X446253Y-2917436D02*
X455777Y-2926960D01*
X455777Y-2926960D02*
X446253Y-2936484D01*
X446253Y-2936484D02*
X436729Y-2926960D01*
X436729Y-2926960D02*
X446253Y-2917436D01*
X446253Y-2917436D02*
X446253Y-2936484D01*
X646253Y-2936484D02*
X531967Y-2936484D01*
X589110Y-2936484D02*
X589110Y-2736484D01*
X589110Y-2736484D02*
X570063Y-2765055D01*
X570063Y-2765055D02*
X551015Y-2784103D01*
X551015Y-2784103D02*
X531967Y-2793627D01*
X827205Y-2736484D02*
X731967Y-2736484D01*
X731967Y-2736484D02*
X722443Y-2831722D01*
X722443Y-2831722D02*
X731967Y-2822198D01*
X731967Y-2822198D02*
X751015Y-2812674D01*
X751015Y-2812674D02*
X798634Y-2812674D01*
X798634Y-2812674D02*
X817682Y-2822198D01*
X817682Y-2822198D02*
X827205Y-2831722D01*
X827205Y-2831722D02*
X836729Y-2850769D01*
X836729Y-2850769D02*
X836729Y-2898388D01*
X836729Y-2898388D02*
X827205Y-2917436D01*
X827205Y-2917436D02*
X817682Y-2926960D01*
X817682Y-2926960D02*
X798634Y-2936484D01*
X798634Y-2936484D02*
X751015Y-2936484D01*
X751015Y-2936484D02*
X731967Y-2926960D01*
X731967Y-2926960D02*
X722443Y-2917436D01*
X912920Y-2755531D02*
X922443Y-2746008D01*
X922443Y-2746008D02*
X941491Y-2736484D01*
X941491Y-2736484D02*
X989110Y-2736484D01*
X989110Y-2736484D02*
X1008158Y-2746008D01*
X1008158Y-2746008D02*
X1017682Y-2755531D01*
X1017682Y-2755531D02*
X1027205Y-2774579D01*
X1027205Y-2774579D02*
X1027205Y-2793627D01*
X1027205Y-2793627D02*
X1017682Y-2822198D01*
X1017682Y-2822198D02*
X903396Y-2936484D01*
X903396Y-2936484D02*
X1027205Y-2936484D01*
X1112920Y-2936484D02*
X1112920Y-2803150D01*
X1112920Y-2822198D02*
X1122444Y-2812674D01*
X1122444Y-2812674D02*
X1141491Y-2803150D01*
X1141491Y-2803150D02*
X1170063Y-2803150D01*
X1170063Y-2803150D02*
X1189110Y-2812674D01*
X1189110Y-2812674D02*
X1198634Y-2831722D01*
X1198634Y-2831722D02*
X1198634Y-2936484D01*
X1198634Y-2831722D02*
X1208158Y-2812674D01*
X1208158Y-2812674D02*
X1227205Y-2803150D01*
X1227205Y-2803150D02*
X1255777Y-2803150D01*
X1255777Y-2803150D02*
X1274825Y-2812674D01*
X1274825Y-2812674D02*
X1284348Y-2831722D01*
X1284348Y-2831722D02*
X1284348Y-2936484D01*
X1379586Y-2936484D02*
X1379586Y-2803150D01*
X1379586Y-2822198D02*
X1389110Y-2812674D01*
X1389110Y-2812674D02*
X1408158Y-2803150D01*
X1408158Y-2803150D02*
X1436729Y-2803150D01*
X1436729Y-2803150D02*
X1455777Y-2812674D01*
X1455777Y-2812674D02*
X1465301Y-2831722D01*
X1465301Y-2831722D02*
X1465301Y-2936484D01*
X1465301Y-2831722D02*
X1474824Y-2812674D01*
X1474824Y-2812674D02*
X1493872Y-2803150D01*
X1493872Y-2803150D02*
X1522443Y-2803150D01*
X1522443Y-2803150D02*
X1541491Y-2812674D01*
X1541491Y-2812674D02*
X1551015Y-2831722D01*
X1551015Y-2831722D02*
X1551015Y-2936484D01*
X1941491Y-2726960D02*
X1770063Y-2984103D01*
X2198634Y-2736484D02*
X2217682Y-2736484D01*
X2217682Y-2736484D02*
X2236729Y-2746008D01*
X2236729Y-2746008D02*
X2246253Y-2755531D01*
X2246253Y-2755531D02*
X2255777Y-2774579D01*
X2255777Y-2774579D02*
X2265301Y-2812674D01*
X2265301Y-2812674D02*
X2265301Y-2860293D01*
X2265301Y-2860293D02*
X2255777Y-2898388D01*
X2255777Y-2898388D02*
X2246253Y-2917436D01*
X2246253Y-2917436D02*
X2236729Y-2926960D01*
X2236729Y-2926960D02*
X2217682Y-2936484D01*
X2217682Y-2936484D02*
X2198634Y-2936484D01*
X2198634Y-2936484D02*
X2179587Y-2926960D01*
X2179587Y-2926960D02*
X2170063Y-2917436D01*
X2170063Y-2917436D02*
X2160539Y-2898388D01*
X2160539Y-2898388D02*
X2151015Y-2860293D01*
X2151015Y-2860293D02*
X2151015Y-2812674D01*
X2151015Y-2812674D02*
X2160539Y-2774579D01*
X2160539Y-2774579D02*
X2170063Y-2755531D01*
X2170063Y-2755531D02*
X2179587Y-2746008D01*
X2179587Y-2746008D02*
X2198634Y-2736484D01*
X2351015Y-2917436D02*
X2360539Y-2926960D01*
X2360539Y-2926960D02*
X2351015Y-2936484D01*
X2351015Y-2936484D02*
X2341491Y-2926960D01*
X2341491Y-2926960D02*
X2351015Y-2917436D01*
X2351015Y-2917436D02*
X2351015Y-2936484D01*
X2484348Y-2736484D02*
X2503396Y-2736484D01*
X2503396Y-2736484D02*
X2522444Y-2746008D01*
X2522444Y-2746008D02*
X2531968Y-2755531D01*
X2531968Y-2755531D02*
X2541491Y-2774579D01*
X2541491Y-2774579D02*
X2551015Y-2812674D01*
X2551015Y-2812674D02*
X2551015Y-2860293D01*
X2551015Y-2860293D02*
X2541491Y-2898388D01*
X2541491Y-2898388D02*
X2531968Y-2917436D01*
X2531968Y-2917436D02*
X2522444Y-2926960D01*
X2522444Y-2926960D02*
X2503396Y-2936484D01*
X2503396Y-2936484D02*
X2484348Y-2936484D01*
X2484348Y-2936484D02*
X2465301Y-2926960D01*
X2465301Y-2926960D02*
X2455777Y-2917436D01*
X2455777Y-2917436D02*
X2446253Y-2898388D01*
X2446253Y-2898388D02*
X2436729Y-2860293D01*
X2436729Y-2860293D02*
X2436729Y-2812674D01*
X2436729Y-2812674D02*
X2446253Y-2774579D01*
X2446253Y-2774579D02*
X2455777Y-2755531D01*
X2455777Y-2755531D02*
X2465301Y-2746008D01*
X2465301Y-2746008D02*
X2484348Y-2736484D01*
X2722444Y-2803150D02*
X2722444Y-2936484D01*
X2674825Y-2726960D02*
X2627206Y-2869817D01*
X2627206Y-2869817D02*
X2751015Y-2869817D01*
X2922444Y-2736484D02*
X2827206Y-2736484D01*
X2827206Y-2736484D02*
X2817682Y-2831722D01*
X2817682Y-2831722D02*
X2827206Y-2822198D01*
X2827206Y-2822198D02*
X2846253Y-2812674D01*
X2846253Y-2812674D02*
X2893872Y-2812674D01*
X2893872Y-2812674D02*
X2912920Y-2822198D01*
X2912920Y-2822198D02*
X2922444Y-2831722D01*
X2922444Y-2831722D02*
X2931967Y-2850769D01*
X2931967Y-2850769D02*
X2931967Y-2898388D01*
X2931967Y-2898388D02*
X2922444Y-2917436D01*
X2922444Y-2917436D02*
X2912920Y-2926960D01*
X2912920Y-2926960D02*
X2893872Y-2936484D01*
X2893872Y-2936484D02*
X2846253Y-2936484D01*
X2846253Y-2936484D02*
X2827206Y-2926960D01*
X2827206Y-2926960D02*
X2817682Y-2917436D01*
X3103396Y-2803150D02*
X3103396Y-2936484D01*
X3055777Y-2726960D02*
X3008158Y-2869817D01*
X3008158Y-2869817D02*
X3131967Y-2869817D01*
X3198634Y-2736484D02*
X3198634Y-2774579D01*
X3274825Y-2736484D02*
X3274825Y-2774579D01*
X3570063Y-3012674D02*
X3560539Y-3003150D01*
X3560539Y-3003150D02*
X3541491Y-2974579D01*
X3541491Y-2974579D02*
X3531968Y-2955531D01*
X3531968Y-2955531D02*
X3522444Y-2926960D01*
X3522444Y-2926960D02*
X3512920Y-2879341D01*
X3512920Y-2879341D02*
X3512920Y-2841246D01*
X3512920Y-2841246D02*
X3522444Y-2793627D01*
X3522444Y-2793627D02*
X3531968Y-2765055D01*
X3531968Y-2765055D02*
X3541491Y-2746008D01*
X3541491Y-2746008D02*
X3560539Y-2717436D01*
X3560539Y-2717436D02*
X3570063Y-2707912D01*
X3627206Y-2736484D02*
X3751015Y-2736484D01*
X3751015Y-2736484D02*
X3684348Y-2812674D01*
X3684348Y-2812674D02*
X3712920Y-2812674D01*
X3712920Y-2812674D02*
X3731968Y-2822198D01*
X3731968Y-2822198D02*
X3741491Y-2831722D01*
X3741491Y-2831722D02*
X3751015Y-2850769D01*
X3751015Y-2850769D02*
X3751015Y-2898388D01*
X3751015Y-2898388D02*
X3741491Y-2917436D01*
X3741491Y-2917436D02*
X3731968Y-2926960D01*
X3731968Y-2926960D02*
X3712920Y-2936484D01*
X3712920Y-2936484D02*
X3655777Y-2936484D01*
X3655777Y-2936484D02*
X3636729Y-2926960D01*
X3636729Y-2926960D02*
X3627206Y-2917436D01*
X3989110Y-2936484D02*
X3989110Y-2736484D01*
X4074825Y-2936484D02*
X4074825Y-2831722D01*
X4074825Y-2831722D02*
X4065301Y-2812674D01*
X4065301Y-2812674D02*
X4046253Y-2803150D01*
X4046253Y-2803150D02*
X4017682Y-2803150D01*
X4017682Y-2803150D02*
X3998634Y-2812674D01*
X3998634Y-2812674D02*
X3989110Y-2822198D01*
X4198634Y-2936484D02*
X4179587Y-2926960D01*
X4179587Y-2926960D02*
X4170063Y-2917436D01*
X4170063Y-2917436D02*
X4160539Y-2898388D01*
X4160539Y-2898388D02*
X4160539Y-2841246D01*
X4160539Y-2841246D02*
X4170063Y-2822198D01*
X4170063Y-2822198D02*
X4179587Y-2812674D01*
X4179587Y-2812674D02*
X4198634Y-2803150D01*
X4198634Y-2803150D02*
X4227206Y-2803150D01*
X4227206Y-2803150D02*
X4246253Y-2812674D01*
X4246253Y-2812674D02*
X4255777Y-2822198D01*
X4255777Y-2822198D02*
X4265301Y-2841246D01*
X4265301Y-2841246D02*
X4265301Y-2898388D01*
X4265301Y-2898388D02*
X4255777Y-2917436D01*
X4255777Y-2917436D02*
X4246253Y-2926960D01*
X4246253Y-2926960D02*
X4227206Y-2936484D01*
X4227206Y-2936484D02*
X4198634Y-2936484D01*
X4379587Y-2936484D02*
X4360539Y-2926960D01*
X4360539Y-2926960D02*
X4351015Y-2907912D01*
X4351015Y-2907912D02*
X4351015Y-2736484D01*
X4531968Y-2926960D02*
X4512920Y-2936484D01*
X4512920Y-2936484D02*
X4474825Y-2936484D01*
X4474825Y-2936484D02*
X4455777Y-2926960D01*
X4455777Y-2926960D02*
X4446253Y-2907912D01*
X4446253Y-2907912D02*
X4446253Y-2831722D01*
X4446253Y-2831722D02*
X4455777Y-2812674D01*
X4455777Y-2812674D02*
X4474825Y-2803150D01*
X4474825Y-2803150D02*
X4512920Y-2803150D01*
X4512920Y-2803150D02*
X4531968Y-2812674D01*
X4531968Y-2812674D02*
X4541492Y-2831722D01*
X4541492Y-2831722D02*
X4541492Y-2850769D01*
X4541492Y-2850769D02*
X4446253Y-2869817D01*
X4617682Y-2926960D02*
X4636730Y-2936484D01*
X4636730Y-2936484D02*
X4674825Y-2936484D01*
X4674825Y-2936484D02*
X4693873Y-2926960D01*
X4693873Y-2926960D02*
X4703396Y-2907912D01*
X4703396Y-2907912D02*
X4703396Y-2898388D01*
X4703396Y-2898388D02*
X4693873Y-2879341D01*
X4693873Y-2879341D02*
X4674825Y-2869817D01*
X4674825Y-2869817D02*
X4646253Y-2869817D01*
X4646253Y-2869817D02*
X4627206Y-2860293D01*
X4627206Y-2860293D02*
X4617682Y-2841246D01*
X4617682Y-2841246D02*
X4617682Y-2831722D01*
X4617682Y-2831722D02*
X4627206Y-2812674D01*
X4627206Y-2812674D02*
X4646253Y-2803150D01*
X4646253Y-2803150D02*
X4674825Y-2803150D01*
X4674825Y-2803150D02*
X4693873Y-2812674D01*
X4770063Y-3012674D02*
X4779587Y-3003150D01*
X4779587Y-3003150D02*
X4798634Y-2974579D01*
X4798634Y-2974579D02*
X4808158Y-2955531D01*
X4808158Y-2955531D02*
X4817682Y-2926960D01*
X4817682Y-2926960D02*
X4827206Y-2879341D01*
X4827206Y-2879341D02*
X4827206Y-2841246D01*
X4827206Y-2841246D02*
X4817682Y-2793627D01*
X4817682Y-2793627D02*
X4808158Y-2765055D01*
X4808158Y-2765055D02*
X4798634Y-2746008D01*
X4798634Y-2746008D02*
X4779587Y-2717436D01*
X4779587Y-2717436D02*
X4770063Y-2707912D01*
X5131968Y-3012674D02*
X5122444Y-3003150D01*
X5122444Y-3003150D02*
X5103396Y-2974579D01*
X5103396Y-2974579D02*
X5093873Y-2955531D01*
X5093873Y-2955531D02*
X5084349Y-2926960D01*
X5084349Y-2926960D02*
X5074825Y-2879341D01*
X5074825Y-2879341D02*
X5074825Y-2841246D01*
X5074825Y-2841246D02*
X5084349Y-2793627D01*
X5084349Y-2793627D02*
X5093873Y-2765055D01*
X5093873Y-2765055D02*
X5103396Y-2746008D01*
X5103396Y-2746008D02*
X5122444Y-2717436D01*
X5122444Y-2717436D02*
X5131968Y-2707912D01*
X5208158Y-2803150D02*
X5208158Y-2936484D01*
X5208158Y-2822198D02*
X5217682Y-2812674D01*
X5217682Y-2812674D02*
X5236730Y-2803150D01*
X5236730Y-2803150D02*
X5265301Y-2803150D01*
X5265301Y-2803150D02*
X5284349Y-2812674D01*
X5284349Y-2812674D02*
X5293873Y-2831722D01*
X5293873Y-2831722D02*
X5293873Y-2936484D01*
X5417682Y-2936484D02*
X5398634Y-2926960D01*
X5398634Y-2926960D02*
X5389111Y-2917436D01*
X5389111Y-2917436D02*
X5379587Y-2898388D01*
X5379587Y-2898388D02*
X5379587Y-2841246D01*
X5379587Y-2841246D02*
X5389111Y-2822198D01*
X5389111Y-2822198D02*
X5398634Y-2812674D01*
X5398634Y-2812674D02*
X5417682Y-2803150D01*
X5417682Y-2803150D02*
X5446254Y-2803150D01*
X5446254Y-2803150D02*
X5465301Y-2812674D01*
X5465301Y-2812674D02*
X5474825Y-2822198D01*
X5474825Y-2822198D02*
X5484349Y-2841246D01*
X5484349Y-2841246D02*
X5484349Y-2898388D01*
X5484349Y-2898388D02*
X5474825Y-2917436D01*
X5474825Y-2917436D02*
X5465301Y-2926960D01*
X5465301Y-2926960D02*
X5446254Y-2936484D01*
X5446254Y-2936484D02*
X5417682Y-2936484D01*
X5541492Y-2803150D02*
X5617682Y-2803150D01*
X5570063Y-2736484D02*
X5570063Y-2907912D01*
X5570063Y-2907912D02*
X5579587Y-2926960D01*
X5579587Y-2926960D02*
X5598634Y-2936484D01*
X5598634Y-2936484D02*
X5617682Y-2936484D01*
X5836730Y-2803150D02*
X5836730Y-3003150D01*
X5836730Y-2812674D02*
X5855777Y-2803150D01*
X5855777Y-2803150D02*
X5893873Y-2803150D01*
X5893873Y-2803150D02*
X5912920Y-2812674D01*
X5912920Y-2812674D02*
X5922444Y-2822198D01*
X5922444Y-2822198D02*
X5931968Y-2841246D01*
X5931968Y-2841246D02*
X5931968Y-2898388D01*
X5931968Y-2898388D02*
X5922444Y-2917436D01*
X5922444Y-2917436D02*
X5912920Y-2926960D01*
X5912920Y-2926960D02*
X5893873Y-2936484D01*
X5893873Y-2936484D02*
X5855777Y-2936484D01*
X5855777Y-2936484D02*
X5836730Y-2926960D01*
X6046253Y-2936484D02*
X6027206Y-2926960D01*
X6027206Y-2926960D02*
X6017682Y-2907912D01*
X6017682Y-2907912D02*
X6017682Y-2736484D01*
X6208158Y-2936484D02*
X6208158Y-2831722D01*
X6208158Y-2831722D02*
X6198634Y-2812674D01*
X6198634Y-2812674D02*
X6179587Y-2803150D01*
X6179587Y-2803150D02*
X6141492Y-2803150D01*
X6141492Y-2803150D02*
X6122444Y-2812674D01*
X6208158Y-2926960D02*
X6189111Y-2936484D01*
X6189111Y-2936484D02*
X6141492Y-2936484D01*
X6141492Y-2936484D02*
X6122444Y-2926960D01*
X6122444Y-2926960D02*
X6112920Y-2907912D01*
X6112920Y-2907912D02*
X6112920Y-2888865D01*
X6112920Y-2888865D02*
X6122444Y-2869817D01*
X6122444Y-2869817D02*
X6141492Y-2860293D01*
X6141492Y-2860293D02*
X6189111Y-2860293D01*
X6189111Y-2860293D02*
X6208158Y-2850769D01*
X6274825Y-2803150D02*
X6351015Y-2803150D01*
X6303396Y-2736484D02*
X6303396Y-2907912D01*
X6303396Y-2907912D02*
X6312920Y-2926960D01*
X6312920Y-2926960D02*
X6331968Y-2936484D01*
X6331968Y-2936484D02*
X6351015Y-2936484D01*
X6493873Y-2926960D02*
X6474825Y-2936484D01*
X6474825Y-2936484D02*
X6436730Y-2936484D01*
X6436730Y-2936484D02*
X6417682Y-2926960D01*
X6417682Y-2926960D02*
X6408158Y-2907912D01*
X6408158Y-2907912D02*
X6408158Y-2831722D01*
X6408158Y-2831722D02*
X6417682Y-2812674D01*
X6417682Y-2812674D02*
X6436730Y-2803150D01*
X6436730Y-2803150D02*
X6474825Y-2803150D01*
X6474825Y-2803150D02*
X6493873Y-2812674D01*
X6493873Y-2812674D02*
X6503396Y-2831722D01*
X6503396Y-2831722D02*
X6503396Y-2850769D01*
X6503396Y-2850769D02*
X6408158Y-2869817D01*
X6674825Y-2936484D02*
X6674825Y-2736484D01*
X6674825Y-2926960D02*
X6655777Y-2936484D01*
X6655777Y-2936484D02*
X6617682Y-2936484D01*
X6617682Y-2936484D02*
X6598634Y-2926960D01*
X6598634Y-2926960D02*
X6589111Y-2917436D01*
X6589111Y-2917436D02*
X6579587Y-2898388D01*
X6579587Y-2898388D02*
X6579587Y-2841246D01*
X6579587Y-2841246D02*
X6589111Y-2822198D01*
X6589111Y-2822198D02*
X6598634Y-2812674D01*
X6598634Y-2812674D02*
X6617682Y-2803150D01*
X6617682Y-2803150D02*
X6655777Y-2803150D01*
X6655777Y-2803150D02*
X6674825Y-2812674D01*
X6751015Y-3012674D02*
X6760539Y-3003150D01*
X6760539Y-3003150D02*
X6779587Y-2974579D01*
X6779587Y-2974579D02*
X6789111Y-2955531D01*
X6789111Y-2955531D02*
X6798634Y-2926960D01*
X6798634Y-2926960D02*
X6808158Y-2879341D01*
X6808158Y-2879341D02*
X6808158Y-2841246D01*
X6808158Y-2841246D02*
X6798634Y-2793627D01*
X6798634Y-2793627D02*
X6789111Y-2765055D01*
X6789111Y-2765055D02*
X6779587Y-2746008D01*
X6779587Y-2746008D02*
X6760539Y-2717436D01*
X6760539Y-2717436D02*
X6751015Y-2707912D01*
M02*
