%TF.GenerationSoftware,KiCad,Pcbnew,9.0.7-9.0.7~ubuntu22.04.1*%
%TF.CreationDate,2026-03-09T22:23:56-05:00*%
%TF.ProjectId,elrs-lvs,656c7273-2d6c-4767-932e-6b696361645f,2*%
%TF.SameCoordinates,Original*%
%TF.FileFunction,Copper,L2,Inr*%
%TF.FilePolarity,Positive*%
%FSLAX46Y46*%
G04 Gerber Fmt 4.6, Leading zero omitted, Abs format (unit mm)*
G04 Created by KiCad (PCBNEW 9.0.7-9.0.7~ubuntu22.04.1) date 2026-03-09 22:23:56*
%MOMM*%
%LPD*%
G01*
G04 APERTURE LIST*
G04 Aperture macros list*
%AMRoundRect*
0 Rectangle with rounded corners*
0 $1 Rounding radius*
0 $2 $3 $4 $5 $6 $7 $8 $9 X,Y pos of 4 corners*
0 Add a 4 corners polygon primitive as box body*
4,1,4,$2,$3,$4,$5,$6,$7,$8,$9,$2,$3,0*
0 Add four circle primitives for the rounded corners*
1,1,$1+$1,$2,$3*
1,1,$1+$1,$4,$5*
1,1,$1+$1,$6,$7*
1,1,$1+$1,$8,$9*
0 Add four rect primitives between the rounded corners*
20,1,$1+$1,$2,$3,$4,$5,0*
20,1,$1+$1,$4,$5,$6,$7,0*
20,1,$1+$1,$6,$7,$8,$9,0*
20,1,$1+$1,$8,$9,$2,$3,0*%
G04 Aperture macros list end*
%TA.AperFunction,ComponentPad*%
%ADD10R,1.700000X1.700000*%
%TD*%
%TA.AperFunction,ComponentPad*%
%ADD11O,1.700000X1.700000*%
%TD*%
%TA.AperFunction,ComponentPad*%
%ADD12RoundRect,0.250000X0.725000X-0.600000X0.725000X0.600000X-0.725000X0.600000X-0.725000X-0.600000X0*%
%TD*%
%TA.AperFunction,ComponentPad*%
%ADD13O,1.950000X1.700000*%
%TD*%
%TA.AperFunction,ViaPad*%
%ADD14C,0.450000*%
%TD*%
%TA.AperFunction,Conductor*%
%ADD15C,0.250000*%
%TD*%
G04 APERTURE END LIST*
D10*
%TO.N,Net-(J7-Pin_1)*%
%TO.C,J7*%
X7225000Y-17350000D03*
D11*
%TO.N,+5V*%
X4685000Y-17350000D03*
%TO.N,GND*%
X2145000Y-17350000D03*
%TD*%
D10*
%TO.N,Net-(J8-Pin_1)*%
%TO.C,J8*%
X7225000Y-19890000D03*
D11*
%TO.N,+5V*%
X4685000Y-19890000D03*
%TO.N,GND*%
X2145000Y-19890000D03*
%TD*%
D10*
%TO.N,Net-(J2-Pin_1)*%
%TO.C,J2*%
X7225000Y-4650000D03*
D11*
%TO.N,+5V*%
X4685000Y-4650000D03*
%TO.N,GND*%
X2145000Y-4650000D03*
%TD*%
D10*
%TO.N,Net-(J1-Pin_1)*%
%TO.C,J1*%
X7225000Y-2110000D03*
D11*
%TO.N,+5V*%
X4685000Y-2110000D03*
%TO.N,GND*%
X2145000Y-2110000D03*
%TD*%
D10*
%TO.N,Net-(J3-Pin_1)*%
%TO.C,J3*%
X7225000Y-7190000D03*
D11*
%TO.N,+5V*%
X4685000Y-7190000D03*
%TO.N,GND*%
X2145000Y-7190000D03*
%TD*%
D10*
%TO.N,Net-(J4-Pin_1)*%
%TO.C,J4*%
X7225000Y-9730000D03*
D11*
%TO.N,+5V*%
X4685000Y-9730000D03*
%TO.N,GND*%
X2145000Y-9730000D03*
%TD*%
D10*
%TO.N,Net-(J6-Pin_1)*%
%TO.C,J6*%
X7225000Y-14810000D03*
D11*
%TO.N,+5V*%
X4685000Y-14810000D03*
%TO.N,GND*%
X2145000Y-14810000D03*
%TD*%
D12*
%TO.N,Net-(J12-Pin_1)*%
%TO.C,J12*%
X37850000Y-18480000D03*
D13*
%TO.N,Net-(J12-Pin_2)*%
X37850000Y-15980000D03*
%TO.N,Net-(J12-Pin_3)*%
X37850000Y-13480000D03*
%TO.N,Net-(J12-Pin_4)*%
X37850000Y-10980000D03*
%TO.N,Net-(J12-Pin_5)*%
X37850000Y-8480000D03*
%TO.N,Net-(J12-Pin_6)*%
X37850000Y-5980000D03*
%TO.N,Net-(J12-Pin_7)*%
X37850000Y-3480000D03*
%TD*%
D10*
%TO.N,Net-(J5-Pin_1)*%
%TO.C,J5*%
X7225000Y-12270000D03*
D11*
%TO.N,+5V*%
X4685000Y-12270000D03*
%TO.N,GND*%
X2145000Y-12270000D03*
%TD*%
D14*
%TO.N,GND*%
X36320000Y-12700000D03*
X36310000Y-7740000D03*
X16100000Y-6160000D03*
X30430000Y-17630000D03*
X11050000Y-11240000D03*
X27400000Y-17750000D03*
X21580000Y-19840000D03*
X15890000Y-17770000D03*
X36310000Y-10210000D03*
X14480000Y-1410000D03*
X36310000Y-17710000D03*
X33290000Y-2820000D03*
X11180000Y-17590000D03*
X23960000Y-1860000D03*
X19590000Y-11660000D03*
X28510000Y-8000000D03*
X28150000Y-15090000D03*
X36320000Y-5190000D03*
X28650000Y-12250000D03*
X31420000Y-1870000D03*
X33290000Y-10330000D03*
X33190000Y-14000000D03*
X14550000Y-15880000D03*
X16100500Y-2630000D03*
X36310000Y-15200000D03*
X32610000Y-16080000D03*
X33290000Y-5300000D03*
X24360000Y-5080000D03*
X11180000Y-18420000D03*
X25050000Y-3790000D03*
X26680000Y-10280000D03*
X33910000Y-20000000D03*
X29880000Y-1860000D03*
X22440000Y-1870000D03*
X33160000Y-13260000D03*
X33290000Y-7860000D03*
X24620000Y-12850000D03*
X10570000Y-1400000D03*
X14600000Y-2270000D03*
X29660000Y-15060000D03*
X19330000Y-2440000D03*
X12350000Y-1400000D03*
X30260000Y-5890000D03*
%TO.N,/V_DCC*%
X26540000Y-8060000D03*
X31220000Y-13000000D03*
%TO.N,+3.3V*%
X27900000Y-9680000D03*
X24970000Y-19860000D03*
X13250000Y-12360000D03*
X11030000Y-13310000D03*
X34300000Y-10250000D03*
X18650000Y-1140000D03*
X15500000Y-13420000D03*
X18650000Y-1769003D03*
X15450000Y-8840000D03*
X26070000Y-12030000D03*
X33590000Y-17990000D03*
X34300000Y-2790000D03*
X26370000Y-16420000D03*
X23360000Y-5130000D03*
X32280000Y-5880000D03*
X23895597Y-11686899D03*
X34300000Y-15290000D03*
X34290000Y-5310000D03*
X18090000Y-16040000D03*
X16290000Y-15190000D03*
X34660000Y-13020000D03*
X22156546Y-7344462D03*
X34310000Y-7770000D03*
X15450000Y-11910000D03*
%TO.N,/RESET*%
X13830000Y-17640000D03*
X19040000Y-6650000D03*
X20830000Y-16990000D03*
%TO.N,/SERIAL_RX*%
X13520000Y-9850000D03*
X24620000Y-7050000D03*
%TO.N,/LVS6*%
X32770000Y-7000000D03*
X25760000Y-15210000D03*
%TO.N,/LVS2*%
X23500000Y-17640000D03*
X32620000Y-17000000D03*
%TO.N,/SERIAL_TX*%
X27440000Y-7070000D03*
X13740000Y-10730000D03*
%TO.N,/LVS1*%
X32080000Y-18270000D03*
X21500000Y-19000000D03*
%TO.N,/LVS3*%
X31140000Y-15130000D03*
X24360000Y-16840000D03*
%TO.N,/LVS5*%
X32740000Y-9730000D03*
X22940000Y-15100000D03*
%TO.N,/BOOT*%
X13220000Y-18540000D03*
X24100000Y-7660000D03*
%TO.N,/LVS4*%
X33580000Y-12530000D03*
X25130000Y-16280000D03*
%TO.N,/LVS7*%
X21910000Y-16890000D03*
X24020000Y-18281800D03*
X32620000Y-4490000D03*
%TO.N,/VS_5V*%
X22400000Y-16160000D03*
X12030000Y-13450000D03*
%TO.N,/RADIO_MOSI*%
X24100000Y-9810000D03*
X25760000Y-13300000D03*
%TO.N,/RADIO_DIO1*%
X29341600Y-9370459D03*
X23840000Y-10880000D03*
%TO.N,/RADIO_BUSY*%
X30410000Y-10280000D03*
X23040000Y-8470000D03*
%TO.N,/RADIO_RST*%
X17840000Y-7560000D03*
X31660000Y-12230000D03*
%TO.N,/PWM1*%
X14380000Y-9800000D03*
X10910000Y-5020000D03*
%TO.N,+5V*%
X26315000Y-3740000D03*
X26310000Y-2610000D03*
%TO.N,/PWM2*%
X10000000Y-5440000D03*
X15270000Y-9950000D03*
%TO.N,/PWM3*%
X8690000Y-5940000D03*
X24900000Y-15120000D03*
%TO.N,/PWM4*%
X10030000Y-10450000D03*
X24780000Y-14290000D03*
%TO.N,/PWM5*%
X20300000Y-7240000D03*
X10010000Y-11550000D03*
%TO.N,/PWM6*%
X10710000Y-14800000D03*
X20750000Y-6450000D03*
%TO.N,/PWM7*%
X18890000Y-7530000D03*
X10020000Y-16660000D03*
%TO.N,/PWM8*%
X21560000Y-6640000D03*
X10010000Y-19170000D03*
%TD*%
D15*
%TO.N,GND*%
X16100500Y-2630000D02*
X16100500Y-3329500D01*
X16100500Y-3329500D02*
X16100000Y-3330000D01*
X22610000Y-3330000D02*
X16100000Y-3330000D01*
X16100000Y-6160000D02*
X16100000Y-3330000D01*
X16100500Y-2630000D02*
X16290500Y-2440000D01*
X16290500Y-2440000D02*
X19330000Y-2440000D01*
X24360000Y-5080000D02*
X22610000Y-3330000D01*
X16100000Y-3330000D02*
X2200000Y-3330000D01*
X2200000Y-3330000D02*
X2140000Y-3270000D01*
X2140000Y-3270000D02*
X2140000Y-2115000D01*
X2140000Y-2115000D02*
X2145000Y-2110000D01*
X18770000Y-11660000D02*
X14550000Y-15880000D01*
X28150000Y-15090000D02*
X28150000Y-17000000D01*
X33190000Y-14000000D02*
X33320000Y-14130000D01*
X34196000Y-19714000D02*
X34196000Y-17666000D01*
X36320000Y-7730000D02*
X36310000Y-7740000D01*
X23800000Y-4520000D02*
X24360000Y-5080000D01*
X25050000Y-3790000D02*
X25050000Y-1870000D01*
X28150000Y-17000000D02*
X27400000Y-17750000D01*
X36310000Y-10210000D02*
X36310000Y-12690000D01*
X33320000Y-14130000D02*
X33320000Y-15370000D01*
X25513466Y-17750000D02*
X27400000Y-17750000D01*
X19234000Y-11304000D02*
X19590000Y-11660000D01*
X28650000Y-12250000D02*
X28650000Y-14590000D01*
X30400000Y-14000000D02*
X30006000Y-13606000D01*
X19590000Y-11660000D02*
X18770000Y-11660000D01*
X19590000Y-11660000D02*
X19590000Y-6988334D01*
X28510000Y-8000000D02*
X28650000Y-8140000D01*
X21580000Y-19840000D02*
X22330000Y-19090000D01*
X22330000Y-19090000D02*
X24173466Y-19090000D01*
X11180000Y-17590000D02*
X11180000Y-18420000D01*
X33190000Y-13290000D02*
X33160000Y-13260000D01*
X15198986Y-11304000D02*
X19234000Y-11304000D01*
X33320000Y-15370000D02*
X32610000Y-16080000D01*
X33190000Y-14000000D02*
X30400000Y-14000000D01*
X33190000Y-14000000D02*
X33190000Y-13290000D01*
X36310000Y-7740000D02*
X36310000Y-10210000D01*
X33290000Y-10330000D02*
X33420000Y-10200000D01*
X24173466Y-19090000D02*
X25513466Y-17750000D01*
X36320000Y-15190000D02*
X36310000Y-15200000D01*
X30006000Y-13606000D02*
X32814000Y-13606000D01*
X19590000Y-11660000D02*
X19430000Y-11660000D01*
X33420000Y-9448334D02*
X33290000Y-9318334D01*
X22058334Y-4520000D02*
X23800000Y-4520000D01*
X26680000Y-10280000D02*
X28650000Y-12250000D01*
X32900000Y-12248334D02*
X32900000Y-13000000D01*
X11180000Y-17590000D02*
X12840000Y-17590000D01*
X33160000Y-10460000D02*
X33160000Y-11988334D01*
X34196000Y-17666000D02*
X32610000Y-16080000D01*
X19590000Y-6988334D02*
X20070000Y-6508334D01*
X16100000Y-8170000D02*
X16100000Y-6160000D01*
X17710000Y-13380000D02*
X17710000Y-15458334D01*
X24620000Y-13017014D02*
X25508986Y-13906000D01*
X33910000Y-20000000D02*
X34196000Y-19714000D01*
X28510000Y-8000000D02*
X28510000Y-7640000D01*
X11050000Y-11240000D02*
X11146000Y-11336000D01*
X19430000Y-11660000D02*
X17710000Y-13380000D01*
X20070000Y-6508334D02*
X20070000Y-6168334D01*
X33160000Y-11988334D02*
X32900000Y-12248334D01*
X11146000Y-11336000D02*
X15166986Y-11336000D01*
X36310000Y-10210000D02*
X35664000Y-10856000D01*
X24620000Y-12850000D02*
X20780000Y-12850000D01*
X25040000Y-1860000D02*
X23960000Y-1860000D01*
X32814000Y-13606000D02*
X33160000Y-13260000D01*
X30006000Y-13606000D02*
X28650000Y-12250000D01*
X17410000Y-15758334D02*
X17410000Y-16250000D01*
X36310000Y-17710000D02*
X36310000Y-15200000D01*
X28650000Y-8140000D02*
X28650000Y-12250000D01*
X33290000Y-6558334D02*
X33450000Y-6718334D01*
X36320000Y-5190000D02*
X36320000Y-7730000D01*
X20468334Y-5770000D02*
X20808334Y-5770000D01*
X25050000Y-1870000D02*
X25040000Y-1860000D01*
X26994000Y-13906000D02*
X28650000Y-12250000D01*
X33290000Y-5300000D02*
X33290000Y-6558334D01*
X28650000Y-14590000D02*
X28150000Y-15090000D01*
X33816000Y-10856000D02*
X33290000Y-10330000D01*
X33450000Y-7700000D02*
X33290000Y-7860000D01*
X17710000Y-15458334D02*
X17410000Y-15758334D01*
X33290000Y-5300000D02*
X33290000Y-2820000D01*
X33290000Y-10330000D02*
X33160000Y-10460000D01*
X29880000Y-1860000D02*
X25040000Y-1860000D01*
X28510000Y-7640000D02*
X30260000Y-5890000D01*
X20808334Y-5770000D02*
X22058334Y-4520000D01*
X24360000Y-4480000D02*
X25050000Y-3790000D01*
X33450000Y-6718334D02*
X33450000Y-7700000D01*
X33420000Y-10200000D02*
X33420000Y-9448334D01*
X36320000Y-12700000D02*
X36320000Y-15190000D01*
X35664000Y-10856000D02*
X33816000Y-10856000D01*
X36310000Y-12690000D02*
X36320000Y-12700000D01*
X19590000Y-11660000D02*
X16100000Y-8170000D01*
X20070000Y-6168334D02*
X20468334Y-5770000D01*
X25508986Y-13906000D02*
X26994000Y-13906000D01*
X15166986Y-11336000D02*
X15198986Y-11304000D01*
X32900000Y-13000000D02*
X33160000Y-13260000D01*
X24620000Y-12850000D02*
X24620000Y-13017014D01*
X24360000Y-5080000D02*
X24360000Y-4480000D01*
X17410000Y-16250000D02*
X15890000Y-17770000D01*
X33290000Y-9318334D02*
X33290000Y-7860000D01*
X12840000Y-17590000D02*
X14550000Y-15880000D01*
X20780000Y-12850000D02*
X19590000Y-11660000D01*
%TD*%
%TA.AperFunction,Conductor*%
%TO.N,GND*%
G36*
X18517807Y-520185D02*
G01*
X18563562Y-572989D01*
X18573506Y-642147D01*
X18544481Y-705703D01*
X18492689Y-738986D01*
X18493270Y-740388D01*
X18485760Y-743498D01*
X18388740Y-799513D01*
X18388734Y-799517D01*
X18309517Y-878734D01*
X18309513Y-878740D01*
X18253498Y-975760D01*
X18253497Y-975763D01*
X18224500Y-1083982D01*
X18224500Y-1196018D01*
X18250761Y-1294024D01*
X18253497Y-1304236D01*
X18253498Y-1304239D01*
X18304456Y-1392501D01*
X18320929Y-1460401D01*
X18304457Y-1516500D01*
X18253497Y-1604765D01*
X18253497Y-1604766D01*
X18224500Y-1712985D01*
X18224500Y-1825021D01*
X18253497Y-1933240D01*
X18309515Y-2030266D01*
X18388737Y-2109488D01*
X18485763Y-2165506D01*
X18593982Y-2194503D01*
X18593984Y-2194503D01*
X18706016Y-2194503D01*
X18706018Y-2194503D01*
X18814237Y-2165506D01*
X18911263Y-2109488D01*
X18990485Y-2030266D01*
X19046503Y-1933240D01*
X19075500Y-1825021D01*
X19075500Y-1712985D01*
X19046503Y-1604766D01*
X18995542Y-1516500D01*
X18979070Y-1448601D01*
X18995541Y-1392504D01*
X19046503Y-1304237D01*
X19075500Y-1196018D01*
X19075500Y-1083982D01*
X19046503Y-975763D01*
X18990485Y-878737D01*
X18911263Y-799515D01*
X18814237Y-743497D01*
X18814235Y-743496D01*
X18806730Y-740388D01*
X18807542Y-738425D01*
X18757479Y-707911D01*
X18726949Y-645065D01*
X18735243Y-575689D01*
X18779727Y-521811D01*
X18846279Y-500535D01*
X18849232Y-500500D01*
X45375500Y-500500D01*
X45442539Y-520185D01*
X45488294Y-572989D01*
X45499500Y-624500D01*
X45499500Y-21375500D01*
X45479815Y-21442539D01*
X45427011Y-21488294D01*
X45375500Y-21499500D01*
X624500Y-21499500D01*
X557461Y-21479815D01*
X511706Y-21427011D01*
X500500Y-21375500D01*
X500500Y-19639999D01*
X1070884Y-19639999D01*
X1070885Y-19640000D01*
X1711988Y-19640000D01*
X1679075Y-19697007D01*
X1645000Y-19824174D01*
X1645000Y-19955826D01*
X1679075Y-20082993D01*
X1711988Y-20140000D01*
X1070885Y-20140000D01*
X1072085Y-20147584D01*
X1125591Y-20312255D01*
X1204195Y-20466524D01*
X1305967Y-20606602D01*
X1428397Y-20729032D01*
X1568475Y-20830804D01*
X1722744Y-20909408D01*
X1887415Y-20962914D01*
X1887414Y-20962914D01*
X1894999Y-20964115D01*
X1895000Y-20964114D01*
X1895000Y-20323012D01*
X1952007Y-20355925D01*
X2079174Y-20390000D01*
X2210826Y-20390000D01*
X2337993Y-20355925D01*
X2395000Y-20323012D01*
X2395000Y-20964115D01*
X2402584Y-20962914D01*
X2567255Y-20909408D01*
X2721524Y-20830804D01*
X2861602Y-20729032D01*
X2984032Y-20606602D01*
X3085804Y-20466524D01*
X3164408Y-20312255D01*
X3217914Y-20147584D01*
X3219115Y-20140000D01*
X2578012Y-20140000D01*
X2610925Y-20082993D01*
X2645000Y-19955826D01*
X2645000Y-19824174D01*
X2634913Y-19786530D01*
X3634500Y-19786530D01*
X3634500Y-19993469D01*
X3674868Y-20196412D01*
X3674870Y-20196420D01*
X3754058Y-20387596D01*
X3869024Y-20559657D01*
X4015342Y-20705975D01*
X4015345Y-20705977D01*
X4187402Y-20820941D01*
X4378580Y-20900130D01*
X4523052Y-20928867D01*
X4581530Y-20940499D01*
X4581534Y-20940500D01*
X4581535Y-20940500D01*
X4788466Y-20940500D01*
X4788467Y-20940499D01*
X4991420Y-20900130D01*
X5182598Y-20820941D01*
X5354655Y-20705977D01*
X5500977Y-20559655D01*
X5615941Y-20387598D01*
X5695130Y-20196420D01*
X5735500Y-19993465D01*
X5735500Y-19786535D01*
X5695130Y-19583580D01*
X5615941Y-19392402D01*
X5500977Y-19220345D01*
X5500975Y-19220342D01*
X5354657Y-19074024D01*
X5274173Y-19020247D01*
X6174500Y-19020247D01*
X6174500Y-20759752D01*
X6186131Y-20818229D01*
X6186132Y-20818230D01*
X6230447Y-20884552D01*
X6296769Y-20928867D01*
X6296770Y-20928868D01*
X6355247Y-20940499D01*
X6355250Y-20940500D01*
X6355252Y-20940500D01*
X8094750Y-20940500D01*
X8094751Y-20940499D01*
X8109568Y-20937552D01*
X8153229Y-20928868D01*
X8153229Y-20928867D01*
X8153231Y-20928867D01*
X8219552Y-20884552D01*
X8263867Y-20818231D01*
X8263867Y-20818229D01*
X8263868Y-20818229D01*
X8275499Y-20759752D01*
X8275500Y-20759750D01*
X8275500Y-20219962D01*
X16390000Y-20219962D01*
X18290000Y-20219962D01*
X18290000Y-19803982D01*
X24544500Y-19803982D01*
X24544500Y-19916018D01*
X24573497Y-20024237D01*
X24629515Y-20121263D01*
X24708737Y-20200485D01*
X24805763Y-20256503D01*
X24913982Y-20285500D01*
X24913984Y-20285500D01*
X25026016Y-20285500D01*
X25026018Y-20285500D01*
X25134237Y-20256503D01*
X25231263Y-20200485D01*
X25310485Y-20121263D01*
X25366503Y-20024237D01*
X25395500Y-19916018D01*
X25395500Y-19803982D01*
X25366503Y-19695763D01*
X25310485Y-19598737D01*
X25231263Y-19519515D01*
X25134237Y-19463497D01*
X25026018Y-19434500D01*
X24913982Y-19434500D01*
X24805763Y-19463497D01*
X24805760Y-19463498D01*
X24708740Y-19519513D01*
X24708734Y-19519517D01*
X24629517Y-19598734D01*
X24629513Y-19598740D01*
X24573498Y-19695760D01*
X24573497Y-19695763D01*
X24544500Y-19803982D01*
X18290000Y-19803982D01*
X18290000Y-18943982D01*
X21074500Y-18943982D01*
X21074500Y-19056018D01*
X21095467Y-19134266D01*
X21103497Y-19164236D01*
X21103498Y-19164239D01*
X21122169Y-19196579D01*
X21159515Y-19261263D01*
X21238737Y-19340485D01*
X21335763Y-19396503D01*
X21443982Y-19425500D01*
X21443984Y-19425500D01*
X21556016Y-19425500D01*
X21556018Y-19425500D01*
X21664237Y-19396503D01*
X21761263Y-19340485D01*
X21840485Y-19261263D01*
X21896503Y-19164237D01*
X21897638Y-19160000D01*
X27950000Y-19160000D01*
X27950000Y-20205000D01*
X29850000Y-20205000D01*
X29850000Y-18213982D01*
X31654500Y-18213982D01*
X31654500Y-18326018D01*
X31683497Y-18434237D01*
X31739515Y-18531263D01*
X31818737Y-18610485D01*
X31915763Y-18666503D01*
X32023982Y-18695500D01*
X32023984Y-18695500D01*
X32136016Y-18695500D01*
X32136018Y-18695500D01*
X32244237Y-18666503D01*
X32341263Y-18610485D01*
X32420485Y-18531263D01*
X32476503Y-18434237D01*
X32505500Y-18326018D01*
X32505500Y-18213982D01*
X32476503Y-18105763D01*
X32420485Y-18008737D01*
X32345730Y-17933982D01*
X33164500Y-17933982D01*
X33164500Y-18046018D01*
X33193497Y-18154237D01*
X33249515Y-18251263D01*
X33328737Y-18330485D01*
X33425763Y-18386503D01*
X33533982Y-18415500D01*
X33533984Y-18415500D01*
X33646016Y-18415500D01*
X33646018Y-18415500D01*
X33754237Y-18386503D01*
X33851263Y-18330485D01*
X33930485Y-18251263D01*
X33986503Y-18154237D01*
X34015500Y-18046018D01*
X34015500Y-17933982D01*
X33986503Y-17825763D01*
X33986484Y-17825730D01*
X36674500Y-17825730D01*
X36674500Y-19134269D01*
X36677353Y-19164699D01*
X36677353Y-19164701D01*
X36722206Y-19292880D01*
X36722207Y-19292882D01*
X36802850Y-19402150D01*
X36912118Y-19482793D01*
X36932432Y-19489901D01*
X37040299Y-19527646D01*
X37070730Y-19530500D01*
X37070734Y-19530500D01*
X38629270Y-19530500D01*
X38659699Y-19527646D01*
X38659701Y-19527646D01*
X38723790Y-19505219D01*
X38787882Y-19482793D01*
X38897150Y-19402150D01*
X38977793Y-19292882D01*
X39003176Y-19220342D01*
X39022646Y-19164701D01*
X39022646Y-19164699D01*
X39025500Y-19134269D01*
X39025500Y-17825730D01*
X39022646Y-17795300D01*
X39022646Y-17795298D01*
X38987906Y-17696019D01*
X38977793Y-17667118D01*
X38897150Y-17557850D01*
X38787882Y-17477207D01*
X38787880Y-17477206D01*
X38659700Y-17432353D01*
X38629270Y-17429500D01*
X38629266Y-17429500D01*
X37070734Y-17429500D01*
X37070730Y-17429500D01*
X37040300Y-17432353D01*
X37040298Y-17432353D01*
X36912119Y-17477206D01*
X36912117Y-17477207D01*
X36802850Y-17557850D01*
X36722207Y-17667117D01*
X36722206Y-17667119D01*
X36677353Y-17795298D01*
X36677353Y-17795300D01*
X36674500Y-17825730D01*
X33986484Y-17825730D01*
X33930485Y-17728737D01*
X33851263Y-17649515D01*
X33754237Y-17593497D01*
X33646018Y-17564500D01*
X33533982Y-17564500D01*
X33425763Y-17593497D01*
X33425760Y-17593498D01*
X33328740Y-17649513D01*
X33328734Y-17649517D01*
X33249517Y-17728734D01*
X33249513Y-17728740D01*
X33193498Y-17825760D01*
X33193497Y-17825763D01*
X33164500Y-17933982D01*
X32345730Y-17933982D01*
X32341263Y-17929515D01*
X32244237Y-17873497D01*
X32136018Y-17844500D01*
X32023982Y-17844500D01*
X31915763Y-17873497D01*
X31915760Y-17873498D01*
X31818740Y-17929513D01*
X31818734Y-17929517D01*
X31739517Y-18008734D01*
X31739513Y-18008740D01*
X31683498Y-18105760D01*
X31683497Y-18105763D01*
X31654500Y-18213982D01*
X29850000Y-18213982D01*
X29850000Y-18115000D01*
X27950000Y-18115000D01*
X27950000Y-19160000D01*
X21897638Y-19160000D01*
X21925500Y-19056018D01*
X21925500Y-18943982D01*
X21896503Y-18835763D01*
X21840485Y-18738737D01*
X21761263Y-18659515D01*
X21676341Y-18610485D01*
X21664239Y-18603498D01*
X21664238Y-18603497D01*
X21664237Y-18603497D01*
X21556018Y-18574500D01*
X21443982Y-18574500D01*
X21335763Y-18603497D01*
X21335760Y-18603498D01*
X21238740Y-18659513D01*
X21238734Y-18659517D01*
X21159517Y-18738734D01*
X21159513Y-18738740D01*
X21103498Y-18835760D01*
X21103497Y-18835763D01*
X21074500Y-18943982D01*
X18290000Y-18943982D01*
X18290000Y-18129962D01*
X16390000Y-18129962D01*
X16390000Y-20219962D01*
X8275500Y-20219962D01*
X8275500Y-19113982D01*
X9584500Y-19113982D01*
X9584500Y-19226018D01*
X9602416Y-19292880D01*
X9613497Y-19334236D01*
X9613498Y-19334239D01*
X9617104Y-19340485D01*
X9669515Y-19431263D01*
X9748737Y-19510485D01*
X9845763Y-19566503D01*
X9953982Y-19595500D01*
X9953984Y-19595500D01*
X10066016Y-19595500D01*
X10066018Y-19595500D01*
X10174237Y-19566503D01*
X10271263Y-19510485D01*
X10350485Y-19431263D01*
X10406503Y-19334237D01*
X10435500Y-19226018D01*
X10435500Y-19113982D01*
X10406503Y-19005763D01*
X10350485Y-18908737D01*
X10271263Y-18829515D01*
X10174237Y-18773497D01*
X10066018Y-18744500D01*
X9953982Y-18744500D01*
X9845763Y-18773497D01*
X9845760Y-18773498D01*
X9748740Y-18829513D01*
X9748734Y-18829517D01*
X9669517Y-18908734D01*
X9669513Y-18908740D01*
X9613498Y-19005760D01*
X9613497Y-19005763D01*
X9584500Y-19113982D01*
X8275500Y-19113982D01*
X8275500Y-19020249D01*
X8275499Y-19020247D01*
X8263868Y-18961770D01*
X8263867Y-18961769D01*
X8219552Y-18895447D01*
X8153230Y-18851132D01*
X8153229Y-18851131D01*
X8094752Y-18839500D01*
X8094748Y-18839500D01*
X6355252Y-18839500D01*
X6355247Y-18839500D01*
X6296770Y-18851131D01*
X6296769Y-18851132D01*
X6230447Y-18895447D01*
X6186132Y-18961769D01*
X6186131Y-18961770D01*
X6174500Y-19020247D01*
X5274173Y-19020247D01*
X5252491Y-19005760D01*
X5182598Y-18959059D01*
X5158784Y-18949195D01*
X4991420Y-18879870D01*
X4991412Y-18879868D01*
X4788469Y-18839500D01*
X4788465Y-18839500D01*
X4581535Y-18839500D01*
X4581530Y-18839500D01*
X4378587Y-18879868D01*
X4378579Y-18879870D01*
X4187403Y-18959058D01*
X4015342Y-19074024D01*
X3869024Y-19220342D01*
X3754058Y-19392403D01*
X3674870Y-19583579D01*
X3674868Y-19583587D01*
X3634500Y-19786530D01*
X2634913Y-19786530D01*
X2610925Y-19697007D01*
X2578012Y-19640000D01*
X3219115Y-19640000D01*
X3219115Y-19639999D01*
X3217914Y-19632415D01*
X3164408Y-19467744D01*
X3085804Y-19313475D01*
X2984032Y-19173397D01*
X2861602Y-19050967D01*
X2721524Y-18949195D01*
X2567257Y-18870591D01*
X2402589Y-18817087D01*
X2402581Y-18817085D01*
X2395000Y-18815884D01*
X2395000Y-19456988D01*
X2337993Y-19424075D01*
X2210826Y-19390000D01*
X2079174Y-19390000D01*
X1952007Y-19424075D01*
X1895000Y-19456988D01*
X1895000Y-18815884D01*
X1894999Y-18815884D01*
X1887418Y-18817085D01*
X1887410Y-18817087D01*
X1722742Y-18870591D01*
X1568475Y-18949195D01*
X1428397Y-19050967D01*
X1305967Y-19173397D01*
X1204195Y-19313475D01*
X1125591Y-19467744D01*
X1072085Y-19632415D01*
X1070884Y-19639999D01*
X500500Y-19639999D01*
X500500Y-18483982D01*
X12794500Y-18483982D01*
X12794500Y-18596018D01*
X12823497Y-18704237D01*
X12879515Y-18801263D01*
X12958737Y-18880485D01*
X13055763Y-18936503D01*
X13163982Y-18965500D01*
X13163984Y-18965500D01*
X13276016Y-18965500D01*
X13276018Y-18965500D01*
X13384237Y-18936503D01*
X13481263Y-18880485D01*
X13560485Y-18801263D01*
X13616503Y-18704237D01*
X13645500Y-18596018D01*
X13645500Y-18483982D01*
X13616503Y-18375763D01*
X13560485Y-18278737D01*
X13481263Y-18199515D01*
X13384237Y-18143497D01*
X13276018Y-18114500D01*
X13163982Y-18114500D01*
X13055763Y-18143497D01*
X13055760Y-18143498D01*
X12958740Y-18199513D01*
X12958734Y-18199517D01*
X12879517Y-18278734D01*
X12879513Y-18278740D01*
X12823498Y-18375760D01*
X12823497Y-18375763D01*
X12794500Y-18483982D01*
X500500Y-18483982D01*
X500500Y-17099999D01*
X1070884Y-17099999D01*
X1070885Y-17100000D01*
X1711988Y-17100000D01*
X1679075Y-17157007D01*
X1645000Y-17284174D01*
X1645000Y-17415826D01*
X1679075Y-17542993D01*
X1711988Y-17600000D01*
X1070885Y-17600000D01*
X1072085Y-17607584D01*
X1125591Y-17772255D01*
X1204195Y-17926524D01*
X1305967Y-18066602D01*
X1428397Y-18189032D01*
X1568475Y-18290804D01*
X1722744Y-18369408D01*
X1887415Y-18422914D01*
X1887414Y-18422914D01*
X1894999Y-18424115D01*
X1895000Y-18424114D01*
X1895000Y-17783012D01*
X1952007Y-17815925D01*
X2079174Y-17850000D01*
X2210826Y-17850000D01*
X2337993Y-17815925D01*
X2395000Y-17783012D01*
X2395000Y-18424115D01*
X2402584Y-18422914D01*
X2567255Y-18369408D01*
X2721524Y-18290804D01*
X2861602Y-18189032D01*
X2984032Y-18066602D01*
X3085804Y-17926524D01*
X3164408Y-17772255D01*
X3217914Y-17607584D01*
X3219115Y-17600000D01*
X2578012Y-17600000D01*
X2610925Y-17542993D01*
X2645000Y-17415826D01*
X2645000Y-17284174D01*
X2634913Y-17246530D01*
X3634500Y-17246530D01*
X3634500Y-17453469D01*
X3674868Y-17656412D01*
X3674870Y-17656420D01*
X3745014Y-17825763D01*
X3754059Y-17847598D01*
X3779249Y-17885298D01*
X3869024Y-18019657D01*
X4015342Y-18165975D01*
X4015345Y-18165977D01*
X4187402Y-18280941D01*
X4378580Y-18360130D01*
X4523052Y-18388867D01*
X4581530Y-18400499D01*
X4581534Y-18400500D01*
X4581535Y-18400500D01*
X4788466Y-18400500D01*
X4788467Y-18400499D01*
X4991420Y-18360130D01*
X5182598Y-18280941D01*
X5354655Y-18165977D01*
X5500977Y-18019655D01*
X5615941Y-17847598D01*
X5695130Y-17656420D01*
X5735500Y-17453465D01*
X5735500Y-17246535D01*
X5695130Y-17043580D01*
X5615941Y-16852402D01*
X5500977Y-16680345D01*
X5500975Y-16680342D01*
X5354657Y-16534024D01*
X5274173Y-16480247D01*
X6174500Y-16480247D01*
X6174500Y-18219752D01*
X6186131Y-18278229D01*
X6186132Y-18278230D01*
X6230447Y-18344552D01*
X6296769Y-18388867D01*
X6296770Y-18388868D01*
X6355247Y-18400499D01*
X6355250Y-18400500D01*
X6355252Y-18400500D01*
X8094750Y-18400500D01*
X8094751Y-18400499D01*
X8114418Y-18396587D01*
X8153228Y-18388868D01*
X8153228Y-18388867D01*
X8153231Y-18388867D01*
X8219552Y-18344552D01*
X8263867Y-18278231D01*
X8263867Y-18278229D01*
X8263868Y-18278229D01*
X8274300Y-18225780D01*
X8275500Y-18219748D01*
X8275500Y-17583982D01*
X13404500Y-17583982D01*
X13404500Y-17696018D01*
X13433497Y-17804237D01*
X13489515Y-17901263D01*
X13568737Y-17980485D01*
X13665763Y-18036503D01*
X13773982Y-18065500D01*
X13773984Y-18065500D01*
X13886016Y-18065500D01*
X13886018Y-18065500D01*
X13994237Y-18036503D01*
X14091263Y-17980485D01*
X14170485Y-17901263D01*
X14226503Y-17804237D01*
X14255500Y-17696018D01*
X14255500Y-17583982D01*
X23074500Y-17583982D01*
X23074500Y-17696018D01*
X23103497Y-17804237D01*
X23159515Y-17901263D01*
X23238737Y-17980485D01*
X23335763Y-18036503D01*
X23443982Y-18065500D01*
X23443984Y-18065500D01*
X23475848Y-18065500D01*
X23542887Y-18085185D01*
X23588642Y-18137989D01*
X23598586Y-18207147D01*
X23595622Y-18221595D01*
X23594500Y-18225780D01*
X23594500Y-18225782D01*
X23594500Y-18337818D01*
X23623497Y-18446037D01*
X23679515Y-18543063D01*
X23758737Y-18622285D01*
X23855763Y-18678303D01*
X23963982Y-18707300D01*
X23963984Y-18707300D01*
X24076016Y-18707300D01*
X24076018Y-18707300D01*
X24184237Y-18678303D01*
X24281263Y-18622285D01*
X24360485Y-18543063D01*
X24416503Y-18446037D01*
X24445500Y-18337818D01*
X24445500Y-18225782D01*
X24416503Y-18117563D01*
X24360485Y-18020537D01*
X24281263Y-17941315D01*
X24184237Y-17885297D01*
X24076018Y-17856300D01*
X24044152Y-17856300D01*
X23977113Y-17836615D01*
X23931358Y-17783811D01*
X23921414Y-17714653D01*
X23924378Y-17700205D01*
X23925500Y-17696018D01*
X23925500Y-17583982D01*
X23896503Y-17475763D01*
X23840485Y-17378737D01*
X23761263Y-17299515D01*
X23669497Y-17246534D01*
X23664239Y-17243498D01*
X23664238Y-17243497D01*
X23664237Y-17243497D01*
X23556018Y-17214500D01*
X23443982Y-17214500D01*
X23335763Y-17243497D01*
X23335760Y-17243498D01*
X23238740Y-17299513D01*
X23238734Y-17299517D01*
X23159517Y-17378734D01*
X23159513Y-17378740D01*
X23103498Y-17475760D01*
X23103497Y-17475763D01*
X23074500Y-17583982D01*
X14255500Y-17583982D01*
X14226503Y-17475763D01*
X14170485Y-17378737D01*
X14091263Y-17299515D01*
X13999497Y-17246534D01*
X13994239Y-17243498D01*
X13994238Y-17243497D01*
X13994237Y-17243497D01*
X13886018Y-17214500D01*
X13773982Y-17214500D01*
X13665763Y-17243497D01*
X13665760Y-17243498D01*
X13568740Y-17299513D01*
X13568734Y-17299517D01*
X13489517Y-17378734D01*
X13489513Y-17378740D01*
X13433498Y-17475760D01*
X13433497Y-17475763D01*
X13404500Y-17583982D01*
X8275500Y-17583982D01*
X8275500Y-16603982D01*
X9594500Y-16603982D01*
X9594500Y-16716018D01*
X9621425Y-16816502D01*
X9623497Y-16824236D01*
X9623498Y-16824239D01*
X9632859Y-16840453D01*
X9679515Y-16921263D01*
X9758737Y-17000485D01*
X9855763Y-17056503D01*
X9963982Y-17085500D01*
X9963984Y-17085500D01*
X10076016Y-17085500D01*
X10076018Y-17085500D01*
X10184237Y-17056503D01*
X10281263Y-17000485D01*
X10347766Y-16933982D01*
X20404500Y-16933982D01*
X20404500Y-17046018D01*
X20419304Y-17101265D01*
X20433497Y-17154236D01*
X20433498Y-17154239D01*
X20439272Y-17164239D01*
X20489515Y-17251263D01*
X20568737Y-17330485D01*
X20665763Y-17386503D01*
X20773982Y-17415500D01*
X20773984Y-17415500D01*
X20886016Y-17415500D01*
X20886018Y-17415500D01*
X20994237Y-17386503D01*
X21091263Y-17330485D01*
X21170485Y-17251263D01*
X21226503Y-17154237D01*
X21255500Y-17046018D01*
X21255500Y-16933982D01*
X21228705Y-16833982D01*
X21484500Y-16833982D01*
X21484500Y-16946018D01*
X21513497Y-17054237D01*
X21569515Y-17151263D01*
X21648737Y-17230485D01*
X21745763Y-17286503D01*
X21853982Y-17315500D01*
X21853984Y-17315500D01*
X21966016Y-17315500D01*
X21966018Y-17315500D01*
X22074237Y-17286503D01*
X22171263Y-17230485D01*
X22250485Y-17151263D01*
X22306503Y-17054237D01*
X22335500Y-16946018D01*
X22335500Y-16833982D01*
X22322103Y-16783982D01*
X23934500Y-16783982D01*
X23934500Y-16896018D01*
X23959718Y-16990131D01*
X23963497Y-17004236D01*
X23963498Y-17004239D01*
X23978659Y-17030499D01*
X24019515Y-17101263D01*
X24098737Y-17180485D01*
X24195763Y-17236503D01*
X24303982Y-17265500D01*
X24303984Y-17265500D01*
X24416016Y-17265500D01*
X24416018Y-17265500D01*
X24524237Y-17236503D01*
X24621263Y-17180485D01*
X24700485Y-17101263D01*
X24756503Y-17004237D01*
X24772648Y-16943982D01*
X32194500Y-16943982D01*
X32194500Y-17056018D01*
X32223497Y-17164237D01*
X32279515Y-17261263D01*
X32358737Y-17340485D01*
X32455763Y-17396503D01*
X32563982Y-17425500D01*
X32563984Y-17425500D01*
X32676016Y-17425500D01*
X32676018Y-17425500D01*
X32784237Y-17396503D01*
X32881263Y-17340485D01*
X32960485Y-17261263D01*
X33016503Y-17164237D01*
X33045500Y-17056018D01*
X33045500Y-16943982D01*
X33016503Y-16835763D01*
X32960485Y-16738737D01*
X32881263Y-16659515D01*
X32784237Y-16603497D01*
X32676018Y-16574500D01*
X32563982Y-16574500D01*
X32455763Y-16603497D01*
X32455760Y-16603498D01*
X32358740Y-16659513D01*
X32358734Y-16659517D01*
X32279517Y-16738734D01*
X32279513Y-16738740D01*
X32223498Y-16835760D01*
X32223497Y-16835763D01*
X32194500Y-16943982D01*
X24772648Y-16943982D01*
X24785500Y-16896018D01*
X24785500Y-16787202D01*
X24805185Y-16720163D01*
X24857989Y-16674408D01*
X24927147Y-16664464D01*
X24957586Y-16675001D01*
X24958253Y-16673392D01*
X24965756Y-16676499D01*
X24965763Y-16676503D01*
X25073982Y-16705500D01*
X25073984Y-16705500D01*
X25186016Y-16705500D01*
X25186018Y-16705500D01*
X25294237Y-16676503D01*
X25391263Y-16620485D01*
X25470485Y-16541263D01*
X25526503Y-16444237D01*
X25548007Y-16363982D01*
X25944500Y-16363982D01*
X25944500Y-16476018D01*
X25972024Y-16578737D01*
X25973497Y-16584236D01*
X25973498Y-16584239D01*
X25978843Y-16593497D01*
X26029515Y-16681263D01*
X26108737Y-16760485D01*
X26205763Y-16816503D01*
X26313982Y-16845500D01*
X26313984Y-16845500D01*
X26426016Y-16845500D01*
X26426018Y-16845500D01*
X26534237Y-16816503D01*
X26631263Y-16760485D01*
X26710485Y-16681263D01*
X26766503Y-16584237D01*
X26795500Y-16476018D01*
X26795500Y-16363982D01*
X26766503Y-16255763D01*
X26710485Y-16158737D01*
X26631263Y-16079515D01*
X26534237Y-16023497D01*
X26426018Y-15994500D01*
X26313982Y-15994500D01*
X26205763Y-16023497D01*
X26205760Y-16023498D01*
X26108740Y-16079513D01*
X26108734Y-16079517D01*
X26029517Y-16158734D01*
X26029513Y-16158740D01*
X25973498Y-16255760D01*
X25973497Y-16255763D01*
X25944500Y-16363982D01*
X25548007Y-16363982D01*
X25555500Y-16336018D01*
X25555500Y-16223982D01*
X25526503Y-16115763D01*
X25470485Y-16018737D01*
X25391263Y-15939515D01*
X25320628Y-15898734D01*
X25294239Y-15883498D01*
X25294238Y-15883497D01*
X25294237Y-15883497D01*
X25268236Y-15876530D01*
X36674500Y-15876530D01*
X36674500Y-16083469D01*
X36714868Y-16286412D01*
X36714870Y-16286420D01*
X36793404Y-16476018D01*
X36794059Y-16477598D01*
X36831761Y-16534023D01*
X36909024Y-16649657D01*
X37055342Y-16795975D01*
X37055345Y-16795977D01*
X37227402Y-16910941D01*
X37418580Y-16990130D01*
X37621530Y-17030499D01*
X37621534Y-17030500D01*
X37621535Y-17030500D01*
X38078466Y-17030500D01*
X38078467Y-17030499D01*
X38281420Y-16990130D01*
X38472598Y-16910941D01*
X38644655Y-16795977D01*
X38790977Y-16649655D01*
X38905941Y-16477598D01*
X38985130Y-16286420D01*
X39025500Y-16083465D01*
X39025500Y-15876535D01*
X38985130Y-15673580D01*
X38905941Y-15482402D01*
X38790977Y-15310345D01*
X38790975Y-15310342D01*
X38644657Y-15164024D01*
X38558626Y-15106541D01*
X38472598Y-15049059D01*
X38464643Y-15045764D01*
X38281420Y-14969870D01*
X38281412Y-14969868D01*
X38078469Y-14929500D01*
X38078465Y-14929500D01*
X37621535Y-14929500D01*
X37621530Y-14929500D01*
X37418587Y-14969868D01*
X37418579Y-14969870D01*
X37227403Y-15049058D01*
X37055342Y-15164024D01*
X36909024Y-15310342D01*
X36794058Y-15482403D01*
X36714870Y-15673579D01*
X36714868Y-15673587D01*
X36674500Y-15876530D01*
X25268236Y-15876530D01*
X25186018Y-15854500D01*
X25073982Y-15854500D01*
X24965763Y-15883497D01*
X24965760Y-15883498D01*
X24868740Y-15939513D01*
X24868734Y-15939517D01*
X24789517Y-16018734D01*
X24789513Y-16018740D01*
X24733498Y-16115760D01*
X24733497Y-16115763D01*
X24704500Y-16223982D01*
X24704500Y-16332797D01*
X24684815Y-16399836D01*
X24632011Y-16445591D01*
X24562853Y-16455535D01*
X24532410Y-16445005D01*
X24531747Y-16446608D01*
X24524239Y-16443498D01*
X24524237Y-16443497D01*
X24416018Y-16414500D01*
X24303982Y-16414500D01*
X24195763Y-16443497D01*
X24195760Y-16443498D01*
X24098740Y-16499513D01*
X24098734Y-16499517D01*
X24019517Y-16578734D01*
X24019513Y-16578740D01*
X23963498Y-16675760D01*
X23963497Y-16675763D01*
X23934500Y-16783982D01*
X22322103Y-16783982D01*
X22310744Y-16741590D01*
X22312407Y-16671744D01*
X22351569Y-16613881D01*
X22415797Y-16586377D01*
X22430519Y-16585500D01*
X22456016Y-16585500D01*
X22456018Y-16585500D01*
X22564237Y-16556503D01*
X22661263Y-16500485D01*
X22740485Y-16421263D01*
X22796503Y-16324237D01*
X22825500Y-16216018D01*
X22825500Y-16103982D01*
X22796503Y-15995763D01*
X22740485Y-15898737D01*
X22661263Y-15819515D01*
X22564237Y-15763497D01*
X22456018Y-15734500D01*
X22343982Y-15734500D01*
X22235763Y-15763497D01*
X22235760Y-15763498D01*
X22138740Y-15819513D01*
X22138734Y-15819517D01*
X22059517Y-15898734D01*
X22059513Y-15898740D01*
X22003498Y-15995760D01*
X22003497Y-15995763D01*
X21974500Y-16103982D01*
X21974500Y-16216018D01*
X21999255Y-16308409D01*
X21997593Y-16378256D01*
X21958431Y-16436119D01*
X21894202Y-16463623D01*
X21879481Y-16464500D01*
X21853982Y-16464500D01*
X21745763Y-16493497D01*
X21745760Y-16493498D01*
X21648740Y-16549513D01*
X21648734Y-16549517D01*
X21569517Y-16628734D01*
X21569513Y-16628740D01*
X21513498Y-16725760D01*
X21513497Y-16725763D01*
X21484500Y-16833982D01*
X21228705Y-16833982D01*
X21226503Y-16825763D01*
X21170485Y-16728737D01*
X21091263Y-16649515D01*
X20994237Y-16593497D01*
X20886018Y-16564500D01*
X20773982Y-16564500D01*
X20665763Y-16593497D01*
X20665760Y-16593498D01*
X20568740Y-16649513D01*
X20568734Y-16649517D01*
X20489517Y-16728734D01*
X20489513Y-16728740D01*
X20433498Y-16825760D01*
X20433498Y-16825761D01*
X20433497Y-16825763D01*
X20404500Y-16933982D01*
X10347766Y-16933982D01*
X10360485Y-16921263D01*
X10416503Y-16824237D01*
X10445500Y-16716018D01*
X10445500Y-16603982D01*
X10416503Y-16495763D01*
X10360485Y-16398737D01*
X10281263Y-16319515D01*
X10184237Y-16263497D01*
X10076018Y-16234500D01*
X9963982Y-16234500D01*
X9855763Y-16263497D01*
X9855760Y-16263498D01*
X9758740Y-16319513D01*
X9758734Y-16319517D01*
X9679517Y-16398734D01*
X9679513Y-16398740D01*
X9623498Y-16495760D01*
X9623497Y-16495763D01*
X9594500Y-16603982D01*
X8275500Y-16603982D01*
X8275500Y-16480252D01*
X8275500Y-16480249D01*
X8275499Y-16480247D01*
X8263868Y-16421770D01*
X8263867Y-16421769D01*
X8219552Y-16355447D01*
X8153230Y-16311132D01*
X8153229Y-16311131D01*
X8094752Y-16299500D01*
X8094748Y-16299500D01*
X6355252Y-16299500D01*
X6355247Y-16299500D01*
X6296770Y-16311131D01*
X6296769Y-16311132D01*
X6230447Y-16355447D01*
X6186132Y-16421769D01*
X6186131Y-16421770D01*
X6174500Y-16480247D01*
X5274173Y-16480247D01*
X5249293Y-16463623D01*
X5182598Y-16419059D01*
X5158784Y-16409195D01*
X4991420Y-16339870D01*
X4991412Y-16339868D01*
X4788469Y-16299500D01*
X4788465Y-16299500D01*
X4581535Y-16299500D01*
X4581530Y-16299500D01*
X4378587Y-16339868D01*
X4378579Y-16339870D01*
X4187403Y-16419058D01*
X4015342Y-16534024D01*
X3869024Y-16680342D01*
X3754058Y-16852403D01*
X3674870Y-17043579D01*
X3674868Y-17043587D01*
X3634500Y-17246530D01*
X2634913Y-17246530D01*
X2610925Y-17157007D01*
X2578012Y-17100000D01*
X3219115Y-17100000D01*
X3219115Y-17099999D01*
X3217914Y-17092415D01*
X3164408Y-16927744D01*
X3085804Y-16773475D01*
X2984032Y-16633397D01*
X2861602Y-16510967D01*
X2721524Y-16409195D01*
X2567257Y-16330591D01*
X2402589Y-16277087D01*
X2402581Y-16277085D01*
X2395000Y-16275884D01*
X2395000Y-16916988D01*
X2337993Y-16884075D01*
X2210826Y-16850000D01*
X2079174Y-16850000D01*
X1952007Y-16884075D01*
X1895000Y-16916988D01*
X1895000Y-16275884D01*
X1894999Y-16275884D01*
X1887418Y-16277085D01*
X1887410Y-16277087D01*
X1722742Y-16330591D01*
X1568475Y-16409195D01*
X1428397Y-16510967D01*
X1305967Y-16633397D01*
X1204195Y-16773475D01*
X1125591Y-16927744D01*
X1072085Y-17092415D01*
X1070884Y-17099999D01*
X500500Y-17099999D01*
X500500Y-15983982D01*
X17664500Y-15983982D01*
X17664500Y-16096018D01*
X17693497Y-16204237D01*
X17749515Y-16301263D01*
X17828737Y-16380485D01*
X17925763Y-16436503D01*
X18033982Y-16465500D01*
X18033984Y-16465500D01*
X18146016Y-16465500D01*
X18146018Y-16465500D01*
X18254237Y-16436503D01*
X18351263Y-16380485D01*
X18430485Y-16301263D01*
X18486503Y-16204237D01*
X18515500Y-16096018D01*
X18515500Y-15983982D01*
X18486503Y-15875763D01*
X18430485Y-15778737D01*
X18351263Y-15699515D01*
X18254237Y-15643497D01*
X18146018Y-15614500D01*
X18033982Y-15614500D01*
X17925763Y-15643497D01*
X17925760Y-15643498D01*
X17828740Y-15699513D01*
X17828734Y-15699517D01*
X17749517Y-15778734D01*
X17749513Y-15778740D01*
X17693498Y-15875760D01*
X17693497Y-15875763D01*
X17664500Y-15983982D01*
X500500Y-15983982D01*
X500500Y-14559999D01*
X1070884Y-14559999D01*
X1070885Y-14560000D01*
X1711988Y-14560000D01*
X1679075Y-14617007D01*
X1645000Y-14744174D01*
X1645000Y-14875826D01*
X1679075Y-15002993D01*
X1711988Y-15060000D01*
X1070885Y-15060000D01*
X1072085Y-15067584D01*
X1125591Y-15232255D01*
X1204195Y-15386524D01*
X1305967Y-15526602D01*
X1428397Y-15649032D01*
X1568475Y-15750804D01*
X1722744Y-15829408D01*
X1887415Y-15882914D01*
X1887414Y-15882914D01*
X1894999Y-15884115D01*
X1895000Y-15884114D01*
X1895000Y-15243012D01*
X1952007Y-15275925D01*
X2079174Y-15310000D01*
X2210826Y-15310000D01*
X2337993Y-15275925D01*
X2395000Y-15243012D01*
X2395000Y-15884115D01*
X2402584Y-15882914D01*
X2567255Y-15829408D01*
X2721524Y-15750804D01*
X2861602Y-15649032D01*
X2984032Y-15526602D01*
X3085804Y-15386524D01*
X3164408Y-15232255D01*
X3217914Y-15067584D01*
X3219115Y-15060000D01*
X2578012Y-15060000D01*
X2610925Y-15002993D01*
X2645000Y-14875826D01*
X2645000Y-14744174D01*
X2634913Y-14706530D01*
X3634500Y-14706530D01*
X3634500Y-14913469D01*
X3674868Y-15116412D01*
X3674870Y-15116420D01*
X3748524Y-15294237D01*
X3754059Y-15307598D01*
X3798587Y-15374239D01*
X3869024Y-15479657D01*
X4015342Y-15625975D01*
X4015345Y-15625977D01*
X4187402Y-15740941D01*
X4378580Y-15820130D01*
X4523052Y-15848867D01*
X4581530Y-15860499D01*
X4581534Y-15860500D01*
X4581535Y-15860500D01*
X4788466Y-15860500D01*
X4788467Y-15860499D01*
X4991420Y-15820130D01*
X5182598Y-15740941D01*
X5354655Y-15625977D01*
X5500977Y-15479655D01*
X5615941Y-15307598D01*
X5695130Y-15116420D01*
X5735500Y-14913465D01*
X5735500Y-14706535D01*
X5695130Y-14503580D01*
X5615941Y-14312402D01*
X5500977Y-14140345D01*
X5500975Y-14140342D01*
X5354657Y-13994024D01*
X5274173Y-13940247D01*
X6174500Y-13940247D01*
X6174500Y-15679752D01*
X6186131Y-15738229D01*
X6186132Y-15738230D01*
X6230447Y-15804552D01*
X6296769Y-15848867D01*
X6296770Y-15848868D01*
X6355247Y-15860499D01*
X6355250Y-15860500D01*
X6355252Y-15860500D01*
X8094750Y-15860500D01*
X8094751Y-15860499D01*
X8101421Y-15859172D01*
X8126233Y-15854238D01*
X8153229Y-15848868D01*
X8153229Y-15848867D01*
X8153231Y-15848867D01*
X8219552Y-15804552D01*
X8263867Y-15738231D01*
X8263867Y-15738229D01*
X8263868Y-15738229D01*
X8274156Y-15686503D01*
X8275500Y-15679748D01*
X8275500Y-14743982D01*
X10284500Y-14743982D01*
X10284500Y-14856018D01*
X10313497Y-14964237D01*
X10369515Y-15061263D01*
X10448737Y-15140485D01*
X10545763Y-15196503D01*
X10653982Y-15225500D01*
X10653984Y-15225500D01*
X10766016Y-15225500D01*
X10766018Y-15225500D01*
X10874237Y-15196503D01*
X10971263Y-15140485D01*
X10977766Y-15133982D01*
X15864500Y-15133982D01*
X15864500Y-15246018D01*
X15891295Y-15346017D01*
X15893497Y-15354236D01*
X15893498Y-15354239D01*
X15905043Y-15374236D01*
X15949515Y-15451263D01*
X16028737Y-15530485D01*
X16125763Y-15586503D01*
X16233982Y-15615500D01*
X16233984Y-15615500D01*
X16346016Y-15615500D01*
X16346018Y-15615500D01*
X16454237Y-15586503D01*
X16551263Y-15530485D01*
X16630485Y-15451263D01*
X16686503Y-15354237D01*
X16715500Y-15246018D01*
X16715500Y-15133982D01*
X16691385Y-15043982D01*
X22514500Y-15043982D01*
X22514500Y-15156018D01*
X22543497Y-15264237D01*
X22599515Y-15361263D01*
X22678737Y-15440485D01*
X22775763Y-15496503D01*
X22883982Y-15525500D01*
X22883984Y-15525500D01*
X22996016Y-15525500D01*
X22996018Y-15525500D01*
X23104237Y-15496503D01*
X23201263Y-15440485D01*
X23280485Y-15361263D01*
X23336503Y-15264237D01*
X23365500Y-15156018D01*
X23365500Y-15043982D01*
X23336503Y-14935763D01*
X23280485Y-14838737D01*
X23201263Y-14759515D01*
X23125027Y-14715500D01*
X23104239Y-14703498D01*
X23104238Y-14703497D01*
X23104237Y-14703497D01*
X22996018Y-14674500D01*
X22883982Y-14674500D01*
X22775763Y-14703497D01*
X22775760Y-14703498D01*
X22678740Y-14759513D01*
X22678734Y-14759517D01*
X22599517Y-14838734D01*
X22599513Y-14838740D01*
X22543498Y-14935760D01*
X22543497Y-14935763D01*
X22514500Y-15043982D01*
X16691385Y-15043982D01*
X16686503Y-15025763D01*
X16630485Y-14928737D01*
X16551263Y-14849515D01*
X16454237Y-14793497D01*
X16346018Y-14764500D01*
X16233982Y-14764500D01*
X16125763Y-14793497D01*
X16125760Y-14793498D01*
X16028740Y-14849513D01*
X16028734Y-14849517D01*
X15949517Y-14928734D01*
X15949513Y-14928740D01*
X15893498Y-15025760D01*
X15893497Y-15025763D01*
X15864500Y-15133982D01*
X10977766Y-15133982D01*
X11050485Y-15061263D01*
X11106503Y-14964237D01*
X11135500Y-14856018D01*
X11135500Y-14743982D01*
X11106503Y-14635763D01*
X11050485Y-14538737D01*
X10971263Y-14459515D01*
X10906579Y-14422169D01*
X10874239Y-14403498D01*
X10874238Y-14403497D01*
X10874237Y-14403497D01*
X10766018Y-14374500D01*
X10653982Y-14374500D01*
X10545763Y-14403497D01*
X10545760Y-14403498D01*
X10448740Y-14459513D01*
X10448734Y-14459517D01*
X10369517Y-14538734D01*
X10369513Y-14538740D01*
X10313498Y-14635760D01*
X10313497Y-14635763D01*
X10284500Y-14743982D01*
X8275500Y-14743982D01*
X8275500Y-14233982D01*
X24354500Y-14233982D01*
X24354500Y-14346018D01*
X24383497Y-14454237D01*
X24439515Y-14551263D01*
X24518737Y-14630485D01*
X24549346Y-14648157D01*
X24597561Y-14698725D01*
X24610783Y-14767332D01*
X24584815Y-14832197D01*
X24575028Y-14843223D01*
X24559518Y-14858733D01*
X24559513Y-14858740D01*
X24503498Y-14955760D01*
X24503497Y-14955763D01*
X24474500Y-15063982D01*
X24474500Y-15176018D01*
X24498616Y-15266018D01*
X24503497Y-15284236D01*
X24503498Y-15284239D01*
X24509271Y-15294238D01*
X24559515Y-15381263D01*
X24638737Y-15460485D01*
X24735763Y-15516503D01*
X24843982Y-15545500D01*
X24843984Y-15545500D01*
X24956016Y-15545500D01*
X24956018Y-15545500D01*
X25064237Y-15516503D01*
X25161263Y-15460485D01*
X25206775Y-15414972D01*
X25268096Y-15381488D01*
X25337787Y-15386472D01*
X25393721Y-15428343D01*
X25401841Y-15440652D01*
X25407968Y-15451263D01*
X25419515Y-15471263D01*
X25498737Y-15550485D01*
X25595763Y-15606503D01*
X25703982Y-15635500D01*
X25703984Y-15635500D01*
X25816016Y-15635500D01*
X25816018Y-15635500D01*
X25924237Y-15606503D01*
X26021263Y-15550485D01*
X26100485Y-15471263D01*
X26156503Y-15374237D01*
X26185500Y-15266018D01*
X26185500Y-15153982D01*
X26164064Y-15073982D01*
X30714500Y-15073982D01*
X30714500Y-15186018D01*
X30743497Y-15294237D01*
X30799515Y-15391263D01*
X30878737Y-15470485D01*
X30975763Y-15526503D01*
X31083982Y-15555500D01*
X31083984Y-15555500D01*
X31196016Y-15555500D01*
X31196018Y-15555500D01*
X31304237Y-15526503D01*
X31401263Y-15470485D01*
X31480485Y-15391263D01*
X31536503Y-15294237D01*
X31552648Y-15233982D01*
X33874500Y-15233982D01*
X33874500Y-15346018D01*
X33899813Y-15440486D01*
X33903497Y-15454236D01*
X33903498Y-15454239D01*
X33907104Y-15460485D01*
X33959515Y-15551263D01*
X34038737Y-15630485D01*
X34135763Y-15686503D01*
X34243982Y-15715500D01*
X34243984Y-15715500D01*
X34356016Y-15715500D01*
X34356018Y-15715500D01*
X34464237Y-15686503D01*
X34561263Y-15630485D01*
X34640485Y-15551263D01*
X34696503Y-15454237D01*
X34725500Y-15346018D01*
X34725500Y-15233982D01*
X34696503Y-15125763D01*
X34640485Y-15028737D01*
X34561263Y-14949515D01*
X34464237Y-14893497D01*
X34356018Y-14864500D01*
X34243982Y-14864500D01*
X34135763Y-14893497D01*
X34135760Y-14893498D01*
X34038740Y-14949513D01*
X34038734Y-14949517D01*
X33959517Y-15028734D01*
X33959513Y-15028740D01*
X33903498Y-15125760D01*
X33903497Y-15125763D01*
X33874500Y-15233982D01*
X31552648Y-15233982D01*
X31565500Y-15186018D01*
X31565500Y-15073982D01*
X31536503Y-14965763D01*
X31480485Y-14868737D01*
X31401263Y-14789515D01*
X31304237Y-14733497D01*
X31196018Y-14704500D01*
X31083982Y-14704500D01*
X30975763Y-14733497D01*
X30975760Y-14733498D01*
X30878740Y-14789513D01*
X30878734Y-14789517D01*
X30799517Y-14868734D01*
X30799513Y-14868740D01*
X30743498Y-14965760D01*
X30743497Y-14965763D01*
X30714500Y-15073982D01*
X26164064Y-15073982D01*
X26156503Y-15045763D01*
X26100485Y-14948737D01*
X26021263Y-14869515D01*
X25924237Y-14813497D01*
X25816018Y-14784500D01*
X25703982Y-14784500D01*
X25595763Y-14813497D01*
X25595760Y-14813498D01*
X25498740Y-14869513D01*
X25498733Y-14869518D01*
X25453224Y-14915027D01*
X25391901Y-14948511D01*
X25322209Y-14943526D01*
X25277863Y-14915026D01*
X25266317Y-14903480D01*
X25240485Y-14858737D01*
X25161263Y-14779515D01*
X25116519Y-14753682D01*
X25104973Y-14742136D01*
X25095737Y-14725222D01*
X25082437Y-14711273D01*
X25079337Y-14695187D01*
X25071488Y-14680813D01*
X25072862Y-14661589D01*
X25069216Y-14642666D01*
X25075303Y-14627461D01*
X25076472Y-14611121D01*
X25088022Y-14595691D01*
X25095185Y-14577802D01*
X25104967Y-14566780D01*
X25120485Y-14551263D01*
X25176503Y-14454237D01*
X25205500Y-14346018D01*
X25205500Y-14233982D01*
X25176503Y-14125763D01*
X25120485Y-14028737D01*
X25041263Y-13949515D01*
X24944237Y-13893497D01*
X24836018Y-13864500D01*
X24723982Y-13864500D01*
X24615763Y-13893497D01*
X24615760Y-13893498D01*
X24518740Y-13949513D01*
X24518734Y-13949517D01*
X24439517Y-14028734D01*
X24439513Y-14028740D01*
X24383498Y-14125760D01*
X24383497Y-14125763D01*
X24354500Y-14233982D01*
X8275500Y-14233982D01*
X8275500Y-13940252D01*
X8275500Y-13940249D01*
X8275499Y-13940247D01*
X8263868Y-13881770D01*
X8263867Y-13881769D01*
X8219552Y-13815447D01*
X8153230Y-13771132D01*
X8153229Y-13771131D01*
X8094752Y-13759500D01*
X8094748Y-13759500D01*
X6355252Y-13759500D01*
X6355247Y-13759500D01*
X6296770Y-13771131D01*
X6296769Y-13771132D01*
X6230447Y-13815447D01*
X6186132Y-13881769D01*
X6186131Y-13881770D01*
X6174500Y-13940247D01*
X5274173Y-13940247D01*
X5268626Y-13936541D01*
X5182598Y-13879059D01*
X5174003Y-13875499D01*
X4991420Y-13799870D01*
X4991412Y-13799868D01*
X4788469Y-13759500D01*
X4788465Y-13759500D01*
X4581535Y-13759500D01*
X4581530Y-13759500D01*
X4378587Y-13799868D01*
X4378579Y-13799870D01*
X4187403Y-13879058D01*
X4015342Y-13994024D01*
X3869024Y-14140342D01*
X3754058Y-14312403D01*
X3674870Y-14503579D01*
X3674868Y-14503587D01*
X3634500Y-14706530D01*
X2634913Y-14706530D01*
X2610925Y-14617007D01*
X2578012Y-14560000D01*
X3219115Y-14560000D01*
X3219115Y-14559999D01*
X3217914Y-14552415D01*
X3164408Y-14387744D01*
X3085804Y-14233475D01*
X2984032Y-14093397D01*
X2861602Y-13970967D01*
X2721524Y-13869195D01*
X2567257Y-13790591D01*
X2402589Y-13737087D01*
X2402581Y-13737085D01*
X2395000Y-13735884D01*
X2395000Y-14376988D01*
X2337993Y-14344075D01*
X2210826Y-14310000D01*
X2079174Y-14310000D01*
X1952007Y-14344075D01*
X1895000Y-14376988D01*
X1895000Y-13735884D01*
X1894999Y-13735884D01*
X1887418Y-13737085D01*
X1887410Y-13737087D01*
X1722742Y-13790591D01*
X1568475Y-13869195D01*
X1428397Y-13970967D01*
X1305967Y-14093397D01*
X1204195Y-14233475D01*
X1125591Y-14387744D01*
X1072085Y-14552415D01*
X1070884Y-14559999D01*
X500500Y-14559999D01*
X500500Y-12019999D01*
X1070884Y-12019999D01*
X1070885Y-12020000D01*
X1711988Y-12020000D01*
X1679075Y-12077007D01*
X1645000Y-12204174D01*
X1645000Y-12335826D01*
X1679075Y-12462993D01*
X1711988Y-12520000D01*
X1070885Y-12520000D01*
X1072085Y-12527584D01*
X1125591Y-12692255D01*
X1204195Y-12846524D01*
X1305967Y-12986602D01*
X1428397Y-13109032D01*
X1568475Y-13210804D01*
X1722744Y-13289408D01*
X1887415Y-13342914D01*
X1887414Y-13342914D01*
X1894999Y-13344115D01*
X1895000Y-13344114D01*
X1895000Y-12703012D01*
X1952007Y-12735925D01*
X2079174Y-12770000D01*
X2210826Y-12770000D01*
X2337993Y-12735925D01*
X2395000Y-12703012D01*
X2395000Y-13344115D01*
X2402584Y-13342914D01*
X2567255Y-13289408D01*
X2721524Y-13210804D01*
X2861602Y-13109032D01*
X2984032Y-12986602D01*
X3085804Y-12846524D01*
X3164408Y-12692255D01*
X3217914Y-12527584D01*
X3219115Y-12520000D01*
X2578012Y-12520000D01*
X2610925Y-12462993D01*
X2645000Y-12335826D01*
X2645000Y-12204174D01*
X2634913Y-12166530D01*
X3634500Y-12166530D01*
X3634500Y-12373469D01*
X3674868Y-12576412D01*
X3674870Y-12576420D01*
X3750388Y-12758737D01*
X3754059Y-12767598D01*
X3793811Y-12827092D01*
X3869024Y-12939657D01*
X4015342Y-13085975D01*
X4015345Y-13085977D01*
X4187402Y-13200941D01*
X4378580Y-13280130D01*
X4523052Y-13308867D01*
X4581530Y-13320499D01*
X4581534Y-13320500D01*
X4581535Y-13320500D01*
X4788466Y-13320500D01*
X4788467Y-13320499D01*
X4991420Y-13280130D01*
X5182598Y-13200941D01*
X5354655Y-13085977D01*
X5500977Y-12939655D01*
X5615941Y-12767598D01*
X5695130Y-12576420D01*
X5735500Y-12373465D01*
X5735500Y-12166535D01*
X5695130Y-11963580D01*
X5615941Y-11772402D01*
X5500977Y-11600345D01*
X5500975Y-11600342D01*
X5354657Y-11454024D01*
X5274173Y-11400247D01*
X6174500Y-11400247D01*
X6174500Y-13139752D01*
X6186131Y-13198229D01*
X6186132Y-13198230D01*
X6230447Y-13264552D01*
X6296769Y-13308867D01*
X6296770Y-13308868D01*
X6355247Y-13320499D01*
X6355250Y-13320500D01*
X6355252Y-13320500D01*
X8094750Y-13320500D01*
X8094751Y-13320499D01*
X8109568Y-13317552D01*
X8153229Y-13308868D01*
X8153229Y-13308867D01*
X8153231Y-13308867D01*
X8219552Y-13264552D01*
X8226615Y-13253982D01*
X10604500Y-13253982D01*
X10604500Y-13366018D01*
X10633497Y-13474237D01*
X10689515Y-13571263D01*
X10768737Y-13650485D01*
X10865763Y-13706503D01*
X10973982Y-13735500D01*
X10973984Y-13735500D01*
X11086016Y-13735500D01*
X11086018Y-13735500D01*
X11194237Y-13706503D01*
X11291263Y-13650485D01*
X11370485Y-13571263D01*
X11392580Y-13532992D01*
X11443144Y-13484778D01*
X11511751Y-13471554D01*
X11576616Y-13497521D01*
X11617145Y-13554434D01*
X11619740Y-13562898D01*
X11633495Y-13614232D01*
X11633496Y-13614236D01*
X11633497Y-13614237D01*
X11689515Y-13711263D01*
X11768737Y-13790485D01*
X11865763Y-13846503D01*
X11973982Y-13875500D01*
X11973984Y-13875500D01*
X12086016Y-13875500D01*
X12086018Y-13875500D01*
X12194237Y-13846503D01*
X12291263Y-13790485D01*
X12370485Y-13711263D01*
X12426503Y-13614237D01*
X12455500Y-13506018D01*
X12455500Y-13393982D01*
X12447462Y-13363982D01*
X15074500Y-13363982D01*
X15074500Y-13476018D01*
X15103497Y-13584237D01*
X15159515Y-13681263D01*
X15238737Y-13760485D01*
X15335763Y-13816503D01*
X15443982Y-13845500D01*
X15443984Y-13845500D01*
X15556016Y-13845500D01*
X15556018Y-13845500D01*
X15664237Y-13816503D01*
X15761263Y-13760485D01*
X15840485Y-13681263D01*
X15896503Y-13584237D01*
X15925500Y-13476018D01*
X15925500Y-13363982D01*
X15896503Y-13255763D01*
X15889701Y-13243982D01*
X25334500Y-13243982D01*
X25334500Y-13356018D01*
X25358477Y-13445500D01*
X25363497Y-13464236D01*
X25363498Y-13464239D01*
X25369272Y-13474239D01*
X25419515Y-13561263D01*
X25498737Y-13640485D01*
X25595763Y-13696503D01*
X25703982Y-13725500D01*
X25703984Y-13725500D01*
X25816016Y-13725500D01*
X25816018Y-13725500D01*
X25924237Y-13696503D01*
X26021263Y-13640485D01*
X26100485Y-13561263D01*
X26156503Y-13464237D01*
X26185500Y-13356018D01*
X26185500Y-13243982D01*
X26156503Y-13135763D01*
X26100485Y-13038737D01*
X26021263Y-12959515D01*
X25994359Y-12943982D01*
X30794500Y-12943982D01*
X30794500Y-13056018D01*
X30822024Y-13158737D01*
X30823497Y-13164236D01*
X30823498Y-13164239D01*
X30828891Y-13173580D01*
X30879515Y-13261263D01*
X30958737Y-13340485D01*
X31055763Y-13396503D01*
X31163982Y-13425500D01*
X31163984Y-13425500D01*
X31276016Y-13425500D01*
X31276018Y-13425500D01*
X31384237Y-13396503D01*
X31481263Y-13340485D01*
X31560485Y-13261263D01*
X31616503Y-13164237D01*
X31645500Y-13056018D01*
X31645500Y-12963982D01*
X34234500Y-12963982D01*
X34234500Y-13076018D01*
X34260644Y-13173587D01*
X34263497Y-13184236D01*
X34263498Y-13184239D01*
X34271575Y-13198229D01*
X34319515Y-13281263D01*
X34398737Y-13360485D01*
X34495763Y-13416503D01*
X34603982Y-13445500D01*
X34603984Y-13445500D01*
X34716016Y-13445500D01*
X34716018Y-13445500D01*
X34824237Y-13416503D01*
X34893472Y-13376530D01*
X36674500Y-13376530D01*
X36674500Y-13583469D01*
X36714868Y-13786412D01*
X36714870Y-13786420D01*
X36782426Y-13949515D01*
X36794059Y-13977598D01*
X36828227Y-14028734D01*
X36909024Y-14149657D01*
X37055342Y-14295975D01*
X37055345Y-14295977D01*
X37227402Y-14410941D01*
X37418580Y-14490130D01*
X37621530Y-14530499D01*
X37621534Y-14530500D01*
X37621535Y-14530500D01*
X38078466Y-14530500D01*
X38078467Y-14530499D01*
X38281420Y-14490130D01*
X38472598Y-14410941D01*
X38644655Y-14295977D01*
X38790977Y-14149655D01*
X38905941Y-13977598D01*
X38985130Y-13786420D01*
X39025500Y-13583465D01*
X39025500Y-13376535D01*
X38985130Y-13173580D01*
X38905941Y-12982402D01*
X38790977Y-12810345D01*
X38790975Y-12810342D01*
X38644657Y-12664024D01*
X38504666Y-12570486D01*
X38472598Y-12549059D01*
X38412670Y-12524236D01*
X38281420Y-12469870D01*
X38281412Y-12469868D01*
X38078469Y-12429500D01*
X38078465Y-12429500D01*
X37621535Y-12429500D01*
X37621530Y-12429500D01*
X37418587Y-12469868D01*
X37418579Y-12469870D01*
X37227403Y-12549058D01*
X37055342Y-12664024D01*
X36909024Y-12810342D01*
X36794058Y-12982403D01*
X36714870Y-13173579D01*
X36714868Y-13173587D01*
X36674500Y-13376530D01*
X34893472Y-13376530D01*
X34921263Y-13360485D01*
X35000485Y-13281263D01*
X35056503Y-13184237D01*
X35085500Y-13076018D01*
X35085500Y-12963982D01*
X35056503Y-12855763D01*
X35000485Y-12758737D01*
X34921263Y-12679515D01*
X34824237Y-12623497D01*
X34716018Y-12594500D01*
X34603982Y-12594500D01*
X34495763Y-12623497D01*
X34495760Y-12623498D01*
X34398740Y-12679513D01*
X34398734Y-12679517D01*
X34319517Y-12758734D01*
X34319513Y-12758740D01*
X34263498Y-12855760D01*
X34263497Y-12855763D01*
X34234500Y-12963982D01*
X31645500Y-12963982D01*
X31645500Y-12943982D01*
X31616503Y-12835763D01*
X31616499Y-12835756D01*
X31613392Y-12828253D01*
X31616192Y-12827092D01*
X31603127Y-12773213D01*
X31625986Y-12707188D01*
X31680911Y-12664003D01*
X31710807Y-12656185D01*
X31716005Y-12655500D01*
X31716018Y-12655500D01*
X31824237Y-12626503D01*
X31921263Y-12570485D01*
X32000485Y-12491263D01*
X32010462Y-12473982D01*
X33154500Y-12473982D01*
X33154500Y-12586018D01*
X33179553Y-12679515D01*
X33183497Y-12694236D01*
X33183498Y-12694239D01*
X33187104Y-12700485D01*
X33239515Y-12791263D01*
X33318737Y-12870485D01*
X33415763Y-12926503D01*
X33523982Y-12955500D01*
X33523984Y-12955500D01*
X33636016Y-12955500D01*
X33636018Y-12955500D01*
X33744237Y-12926503D01*
X33841263Y-12870485D01*
X33920485Y-12791263D01*
X33976503Y-12694237D01*
X34005500Y-12586018D01*
X34005500Y-12473982D01*
X33976503Y-12365763D01*
X33920485Y-12268737D01*
X33841263Y-12189515D01*
X33744237Y-12133497D01*
X33636018Y-12104500D01*
X33523982Y-12104500D01*
X33415763Y-12133497D01*
X33415760Y-12133498D01*
X33318740Y-12189513D01*
X33318734Y-12189517D01*
X33239517Y-12268734D01*
X33239513Y-12268740D01*
X33183498Y-12365760D01*
X33183497Y-12365763D01*
X33154500Y-12473982D01*
X32010462Y-12473982D01*
X32056503Y-12394237D01*
X32085500Y-12286018D01*
X32085500Y-12173982D01*
X32056503Y-12065763D01*
X32000485Y-11968737D01*
X31921263Y-11889515D01*
X31824237Y-11833497D01*
X31716018Y-11804500D01*
X31603982Y-11804500D01*
X31495763Y-11833497D01*
X31495760Y-11833498D01*
X31398740Y-11889513D01*
X31398734Y-11889517D01*
X31319517Y-11968734D01*
X31319513Y-11968740D01*
X31263498Y-12065760D01*
X31263497Y-12065763D01*
X31234500Y-12173982D01*
X31234500Y-12286018D01*
X31257933Y-12373469D01*
X31263497Y-12394236D01*
X31266608Y-12401747D01*
X31263810Y-12402905D01*
X31276871Y-12456810D01*
X31254000Y-12522830D01*
X31199066Y-12566005D01*
X31169202Y-12573813D01*
X31163981Y-12574500D01*
X31055763Y-12603497D01*
X31055760Y-12603498D01*
X30958740Y-12659513D01*
X30958734Y-12659517D01*
X30879517Y-12738734D01*
X30879513Y-12738740D01*
X30823498Y-12835760D01*
X30823497Y-12835763D01*
X30794500Y-12943982D01*
X25994359Y-12943982D01*
X25924237Y-12903497D01*
X25816018Y-12874500D01*
X25703982Y-12874500D01*
X25595763Y-12903497D01*
X25595760Y-12903498D01*
X25498740Y-12959513D01*
X25498734Y-12959517D01*
X25419517Y-13038734D01*
X25419513Y-13038740D01*
X25363498Y-13135760D01*
X25363497Y-13135763D01*
X25334500Y-13243982D01*
X15889701Y-13243982D01*
X15840485Y-13158737D01*
X15761263Y-13079515D01*
X15690628Y-13038734D01*
X15664239Y-13023498D01*
X15664238Y-13023497D01*
X15664237Y-13023497D01*
X15556018Y-12994500D01*
X15443982Y-12994500D01*
X15335763Y-13023497D01*
X15335760Y-13023498D01*
X15238740Y-13079513D01*
X15238734Y-13079517D01*
X15159517Y-13158734D01*
X15159513Y-13158740D01*
X15103498Y-13255760D01*
X15103497Y-13255763D01*
X15074500Y-13363982D01*
X12447462Y-13363982D01*
X12426503Y-13285763D01*
X12370485Y-13188737D01*
X12291263Y-13109515D01*
X12226579Y-13072169D01*
X12194239Y-13053498D01*
X12194238Y-13053497D01*
X12194237Y-13053497D01*
X12086018Y-13024500D01*
X11973982Y-13024500D01*
X11865763Y-13053497D01*
X11865760Y-13053498D01*
X11768740Y-13109513D01*
X11768734Y-13109517D01*
X11689517Y-13188734D01*
X11689515Y-13188737D01*
X11667420Y-13227007D01*
X11616852Y-13275222D01*
X11548245Y-13288444D01*
X11483381Y-13262476D01*
X11442853Y-13205562D01*
X11440258Y-13197099D01*
X11426503Y-13145763D01*
X11370485Y-13048737D01*
X11291263Y-12969515D01*
X11194237Y-12913497D01*
X11086018Y-12884500D01*
X10973982Y-12884500D01*
X10865763Y-12913497D01*
X10865760Y-12913498D01*
X10768740Y-12969513D01*
X10768734Y-12969517D01*
X10689517Y-13048734D01*
X10689513Y-13048740D01*
X10633498Y-13145760D01*
X10633497Y-13145763D01*
X10604500Y-13253982D01*
X8226615Y-13253982D01*
X8263867Y-13198231D01*
X8275500Y-13139748D01*
X8275500Y-12303982D01*
X12824500Y-12303982D01*
X12824500Y-12416018D01*
X12853497Y-12524237D01*
X12909515Y-12621263D01*
X12988737Y-12700485D01*
X13085763Y-12756503D01*
X13193982Y-12785500D01*
X13193984Y-12785500D01*
X13306016Y-12785500D01*
X13306018Y-12785500D01*
X13414237Y-12756503D01*
X13511263Y-12700485D01*
X13590485Y-12621263D01*
X13646503Y-12524237D01*
X13675500Y-12416018D01*
X13675500Y-12303982D01*
X13646503Y-12195763D01*
X13590485Y-12098737D01*
X13511263Y-12019515D01*
X13423308Y-11968734D01*
X13414239Y-11963498D01*
X13414238Y-11963497D01*
X13414237Y-11963497D01*
X13306018Y-11934500D01*
X13193982Y-11934500D01*
X13085763Y-11963497D01*
X13085760Y-11963498D01*
X12988740Y-12019513D01*
X12988734Y-12019517D01*
X12909517Y-12098734D01*
X12909513Y-12098740D01*
X12853498Y-12195760D01*
X12853497Y-12195763D01*
X12824500Y-12303982D01*
X8275500Y-12303982D01*
X8275500Y-11493982D01*
X9584500Y-11493982D01*
X9584500Y-11606018D01*
X9613497Y-11714237D01*
X9669515Y-11811263D01*
X9748737Y-11890485D01*
X9845763Y-11946503D01*
X9953982Y-11975500D01*
X9953984Y-11975500D01*
X10066016Y-11975500D01*
X10066018Y-11975500D01*
X10174237Y-11946503D01*
X10271263Y-11890485D01*
X10307766Y-11853982D01*
X15024500Y-11853982D01*
X15024500Y-11966018D01*
X15053497Y-12074237D01*
X15109515Y-12171263D01*
X15188737Y-12250485D01*
X15285763Y-12306503D01*
X15393982Y-12335500D01*
X15393984Y-12335500D01*
X15506016Y-12335500D01*
X15506018Y-12335500D01*
X15614237Y-12306503D01*
X15711263Y-12250485D01*
X15790485Y-12171263D01*
X15846503Y-12074237D01*
X15875500Y-11966018D01*
X15875500Y-11853982D01*
X15846503Y-11745763D01*
X15790485Y-11648737D01*
X15711263Y-11569515D01*
X15614237Y-11513497D01*
X15506018Y-11484500D01*
X15393982Y-11484500D01*
X15285763Y-11513497D01*
X15285760Y-11513498D01*
X15188740Y-11569513D01*
X15188734Y-11569517D01*
X15109517Y-11648734D01*
X15109513Y-11648740D01*
X15053498Y-11745760D01*
X15053497Y-11745763D01*
X15024500Y-11853982D01*
X10307766Y-11853982D01*
X10350485Y-11811263D01*
X10406503Y-11714237D01*
X10435500Y-11606018D01*
X10435500Y-11493982D01*
X10406503Y-11385763D01*
X10350485Y-11288737D01*
X10271263Y-11209515D01*
X10199305Y-11167970D01*
X10174239Y-11153498D01*
X10174238Y-11153497D01*
X10174237Y-11153497D01*
X10066018Y-11124500D01*
X9953982Y-11124500D01*
X9845763Y-11153497D01*
X9845760Y-11153498D01*
X9748740Y-11209513D01*
X9748734Y-11209517D01*
X9669517Y-11288734D01*
X9669513Y-11288740D01*
X9613498Y-11385760D01*
X9613497Y-11385763D01*
X9584500Y-11493982D01*
X8275500Y-11493982D01*
X8275500Y-11400252D01*
X8275500Y-11400249D01*
X8275499Y-11400247D01*
X8263868Y-11341770D01*
X8263867Y-11341769D01*
X8219552Y-11275447D01*
X8153230Y-11231132D01*
X8153229Y-11231131D01*
X8094752Y-11219500D01*
X8094748Y-11219500D01*
X6355252Y-11219500D01*
X6355247Y-11219500D01*
X6296770Y-11231131D01*
X6296769Y-11231132D01*
X6230447Y-11275447D01*
X6186132Y-11341769D01*
X6186131Y-11341770D01*
X6174500Y-11400247D01*
X5274173Y-11400247D01*
X5205830Y-11354582D01*
X5182598Y-11339059D01*
X5158784Y-11329195D01*
X4991420Y-11259870D01*
X4991412Y-11259868D01*
X4788469Y-11219500D01*
X4788465Y-11219500D01*
X4581535Y-11219500D01*
X4581530Y-11219500D01*
X4378587Y-11259868D01*
X4378579Y-11259870D01*
X4187403Y-11339058D01*
X4015342Y-11454024D01*
X3869024Y-11600342D01*
X3754058Y-11772403D01*
X3674870Y-11963579D01*
X3674868Y-11963587D01*
X3634500Y-12166530D01*
X2634913Y-12166530D01*
X2610925Y-12077007D01*
X2578012Y-12020000D01*
X3219115Y-12020000D01*
X3219115Y-12019999D01*
X3217914Y-12012415D01*
X3164408Y-11847744D01*
X3085804Y-11693475D01*
X2984032Y-11553397D01*
X2861602Y-11430967D01*
X2721524Y-11329195D01*
X2567257Y-11250591D01*
X2402589Y-11197087D01*
X2402581Y-11197085D01*
X2395000Y-11195884D01*
X2395000Y-11836988D01*
X2337993Y-11804075D01*
X2210826Y-11770000D01*
X2079174Y-11770000D01*
X1952007Y-11804075D01*
X1895000Y-11836988D01*
X1895000Y-11195884D01*
X1894999Y-11195884D01*
X1887418Y-11197085D01*
X1887410Y-11197087D01*
X1722742Y-11250591D01*
X1568475Y-11329195D01*
X1428397Y-11430967D01*
X1305967Y-11553397D01*
X1204195Y-11693475D01*
X1125591Y-11847744D01*
X1072085Y-12012415D01*
X1070884Y-12019999D01*
X500500Y-12019999D01*
X500500Y-9479999D01*
X1070884Y-9479999D01*
X1070885Y-9480000D01*
X1711988Y-9480000D01*
X1679075Y-9537007D01*
X1645000Y-9664174D01*
X1645000Y-9795826D01*
X1679075Y-9922993D01*
X1711988Y-9980000D01*
X1070885Y-9980000D01*
X1072085Y-9987584D01*
X1125591Y-10152255D01*
X1204195Y-10306524D01*
X1305967Y-10446602D01*
X1428397Y-10569032D01*
X1568475Y-10670804D01*
X1722744Y-10749408D01*
X1887415Y-10802914D01*
X1887414Y-10802914D01*
X1894999Y-10804115D01*
X1895000Y-10804114D01*
X1895000Y-10163012D01*
X1952007Y-10195925D01*
X2079174Y-10230000D01*
X2210826Y-10230000D01*
X2337993Y-10195925D01*
X2395000Y-10163012D01*
X2395000Y-10804115D01*
X2402584Y-10802914D01*
X2567255Y-10749408D01*
X2721524Y-10670804D01*
X2861602Y-10569032D01*
X2984032Y-10446602D01*
X3085804Y-10306524D01*
X3164408Y-10152255D01*
X3217914Y-9987584D01*
X3219115Y-9980000D01*
X2578012Y-9980000D01*
X2610925Y-9922993D01*
X2645000Y-9795826D01*
X2645000Y-9664174D01*
X2634913Y-9626530D01*
X3634500Y-9626530D01*
X3634500Y-9833469D01*
X3674868Y-10036412D01*
X3674870Y-10036420D01*
X3753189Y-10225499D01*
X3754059Y-10227598D01*
X3805443Y-10304500D01*
X3869024Y-10399657D01*
X4015342Y-10545975D01*
X4015345Y-10545977D01*
X4187402Y-10660941D01*
X4378580Y-10740130D01*
X4523052Y-10768867D01*
X4581530Y-10780499D01*
X4581534Y-10780500D01*
X4581535Y-10780500D01*
X4788466Y-10780500D01*
X4788467Y-10780499D01*
X4991420Y-10740130D01*
X5182598Y-10660941D01*
X5354655Y-10545977D01*
X5500977Y-10399655D01*
X5615941Y-10227598D01*
X5695130Y-10036420D01*
X5735500Y-9833465D01*
X5735500Y-9626535D01*
X5695130Y-9423580D01*
X5615941Y-9232402D01*
X5500977Y-9060345D01*
X5500975Y-9060342D01*
X5354657Y-8914024D01*
X5274173Y-8860247D01*
X6174500Y-8860247D01*
X6174500Y-10599752D01*
X6186131Y-10658229D01*
X6186132Y-10658230D01*
X6230447Y-10724552D01*
X6296769Y-10768867D01*
X6296770Y-10768868D01*
X6355247Y-10780499D01*
X6355250Y-10780500D01*
X6355252Y-10780500D01*
X8094750Y-10780500D01*
X8094751Y-10780499D01*
X8109568Y-10777552D01*
X8153229Y-10768868D01*
X8153229Y-10768867D01*
X8153231Y-10768867D01*
X8219552Y-10724552D01*
X8263867Y-10658231D01*
X8263867Y-10658229D01*
X8263868Y-10658229D01*
X8275499Y-10599752D01*
X8275500Y-10599750D01*
X8275500Y-10393982D01*
X9604500Y-10393982D01*
X9604500Y-10506018D01*
X9629616Y-10599750D01*
X9633497Y-10614236D01*
X9633498Y-10614239D01*
X9637104Y-10620485D01*
X9689515Y-10711263D01*
X9768737Y-10790485D01*
X9865763Y-10846503D01*
X9973982Y-10875500D01*
X9973984Y-10875500D01*
X10086016Y-10875500D01*
X10086018Y-10875500D01*
X10194237Y-10846503D01*
X10291263Y-10790485D01*
X10370485Y-10711263D01*
X10426503Y-10614237D01*
X10455500Y-10506018D01*
X10455500Y-10393982D01*
X10426503Y-10285763D01*
X10370485Y-10188737D01*
X10291263Y-10109515D01*
X10207688Y-10061263D01*
X10194239Y-10053498D01*
X10194238Y-10053497D01*
X10194237Y-10053497D01*
X10086018Y-10024500D01*
X9973982Y-10024500D01*
X9865763Y-10053497D01*
X9865760Y-10053498D01*
X9768740Y-10109513D01*
X9768734Y-10109517D01*
X9689517Y-10188734D01*
X9689513Y-10188740D01*
X9633498Y-10285760D01*
X9633497Y-10285763D01*
X9604500Y-10393982D01*
X8275500Y-10393982D01*
X8275500Y-9793982D01*
X13094500Y-9793982D01*
X13094500Y-9906018D01*
X13121295Y-10006017D01*
X13123497Y-10014236D01*
X13123498Y-10014239D01*
X13127104Y-10020485D01*
X13179515Y-10111263D01*
X13258737Y-10190485D01*
X13355763Y-10246503D01*
X13358082Y-10247124D01*
X13359817Y-10248181D01*
X13363270Y-10249612D01*
X13363047Y-10250150D01*
X13417742Y-10283486D01*
X13448273Y-10346333D01*
X13439980Y-10415708D01*
X13413673Y-10454578D01*
X13399518Y-10468732D01*
X13399513Y-10468740D01*
X13343498Y-10565760D01*
X13343497Y-10565763D01*
X13314500Y-10673982D01*
X13314500Y-10786018D01*
X13343497Y-10894237D01*
X13399515Y-10991263D01*
X13478737Y-11070485D01*
X13575763Y-11126503D01*
X13683982Y-11155500D01*
X13683984Y-11155500D01*
X13796016Y-11155500D01*
X13796018Y-11155500D01*
X13904237Y-11126503D01*
X14001263Y-11070485D01*
X14080485Y-10991263D01*
X14136503Y-10894237D01*
X14155328Y-10823982D01*
X23414500Y-10823982D01*
X23414500Y-10936018D01*
X23443497Y-11044237D01*
X23499515Y-11141263D01*
X23499517Y-11141265D01*
X23581819Y-11223567D01*
X23615304Y-11284890D01*
X23610320Y-11354582D01*
X23581819Y-11398929D01*
X23555114Y-11425633D01*
X23555110Y-11425639D01*
X23499095Y-11522659D01*
X23499094Y-11522662D01*
X23470097Y-11630881D01*
X23470097Y-11742917D01*
X23499094Y-11851136D01*
X23555112Y-11948162D01*
X23634334Y-12027384D01*
X23731360Y-12083402D01*
X23839579Y-12112399D01*
X23839581Y-12112399D01*
X23951613Y-12112399D01*
X23951615Y-12112399D01*
X24059834Y-12083402D01*
X24156860Y-12027384D01*
X24210262Y-11973982D01*
X25644500Y-11973982D01*
X25644500Y-12086018D01*
X25673497Y-12194237D01*
X25729515Y-12291263D01*
X25808737Y-12370485D01*
X25905763Y-12426503D01*
X26013982Y-12455500D01*
X26013984Y-12455500D01*
X26126016Y-12455500D01*
X26126018Y-12455500D01*
X26234237Y-12426503D01*
X26331263Y-12370485D01*
X26410485Y-12291263D01*
X26466503Y-12194237D01*
X26495500Y-12086018D01*
X26495500Y-11973982D01*
X26466503Y-11865763D01*
X26410485Y-11768737D01*
X26331263Y-11689515D01*
X26262227Y-11649657D01*
X26234239Y-11633498D01*
X26234238Y-11633497D01*
X26234237Y-11633497D01*
X26126018Y-11604500D01*
X26013982Y-11604500D01*
X25905763Y-11633497D01*
X25905760Y-11633498D01*
X25808740Y-11689513D01*
X25808734Y-11689517D01*
X25729517Y-11768734D01*
X25729513Y-11768740D01*
X25673498Y-11865760D01*
X25673497Y-11865763D01*
X25644500Y-11973982D01*
X24210262Y-11973982D01*
X24236082Y-11948162D01*
X24292100Y-11851136D01*
X24321097Y-11742917D01*
X24321097Y-11630881D01*
X24292100Y-11522662D01*
X24236082Y-11425636D01*
X24156860Y-11346414D01*
X24153778Y-11343332D01*
X24120293Y-11282009D01*
X24125277Y-11212317D01*
X24153778Y-11167970D01*
X24166249Y-11155499D01*
X24180485Y-11141263D01*
X24236503Y-11044237D01*
X24265500Y-10936018D01*
X24265500Y-10876530D01*
X36674500Y-10876530D01*
X36674500Y-11083469D01*
X36714868Y-11286412D01*
X36714870Y-11286420D01*
X36772535Y-11425636D01*
X36794059Y-11477598D01*
X36824168Y-11522659D01*
X36909024Y-11649657D01*
X37055342Y-11795975D01*
X37055345Y-11795977D01*
X37227402Y-11910941D01*
X37418580Y-11990130D01*
X37568743Y-12019999D01*
X37621530Y-12030499D01*
X37621534Y-12030500D01*
X37621535Y-12030500D01*
X38078466Y-12030500D01*
X38078467Y-12030499D01*
X38281420Y-11990130D01*
X38472598Y-11910941D01*
X38644655Y-11795977D01*
X38790977Y-11649655D01*
X38905941Y-11477598D01*
X38985130Y-11286420D01*
X39025500Y-11083465D01*
X39025500Y-10876535D01*
X38985130Y-10673580D01*
X38905941Y-10482402D01*
X38790977Y-10310345D01*
X38790975Y-10310342D01*
X38644657Y-10164024D01*
X38527525Y-10085760D01*
X38472598Y-10049059D01*
X38461770Y-10044574D01*
X38281420Y-9969870D01*
X38281412Y-9969868D01*
X38078469Y-9929500D01*
X38078465Y-9929500D01*
X37621535Y-9929500D01*
X37621530Y-9929500D01*
X37418587Y-9969868D01*
X37418579Y-9969870D01*
X37227403Y-10049058D01*
X37055342Y-10164024D01*
X36909024Y-10310342D01*
X36794058Y-10482403D01*
X36714870Y-10673579D01*
X36714868Y-10673587D01*
X36674500Y-10876530D01*
X24265500Y-10876530D01*
X24265500Y-10823982D01*
X24236503Y-10715763D01*
X24180485Y-10618737D01*
X24101263Y-10539515D01*
X24004237Y-10483497D01*
X23896018Y-10454500D01*
X23783982Y-10454500D01*
X23675763Y-10483497D01*
X23675760Y-10483498D01*
X23578740Y-10539513D01*
X23578734Y-10539517D01*
X23499517Y-10618734D01*
X23499513Y-10618740D01*
X23443498Y-10715760D01*
X23443497Y-10715763D01*
X23414500Y-10823982D01*
X14155328Y-10823982D01*
X14165500Y-10786018D01*
X14165500Y-10673982D01*
X14136503Y-10565763D01*
X14080485Y-10468737D01*
X14001263Y-10389515D01*
X13926470Y-10346333D01*
X13904239Y-10333498D01*
X13904238Y-10333497D01*
X13904237Y-10333497D01*
X13901910Y-10332873D01*
X13900170Y-10331813D01*
X13896730Y-10330388D01*
X13896952Y-10329851D01*
X13872231Y-10314781D01*
X13842624Y-10296913D01*
X13842497Y-10296655D01*
X13842252Y-10296506D01*
X13827084Y-10265278D01*
X13811818Y-10234202D01*
X13811850Y-10233916D01*
X13811725Y-10233658D01*
X13815847Y-10199195D01*
X13819807Y-10164790D01*
X13819995Y-10164509D01*
X13820023Y-10164283D01*
X13838043Y-10134573D01*
X13841951Y-10129796D01*
X13860485Y-10111263D01*
X13868555Y-10097284D01*
X13874937Y-10089486D01*
X13895799Y-10075230D01*
X13914083Y-10057798D01*
X13924153Y-10055856D01*
X13932626Y-10050068D01*
X13957882Y-10049355D01*
X13982690Y-10044574D01*
X13992214Y-10048387D01*
X14002468Y-10048098D01*
X14024095Y-10061150D01*
X14047554Y-10070542D01*
X14058584Y-10080332D01*
X14118737Y-10140485D01*
X14215763Y-10196503D01*
X14323982Y-10225500D01*
X14323984Y-10225500D01*
X14436016Y-10225500D01*
X14436018Y-10225500D01*
X14544237Y-10196503D01*
X14641263Y-10140485D01*
X14683833Y-10097914D01*
X14745154Y-10064430D01*
X14814845Y-10069414D01*
X14870779Y-10111285D01*
X14878900Y-10123596D01*
X14902684Y-10164790D01*
X14929515Y-10211263D01*
X15008737Y-10290485D01*
X15105763Y-10346503D01*
X15213982Y-10375500D01*
X15213984Y-10375500D01*
X15326016Y-10375500D01*
X15326018Y-10375500D01*
X15434237Y-10346503D01*
X15531263Y-10290485D01*
X15610485Y-10211263D01*
X15666503Y-10114237D01*
X15695500Y-10006018D01*
X15695500Y-9893982D01*
X15666503Y-9785763D01*
X15648154Y-9753982D01*
X23674500Y-9753982D01*
X23674500Y-9866018D01*
X23702327Y-9969868D01*
X23703497Y-9974236D01*
X23703498Y-9974239D01*
X23711870Y-9988740D01*
X23759515Y-10071263D01*
X23838737Y-10150485D01*
X23935763Y-10206503D01*
X24043982Y-10235500D01*
X24043984Y-10235500D01*
X24156016Y-10235500D01*
X24156018Y-10235500D01*
X24199004Y-10223982D01*
X29984500Y-10223982D01*
X29984500Y-10336018D01*
X30013497Y-10444237D01*
X30069515Y-10541263D01*
X30148737Y-10620485D01*
X30245763Y-10676503D01*
X30353982Y-10705500D01*
X30353984Y-10705500D01*
X30466016Y-10705500D01*
X30466018Y-10705500D01*
X30574237Y-10676503D01*
X30671263Y-10620485D01*
X30750485Y-10541263D01*
X30806503Y-10444237D01*
X30835500Y-10336018D01*
X30835500Y-10223982D01*
X30827462Y-10193982D01*
X33874500Y-10193982D01*
X33874500Y-10306018D01*
X33903497Y-10414237D01*
X33959515Y-10511263D01*
X34038737Y-10590485D01*
X34135763Y-10646503D01*
X34243982Y-10675500D01*
X34243984Y-10675500D01*
X34356016Y-10675500D01*
X34356018Y-10675500D01*
X34464237Y-10646503D01*
X34561263Y-10590485D01*
X34640485Y-10511263D01*
X34696503Y-10414237D01*
X34725500Y-10306018D01*
X34725500Y-10193982D01*
X34696503Y-10085763D01*
X34640485Y-9988737D01*
X34561263Y-9909515D01*
X34485921Y-9866016D01*
X34464239Y-9853498D01*
X34464238Y-9853497D01*
X34464237Y-9853497D01*
X34356018Y-9824500D01*
X34243982Y-9824500D01*
X34135763Y-9853497D01*
X34135760Y-9853498D01*
X34038740Y-9909513D01*
X34038734Y-9909517D01*
X33959517Y-9988734D01*
X33959513Y-9988740D01*
X33903498Y-10085760D01*
X33903497Y-10085763D01*
X33874500Y-10193982D01*
X30827462Y-10193982D01*
X30806503Y-10115763D01*
X30750485Y-10018737D01*
X30671263Y-9939515D01*
X30592839Y-9894237D01*
X30574239Y-9883498D01*
X30574238Y-9883497D01*
X30574237Y-9883497D01*
X30466018Y-9854500D01*
X30353982Y-9854500D01*
X30245763Y-9883497D01*
X30245760Y-9883498D01*
X30148740Y-9939513D01*
X30148734Y-9939517D01*
X30069517Y-10018734D01*
X30069513Y-10018740D01*
X30013498Y-10115760D01*
X30013497Y-10115763D01*
X29984500Y-10223982D01*
X24199004Y-10223982D01*
X24264237Y-10206503D01*
X24361263Y-10150485D01*
X24440485Y-10071263D01*
X24496503Y-9974237D01*
X24525500Y-9866018D01*
X24525500Y-9753982D01*
X24496503Y-9645763D01*
X24483928Y-9623982D01*
X27474500Y-9623982D01*
X27474500Y-9736018D01*
X27503497Y-9844237D01*
X27559515Y-9941263D01*
X27638737Y-10020485D01*
X27735763Y-10076503D01*
X27843982Y-10105500D01*
X27843984Y-10105500D01*
X27956016Y-10105500D01*
X27956018Y-10105500D01*
X28064237Y-10076503D01*
X28161263Y-10020485D01*
X28240485Y-9941263D01*
X28296503Y-9844237D01*
X28325500Y-9736018D01*
X28325500Y-9623982D01*
X28296503Y-9515763D01*
X28240485Y-9418737D01*
X28161263Y-9339515D01*
X28117834Y-9314441D01*
X28916100Y-9314441D01*
X28916100Y-9426477D01*
X28943973Y-9530499D01*
X28945097Y-9534695D01*
X28945098Y-9534698D01*
X28953205Y-9548740D01*
X29001115Y-9631722D01*
X29080337Y-9710944D01*
X29177363Y-9766962D01*
X29285582Y-9795959D01*
X29285584Y-9795959D01*
X29397616Y-9795959D01*
X29397618Y-9795959D01*
X29505837Y-9766962D01*
X29602863Y-9710944D01*
X29639825Y-9673982D01*
X32314500Y-9673982D01*
X32314500Y-9786018D01*
X32343497Y-9894237D01*
X32399515Y-9991263D01*
X32478737Y-10070485D01*
X32575763Y-10126503D01*
X32683982Y-10155500D01*
X32683984Y-10155500D01*
X32796016Y-10155500D01*
X32796018Y-10155500D01*
X32904237Y-10126503D01*
X33001263Y-10070485D01*
X33080485Y-9991263D01*
X33136503Y-9894237D01*
X33165500Y-9786018D01*
X33165500Y-9673982D01*
X33136503Y-9565763D01*
X33080485Y-9468737D01*
X33001263Y-9389515D01*
X32914664Y-9339517D01*
X32904239Y-9333498D01*
X32904238Y-9333497D01*
X32904237Y-9333497D01*
X32796018Y-9304500D01*
X32683982Y-9304500D01*
X32575763Y-9333497D01*
X32575760Y-9333498D01*
X32478740Y-9389513D01*
X32478734Y-9389517D01*
X32399517Y-9468734D01*
X32399513Y-9468740D01*
X32343498Y-9565760D01*
X32343497Y-9565763D01*
X32314500Y-9673982D01*
X29639825Y-9673982D01*
X29682085Y-9631722D01*
X29738103Y-9534696D01*
X29767100Y-9426477D01*
X29767100Y-9314441D01*
X29738103Y-9206222D01*
X29682085Y-9109196D01*
X29602863Y-9029974D01*
X29505837Y-8973956D01*
X29397618Y-8944959D01*
X29285582Y-8944959D01*
X29177363Y-8973956D01*
X29177360Y-8973957D01*
X29080340Y-9029972D01*
X29080334Y-9029976D01*
X29001117Y-9109193D01*
X29001113Y-9109199D01*
X28945098Y-9206219D01*
X28945097Y-9206222D01*
X28916100Y-9314441D01*
X28117834Y-9314441D01*
X28064237Y-9283497D01*
X27956018Y-9254500D01*
X27843982Y-9254500D01*
X27735763Y-9283497D01*
X27735760Y-9283498D01*
X27638740Y-9339513D01*
X27638734Y-9339517D01*
X27559517Y-9418734D01*
X27559513Y-9418740D01*
X27503498Y-9515760D01*
X27503497Y-9515763D01*
X27474500Y-9623982D01*
X24483928Y-9623982D01*
X24440485Y-9548737D01*
X24361263Y-9469515D01*
X24283295Y-9424500D01*
X24264239Y-9413498D01*
X24264238Y-9413497D01*
X24264237Y-9413497D01*
X24156018Y-9384500D01*
X24043982Y-9384500D01*
X23935763Y-9413497D01*
X23935760Y-9413498D01*
X23838740Y-9469513D01*
X23838734Y-9469517D01*
X23759517Y-9548734D01*
X23759513Y-9548740D01*
X23703498Y-9645760D01*
X23703497Y-9645763D01*
X23674500Y-9753982D01*
X15648154Y-9753982D01*
X15610485Y-9688737D01*
X15531263Y-9609515D01*
X15434237Y-9553497D01*
X15326018Y-9524500D01*
X15213982Y-9524500D01*
X15105763Y-9553497D01*
X15105760Y-9553498D01*
X15008740Y-9609513D01*
X15008733Y-9609518D01*
X14966166Y-9652085D01*
X14904843Y-9685569D01*
X14835151Y-9680584D01*
X14779218Y-9638712D01*
X14771099Y-9626403D01*
X14761349Y-9609515D01*
X14720485Y-9538737D01*
X14641263Y-9459515D01*
X14561558Y-9413497D01*
X14544239Y-9403498D01*
X14544238Y-9403497D01*
X14544237Y-9403497D01*
X14436018Y-9374500D01*
X14323982Y-9374500D01*
X14215763Y-9403497D01*
X14215760Y-9403498D01*
X14118740Y-9459513D01*
X14118734Y-9459517D01*
X14039517Y-9538734D01*
X14039508Y-9538746D01*
X14036477Y-9543996D01*
X13985906Y-9592207D01*
X13917298Y-9605423D01*
X13852435Y-9579449D01*
X13841415Y-9569667D01*
X13781265Y-9509517D01*
X13781263Y-9509515D01*
X13694664Y-9459517D01*
X13684239Y-9453498D01*
X13684238Y-9453497D01*
X13684237Y-9453497D01*
X13576018Y-9424500D01*
X13463982Y-9424500D01*
X13355763Y-9453497D01*
X13355760Y-9453498D01*
X13258740Y-9509513D01*
X13258734Y-9509517D01*
X13179517Y-9588734D01*
X13179513Y-9588740D01*
X13123498Y-9685760D01*
X13123497Y-9685763D01*
X13094500Y-9793982D01*
X8275500Y-9793982D01*
X8275500Y-8860249D01*
X8275499Y-8860247D01*
X8263868Y-8801770D01*
X8263867Y-8801769D01*
X8251982Y-8783982D01*
X15024500Y-8783982D01*
X15024500Y-8896018D01*
X15045384Y-8973956D01*
X15053497Y-9004236D01*
X15053498Y-9004239D01*
X15068355Y-9029972D01*
X15109515Y-9101263D01*
X15188737Y-9180485D01*
X15285763Y-9236503D01*
X15393982Y-9265500D01*
X15393984Y-9265500D01*
X15506016Y-9265500D01*
X15506018Y-9265500D01*
X15614237Y-9236503D01*
X15711263Y-9180485D01*
X15790485Y-9101263D01*
X15846503Y-9004237D01*
X15875500Y-8896018D01*
X15875500Y-8783982D01*
X15846503Y-8675763D01*
X15790485Y-8578737D01*
X15711263Y-8499515D01*
X15711260Y-8499513D01*
X15711259Y-8499512D01*
X15614239Y-8443498D01*
X15614238Y-8443497D01*
X15614237Y-8443497D01*
X15506018Y-8414500D01*
X15393982Y-8414500D01*
X15285763Y-8443497D01*
X15285760Y-8443498D01*
X15188740Y-8499513D01*
X15188734Y-8499517D01*
X15109517Y-8578734D01*
X15109513Y-8578740D01*
X15053498Y-8675760D01*
X15053497Y-8675763D01*
X15024500Y-8783982D01*
X8251982Y-8783982D01*
X8219552Y-8735447D01*
X8153230Y-8691132D01*
X8153229Y-8691131D01*
X8094752Y-8679500D01*
X8094748Y-8679500D01*
X6355252Y-8679500D01*
X6355247Y-8679500D01*
X6296770Y-8691131D01*
X6296769Y-8691132D01*
X6230447Y-8735447D01*
X6186132Y-8801769D01*
X6186131Y-8801770D01*
X6174500Y-8860247D01*
X5274173Y-8860247D01*
X5268626Y-8856541D01*
X5182598Y-8799059D01*
X5158784Y-8789195D01*
X4991420Y-8719870D01*
X4991412Y-8719868D01*
X4788469Y-8679500D01*
X4788465Y-8679500D01*
X4581535Y-8679500D01*
X4581530Y-8679500D01*
X4378587Y-8719868D01*
X4378579Y-8719870D01*
X4187403Y-8799058D01*
X4015342Y-8914024D01*
X3869024Y-9060342D01*
X3754058Y-9232403D01*
X3674870Y-9423579D01*
X3674868Y-9423587D01*
X3634500Y-9626530D01*
X2634913Y-9626530D01*
X2610925Y-9537007D01*
X2578012Y-9480000D01*
X3219115Y-9480000D01*
X3219115Y-9479999D01*
X3217914Y-9472415D01*
X3164408Y-9307744D01*
X3085804Y-9153475D01*
X2984032Y-9013397D01*
X2861602Y-8890967D01*
X2721524Y-8789195D01*
X2567257Y-8710591D01*
X2402589Y-8657087D01*
X2402581Y-8657085D01*
X2395000Y-8655884D01*
X2395000Y-9296988D01*
X2337993Y-9264075D01*
X2210826Y-9230000D01*
X2079174Y-9230000D01*
X1952007Y-9264075D01*
X1895000Y-9296988D01*
X1895000Y-8655884D01*
X1894999Y-8655884D01*
X1887418Y-8657085D01*
X1887410Y-8657087D01*
X1722742Y-8710591D01*
X1568475Y-8789195D01*
X1428397Y-8890967D01*
X1305967Y-9013397D01*
X1204195Y-9153475D01*
X1125591Y-9307744D01*
X1072085Y-9472415D01*
X1070884Y-9479999D01*
X500500Y-9479999D01*
X500500Y-8413982D01*
X22614500Y-8413982D01*
X22614500Y-8526018D01*
X22643497Y-8634237D01*
X22699515Y-8731263D01*
X22778737Y-8810485D01*
X22875763Y-8866503D01*
X22983982Y-8895500D01*
X22983984Y-8895500D01*
X23096016Y-8895500D01*
X23096018Y-8895500D01*
X23204237Y-8866503D01*
X23301263Y-8810485D01*
X23380485Y-8731263D01*
X23436503Y-8634237D01*
X23465500Y-8526018D01*
X23465500Y-8413982D01*
X23436503Y-8305763D01*
X23380485Y-8208737D01*
X23301263Y-8129515D01*
X23204237Y-8073497D01*
X23096018Y-8044500D01*
X22983982Y-8044500D01*
X22875763Y-8073497D01*
X22875760Y-8073498D01*
X22778740Y-8129513D01*
X22778734Y-8129517D01*
X22699517Y-8208734D01*
X22699513Y-8208740D01*
X22643498Y-8305760D01*
X22643497Y-8305763D01*
X22614500Y-8413982D01*
X500500Y-8413982D01*
X500500Y-6939999D01*
X1070884Y-6939999D01*
X1070885Y-6940000D01*
X1711988Y-6940000D01*
X1679075Y-6997007D01*
X1645000Y-7124174D01*
X1645000Y-7255826D01*
X1679075Y-7382993D01*
X1711988Y-7440000D01*
X1070885Y-7440000D01*
X1072085Y-7447584D01*
X1125591Y-7612255D01*
X1204195Y-7766524D01*
X1305967Y-7906602D01*
X1428397Y-8029032D01*
X1568475Y-8130804D01*
X1722744Y-8209408D01*
X1887415Y-8262914D01*
X1887414Y-8262914D01*
X1894999Y-8264115D01*
X1895000Y-8264114D01*
X1895000Y-7623012D01*
X1952007Y-7655925D01*
X2079174Y-7690000D01*
X2210826Y-7690000D01*
X2337993Y-7655925D01*
X2395000Y-7623012D01*
X2395000Y-8264115D01*
X2402584Y-8262914D01*
X2567255Y-8209408D01*
X2721524Y-8130804D01*
X2861602Y-8029032D01*
X2984032Y-7906602D01*
X3085804Y-7766524D01*
X3164408Y-7612255D01*
X3217914Y-7447584D01*
X3219115Y-7440000D01*
X2578012Y-7440000D01*
X2610925Y-7382993D01*
X2645000Y-7255826D01*
X2645000Y-7124174D01*
X2634913Y-7086530D01*
X3634500Y-7086530D01*
X3634500Y-7293469D01*
X3674868Y-7496412D01*
X3674870Y-7496420D01*
X3740939Y-7655925D01*
X3754059Y-7687598D01*
X3806795Y-7766524D01*
X3869024Y-7859657D01*
X4015342Y-8005975D01*
X4015345Y-8005977D01*
X4187402Y-8120941D01*
X4378580Y-8200130D01*
X4523052Y-8228867D01*
X4581530Y-8240499D01*
X4581534Y-8240500D01*
X4581535Y-8240500D01*
X4788466Y-8240500D01*
X4788467Y-8240499D01*
X4991420Y-8200130D01*
X5182598Y-8120941D01*
X5354655Y-8005977D01*
X5500977Y-7859655D01*
X5615941Y-7687598D01*
X5695130Y-7496420D01*
X5735500Y-7293465D01*
X5735500Y-7086535D01*
X5695130Y-6883580D01*
X5615941Y-6692402D01*
X5500977Y-6520345D01*
X5500975Y-6520342D01*
X5354657Y-6374024D01*
X5234881Y-6293993D01*
X5182598Y-6259059D01*
X5169170Y-6253497D01*
X4991420Y-6179870D01*
X4991412Y-6179868D01*
X4788469Y-6139500D01*
X4788465Y-6139500D01*
X4581535Y-6139500D01*
X4581530Y-6139500D01*
X4378587Y-6179868D01*
X4378579Y-6179870D01*
X4187403Y-6259058D01*
X4015342Y-6374024D01*
X3869024Y-6520342D01*
X3754058Y-6692403D01*
X3674870Y-6883579D01*
X3674868Y-6883587D01*
X3634500Y-7086530D01*
X2634913Y-7086530D01*
X2610925Y-6997007D01*
X2578012Y-6940000D01*
X3219115Y-6940000D01*
X3219115Y-6939999D01*
X3217914Y-6932415D01*
X3164408Y-6767744D01*
X3085804Y-6613475D01*
X2984032Y-6473397D01*
X2861602Y-6350967D01*
X2721524Y-6249195D01*
X2567257Y-6170591D01*
X2402589Y-6117087D01*
X2402581Y-6117085D01*
X2395000Y-6115884D01*
X2395000Y-6756988D01*
X2337993Y-6724075D01*
X2210826Y-6690000D01*
X2079174Y-6690000D01*
X1952007Y-6724075D01*
X1895000Y-6756988D01*
X1895000Y-6115884D01*
X1894999Y-6115884D01*
X1887418Y-6117085D01*
X1887410Y-6117087D01*
X1722742Y-6170591D01*
X1568475Y-6249195D01*
X1428397Y-6350967D01*
X1305967Y-6473397D01*
X1204195Y-6613475D01*
X1125591Y-6767744D01*
X1072085Y-6932415D01*
X1070884Y-6939999D01*
X500500Y-6939999D01*
X500500Y-4399999D01*
X1070884Y-4399999D01*
X1070885Y-4400000D01*
X1711988Y-4400000D01*
X1679075Y-4457007D01*
X1645000Y-4584174D01*
X1645000Y-4715826D01*
X1679075Y-4842993D01*
X1711988Y-4900000D01*
X1070885Y-4900000D01*
X1072085Y-4907584D01*
X1125591Y-5072255D01*
X1204195Y-5226524D01*
X1305967Y-5366602D01*
X1428397Y-5489032D01*
X1568475Y-5590804D01*
X1722744Y-5669408D01*
X1887415Y-5722914D01*
X1887414Y-5722914D01*
X1894999Y-5724115D01*
X1895000Y-5724114D01*
X1895000Y-5083012D01*
X1952007Y-5115925D01*
X2079174Y-5150000D01*
X2210826Y-5150000D01*
X2337993Y-5115925D01*
X2395000Y-5083012D01*
X2395000Y-5724115D01*
X2402584Y-5722914D01*
X2567255Y-5669408D01*
X2721524Y-5590804D01*
X2861602Y-5489032D01*
X2984032Y-5366602D01*
X3085804Y-5226524D01*
X3164408Y-5072255D01*
X3217914Y-4907584D01*
X3219115Y-4900000D01*
X2578012Y-4900000D01*
X2610925Y-4842993D01*
X2645000Y-4715826D01*
X2645000Y-4584174D01*
X2634913Y-4546530D01*
X3634500Y-4546530D01*
X3634500Y-4753469D01*
X3674868Y-4956412D01*
X3674870Y-4956420D01*
X3740939Y-5115925D01*
X3754059Y-5147598D01*
X3774863Y-5178734D01*
X3869024Y-5319657D01*
X4015342Y-5465975D01*
X4015345Y-5465977D01*
X4187402Y-5580941D01*
X4378580Y-5660130D01*
X4523052Y-5688867D01*
X4581530Y-5700499D01*
X4581534Y-5700500D01*
X4581535Y-5700500D01*
X4788466Y-5700500D01*
X4788467Y-5700499D01*
X4991420Y-5660130D01*
X5182598Y-5580941D01*
X5354655Y-5465977D01*
X5500977Y-5319655D01*
X5615941Y-5147598D01*
X5695130Y-4956420D01*
X5735500Y-4753465D01*
X5735500Y-4546535D01*
X5695130Y-4343580D01*
X5615941Y-4152402D01*
X5500977Y-3980345D01*
X5500975Y-3980342D01*
X5354657Y-3834024D01*
X5274173Y-3780247D01*
X6174500Y-3780247D01*
X6174500Y-5519752D01*
X6186131Y-5578229D01*
X6186132Y-5578230D01*
X6230447Y-5644552D01*
X6296769Y-5688867D01*
X6296770Y-5688868D01*
X6355247Y-5700499D01*
X6355250Y-5700500D01*
X6355252Y-5700500D01*
X8094749Y-5700500D01*
X8106954Y-5698072D01*
X8130411Y-5693406D01*
X8200002Y-5699632D01*
X8255180Y-5742495D01*
X8278425Y-5808384D01*
X8278419Y-5821772D01*
X8277716Y-5834656D01*
X8264500Y-5883982D01*
X8264500Y-5996018D01*
X8268174Y-6009730D01*
X8267098Y-6029473D01*
X8261774Y-6044519D01*
X8261395Y-6060478D01*
X8250360Y-6076782D01*
X8243794Y-6095342D01*
X8231179Y-6105122D01*
X8222233Y-6118342D01*
X8204135Y-6126092D01*
X8188578Y-6138155D01*
X8172678Y-6139563D01*
X8158005Y-6145847D01*
X8119092Y-6144342D01*
X8094748Y-6139500D01*
X6355252Y-6139500D01*
X6355247Y-6139500D01*
X6296770Y-6151131D01*
X6296769Y-6151132D01*
X6230447Y-6195447D01*
X6186132Y-6261769D01*
X6186131Y-6261770D01*
X6174500Y-6320247D01*
X6174500Y-8059752D01*
X6186131Y-8118229D01*
X6186132Y-8118230D01*
X6230447Y-8184552D01*
X6296769Y-8228867D01*
X6296770Y-8228868D01*
X6355247Y-8240499D01*
X6355250Y-8240500D01*
X6355252Y-8240500D01*
X8094750Y-8240500D01*
X8094751Y-8240499D01*
X8109568Y-8237552D01*
X8153229Y-8228868D01*
X8153229Y-8228867D01*
X8153231Y-8228867D01*
X8219552Y-8184552D01*
X8263867Y-8118231D01*
X8263867Y-8118229D01*
X8263868Y-8118229D01*
X8275499Y-8059752D01*
X8275500Y-8059750D01*
X8275500Y-7503982D01*
X17414500Y-7503982D01*
X17414500Y-7616018D01*
X17443497Y-7724237D01*
X17499515Y-7821263D01*
X17578737Y-7900485D01*
X17675763Y-7956503D01*
X17783982Y-7985500D01*
X17783984Y-7985500D01*
X17896016Y-7985500D01*
X17896018Y-7985500D01*
X18004237Y-7956503D01*
X18101263Y-7900485D01*
X18180485Y-7821263D01*
X18236503Y-7724237D01*
X18249245Y-7676681D01*
X18285608Y-7617024D01*
X18348455Y-7586494D01*
X18417831Y-7594788D01*
X18471709Y-7639273D01*
X18488792Y-7676680D01*
X18488794Y-7676684D01*
X18493497Y-7694238D01*
X18493498Y-7694239D01*
X18549515Y-7791263D01*
X18628737Y-7870485D01*
X18725763Y-7926503D01*
X18833982Y-7955500D01*
X18833984Y-7955500D01*
X18946016Y-7955500D01*
X18946018Y-7955500D01*
X19054237Y-7926503D01*
X19151263Y-7870485D01*
X19230485Y-7791263D01*
X19286503Y-7694237D01*
X19315500Y-7586018D01*
X19315500Y-7473982D01*
X19286503Y-7365763D01*
X19230485Y-7268737D01*
X19194255Y-7232507D01*
X19167758Y-7183982D01*
X19874500Y-7183982D01*
X19874500Y-7296018D01*
X19902491Y-7400480D01*
X19903497Y-7404236D01*
X19903498Y-7404239D01*
X19907104Y-7410485D01*
X19959515Y-7501263D01*
X20038737Y-7580485D01*
X20135763Y-7636503D01*
X20243982Y-7665500D01*
X20243984Y-7665500D01*
X20356016Y-7665500D01*
X20356018Y-7665500D01*
X20464237Y-7636503D01*
X20561263Y-7580485D01*
X20640485Y-7501263D01*
X20696503Y-7404237D01*
X20725500Y-7296018D01*
X20725500Y-7183982D01*
X20696503Y-7075763D01*
X20688267Y-7061498D01*
X20671795Y-6993601D01*
X20694647Y-6927574D01*
X20749568Y-6884383D01*
X20795655Y-6875500D01*
X20806016Y-6875500D01*
X20806018Y-6875500D01*
X20914237Y-6846503D01*
X21011263Y-6790485D01*
X21011266Y-6790481D01*
X21012095Y-6790003D01*
X21079995Y-6773530D01*
X21146022Y-6796382D01*
X21181483Y-6835390D01*
X21186164Y-6843497D01*
X21219515Y-6901263D01*
X21298737Y-6980485D01*
X21395763Y-7036503D01*
X21503982Y-7065500D01*
X21503984Y-7065500D01*
X21624145Y-7065500D01*
X21624145Y-7067584D01*
X21682210Y-7076635D01*
X21734469Y-7123011D01*
X21753359Y-7190279D01*
X21749143Y-7220904D01*
X21731046Y-7288444D01*
X21731046Y-7400480D01*
X21760043Y-7508699D01*
X21816061Y-7605725D01*
X21895283Y-7684947D01*
X21992309Y-7740965D01*
X22100528Y-7769962D01*
X22100530Y-7769962D01*
X22212562Y-7769962D01*
X22212564Y-7769962D01*
X22320783Y-7740965D01*
X22417809Y-7684947D01*
X22497031Y-7605725D01*
X22498037Y-7603982D01*
X23674500Y-7603982D01*
X23674500Y-7716018D01*
X23703497Y-7824237D01*
X23759515Y-7921263D01*
X23838737Y-8000485D01*
X23935763Y-8056503D01*
X24043982Y-8085500D01*
X24043984Y-8085500D01*
X24156016Y-8085500D01*
X24156018Y-8085500D01*
X24264237Y-8056503D01*
X24355206Y-8003982D01*
X26114500Y-8003982D01*
X26114500Y-8116018D01*
X26143497Y-8224237D01*
X26199515Y-8321263D01*
X26278737Y-8400485D01*
X26375763Y-8456503D01*
X26483982Y-8485500D01*
X26483984Y-8485500D01*
X26596016Y-8485500D01*
X26596018Y-8485500D01*
X26704237Y-8456503D01*
X26801263Y-8400485D01*
X26825218Y-8376530D01*
X36674500Y-8376530D01*
X36674500Y-8583469D01*
X36704731Y-8735448D01*
X36714870Y-8786420D01*
X36794059Y-8977598D01*
X36811860Y-9004239D01*
X36909024Y-9149657D01*
X37055342Y-9295975D01*
X37055345Y-9295977D01*
X37227402Y-9410941D01*
X37418580Y-9490130D01*
X37547432Y-9515760D01*
X37621530Y-9530499D01*
X37621534Y-9530500D01*
X37621535Y-9530500D01*
X38078466Y-9530500D01*
X38078467Y-9530499D01*
X38281420Y-9490130D01*
X38472598Y-9410941D01*
X38644655Y-9295977D01*
X38790977Y-9149655D01*
X38905941Y-8977598D01*
X38985130Y-8786420D01*
X39025500Y-8583465D01*
X39025500Y-8376535D01*
X38985130Y-8173580D01*
X38905941Y-7982402D01*
X38790977Y-7810345D01*
X38790975Y-7810342D01*
X38644657Y-7664024D01*
X38519632Y-7580486D01*
X38472598Y-7549059D01*
X38375245Y-7508734D01*
X38281420Y-7469870D01*
X38281412Y-7469868D01*
X38078469Y-7429500D01*
X38078465Y-7429500D01*
X37621535Y-7429500D01*
X37621530Y-7429500D01*
X37418587Y-7469868D01*
X37418579Y-7469870D01*
X37227403Y-7549058D01*
X37055342Y-7664024D01*
X36909024Y-7810342D01*
X36794058Y-7982403D01*
X36714870Y-8173579D01*
X36714868Y-8173587D01*
X36674500Y-8376530D01*
X26825218Y-8376530D01*
X26880485Y-8321263D01*
X26936503Y-8224237D01*
X26965500Y-8116018D01*
X26965500Y-8003982D01*
X26936503Y-7895763D01*
X26880485Y-7798737D01*
X26801263Y-7719515D01*
X26791680Y-7713982D01*
X33884500Y-7713982D01*
X33884500Y-7826018D01*
X33913497Y-7934237D01*
X33969515Y-8031263D01*
X34048737Y-8110485D01*
X34145763Y-8166503D01*
X34253982Y-8195500D01*
X34253984Y-8195500D01*
X34366016Y-8195500D01*
X34366018Y-8195500D01*
X34474237Y-8166503D01*
X34571263Y-8110485D01*
X34650485Y-8031263D01*
X34706503Y-7934237D01*
X34735500Y-7826018D01*
X34735500Y-7713982D01*
X34706503Y-7605763D01*
X34650485Y-7508737D01*
X34571263Y-7429515D01*
X34474237Y-7373497D01*
X34366018Y-7344500D01*
X34253982Y-7344500D01*
X34145763Y-7373497D01*
X34145760Y-7373498D01*
X34048740Y-7429513D01*
X34048734Y-7429517D01*
X33969517Y-7508734D01*
X33969513Y-7508740D01*
X33913498Y-7605760D01*
X33913497Y-7605763D01*
X33884500Y-7713982D01*
X26791680Y-7713982D01*
X26727076Y-7676683D01*
X26704239Y-7663498D01*
X26704238Y-7663497D01*
X26704237Y-7663497D01*
X26596018Y-7634500D01*
X26483982Y-7634500D01*
X26375763Y-7663497D01*
X26375760Y-7663498D01*
X26278740Y-7719513D01*
X26278734Y-7719517D01*
X26199517Y-7798734D01*
X26199513Y-7798740D01*
X26143498Y-7895760D01*
X26143497Y-7895763D01*
X26114500Y-8003982D01*
X24355206Y-8003982D01*
X24361263Y-8000485D01*
X24440485Y-7921263D01*
X24496503Y-7824237D01*
X24525500Y-7716018D01*
X24525500Y-7603982D01*
X24525500Y-7599500D01*
X24545185Y-7532461D01*
X24597989Y-7486706D01*
X24649500Y-7475500D01*
X24676016Y-7475500D01*
X24676018Y-7475500D01*
X24784237Y-7446503D01*
X24881263Y-7390485D01*
X24960485Y-7311263D01*
X25016503Y-7214237D01*
X25045500Y-7106018D01*
X25045500Y-7013982D01*
X27014500Y-7013982D01*
X27014500Y-7126018D01*
X27043497Y-7234237D01*
X27099515Y-7331263D01*
X27178737Y-7410485D01*
X27275763Y-7466503D01*
X27383982Y-7495500D01*
X27383984Y-7495500D01*
X27496016Y-7495500D01*
X27496018Y-7495500D01*
X27604237Y-7466503D01*
X27701263Y-7410485D01*
X27780485Y-7331263D01*
X27836503Y-7234237D01*
X27865500Y-7126018D01*
X27865500Y-7013982D01*
X27846744Y-6943982D01*
X32344500Y-6943982D01*
X32344500Y-7056018D01*
X32373497Y-7164237D01*
X32429515Y-7261263D01*
X32508737Y-7340485D01*
X32605763Y-7396503D01*
X32713982Y-7425500D01*
X32713984Y-7425500D01*
X32826016Y-7425500D01*
X32826018Y-7425500D01*
X32934237Y-7396503D01*
X33031263Y-7340485D01*
X33110485Y-7261263D01*
X33166503Y-7164237D01*
X33195500Y-7056018D01*
X33195500Y-6943982D01*
X33166503Y-6835763D01*
X33110485Y-6738737D01*
X33031263Y-6659515D01*
X32952839Y-6614237D01*
X32934239Y-6603498D01*
X32934238Y-6603497D01*
X32934237Y-6603497D01*
X32826018Y-6574500D01*
X32713982Y-6574500D01*
X32605763Y-6603497D01*
X32605760Y-6603498D01*
X32508740Y-6659513D01*
X32508734Y-6659517D01*
X32429517Y-6738734D01*
X32429513Y-6738740D01*
X32373498Y-6835760D01*
X32373497Y-6835763D01*
X32344500Y-6943982D01*
X27846744Y-6943982D01*
X27836503Y-6905763D01*
X27780485Y-6808737D01*
X27701263Y-6729515D01*
X27604237Y-6673497D01*
X27496018Y-6644500D01*
X27383982Y-6644500D01*
X27275763Y-6673497D01*
X27275760Y-6673498D01*
X27178740Y-6729513D01*
X27178734Y-6729517D01*
X27099517Y-6808734D01*
X27099513Y-6808740D01*
X27043498Y-6905760D01*
X27043497Y-6905763D01*
X27014500Y-7013982D01*
X25045500Y-7013982D01*
X25045500Y-6993982D01*
X25016503Y-6885763D01*
X24960485Y-6788737D01*
X24881263Y-6709515D01*
X24794664Y-6659517D01*
X24784239Y-6653498D01*
X24784238Y-6653497D01*
X24784237Y-6653497D01*
X24676018Y-6624500D01*
X24563982Y-6624500D01*
X24455763Y-6653497D01*
X24455760Y-6653498D01*
X24358740Y-6709513D01*
X24358734Y-6709517D01*
X24279517Y-6788734D01*
X24279513Y-6788740D01*
X24223498Y-6885760D01*
X24223497Y-6885763D01*
X24194500Y-6993982D01*
X24194500Y-7110500D01*
X24174815Y-7177539D01*
X24122011Y-7223294D01*
X24070500Y-7234500D01*
X24043982Y-7234500D01*
X23935763Y-7263497D01*
X23935760Y-7263498D01*
X23838740Y-7319513D01*
X23838734Y-7319517D01*
X23759517Y-7398734D01*
X23759513Y-7398740D01*
X23703498Y-7495760D01*
X23703497Y-7495763D01*
X23674500Y-7603982D01*
X22498037Y-7603982D01*
X22553049Y-7508699D01*
X22582046Y-7400480D01*
X22582046Y-7288444D01*
X22553049Y-7180225D01*
X22497031Y-7083199D01*
X22417809Y-7003977D01*
X22320783Y-6947959D01*
X22212564Y-6918962D01*
X22100528Y-6918962D01*
X22092401Y-6918962D01*
X22092401Y-6916881D01*
X22034311Y-6907815D01*
X21982062Y-6861428D01*
X21963186Y-6794156D01*
X21967402Y-6763560D01*
X21985500Y-6696018D01*
X21985500Y-6583982D01*
X21956503Y-6475763D01*
X21900485Y-6378737D01*
X21821263Y-6299515D01*
X21724237Y-6243497D01*
X21616018Y-6214500D01*
X21503982Y-6214500D01*
X21395763Y-6243497D01*
X21395760Y-6243498D01*
X21297903Y-6299996D01*
X21230002Y-6316469D01*
X21163976Y-6293616D01*
X21128516Y-6254609D01*
X21122101Y-6243498D01*
X21090485Y-6188737D01*
X21011263Y-6109515D01*
X20946579Y-6072169D01*
X20914239Y-6053498D01*
X20914238Y-6053497D01*
X20914237Y-6053497D01*
X20806018Y-6024500D01*
X20693982Y-6024500D01*
X20585763Y-6053497D01*
X20585760Y-6053498D01*
X20488740Y-6109513D01*
X20488734Y-6109517D01*
X20409517Y-6188734D01*
X20409513Y-6188740D01*
X20353498Y-6285760D01*
X20353497Y-6285763D01*
X20324500Y-6393982D01*
X20324500Y-6506018D01*
X20353497Y-6614237D01*
X20361732Y-6628501D01*
X20378205Y-6696399D01*
X20355353Y-6762426D01*
X20300432Y-6805617D01*
X20254345Y-6814500D01*
X20243982Y-6814500D01*
X20135763Y-6843497D01*
X20135760Y-6843498D01*
X20038740Y-6899513D01*
X20038734Y-6899517D01*
X19959517Y-6978734D01*
X19959513Y-6978740D01*
X19903498Y-7075760D01*
X19903497Y-7075763D01*
X19874500Y-7183982D01*
X19167758Y-7183982D01*
X19160770Y-7171184D01*
X19165754Y-7101492D01*
X19207626Y-7045559D01*
X19219936Y-7037439D01*
X19301263Y-6990485D01*
X19380485Y-6911263D01*
X19436503Y-6814237D01*
X19465500Y-6706018D01*
X19465500Y-6593982D01*
X19436503Y-6485763D01*
X19380485Y-6388737D01*
X19301263Y-6309515D01*
X19204237Y-6253497D01*
X19096018Y-6224500D01*
X18983982Y-6224500D01*
X18875763Y-6253497D01*
X18875760Y-6253498D01*
X18778740Y-6309513D01*
X18778734Y-6309517D01*
X18699517Y-6388734D01*
X18699513Y-6388740D01*
X18643498Y-6485760D01*
X18643497Y-6485763D01*
X18614500Y-6593982D01*
X18614500Y-6706018D01*
X18643497Y-6814237D01*
X18699515Y-6911263D01*
X18699517Y-6911265D01*
X18735744Y-6947492D01*
X18769229Y-7008815D01*
X18764245Y-7078507D01*
X18722373Y-7134440D01*
X18710064Y-7142559D01*
X18628743Y-7189510D01*
X18628734Y-7189517D01*
X18549517Y-7268734D01*
X18549513Y-7268740D01*
X18493498Y-7365760D01*
X18493495Y-7365767D01*
X18480754Y-7413317D01*
X18444389Y-7472977D01*
X18381541Y-7503505D01*
X18312166Y-7495210D01*
X18258289Y-7450724D01*
X18241206Y-7413318D01*
X18236503Y-7395763D01*
X18180485Y-7298737D01*
X18101263Y-7219515D01*
X18033206Y-7180222D01*
X18004239Y-7163498D01*
X18004238Y-7163497D01*
X18004237Y-7163497D01*
X17896018Y-7134500D01*
X17783982Y-7134500D01*
X17675763Y-7163497D01*
X17675760Y-7163498D01*
X17578740Y-7219513D01*
X17578734Y-7219517D01*
X17499517Y-7298734D01*
X17499513Y-7298740D01*
X17443498Y-7395760D01*
X17443497Y-7395763D01*
X17414500Y-7503982D01*
X8275500Y-7503982D01*
X8275500Y-6406787D01*
X8295185Y-6339748D01*
X8347989Y-6293993D01*
X8417147Y-6284049D01*
X8461495Y-6299398D01*
X8525763Y-6336503D01*
X8633982Y-6365500D01*
X8633984Y-6365500D01*
X8746016Y-6365500D01*
X8746018Y-6365500D01*
X8854237Y-6336503D01*
X8951263Y-6280485D01*
X9030485Y-6201263D01*
X9086503Y-6104237D01*
X9115500Y-5996018D01*
X9115500Y-5883982D01*
X9086503Y-5775763D01*
X9030485Y-5678737D01*
X8951263Y-5599515D01*
X8854237Y-5543497D01*
X8746018Y-5514500D01*
X8633982Y-5514500D01*
X8525763Y-5543497D01*
X8525760Y-5543498D01*
X8461500Y-5580599D01*
X8455598Y-5582030D01*
X8451011Y-5586006D01*
X8422046Y-5590170D01*
X8393600Y-5597072D01*
X8387861Y-5595085D01*
X8381853Y-5595950D01*
X8355228Y-5583790D01*
X8327573Y-5574219D01*
X8323820Y-5569447D01*
X8318297Y-5566925D01*
X8302473Y-5542302D01*
X8284382Y-5519298D01*
X8282965Y-5511947D01*
X8280523Y-5508147D01*
X8275500Y-5473212D01*
X8275500Y-5383982D01*
X9574500Y-5383982D01*
X9574500Y-5496018D01*
X9602233Y-5599517D01*
X9603497Y-5604236D01*
X9603498Y-5604239D01*
X9611870Y-5618740D01*
X9659515Y-5701263D01*
X9738737Y-5780485D01*
X9835763Y-5836503D01*
X9943982Y-5865500D01*
X9943984Y-5865500D01*
X10056016Y-5865500D01*
X10056018Y-5865500D01*
X10164237Y-5836503D01*
X10185924Y-5823982D01*
X31854500Y-5823982D01*
X31854500Y-5936018D01*
X31883497Y-6044237D01*
X31939515Y-6141263D01*
X32018737Y-6220485D01*
X32115763Y-6276503D01*
X32223982Y-6305500D01*
X32223984Y-6305500D01*
X32336016Y-6305500D01*
X32336018Y-6305500D01*
X32444237Y-6276503D01*
X32541263Y-6220485D01*
X32620485Y-6141263D01*
X32676503Y-6044237D01*
X32705500Y-5936018D01*
X32705500Y-5876530D01*
X36674500Y-5876530D01*
X36674500Y-6083469D01*
X36714868Y-6286412D01*
X36714870Y-6286420D01*
X36757252Y-6388740D01*
X36794059Y-6477598D01*
X36851541Y-6563626D01*
X36909024Y-6649657D01*
X37055342Y-6795975D01*
X37055345Y-6795977D01*
X37227402Y-6910941D01*
X37418580Y-6990130D01*
X37621530Y-7030499D01*
X37621534Y-7030500D01*
X37621535Y-7030500D01*
X38078466Y-7030500D01*
X38078467Y-7030499D01*
X38281420Y-6990130D01*
X38472598Y-6910941D01*
X38644655Y-6795977D01*
X38790977Y-6649655D01*
X38905941Y-6477598D01*
X38985130Y-6286420D01*
X39025500Y-6083465D01*
X39025500Y-5876535D01*
X38985130Y-5673580D01*
X38905941Y-5482402D01*
X38790977Y-5310345D01*
X38790975Y-5310342D01*
X38644657Y-5164024D01*
X38509898Y-5073982D01*
X38472598Y-5049059D01*
X38471813Y-5048734D01*
X38281420Y-4969870D01*
X38281412Y-4969868D01*
X38078469Y-4929500D01*
X38078465Y-4929500D01*
X37621535Y-4929500D01*
X37621530Y-4929500D01*
X37418587Y-4969868D01*
X37418579Y-4969870D01*
X37227403Y-5049058D01*
X37055342Y-5164024D01*
X36909024Y-5310342D01*
X36794058Y-5482403D01*
X36714870Y-5673579D01*
X36714868Y-5673587D01*
X36674500Y-5876530D01*
X32705500Y-5876530D01*
X32705500Y-5823982D01*
X32676503Y-5715763D01*
X32620485Y-5618737D01*
X32541263Y-5539515D01*
X32444237Y-5483497D01*
X32336018Y-5454500D01*
X32223982Y-5454500D01*
X32115763Y-5483497D01*
X32115760Y-5483498D01*
X32018740Y-5539513D01*
X32018734Y-5539517D01*
X31939517Y-5618734D01*
X31939513Y-5618740D01*
X31883498Y-5715760D01*
X31883497Y-5715763D01*
X31854500Y-5823982D01*
X10185924Y-5823982D01*
X10261263Y-5780485D01*
X10340485Y-5701263D01*
X10396503Y-5604237D01*
X10425500Y-5496018D01*
X10425500Y-5436610D01*
X10445185Y-5369571D01*
X10497989Y-5323816D01*
X10567147Y-5313872D01*
X10630703Y-5342897D01*
X10637181Y-5348929D01*
X10648737Y-5360485D01*
X10745763Y-5416503D01*
X10853982Y-5445500D01*
X10853984Y-5445500D01*
X10966016Y-5445500D01*
X10966018Y-5445500D01*
X11074237Y-5416503D01*
X11171263Y-5360485D01*
X11250485Y-5281263D01*
X11306503Y-5184237D01*
X11335500Y-5076018D01*
X11335500Y-5073982D01*
X22934500Y-5073982D01*
X22934500Y-5186018D01*
X22963497Y-5294237D01*
X23019515Y-5391263D01*
X23098737Y-5470485D01*
X23195763Y-5526503D01*
X23303982Y-5555500D01*
X23303984Y-5555500D01*
X23416016Y-5555500D01*
X23416018Y-5555500D01*
X23524237Y-5526503D01*
X23621263Y-5470485D01*
X23700485Y-5391263D01*
X23756503Y-5294237D01*
X23767289Y-5253982D01*
X33864500Y-5253982D01*
X33864500Y-5366018D01*
X33893497Y-5474237D01*
X33949515Y-5571263D01*
X34028737Y-5650485D01*
X34125763Y-5706503D01*
X34233982Y-5735500D01*
X34233984Y-5735500D01*
X34346016Y-5735500D01*
X34346018Y-5735500D01*
X34454237Y-5706503D01*
X34551263Y-5650485D01*
X34630485Y-5571263D01*
X34686503Y-5474237D01*
X34715500Y-5366018D01*
X34715500Y-5253982D01*
X34686503Y-5145763D01*
X34630485Y-5048737D01*
X34551263Y-4969515D01*
X34481955Y-4929500D01*
X34454239Y-4913498D01*
X34454238Y-4913497D01*
X34454237Y-4913497D01*
X34346018Y-4884500D01*
X34233982Y-4884500D01*
X34125763Y-4913497D01*
X34125760Y-4913498D01*
X34028740Y-4969513D01*
X34028734Y-4969517D01*
X33949517Y-5048734D01*
X33949513Y-5048740D01*
X33893498Y-5145760D01*
X33893497Y-5145763D01*
X33864500Y-5253982D01*
X23767289Y-5253982D01*
X23785500Y-5186018D01*
X23785500Y-5073982D01*
X23756503Y-4965763D01*
X23700485Y-4868737D01*
X23621263Y-4789515D01*
X23524237Y-4733497D01*
X23416018Y-4704500D01*
X23303982Y-4704500D01*
X23195763Y-4733497D01*
X23195760Y-4733498D01*
X23098740Y-4789513D01*
X23098734Y-4789517D01*
X23019517Y-4868734D01*
X23019513Y-4868740D01*
X22963498Y-4965760D01*
X22963497Y-4965763D01*
X22934500Y-5073982D01*
X11335500Y-5073982D01*
X11335500Y-4963982D01*
X11306503Y-4855763D01*
X11250485Y-4758737D01*
X11171263Y-4679515D01*
X11074237Y-4623497D01*
X10966018Y-4594500D01*
X10853982Y-4594500D01*
X10745763Y-4623497D01*
X10745760Y-4623498D01*
X10648740Y-4679513D01*
X10648734Y-4679517D01*
X10569517Y-4758734D01*
X10569513Y-4758740D01*
X10513498Y-4855760D01*
X10513497Y-4855763D01*
X10484500Y-4963982D01*
X10484500Y-5023390D01*
X10464815Y-5090429D01*
X10412011Y-5136184D01*
X10342853Y-5146128D01*
X10279297Y-5117103D01*
X10272819Y-5111071D01*
X10261265Y-5099517D01*
X10261263Y-5099515D01*
X10164237Y-5043497D01*
X10056018Y-5014500D01*
X9943982Y-5014500D01*
X9835763Y-5043497D01*
X9835760Y-5043498D01*
X9738740Y-5099513D01*
X9738734Y-5099517D01*
X9659517Y-5178734D01*
X9659513Y-5178740D01*
X9603498Y-5275760D01*
X9603497Y-5275763D01*
X9574500Y-5383982D01*
X8275500Y-5383982D01*
X8275500Y-4433982D01*
X32194500Y-4433982D01*
X32194500Y-4546018D01*
X32223497Y-4654237D01*
X32279515Y-4751263D01*
X32358737Y-4830485D01*
X32455763Y-4886503D01*
X32563982Y-4915500D01*
X32563984Y-4915500D01*
X32676016Y-4915500D01*
X32676018Y-4915500D01*
X32784237Y-4886503D01*
X32881263Y-4830485D01*
X32960485Y-4751263D01*
X33016503Y-4654237D01*
X33045500Y-4546018D01*
X33045500Y-4433982D01*
X33016503Y-4325763D01*
X32960485Y-4228737D01*
X32881263Y-4149515D01*
X32784237Y-4093497D01*
X32676018Y-4064500D01*
X32563982Y-4064500D01*
X32455763Y-4093497D01*
X32455760Y-4093498D01*
X32358740Y-4149513D01*
X32358734Y-4149517D01*
X32279517Y-4228734D01*
X32279513Y-4228740D01*
X32223498Y-4325760D01*
X32223497Y-4325763D01*
X32194500Y-4433982D01*
X8275500Y-4433982D01*
X8275500Y-3780249D01*
X8275499Y-3780247D01*
X8263867Y-3721770D01*
X8263867Y-3721769D01*
X8241709Y-3688608D01*
X8238618Y-3683982D01*
X25889500Y-3683982D01*
X25889500Y-3796018D01*
X25918497Y-3904237D01*
X25974515Y-4001263D01*
X26053737Y-4080485D01*
X26150763Y-4136503D01*
X26258982Y-4165500D01*
X26258984Y-4165500D01*
X26371016Y-4165500D01*
X26371018Y-4165500D01*
X26479237Y-4136503D01*
X26576263Y-4080485D01*
X26655485Y-4001263D01*
X26711503Y-3904237D01*
X26740500Y-3796018D01*
X26740500Y-3683982D01*
X26711503Y-3575763D01*
X26655485Y-3478737D01*
X26576263Y-3399515D01*
X26536452Y-3376530D01*
X36674500Y-3376530D01*
X36674500Y-3583469D01*
X36714868Y-3786412D01*
X36714870Y-3786420D01*
X36763672Y-3904239D01*
X36794059Y-3977598D01*
X36809873Y-4001265D01*
X36909024Y-4149657D01*
X37055342Y-4295975D01*
X37055345Y-4295977D01*
X37227402Y-4410941D01*
X37418580Y-4490130D01*
X37621530Y-4530499D01*
X37621534Y-4530500D01*
X37621535Y-4530500D01*
X38078466Y-4530500D01*
X38078467Y-4530499D01*
X38281420Y-4490130D01*
X38472598Y-4410941D01*
X38644655Y-4295977D01*
X38790977Y-4149655D01*
X38905941Y-3977598D01*
X38985130Y-3786420D01*
X39025500Y-3583465D01*
X39025500Y-3376535D01*
X38985130Y-3173580D01*
X38905941Y-2982402D01*
X38790977Y-2810345D01*
X38790975Y-2810342D01*
X38644657Y-2664024D01*
X38512806Y-2575925D01*
X38472598Y-2549059D01*
X38423529Y-2528734D01*
X38281420Y-2469870D01*
X38281412Y-2469868D01*
X38078469Y-2429500D01*
X38078465Y-2429500D01*
X37621535Y-2429500D01*
X37621530Y-2429500D01*
X37418587Y-2469868D01*
X37418579Y-2469870D01*
X37227403Y-2549058D01*
X37055342Y-2664024D01*
X36909024Y-2810342D01*
X36794058Y-2982403D01*
X36714870Y-3173579D01*
X36714868Y-3173587D01*
X36674500Y-3376530D01*
X26536452Y-3376530D01*
X26479237Y-3343497D01*
X26371018Y-3314500D01*
X26258982Y-3314500D01*
X26150763Y-3343497D01*
X26150760Y-3343498D01*
X26053740Y-3399513D01*
X26053734Y-3399517D01*
X25974517Y-3478734D01*
X25974513Y-3478740D01*
X25918498Y-3575760D01*
X25918497Y-3575763D01*
X25889500Y-3683982D01*
X8238618Y-3683982D01*
X8219552Y-3655447D01*
X8153230Y-3611132D01*
X8153229Y-3611131D01*
X8094752Y-3599500D01*
X8094748Y-3599500D01*
X6355252Y-3599500D01*
X6355247Y-3599500D01*
X6296770Y-3611131D01*
X6296769Y-3611132D01*
X6230447Y-3655447D01*
X6186132Y-3721769D01*
X6186131Y-3721770D01*
X6174500Y-3780247D01*
X5274173Y-3780247D01*
X5186655Y-3721770D01*
X5182598Y-3719059D01*
X5158784Y-3709195D01*
X4991420Y-3639870D01*
X4991412Y-3639868D01*
X4788469Y-3599500D01*
X4788465Y-3599500D01*
X4581535Y-3599500D01*
X4581530Y-3599500D01*
X4378587Y-3639868D01*
X4378579Y-3639870D01*
X4187403Y-3719058D01*
X4015342Y-3834024D01*
X3869024Y-3980342D01*
X3754058Y-4152403D01*
X3674870Y-4343579D01*
X3674868Y-4343587D01*
X3634500Y-4546530D01*
X2634913Y-4546530D01*
X2610925Y-4457007D01*
X2578012Y-4400000D01*
X3219115Y-4400000D01*
X3219115Y-4399999D01*
X3217914Y-4392415D01*
X3164408Y-4227744D01*
X3085804Y-4073475D01*
X2984032Y-3933397D01*
X2861602Y-3810967D01*
X2721524Y-3709195D01*
X2567257Y-3630591D01*
X2402589Y-3577087D01*
X2402581Y-3577085D01*
X2395000Y-3575884D01*
X2395000Y-4216988D01*
X2337993Y-4184075D01*
X2210826Y-4150000D01*
X2079174Y-4150000D01*
X1952007Y-4184075D01*
X1895000Y-4216988D01*
X1895000Y-3575884D01*
X1894999Y-3575884D01*
X1887418Y-3577085D01*
X1887410Y-3577087D01*
X1722742Y-3630591D01*
X1568475Y-3709195D01*
X1428397Y-3810967D01*
X1305967Y-3933397D01*
X1204195Y-4073475D01*
X1125591Y-4227744D01*
X1072085Y-4392415D01*
X1070884Y-4399999D01*
X500500Y-4399999D01*
X500500Y-1859999D01*
X1070884Y-1859999D01*
X1070885Y-1860000D01*
X1711988Y-1860000D01*
X1679075Y-1917007D01*
X1645000Y-2044174D01*
X1645000Y-2175826D01*
X1679075Y-2302993D01*
X1711988Y-2360000D01*
X1070885Y-2360000D01*
X1072085Y-2367584D01*
X1125591Y-2532255D01*
X1204195Y-2686524D01*
X1305967Y-2826602D01*
X1428397Y-2949032D01*
X1568475Y-3050804D01*
X1722744Y-3129408D01*
X1887415Y-3182914D01*
X1887414Y-3182914D01*
X1894999Y-3184115D01*
X1895000Y-3184114D01*
X1895000Y-2543012D01*
X1952007Y-2575925D01*
X2079174Y-2610000D01*
X2210826Y-2610000D01*
X2337993Y-2575925D01*
X2395000Y-2543012D01*
X2395000Y-3184115D01*
X2402584Y-3182914D01*
X2567255Y-3129408D01*
X2721524Y-3050804D01*
X2861602Y-2949032D01*
X2984032Y-2826602D01*
X3085804Y-2686524D01*
X3164408Y-2532255D01*
X3217914Y-2367584D01*
X3219115Y-2360000D01*
X2578012Y-2360000D01*
X2610925Y-2302993D01*
X2645000Y-2175826D01*
X2645000Y-2044174D01*
X2634913Y-2006530D01*
X3634500Y-2006530D01*
X3634500Y-2213469D01*
X3674868Y-2416412D01*
X3674870Y-2416420D01*
X3740939Y-2575925D01*
X3754059Y-2607598D01*
X3791761Y-2664023D01*
X3869024Y-2779657D01*
X4015342Y-2925975D01*
X4015345Y-2925977D01*
X4187402Y-3040941D01*
X4378580Y-3120130D01*
X4523052Y-3148867D01*
X4581530Y-3160499D01*
X4581534Y-3160500D01*
X4581535Y-3160500D01*
X4788466Y-3160500D01*
X4788467Y-3160499D01*
X4991420Y-3120130D01*
X5182598Y-3040941D01*
X5354655Y-2925977D01*
X5500977Y-2779655D01*
X5615941Y-2607598D01*
X5695130Y-2416420D01*
X5735500Y-2213465D01*
X5735500Y-2006535D01*
X5695130Y-1803580D01*
X5615941Y-1612402D01*
X5500977Y-1440345D01*
X5500975Y-1440342D01*
X5354657Y-1294024D01*
X5274173Y-1240247D01*
X6174500Y-1240247D01*
X6174500Y-2979752D01*
X6186131Y-3038229D01*
X6186132Y-3038230D01*
X6230447Y-3104552D01*
X6296769Y-3148867D01*
X6296770Y-3148868D01*
X6355247Y-3160499D01*
X6355250Y-3160500D01*
X6355252Y-3160500D01*
X8094750Y-3160500D01*
X8094751Y-3160499D01*
X8109568Y-3157552D01*
X8153229Y-3148868D01*
X8153229Y-3148867D01*
X8153231Y-3148867D01*
X8219552Y-3104552D01*
X8263867Y-3038231D01*
X8263867Y-3038229D01*
X8263868Y-3038229D01*
X8275499Y-2979752D01*
X8275500Y-2979750D01*
X8275500Y-2553982D01*
X25884500Y-2553982D01*
X25884500Y-2666018D01*
X25913497Y-2774237D01*
X25969515Y-2871263D01*
X26048737Y-2950485D01*
X26145763Y-3006503D01*
X26253982Y-3035500D01*
X26253984Y-3035500D01*
X26366016Y-3035500D01*
X26366018Y-3035500D01*
X26474237Y-3006503D01*
X26571263Y-2950485D01*
X26650485Y-2871263D01*
X26706503Y-2774237D01*
X26717289Y-2733982D01*
X33874500Y-2733982D01*
X33874500Y-2846018D01*
X33903497Y-2954237D01*
X33959515Y-3051263D01*
X34038737Y-3130485D01*
X34135763Y-3186503D01*
X34243982Y-3215500D01*
X34243984Y-3215500D01*
X34356016Y-3215500D01*
X34356018Y-3215500D01*
X34464237Y-3186503D01*
X34561263Y-3130485D01*
X34640485Y-3051263D01*
X34696503Y-2954237D01*
X34725500Y-2846018D01*
X34725500Y-2733982D01*
X34696503Y-2625763D01*
X34640485Y-2528737D01*
X34561263Y-2449515D01*
X34464237Y-2393497D01*
X34356018Y-2364500D01*
X34243982Y-2364500D01*
X34135763Y-2393497D01*
X34135760Y-2393498D01*
X34038740Y-2449513D01*
X34038734Y-2449517D01*
X33959517Y-2528734D01*
X33959513Y-2528740D01*
X33903498Y-2625760D01*
X33903497Y-2625763D01*
X33874500Y-2733982D01*
X26717289Y-2733982D01*
X26735500Y-2666018D01*
X26735500Y-2553982D01*
X26706503Y-2445763D01*
X26650485Y-2348737D01*
X26571263Y-2269515D01*
X26474237Y-2213497D01*
X26366018Y-2184500D01*
X26253982Y-2184500D01*
X26145763Y-2213497D01*
X26145760Y-2213498D01*
X26048740Y-2269513D01*
X26048734Y-2269517D01*
X25969517Y-2348734D01*
X25969513Y-2348740D01*
X25913498Y-2445760D01*
X25913497Y-2445763D01*
X25884500Y-2553982D01*
X8275500Y-2553982D01*
X8275500Y-1240249D01*
X8275499Y-1240247D01*
X8263868Y-1181770D01*
X8263867Y-1181769D01*
X8219552Y-1115447D01*
X8153230Y-1071132D01*
X8153229Y-1071131D01*
X8094752Y-1059500D01*
X8094748Y-1059500D01*
X6355252Y-1059500D01*
X6355247Y-1059500D01*
X6296770Y-1071131D01*
X6296769Y-1071132D01*
X6230447Y-1115447D01*
X6186132Y-1181769D01*
X6186131Y-1181770D01*
X6174500Y-1240247D01*
X5274173Y-1240247D01*
X5207979Y-1196018D01*
X5182598Y-1179059D01*
X5158784Y-1169195D01*
X4991420Y-1099870D01*
X4991412Y-1099868D01*
X4788469Y-1059500D01*
X4788465Y-1059500D01*
X4581535Y-1059500D01*
X4581530Y-1059500D01*
X4378587Y-1099868D01*
X4378579Y-1099870D01*
X4187403Y-1179058D01*
X4015342Y-1294024D01*
X3869024Y-1440342D01*
X3754058Y-1612403D01*
X3674870Y-1803579D01*
X3674868Y-1803587D01*
X3634500Y-2006530D01*
X2634913Y-2006530D01*
X2610925Y-1917007D01*
X2578012Y-1860000D01*
X3219115Y-1860000D01*
X3219115Y-1859999D01*
X3217914Y-1852415D01*
X3164408Y-1687744D01*
X3085804Y-1533475D01*
X2984032Y-1393397D01*
X2861602Y-1270967D01*
X2721524Y-1169195D01*
X2567257Y-1090591D01*
X2402589Y-1037087D01*
X2402581Y-1037085D01*
X2395000Y-1035884D01*
X2395000Y-1676988D01*
X2337993Y-1644075D01*
X2210826Y-1610000D01*
X2079174Y-1610000D01*
X1952007Y-1644075D01*
X1895000Y-1676988D01*
X1895000Y-1035884D01*
X1894999Y-1035884D01*
X1887418Y-1037085D01*
X1887410Y-1037087D01*
X1722742Y-1090591D01*
X1568475Y-1169195D01*
X1428397Y-1270967D01*
X1305967Y-1393397D01*
X1204195Y-1533475D01*
X1125591Y-1687744D01*
X1072085Y-1852415D01*
X1070884Y-1859999D01*
X500500Y-1859999D01*
X500500Y-624500D01*
X520185Y-557461D01*
X572989Y-511706D01*
X624500Y-500500D01*
X18450768Y-500500D01*
X18517807Y-520185D01*
G37*
%TD.AperFunction*%
%TD*%
M02*
