M48
; DRILL file {KiCad 8.0.7-8.0.7-0~ubuntu22.04.1} date 2024-12-11T19:39:52-0600
; FORMAT={-:-/ absolute / metric / decimal}
; #@! TF.CreationDate,2024-12-11T19:39:52-06:00
; #@! TF.GenerationSoftware,Kicad,Pcbnew,8.0.7-8.0.7-0~ubuntu22.04.1
; #@! TF.FileFunction,Plated,1,4,PTH
FMAT,2
METRIC
; #@! TA.AperFunction,Plated,PTH,ViaDrill
T1C0.200
; #@! TA.AperFunction,Plated,PTH,ViaDrill
T2C0.300
; #@! TA.AperFunction,Plated,PTH,ComponentDrill
T3C0.950
; #@! TA.AperFunction,Plated,PTH,ViaDrill
T4C1.000
; #@! TA.AperFunction,Plated,PTH,ComponentDrill
T5C1.000
%
G90
G05
T1
X10.47Y-12.97
X11.11Y-10.15
X11.28Y-15.733
X11.34Y-18.477
X12.2Y-15.68
X12.59Y-12.11
X12.783Y-1.373
X13.02Y-5.71
X13.13Y-6.32
X13.17Y-7.23
X13.4Y-1.37
X13.7Y-10.33
X13.71Y-7.58
X13.861Y-13.454
X13.889Y-14.662
X13.94Y-11.55
X13.96Y-14.05
X14.32Y-12.39
X14.37Y-9.13
X14.64Y-5.81
X15.18Y-12.56
X16.25Y-5.67
X16.45Y-7.32
X16.669Y-17.364
X16.91Y-4.66
X16.95Y-7.09
X17.196Y-17.66
X17.35Y-1.42
X17.46Y-7.23
X18.04Y-1.85
X18.07Y-17.61
X18.41Y-7.05
X18.94Y-7.01
X19.264Y-17.677
X19.511Y-7.05
X19.54Y-17.17
X20.062Y-7.139
X20.45Y-8.24
X20.872Y-17.498
X20.96Y-8.24
X21.45Y-14.55
X21.47Y-17.58
X22.06Y-7.68
X22.07Y-6.96
X22.074Y-17.592
X22.3Y-8.84
X23.28Y-10.55
X23.28Y-12.05
X23.96Y-10.12
X24.09Y-12.16
X25.15Y-6.19
X25.833Y-6.709
X26.16Y-11.91
X26.85Y-4.65
X27.31Y-11.933
X27.38Y-13.39
X28.1Y-4.65
X28.835Y-13.475
X28.9Y-11.955
X30.612Y-13.359
X31.08Y-14.56
X31.463Y-15.353
X31.82Y-15.84
X32.664Y-16.19
X33.64Y-14.43
X33.65Y-4.42
X33.65Y-6.91
X33.65Y-16.93
X33.66Y-1.91
X33.66Y-11.84
X33.67Y-9.38
T2
X10.92Y-8.11
X11.01Y-10.857
X11.045Y-5.285
X11.18Y-17.39
X12.0Y-2.88
X12.2Y-18.02
X12.7Y-15.1
X13.067Y-17.185
X13.261Y-2.588
X14.63Y-4.75
X14.65Y-3.52
X14.65Y-4.15
X14.65Y-6.85
X14.71Y-16.71
X15.91Y-3.44
X16.226Y-4.302
X16.92Y-10.07
X17.63Y-13.11
X17.63Y-14.07
X17.64Y-12.05
X17.9Y-10.07
X18.492Y-5.069
X18.78Y-10.05
X19.2Y-13.23
X19.21Y-12.3
X19.7Y-9.99
X19.98Y-5.29
X20.34Y-2.56
X21.32Y-10.55
X22.497Y-2.611
X22.93Y-5.29
X23.52Y-15.18
X23.6Y-19.84
X24.09Y-2.34
X24.371Y-8.086
X24.703Y-18.4
X25.42Y-15.35
X26.41Y-14.52
X26.58Y-10.85
X26.94Y-8.06
X27.4Y-16.18
X27.42Y-15.26
X27.42Y-17.1
X28.33Y-17.12
X28.34Y-15.24
X28.34Y-16.18
X29.18Y-19.07
X29.22Y-8.08
X29.26Y-15.26
X29.26Y-17.1
X29.28Y-16.19
X29.56Y-10.85
X29.91Y-18.74
X30.26Y-17.82
X30.29Y-12.11
X30.66Y-20.22
X31.511Y-16.407
X31.84Y-9.98
X36.31Y-2.49
X36.31Y-4.98
X36.31Y-7.48
X36.31Y-9.98
X36.31Y-12.48
X36.31Y-14.98
X36.31Y-17.09
T3
X37.85Y-3.48
X37.85Y-5.98
X37.85Y-8.48
X37.85Y-10.98
X37.85Y-13.48
X37.85Y-15.98
X37.85Y-18.48
T4
X29.3Y-3.18
X30.9Y-3.98
T5
X2.145Y-2.11
X2.145Y-4.65
X2.145Y-7.19
X2.145Y-9.73
X2.145Y-12.27
X2.145Y-14.81
X2.145Y-17.35
X2.145Y-19.89
X4.685Y-2.11
X4.685Y-4.65
X4.685Y-7.19
X4.685Y-9.73
X4.685Y-12.27
X4.685Y-14.81
X4.685Y-17.35
X4.685Y-19.89
X7.225Y-2.11
X7.225Y-4.65
X7.225Y-7.19
X7.225Y-9.73
X7.225Y-12.27
X7.225Y-14.81
X7.225Y-17.35
X7.225Y-19.89
X13.415Y-19.88
X15.955Y-19.88
X18.495Y-19.88
M30
