%TF.GenerationSoftware,KiCad,Pcbnew,9.0.7-9.0.7~ubuntu22.04.1*%
%TF.CreationDate,2026-03-09T22:23:56-05:00*%
%TF.ProjectId,elrs-lvs,656c7273-2d6c-4767-932e-6b696361645f,2*%
%TF.SameCoordinates,Original*%
%TF.FileFunction,Copper,L3,Inr*%
%TF.FilePolarity,Positive*%
%FSLAX46Y46*%
G04 Gerber Fmt 4.6, Leading zero omitted, Abs format (unit mm)*
G04 Created by KiCad (PCBNEW 9.0.7-9.0.7~ubuntu22.04.1) date 2026-03-09 22:23:56*
%MOMM*%
%LPD*%
G01*
G04 APERTURE LIST*
G04 Aperture macros list*
%AMRoundRect*
0 Rectangle with rounded corners*
0 $1 Rounding radius*
0 $2 $3 $4 $5 $6 $7 $8 $9 X,Y pos of 4 corners*
0 Add a 4 corners polygon primitive as box body*
4,1,4,$2,$3,$4,$5,$6,$7,$8,$9,$2,$3,0*
0 Add four circle primitives for the rounded corners*
1,1,$1+$1,$2,$3*
1,1,$1+$1,$4,$5*
1,1,$1+$1,$6,$7*
1,1,$1+$1,$8,$9*
0 Add four rect primitives between the rounded corners*
20,1,$1+$1,$2,$3,$4,$5,0*
20,1,$1+$1,$4,$5,$6,$7,0*
20,1,$1+$1,$6,$7,$8,$9,0*
20,1,$1+$1,$8,$9,$2,$3,0*%
G04 Aperture macros list end*
%TA.AperFunction,ComponentPad*%
%ADD10R,1.700000X1.700000*%
%TD*%
%TA.AperFunction,ComponentPad*%
%ADD11O,1.700000X1.700000*%
%TD*%
%TA.AperFunction,ComponentPad*%
%ADD12RoundRect,0.250000X0.725000X-0.600000X0.725000X0.600000X-0.725000X0.600000X-0.725000X-0.600000X0*%
%TD*%
%TA.AperFunction,ComponentPad*%
%ADD13O,1.950000X1.700000*%
%TD*%
%TA.AperFunction,ViaPad*%
%ADD14C,0.450000*%
%TD*%
%TA.AperFunction,Conductor*%
%ADD15C,1.000000*%
%TD*%
%TA.AperFunction,Conductor*%
%ADD16C,0.101600*%
%TD*%
%TA.AperFunction,Conductor*%
%ADD17C,0.250000*%
%TD*%
G04 APERTURE END LIST*
D10*
%TO.N,Net-(J7-Pin_1)*%
%TO.C,J7*%
X7225000Y-17350000D03*
D11*
%TO.N,+5V*%
X4685000Y-17350000D03*
%TO.N,GND*%
X2145000Y-17350000D03*
%TD*%
D10*
%TO.N,Net-(J8-Pin_1)*%
%TO.C,J8*%
X7225000Y-19890000D03*
D11*
%TO.N,+5V*%
X4685000Y-19890000D03*
%TO.N,GND*%
X2145000Y-19890000D03*
%TD*%
D10*
%TO.N,Net-(J2-Pin_1)*%
%TO.C,J2*%
X7225000Y-4650000D03*
D11*
%TO.N,+5V*%
X4685000Y-4650000D03*
%TO.N,GND*%
X2145000Y-4650000D03*
%TD*%
D10*
%TO.N,Net-(J1-Pin_1)*%
%TO.C,J1*%
X7225000Y-2110000D03*
D11*
%TO.N,+5V*%
X4685000Y-2110000D03*
%TO.N,GND*%
X2145000Y-2110000D03*
%TD*%
D10*
%TO.N,Net-(J3-Pin_1)*%
%TO.C,J3*%
X7225000Y-7190000D03*
D11*
%TO.N,+5V*%
X4685000Y-7190000D03*
%TO.N,GND*%
X2145000Y-7190000D03*
%TD*%
D10*
%TO.N,Net-(J4-Pin_1)*%
%TO.C,J4*%
X7225000Y-9730000D03*
D11*
%TO.N,+5V*%
X4685000Y-9730000D03*
%TO.N,GND*%
X2145000Y-9730000D03*
%TD*%
D10*
%TO.N,Net-(J6-Pin_1)*%
%TO.C,J6*%
X7225000Y-14810000D03*
D11*
%TO.N,+5V*%
X4685000Y-14810000D03*
%TO.N,GND*%
X2145000Y-14810000D03*
%TD*%
D12*
%TO.N,Net-(J12-Pin_1)*%
%TO.C,J12*%
X37850000Y-18480000D03*
D13*
%TO.N,Net-(J12-Pin_2)*%
X37850000Y-15980000D03*
%TO.N,Net-(J12-Pin_3)*%
X37850000Y-13480000D03*
%TO.N,Net-(J12-Pin_4)*%
X37850000Y-10980000D03*
%TO.N,Net-(J12-Pin_5)*%
X37850000Y-8480000D03*
%TO.N,Net-(J12-Pin_6)*%
X37850000Y-5980000D03*
%TO.N,Net-(J12-Pin_7)*%
X37850000Y-3480000D03*
%TD*%
D10*
%TO.N,Net-(J5-Pin_1)*%
%TO.C,J5*%
X7225000Y-12270000D03*
D11*
%TO.N,+5V*%
X4685000Y-12270000D03*
%TO.N,GND*%
X2145000Y-12270000D03*
%TD*%
D14*
%TO.N,GND*%
X36320000Y-12700000D03*
X36310000Y-7740000D03*
X16100000Y-6160000D03*
X30430000Y-17630000D03*
X11050000Y-11240000D03*
X27400000Y-17750000D03*
X21580000Y-19840000D03*
X15890000Y-17770000D03*
X36310000Y-10210000D03*
X14480000Y-1410000D03*
X36310000Y-17710000D03*
X33290000Y-2820000D03*
X11180000Y-17590000D03*
X23960000Y-1860000D03*
X19590000Y-11660000D03*
X28510000Y-8000000D03*
X28150000Y-15090000D03*
X36320000Y-5190000D03*
X28650000Y-12250000D03*
X31420000Y-1870000D03*
X33290000Y-10330000D03*
X33190000Y-14000000D03*
X14550000Y-15880000D03*
X16100500Y-2630000D03*
X36310000Y-15200000D03*
X32610000Y-16080000D03*
X33290000Y-5300000D03*
X24360000Y-5080000D03*
X11180000Y-18420000D03*
X25050000Y-3790000D03*
X26680000Y-10280000D03*
X33910000Y-20000000D03*
X29880000Y-1860000D03*
X22440000Y-1870000D03*
X33160000Y-13260000D03*
X33290000Y-7860000D03*
X24620000Y-12850000D03*
X10570000Y-1400000D03*
X14600000Y-2270000D03*
X29660000Y-15060000D03*
X19330000Y-2440000D03*
X12350000Y-1400000D03*
X30260000Y-5890000D03*
%TO.N,/V_DCC*%
X26540000Y-8060000D03*
X31220000Y-13000000D03*
%TO.N,+3.3V*%
X27900000Y-9680000D03*
X24970000Y-19860000D03*
X13250000Y-12360000D03*
X11030000Y-13310000D03*
X34300000Y-10250000D03*
X18650000Y-1140000D03*
X15500000Y-13420000D03*
X18650000Y-1769003D03*
X15450000Y-8840000D03*
X26070000Y-12030000D03*
X33590000Y-17990000D03*
X34300000Y-2790000D03*
X26370000Y-16420000D03*
X23360000Y-5130000D03*
X32280000Y-5880000D03*
X23895597Y-11686899D03*
X34300000Y-15290000D03*
X34290000Y-5310000D03*
X18090000Y-16040000D03*
X16290000Y-15190000D03*
X34660000Y-13020000D03*
X22156546Y-7344462D03*
X34310000Y-7770000D03*
X15450000Y-11910000D03*
%TO.N,/RESET*%
X13830000Y-17640000D03*
X19040000Y-6650000D03*
X20830000Y-16990000D03*
%TO.N,/SERIAL_RX*%
X13520000Y-9850000D03*
X24620000Y-7050000D03*
%TO.N,/LVS6*%
X32770000Y-7000000D03*
X25760000Y-15210000D03*
%TO.N,/LVS2*%
X23500000Y-17640000D03*
X32620000Y-17000000D03*
%TO.N,/SERIAL_TX*%
X27440000Y-7070000D03*
X13740000Y-10730000D03*
%TO.N,/LVS1*%
X32080000Y-18270000D03*
X21500000Y-19000000D03*
%TO.N,/LVS3*%
X31140000Y-15130000D03*
X24360000Y-16840000D03*
%TO.N,/LVS5*%
X32740000Y-9730000D03*
X22940000Y-15100000D03*
%TO.N,/BOOT*%
X13220000Y-18540000D03*
X24100000Y-7660000D03*
%TO.N,/LVS4*%
X33580000Y-12530000D03*
X25130000Y-16280000D03*
%TO.N,/LVS7*%
X21910000Y-16890000D03*
X24020000Y-18281800D03*
X32620000Y-4490000D03*
%TO.N,/VS_5V*%
X22400000Y-16160000D03*
X12030000Y-13450000D03*
%TO.N,/RADIO_MOSI*%
X24100000Y-9810000D03*
X25760000Y-13300000D03*
%TO.N,/RADIO_DIO1*%
X29341600Y-9370459D03*
X23840000Y-10880000D03*
%TO.N,/RADIO_BUSY*%
X30410000Y-10280000D03*
X23040000Y-8470000D03*
%TO.N,/RADIO_RST*%
X17840000Y-7560000D03*
X31660000Y-12230000D03*
%TO.N,/PWM1*%
X14380000Y-9800000D03*
X10910000Y-5020000D03*
%TO.N,+5V*%
X26315000Y-3740000D03*
X26310000Y-2610000D03*
%TO.N,/PWM2*%
X10000000Y-5440000D03*
X15270000Y-9950000D03*
%TO.N,/PWM3*%
X8690000Y-5940000D03*
X24900000Y-15120000D03*
%TO.N,/PWM4*%
X10030000Y-10450000D03*
X24780000Y-14290000D03*
%TO.N,/PWM5*%
X20300000Y-7240000D03*
X10010000Y-11550000D03*
%TO.N,/PWM6*%
X10710000Y-14800000D03*
X20750000Y-6450000D03*
%TO.N,/PWM7*%
X18890000Y-7530000D03*
X10020000Y-16660000D03*
%TO.N,/PWM8*%
X21560000Y-6640000D03*
X10010000Y-19170000D03*
%TD*%
D15*
%TO.N,GND*%
X2145000Y-19890000D02*
X2145000Y-2110000D01*
%TO.N,+5V*%
X4685000Y-2110000D02*
X4685000Y-19890000D01*
D16*
%TO.N,/VS_5V*%
X12030000Y-13450000D02*
X13480000Y-13450000D01*
X13480000Y-13450000D02*
X16610000Y-16580000D01*
X16610000Y-16580000D02*
X19220000Y-16580000D01*
X19220000Y-16580000D02*
X19900000Y-15900000D01*
X19900000Y-15900000D02*
X22140000Y-15900000D01*
X22140000Y-15900000D02*
X22400000Y-16160000D01*
D17*
%TO.N,/V_DCC*%
X28630000Y-10390000D02*
X28630000Y-9552986D01*
X27137014Y-8060000D02*
X26540000Y-8060000D01*
X28630000Y-9552986D02*
X27137014Y-8060000D01*
X31220000Y-12980000D02*
X28630000Y-10390000D01*
X31220000Y-13000000D02*
X31220000Y-12980000D01*
%TO.N,+3.3V*%
X23511221Y-11686899D02*
X23895597Y-11686899D01*
X21320000Y-8070000D02*
X21431666Y-8070000D01*
X11980000Y-12360000D02*
X13250000Y-12360000D01*
X18650000Y-3031666D02*
X18650000Y-1140000D01*
X34300000Y-5300000D02*
X34290000Y-5310000D01*
X27302986Y-9680000D02*
X27900000Y-9680000D01*
X15450000Y-8840000D02*
X20550000Y-8840000D01*
X26370000Y-18460000D02*
X24970000Y-19860000D01*
X26070000Y-12030000D02*
X25450000Y-11410000D01*
X30110000Y-6650000D02*
X27877014Y-6650000D01*
X34660000Y-12428334D02*
X34660000Y-13020000D01*
X34300000Y-2790000D02*
X34300000Y-5300000D01*
X15830000Y-10351666D02*
X16010000Y-10171666D01*
X33008334Y-5980000D02*
X33620000Y-5980000D01*
X15450000Y-13370000D02*
X15450000Y-11910000D01*
X33620000Y-5980000D02*
X34290000Y-5310000D01*
X30600000Y-7140000D02*
X30110000Y-6650000D01*
X33590000Y-17990000D02*
X33590000Y-16000000D01*
X24431666Y-11410000D02*
X24154767Y-11686899D01*
X33590000Y-16000000D02*
X34300000Y-15290000D01*
X34300000Y-12068334D02*
X34660000Y-12428334D01*
X15450000Y-8840000D02*
X21110000Y-8840000D01*
X34310000Y-10240000D02*
X34300000Y-10250000D01*
X34290000Y-7750000D02*
X34310000Y-7770000D01*
X11030000Y-13310000D02*
X11980000Y-12360000D01*
X26370000Y-16420000D02*
X26370000Y-18460000D01*
X34300000Y-15290000D02*
X34300000Y-13380000D01*
X34300000Y-13380000D02*
X34660000Y-13020000D01*
X18090000Y-11480000D02*
X16010000Y-9400000D01*
X23016490Y-10746490D02*
X23016490Y-11192168D01*
X31020000Y-7140000D02*
X30600000Y-7140000D01*
X15500000Y-13420000D02*
X14310000Y-13420000D01*
X27691014Y-6464000D02*
X27188986Y-6464000D01*
X26370000Y-12330000D02*
X26370000Y-16420000D01*
X16010000Y-10171666D02*
X16010000Y-9248334D01*
X32280000Y-5880000D02*
X32908334Y-5880000D01*
X17140000Y-16040000D02*
X16290000Y-15190000D01*
X18650000Y-5640000D02*
X18650000Y-4031666D01*
X15500000Y-13420000D02*
X15450000Y-13370000D01*
X25934000Y-8311014D02*
X27302986Y-9680000D01*
X25450000Y-11410000D02*
X24431666Y-11410000D01*
X20550000Y-8840000D02*
X21320000Y-8070000D01*
X22410000Y-7091008D02*
X22410000Y-5410000D01*
X21110000Y-8840000D02*
X23016490Y-10746490D01*
X16010000Y-9248334D02*
X15601666Y-8840000D01*
X19150000Y-3531666D02*
X18650000Y-3031666D01*
X32280000Y-5880000D02*
X31020000Y-7140000D01*
X18650000Y-4031666D02*
X19150000Y-3531666D01*
X16010000Y-9400000D02*
X16010000Y-9248334D01*
X22690000Y-5130000D02*
X23360000Y-5130000D01*
X21431666Y-8070000D02*
X22156546Y-7345120D01*
X34310000Y-7770000D02*
X34310000Y-10240000D01*
X18090000Y-16040000D02*
X17140000Y-16040000D01*
X22156546Y-7344462D02*
X22410000Y-7091008D01*
X22156546Y-7345120D02*
X22156546Y-7344462D01*
X27188986Y-6464000D02*
X25934000Y-7718986D01*
X14310000Y-13420000D02*
X13250000Y-12360000D01*
X15450000Y-11910000D02*
X15830000Y-11530000D01*
X27900000Y-9680000D02*
X27900000Y-10200000D01*
X27900000Y-10200000D02*
X26070000Y-12030000D01*
X34300000Y-10250000D02*
X34300000Y-12068334D01*
X18090000Y-16040000D02*
X18090000Y-11480000D01*
X27877014Y-6650000D02*
X27691014Y-6464000D01*
X24154767Y-11686899D02*
X23895597Y-11686899D01*
X25934000Y-7718986D02*
X25934000Y-8311014D01*
X26070000Y-12030000D02*
X26370000Y-12330000D01*
X32908334Y-5880000D02*
X33008334Y-5980000D01*
X34290000Y-5310000D02*
X34290000Y-7750000D01*
X15601666Y-8840000D02*
X15450000Y-8840000D01*
X15450000Y-8840000D02*
X18650000Y-5640000D01*
X15830000Y-11530000D02*
X15830000Y-10351666D01*
X23016490Y-11192168D02*
X23511221Y-11686899D01*
X22410000Y-5410000D02*
X22690000Y-5130000D01*
D16*
%TO.N,/LVS7*%
X21910000Y-16890000D02*
X23301800Y-18281800D01*
X23301800Y-18281800D02*
X24020000Y-18281800D01*
%TD*%
%TA.AperFunction,Conductor*%
%TO.N,+3.3V*%
G36*
X45442539Y-520185D02*
G01*
X45488294Y-572989D01*
X45499500Y-624500D01*
X45499500Y-21375500D01*
X45479815Y-21442539D01*
X45427011Y-21488294D01*
X45375500Y-21499500D01*
X624500Y-21499500D01*
X557461Y-21479815D01*
X511706Y-21427011D01*
X500500Y-21375500D01*
X500500Y-2007515D01*
X1104500Y-2007515D01*
X1104500Y-2212484D01*
X1138875Y-2385300D01*
X1144485Y-2413503D01*
X1151475Y-2430378D01*
X1222918Y-2602859D01*
X1336789Y-2773278D01*
X1336790Y-2773279D01*
X1336791Y-2773280D01*
X1418182Y-2854671D01*
X1451666Y-2915992D01*
X1454500Y-2942351D01*
X1454500Y-3817648D01*
X1434815Y-3884687D01*
X1418181Y-3905329D01*
X1336793Y-3986716D01*
X1336790Y-3986720D01*
X1222918Y-4157140D01*
X1144486Y-4346494D01*
X1144483Y-4346504D01*
X1104500Y-4547515D01*
X1104500Y-4752484D01*
X1144483Y-4953495D01*
X1144485Y-4953503D01*
X1150290Y-4967518D01*
X1222918Y-5142859D01*
X1336789Y-5313278D01*
X1336790Y-5313279D01*
X1336791Y-5313280D01*
X1418182Y-5394671D01*
X1451666Y-5455992D01*
X1454500Y-5482351D01*
X1454500Y-6357648D01*
X1434815Y-6424687D01*
X1418181Y-6445329D01*
X1336793Y-6526716D01*
X1336790Y-6526720D01*
X1222918Y-6697140D01*
X1144486Y-6886494D01*
X1144483Y-6886504D01*
X1104500Y-7087515D01*
X1104500Y-7292484D01*
X1142769Y-7484877D01*
X1144485Y-7493503D01*
X1151107Y-7509489D01*
X1222918Y-7682859D01*
X1336789Y-7853278D01*
X1336790Y-7853279D01*
X1336791Y-7853280D01*
X1418182Y-7934671D01*
X1451666Y-7995992D01*
X1454500Y-8022351D01*
X1454500Y-8897648D01*
X1434815Y-8964687D01*
X1418181Y-8985329D01*
X1336793Y-9066716D01*
X1336790Y-9066720D01*
X1222918Y-9237140D01*
X1144486Y-9426494D01*
X1144483Y-9426504D01*
X1104500Y-9627515D01*
X1104500Y-9832484D01*
X1144406Y-10033108D01*
X1144485Y-10033503D01*
X1157582Y-10065122D01*
X1222918Y-10222859D01*
X1336789Y-10393278D01*
X1336790Y-10393279D01*
X1336791Y-10393280D01*
X1418182Y-10474671D01*
X1451666Y-10535992D01*
X1454500Y-10562351D01*
X1454500Y-11437648D01*
X1434815Y-11504687D01*
X1418181Y-11525329D01*
X1336793Y-11606716D01*
X1336790Y-11606720D01*
X1222918Y-11777140D01*
X1144486Y-11966494D01*
X1144483Y-11966504D01*
X1104500Y-12167515D01*
X1104500Y-12372484D01*
X1144483Y-12573495D01*
X1144486Y-12573505D01*
X1222918Y-12762859D01*
X1336789Y-12933278D01*
X1336790Y-12933279D01*
X1336791Y-12933280D01*
X1418182Y-13014671D01*
X1451666Y-13075992D01*
X1454500Y-13102351D01*
X1454500Y-13977648D01*
X1434815Y-14044687D01*
X1418181Y-14065329D01*
X1336793Y-14146716D01*
X1336790Y-14146720D01*
X1222918Y-14317140D01*
X1144486Y-14506494D01*
X1144483Y-14506504D01*
X1104500Y-14707515D01*
X1104500Y-14912484D01*
X1136886Y-15075300D01*
X1144485Y-15113503D01*
X1144982Y-15114702D01*
X1222918Y-15302859D01*
X1336789Y-15473278D01*
X1336790Y-15473279D01*
X1336791Y-15473280D01*
X1418182Y-15554671D01*
X1451666Y-15615992D01*
X1454500Y-15642351D01*
X1454500Y-16517648D01*
X1434815Y-16584687D01*
X1418181Y-16605329D01*
X1336793Y-16686716D01*
X1336790Y-16686720D01*
X1222918Y-16857140D01*
X1144486Y-17046494D01*
X1144483Y-17046504D01*
X1104500Y-17247515D01*
X1104500Y-17452484D01*
X1142734Y-17644702D01*
X1144485Y-17653503D01*
X1152082Y-17671843D01*
X1222918Y-17842859D01*
X1336789Y-18013278D01*
X1336790Y-18013279D01*
X1336791Y-18013280D01*
X1418182Y-18094671D01*
X1451666Y-18155992D01*
X1454500Y-18182351D01*
X1454500Y-19057648D01*
X1434815Y-19124687D01*
X1418181Y-19145329D01*
X1336793Y-19226716D01*
X1336790Y-19226720D01*
X1222918Y-19397140D01*
X1144486Y-19586494D01*
X1144483Y-19586504D01*
X1104500Y-19787515D01*
X1104500Y-19992484D01*
X1144483Y-20193495D01*
X1144486Y-20193505D01*
X1222918Y-20382859D01*
X1336790Y-20553279D01*
X1336793Y-20553283D01*
X1481716Y-20698206D01*
X1481720Y-20698209D01*
X1652138Y-20812080D01*
X1652139Y-20812080D01*
X1652140Y-20812081D01*
X1687113Y-20826567D01*
X1841497Y-20890515D01*
X2042515Y-20930499D01*
X2042519Y-20930500D01*
X2042520Y-20930500D01*
X2247481Y-20930500D01*
X2247482Y-20930499D01*
X2448503Y-20890515D01*
X2637862Y-20812080D01*
X2808280Y-20698209D01*
X2953209Y-20553280D01*
X3067080Y-20382862D01*
X3145515Y-20193503D01*
X3185500Y-19992480D01*
X3185500Y-19787520D01*
X3145515Y-19586497D01*
X3067080Y-19397138D01*
X2953209Y-19226720D01*
X2953206Y-19226716D01*
X2871819Y-19145329D01*
X2838334Y-19084006D01*
X2835500Y-19057648D01*
X2835500Y-18182351D01*
X2855185Y-18115312D01*
X2871814Y-18094674D01*
X2953209Y-18013280D01*
X3067080Y-17842862D01*
X3145515Y-17653503D01*
X3185500Y-17452480D01*
X3185500Y-17247520D01*
X3145515Y-17046497D01*
X3067080Y-16857138D01*
X2953209Y-16686720D01*
X2953206Y-16686716D01*
X2871819Y-16605329D01*
X2838334Y-16544006D01*
X2835500Y-16517648D01*
X2835500Y-15642351D01*
X2855185Y-15575312D01*
X2871814Y-15554674D01*
X2953209Y-15473280D01*
X3067080Y-15302862D01*
X3145515Y-15113503D01*
X3185500Y-14912480D01*
X3185500Y-14707520D01*
X3145515Y-14506497D01*
X3073435Y-14332481D01*
X3067081Y-14317140D01*
X3012395Y-14235298D01*
X2953209Y-14146720D01*
X2953206Y-14146716D01*
X2871819Y-14065329D01*
X2838334Y-14004006D01*
X2835500Y-13977648D01*
X2835500Y-13102351D01*
X2855185Y-13035312D01*
X2871814Y-13014674D01*
X2953209Y-12933280D01*
X3067080Y-12762862D01*
X3145515Y-12573503D01*
X3185500Y-12372480D01*
X3185500Y-12167520D01*
X3145515Y-11966497D01*
X3067080Y-11777138D01*
X2953209Y-11606720D01*
X2953206Y-11606716D01*
X2871819Y-11525329D01*
X2838334Y-11464006D01*
X2835500Y-11437648D01*
X2835500Y-10562351D01*
X2855185Y-10495312D01*
X2871814Y-10474674D01*
X2953209Y-10393280D01*
X3067080Y-10222862D01*
X3145515Y-10033503D01*
X3185500Y-9832480D01*
X3185500Y-9627520D01*
X3145515Y-9426497D01*
X3067080Y-9237138D01*
X2953209Y-9066720D01*
X2953206Y-9066716D01*
X2871819Y-8985329D01*
X2838334Y-8924006D01*
X2835500Y-8897648D01*
X2835500Y-8022351D01*
X2855185Y-7955312D01*
X2871814Y-7934674D01*
X2953209Y-7853280D01*
X3067080Y-7682862D01*
X3145515Y-7493503D01*
X3185500Y-7292480D01*
X3185500Y-7087520D01*
X3145515Y-6886497D01*
X3081567Y-6732113D01*
X3067081Y-6697140D01*
X3047289Y-6667520D01*
X2953209Y-6526720D01*
X2953206Y-6526716D01*
X2871819Y-6445329D01*
X2838334Y-6384006D01*
X2835500Y-6357648D01*
X2835500Y-5482351D01*
X2855185Y-5415312D01*
X2871814Y-5394674D01*
X2953209Y-5313280D01*
X3067080Y-5142862D01*
X3145515Y-4953503D01*
X3185500Y-4752480D01*
X3185500Y-4547520D01*
X3145515Y-4346497D01*
X3075383Y-4177184D01*
X3067081Y-4157140D01*
X3065985Y-4155500D01*
X2953209Y-3986720D01*
X2953206Y-3986716D01*
X2871819Y-3905329D01*
X2838334Y-3844006D01*
X2835500Y-3817648D01*
X2835500Y-2942351D01*
X2855185Y-2875312D01*
X2871814Y-2854674D01*
X2953209Y-2773280D01*
X3067080Y-2602862D01*
X3145515Y-2413503D01*
X3185500Y-2212480D01*
X3185500Y-2007520D01*
X3185499Y-2007515D01*
X3644500Y-2007515D01*
X3644500Y-2212484D01*
X3678875Y-2385300D01*
X3684485Y-2413503D01*
X3691475Y-2430378D01*
X3762918Y-2602859D01*
X3876789Y-2773278D01*
X3876790Y-2773279D01*
X3876791Y-2773280D01*
X3958182Y-2854671D01*
X3991666Y-2915992D01*
X3994500Y-2942351D01*
X3994500Y-3817648D01*
X3974815Y-3884687D01*
X3958181Y-3905329D01*
X3876793Y-3986716D01*
X3876790Y-3986720D01*
X3762918Y-4157140D01*
X3684486Y-4346494D01*
X3684483Y-4346504D01*
X3644500Y-4547515D01*
X3644500Y-4752484D01*
X3684483Y-4953495D01*
X3684485Y-4953503D01*
X3690290Y-4967518D01*
X3762918Y-5142859D01*
X3876789Y-5313278D01*
X3876790Y-5313279D01*
X3876791Y-5313280D01*
X3958182Y-5394671D01*
X3991666Y-5455992D01*
X3994500Y-5482351D01*
X3994500Y-6357648D01*
X3974815Y-6424687D01*
X3958181Y-6445329D01*
X3876793Y-6526716D01*
X3876790Y-6526720D01*
X3762918Y-6697140D01*
X3684486Y-6886494D01*
X3684483Y-6886504D01*
X3644500Y-7087515D01*
X3644500Y-7292484D01*
X3682769Y-7484877D01*
X3684485Y-7493503D01*
X3691107Y-7509489D01*
X3762918Y-7682859D01*
X3876789Y-7853278D01*
X3876790Y-7853279D01*
X3876791Y-7853280D01*
X3958182Y-7934671D01*
X3991666Y-7995992D01*
X3994500Y-8022351D01*
X3994500Y-8897648D01*
X3974815Y-8964687D01*
X3958181Y-8985329D01*
X3876793Y-9066716D01*
X3876790Y-9066720D01*
X3762918Y-9237140D01*
X3684486Y-9426494D01*
X3684483Y-9426504D01*
X3644500Y-9627515D01*
X3644500Y-9832484D01*
X3684406Y-10033108D01*
X3684485Y-10033503D01*
X3697582Y-10065122D01*
X3762918Y-10222859D01*
X3876789Y-10393278D01*
X3876790Y-10393279D01*
X3876791Y-10393280D01*
X3958182Y-10474671D01*
X3991666Y-10535992D01*
X3994500Y-10562351D01*
X3994500Y-11437648D01*
X3974815Y-11504687D01*
X3958181Y-11525329D01*
X3876793Y-11606716D01*
X3876790Y-11606720D01*
X3762918Y-11777140D01*
X3684486Y-11966494D01*
X3684483Y-11966504D01*
X3644500Y-12167515D01*
X3644500Y-12372484D01*
X3684483Y-12573495D01*
X3684486Y-12573505D01*
X3762918Y-12762859D01*
X3876789Y-12933278D01*
X3876790Y-12933279D01*
X3876791Y-12933280D01*
X3958182Y-13014671D01*
X3991666Y-13075992D01*
X3994500Y-13102351D01*
X3994500Y-13977648D01*
X3974815Y-14044687D01*
X3958181Y-14065329D01*
X3876793Y-14146716D01*
X3876790Y-14146720D01*
X3762918Y-14317140D01*
X3684486Y-14506494D01*
X3684483Y-14506504D01*
X3644500Y-14707515D01*
X3644500Y-14912484D01*
X3676886Y-15075300D01*
X3684485Y-15113503D01*
X3684982Y-15114702D01*
X3762918Y-15302859D01*
X3876789Y-15473278D01*
X3876790Y-15473279D01*
X3876791Y-15473280D01*
X3958182Y-15554671D01*
X3991666Y-15615992D01*
X3994500Y-15642351D01*
X3994500Y-16517648D01*
X3974815Y-16584687D01*
X3958181Y-16605329D01*
X3876793Y-16686716D01*
X3876790Y-16686720D01*
X3762918Y-16857140D01*
X3684486Y-17046494D01*
X3684483Y-17046504D01*
X3644500Y-17247515D01*
X3644500Y-17452484D01*
X3682734Y-17644702D01*
X3684485Y-17653503D01*
X3692082Y-17671843D01*
X3762918Y-17842859D01*
X3876789Y-18013278D01*
X3876790Y-18013279D01*
X3876791Y-18013280D01*
X3958182Y-18094671D01*
X3991666Y-18155992D01*
X3994500Y-18182351D01*
X3994500Y-19057648D01*
X3974815Y-19124687D01*
X3958181Y-19145329D01*
X3876793Y-19226716D01*
X3876790Y-19226720D01*
X3762918Y-19397140D01*
X3684486Y-19586494D01*
X3684483Y-19586504D01*
X3644500Y-19787515D01*
X3644500Y-19992484D01*
X3684483Y-20193495D01*
X3684486Y-20193505D01*
X3762918Y-20382859D01*
X3876790Y-20553279D01*
X3876793Y-20553283D01*
X4021716Y-20698206D01*
X4021720Y-20698209D01*
X4192138Y-20812080D01*
X4192139Y-20812080D01*
X4192140Y-20812081D01*
X4227113Y-20826567D01*
X4381497Y-20890515D01*
X4582515Y-20930499D01*
X4582519Y-20930500D01*
X4582520Y-20930500D01*
X4787481Y-20930500D01*
X4787482Y-20930499D01*
X4988503Y-20890515D01*
X5177862Y-20812080D01*
X5348280Y-20698209D01*
X5493209Y-20553280D01*
X5607080Y-20382862D01*
X5685515Y-20193503D01*
X5725500Y-19992480D01*
X5725500Y-19787520D01*
X5685515Y-19586497D01*
X5607080Y-19397138D01*
X5493209Y-19226720D01*
X5493206Y-19226716D01*
X5411819Y-19145329D01*
X5397115Y-19118401D01*
X5380523Y-19092583D01*
X5379631Y-19086382D01*
X5378334Y-19084006D01*
X5375500Y-19057648D01*
X5375500Y-19021233D01*
X6184500Y-19021233D01*
X6184500Y-20758766D01*
X6195552Y-20814328D01*
X6195552Y-20814329D01*
X6237656Y-20877342D01*
X6237657Y-20877343D01*
X6300670Y-20919447D01*
X6356233Y-20930499D01*
X6356236Y-20930500D01*
X6356238Y-20930500D01*
X8093764Y-20930500D01*
X8093765Y-20930499D01*
X8149329Y-20919447D01*
X8212343Y-20877343D01*
X8254447Y-20814329D01*
X8265500Y-20758762D01*
X8265500Y-20219962D01*
X16390000Y-20219962D01*
X18290000Y-20219962D01*
X18290000Y-19054699D01*
X21084499Y-19054699D01*
X21084500Y-19054702D01*
X21112816Y-19160377D01*
X21167518Y-19255123D01*
X21244877Y-19332482D01*
X21258065Y-19340096D01*
X21266615Y-19345033D01*
X21314830Y-19395601D01*
X21328051Y-19464208D01*
X21302082Y-19529073D01*
X21292295Y-19540099D01*
X21247521Y-19584873D01*
X21247518Y-19584877D01*
X21192816Y-19679623D01*
X21164500Y-19785298D01*
X21164500Y-19785300D01*
X21164500Y-19894699D01*
X21164499Y-19894699D01*
X21164500Y-19894702D01*
X21192816Y-20000377D01*
X21247518Y-20095123D01*
X21324877Y-20172482D01*
X21419623Y-20227184D01*
X21525298Y-20255500D01*
X21525301Y-20255500D01*
X21634699Y-20255500D01*
X21634702Y-20255500D01*
X21740377Y-20227184D01*
X21835123Y-20172482D01*
X21912482Y-20095123D01*
X21967184Y-20000377D01*
X21995500Y-19894702D01*
X21995500Y-19785298D01*
X21967184Y-19679623D01*
X21912482Y-19584877D01*
X21835123Y-19507518D01*
X21835120Y-19507516D01*
X21835116Y-19507513D01*
X21813383Y-19494965D01*
X21765169Y-19444397D01*
X21751948Y-19375789D01*
X21777918Y-19310925D01*
X21787698Y-19299906D01*
X21832482Y-19255123D01*
X21887184Y-19160377D01*
X21887285Y-19160000D01*
X27950000Y-19160000D01*
X27950000Y-20205000D01*
X29850000Y-20205000D01*
X29850000Y-20054699D01*
X33494499Y-20054699D01*
X33494500Y-20054702D01*
X33522816Y-20160377D01*
X33577518Y-20255123D01*
X33654877Y-20332482D01*
X33749623Y-20387184D01*
X33855298Y-20415500D01*
X33855301Y-20415500D01*
X33964699Y-20415500D01*
X33964702Y-20415500D01*
X34070377Y-20387184D01*
X34165123Y-20332482D01*
X34242482Y-20255123D01*
X34297184Y-20160377D01*
X34325500Y-20054702D01*
X34325500Y-19945298D01*
X34297184Y-19839623D01*
X34242482Y-19744877D01*
X34165123Y-19667518D01*
X34070377Y-19612816D01*
X33964702Y-19584500D01*
X33855298Y-19584500D01*
X33749623Y-19612816D01*
X33749621Y-19612816D01*
X33749621Y-19612817D01*
X33654877Y-19667518D01*
X33654874Y-19667520D01*
X33577520Y-19744874D01*
X33577518Y-19744877D01*
X33522816Y-19839623D01*
X33494500Y-19945298D01*
X33494500Y-19945300D01*
X33494500Y-20054699D01*
X33494499Y-20054699D01*
X29850000Y-20054699D01*
X29850000Y-18324699D01*
X31664499Y-18324699D01*
X31664500Y-18324702D01*
X31692816Y-18430377D01*
X31747518Y-18525123D01*
X31824877Y-18602482D01*
X31919623Y-18657184D01*
X32025298Y-18685500D01*
X32025301Y-18685500D01*
X32134699Y-18685500D01*
X32134702Y-18685500D01*
X32240377Y-18657184D01*
X32335123Y-18602482D01*
X32412482Y-18525123D01*
X32467184Y-18430377D01*
X32495500Y-18324702D01*
X32495500Y-18215298D01*
X32467184Y-18109623D01*
X32412482Y-18014877D01*
X32335123Y-17937518D01*
X32240377Y-17882816D01*
X32134702Y-17854500D01*
X32025298Y-17854500D01*
X31919623Y-17882816D01*
X31919621Y-17882816D01*
X31919621Y-17882817D01*
X31824877Y-17937518D01*
X31824874Y-17937520D01*
X31747520Y-18014874D01*
X31747518Y-18014877D01*
X31696941Y-18102479D01*
X31692816Y-18109623D01*
X31664500Y-18215298D01*
X31664500Y-18215300D01*
X31664500Y-18324699D01*
X31664499Y-18324699D01*
X29850000Y-18324699D01*
X29850000Y-18115000D01*
X27950000Y-18115000D01*
X27950000Y-19160000D01*
X21887285Y-19160000D01*
X21915500Y-19054702D01*
X21915500Y-18945298D01*
X21887184Y-18839623D01*
X21832482Y-18744877D01*
X21755123Y-18667518D01*
X21660377Y-18612816D01*
X21554702Y-18584500D01*
X21445298Y-18584500D01*
X21339623Y-18612816D01*
X21339621Y-18612816D01*
X21339621Y-18612817D01*
X21244877Y-18667518D01*
X21244874Y-18667520D01*
X21167520Y-18744874D01*
X21167518Y-18744877D01*
X21112816Y-18839623D01*
X21084500Y-18945298D01*
X21084500Y-18945300D01*
X21084500Y-19054699D01*
X21084499Y-19054699D01*
X18290000Y-19054699D01*
X18290000Y-18129962D01*
X16390000Y-18129962D01*
X16390000Y-20219962D01*
X8265500Y-20219962D01*
X8265500Y-19224699D01*
X9594499Y-19224699D01*
X9595041Y-19226720D01*
X9622816Y-19330377D01*
X9677518Y-19425123D01*
X9754877Y-19502482D01*
X9849623Y-19557184D01*
X9955298Y-19585500D01*
X9955301Y-19585500D01*
X10064699Y-19585500D01*
X10064702Y-19585500D01*
X10170377Y-19557184D01*
X10265123Y-19502482D01*
X10342482Y-19425123D01*
X10397184Y-19330377D01*
X10425500Y-19224702D01*
X10425500Y-19115298D01*
X10397184Y-19009623D01*
X10342482Y-18914877D01*
X10265123Y-18837518D01*
X10170377Y-18782816D01*
X10064702Y-18754500D01*
X9955298Y-18754500D01*
X9849623Y-18782816D01*
X9849621Y-18782816D01*
X9849621Y-18782817D01*
X9754877Y-18837518D01*
X9754874Y-18837520D01*
X9677520Y-18914874D01*
X9677518Y-18914877D01*
X9670413Y-18927184D01*
X9622816Y-19009623D01*
X9594500Y-19115298D01*
X9594500Y-19115300D01*
X9594500Y-19224699D01*
X9594499Y-19224699D01*
X8265500Y-19224699D01*
X8265500Y-19021238D01*
X8265500Y-19021235D01*
X8265499Y-19021233D01*
X8254447Y-18965671D01*
X8254447Y-18965670D01*
X8212343Y-18902657D01*
X8212342Y-18902656D01*
X8149329Y-18860552D01*
X8093765Y-18849500D01*
X8093762Y-18849500D01*
X6356238Y-18849500D01*
X6356235Y-18849500D01*
X6300671Y-18860552D01*
X6300670Y-18860552D01*
X6237657Y-18902656D01*
X6237656Y-18902657D01*
X6195552Y-18965670D01*
X6195552Y-18965671D01*
X6184500Y-19021233D01*
X5375500Y-19021233D01*
X5375500Y-18182351D01*
X5395185Y-18115312D01*
X5411814Y-18094674D01*
X5493209Y-18013280D01*
X5607080Y-17842862D01*
X5685515Y-17653503D01*
X5725500Y-17452480D01*
X5725500Y-17247520D01*
X5685515Y-17046497D01*
X5607080Y-16857138D01*
X5493209Y-16686720D01*
X5493206Y-16686716D01*
X5411819Y-16605329D01*
X5397115Y-16578401D01*
X5380523Y-16552583D01*
X5379631Y-16546382D01*
X5378334Y-16544006D01*
X5375500Y-16517648D01*
X5375500Y-16481233D01*
X6184500Y-16481233D01*
X6184500Y-18218766D01*
X6195552Y-18274328D01*
X6195552Y-18274329D01*
X6237656Y-18337342D01*
X6237657Y-18337343D01*
X6300670Y-18379447D01*
X6356233Y-18390499D01*
X6356236Y-18390500D01*
X6356238Y-18390500D01*
X8093764Y-18390500D01*
X8093765Y-18390499D01*
X8149329Y-18379447D01*
X8212343Y-18337343D01*
X8254447Y-18274329D01*
X8265500Y-18218762D01*
X8265500Y-17644699D01*
X10764499Y-17644699D01*
X10764500Y-17644702D01*
X10792816Y-17750377D01*
X10847518Y-17845123D01*
X10847520Y-17845125D01*
X10919714Y-17917319D01*
X10953199Y-17978642D01*
X10948215Y-18048334D01*
X10919714Y-18092681D01*
X10847520Y-18164874D01*
X10847518Y-18164877D01*
X10792816Y-18259623D01*
X10764500Y-18365298D01*
X10764500Y-18365300D01*
X10764500Y-18474699D01*
X10764499Y-18474699D01*
X10764500Y-18474702D01*
X10792816Y-18580377D01*
X10847518Y-18675123D01*
X10924877Y-18752482D01*
X11019623Y-18807184D01*
X11125298Y-18835500D01*
X11125301Y-18835500D01*
X11234699Y-18835500D01*
X11234702Y-18835500D01*
X11340377Y-18807184D01*
X11435123Y-18752482D01*
X11512482Y-18675123D01*
X11558915Y-18594699D01*
X12804499Y-18594699D01*
X12804500Y-18594702D01*
X12832816Y-18700377D01*
X12887518Y-18795123D01*
X12964877Y-18872482D01*
X13059623Y-18927184D01*
X13165298Y-18955500D01*
X13165301Y-18955500D01*
X13274699Y-18955500D01*
X13274702Y-18955500D01*
X13380377Y-18927184D01*
X13475123Y-18872482D01*
X13552482Y-18795123D01*
X13607184Y-18700377D01*
X13635500Y-18594702D01*
X13635500Y-18485298D01*
X13607184Y-18379623D01*
X13552482Y-18284877D01*
X13475123Y-18207518D01*
X13380377Y-18152816D01*
X13274702Y-18124500D01*
X13165298Y-18124500D01*
X13059623Y-18152816D01*
X13059621Y-18152816D01*
X13059621Y-18152817D01*
X12964877Y-18207518D01*
X12964874Y-18207520D01*
X12887520Y-18284874D01*
X12887518Y-18284877D01*
X12832918Y-18379447D01*
X12832816Y-18379623D01*
X12804500Y-18485298D01*
X12804500Y-18485300D01*
X12804500Y-18594699D01*
X12804499Y-18594699D01*
X11558915Y-18594699D01*
X11567184Y-18580377D01*
X11595500Y-18474702D01*
X11595500Y-18365298D01*
X11567184Y-18259623D01*
X11512482Y-18164877D01*
X11440286Y-18092681D01*
X11406801Y-18031358D01*
X11411785Y-17961666D01*
X11440286Y-17917319D01*
X11474789Y-17882816D01*
X11512482Y-17845123D01*
X11567184Y-17750377D01*
X11582103Y-17694699D01*
X13414499Y-17694699D01*
X13414500Y-17694702D01*
X13442816Y-17800377D01*
X13497518Y-17895123D01*
X13574877Y-17972482D01*
X13669623Y-18027184D01*
X13775298Y-18055500D01*
X13775301Y-18055500D01*
X13884699Y-18055500D01*
X13884702Y-18055500D01*
X13990377Y-18027184D01*
X14085123Y-17972482D01*
X14162482Y-17895123D01*
X14203142Y-17824699D01*
X15474499Y-17824699D01*
X15474500Y-17824702D01*
X15502816Y-17930377D01*
X15557518Y-18025123D01*
X15634877Y-18102482D01*
X15729623Y-18157184D01*
X15835298Y-18185500D01*
X15835301Y-18185500D01*
X15944699Y-18185500D01*
X15944702Y-18185500D01*
X16050377Y-18157184D01*
X16145123Y-18102482D01*
X16222482Y-18025123D01*
X16277184Y-17930377D01*
X16305500Y-17824702D01*
X16305500Y-17715298D01*
X16277184Y-17609623D01*
X16222482Y-17514877D01*
X16145123Y-17437518D01*
X16050377Y-17382816D01*
X15944702Y-17354500D01*
X15835298Y-17354500D01*
X15729623Y-17382816D01*
X15729621Y-17382816D01*
X15729621Y-17382817D01*
X15634877Y-17437518D01*
X15634874Y-17437520D01*
X15557520Y-17514874D01*
X15557518Y-17514877D01*
X15508799Y-17599261D01*
X15502816Y-17609623D01*
X15474500Y-17715298D01*
X15474500Y-17715300D01*
X15474500Y-17824699D01*
X15474499Y-17824699D01*
X14203142Y-17824699D01*
X14217184Y-17800377D01*
X14245500Y-17694702D01*
X14245500Y-17585298D01*
X14217184Y-17479623D01*
X14162482Y-17384877D01*
X14085123Y-17307518D01*
X13990377Y-17252816D01*
X13884702Y-17224500D01*
X13775298Y-17224500D01*
X13669623Y-17252816D01*
X13669621Y-17252816D01*
X13669621Y-17252817D01*
X13574877Y-17307518D01*
X13574874Y-17307520D01*
X13497520Y-17384874D01*
X13497518Y-17384877D01*
X13448590Y-17469623D01*
X13442816Y-17479623D01*
X13414500Y-17585298D01*
X13414500Y-17585300D01*
X13414500Y-17694699D01*
X13414499Y-17694699D01*
X11582103Y-17694699D01*
X11595500Y-17644702D01*
X11595500Y-17535298D01*
X11567184Y-17429623D01*
X11512482Y-17334877D01*
X11435123Y-17257518D01*
X11340377Y-17202816D01*
X11234702Y-17174500D01*
X11125298Y-17174500D01*
X11019623Y-17202816D01*
X11019621Y-17202816D01*
X11019621Y-17202817D01*
X10924877Y-17257518D01*
X10924874Y-17257520D01*
X10847520Y-17334874D01*
X10847518Y-17334877D01*
X10806744Y-17405500D01*
X10792816Y-17429623D01*
X10764500Y-17535298D01*
X10764500Y-17535300D01*
X10764500Y-17644699D01*
X10764499Y-17644699D01*
X8265500Y-17644699D01*
X8265500Y-16714699D01*
X9604499Y-16714699D01*
X9608498Y-16729621D01*
X9632816Y-16820377D01*
X9687518Y-16915123D01*
X9764877Y-16992482D01*
X9859623Y-17047184D01*
X9965298Y-17075500D01*
X9965301Y-17075500D01*
X10074699Y-17075500D01*
X10074702Y-17075500D01*
X10180377Y-17047184D01*
X10184681Y-17044699D01*
X20414499Y-17044699D01*
X20420483Y-17067030D01*
X20442816Y-17150377D01*
X20497518Y-17245123D01*
X20574877Y-17322482D01*
X20669623Y-17377184D01*
X20775298Y-17405500D01*
X20775301Y-17405500D01*
X20884699Y-17405500D01*
X20884702Y-17405500D01*
X20990377Y-17377184D01*
X21085123Y-17322482D01*
X21162482Y-17245123D01*
X21217184Y-17150377D01*
X21245500Y-17044702D01*
X21245500Y-16935298D01*
X21217184Y-16829623D01*
X21162482Y-16734877D01*
X21085123Y-16657518D01*
X20990377Y-16602816D01*
X20884702Y-16574500D01*
X20775298Y-16574500D01*
X20669623Y-16602816D01*
X20669621Y-16602816D01*
X20669621Y-16602817D01*
X20574877Y-16657518D01*
X20574874Y-16657520D01*
X20497520Y-16734874D01*
X20497518Y-16734877D01*
X20448154Y-16820378D01*
X20442816Y-16829623D01*
X20414500Y-16935298D01*
X20414500Y-16935300D01*
X20414500Y-17044699D01*
X20414499Y-17044699D01*
X10184681Y-17044699D01*
X10275123Y-16992482D01*
X10352482Y-16915123D01*
X10407184Y-16820377D01*
X10435500Y-16714702D01*
X10435500Y-16605298D01*
X10407184Y-16499623D01*
X10352482Y-16404877D01*
X10275123Y-16327518D01*
X10180377Y-16272816D01*
X10074702Y-16244500D01*
X9965298Y-16244500D01*
X9859623Y-16272816D01*
X9859621Y-16272816D01*
X9859621Y-16272817D01*
X9764877Y-16327518D01*
X9764874Y-16327520D01*
X9687520Y-16404874D01*
X9687518Y-16404877D01*
X9636941Y-16492479D01*
X9632816Y-16499623D01*
X9604500Y-16605298D01*
X9604500Y-16605300D01*
X9604500Y-16714699D01*
X9604499Y-16714699D01*
X8265500Y-16714699D01*
X8265500Y-16481238D01*
X8265500Y-16481235D01*
X8265499Y-16481233D01*
X8254447Y-16425671D01*
X8254447Y-16425670D01*
X8212343Y-16362657D01*
X8212342Y-16362656D01*
X8149329Y-16320552D01*
X8093765Y-16309500D01*
X8093762Y-16309500D01*
X6356238Y-16309500D01*
X6356235Y-16309500D01*
X6300671Y-16320552D01*
X6300670Y-16320552D01*
X6237657Y-16362656D01*
X6237656Y-16362657D01*
X6195552Y-16425670D01*
X6195552Y-16425671D01*
X6184500Y-16481233D01*
X5375500Y-16481233D01*
X5375500Y-15934699D01*
X14134499Y-15934699D01*
X14134500Y-15934702D01*
X14162816Y-16040377D01*
X14217518Y-16135123D01*
X14294877Y-16212482D01*
X14389623Y-16267184D01*
X14495298Y-16295500D01*
X14495301Y-16295500D01*
X14604699Y-16295500D01*
X14604702Y-16295500D01*
X14710377Y-16267184D01*
X14805123Y-16212482D01*
X14882482Y-16135123D01*
X14937184Y-16040377D01*
X14965500Y-15934702D01*
X14965500Y-15825298D01*
X14937184Y-15719623D01*
X14882482Y-15624877D01*
X14805123Y-15547518D01*
X14710377Y-15492816D01*
X14604702Y-15464500D01*
X14495298Y-15464500D01*
X14389623Y-15492816D01*
X14389621Y-15492816D01*
X14389621Y-15492817D01*
X14294877Y-15547518D01*
X14294874Y-15547520D01*
X14217520Y-15624874D01*
X14217518Y-15624877D01*
X14178293Y-15692817D01*
X14162816Y-15719623D01*
X14134500Y-15825298D01*
X14134500Y-15825300D01*
X14134500Y-15934699D01*
X14134499Y-15934699D01*
X5375500Y-15934699D01*
X5375500Y-15642351D01*
X5395185Y-15575312D01*
X5411814Y-15554674D01*
X5493209Y-15473280D01*
X5607080Y-15302862D01*
X5685515Y-15113503D01*
X5725500Y-14912480D01*
X5725500Y-14707520D01*
X5685515Y-14506497D01*
X5613435Y-14332481D01*
X5607081Y-14317140D01*
X5552395Y-14235298D01*
X5493209Y-14146720D01*
X5493206Y-14146716D01*
X5411819Y-14065329D01*
X5397115Y-14038401D01*
X5380523Y-14012583D01*
X5379631Y-14006382D01*
X5378334Y-14004006D01*
X5375500Y-13977648D01*
X5375500Y-13941233D01*
X6184500Y-13941233D01*
X6184500Y-15678766D01*
X6195552Y-15734328D01*
X6195552Y-15734329D01*
X6237656Y-15797342D01*
X6237657Y-15797343D01*
X6300670Y-15839447D01*
X6356233Y-15850499D01*
X6356236Y-15850500D01*
X6356238Y-15850500D01*
X8093764Y-15850500D01*
X8093765Y-15850499D01*
X8149329Y-15839447D01*
X8212343Y-15797343D01*
X8244891Y-15748631D01*
X8245126Y-15748280D01*
X8254447Y-15734329D01*
X8254447Y-15734328D01*
X8257372Y-15719623D01*
X8265500Y-15678762D01*
X8265500Y-14854699D01*
X10294499Y-14854699D01*
X10294500Y-14854702D01*
X10322816Y-14960377D01*
X10377518Y-15055123D01*
X10454877Y-15132482D01*
X10549623Y-15187184D01*
X10655298Y-15215500D01*
X10655301Y-15215500D01*
X10764699Y-15215500D01*
X10764702Y-15215500D01*
X10870377Y-15187184D01*
X10965123Y-15132482D01*
X11042482Y-15055123D01*
X11097184Y-14960377D01*
X11125500Y-14854702D01*
X11125500Y-14745298D01*
X11097184Y-14639623D01*
X11042482Y-14544877D01*
X10965123Y-14467518D01*
X10870377Y-14412816D01*
X10764702Y-14384500D01*
X10655298Y-14384500D01*
X10549623Y-14412816D01*
X10549621Y-14412816D01*
X10549621Y-14412817D01*
X10454877Y-14467518D01*
X10454874Y-14467520D01*
X10377520Y-14544874D01*
X10377518Y-14544877D01*
X10322816Y-14639623D01*
X10294500Y-14745298D01*
X10294500Y-14745300D01*
X10294500Y-14854699D01*
X10294499Y-14854699D01*
X8265500Y-14854699D01*
X8265500Y-13941238D01*
X8265500Y-13941235D01*
X8265499Y-13941233D01*
X8254447Y-13885671D01*
X8254447Y-13885670D01*
X8212343Y-13822657D01*
X8212342Y-13822656D01*
X8149329Y-13780552D01*
X8093765Y-13769500D01*
X8093762Y-13769500D01*
X6356238Y-13769500D01*
X6356235Y-13769500D01*
X6300671Y-13780552D01*
X6300670Y-13780552D01*
X6237657Y-13822656D01*
X6237656Y-13822657D01*
X6195552Y-13885670D01*
X6195552Y-13885671D01*
X6184500Y-13941233D01*
X5375500Y-13941233D01*
X5375500Y-13504699D01*
X11614499Y-13504699D01*
X11614500Y-13504702D01*
X11642816Y-13610377D01*
X11697518Y-13705123D01*
X11774877Y-13782482D01*
X11869623Y-13837184D01*
X11975298Y-13865500D01*
X11975301Y-13865500D01*
X12084699Y-13865500D01*
X12084702Y-13865500D01*
X12190377Y-13837184D01*
X12285123Y-13782482D01*
X12339987Y-13727618D01*
X12401311Y-13694134D01*
X12427668Y-13691300D01*
X13328688Y-13691300D01*
X13395727Y-13710985D01*
X13416368Y-13727618D01*
X16473314Y-16784564D01*
X16510050Y-16799780D01*
X16562003Y-16821300D01*
X16562004Y-16821300D01*
X19267996Y-16821300D01*
X19267997Y-16821300D01*
X19319950Y-16799780D01*
X19356686Y-16784564D01*
X19963631Y-16177619D01*
X20024954Y-16144134D01*
X20051312Y-16141300D01*
X21869684Y-16141300D01*
X21896404Y-16149146D01*
X21923865Y-16153764D01*
X21929463Y-16158853D01*
X21936723Y-16160985D01*
X21954957Y-16182028D01*
X21975565Y-16200762D01*
X21979839Y-16210744D01*
X21982478Y-16213789D01*
X21989456Y-16233201D01*
X22002936Y-16283505D01*
X22012288Y-16318407D01*
X22010625Y-16388257D01*
X21971462Y-16446119D01*
X21907234Y-16473623D01*
X21892513Y-16474500D01*
X21855298Y-16474500D01*
X21749623Y-16502816D01*
X21749621Y-16502816D01*
X21749621Y-16502817D01*
X21654877Y-16557518D01*
X21654874Y-16557520D01*
X21577520Y-16634874D01*
X21577518Y-16634877D01*
X21530430Y-16716436D01*
X21522816Y-16729623D01*
X21494500Y-16835298D01*
X21494500Y-16835300D01*
X21494500Y-16944699D01*
X21494499Y-16944699D01*
X21494500Y-16944702D01*
X21522816Y-17050377D01*
X21577518Y-17145123D01*
X21654877Y-17222482D01*
X21749623Y-17277184D01*
X21855298Y-17305500D01*
X21855301Y-17305500D01*
X21932888Y-17305500D01*
X21999927Y-17325185D01*
X22020569Y-17341819D01*
X23165114Y-18486364D01*
X23201850Y-18501580D01*
X23253803Y-18523100D01*
X23622332Y-18523100D01*
X23689371Y-18542785D01*
X23710013Y-18559418D01*
X23764877Y-18614282D01*
X23859623Y-18668984D01*
X23965298Y-18697300D01*
X23965301Y-18697300D01*
X24074699Y-18697300D01*
X24074702Y-18697300D01*
X24180377Y-18668984D01*
X24275123Y-18614282D01*
X24352482Y-18536923D01*
X24407184Y-18442177D01*
X24435500Y-18336502D01*
X24435500Y-18227098D01*
X24407184Y-18121423D01*
X24352482Y-18026677D01*
X24275123Y-17949318D01*
X24180377Y-17894616D01*
X24074702Y-17866300D01*
X24031120Y-17866300D01*
X24013544Y-17861139D01*
X23995229Y-17860992D01*
X23980716Y-17851499D01*
X23964081Y-17846615D01*
X23952087Y-17832774D01*
X23936756Y-17822746D01*
X23929678Y-17806912D01*
X23927760Y-17804699D01*
X26984499Y-17804699D01*
X26984500Y-17804702D01*
X27012816Y-17910377D01*
X27067518Y-18005123D01*
X27144877Y-18082482D01*
X27239623Y-18137184D01*
X27345298Y-18165500D01*
X27345301Y-18165500D01*
X27454699Y-18165500D01*
X27454702Y-18165500D01*
X27560377Y-18137184D01*
X27655123Y-18082482D01*
X27732482Y-18005123D01*
X27787184Y-17910377D01*
X27815500Y-17804702D01*
X27815500Y-17695298D01*
X27812660Y-17684699D01*
X30014499Y-17684699D01*
X30017339Y-17695298D01*
X30042816Y-17790377D01*
X30097518Y-17885123D01*
X30174877Y-17962482D01*
X30269623Y-18017184D01*
X30375298Y-18045500D01*
X30375301Y-18045500D01*
X30484699Y-18045500D01*
X30484702Y-18045500D01*
X30590377Y-18017184D01*
X30685123Y-17962482D01*
X30762482Y-17885123D01*
X30817184Y-17790377D01*
X30824065Y-17764699D01*
X35894499Y-17764699D01*
X35894500Y-17764702D01*
X35922816Y-17870377D01*
X35977518Y-17965123D01*
X36054877Y-18042482D01*
X36149623Y-18097184D01*
X36255298Y-18125500D01*
X36255301Y-18125500D01*
X36364699Y-18125500D01*
X36364702Y-18125500D01*
X36470377Y-18097184D01*
X36498498Y-18080947D01*
X36566398Y-18064474D01*
X36632425Y-18087325D01*
X36675617Y-18142246D01*
X36684500Y-18188334D01*
X36684500Y-19133070D01*
X36687289Y-19162814D01*
X36687291Y-19162826D01*
X36731147Y-19288155D01*
X36731148Y-19288157D01*
X36810001Y-19394999D01*
X36916843Y-19473852D01*
X36955003Y-19487204D01*
X37042173Y-19517708D01*
X37042177Y-19517708D01*
X37042181Y-19517710D01*
X37057057Y-19519105D01*
X37071930Y-19520500D01*
X37071934Y-19520500D01*
X38628070Y-19520500D01*
X38641289Y-19519260D01*
X38657819Y-19517710D01*
X38657823Y-19517708D01*
X38657826Y-19517708D01*
X38722820Y-19494965D01*
X38783157Y-19473852D01*
X38889999Y-19394999D01*
X38968852Y-19288157D01*
X39012710Y-19162819D01*
X39015500Y-19133066D01*
X39015500Y-17826934D01*
X39015290Y-17824699D01*
X39013010Y-17800378D01*
X39012710Y-17797181D01*
X39012708Y-17797177D01*
X39012708Y-17797173D01*
X38976850Y-17694699D01*
X38968852Y-17671843D01*
X38889999Y-17565001D01*
X38783157Y-17486148D01*
X38783155Y-17486147D01*
X38657826Y-17442291D01*
X38657814Y-17442289D01*
X38628070Y-17439500D01*
X38628066Y-17439500D01*
X37071934Y-17439500D01*
X37071930Y-17439500D01*
X37042185Y-17442289D01*
X37042173Y-17442291D01*
X36916844Y-17486147D01*
X36848760Y-17536395D01*
X36783131Y-17560365D01*
X36714960Y-17545049D01*
X36667740Y-17498625D01*
X36660536Y-17486147D01*
X36642482Y-17454877D01*
X36565123Y-17377518D01*
X36470377Y-17322816D01*
X36364702Y-17294500D01*
X36255298Y-17294500D01*
X36149623Y-17322816D01*
X36149621Y-17322816D01*
X36149621Y-17322817D01*
X36054877Y-17377518D01*
X36054874Y-17377520D01*
X35977520Y-17454874D01*
X35977518Y-17454877D01*
X35931087Y-17535298D01*
X35922816Y-17549623D01*
X35894500Y-17655298D01*
X35894500Y-17655300D01*
X35894500Y-17764699D01*
X35894499Y-17764699D01*
X30824065Y-17764699D01*
X30845500Y-17684702D01*
X30845500Y-17575298D01*
X30817184Y-17469623D01*
X30762482Y-17374877D01*
X30685123Y-17297518D01*
X30590377Y-17242816D01*
X30484702Y-17214500D01*
X30375298Y-17214500D01*
X30269623Y-17242816D01*
X30269621Y-17242816D01*
X30269621Y-17242817D01*
X30174877Y-17297518D01*
X30174874Y-17297520D01*
X30097520Y-17374874D01*
X30097518Y-17374877D01*
X30052714Y-17452480D01*
X30042816Y-17469623D01*
X30014500Y-17575298D01*
X30014500Y-17575300D01*
X30014500Y-17684699D01*
X30014499Y-17684699D01*
X27812660Y-17684699D01*
X27787184Y-17589623D01*
X27732482Y-17494877D01*
X27655123Y-17417518D01*
X27560377Y-17362816D01*
X27454702Y-17334500D01*
X27345298Y-17334500D01*
X27239623Y-17362816D01*
X27239621Y-17362816D01*
X27239621Y-17362817D01*
X27144877Y-17417518D01*
X27144874Y-17417520D01*
X27067520Y-17494874D01*
X27067518Y-17494877D01*
X27021087Y-17575298D01*
X27012816Y-17589623D01*
X26984500Y-17695298D01*
X26984500Y-17695300D01*
X26984500Y-17804699D01*
X26984499Y-17804699D01*
X23927760Y-17804699D01*
X23918326Y-17793811D01*
X23915719Y-17775681D01*
X23908244Y-17758958D01*
X23909799Y-17734508D01*
X23908382Y-17724653D01*
X23908528Y-17723666D01*
X23909562Y-17716861D01*
X23915500Y-17694702D01*
X23915500Y-17585298D01*
X23887184Y-17479623D01*
X23832482Y-17384877D01*
X23755123Y-17307518D01*
X23660377Y-17252816D01*
X23554702Y-17224500D01*
X23445298Y-17224500D01*
X23339623Y-17252816D01*
X23339621Y-17252816D01*
X23339621Y-17252817D01*
X23244877Y-17307518D01*
X23244874Y-17307520D01*
X23167520Y-17384874D01*
X23167518Y-17384877D01*
X23112815Y-17479623D01*
X23112815Y-17479624D01*
X23110933Y-17486648D01*
X23074565Y-17546306D01*
X23011716Y-17576832D01*
X22942341Y-17568534D01*
X22903479Y-17542229D01*
X22361819Y-17000569D01*
X22349470Y-16977954D01*
X22333799Y-16957491D01*
X22331474Y-16944997D01*
X22328334Y-16939246D01*
X22325920Y-16923087D01*
X22325500Y-16917998D01*
X22325500Y-16894699D01*
X23944499Y-16894699D01*
X23944500Y-16894702D01*
X23972816Y-17000377D01*
X24027518Y-17095123D01*
X24104877Y-17172482D01*
X24199623Y-17227184D01*
X24305298Y-17255500D01*
X24305301Y-17255500D01*
X24414699Y-17255500D01*
X24414702Y-17255500D01*
X24520377Y-17227184D01*
X24615123Y-17172482D01*
X24692482Y-17095123D01*
X24747184Y-17000377D01*
X24775500Y-16894702D01*
X24775500Y-16785298D01*
X24775500Y-16777170D01*
X24776817Y-16777170D01*
X24786285Y-16716436D01*
X24832662Y-16664178D01*
X24899930Y-16645290D01*
X24960465Y-16661896D01*
X24969623Y-16667184D01*
X25075298Y-16695500D01*
X25075301Y-16695500D01*
X25184699Y-16695500D01*
X25184702Y-16695500D01*
X25290377Y-16667184D01*
X25385123Y-16612482D01*
X25462482Y-16535123D01*
X25517184Y-16440377D01*
X25545500Y-16334702D01*
X25545500Y-16225298D01*
X25521224Y-16134699D01*
X32194499Y-16134699D01*
X32194613Y-16135123D01*
X32222816Y-16240377D01*
X32277518Y-16335123D01*
X32354877Y-16412482D01*
X32394744Y-16435499D01*
X32442959Y-16486066D01*
X32456183Y-16554673D01*
X32430215Y-16619537D01*
X32394747Y-16650271D01*
X32364882Y-16667514D01*
X32364874Y-16667520D01*
X32287520Y-16744874D01*
X32287518Y-16744877D01*
X32238590Y-16829623D01*
X32232816Y-16839623D01*
X32204500Y-16945298D01*
X32204500Y-16945300D01*
X32204500Y-17054699D01*
X32204499Y-17054699D01*
X32204500Y-17054702D01*
X32232816Y-17160377D01*
X32287518Y-17255123D01*
X32364877Y-17332482D01*
X32459623Y-17387184D01*
X32565298Y-17415500D01*
X32565301Y-17415500D01*
X32674699Y-17415500D01*
X32674702Y-17415500D01*
X32780377Y-17387184D01*
X32875123Y-17332482D01*
X32952482Y-17255123D01*
X33007184Y-17160377D01*
X33035500Y-17054702D01*
X33035500Y-16945298D01*
X33007184Y-16839623D01*
X32952482Y-16744877D01*
X32875123Y-16667518D01*
X32835255Y-16644500D01*
X32787039Y-16593933D01*
X32773817Y-16525326D01*
X32799785Y-16460461D01*
X32835256Y-16429726D01*
X32844307Y-16424500D01*
X32865123Y-16412482D01*
X32942482Y-16335123D01*
X32997184Y-16240377D01*
X33025500Y-16134702D01*
X33025500Y-16025298D01*
X32997184Y-15919623D01*
X32942482Y-15824877D01*
X32865123Y-15747518D01*
X32770377Y-15692816D01*
X32664702Y-15664500D01*
X32555298Y-15664500D01*
X32449623Y-15692816D01*
X32449621Y-15692816D01*
X32449621Y-15692817D01*
X32354877Y-15747518D01*
X32354874Y-15747520D01*
X32277520Y-15824874D01*
X32277518Y-15824877D01*
X32238293Y-15892817D01*
X32222816Y-15919623D01*
X32194500Y-16025298D01*
X32194500Y-16025300D01*
X32194500Y-16134699D01*
X32194499Y-16134699D01*
X25521224Y-16134699D01*
X25517184Y-16119623D01*
X25508915Y-16105300D01*
X25493829Y-16079170D01*
X25493828Y-16079168D01*
X25462486Y-16024883D01*
X25462483Y-16024880D01*
X25462482Y-16024877D01*
X25385123Y-15947518D01*
X25290377Y-15892816D01*
X25184702Y-15864500D01*
X25075298Y-15864500D01*
X24969623Y-15892816D01*
X24969621Y-15892816D01*
X24969621Y-15892817D01*
X24874877Y-15947518D01*
X24874874Y-15947520D01*
X24797520Y-16024874D01*
X24797518Y-16024877D01*
X24751087Y-16105298D01*
X24742816Y-16119623D01*
X24714500Y-16225298D01*
X24714500Y-16225300D01*
X24714500Y-16342830D01*
X24713185Y-16342830D01*
X24703708Y-16403575D01*
X24657325Y-16455828D01*
X24590055Y-16474709D01*
X24529536Y-16458104D01*
X24520377Y-16452816D01*
X24414702Y-16424500D01*
X24305298Y-16424500D01*
X24199623Y-16452816D01*
X24199621Y-16452816D01*
X24199621Y-16452817D01*
X24104877Y-16507518D01*
X24104874Y-16507520D01*
X24027520Y-16584874D01*
X24027518Y-16584877D01*
X23983139Y-16661744D01*
X23972816Y-16679623D01*
X23944500Y-16785298D01*
X23944500Y-16785300D01*
X23944500Y-16894699D01*
X23944499Y-16894699D01*
X22325500Y-16894699D01*
X22325500Y-16835298D01*
X22297712Y-16731593D01*
X22299375Y-16661744D01*
X22338537Y-16603882D01*
X22402765Y-16576377D01*
X22417487Y-16575500D01*
X22454699Y-16575500D01*
X22454702Y-16575500D01*
X22560377Y-16547184D01*
X22655123Y-16492482D01*
X22732482Y-16415123D01*
X22787184Y-16320377D01*
X22815500Y-16214702D01*
X22815500Y-16105298D01*
X22787184Y-15999623D01*
X22732482Y-15904877D01*
X22655123Y-15827518D01*
X22560377Y-15772816D01*
X22454702Y-15744500D01*
X22377112Y-15744500D01*
X22313835Y-15727140D01*
X22300444Y-15719194D01*
X22276686Y-15695436D01*
X22230962Y-15676497D01*
X22222768Y-15673103D01*
X22222765Y-15673101D01*
X22187997Y-15658700D01*
X19852003Y-15658700D01*
X19852000Y-15658700D01*
X19809039Y-15676496D01*
X19763317Y-15695434D01*
X19763311Y-15695438D01*
X19156369Y-16302381D01*
X19095046Y-16335866D01*
X19068688Y-16338700D01*
X16761312Y-16338700D01*
X16694273Y-16319015D01*
X16673631Y-16302381D01*
X15525949Y-15154699D01*
X22524499Y-15154699D01*
X22524500Y-15154702D01*
X22552816Y-15260377D01*
X22607518Y-15355123D01*
X22684877Y-15432482D01*
X22779623Y-15487184D01*
X22885298Y-15515500D01*
X22885301Y-15515500D01*
X22994699Y-15515500D01*
X22994702Y-15515500D01*
X23100377Y-15487184D01*
X23195123Y-15432482D01*
X23272482Y-15355123D01*
X23327184Y-15260377D01*
X23355500Y-15154702D01*
X23355500Y-15045298D01*
X23327184Y-14939623D01*
X23272482Y-14844877D01*
X23195123Y-14767518D01*
X23100377Y-14712816D01*
X22994702Y-14684500D01*
X22885298Y-14684500D01*
X22779623Y-14712816D01*
X22779621Y-14712816D01*
X22779621Y-14712817D01*
X22684877Y-14767518D01*
X22684874Y-14767520D01*
X22607520Y-14844874D01*
X22607518Y-14844877D01*
X22558590Y-14929623D01*
X22552816Y-14939623D01*
X22524500Y-15045298D01*
X22524500Y-15045300D01*
X22524500Y-15154699D01*
X22524499Y-15154699D01*
X15525949Y-15154699D01*
X14715949Y-14344699D01*
X24364499Y-14344699D01*
X24364500Y-14344702D01*
X24392816Y-14450377D01*
X24447518Y-14545123D01*
X24524877Y-14622482D01*
X24565634Y-14646013D01*
X24613848Y-14696578D01*
X24627072Y-14765185D01*
X24601104Y-14830050D01*
X24591316Y-14841079D01*
X24567518Y-14864877D01*
X24560219Y-14877520D01*
X24512816Y-14959623D01*
X24484500Y-15065298D01*
X24484500Y-15065300D01*
X24484500Y-15174699D01*
X24484499Y-15174699D01*
X24487844Y-15187182D01*
X24512816Y-15280377D01*
X24567518Y-15375123D01*
X24644877Y-15452482D01*
X24739623Y-15507184D01*
X24845298Y-15535500D01*
X24845301Y-15535500D01*
X24954699Y-15535500D01*
X24954702Y-15535500D01*
X25060377Y-15507184D01*
X25155123Y-15452482D01*
X25208922Y-15398682D01*
X25270241Y-15365200D01*
X25339933Y-15370184D01*
X25395866Y-15412055D01*
X25403985Y-15424363D01*
X25427518Y-15465123D01*
X25504877Y-15542482D01*
X25599623Y-15597184D01*
X25705298Y-15625500D01*
X25705301Y-15625500D01*
X25814699Y-15625500D01*
X25814702Y-15625500D01*
X25920377Y-15597184D01*
X26015123Y-15542482D01*
X26092482Y-15465123D01*
X26147184Y-15370377D01*
X26175500Y-15264702D01*
X26175500Y-15155298D01*
X26172660Y-15144699D01*
X27734499Y-15144699D01*
X27737339Y-15155298D01*
X27762816Y-15250377D01*
X27817518Y-15345123D01*
X27894877Y-15422482D01*
X27989623Y-15477184D01*
X28095298Y-15505500D01*
X28095301Y-15505500D01*
X28204699Y-15505500D01*
X28204702Y-15505500D01*
X28310377Y-15477184D01*
X28405123Y-15422482D01*
X28482482Y-15345123D01*
X28537184Y-15250377D01*
X28565500Y-15144702D01*
X28565500Y-15114699D01*
X29244499Y-15114699D01*
X29244500Y-15114702D01*
X29272816Y-15220377D01*
X29327518Y-15315123D01*
X29404877Y-15392482D01*
X29499623Y-15447184D01*
X29605298Y-15475500D01*
X29605301Y-15475500D01*
X29714699Y-15475500D01*
X29714702Y-15475500D01*
X29820377Y-15447184D01*
X29915123Y-15392482D01*
X29992482Y-15315123D01*
X30047184Y-15220377D01*
X30056744Y-15184699D01*
X30724499Y-15184699D01*
X30725165Y-15187184D01*
X30752816Y-15290377D01*
X30807518Y-15385123D01*
X30884877Y-15462482D01*
X30979623Y-15517184D01*
X31085298Y-15545500D01*
X31085301Y-15545500D01*
X31194699Y-15545500D01*
X31194702Y-15545500D01*
X31300377Y-15517184D01*
X31395123Y-15462482D01*
X31472482Y-15385123D01*
X31527184Y-15290377D01*
X31536744Y-15254699D01*
X35894499Y-15254699D01*
X35900483Y-15277030D01*
X35922816Y-15360377D01*
X35977518Y-15455123D01*
X36054877Y-15532482D01*
X36149623Y-15587184D01*
X36255298Y-15615500D01*
X36255301Y-15615500D01*
X36364699Y-15615500D01*
X36364702Y-15615500D01*
X36470377Y-15587184D01*
X36470379Y-15587182D01*
X36470381Y-15587182D01*
X36470382Y-15587181D01*
X36539077Y-15547520D01*
X36540514Y-15546689D01*
X36608413Y-15530216D01*
X36674441Y-15553068D01*
X36717632Y-15607988D01*
X36724274Y-15677541D01*
X36724133Y-15678266D01*
X36689875Y-15850500D01*
X36684500Y-15877521D01*
X36684500Y-16082484D01*
X36724483Y-16283495D01*
X36724486Y-16283505D01*
X36802918Y-16472859D01*
X36916790Y-16643279D01*
X36916793Y-16643283D01*
X37061716Y-16788206D01*
X37061720Y-16788209D01*
X37232138Y-16902080D01*
X37421497Y-16980515D01*
X37622515Y-17020499D01*
X37622519Y-17020500D01*
X37622520Y-17020500D01*
X38077481Y-17020500D01*
X38077482Y-17020499D01*
X38278503Y-16980515D01*
X38467862Y-16902080D01*
X38638280Y-16788209D01*
X38783209Y-16643280D01*
X38897080Y-16472862D01*
X38975515Y-16283503D01*
X39015500Y-16082480D01*
X39015500Y-15877520D01*
X38975515Y-15676497D01*
X38905383Y-15507184D01*
X38897081Y-15487140D01*
X38890427Y-15477182D01*
X38783209Y-15316720D01*
X38783206Y-15316716D01*
X38638283Y-15171793D01*
X38638279Y-15171790D01*
X38467859Y-15057918D01*
X38278505Y-14979486D01*
X38278506Y-14979486D01*
X38278503Y-14979485D01*
X38278499Y-14979484D01*
X38278495Y-14979483D01*
X38077484Y-14939500D01*
X38077480Y-14939500D01*
X37622520Y-14939500D01*
X37622515Y-14939500D01*
X37421504Y-14979483D01*
X37421494Y-14979486D01*
X37232140Y-15057918D01*
X37061720Y-15171790D01*
X37061716Y-15171793D01*
X36937181Y-15296329D01*
X36875858Y-15329814D01*
X36806166Y-15324830D01*
X36750233Y-15282958D01*
X36725816Y-15217494D01*
X36725500Y-15208648D01*
X36725500Y-15145300D01*
X36725500Y-15145298D01*
X36697184Y-15039623D01*
X36642482Y-14944877D01*
X36565123Y-14867518D01*
X36470377Y-14812816D01*
X36364702Y-14784500D01*
X36255298Y-14784500D01*
X36149623Y-14812816D01*
X36149621Y-14812816D01*
X36149621Y-14812817D01*
X36054877Y-14867518D01*
X36054874Y-14867520D01*
X35977520Y-14944874D01*
X35977518Y-14944877D01*
X35928795Y-15029268D01*
X35922816Y-15039623D01*
X35894500Y-15145298D01*
X35894500Y-15145300D01*
X35894500Y-15254699D01*
X35894499Y-15254699D01*
X31536744Y-15254699D01*
X31555500Y-15184702D01*
X31555500Y-15075298D01*
X31527184Y-14969623D01*
X31472482Y-14874877D01*
X31395123Y-14797518D01*
X31300377Y-14742816D01*
X31194702Y-14714500D01*
X31085298Y-14714500D01*
X30979623Y-14742816D01*
X30979621Y-14742816D01*
X30979621Y-14742817D01*
X30884877Y-14797518D01*
X30884874Y-14797520D01*
X30807520Y-14874874D01*
X30807518Y-14874877D01*
X30758154Y-14960378D01*
X30752816Y-14969623D01*
X30724500Y-15075298D01*
X30724500Y-15075300D01*
X30724500Y-15184699D01*
X30724499Y-15184699D01*
X30056744Y-15184699D01*
X30075500Y-15114702D01*
X30075500Y-15005298D01*
X30047184Y-14899623D01*
X29992482Y-14804877D01*
X29915123Y-14727518D01*
X29820377Y-14672816D01*
X29714702Y-14644500D01*
X29605298Y-14644500D01*
X29499623Y-14672816D01*
X29499621Y-14672816D01*
X29499621Y-14672817D01*
X29404877Y-14727518D01*
X29404874Y-14727520D01*
X29327520Y-14804874D01*
X29327518Y-14804877D01*
X29304426Y-14844874D01*
X29272816Y-14899623D01*
X29244500Y-15005298D01*
X29244500Y-15005300D01*
X29244500Y-15114699D01*
X29244499Y-15114699D01*
X28565500Y-15114699D01*
X28565500Y-15035298D01*
X28537184Y-14929623D01*
X28482482Y-14834877D01*
X28405123Y-14757518D01*
X28310377Y-14702816D01*
X28204702Y-14674500D01*
X28095298Y-14674500D01*
X27989623Y-14702816D01*
X27989621Y-14702816D01*
X27989621Y-14702817D01*
X27894877Y-14757518D01*
X27894874Y-14757520D01*
X27817520Y-14834874D01*
X27817518Y-14834877D01*
X27772714Y-14912480D01*
X27762816Y-14929623D01*
X27734500Y-15035298D01*
X27734500Y-15035300D01*
X27734500Y-15144699D01*
X27734499Y-15144699D01*
X26172660Y-15144699D01*
X26149407Y-15057920D01*
X26147184Y-15049624D01*
X26147184Y-15049623D01*
X26138915Y-15035301D01*
X26092482Y-14954877D01*
X26015123Y-14877518D01*
X25920377Y-14822816D01*
X25814702Y-14794500D01*
X25705298Y-14794500D01*
X25599623Y-14822816D01*
X25599621Y-14822816D01*
X25599621Y-14822817D01*
X25504877Y-14877518D01*
X25451080Y-14931315D01*
X25389756Y-14964799D01*
X25320064Y-14959814D01*
X25264131Y-14917943D01*
X25256019Y-14905645D01*
X25232482Y-14864877D01*
X25155123Y-14787518D01*
X25114365Y-14763986D01*
X25066150Y-14713420D01*
X25052927Y-14644813D01*
X25078895Y-14579948D01*
X25088670Y-14568934D01*
X25112482Y-14545123D01*
X25167184Y-14450377D01*
X25195500Y-14344702D01*
X25195500Y-14235298D01*
X25167184Y-14129623D01*
X25112482Y-14034877D01*
X25035123Y-13957518D01*
X24940377Y-13902816D01*
X24834702Y-13874500D01*
X24725298Y-13874500D01*
X24619623Y-13902816D01*
X24619621Y-13902816D01*
X24619621Y-13902817D01*
X24524877Y-13957518D01*
X24524874Y-13957520D01*
X24447520Y-14034874D01*
X24447518Y-14034877D01*
X24392816Y-14129623D01*
X24364500Y-14235298D01*
X24364500Y-14235300D01*
X24364500Y-14344699D01*
X24364499Y-14344699D01*
X14715949Y-14344699D01*
X13725949Y-13354699D01*
X25344499Y-13354699D01*
X25344500Y-13354702D01*
X25372816Y-13460377D01*
X25427518Y-13555123D01*
X25504877Y-13632482D01*
X25599623Y-13687184D01*
X25705298Y-13715500D01*
X25705301Y-13715500D01*
X25814699Y-13715500D01*
X25814702Y-13715500D01*
X25920377Y-13687184D01*
X26015123Y-13632482D01*
X26092482Y-13555123D01*
X26147184Y-13460377D01*
X26175500Y-13354702D01*
X26175500Y-13245298D01*
X26147184Y-13139623D01*
X26092482Y-13044877D01*
X26015123Y-12967518D01*
X25920377Y-12912816D01*
X25814702Y-12884500D01*
X25705298Y-12884500D01*
X25599623Y-12912816D01*
X25599621Y-12912816D01*
X25599621Y-12912817D01*
X25504877Y-12967518D01*
X25504874Y-12967520D01*
X25427520Y-13044874D01*
X25427518Y-13044877D01*
X25386744Y-13115500D01*
X25372816Y-13139623D01*
X25344500Y-13245298D01*
X25344500Y-13245300D01*
X25344500Y-13354699D01*
X25344499Y-13354699D01*
X13725949Y-13354699D01*
X13616688Y-13245438D01*
X13616686Y-13245436D01*
X13616683Y-13245434D01*
X13616682Y-13245434D01*
X13572017Y-13226933D01*
X13572015Y-13226933D01*
X13527997Y-13208700D01*
X12427668Y-13208700D01*
X12360629Y-13189015D01*
X12339987Y-13172382D01*
X12317094Y-13149489D01*
X12285123Y-13117518D01*
X12190377Y-13062816D01*
X12084702Y-13034500D01*
X11975298Y-13034500D01*
X11869623Y-13062816D01*
X11869621Y-13062816D01*
X11869621Y-13062817D01*
X11774877Y-13117518D01*
X11774874Y-13117520D01*
X11697520Y-13194874D01*
X11697518Y-13194877D01*
X11656744Y-13265500D01*
X11642816Y-13289623D01*
X11614500Y-13395298D01*
X11614500Y-13395300D01*
X11614500Y-13504699D01*
X11614499Y-13504699D01*
X5375500Y-13504699D01*
X5375500Y-13102351D01*
X5395185Y-13035312D01*
X5411814Y-13014674D01*
X5493209Y-12933280D01*
X5607080Y-12762862D01*
X5685515Y-12573503D01*
X5725500Y-12372480D01*
X5725500Y-12167520D01*
X5685515Y-11966497D01*
X5607080Y-11777138D01*
X5493209Y-11606720D01*
X5493206Y-11606716D01*
X5411819Y-11525329D01*
X5397115Y-11498401D01*
X5380523Y-11472583D01*
X5379631Y-11466382D01*
X5378334Y-11464006D01*
X5375500Y-11437648D01*
X5375500Y-11401233D01*
X6184500Y-11401233D01*
X6184500Y-13138766D01*
X6195552Y-13194328D01*
X6195552Y-13194329D01*
X6237656Y-13257342D01*
X6237657Y-13257343D01*
X6300670Y-13299447D01*
X6356233Y-13310499D01*
X6356236Y-13310500D01*
X6356238Y-13310500D01*
X8093764Y-13310500D01*
X8093765Y-13310499D01*
X8149329Y-13299447D01*
X8212343Y-13257343D01*
X8254447Y-13194329D01*
X8265500Y-13138762D01*
X8265500Y-12904699D01*
X24204499Y-12904699D01*
X24204500Y-12904702D01*
X24232816Y-13010377D01*
X24287518Y-13105123D01*
X24364877Y-13182482D01*
X24459623Y-13237184D01*
X24565298Y-13265500D01*
X24565301Y-13265500D01*
X24674699Y-13265500D01*
X24674702Y-13265500D01*
X24780377Y-13237184D01*
X24875123Y-13182482D01*
X24952482Y-13105123D01*
X25007184Y-13010377D01*
X25035500Y-12904702D01*
X25035500Y-12795298D01*
X25007184Y-12689623D01*
X24952482Y-12594877D01*
X24875123Y-12517518D01*
X24780377Y-12462816D01*
X24674702Y-12434500D01*
X24565298Y-12434500D01*
X24459623Y-12462816D01*
X24459621Y-12462816D01*
X24459621Y-12462817D01*
X24364877Y-12517518D01*
X24364874Y-12517520D01*
X24287520Y-12594874D01*
X24287518Y-12594877D01*
X24246744Y-12665500D01*
X24232816Y-12689623D01*
X24204500Y-12795298D01*
X24204500Y-12795300D01*
X24204500Y-12904699D01*
X24204499Y-12904699D01*
X8265500Y-12904699D01*
X8265500Y-12304699D01*
X28234499Y-12304699D01*
X28234500Y-12304702D01*
X28262816Y-12410377D01*
X28317518Y-12505123D01*
X28394877Y-12582482D01*
X28489623Y-12637184D01*
X28595298Y-12665500D01*
X28595301Y-12665500D01*
X28704699Y-12665500D01*
X28704702Y-12665500D01*
X28810377Y-12637184D01*
X28905123Y-12582482D01*
X28982482Y-12505123D01*
X29037184Y-12410377D01*
X29065500Y-12304702D01*
X29065500Y-12195298D01*
X29037184Y-12089623D01*
X28982482Y-11994877D01*
X28905123Y-11917518D01*
X28810377Y-11862816D01*
X28704702Y-11834500D01*
X28595298Y-11834500D01*
X28489623Y-11862816D01*
X28489621Y-11862816D01*
X28489621Y-11862817D01*
X28394877Y-11917518D01*
X28394874Y-11917520D01*
X28317520Y-11994874D01*
X28317518Y-11994877D01*
X28262816Y-12089623D01*
X28234500Y-12195298D01*
X28234500Y-12195300D01*
X28234500Y-12304699D01*
X28234499Y-12304699D01*
X8265500Y-12304699D01*
X8265500Y-11604699D01*
X9594499Y-11604699D01*
X9595041Y-11606720D01*
X9622816Y-11710377D01*
X9677518Y-11805123D01*
X9754877Y-11882482D01*
X9849623Y-11937184D01*
X9955298Y-11965500D01*
X9955301Y-11965500D01*
X10064699Y-11965500D01*
X10064702Y-11965500D01*
X10170377Y-11937184D01*
X10265123Y-11882482D01*
X10342482Y-11805123D01*
X10394689Y-11714699D01*
X19174499Y-11714699D01*
X19174500Y-11714702D01*
X19202816Y-11820377D01*
X19257518Y-11915123D01*
X19334877Y-11992482D01*
X19429623Y-12047184D01*
X19535298Y-12075500D01*
X19535301Y-12075500D01*
X19644699Y-12075500D01*
X19644702Y-12075500D01*
X19750377Y-12047184D01*
X19845123Y-11992482D01*
X19922482Y-11915123D01*
X19977184Y-11820377D01*
X20005500Y-11714702D01*
X20005500Y-11605298D01*
X19977184Y-11499623D01*
X19922482Y-11404877D01*
X19845123Y-11327518D01*
X19750377Y-11272816D01*
X19644702Y-11244500D01*
X19535298Y-11244500D01*
X19429623Y-11272816D01*
X19429621Y-11272816D01*
X19429621Y-11272817D01*
X19334877Y-11327518D01*
X19334874Y-11327520D01*
X19257520Y-11404874D01*
X19257518Y-11404877D01*
X19203522Y-11498401D01*
X19202816Y-11499623D01*
X19174500Y-11605298D01*
X19174500Y-11605300D01*
X19174500Y-11714699D01*
X19174499Y-11714699D01*
X10394689Y-11714699D01*
X10397184Y-11710377D01*
X10425500Y-11604702D01*
X10425500Y-11495298D01*
X10397184Y-11389623D01*
X10342482Y-11294877D01*
X10342304Y-11294699D01*
X10634499Y-11294699D01*
X10634500Y-11294702D01*
X10662816Y-11400377D01*
X10717518Y-11495123D01*
X10794877Y-11572482D01*
X10889623Y-11627184D01*
X10995298Y-11655500D01*
X10995301Y-11655500D01*
X11104699Y-11655500D01*
X11104702Y-11655500D01*
X11210377Y-11627184D01*
X11305123Y-11572482D01*
X11382482Y-11495123D01*
X11437184Y-11400377D01*
X11465500Y-11294702D01*
X11465500Y-11185298D01*
X11437184Y-11079623D01*
X11382482Y-10984877D01*
X11305123Y-10907518D01*
X11210377Y-10852816D01*
X11104702Y-10824500D01*
X10995298Y-10824500D01*
X10889623Y-10852816D01*
X10889621Y-10852816D01*
X10889621Y-10852817D01*
X10794877Y-10907518D01*
X10794874Y-10907520D01*
X10717520Y-10984874D01*
X10717518Y-10984877D01*
X10662816Y-11079623D01*
X10634500Y-11185298D01*
X10634500Y-11185300D01*
X10634500Y-11294699D01*
X10634499Y-11294699D01*
X10342304Y-11294699D01*
X10265123Y-11217518D01*
X10170377Y-11162816D01*
X10064702Y-11134500D01*
X9955298Y-11134500D01*
X9849623Y-11162816D01*
X9849621Y-11162816D01*
X9849621Y-11162817D01*
X9754877Y-11217518D01*
X9754874Y-11217520D01*
X9677520Y-11294874D01*
X9677518Y-11294877D01*
X9622816Y-11389623D01*
X9594500Y-11495298D01*
X9594500Y-11495300D01*
X9594500Y-11604699D01*
X9594499Y-11604699D01*
X8265500Y-11604699D01*
X8265500Y-11401238D01*
X8265500Y-11401235D01*
X8265499Y-11401233D01*
X8254447Y-11345671D01*
X8254447Y-11345670D01*
X8212343Y-11282657D01*
X8212342Y-11282656D01*
X8149329Y-11240552D01*
X8093765Y-11229500D01*
X8093762Y-11229500D01*
X6356238Y-11229500D01*
X6356235Y-11229500D01*
X6300671Y-11240552D01*
X6300670Y-11240552D01*
X6237657Y-11282656D01*
X6237656Y-11282657D01*
X6195552Y-11345670D01*
X6195552Y-11345671D01*
X6184500Y-11401233D01*
X5375500Y-11401233D01*
X5375500Y-10562351D01*
X5395185Y-10495312D01*
X5411814Y-10474674D01*
X5493209Y-10393280D01*
X5607080Y-10222862D01*
X5685515Y-10033503D01*
X5725500Y-9832480D01*
X5725500Y-9627520D01*
X5685515Y-9426497D01*
X5607080Y-9237138D01*
X5493209Y-9066720D01*
X5493206Y-9066716D01*
X5411819Y-8985329D01*
X5397115Y-8958401D01*
X5380523Y-8932583D01*
X5379631Y-8926382D01*
X5378334Y-8924006D01*
X5375500Y-8897648D01*
X5375500Y-8861233D01*
X6184500Y-8861233D01*
X6184500Y-10598766D01*
X6195552Y-10654328D01*
X6195552Y-10654329D01*
X6237656Y-10717342D01*
X6237657Y-10717343D01*
X6300670Y-10759447D01*
X6356233Y-10770499D01*
X6356236Y-10770500D01*
X6356238Y-10770500D01*
X8093764Y-10770500D01*
X8093765Y-10770499D01*
X8149329Y-10759447D01*
X8212343Y-10717343D01*
X8254447Y-10654329D01*
X8265500Y-10598762D01*
X8265500Y-10504699D01*
X9614499Y-10504699D01*
X9616395Y-10511774D01*
X9642816Y-10610377D01*
X9697518Y-10705123D01*
X9774877Y-10782482D01*
X9869623Y-10837184D01*
X9975298Y-10865500D01*
X9975301Y-10865500D01*
X10084699Y-10865500D01*
X10084702Y-10865500D01*
X10190377Y-10837184D01*
X10285123Y-10782482D01*
X10362482Y-10705123D01*
X10417184Y-10610377D01*
X10445500Y-10504702D01*
X10445500Y-10395298D01*
X10417184Y-10289623D01*
X10362482Y-10194877D01*
X10285123Y-10117518D01*
X10190377Y-10062816D01*
X10084702Y-10034500D01*
X9975298Y-10034500D01*
X9869623Y-10062816D01*
X9869621Y-10062816D01*
X9869621Y-10062817D01*
X9774877Y-10117518D01*
X9774874Y-10117520D01*
X9697520Y-10194874D01*
X9697518Y-10194877D01*
X9646941Y-10282479D01*
X9642816Y-10289623D01*
X9614500Y-10395298D01*
X9614500Y-10395300D01*
X9614500Y-10504699D01*
X9614499Y-10504699D01*
X8265500Y-10504699D01*
X8265500Y-9904699D01*
X13104499Y-9904699D01*
X13104500Y-9904702D01*
X13132816Y-10010377D01*
X13187518Y-10105123D01*
X13264877Y-10182482D01*
X13359623Y-10237184D01*
X13377404Y-10241948D01*
X13437062Y-10278309D01*
X13467593Y-10341155D01*
X13459300Y-10410531D01*
X13432993Y-10449402D01*
X13407518Y-10474877D01*
X13357015Y-10562351D01*
X13352816Y-10569623D01*
X13324500Y-10675298D01*
X13324500Y-10675300D01*
X13324500Y-10784699D01*
X13324499Y-10784699D01*
X13324599Y-10785073D01*
X13352816Y-10890377D01*
X13407518Y-10985123D01*
X13484877Y-11062482D01*
X13579623Y-11117184D01*
X13685298Y-11145500D01*
X13685301Y-11145500D01*
X13794699Y-11145500D01*
X13794702Y-11145500D01*
X13900377Y-11117184D01*
X13995123Y-11062482D01*
X14072482Y-10985123D01*
X14101595Y-10934699D01*
X23424499Y-10934699D01*
X23424500Y-10934702D01*
X23452816Y-11040377D01*
X23507518Y-11135123D01*
X23584877Y-11212482D01*
X23679623Y-11267184D01*
X23785298Y-11295500D01*
X23785301Y-11295500D01*
X23894699Y-11295500D01*
X23894702Y-11295500D01*
X24000377Y-11267184D01*
X24095123Y-11212482D01*
X24172482Y-11135123D01*
X24227184Y-11040377D01*
X24255500Y-10934702D01*
X24255500Y-10825298D01*
X24227184Y-10719623D01*
X24172482Y-10624877D01*
X24095123Y-10547518D01*
X24000377Y-10492816D01*
X23894702Y-10464500D01*
X23785298Y-10464500D01*
X23679623Y-10492816D01*
X23679621Y-10492816D01*
X23679621Y-10492817D01*
X23584877Y-10547518D01*
X23584874Y-10547520D01*
X23507520Y-10624874D01*
X23507518Y-10624877D01*
X23466744Y-10695500D01*
X23452816Y-10719623D01*
X23424500Y-10825298D01*
X23424500Y-10825300D01*
X23424500Y-10934699D01*
X23424499Y-10934699D01*
X14101595Y-10934699D01*
X14127184Y-10890377D01*
X14155500Y-10784702D01*
X14155500Y-10675298D01*
X14127184Y-10569623D01*
X14072482Y-10474877D01*
X13995123Y-10397518D01*
X13939667Y-10365500D01*
X13900378Y-10342816D01*
X13894037Y-10341117D01*
X13882594Y-10338051D01*
X13853147Y-10320102D01*
X13823599Y-10302411D01*
X13823372Y-10301953D01*
X13822935Y-10301687D01*
X13807857Y-10270647D01*
X13792573Y-10239808D01*
X13792629Y-10239300D01*
X13792406Y-10238840D01*
X13796499Y-10204600D01*
X13800318Y-10170369D01*
X13800652Y-10169870D01*
X13800701Y-10169465D01*
X13818448Y-10140087D01*
X13822476Y-10135128D01*
X13852482Y-10105123D01*
X13866304Y-10081181D01*
X13872517Y-10073535D01*
X13893498Y-10059090D01*
X13911934Y-10041511D01*
X13921796Y-10039609D01*
X13930067Y-10033916D01*
X13955525Y-10033108D01*
X13980541Y-10028286D01*
X13989865Y-10032018D01*
X13999902Y-10031700D01*
X14021757Y-10044785D01*
X14045406Y-10054252D01*
X14056439Y-10064044D01*
X14124877Y-10132482D01*
X14219623Y-10187184D01*
X14325298Y-10215500D01*
X14325301Y-10215500D01*
X14434699Y-10215500D01*
X14434702Y-10215500D01*
X14540377Y-10187184D01*
X14635123Y-10132482D01*
X14685977Y-10081627D01*
X14747298Y-10048143D01*
X14816990Y-10053127D01*
X14872923Y-10094998D01*
X14881044Y-10107308D01*
X14886745Y-10117182D01*
X14937518Y-10205123D01*
X15014877Y-10282482D01*
X15109623Y-10337184D01*
X15215298Y-10365500D01*
X15215301Y-10365500D01*
X15324699Y-10365500D01*
X15324702Y-10365500D01*
X15430377Y-10337184D01*
X15434681Y-10334699D01*
X26264499Y-10334699D01*
X26266229Y-10341155D01*
X26292816Y-10440377D01*
X26347518Y-10535123D01*
X26424877Y-10612482D01*
X26519623Y-10667184D01*
X26625298Y-10695500D01*
X26625301Y-10695500D01*
X26734699Y-10695500D01*
X26734702Y-10695500D01*
X26840377Y-10667184D01*
X26935123Y-10612482D01*
X27012482Y-10535123D01*
X27067184Y-10440377D01*
X27095500Y-10334702D01*
X27095500Y-10225298D01*
X27067184Y-10119623D01*
X27012482Y-10024877D01*
X26935123Y-9947518D01*
X26840377Y-9892816D01*
X26734702Y-9864500D01*
X26625298Y-9864500D01*
X26519623Y-9892816D01*
X26519621Y-9892816D01*
X26519621Y-9892817D01*
X26424877Y-9947518D01*
X26424874Y-9947520D01*
X26347520Y-10024874D01*
X26347518Y-10024877D01*
X26298154Y-10110378D01*
X26292816Y-10119623D01*
X26264500Y-10225298D01*
X26264500Y-10225300D01*
X26264500Y-10334699D01*
X26264499Y-10334699D01*
X15434681Y-10334699D01*
X15525123Y-10282482D01*
X15602482Y-10205123D01*
X15657184Y-10110377D01*
X15685500Y-10004702D01*
X15685500Y-9895298D01*
X15677301Y-9864699D01*
X23684499Y-9864699D01*
X23684500Y-9864702D01*
X23712816Y-9970377D01*
X23767518Y-10065123D01*
X23844877Y-10142482D01*
X23939623Y-10197184D01*
X24045298Y-10225500D01*
X24045301Y-10225500D01*
X24154699Y-10225500D01*
X24154702Y-10225500D01*
X24260377Y-10197184D01*
X24355123Y-10142482D01*
X24432482Y-10065123D01*
X24487184Y-9970377D01*
X24515500Y-9864702D01*
X24515500Y-9755298D01*
X24487184Y-9649623D01*
X24432482Y-9554877D01*
X24355123Y-9477518D01*
X24260377Y-9422816D01*
X24154702Y-9394500D01*
X24045298Y-9394500D01*
X23939623Y-9422816D01*
X23939621Y-9422816D01*
X23939621Y-9422817D01*
X23844877Y-9477518D01*
X23844874Y-9477520D01*
X23767520Y-9554874D01*
X23767518Y-9554877D01*
X23718590Y-9639623D01*
X23712816Y-9649623D01*
X23684500Y-9755298D01*
X23684500Y-9755300D01*
X23684500Y-9864699D01*
X23684499Y-9864699D01*
X15677301Y-9864699D01*
X15657184Y-9789623D01*
X15602482Y-9694877D01*
X15525123Y-9617518D01*
X15430377Y-9562816D01*
X15324702Y-9534500D01*
X15215298Y-9534500D01*
X15109623Y-9562816D01*
X15109621Y-9562816D01*
X15109621Y-9562817D01*
X15014877Y-9617518D01*
X15014873Y-9617521D01*
X14964022Y-9668372D01*
X14902699Y-9701856D01*
X14833007Y-9696871D01*
X14777074Y-9655000D01*
X14768955Y-9642691D01*
X14760196Y-9627520D01*
X14712482Y-9544877D01*
X14635123Y-9467518D01*
X14540377Y-9412816D01*
X14434702Y-9384500D01*
X14325298Y-9384500D01*
X14219623Y-9412816D01*
X14219621Y-9412816D01*
X14219621Y-9412817D01*
X14124877Y-9467518D01*
X14124874Y-9467520D01*
X14047520Y-9544874D01*
X14047516Y-9544880D01*
X14038627Y-9560276D01*
X13988059Y-9608491D01*
X13919452Y-9621712D01*
X13854587Y-9595743D01*
X13843560Y-9585955D01*
X13775125Y-9517520D01*
X13775123Y-9517518D01*
X13680377Y-9462816D01*
X13574702Y-9434500D01*
X13465298Y-9434500D01*
X13359623Y-9462816D01*
X13359621Y-9462816D01*
X13359621Y-9462817D01*
X13264877Y-9517518D01*
X13264874Y-9517520D01*
X13187520Y-9594874D01*
X13187518Y-9594877D01*
X13141087Y-9675298D01*
X13132816Y-9689623D01*
X13104500Y-9795298D01*
X13104500Y-9795300D01*
X13104500Y-9904699D01*
X13104499Y-9904699D01*
X8265500Y-9904699D01*
X8265500Y-8861238D01*
X8265500Y-8861235D01*
X8265499Y-8861233D01*
X8254447Y-8805671D01*
X8254447Y-8805670D01*
X8212343Y-8742657D01*
X8212342Y-8742656D01*
X8149329Y-8700552D01*
X8093765Y-8689500D01*
X8093762Y-8689500D01*
X6356238Y-8689500D01*
X6356235Y-8689500D01*
X6300671Y-8700552D01*
X6300670Y-8700552D01*
X6237657Y-8742656D01*
X6237656Y-8742657D01*
X6195552Y-8805670D01*
X6195552Y-8805671D01*
X6184500Y-8861233D01*
X5375500Y-8861233D01*
X5375500Y-8524699D01*
X22624499Y-8524699D01*
X22624500Y-8524702D01*
X22652816Y-8630377D01*
X22707518Y-8725123D01*
X22784877Y-8802482D01*
X22879623Y-8857184D01*
X22985298Y-8885500D01*
X22985301Y-8885500D01*
X23094699Y-8885500D01*
X23094702Y-8885500D01*
X23200377Y-8857184D01*
X23295123Y-8802482D01*
X23372482Y-8725123D01*
X23427184Y-8630377D01*
X23455500Y-8524702D01*
X23455500Y-8415298D01*
X23427184Y-8309623D01*
X23372482Y-8214877D01*
X23295123Y-8137518D01*
X23255600Y-8114699D01*
X26124499Y-8114699D01*
X26124613Y-8115123D01*
X26152816Y-8220377D01*
X26207518Y-8315123D01*
X26284877Y-8392482D01*
X26379623Y-8447184D01*
X26485298Y-8475500D01*
X26485301Y-8475500D01*
X26594699Y-8475500D01*
X26594702Y-8475500D01*
X26700377Y-8447184D01*
X26795123Y-8392482D01*
X26795124Y-8392480D01*
X26795761Y-8392113D01*
X26811250Y-8387962D01*
X26822827Y-8380523D01*
X26857762Y-8375500D01*
X26954967Y-8375500D01*
X27022006Y-8395185D01*
X27042648Y-8411819D01*
X28278181Y-9647352D01*
X28311666Y-9708675D01*
X28314500Y-9735033D01*
X28314500Y-10431537D01*
X28327922Y-10481630D01*
X28335999Y-10511774D01*
X28336001Y-10511779D01*
X28377537Y-10583722D01*
X29582024Y-11788209D01*
X30768181Y-12974365D01*
X30801666Y-13035688D01*
X30802852Y-13046719D01*
X30803439Y-13046642D01*
X30804499Y-13054699D01*
X30804500Y-13054702D01*
X30832816Y-13160377D01*
X30887518Y-13255123D01*
X30964877Y-13332482D01*
X31059623Y-13387184D01*
X31165298Y-13415500D01*
X31165301Y-13415500D01*
X31274699Y-13415500D01*
X31274702Y-13415500D01*
X31380377Y-13387184D01*
X31475123Y-13332482D01*
X31492906Y-13314699D01*
X32744499Y-13314699D01*
X32744500Y-13314702D01*
X32772816Y-13420377D01*
X32827518Y-13515123D01*
X32827520Y-13515125D01*
X32869713Y-13557318D01*
X32903198Y-13618641D01*
X32898214Y-13688333D01*
X32869718Y-13732675D01*
X32857522Y-13744871D01*
X32857518Y-13744877D01*
X32802816Y-13839623D01*
X32774500Y-13945298D01*
X32774500Y-13945300D01*
X32774500Y-14054699D01*
X32774499Y-14054699D01*
X32780483Y-14077030D01*
X32802816Y-14160377D01*
X32857518Y-14255123D01*
X32934877Y-14332482D01*
X33029623Y-14387184D01*
X33135298Y-14415500D01*
X33135301Y-14415500D01*
X33244699Y-14415500D01*
X33244702Y-14415500D01*
X33350377Y-14387184D01*
X33445123Y-14332482D01*
X33522482Y-14255123D01*
X33577184Y-14160377D01*
X33605500Y-14054702D01*
X33605500Y-13945298D01*
X33577184Y-13839623D01*
X33522482Y-13744877D01*
X33480286Y-13702681D01*
X33446801Y-13641358D01*
X33451785Y-13571666D01*
X33480286Y-13527319D01*
X33492482Y-13515123D01*
X33547184Y-13420377D01*
X33575500Y-13314702D01*
X33575500Y-13205298D01*
X33547184Y-13099623D01*
X33547181Y-13099618D01*
X33546608Y-13097479D01*
X33548271Y-13027629D01*
X33587433Y-12969766D01*
X33634290Y-12945609D01*
X33634697Y-12945500D01*
X33634702Y-12945500D01*
X33740377Y-12917184D01*
X33835123Y-12862482D01*
X33912482Y-12785123D01*
X33930047Y-12754699D01*
X35904499Y-12754699D01*
X35906884Y-12763599D01*
X35932816Y-12860377D01*
X35987518Y-12955123D01*
X36064877Y-13032482D01*
X36159623Y-13087184D01*
X36265298Y-13115500D01*
X36265301Y-13115500D01*
X36374699Y-13115500D01*
X36374702Y-13115500D01*
X36480377Y-13087184D01*
X36539218Y-13053211D01*
X36607117Y-13036739D01*
X36673144Y-13059591D01*
X36716335Y-13114512D01*
X36722977Y-13184065D01*
X36722835Y-13184790D01*
X36684500Y-13377515D01*
X36684500Y-13582484D01*
X36724483Y-13783495D01*
X36724486Y-13783505D01*
X36802918Y-13972859D01*
X36916790Y-14143279D01*
X36916793Y-14143283D01*
X37061716Y-14288206D01*
X37061720Y-14288209D01*
X37232138Y-14402080D01*
X37421497Y-14480515D01*
X37552156Y-14506504D01*
X37622515Y-14520499D01*
X37622519Y-14520500D01*
X37622520Y-14520500D01*
X38077481Y-14520500D01*
X38077482Y-14520499D01*
X38278503Y-14480515D01*
X38467862Y-14402080D01*
X38638280Y-14288209D01*
X38783209Y-14143280D01*
X38897080Y-13972862D01*
X38975515Y-13783503D01*
X39015500Y-13582480D01*
X39015500Y-13377520D01*
X38975515Y-13176497D01*
X38904428Y-13004877D01*
X38897081Y-12987140D01*
X38883971Y-12967520D01*
X38783209Y-12816720D01*
X38783206Y-12816716D01*
X38638283Y-12671793D01*
X38638279Y-12671790D01*
X38467859Y-12557918D01*
X38278505Y-12479486D01*
X38278506Y-12479486D01*
X38278503Y-12479485D01*
X38278499Y-12479484D01*
X38278495Y-12479483D01*
X38077484Y-12439500D01*
X38077480Y-12439500D01*
X37622520Y-12439500D01*
X37622515Y-12439500D01*
X37421504Y-12479483D01*
X37421494Y-12479486D01*
X37232140Y-12557918D01*
X37061720Y-12671790D01*
X37061716Y-12671793D01*
X36947181Y-12786329D01*
X36885858Y-12819814D01*
X36816166Y-12814830D01*
X36760233Y-12772958D01*
X36735816Y-12707494D01*
X36735500Y-12698648D01*
X36735500Y-12645300D01*
X36735500Y-12645298D01*
X36707184Y-12539623D01*
X36652482Y-12444877D01*
X36575123Y-12367518D01*
X36480377Y-12312816D01*
X36374702Y-12284500D01*
X36265298Y-12284500D01*
X36159623Y-12312816D01*
X36159621Y-12312816D01*
X36159621Y-12312817D01*
X36064877Y-12367518D01*
X36064874Y-12367520D01*
X35987520Y-12444874D01*
X35987518Y-12444877D01*
X35952734Y-12505125D01*
X35932816Y-12539623D01*
X35904500Y-12645298D01*
X35904500Y-12645300D01*
X35904500Y-12754699D01*
X35904499Y-12754699D01*
X33930047Y-12754699D01*
X33967184Y-12690377D01*
X33995500Y-12584702D01*
X33995500Y-12475298D01*
X33967184Y-12369623D01*
X33912482Y-12274877D01*
X33835123Y-12197518D01*
X33740377Y-12142816D01*
X33634702Y-12114500D01*
X33525298Y-12114500D01*
X33419623Y-12142816D01*
X33419621Y-12142816D01*
X33419621Y-12142817D01*
X33324877Y-12197518D01*
X33324874Y-12197520D01*
X33247520Y-12274874D01*
X33247518Y-12274877D01*
X33218007Y-12325992D01*
X33192816Y-12369623D01*
X33164500Y-12475298D01*
X33164500Y-12475300D01*
X33164500Y-12584699D01*
X33164499Y-12584699D01*
X33167226Y-12594877D01*
X33192613Y-12689621D01*
X33193391Y-12692521D01*
X33191728Y-12762371D01*
X33152566Y-12820234D01*
X33105710Y-12844390D01*
X33105299Y-12844500D01*
X33105298Y-12844500D01*
X32999623Y-12872816D01*
X32999621Y-12872816D01*
X32999621Y-12872817D01*
X32904877Y-12927518D01*
X32904874Y-12927520D01*
X32827520Y-13004874D01*
X32827518Y-13004877D01*
X32804426Y-13044874D01*
X32772816Y-13099623D01*
X32744500Y-13205298D01*
X32744500Y-13205300D01*
X32744500Y-13314699D01*
X32744499Y-13314699D01*
X31492906Y-13314699D01*
X31552482Y-13255123D01*
X31607184Y-13160377D01*
X31635500Y-13054702D01*
X31635500Y-12945298D01*
X31607184Y-12839623D01*
X31602494Y-12831499D01*
X31586023Y-12763599D01*
X31608875Y-12697572D01*
X31663797Y-12654382D01*
X31709882Y-12645500D01*
X31714699Y-12645500D01*
X31714702Y-12645500D01*
X31820377Y-12617184D01*
X31915123Y-12562482D01*
X31992482Y-12485123D01*
X32047184Y-12390377D01*
X32075500Y-12284702D01*
X32075500Y-12175298D01*
X32047184Y-12069623D01*
X31992482Y-11974877D01*
X31915123Y-11897518D01*
X31820377Y-11842816D01*
X31714702Y-11814500D01*
X31605298Y-11814500D01*
X31499623Y-11842816D01*
X31499621Y-11842816D01*
X31499621Y-11842817D01*
X31404877Y-11897518D01*
X31404874Y-11897520D01*
X31327520Y-11974874D01*
X31327518Y-11974877D01*
X31272816Y-12069623D01*
X31244500Y-12175298D01*
X31244500Y-12175300D01*
X31244500Y-12258953D01*
X31224815Y-12325992D01*
X31172011Y-12371747D01*
X31102853Y-12381691D01*
X31039297Y-12352666D01*
X31032819Y-12346634D01*
X29020884Y-10334699D01*
X29994499Y-10334699D01*
X29996229Y-10341155D01*
X30022816Y-10440377D01*
X30077518Y-10535123D01*
X30154877Y-10612482D01*
X30249623Y-10667184D01*
X30355298Y-10695500D01*
X30355301Y-10695500D01*
X30464699Y-10695500D01*
X30464702Y-10695500D01*
X30570377Y-10667184D01*
X30665123Y-10612482D01*
X30742482Y-10535123D01*
X30797184Y-10440377D01*
X30825500Y-10334702D01*
X30825500Y-10225298D01*
X30797184Y-10119623D01*
X30742482Y-10024877D01*
X30665123Y-9947518D01*
X30570377Y-9892816D01*
X30464702Y-9864500D01*
X30355298Y-9864500D01*
X30249623Y-9892816D01*
X30249621Y-9892816D01*
X30249621Y-9892817D01*
X30154877Y-9947518D01*
X30154874Y-9947520D01*
X30077520Y-10024874D01*
X30077518Y-10024877D01*
X30028154Y-10110378D01*
X30022816Y-10119623D01*
X29994500Y-10225298D01*
X29994500Y-10225300D01*
X29994500Y-10334699D01*
X29994499Y-10334699D01*
X29020884Y-10334699D01*
X28981819Y-10295634D01*
X28948334Y-10234311D01*
X28945500Y-10207953D01*
X28945500Y-9836322D01*
X28965185Y-9769283D01*
X29017989Y-9723528D01*
X29087147Y-9713584D01*
X29131501Y-9728936D01*
X29181217Y-9757640D01*
X29181218Y-9757641D01*
X29181220Y-9757641D01*
X29181223Y-9757643D01*
X29286898Y-9785959D01*
X29286901Y-9785959D01*
X29396299Y-9785959D01*
X29396302Y-9785959D01*
X29401004Y-9784699D01*
X32324499Y-9784699D01*
X32327125Y-9794500D01*
X32352816Y-9890377D01*
X32407518Y-9985123D01*
X32484877Y-10062482D01*
X32579623Y-10117184D01*
X32685298Y-10145500D01*
X32685301Y-10145500D01*
X32750500Y-10145500D01*
X32817539Y-10165185D01*
X32863294Y-10217989D01*
X32874500Y-10269500D01*
X32874500Y-10384699D01*
X32874499Y-10384699D01*
X32877339Y-10395298D01*
X32902816Y-10490377D01*
X32957518Y-10585123D01*
X33034877Y-10662482D01*
X33129623Y-10717184D01*
X33235298Y-10745500D01*
X33235301Y-10745500D01*
X33344699Y-10745500D01*
X33344702Y-10745500D01*
X33450377Y-10717184D01*
X33545123Y-10662482D01*
X33622482Y-10585123D01*
X33677184Y-10490377D01*
X33705500Y-10384702D01*
X33705500Y-10275298D01*
X33702660Y-10264699D01*
X35894499Y-10264699D01*
X35896093Y-10270647D01*
X35922816Y-10370377D01*
X35977518Y-10465123D01*
X36054877Y-10542482D01*
X36149623Y-10597184D01*
X36255298Y-10625500D01*
X36255301Y-10625500D01*
X36364699Y-10625500D01*
X36364702Y-10625500D01*
X36470377Y-10597184D01*
X36538268Y-10557986D01*
X36606166Y-10541513D01*
X36672193Y-10564364D01*
X36715385Y-10619285D01*
X36722028Y-10688838D01*
X36721886Y-10689563D01*
X36684500Y-10877521D01*
X36684500Y-11082484D01*
X36724483Y-11283495D01*
X36724486Y-11283505D01*
X36802918Y-11472859D01*
X36916790Y-11643279D01*
X36916793Y-11643283D01*
X37061716Y-11788206D01*
X37061720Y-11788209D01*
X37232138Y-11902080D01*
X37421497Y-11980515D01*
X37622515Y-12020499D01*
X37622519Y-12020500D01*
X37622520Y-12020500D01*
X38077481Y-12020500D01*
X38077482Y-12020499D01*
X38278503Y-11980515D01*
X38467862Y-11902080D01*
X38638280Y-11788209D01*
X38783209Y-11643280D01*
X38897080Y-11472862D01*
X38975515Y-11283503D01*
X39015500Y-11082480D01*
X39015500Y-10877520D01*
X38975515Y-10676497D01*
X38897080Y-10487138D01*
X38783209Y-10316720D01*
X38783206Y-10316716D01*
X38638283Y-10171793D01*
X38638279Y-10171790D01*
X38467859Y-10057918D01*
X38278505Y-9979486D01*
X38278506Y-9979486D01*
X38278503Y-9979485D01*
X38278499Y-9979484D01*
X38278495Y-9979483D01*
X38077484Y-9939500D01*
X38077480Y-9939500D01*
X37622520Y-9939500D01*
X37622515Y-9939500D01*
X37421504Y-9979483D01*
X37421494Y-9979486D01*
X37232140Y-10057918D01*
X37061720Y-10171790D01*
X37061716Y-10171793D01*
X36937181Y-10296329D01*
X36875858Y-10329814D01*
X36806166Y-10324830D01*
X36750233Y-10282958D01*
X36725816Y-10217494D01*
X36725500Y-10208648D01*
X36725500Y-10155300D01*
X36725500Y-10155298D01*
X36697184Y-10049623D01*
X36642482Y-9954877D01*
X36565123Y-9877518D01*
X36470377Y-9822816D01*
X36364702Y-9794500D01*
X36255298Y-9794500D01*
X36149623Y-9822816D01*
X36149621Y-9822816D01*
X36149621Y-9822817D01*
X36054877Y-9877518D01*
X36054874Y-9877520D01*
X35977520Y-9954874D01*
X35977518Y-9954877D01*
X35928598Y-10039609D01*
X35922816Y-10049623D01*
X35894500Y-10155298D01*
X35894500Y-10155300D01*
X35894500Y-10264699D01*
X35894499Y-10264699D01*
X33702660Y-10264699D01*
X33677184Y-10169623D01*
X33622482Y-10074877D01*
X33545123Y-9997518D01*
X33450377Y-9942816D01*
X33344702Y-9914500D01*
X33279500Y-9914500D01*
X33212461Y-9894815D01*
X33166706Y-9842011D01*
X33155500Y-9790500D01*
X33155500Y-9675300D01*
X33155500Y-9675298D01*
X33127184Y-9569623D01*
X33072482Y-9474877D01*
X32995123Y-9397518D01*
X32900377Y-9342816D01*
X32794702Y-9314500D01*
X32685298Y-9314500D01*
X32579623Y-9342816D01*
X32579621Y-9342816D01*
X32579621Y-9342817D01*
X32484877Y-9397518D01*
X32484874Y-9397520D01*
X32407520Y-9474874D01*
X32407518Y-9474877D01*
X32358213Y-9560276D01*
X32352816Y-9569623D01*
X32324500Y-9675298D01*
X32324500Y-9675300D01*
X32324500Y-9784699D01*
X32324499Y-9784699D01*
X29401004Y-9784699D01*
X29501977Y-9757643D01*
X29596723Y-9702941D01*
X29674082Y-9625582D01*
X29728784Y-9530836D01*
X29757100Y-9425161D01*
X29757100Y-9315757D01*
X29728784Y-9210082D01*
X29674082Y-9115336D01*
X29596723Y-9037977D01*
X29501977Y-8983275D01*
X29396302Y-8954959D01*
X29286898Y-8954959D01*
X29181223Y-8983275D01*
X29181221Y-8983275D01*
X29181221Y-8983276D01*
X29086477Y-9037977D01*
X29086474Y-9037979D01*
X29009120Y-9115333D01*
X29009114Y-9115342D01*
X28954273Y-9210327D01*
X28903706Y-9258542D01*
X28835099Y-9271764D01*
X28770234Y-9245796D01*
X28759206Y-9236007D01*
X27577898Y-8054699D01*
X28094499Y-8054699D01*
X28094500Y-8054702D01*
X28122816Y-8160377D01*
X28177518Y-8255123D01*
X28254877Y-8332482D01*
X28349623Y-8387184D01*
X28455298Y-8415500D01*
X28455301Y-8415500D01*
X28564699Y-8415500D01*
X28564702Y-8415500D01*
X28670377Y-8387184D01*
X28765123Y-8332482D01*
X28842482Y-8255123D01*
X28897184Y-8160377D01*
X28925500Y-8054702D01*
X28925500Y-7945298D01*
X28897184Y-7839623D01*
X28842482Y-7744877D01*
X28765123Y-7667518D01*
X28670377Y-7612816D01*
X28564702Y-7584500D01*
X28455298Y-7584500D01*
X28349623Y-7612816D01*
X28349621Y-7612816D01*
X28349621Y-7612817D01*
X28254877Y-7667518D01*
X28254874Y-7667520D01*
X28177520Y-7744874D01*
X28177518Y-7744877D01*
X28141342Y-7807536D01*
X28122816Y-7839623D01*
X28094500Y-7945298D01*
X28094500Y-7945300D01*
X28094500Y-8054699D01*
X28094499Y-8054699D01*
X27577898Y-8054699D01*
X27330737Y-7807538D01*
X27330736Y-7807537D01*
X27258793Y-7766001D01*
X27258791Y-7766000D01*
X27241832Y-7761456D01*
X27241832Y-7761455D01*
X27178551Y-7744500D01*
X27178550Y-7744500D01*
X26857762Y-7744500D01*
X26795761Y-7727887D01*
X26795124Y-7727519D01*
X26795123Y-7727518D01*
X26700377Y-7672816D01*
X26594702Y-7644500D01*
X26485298Y-7644500D01*
X26379623Y-7672816D01*
X26379621Y-7672816D01*
X26379621Y-7672817D01*
X26284877Y-7727518D01*
X26284874Y-7727520D01*
X26207520Y-7804874D01*
X26207518Y-7804877D01*
X26156941Y-7892479D01*
X26152816Y-7899623D01*
X26124500Y-8005298D01*
X26124500Y-8005300D01*
X26124500Y-8114699D01*
X26124499Y-8114699D01*
X23255600Y-8114699D01*
X23200377Y-8082816D01*
X23094702Y-8054500D01*
X22985298Y-8054500D01*
X22879623Y-8082816D01*
X22879621Y-8082816D01*
X22879621Y-8082817D01*
X22784877Y-8137518D01*
X22784874Y-8137520D01*
X22707520Y-8214874D01*
X22707518Y-8214877D01*
X22652816Y-8309623D01*
X22624500Y-8415298D01*
X22624500Y-8415300D01*
X22624500Y-8524699D01*
X22624499Y-8524699D01*
X5375500Y-8524699D01*
X5375500Y-8022351D01*
X5395185Y-7955312D01*
X5411814Y-7934674D01*
X5493209Y-7853280D01*
X5607080Y-7682862D01*
X5685515Y-7493503D01*
X5725500Y-7292480D01*
X5725500Y-7087520D01*
X5685515Y-6886497D01*
X5621567Y-6732113D01*
X5607081Y-6697140D01*
X5587289Y-6667520D01*
X5493209Y-6526720D01*
X5493206Y-6526716D01*
X5411819Y-6445329D01*
X5378334Y-6384006D01*
X5375500Y-6357648D01*
X5375500Y-5482351D01*
X5395185Y-5415312D01*
X5411814Y-5394674D01*
X5493209Y-5313280D01*
X5607080Y-5142862D01*
X5685515Y-4953503D01*
X5725500Y-4752480D01*
X5725500Y-4547520D01*
X5685515Y-4346497D01*
X5615383Y-4177184D01*
X5607081Y-4157140D01*
X5605985Y-4155500D01*
X5493209Y-3986720D01*
X5493206Y-3986716D01*
X5411819Y-3905329D01*
X5397115Y-3878401D01*
X5380523Y-3852583D01*
X5379631Y-3846382D01*
X5378334Y-3844006D01*
X5375500Y-3817648D01*
X5375500Y-3781233D01*
X6184500Y-3781233D01*
X6184500Y-5518766D01*
X6195552Y-5574328D01*
X6195552Y-5574329D01*
X6237656Y-5637342D01*
X6237657Y-5637343D01*
X6300670Y-5679447D01*
X6356233Y-5690499D01*
X6356236Y-5690500D01*
X6356238Y-5690500D01*
X8093764Y-5690500D01*
X8144233Y-5680461D01*
X8213825Y-5686688D01*
X8269002Y-5729551D01*
X8292247Y-5795441D01*
X8292280Y-5808081D01*
X8291637Y-5821341D01*
X8274500Y-5885298D01*
X8274500Y-5994702D01*
X8281896Y-6022306D01*
X8280958Y-6041672D01*
X8275603Y-6057100D01*
X8275215Y-6073427D01*
X8264385Y-6089427D01*
X8258051Y-6107680D01*
X8245206Y-6117763D01*
X8236052Y-6131289D01*
X8218289Y-6138894D01*
X8203093Y-6150825D01*
X8186834Y-6152363D01*
X8171823Y-6158792D01*
X8134269Y-6157339D01*
X8133535Y-6157409D01*
X8133329Y-6157303D01*
X8132914Y-6157287D01*
X8093763Y-6149500D01*
X8093762Y-6149500D01*
X6356238Y-6149500D01*
X6356235Y-6149500D01*
X6300671Y-6160552D01*
X6300670Y-6160552D01*
X6237657Y-6202656D01*
X6237656Y-6202657D01*
X6195552Y-6265670D01*
X6195552Y-6265671D01*
X6184500Y-6321233D01*
X6184500Y-8058766D01*
X6195552Y-8114328D01*
X6195552Y-8114329D01*
X6237656Y-8177342D01*
X6237657Y-8177343D01*
X6300670Y-8219447D01*
X6356233Y-8230499D01*
X6356236Y-8230500D01*
X6356238Y-8230500D01*
X8093764Y-8230500D01*
X8093765Y-8230499D01*
X8149329Y-8219447D01*
X8212343Y-8177343D01*
X8254447Y-8114329D01*
X8265500Y-8058762D01*
X8265500Y-7614699D01*
X17424499Y-7614699D01*
X17424500Y-7614702D01*
X17452816Y-7720377D01*
X17507518Y-7815123D01*
X17584877Y-7892482D01*
X17679623Y-7947184D01*
X17785298Y-7975500D01*
X17785301Y-7975500D01*
X17894699Y-7975500D01*
X17894702Y-7975500D01*
X18000377Y-7947184D01*
X18095123Y-7892482D01*
X18172482Y-7815123D01*
X18227184Y-7720377D01*
X18249245Y-7638043D01*
X18285609Y-7578385D01*
X18348456Y-7547856D01*
X18417831Y-7556151D01*
X18471709Y-7600636D01*
X18488792Y-7638042D01*
X18502816Y-7690377D01*
X18557518Y-7785123D01*
X18634877Y-7862482D01*
X18729623Y-7917184D01*
X18835298Y-7945500D01*
X18835301Y-7945500D01*
X18944699Y-7945500D01*
X18944702Y-7945500D01*
X19050377Y-7917184D01*
X19145123Y-7862482D01*
X19222482Y-7785123D01*
X19263142Y-7714699D01*
X23684499Y-7714699D01*
X23686021Y-7720378D01*
X23712816Y-7820377D01*
X23767518Y-7915123D01*
X23844877Y-7992482D01*
X23939623Y-8047184D01*
X24045298Y-8075500D01*
X24045301Y-8075500D01*
X24154699Y-8075500D01*
X24154702Y-8075500D01*
X24260377Y-8047184D01*
X24355123Y-7992482D01*
X24432482Y-7915123D01*
X24487184Y-7820377D01*
X24515500Y-7714702D01*
X24515500Y-7605298D01*
X24515500Y-7597170D01*
X24516879Y-7597170D01*
X24526315Y-7536653D01*
X24572694Y-7484396D01*
X24638490Y-7465500D01*
X24674699Y-7465500D01*
X24674702Y-7465500D01*
X24780377Y-7437184D01*
X24875123Y-7382482D01*
X24952482Y-7305123D01*
X25007184Y-7210377D01*
X25030142Y-7124699D01*
X27024499Y-7124699D01*
X27024500Y-7124702D01*
X27052816Y-7230377D01*
X27107518Y-7325123D01*
X27184877Y-7402482D01*
X27279623Y-7457184D01*
X27385298Y-7485500D01*
X27385301Y-7485500D01*
X27494699Y-7485500D01*
X27494702Y-7485500D01*
X27600377Y-7457184D01*
X27695123Y-7402482D01*
X27772482Y-7325123D01*
X27827184Y-7230377D01*
X27855500Y-7124702D01*
X27855500Y-7054699D01*
X32354499Y-7054699D01*
X32354500Y-7054702D01*
X32382816Y-7160377D01*
X32437518Y-7255123D01*
X32514877Y-7332482D01*
X32609623Y-7387184D01*
X32715298Y-7415500D01*
X32715301Y-7415500D01*
X32824700Y-7415500D01*
X32824702Y-7415500D01*
X32824703Y-7415499D01*
X32832757Y-7414439D01*
X32833026Y-7416486D01*
X32891840Y-7417877D01*
X32949709Y-7457030D01*
X32977224Y-7521253D01*
X32965649Y-7590158D01*
X32961490Y-7597995D01*
X32902817Y-7699619D01*
X32902816Y-7699623D01*
X32874500Y-7805298D01*
X32874500Y-7805300D01*
X32874500Y-7914699D01*
X32874499Y-7914699D01*
X32875165Y-7917184D01*
X32902816Y-8020377D01*
X32957518Y-8115123D01*
X33034877Y-8192482D01*
X33129623Y-8247184D01*
X33235298Y-8275500D01*
X33235301Y-8275500D01*
X33344699Y-8275500D01*
X33344702Y-8275500D01*
X33450377Y-8247184D01*
X33545123Y-8192482D01*
X33622482Y-8115123D01*
X33677184Y-8020377D01*
X33705500Y-7914702D01*
X33705500Y-7805298D01*
X33702660Y-7794699D01*
X35894499Y-7794699D01*
X35894500Y-7794702D01*
X35922816Y-7900377D01*
X35977518Y-7995123D01*
X36054877Y-8072482D01*
X36149623Y-8127184D01*
X36255298Y-8155500D01*
X36255301Y-8155500D01*
X36364699Y-8155500D01*
X36364702Y-8155500D01*
X36470377Y-8127184D01*
X36470379Y-8127182D01*
X36470381Y-8127182D01*
X36470382Y-8127181D01*
X36492002Y-8114699D01*
X36531525Y-8091880D01*
X36599424Y-8075406D01*
X36665452Y-8098258D01*
X36708643Y-8153178D01*
X36715285Y-8222732D01*
X36715144Y-8223456D01*
X36684500Y-8377521D01*
X36684500Y-8582484D01*
X36724483Y-8783495D01*
X36724486Y-8783505D01*
X36802918Y-8972859D01*
X36916790Y-9143279D01*
X36916793Y-9143283D01*
X37061716Y-9288206D01*
X37061720Y-9288209D01*
X37232138Y-9402080D01*
X37421497Y-9480515D01*
X37607528Y-9517518D01*
X37622515Y-9520499D01*
X37622519Y-9520500D01*
X37622520Y-9520500D01*
X38077481Y-9520500D01*
X38077482Y-9520499D01*
X38278503Y-9480515D01*
X38467862Y-9402080D01*
X38638280Y-9288209D01*
X38783209Y-9143280D01*
X38897080Y-8972862D01*
X38975515Y-8783503D01*
X39015500Y-8582480D01*
X39015500Y-8377520D01*
X38975515Y-8176497D01*
X38904602Y-8005298D01*
X38897081Y-7987140D01*
X38889303Y-7975500D01*
X38783209Y-7816720D01*
X38783206Y-7816716D01*
X38638283Y-7671793D01*
X38638279Y-7671790D01*
X38467859Y-7557918D01*
X38302348Y-7489362D01*
X38278503Y-7479485D01*
X38278499Y-7479484D01*
X38278495Y-7479483D01*
X38077484Y-7439500D01*
X38077480Y-7439500D01*
X37622520Y-7439500D01*
X37622515Y-7439500D01*
X37421504Y-7479483D01*
X37421494Y-7479486D01*
X37232140Y-7557918D01*
X37061720Y-7671790D01*
X37061716Y-7671793D01*
X36937181Y-7796329D01*
X36875858Y-7829814D01*
X36806166Y-7824830D01*
X36750233Y-7782958D01*
X36725816Y-7717494D01*
X36725500Y-7708648D01*
X36725500Y-7685300D01*
X36725500Y-7685298D01*
X36697184Y-7579623D01*
X36642482Y-7484877D01*
X36565123Y-7407518D01*
X36470377Y-7352816D01*
X36364702Y-7324500D01*
X36255298Y-7324500D01*
X36149623Y-7352816D01*
X36149621Y-7352816D01*
X36149621Y-7352817D01*
X36054877Y-7407518D01*
X36054874Y-7407520D01*
X35977520Y-7484874D01*
X35977518Y-7484877D01*
X35926941Y-7572479D01*
X35922816Y-7579623D01*
X35894500Y-7685298D01*
X35894500Y-7685300D01*
X35894500Y-7794699D01*
X35894499Y-7794699D01*
X33702660Y-7794699D01*
X33679602Y-7708648D01*
X33677184Y-7699624D01*
X33677184Y-7699623D01*
X33671846Y-7690377D01*
X33622482Y-7604877D01*
X33545123Y-7527518D01*
X33450377Y-7472816D01*
X33344702Y-7444500D01*
X33235298Y-7444500D01*
X33235295Y-7444500D01*
X33227243Y-7445561D01*
X33226974Y-7443518D01*
X33168132Y-7442114D01*
X33110272Y-7402948D01*
X33082772Y-7338717D01*
X33094363Y-7269816D01*
X33098509Y-7262003D01*
X33102480Y-7255124D01*
X33102482Y-7255123D01*
X33157184Y-7160377D01*
X33185500Y-7054702D01*
X33185500Y-6945298D01*
X33157184Y-6839623D01*
X33102482Y-6744877D01*
X33025123Y-6667518D01*
X32930377Y-6612816D01*
X32824702Y-6584500D01*
X32715298Y-6584500D01*
X32609623Y-6612816D01*
X32609621Y-6612816D01*
X32609621Y-6612817D01*
X32514877Y-6667518D01*
X32514874Y-6667520D01*
X32437520Y-6744874D01*
X32437518Y-6744877D01*
X32382816Y-6839623D01*
X32354500Y-6945298D01*
X32354500Y-6945300D01*
X32354500Y-7054699D01*
X32354499Y-7054699D01*
X27855500Y-7054699D01*
X27855500Y-7015298D01*
X27827184Y-6909623D01*
X27772482Y-6814877D01*
X27695123Y-6737518D01*
X27600377Y-6682816D01*
X27494702Y-6654500D01*
X27385298Y-6654500D01*
X27279623Y-6682816D01*
X27279621Y-6682816D01*
X27279621Y-6682817D01*
X27184877Y-6737518D01*
X27184874Y-6737520D01*
X27107520Y-6814874D01*
X27107518Y-6814877D01*
X27052816Y-6909623D01*
X27024500Y-7015298D01*
X27024500Y-7015300D01*
X27024500Y-7124699D01*
X27024499Y-7124699D01*
X25030142Y-7124699D01*
X25035500Y-7104702D01*
X25035500Y-6995298D01*
X25007184Y-6889623D01*
X24952482Y-6794877D01*
X24875123Y-6717518D01*
X24780377Y-6662816D01*
X24674702Y-6634500D01*
X24565298Y-6634500D01*
X24459623Y-6662816D01*
X24459621Y-6662816D01*
X24459621Y-6662817D01*
X24364877Y-6717518D01*
X24364874Y-6717520D01*
X24287520Y-6794874D01*
X24287518Y-6794877D01*
X24234623Y-6886494D01*
X24232816Y-6889623D01*
X24204500Y-6995298D01*
X24204500Y-6995300D01*
X24204500Y-7112830D01*
X24203121Y-7112830D01*
X24193685Y-7173347D01*
X24147306Y-7225604D01*
X24081510Y-7244500D01*
X24045298Y-7244500D01*
X23939623Y-7272816D01*
X23939621Y-7272816D01*
X23939621Y-7272817D01*
X23844877Y-7327518D01*
X23844874Y-7327520D01*
X23767520Y-7404874D01*
X23767518Y-7404877D01*
X23728293Y-7472817D01*
X23712816Y-7499623D01*
X23684500Y-7605298D01*
X23684500Y-7605300D01*
X23684500Y-7714699D01*
X23684499Y-7714699D01*
X19263142Y-7714699D01*
X19277184Y-7690377D01*
X19305500Y-7584702D01*
X19305500Y-7475298D01*
X19277184Y-7369623D01*
X19233926Y-7294699D01*
X19884499Y-7294699D01*
X19884500Y-7294702D01*
X19912816Y-7400377D01*
X19967518Y-7495123D01*
X20044877Y-7572482D01*
X20139623Y-7627184D01*
X20245298Y-7655500D01*
X20245301Y-7655500D01*
X20354699Y-7655500D01*
X20354702Y-7655500D01*
X20460377Y-7627184D01*
X20555123Y-7572482D01*
X20632482Y-7495123D01*
X20687184Y-7400377D01*
X20715500Y-7294702D01*
X20715500Y-7185298D01*
X20687184Y-7079623D01*
X20670947Y-7051501D01*
X20654474Y-6983602D01*
X20677325Y-6917575D01*
X20732246Y-6874383D01*
X20778334Y-6865500D01*
X20804699Y-6865500D01*
X20804702Y-6865500D01*
X20910377Y-6837184D01*
X21005123Y-6782482D01*
X21005124Y-6782480D01*
X21012161Y-6778418D01*
X21013357Y-6780490D01*
X21067149Y-6759687D01*
X21135596Y-6773717D01*
X21184870Y-6821255D01*
X21227518Y-6895123D01*
X21304877Y-6972482D01*
X21399623Y-7027184D01*
X21505298Y-7055500D01*
X21505301Y-7055500D01*
X21614699Y-7055500D01*
X21614702Y-7055500D01*
X21720377Y-7027184D01*
X21815123Y-6972482D01*
X21892482Y-6895123D01*
X21947184Y-6800377D01*
X21975500Y-6694702D01*
X21975500Y-6585298D01*
X21947184Y-6479623D01*
X21892482Y-6384877D01*
X21815123Y-6307518D01*
X21720377Y-6252816D01*
X21614702Y-6224500D01*
X21505298Y-6224500D01*
X21399623Y-6252816D01*
X21304877Y-6307518D01*
X21304875Y-6307519D01*
X21297839Y-6311582D01*
X21296645Y-6309514D01*
X21242808Y-6330315D01*
X21174366Y-6316263D01*
X21125129Y-6268743D01*
X21082484Y-6194880D01*
X21082479Y-6194874D01*
X21005125Y-6117520D01*
X21005123Y-6117518D01*
X20910377Y-6062816D01*
X20804702Y-6034500D01*
X20695298Y-6034500D01*
X20589623Y-6062816D01*
X20589621Y-6062816D01*
X20589621Y-6062817D01*
X20494877Y-6117518D01*
X20494874Y-6117520D01*
X20417520Y-6194874D01*
X20417518Y-6194877D01*
X20376035Y-6266728D01*
X20362816Y-6289623D01*
X20334500Y-6395298D01*
X20334500Y-6395300D01*
X20334500Y-6504699D01*
X20334499Y-6504699D01*
X20362817Y-6610379D01*
X20379052Y-6638498D01*
X20395526Y-6706398D01*
X20372675Y-6772425D01*
X20317754Y-6815617D01*
X20271666Y-6824500D01*
X20245298Y-6824500D01*
X20139623Y-6852816D01*
X20139621Y-6852816D01*
X20139621Y-6852817D01*
X20044877Y-6907518D01*
X20044874Y-6907520D01*
X19967520Y-6984874D01*
X19967518Y-6984877D01*
X19926744Y-7055500D01*
X19912816Y-7079623D01*
X19884500Y-7185298D01*
X19884500Y-7185300D01*
X19884500Y-7294699D01*
X19884499Y-7294699D01*
X19233926Y-7294699D01*
X19222482Y-7274877D01*
X19177968Y-7230363D01*
X19144483Y-7169040D01*
X19149467Y-7099348D01*
X19191339Y-7043415D01*
X19203649Y-7035295D01*
X19229276Y-7020499D01*
X19295123Y-6982482D01*
X19372482Y-6905123D01*
X19427184Y-6810377D01*
X19455500Y-6704702D01*
X19455500Y-6595298D01*
X19427184Y-6489623D01*
X19372482Y-6394877D01*
X19295123Y-6317518D01*
X19200377Y-6262816D01*
X19094702Y-6234500D01*
X18985298Y-6234500D01*
X18879623Y-6262816D01*
X18879621Y-6262816D01*
X18879621Y-6262817D01*
X18784877Y-6317518D01*
X18784874Y-6317520D01*
X18707520Y-6394874D01*
X18707518Y-6394877D01*
X18658590Y-6479623D01*
X18652816Y-6489623D01*
X18624500Y-6595298D01*
X18624500Y-6595300D01*
X18624500Y-6704699D01*
X18624499Y-6704699D01*
X18624500Y-6704702D01*
X18652816Y-6810377D01*
X18707518Y-6905123D01*
X18707520Y-6905125D01*
X18752031Y-6949636D01*
X18785516Y-7010959D01*
X18780532Y-7080651D01*
X18738660Y-7136584D01*
X18726352Y-7144703D01*
X18634880Y-7197516D01*
X18634874Y-7197520D01*
X18557520Y-7274874D01*
X18557518Y-7274877D01*
X18502815Y-7369623D01*
X18502815Y-7369624D01*
X18480754Y-7451955D01*
X18444389Y-7511615D01*
X18381542Y-7542143D01*
X18312166Y-7533848D01*
X18258289Y-7489362D01*
X18241207Y-7451958D01*
X18227184Y-7399623D01*
X18172482Y-7304877D01*
X18095123Y-7227518D01*
X18000377Y-7172816D01*
X17894702Y-7144500D01*
X17785298Y-7144500D01*
X17679623Y-7172816D01*
X17679621Y-7172816D01*
X17679621Y-7172817D01*
X17584877Y-7227518D01*
X17584874Y-7227520D01*
X17507520Y-7304874D01*
X17507518Y-7304877D01*
X17452816Y-7399623D01*
X17424500Y-7505298D01*
X17424500Y-7505300D01*
X17424500Y-7614699D01*
X17424499Y-7614699D01*
X8265500Y-7614699D01*
X8265500Y-6389466D01*
X8285185Y-6322427D01*
X8337989Y-6276672D01*
X8407147Y-6266728D01*
X8451501Y-6282080D01*
X8529617Y-6327181D01*
X8529618Y-6327182D01*
X8529620Y-6327182D01*
X8529623Y-6327184D01*
X8635298Y-6355500D01*
X8635301Y-6355500D01*
X8744699Y-6355500D01*
X8744702Y-6355500D01*
X8850377Y-6327184D01*
X8945123Y-6272482D01*
X9002906Y-6214699D01*
X15684499Y-6214699D01*
X15684500Y-6214702D01*
X15712816Y-6320377D01*
X15767518Y-6415123D01*
X15844877Y-6492482D01*
X15939623Y-6547184D01*
X16045298Y-6575500D01*
X16045301Y-6575500D01*
X16154699Y-6575500D01*
X16154702Y-6575500D01*
X16260377Y-6547184D01*
X16355123Y-6492482D01*
X16432482Y-6415123D01*
X16487184Y-6320377D01*
X16515500Y-6214702D01*
X16515500Y-6105298D01*
X16487184Y-5999623D01*
X16455473Y-5944699D01*
X29844499Y-5944699D01*
X29844500Y-5944702D01*
X29872816Y-6050377D01*
X29927518Y-6145123D01*
X30004877Y-6222482D01*
X30099623Y-6277184D01*
X30205298Y-6305500D01*
X30205301Y-6305500D01*
X30314699Y-6305500D01*
X30314702Y-6305500D01*
X30420377Y-6277184D01*
X30515123Y-6222482D01*
X30592482Y-6145123D01*
X30647184Y-6050377D01*
X30675500Y-5944702D01*
X30675500Y-5835298D01*
X30647184Y-5729623D01*
X30592482Y-5634877D01*
X30515123Y-5557518D01*
X30420377Y-5502816D01*
X30314702Y-5474500D01*
X30205298Y-5474500D01*
X30099623Y-5502816D01*
X30099621Y-5502816D01*
X30099621Y-5502817D01*
X30004877Y-5557518D01*
X30004874Y-5557520D01*
X29927520Y-5634874D01*
X29927518Y-5634877D01*
X29872858Y-5729551D01*
X29872816Y-5729623D01*
X29844500Y-5835298D01*
X29844500Y-5835300D01*
X29844500Y-5944699D01*
X29844499Y-5944699D01*
X16455473Y-5944699D01*
X16432482Y-5904877D01*
X16355123Y-5827518D01*
X16260377Y-5772816D01*
X16154702Y-5744500D01*
X16045298Y-5744500D01*
X15939623Y-5772816D01*
X15939621Y-5772816D01*
X15939621Y-5772817D01*
X15844877Y-5827518D01*
X15844874Y-5827520D01*
X15767520Y-5904874D01*
X15767518Y-5904877D01*
X15712816Y-5999623D01*
X15684500Y-6105298D01*
X15684500Y-6105300D01*
X15684500Y-6214699D01*
X15684499Y-6214699D01*
X9002906Y-6214699D01*
X9022482Y-6195123D01*
X9077184Y-6100377D01*
X9105500Y-5994702D01*
X9105500Y-5885298D01*
X9077184Y-5779623D01*
X9022482Y-5684877D01*
X8945123Y-5607518D01*
X8850377Y-5552816D01*
X8744702Y-5524500D01*
X8635298Y-5524500D01*
X8546507Y-5548292D01*
X8529619Y-5552817D01*
X8451500Y-5597920D01*
X8445598Y-5599351D01*
X8441011Y-5603327D01*
X8412046Y-5607491D01*
X8383600Y-5614393D01*
X8377861Y-5612407D01*
X8371853Y-5613271D01*
X8345233Y-5601114D01*
X8317573Y-5591541D01*
X8313819Y-5586768D01*
X8308297Y-5584246D01*
X8292474Y-5559625D01*
X8274382Y-5536619D01*
X8272965Y-5529268D01*
X8270523Y-5525468D01*
X8266099Y-5494699D01*
X9584499Y-5494699D01*
X9584500Y-5494702D01*
X9612816Y-5600377D01*
X9667518Y-5695123D01*
X9744877Y-5772482D01*
X9839623Y-5827184D01*
X9945298Y-5855500D01*
X9945301Y-5855500D01*
X10054699Y-5855500D01*
X10054702Y-5855500D01*
X10160377Y-5827184D01*
X10255123Y-5772482D01*
X10332482Y-5695123D01*
X10387184Y-5600377D01*
X10415500Y-5494702D01*
X10415500Y-5412467D01*
X10435185Y-5345428D01*
X10487989Y-5299673D01*
X10557147Y-5289729D01*
X10620703Y-5318754D01*
X10627181Y-5324786D01*
X10654877Y-5352482D01*
X10749623Y-5407184D01*
X10855298Y-5435500D01*
X10855301Y-5435500D01*
X10964699Y-5435500D01*
X10964702Y-5435500D01*
X11070377Y-5407184D01*
X11165123Y-5352482D01*
X11242482Y-5275123D01*
X11297184Y-5180377D01*
X11309424Y-5134699D01*
X23944499Y-5134699D01*
X23950483Y-5157030D01*
X23972816Y-5240377D01*
X24027518Y-5335123D01*
X24104877Y-5412482D01*
X24199623Y-5467184D01*
X24305298Y-5495500D01*
X24305301Y-5495500D01*
X24414699Y-5495500D01*
X24414702Y-5495500D01*
X24520377Y-5467184D01*
X24615123Y-5412482D01*
X24692482Y-5335123D01*
X24747184Y-5240377D01*
X24775500Y-5134702D01*
X24775500Y-5025298D01*
X24747184Y-4919623D01*
X24692482Y-4824877D01*
X24615123Y-4747518D01*
X24520377Y-4692816D01*
X24414702Y-4664500D01*
X24305298Y-4664500D01*
X24199623Y-4692816D01*
X24199621Y-4692816D01*
X24199621Y-4692817D01*
X24104877Y-4747518D01*
X24104874Y-4747520D01*
X24027520Y-4824874D01*
X24027518Y-4824877D01*
X23973358Y-4918685D01*
X23972816Y-4919623D01*
X23944500Y-5025298D01*
X23944500Y-5025300D01*
X23944500Y-5134699D01*
X23944499Y-5134699D01*
X11309424Y-5134699D01*
X11325500Y-5074702D01*
X11325500Y-4965298D01*
X11297184Y-4859623D01*
X11242482Y-4764877D01*
X11165123Y-4687518D01*
X11070377Y-4632816D01*
X10964702Y-4604500D01*
X10855298Y-4604500D01*
X10749623Y-4632816D01*
X10749621Y-4632816D01*
X10749621Y-4632817D01*
X10654877Y-4687518D01*
X10654874Y-4687520D01*
X10577520Y-4764874D01*
X10577518Y-4764877D01*
X10524112Y-4857379D01*
X10522816Y-4859623D01*
X10494500Y-4965298D01*
X10494500Y-4965300D01*
X10494500Y-5047533D01*
X10474815Y-5114572D01*
X10422011Y-5160327D01*
X10352853Y-5170271D01*
X10289297Y-5141246D01*
X10282819Y-5135214D01*
X10255125Y-5107520D01*
X10255123Y-5107518D01*
X10160377Y-5052816D01*
X10054702Y-5024500D01*
X9945298Y-5024500D01*
X9839623Y-5052816D01*
X9839621Y-5052816D01*
X9839621Y-5052817D01*
X9744877Y-5107518D01*
X9744874Y-5107520D01*
X9667520Y-5184874D01*
X9667518Y-5184877D01*
X9632633Y-5245300D01*
X9612816Y-5279623D01*
X9584500Y-5385298D01*
X9584500Y-5385300D01*
X9584500Y-5494699D01*
X9584499Y-5494699D01*
X8266099Y-5494699D01*
X8265500Y-5490533D01*
X8265500Y-4544699D01*
X32204499Y-4544699D01*
X32204500Y-4544702D01*
X32232816Y-4650377D01*
X32287518Y-4745123D01*
X32364877Y-4822482D01*
X32459623Y-4877184D01*
X32565298Y-4905500D01*
X32565301Y-4905500D01*
X32674699Y-4905500D01*
X32674702Y-4905500D01*
X32780377Y-4877184D01*
X32790535Y-4871318D01*
X32858435Y-4854843D01*
X32924463Y-4877692D01*
X32967656Y-4932612D01*
X32974300Y-5002165D01*
X32959927Y-5040703D01*
X32902817Y-5139619D01*
X32902816Y-5139623D01*
X32874500Y-5245298D01*
X32874500Y-5245300D01*
X32874500Y-5354699D01*
X32874499Y-5354699D01*
X32874500Y-5354702D01*
X32902816Y-5460377D01*
X32957518Y-5555123D01*
X33034877Y-5632482D01*
X33129623Y-5687184D01*
X33235298Y-5715500D01*
X33235301Y-5715500D01*
X33344699Y-5715500D01*
X33344702Y-5715500D01*
X33450377Y-5687184D01*
X33545123Y-5632482D01*
X33622482Y-5555123D01*
X33677184Y-5460377D01*
X33705500Y-5354702D01*
X33705500Y-5245298D01*
X33705339Y-5244699D01*
X35904499Y-5244699D01*
X35904500Y-5244702D01*
X35932816Y-5350377D01*
X35987518Y-5445123D01*
X36064877Y-5522482D01*
X36159623Y-5577184D01*
X36265298Y-5605500D01*
X36265301Y-5605500D01*
X36374699Y-5605500D01*
X36374702Y-5605500D01*
X36480377Y-5577184D01*
X36541465Y-5541914D01*
X36609363Y-5525441D01*
X36675390Y-5548292D01*
X36718582Y-5603213D01*
X36725225Y-5672766D01*
X36725083Y-5673492D01*
X36724486Y-5676494D01*
X36724485Y-5676497D01*
X36684501Y-5877519D01*
X36684500Y-5877522D01*
X36684500Y-6082484D01*
X36723228Y-6277184D01*
X36724485Y-6283503D01*
X36734432Y-6307518D01*
X36802918Y-6472859D01*
X36916790Y-6643279D01*
X36916793Y-6643283D01*
X37061716Y-6788206D01*
X37061720Y-6788209D01*
X37232138Y-6902080D01*
X37232139Y-6902080D01*
X37232140Y-6902081D01*
X37250348Y-6909623D01*
X37421497Y-6980515D01*
X37574553Y-7010959D01*
X37622515Y-7020499D01*
X37622519Y-7020500D01*
X37622520Y-7020500D01*
X38077481Y-7020500D01*
X38077482Y-7020499D01*
X38278503Y-6980515D01*
X38467862Y-6902080D01*
X38638280Y-6788209D01*
X38783209Y-6643280D01*
X38897080Y-6472862D01*
X38975515Y-6283503D01*
X39015500Y-6082480D01*
X39015500Y-5877520D01*
X38975515Y-5676497D01*
X38910179Y-5518762D01*
X38897081Y-5487140D01*
X38883745Y-5467182D01*
X38783209Y-5316720D01*
X38783206Y-5316716D01*
X38638283Y-5171793D01*
X38638279Y-5171790D01*
X38467859Y-5057918D01*
X38278505Y-4979486D01*
X38278506Y-4979486D01*
X38278503Y-4979485D01*
X38278499Y-4979484D01*
X38278495Y-4979483D01*
X38077484Y-4939500D01*
X38077480Y-4939500D01*
X37622520Y-4939500D01*
X37622515Y-4939500D01*
X37421504Y-4979483D01*
X37421494Y-4979486D01*
X37232140Y-5057918D01*
X37061720Y-5171790D01*
X37061716Y-5171793D01*
X36947181Y-5286329D01*
X36885858Y-5319814D01*
X36816166Y-5314830D01*
X36760233Y-5272958D01*
X36735816Y-5207494D01*
X36735500Y-5198648D01*
X36735500Y-5135300D01*
X36735500Y-5135298D01*
X36707184Y-5029623D01*
X36652482Y-4934877D01*
X36575123Y-4857518D01*
X36480377Y-4802816D01*
X36374702Y-4774500D01*
X36265298Y-4774500D01*
X36159623Y-4802816D01*
X36159621Y-4802816D01*
X36159621Y-4802817D01*
X36064877Y-4857518D01*
X36064874Y-4857520D01*
X35987520Y-4934874D01*
X35987518Y-4934877D01*
X35961765Y-4979483D01*
X35932816Y-5029623D01*
X35904500Y-5135298D01*
X35904500Y-5135300D01*
X35904500Y-5244699D01*
X35904499Y-5244699D01*
X33705339Y-5244699D01*
X33677184Y-5139623D01*
X33674638Y-5135214D01*
X33658648Y-5107518D01*
X33622482Y-5044877D01*
X33545123Y-4967518D01*
X33450377Y-4912816D01*
X33344702Y-4884500D01*
X33235298Y-4884500D01*
X33138286Y-4910494D01*
X33129619Y-4912817D01*
X33119456Y-4918685D01*
X33051556Y-4935155D01*
X32985529Y-4912302D01*
X32942340Y-4857379D01*
X32935700Y-4787826D01*
X32950073Y-4749295D01*
X32952483Y-4745122D01*
X33007184Y-4650377D01*
X33035500Y-4544702D01*
X33035500Y-4435298D01*
X33007184Y-4329623D01*
X32952482Y-4234877D01*
X32875123Y-4157518D01*
X32780377Y-4102816D01*
X32674702Y-4074500D01*
X32565298Y-4074500D01*
X32459623Y-4102816D01*
X32459621Y-4102816D01*
X32459621Y-4102817D01*
X32364877Y-4157518D01*
X32364874Y-4157520D01*
X32287520Y-4234874D01*
X32287518Y-4234877D01*
X32256727Y-4288209D01*
X32232816Y-4329623D01*
X32204500Y-4435298D01*
X32204500Y-4435300D01*
X32204500Y-4544699D01*
X32204499Y-4544699D01*
X8265500Y-4544699D01*
X8265500Y-3844699D01*
X24634499Y-3844699D01*
X24634500Y-3844702D01*
X24662816Y-3950377D01*
X24717518Y-4045123D01*
X24794877Y-4122482D01*
X24889623Y-4177184D01*
X24995298Y-4205500D01*
X24995301Y-4205500D01*
X25104699Y-4205500D01*
X25104702Y-4205500D01*
X25210377Y-4177184D01*
X25305123Y-4122482D01*
X25382482Y-4045123D01*
X25437184Y-3950377D01*
X25465500Y-3844702D01*
X25465500Y-3794699D01*
X25899499Y-3794699D01*
X25899500Y-3794702D01*
X25927816Y-3900377D01*
X25982518Y-3995123D01*
X26059877Y-4072482D01*
X26154623Y-4127184D01*
X26260298Y-4155500D01*
X26260301Y-4155500D01*
X26369699Y-4155500D01*
X26369702Y-4155500D01*
X26475377Y-4127184D01*
X26570123Y-4072482D01*
X26647482Y-3995123D01*
X26702184Y-3900377D01*
X26730500Y-3794702D01*
X26730500Y-3685298D01*
X26702184Y-3579623D01*
X26647482Y-3484877D01*
X26570123Y-3407518D01*
X26518157Y-3377515D01*
X36684500Y-3377515D01*
X36684500Y-3582484D01*
X36724483Y-3783495D01*
X36724486Y-3783505D01*
X36802918Y-3972859D01*
X36916790Y-4143279D01*
X36916793Y-4143283D01*
X37061716Y-4288206D01*
X37061720Y-4288209D01*
X37232138Y-4402080D01*
X37421497Y-4480515D01*
X37622515Y-4520499D01*
X37622519Y-4520500D01*
X37622520Y-4520500D01*
X38077481Y-4520500D01*
X38077482Y-4520499D01*
X38278503Y-4480515D01*
X38467862Y-4402080D01*
X38638280Y-4288209D01*
X38783209Y-4143280D01*
X38897080Y-3972862D01*
X38975515Y-3783503D01*
X39015500Y-3582480D01*
X39015500Y-3377520D01*
X38975515Y-3176497D01*
X38897080Y-2987138D01*
X38783209Y-2816720D01*
X38783206Y-2816716D01*
X38638283Y-2671793D01*
X38638279Y-2671790D01*
X38467859Y-2557918D01*
X38278505Y-2479486D01*
X38278506Y-2479486D01*
X38278503Y-2479485D01*
X38278499Y-2479484D01*
X38278495Y-2479483D01*
X38077484Y-2439500D01*
X38077480Y-2439500D01*
X37622520Y-2439500D01*
X37622515Y-2439500D01*
X37421504Y-2479483D01*
X37421494Y-2479486D01*
X37232140Y-2557918D01*
X37061720Y-2671790D01*
X37061716Y-2671793D01*
X36916793Y-2816716D01*
X36916790Y-2816720D01*
X36802918Y-2987140D01*
X36724486Y-3176494D01*
X36724483Y-3176504D01*
X36684500Y-3377515D01*
X26518157Y-3377515D01*
X26475377Y-3352816D01*
X26369702Y-3324500D01*
X26260298Y-3324500D01*
X26154623Y-3352816D01*
X26154621Y-3352816D01*
X26154621Y-3352817D01*
X26059877Y-3407518D01*
X26059874Y-3407520D01*
X25982520Y-3484874D01*
X25982518Y-3484877D01*
X25927816Y-3579623D01*
X25899500Y-3685298D01*
X25899500Y-3685300D01*
X25899500Y-3794699D01*
X25899499Y-3794699D01*
X25465500Y-3794699D01*
X25465500Y-3735298D01*
X25437184Y-3629623D01*
X25382482Y-3534877D01*
X25305123Y-3457518D01*
X25210377Y-3402816D01*
X25104702Y-3374500D01*
X24995298Y-3374500D01*
X24889623Y-3402816D01*
X24889621Y-3402816D01*
X24889621Y-3402817D01*
X24794877Y-3457518D01*
X24794874Y-3457520D01*
X24717520Y-3534874D01*
X24717518Y-3534877D01*
X24668053Y-3620553D01*
X24662816Y-3629623D01*
X24634500Y-3735298D01*
X24634500Y-3735300D01*
X24634500Y-3844699D01*
X24634499Y-3844699D01*
X8265500Y-3844699D01*
X8265500Y-3781239D01*
X8259557Y-3751361D01*
X8259557Y-3751358D01*
X8254447Y-3725670D01*
X8212343Y-3662657D01*
X8212342Y-3662656D01*
X8149329Y-3620552D01*
X8093765Y-3609500D01*
X8093762Y-3609500D01*
X6356238Y-3609500D01*
X6356235Y-3609500D01*
X6300671Y-3620552D01*
X6300670Y-3620552D01*
X6237657Y-3662656D01*
X6237656Y-3662657D01*
X6195552Y-3725670D01*
X6195552Y-3725671D01*
X6184500Y-3781233D01*
X5375500Y-3781233D01*
X5375500Y-2942351D01*
X5395185Y-2875312D01*
X5411814Y-2854674D01*
X5493209Y-2773280D01*
X5607080Y-2602862D01*
X5685515Y-2413503D01*
X5725500Y-2212480D01*
X5725500Y-2007520D01*
X5685515Y-1806497D01*
X5607080Y-1617138D01*
X5493209Y-1446720D01*
X5493206Y-1446716D01*
X5348283Y-1301793D01*
X5348279Y-1301790D01*
X5257650Y-1241233D01*
X6184500Y-1241233D01*
X6184500Y-2978766D01*
X6195552Y-3034328D01*
X6195552Y-3034329D01*
X6237656Y-3097342D01*
X6237657Y-3097343D01*
X6300670Y-3139447D01*
X6356233Y-3150499D01*
X6356236Y-3150500D01*
X6356238Y-3150500D01*
X8093764Y-3150500D01*
X8093765Y-3150499D01*
X8149329Y-3139447D01*
X8212343Y-3097343D01*
X8254447Y-3034329D01*
X8265500Y-2978762D01*
X8265500Y-1454699D01*
X10154499Y-1454699D01*
X10159354Y-1472816D01*
X10182816Y-1560377D01*
X10237518Y-1655123D01*
X10314877Y-1732482D01*
X10409623Y-1787184D01*
X10515298Y-1815500D01*
X10515301Y-1815500D01*
X10624699Y-1815500D01*
X10624702Y-1815500D01*
X10730377Y-1787184D01*
X10825123Y-1732482D01*
X10902482Y-1655123D01*
X10957184Y-1560377D01*
X10985500Y-1454702D01*
X10985500Y-1454699D01*
X11934499Y-1454699D01*
X11939354Y-1472816D01*
X11962816Y-1560377D01*
X12017518Y-1655123D01*
X12094877Y-1732482D01*
X12189623Y-1787184D01*
X12295298Y-1815500D01*
X12295301Y-1815500D01*
X12404699Y-1815500D01*
X12404702Y-1815500D01*
X12510377Y-1787184D01*
X12605123Y-1732482D01*
X12682482Y-1655123D01*
X12737184Y-1560377D01*
X12762821Y-1464699D01*
X14064499Y-1464699D01*
X14064500Y-1464702D01*
X14092816Y-1570377D01*
X14147518Y-1665123D01*
X14224877Y-1742482D01*
X14284652Y-1776993D01*
X14332868Y-1827560D01*
X14346091Y-1896167D01*
X14320123Y-1961032D01*
X14310334Y-1972060D01*
X14267521Y-2014873D01*
X14267518Y-2014877D01*
X14212816Y-2109623D01*
X14184500Y-2215298D01*
X14184500Y-2215300D01*
X14184500Y-2324699D01*
X14184499Y-2324699D01*
X14184500Y-2324702D01*
X14212816Y-2430377D01*
X14267518Y-2525123D01*
X14344877Y-2602482D01*
X14439623Y-2657184D01*
X14545298Y-2685500D01*
X14545301Y-2685500D01*
X14654699Y-2685500D01*
X14654702Y-2685500D01*
X14657691Y-2684699D01*
X15684999Y-2684699D01*
X15685000Y-2684702D01*
X15713316Y-2790377D01*
X15768018Y-2885123D01*
X15845377Y-2962482D01*
X15940123Y-3017184D01*
X16045798Y-3045500D01*
X16045801Y-3045500D01*
X16155199Y-3045500D01*
X16155202Y-3045500D01*
X16260877Y-3017184D01*
X16355623Y-2962482D01*
X16432982Y-2885123D01*
X16487684Y-2790377D01*
X16516000Y-2684702D01*
X16516000Y-2575298D01*
X16494403Y-2494699D01*
X18914499Y-2494699D01*
X18914500Y-2494702D01*
X18942816Y-2600377D01*
X18997518Y-2695123D01*
X19074877Y-2772482D01*
X19169623Y-2827184D01*
X19275298Y-2855500D01*
X19275301Y-2855500D01*
X19384699Y-2855500D01*
X19384702Y-2855500D01*
X19490377Y-2827184D01*
X19585123Y-2772482D01*
X19662482Y-2695123D01*
X19680047Y-2664699D01*
X25894499Y-2664699D01*
X25896400Y-2671793D01*
X25922816Y-2770377D01*
X25977518Y-2865123D01*
X26054877Y-2942482D01*
X26149623Y-2997184D01*
X26255298Y-3025500D01*
X26255301Y-3025500D01*
X26364699Y-3025500D01*
X26364702Y-3025500D01*
X26470377Y-2997184D01*
X26565123Y-2942482D01*
X26632906Y-2874699D01*
X32874499Y-2874699D01*
X32874500Y-2874702D01*
X32902816Y-2980377D01*
X32957518Y-3075123D01*
X33034877Y-3152482D01*
X33129623Y-3207184D01*
X33235298Y-3235500D01*
X33235301Y-3235500D01*
X33344699Y-3235500D01*
X33344702Y-3235500D01*
X33450377Y-3207184D01*
X33545123Y-3152482D01*
X33622482Y-3075123D01*
X33677184Y-2980377D01*
X33705500Y-2874702D01*
X33705500Y-2765298D01*
X33677184Y-2659623D01*
X33622482Y-2564877D01*
X33545123Y-2487518D01*
X33450377Y-2432816D01*
X33344702Y-2404500D01*
X33235298Y-2404500D01*
X33129623Y-2432816D01*
X33129621Y-2432816D01*
X33129621Y-2432817D01*
X33034877Y-2487518D01*
X33034874Y-2487520D01*
X32957520Y-2564874D01*
X32957518Y-2564877D01*
X32902816Y-2659623D01*
X32874500Y-2765298D01*
X32874500Y-2765300D01*
X32874500Y-2874699D01*
X32874499Y-2874699D01*
X26632906Y-2874699D01*
X26642482Y-2865123D01*
X26697184Y-2770377D01*
X26725500Y-2664702D01*
X26725500Y-2555298D01*
X26697184Y-2449623D01*
X26642482Y-2354877D01*
X26565123Y-2277518D01*
X26470377Y-2222816D01*
X26364702Y-2194500D01*
X26255298Y-2194500D01*
X26149623Y-2222816D01*
X26149621Y-2222816D01*
X26149621Y-2222817D01*
X26054877Y-2277518D01*
X26054874Y-2277520D01*
X25977520Y-2354874D01*
X25977518Y-2354877D01*
X25928661Y-2439500D01*
X25922816Y-2449623D01*
X25894500Y-2555298D01*
X25894500Y-2555300D01*
X25894500Y-2664699D01*
X25894499Y-2664699D01*
X19680047Y-2664699D01*
X19717184Y-2600377D01*
X19745500Y-2494702D01*
X19745500Y-2385298D01*
X19717184Y-2279623D01*
X19662482Y-2184877D01*
X19585123Y-2107518D01*
X19490377Y-2052816D01*
X19384702Y-2024500D01*
X19275298Y-2024500D01*
X19169623Y-2052816D01*
X19169621Y-2052816D01*
X19169621Y-2052817D01*
X19074877Y-2107518D01*
X19074874Y-2107520D01*
X18997520Y-2184874D01*
X18997518Y-2184877D01*
X18942816Y-2279623D01*
X18914500Y-2385298D01*
X18914500Y-2385300D01*
X18914500Y-2494699D01*
X18914499Y-2494699D01*
X16494403Y-2494699D01*
X16487684Y-2469623D01*
X16487682Y-2469620D01*
X16487682Y-2469618D01*
X16487681Y-2469617D01*
X16470104Y-2439173D01*
X16470102Y-2439171D01*
X16432982Y-2374877D01*
X16355623Y-2297518D01*
X16260877Y-2242816D01*
X16155202Y-2214500D01*
X16045798Y-2214500D01*
X15940123Y-2242816D01*
X15940121Y-2242816D01*
X15940121Y-2242817D01*
X15845377Y-2297518D01*
X15845374Y-2297520D01*
X15768020Y-2374874D01*
X15768018Y-2374877D01*
X15730898Y-2439171D01*
X15713316Y-2469623D01*
X15685000Y-2575298D01*
X15685000Y-2575300D01*
X15685000Y-2684699D01*
X15684999Y-2684699D01*
X14657691Y-2684699D01*
X14760377Y-2657184D01*
X14855123Y-2602482D01*
X14932482Y-2525123D01*
X14987184Y-2430377D01*
X15015500Y-2324702D01*
X15015500Y-2215298D01*
X14987184Y-2109623D01*
X14932482Y-2014877D01*
X14855123Y-1937518D01*
X14832921Y-1924699D01*
X22024499Y-1924699D01*
X22024500Y-1924702D01*
X22052816Y-2030377D01*
X22107518Y-2125123D01*
X22184877Y-2202482D01*
X22279623Y-2257184D01*
X22385298Y-2285500D01*
X22385301Y-2285500D01*
X22494699Y-2285500D01*
X22494702Y-2285500D01*
X22600377Y-2257184D01*
X22695123Y-2202482D01*
X22772482Y-2125123D01*
X22827184Y-2030377D01*
X22855500Y-1924702D01*
X22855500Y-1914699D01*
X23544499Y-1914699D01*
X23550483Y-1937030D01*
X23572816Y-2020377D01*
X23627518Y-2115123D01*
X23704877Y-2192482D01*
X23799623Y-2247184D01*
X23905298Y-2275500D01*
X23905301Y-2275500D01*
X24014699Y-2275500D01*
X24014702Y-2275500D01*
X24120377Y-2247184D01*
X24215123Y-2192482D01*
X24292482Y-2115123D01*
X24347184Y-2020377D01*
X24375500Y-1914702D01*
X24375500Y-1914699D01*
X29464499Y-1914699D01*
X29470483Y-1937030D01*
X29492816Y-2020377D01*
X29547518Y-2115123D01*
X29624877Y-2192482D01*
X29719623Y-2247184D01*
X29825298Y-2275500D01*
X29825301Y-2275500D01*
X29934699Y-2275500D01*
X29934702Y-2275500D01*
X30040377Y-2247184D01*
X30135123Y-2192482D01*
X30212482Y-2115123D01*
X30267184Y-2020377D01*
X30292821Y-1924699D01*
X31004499Y-1924699D01*
X31004500Y-1924702D01*
X31032816Y-2030377D01*
X31087518Y-2125123D01*
X31164877Y-2202482D01*
X31259623Y-2257184D01*
X31365298Y-2285500D01*
X31365301Y-2285500D01*
X31474699Y-2285500D01*
X31474702Y-2285500D01*
X31580377Y-2257184D01*
X31675123Y-2202482D01*
X31752482Y-2125123D01*
X31807184Y-2030377D01*
X31835500Y-1924702D01*
X31835500Y-1815298D01*
X31807184Y-1709623D01*
X31752482Y-1614877D01*
X31675123Y-1537518D01*
X31580377Y-1482816D01*
X31474702Y-1454500D01*
X31365298Y-1454500D01*
X31259623Y-1482816D01*
X31259621Y-1482816D01*
X31259621Y-1482817D01*
X31164877Y-1537518D01*
X31164874Y-1537520D01*
X31087520Y-1614874D01*
X31087518Y-1614877D01*
X31038590Y-1699623D01*
X31032816Y-1709623D01*
X31004500Y-1815298D01*
X31004500Y-1815300D01*
X31004500Y-1924699D01*
X31004499Y-1924699D01*
X30292821Y-1924699D01*
X30295500Y-1914702D01*
X30295500Y-1805298D01*
X30267184Y-1699623D01*
X30212482Y-1604877D01*
X30135123Y-1527518D01*
X30040377Y-1472816D01*
X29934702Y-1444500D01*
X29825298Y-1444500D01*
X29719623Y-1472816D01*
X29719621Y-1472816D01*
X29719621Y-1472817D01*
X29624877Y-1527518D01*
X29624874Y-1527520D01*
X29547520Y-1604874D01*
X29547518Y-1604877D01*
X29512734Y-1665125D01*
X29492816Y-1699623D01*
X29464500Y-1805298D01*
X29464500Y-1805300D01*
X29464500Y-1914699D01*
X29464499Y-1914699D01*
X24375500Y-1914699D01*
X24375500Y-1805298D01*
X24347184Y-1699623D01*
X24292482Y-1604877D01*
X24215123Y-1527518D01*
X24120377Y-1472816D01*
X24014702Y-1444500D01*
X23905298Y-1444500D01*
X23799623Y-1472816D01*
X23799621Y-1472816D01*
X23799621Y-1472817D01*
X23704877Y-1527518D01*
X23704874Y-1527520D01*
X23627520Y-1604874D01*
X23627518Y-1604877D01*
X23592734Y-1665125D01*
X23572816Y-1699623D01*
X23544500Y-1805298D01*
X23544500Y-1805300D01*
X23544500Y-1914699D01*
X23544499Y-1914699D01*
X22855500Y-1914699D01*
X22855500Y-1815298D01*
X22827184Y-1709623D01*
X22772482Y-1614877D01*
X22695123Y-1537518D01*
X22600377Y-1482816D01*
X22494702Y-1454500D01*
X22385298Y-1454500D01*
X22279623Y-1482816D01*
X22279621Y-1482816D01*
X22279621Y-1482817D01*
X22184877Y-1537518D01*
X22184874Y-1537520D01*
X22107520Y-1614874D01*
X22107518Y-1614877D01*
X22058590Y-1699623D01*
X22052816Y-1709623D01*
X22024500Y-1815298D01*
X22024500Y-1815300D01*
X22024500Y-1924699D01*
X22024499Y-1924699D01*
X14832921Y-1924699D01*
X14815353Y-1914556D01*
X14795347Y-1903006D01*
X14747132Y-1852439D01*
X14733908Y-1783832D01*
X14759876Y-1718967D01*
X14769659Y-1707945D01*
X14812482Y-1665123D01*
X14867184Y-1570377D01*
X14895500Y-1464702D01*
X14895500Y-1355298D01*
X14867184Y-1249623D01*
X14812482Y-1154877D01*
X14735123Y-1077518D01*
X14640377Y-1022816D01*
X14534702Y-994500D01*
X14425298Y-994500D01*
X14319623Y-1022816D01*
X14319621Y-1022816D01*
X14319621Y-1022817D01*
X14224877Y-1077518D01*
X14224874Y-1077520D01*
X14147520Y-1154874D01*
X14147518Y-1154877D01*
X14098590Y-1239623D01*
X14092816Y-1249623D01*
X14064500Y-1355298D01*
X14064500Y-1355300D01*
X14064500Y-1464699D01*
X14064499Y-1464699D01*
X12762821Y-1464699D01*
X12765500Y-1454702D01*
X12765500Y-1345298D01*
X12737184Y-1239623D01*
X12682482Y-1144877D01*
X12605123Y-1067518D01*
X12510377Y-1012816D01*
X12404702Y-984500D01*
X12295298Y-984500D01*
X12189623Y-1012816D01*
X12189621Y-1012816D01*
X12189621Y-1012817D01*
X12094877Y-1067518D01*
X12094874Y-1067520D01*
X12017520Y-1144874D01*
X12017518Y-1144877D01*
X11962816Y-1239623D01*
X11934500Y-1345298D01*
X11934500Y-1345300D01*
X11934500Y-1454699D01*
X11934499Y-1454699D01*
X10985500Y-1454699D01*
X10985500Y-1345298D01*
X10957184Y-1239623D01*
X10902482Y-1144877D01*
X10825123Y-1067518D01*
X10730377Y-1012816D01*
X10624702Y-984500D01*
X10515298Y-984500D01*
X10409623Y-1012816D01*
X10409621Y-1012816D01*
X10409621Y-1012817D01*
X10314877Y-1067518D01*
X10314874Y-1067520D01*
X10237520Y-1144874D01*
X10237518Y-1144877D01*
X10182816Y-1239623D01*
X10154500Y-1345298D01*
X10154500Y-1345300D01*
X10154500Y-1454699D01*
X10154499Y-1454699D01*
X8265500Y-1454699D01*
X8265500Y-1241238D01*
X8265500Y-1241235D01*
X8265499Y-1241233D01*
X8254447Y-1185671D01*
X8254447Y-1185670D01*
X8212343Y-1122657D01*
X8212342Y-1122656D01*
X8149329Y-1080552D01*
X8093765Y-1069500D01*
X8093762Y-1069500D01*
X6356238Y-1069500D01*
X6356235Y-1069500D01*
X6300671Y-1080552D01*
X6300670Y-1080552D01*
X6237657Y-1122656D01*
X6237656Y-1122657D01*
X6195552Y-1185670D01*
X6195552Y-1185671D01*
X6184500Y-1241233D01*
X5257650Y-1241233D01*
X5177859Y-1187918D01*
X4988505Y-1109486D01*
X4988506Y-1109486D01*
X4988503Y-1109485D01*
X4988499Y-1109484D01*
X4988495Y-1109483D01*
X4787484Y-1069500D01*
X4787480Y-1069500D01*
X4582520Y-1069500D01*
X4582515Y-1069500D01*
X4381504Y-1109483D01*
X4381494Y-1109486D01*
X4192140Y-1187918D01*
X4021720Y-1301790D01*
X4021716Y-1301793D01*
X3876793Y-1446716D01*
X3876790Y-1446720D01*
X3762918Y-1617140D01*
X3684486Y-1806494D01*
X3684483Y-1806504D01*
X3644500Y-2007515D01*
X3185499Y-2007515D01*
X3145515Y-1806497D01*
X3067080Y-1617138D01*
X2953209Y-1446720D01*
X2953206Y-1446716D01*
X2808283Y-1301793D01*
X2808279Y-1301790D01*
X2637859Y-1187918D01*
X2448505Y-1109486D01*
X2448506Y-1109486D01*
X2448503Y-1109485D01*
X2448499Y-1109484D01*
X2448495Y-1109483D01*
X2247484Y-1069500D01*
X2247480Y-1069500D01*
X2042520Y-1069500D01*
X2042515Y-1069500D01*
X1841504Y-1109483D01*
X1841494Y-1109486D01*
X1652140Y-1187918D01*
X1481720Y-1301790D01*
X1481716Y-1301793D01*
X1336793Y-1446716D01*
X1336790Y-1446720D01*
X1222918Y-1617140D01*
X1144486Y-1806494D01*
X1144483Y-1806504D01*
X1104500Y-2007515D01*
X500500Y-2007515D01*
X500500Y-624500D01*
X520185Y-557461D01*
X572989Y-511706D01*
X624500Y-500500D01*
X45375500Y-500500D01*
X45442539Y-520185D01*
G37*
%TD.AperFunction*%
%TD*%
M02*
