%TF.GenerationSoftware,KiCad,Pcbnew,8.0.7-8.0.7-0~ubuntu22.04.1*%
%TF.CreationDate,2024-12-11T19:39:49-06:00*%
%TF.ProjectId,elrs-lvs,656c7273-2d6c-4767-932e-6b696361645f,1*%
%TF.SameCoordinates,Original*%
%TF.FileFunction,Copper,L3,Inr*%
%TF.FilePolarity,Positive*%
%FSLAX46Y46*%
G04 Gerber Fmt 4.6, Leading zero omitted, Abs format (unit mm)*
G04 Created by KiCad (PCBNEW 8.0.7-8.0.7-0~ubuntu22.04.1) date 2024-12-11 19:39:49*
%MOMM*%
%LPD*%
G01*
G04 APERTURE LIST*
G04 Aperture macros list*
%AMRoundRect*
0 Rectangle with rounded corners*
0 $1 Rounding radius*
0 $2 $3 $4 $5 $6 $7 $8 $9 X,Y pos of 4 corners*
0 Add a 4 corners polygon primitive as box body*
4,1,4,$2,$3,$4,$5,$6,$7,$8,$9,$2,$3,0*
0 Add four circle primitives for the rounded corners*
1,1,$1+$1,$2,$3*
1,1,$1+$1,$4,$5*
1,1,$1+$1,$6,$7*
1,1,$1+$1,$8,$9*
0 Add four rect primitives between the rounded corners*
20,1,$1+$1,$2,$3,$4,$5,0*
20,1,$1+$1,$4,$5,$6,$7,0*
20,1,$1+$1,$6,$7,$8,$9,0*
20,1,$1+$1,$8,$9,$2,$3,0*%
G04 Aperture macros list end*
%TA.AperFunction,ComponentPad*%
%ADD10R,1.700000X1.700000*%
%TD*%
%TA.AperFunction,ComponentPad*%
%ADD11O,1.700000X1.700000*%
%TD*%
%TA.AperFunction,ComponentPad*%
%ADD12RoundRect,0.250000X0.725000X-0.600000X0.725000X0.600000X-0.725000X0.600000X-0.725000X-0.600000X0*%
%TD*%
%TA.AperFunction,ComponentPad*%
%ADD13O,1.950000X1.700000*%
%TD*%
%TA.AperFunction,ViaPad*%
%ADD14C,0.500000*%
%TD*%
%TA.AperFunction,ViaPad*%
%ADD15C,0.350000*%
%TD*%
%TA.AperFunction,ViaPad*%
%ADD16C,1.500000*%
%TD*%
%TA.AperFunction,Conductor*%
%ADD17C,0.250000*%
%TD*%
%TA.AperFunction,Conductor*%
%ADD18C,0.156500*%
%TD*%
%TA.AperFunction,Conductor*%
%ADD19C,1.000000*%
%TD*%
%TA.AperFunction,Conductor*%
%ADD20C,0.500000*%
%TD*%
G04 APERTURE END LIST*
D10*
%TO.N,Net-(J7-Pin_1)*%
%TO.C,J7*%
X7225000Y-17350000D03*
D11*
%TO.N,+5V*%
X4685000Y-17350000D03*
%TO.N,GND*%
X2145000Y-17350000D03*
%TD*%
D10*
%TO.N,Net-(J8-Pin_1)*%
%TO.C,J8*%
X7225000Y-19890000D03*
D11*
%TO.N,+5V*%
X4685000Y-19890000D03*
%TO.N,GND*%
X2145000Y-19890000D03*
%TD*%
D10*
%TO.N,Net-(J2-Pin_1)*%
%TO.C,J2*%
X7225000Y-4650000D03*
D11*
%TO.N,+5V*%
X4685000Y-4650000D03*
%TO.N,GND*%
X2145000Y-4650000D03*
%TD*%
D10*
%TO.N,Net-(J1-Pin_1)*%
%TO.C,J1*%
X7225000Y-2110000D03*
D11*
%TO.N,+5V*%
X4685000Y-2110000D03*
%TO.N,GND*%
X2145000Y-2110000D03*
%TD*%
D10*
%TO.N,Net-(J3-Pin_1)*%
%TO.C,J3*%
X7225000Y-7190000D03*
D11*
%TO.N,+5V*%
X4685000Y-7190000D03*
%TO.N,GND*%
X2145000Y-7190000D03*
%TD*%
D10*
%TO.N,Net-(J4-Pin_1)*%
%TO.C,J4*%
X7225000Y-9730000D03*
D11*
%TO.N,+5V*%
X4685000Y-9730000D03*
%TO.N,GND*%
X2145000Y-9730000D03*
%TD*%
D10*
%TO.N,Net-(J6-Pin_1)*%
%TO.C,J6*%
X7225000Y-14810000D03*
D11*
%TO.N,+5V*%
X4685000Y-14810000D03*
%TO.N,GND*%
X2145000Y-14810000D03*
%TD*%
D10*
%TO.N,/RGB*%
%TO.C,J11*%
X13415000Y-19880000D03*
D11*
%TO.N,/LEDPWR*%
X15955000Y-19880000D03*
%TO.N,GND*%
X18495000Y-19880000D03*
%TD*%
D12*
%TO.N,Net-(J12-Pin_1)*%
%TO.C,J12*%
X37850000Y-18480000D03*
D13*
%TO.N,Net-(J12-Pin_2)*%
X37850000Y-15980000D03*
%TO.N,Net-(J12-Pin_3)*%
X37850000Y-13480000D03*
%TO.N,Net-(J12-Pin_4)*%
X37850000Y-10980000D03*
%TO.N,Net-(J12-Pin_5)*%
X37850000Y-8480000D03*
%TO.N,Net-(J12-Pin_6)*%
X37850000Y-5980000D03*
%TO.N,Net-(J12-Pin_7)*%
X37850000Y-3480000D03*
%TD*%
D10*
%TO.N,Net-(J5-Pin_1)*%
%TO.C,J5*%
X7225000Y-12270000D03*
D11*
%TO.N,+5V*%
X4685000Y-12270000D03*
%TO.N,GND*%
X2145000Y-12270000D03*
%TD*%
D14*
%TO.N,GND*%
X36310000Y-7480000D03*
X17630000Y-14070000D03*
X14650000Y-6850000D03*
X26940000Y-8060000D03*
X27400000Y-16180000D03*
X28330000Y-17120000D03*
X19700000Y-9990000D03*
X19210000Y-12300000D03*
X29260000Y-17100000D03*
X36310000Y-17090000D03*
X29280000Y-16190000D03*
X24090000Y-2340000D03*
X29260000Y-15260000D03*
X18780000Y-10050000D03*
X20340000Y-2560000D03*
X17640000Y-12050000D03*
X29220000Y-8079999D03*
X14630000Y-4750000D03*
X21320000Y-10550000D03*
X36310000Y-4980000D03*
D15*
X28900000Y-11954620D03*
D14*
X14650000Y-4150000D03*
X27420000Y-17100000D03*
X22497184Y-2610694D03*
X30260001Y-17820000D03*
X28340000Y-16179999D03*
X28340000Y-15240000D03*
X30660000Y-20220000D03*
X36310000Y-14980000D03*
D15*
X22060000Y-7680000D03*
D14*
X14710000Y-16710000D03*
D16*
X30900000Y-3980000D03*
D14*
X16920000Y-10070000D03*
X29560000Y-10850000D03*
X17900000Y-10070000D03*
X36310000Y-2490000D03*
X18491753Y-5069381D03*
D15*
X11340000Y-18477400D03*
D14*
X13260656Y-2587861D03*
D15*
X28834999Y-13475000D03*
X14640000Y-5810000D03*
X22070000Y-6960000D03*
D14*
X36310000Y-9980000D03*
X24370929Y-8086289D03*
D15*
X27380000Y-13390000D03*
X21450000Y-14550000D03*
D14*
X19980000Y-5290000D03*
X14650000Y-3520000D03*
X17630000Y-13110000D03*
X26580000Y-10850000D03*
D15*
X27310004Y-11932750D03*
D14*
X24702501Y-18400000D03*
X27420000Y-15260000D03*
X11010000Y-10857400D03*
X12000000Y-2880000D03*
X36310000Y-12480000D03*
X19200000Y-13230000D03*
X22930000Y-5290000D03*
%TO.N,Net-(U2-VR_PA)*%
X26410000Y-14520000D03*
%TO.N,/V_DCC*%
X29910000Y-18740000D03*
X25420000Y-15350000D03*
D15*
%TO.N,+3.3V*%
X23280000Y-10550000D03*
X20960000Y-8240000D03*
D14*
X13067213Y-17184794D03*
D15*
X15180000Y-12560000D03*
D14*
X12700000Y-15100000D03*
X30290000Y-12110000D03*
D15*
X23280000Y-12050000D03*
D14*
X31840000Y-9980000D03*
D15*
X22300000Y-8840000D03*
X16669381Y-17364210D03*
D14*
X15910000Y-3440000D03*
D15*
X20450000Y-8240000D03*
D14*
X23600000Y-19839990D03*
X29180000Y-19070000D03*
X16226359Y-4301556D03*
X31511281Y-16406512D03*
X23520004Y-15180000D03*
D15*
%TO.N,/LED_RGB*%
X12200000Y-15680000D03*
X24090000Y-12160000D03*
D14*
%TO.N,/LEDPWR*%
X12200000Y-18019998D03*
%TO.N,VIN*%
X11180000Y-17390000D03*
X11045000Y-5285000D03*
D15*
%TO.N,/RESET*%
X16910000Y-4660000D03*
X12590000Y-12110000D03*
%TO.N,/SERIAL_RX*%
X25832750Y-6708971D03*
%TO.N,/LVS6*%
X14370000Y-9130000D03*
%TO.N,/LVS2*%
X19511321Y-7050000D03*
%TO.N,/SERIAL_TX*%
X25150000Y-6190000D03*
%TO.N,/LVS1*%
X20062303Y-7139202D03*
%TO.N,/LVS3*%
X18940000Y-7010000D03*
%TO.N,/LVS5*%
X16450000Y-7320000D03*
%TO.N,/BOOT*%
X11279799Y-15732510D03*
X13888981Y-14662144D03*
%TO.N,/LVS4*%
X18410000Y-7050000D03*
%TO.N,/LVS7*%
X17350000Y-1420000D03*
X17460000Y-7230000D03*
%TO.N,/VS_5V*%
X13710000Y-7580000D03*
X16950000Y-7090000D03*
%TO.N,/RADIO_NSS*%
X13940000Y-11550000D03*
X30611845Y-13359205D03*
%TO.N,/RADIO_MOSI*%
X31463331Y-15352552D03*
X13960000Y-14050000D03*
%TO.N,/RADIO_MISO*%
X31820000Y-15840000D03*
X13860703Y-13454216D03*
%TO.N,/RADIO_SCK*%
X31080000Y-14560000D03*
X14320000Y-12390000D03*
%TO.N,/RADIO_RST*%
X20871608Y-17497868D03*
%TO.N,Net-(D3-A)*%
X18040000Y-1850000D03*
%TO.N,/PWM1*%
X23960000Y-10120000D03*
X12782587Y-1372763D03*
X26160000Y-11910000D03*
D14*
%TO.N,+5V*%
X10920000Y-8110000D03*
D16*
X29300000Y-3180000D03*
D15*
%TO.N,/PWM2*%
X13400000Y-1370000D03*
%TO.N,/PWM3*%
X13170000Y-7230000D03*
%TO.N,/PWM4*%
X11110000Y-10150000D03*
%TO.N,/PWM5*%
X19264500Y-17677250D03*
X10470000Y-12970000D03*
%TO.N,/PWM6*%
X18070000Y-17609996D03*
%TO.N,/PWM7*%
X19540000Y-17170000D03*
X22073882Y-17592078D03*
%TO.N,/PWM8*%
X21470000Y-17580000D03*
X17196000Y-17660000D03*
%TO.N,/VBAT_DET*%
X33660000Y-1910000D03*
X33650000Y-4420000D03*
X33660000Y-11840000D03*
X33650000Y-6910000D03*
X33670000Y-9380000D03*
X32664430Y-16190000D03*
X13700000Y-10330000D03*
X33650000Y-16930000D03*
X33640000Y-14430000D03*
%TO.N,Net-(U3-MODE)*%
X13020000Y-5710000D03*
%TO.N,Net-(U3-FB)*%
X16250000Y-5670000D03*
%TO.N,Net-(U3-SS{slash}TR)*%
X13130000Y-6320000D03*
%TO.N,Net-(J10-Pin_4)*%
X26850000Y-4650000D03*
%TO.N,Net-(J10-Pin_3)*%
X28100000Y-4650000D03*
%TD*%
D17*
%TO.N,+3.3V*%
X20450000Y-8240000D02*
X20960000Y-8240000D01*
X30817888Y-16406512D02*
X31511281Y-16406512D01*
X15180000Y-12560000D02*
X16799033Y-14179033D01*
X23929380Y-11400620D02*
X23280000Y-12050000D01*
X22300000Y-9570000D02*
X23280000Y-10550000D01*
X23520004Y-15180000D02*
X18853591Y-15180000D01*
X13502419Y-17620000D02*
X16413591Y-17620000D01*
X22300000Y-8840000D02*
X22300000Y-9570000D01*
X30169000Y-11989000D02*
X30169000Y-11651000D01*
X13067213Y-15467213D02*
X13067213Y-17184794D01*
X15660000Y-3690000D02*
X15910000Y-3440000D01*
X16799033Y-17234558D02*
X16669381Y-17364210D01*
X15660000Y-7600000D02*
X15660000Y-3690000D01*
X30169000Y-11651000D02*
X29918620Y-11400620D01*
X29180000Y-19070000D02*
X27209972Y-19070000D01*
X23520004Y-15380032D02*
X23520004Y-15180000D01*
X29180000Y-19070000D02*
X28410010Y-19839990D01*
X23280000Y-12050000D02*
X23280000Y-14939996D01*
X29180000Y-19070000D02*
X29180000Y-18044400D01*
X30290000Y-12110000D02*
X30169000Y-11989000D01*
X20450000Y-8240000D02*
X16360000Y-8240000D01*
X31840000Y-9980000D02*
X30169000Y-11651000D01*
X23280000Y-12050000D02*
X23280000Y-10550000D01*
X29180000Y-18044400D02*
X30817888Y-16406512D01*
X16413591Y-17620000D02*
X16669381Y-17364210D01*
X13067213Y-17184794D02*
X13502419Y-17620000D01*
X15720000Y-7600000D02*
X15660000Y-7600000D01*
X29918620Y-11400620D02*
X23929380Y-11400620D01*
X15180000Y-9420000D02*
X15180000Y-12560000D01*
X20960000Y-8240000D02*
X21700000Y-8240000D01*
X18853591Y-15180000D02*
X16669381Y-17364210D01*
X16799033Y-14179033D02*
X16799033Y-17234558D01*
X23280000Y-14939996D02*
X23520004Y-15180000D01*
X28410010Y-19839990D02*
X23600000Y-19839990D01*
X21700000Y-8240000D02*
X22300000Y-8840000D01*
X12700000Y-15100000D02*
X13067213Y-15467213D01*
X16360000Y-8240000D02*
X15180000Y-9420000D01*
X16360000Y-8240000D02*
X15720000Y-7600000D01*
X27209972Y-19070000D02*
X23520004Y-15380032D01*
%TO.N,VIN*%
X9480000Y-6850000D02*
X11045000Y-5285000D01*
X11180000Y-17390000D02*
X9480000Y-15690000D01*
X9480000Y-15690000D02*
X9480000Y-6850000D01*
%TO.N,/RESET*%
X14640000Y-2070000D02*
X16490000Y-2070000D01*
X12070000Y-4640000D02*
X14640000Y-2070000D01*
X12070000Y-11590000D02*
X12070000Y-4640000D01*
X16910000Y-2490000D02*
X16910000Y-4660000D01*
X16490000Y-2070000D02*
X16910000Y-2490000D01*
X12590000Y-12110000D02*
X12070000Y-11590000D01*
D18*
%TO.N,/LVS7*%
X17460000Y-7230000D02*
X17460000Y-1530000D01*
X17460000Y-1530000D02*
X17350000Y-1420000D01*
D19*
%TO.N,+5V*%
X4685000Y-2110000D02*
X4685000Y-19890000D01*
D20*
X26886000Y-766000D02*
X29300000Y-3180000D01*
X4685000Y-2110000D02*
X6029000Y-766000D01*
X6029000Y-766000D02*
X26886000Y-766000D01*
D18*
%TO.N,/PWM5*%
X18691750Y-18250000D02*
X19264500Y-17677250D01*
X10470000Y-13320000D02*
X11732250Y-14582250D01*
X13321005Y-18250000D02*
X18691750Y-18250000D01*
X10470000Y-12970000D02*
X10470000Y-13320000D01*
X11732250Y-16661245D02*
X13321005Y-18250000D01*
X11732250Y-14582250D02*
X11732250Y-16661245D01*
%TO.N,/VBAT_DET*%
X33650000Y-4420000D02*
X33650000Y-6910000D01*
X33660000Y-11840000D02*
X33660000Y-14410000D01*
X33640000Y-16920000D02*
X33650000Y-16930000D01*
X33670000Y-11830000D02*
X33660000Y-11840000D01*
X33660000Y-4410000D02*
X33650000Y-4420000D01*
X33660000Y-14410000D02*
X33640000Y-14430000D01*
X33670000Y-9380000D02*
X33670000Y-11830000D01*
X33640000Y-14430000D02*
X33640000Y-16920000D01*
X33660000Y-1910000D02*
X33660000Y-4410000D01*
X33650000Y-6910000D02*
X33650000Y-9360000D01*
X33650000Y-9360000D02*
X33670000Y-9380000D01*
%TD*%
%TA.AperFunction,Conductor*%
%TO.N,+3.3V*%
G36*
X5439216Y-520185D02*
G01*
X5484971Y-572989D01*
X5494915Y-642147D01*
X5465890Y-705703D01*
X5459858Y-712181D01*
X5093835Y-1078202D01*
X5032512Y-1111687D01*
X4970159Y-1109182D01*
X4923069Y-1094897D01*
X4888974Y-1084555D01*
X4888972Y-1084554D01*
X4888974Y-1084554D01*
X4685000Y-1064465D01*
X4481027Y-1084554D01*
X4284886Y-1144053D01*
X4104133Y-1240667D01*
X4104130Y-1240669D01*
X3945694Y-1370694D01*
X3815669Y-1529130D01*
X3815667Y-1529133D01*
X3719053Y-1709886D01*
X3659554Y-1906027D01*
X3639465Y-2110000D01*
X3659554Y-2313972D01*
X3719053Y-2510113D01*
X3815667Y-2690866D01*
X3815669Y-2690869D01*
X3945695Y-2849306D01*
X3949162Y-2852151D01*
X3988498Y-2909896D01*
X3994500Y-2948006D01*
X3994500Y-3811994D01*
X3974815Y-3879033D01*
X3949169Y-3907843D01*
X3945695Y-3910693D01*
X3945694Y-3910695D01*
X3815669Y-4069130D01*
X3815667Y-4069133D01*
X3719053Y-4249886D01*
X3659554Y-4446027D01*
X3639465Y-4650000D01*
X3659554Y-4853972D01*
X3719053Y-5050113D01*
X3815667Y-5230866D01*
X3815669Y-5230869D01*
X3945695Y-5389306D01*
X3949162Y-5392151D01*
X3988498Y-5449896D01*
X3994500Y-5488006D01*
X3994500Y-6351994D01*
X3974815Y-6419033D01*
X3949169Y-6447843D01*
X3945695Y-6450693D01*
X3945694Y-6450695D01*
X3815669Y-6609130D01*
X3815667Y-6609133D01*
X3719053Y-6789886D01*
X3659554Y-6986027D01*
X3639465Y-7190000D01*
X3659554Y-7393972D01*
X3719053Y-7590113D01*
X3815667Y-7770866D01*
X3815669Y-7770869D01*
X3945695Y-7929306D01*
X3949162Y-7932151D01*
X3988498Y-7989896D01*
X3994500Y-8028006D01*
X3994500Y-8891994D01*
X3974815Y-8959033D01*
X3949169Y-8987843D01*
X3945695Y-8990693D01*
X3945694Y-8990695D01*
X3815669Y-9149130D01*
X3815667Y-9149133D01*
X3719053Y-9329886D01*
X3659554Y-9526027D01*
X3639465Y-9730000D01*
X3659554Y-9933972D01*
X3719053Y-10130113D01*
X3815667Y-10310866D01*
X3815669Y-10310869D01*
X3945695Y-10469306D01*
X3949162Y-10472151D01*
X3988498Y-10529896D01*
X3994500Y-10568006D01*
X3994500Y-11431994D01*
X3974815Y-11499033D01*
X3949169Y-11527843D01*
X3945695Y-11530693D01*
X3945694Y-11530695D01*
X3815669Y-11689130D01*
X3815667Y-11689133D01*
X3719053Y-11869886D01*
X3659554Y-12066027D01*
X3639465Y-12270000D01*
X3659554Y-12473972D01*
X3719053Y-12670113D01*
X3815667Y-12850866D01*
X3815669Y-12850869D01*
X3945695Y-13009306D01*
X3949162Y-13012151D01*
X3988498Y-13069896D01*
X3994500Y-13108006D01*
X3994500Y-13971994D01*
X3974815Y-14039033D01*
X3949169Y-14067843D01*
X3945695Y-14070693D01*
X3945694Y-14070695D01*
X3815669Y-14229130D01*
X3815667Y-14229133D01*
X3719053Y-14409886D01*
X3659554Y-14606027D01*
X3639465Y-14810000D01*
X3659554Y-15013972D01*
X3719053Y-15210113D01*
X3815667Y-15390866D01*
X3815669Y-15390869D01*
X3945695Y-15549306D01*
X3949162Y-15552151D01*
X3988498Y-15609896D01*
X3994500Y-15648006D01*
X3994500Y-16511994D01*
X3974815Y-16579033D01*
X3949169Y-16607843D01*
X3945695Y-16610693D01*
X3945694Y-16610695D01*
X3815669Y-16769130D01*
X3815667Y-16769133D01*
X3719053Y-16949886D01*
X3659554Y-17146027D01*
X3639465Y-17350000D01*
X3659554Y-17553972D01*
X3719053Y-17750113D01*
X3815667Y-17930866D01*
X3815669Y-17930869D01*
X3945695Y-18089306D01*
X3949162Y-18092151D01*
X3988498Y-18149896D01*
X3994500Y-18188006D01*
X3994500Y-19051994D01*
X3974815Y-19119033D01*
X3949169Y-19147843D01*
X3945695Y-19150693D01*
X3945694Y-19150695D01*
X3815669Y-19309130D01*
X3815667Y-19309133D01*
X3719053Y-19489886D01*
X3659554Y-19686027D01*
X3639465Y-19890000D01*
X3659554Y-20093972D01*
X3719053Y-20290113D01*
X3815667Y-20470866D01*
X3815669Y-20470869D01*
X3945694Y-20629305D01*
X4104130Y-20759330D01*
X4104133Y-20759332D01*
X4284886Y-20855946D01*
X4284888Y-20855946D01*
X4284891Y-20855948D01*
X4481026Y-20915445D01*
X4685000Y-20935535D01*
X4888974Y-20915445D01*
X5085109Y-20855948D01*
X5265868Y-20759331D01*
X5424305Y-20629305D01*
X5554331Y-20470868D01*
X5650948Y-20290109D01*
X5710445Y-20093974D01*
X5730535Y-19890000D01*
X5710445Y-19686026D01*
X5650948Y-19489891D01*
X5650946Y-19489888D01*
X5650946Y-19489886D01*
X5554332Y-19309133D01*
X5554330Y-19309130D01*
X5424305Y-19150695D01*
X5424304Y-19150693D01*
X5420831Y-19147843D01*
X5381499Y-19090096D01*
X5375500Y-19051994D01*
X5375500Y-19021233D01*
X6184500Y-19021233D01*
X6184500Y-20758766D01*
X6195552Y-20814328D01*
X6195552Y-20814329D01*
X6237656Y-20877342D01*
X6237657Y-20877343D01*
X6300670Y-20919447D01*
X6356233Y-20930499D01*
X6356236Y-20930500D01*
X6356238Y-20930500D01*
X8093764Y-20930500D01*
X8093765Y-20930499D01*
X8149329Y-20919447D01*
X8212343Y-20877343D01*
X8254447Y-20814329D01*
X8265500Y-20758762D01*
X8265500Y-19021238D01*
X8265500Y-19021235D01*
X8265499Y-19021233D01*
X8263510Y-19011233D01*
X12374500Y-19011233D01*
X12374500Y-20748766D01*
X12385552Y-20804328D01*
X12385552Y-20804329D01*
X12427656Y-20867342D01*
X12427657Y-20867343D01*
X12490670Y-20909447D01*
X12546233Y-20920499D01*
X12546236Y-20920500D01*
X12546238Y-20920500D01*
X14283764Y-20920500D01*
X14283765Y-20920499D01*
X14339329Y-20909447D01*
X14402343Y-20867343D01*
X14444447Y-20804329D01*
X14455500Y-20748762D01*
X14455500Y-19880000D01*
X14909465Y-19880000D01*
X14929554Y-20083972D01*
X14989053Y-20280113D01*
X15085667Y-20460866D01*
X15085669Y-20460869D01*
X15215694Y-20619305D01*
X15374130Y-20749330D01*
X15374133Y-20749332D01*
X15554886Y-20845946D01*
X15554888Y-20845946D01*
X15554891Y-20845948D01*
X15751026Y-20905445D01*
X15955000Y-20925535D01*
X16158974Y-20905445D01*
X16355109Y-20845948D01*
X16414265Y-20814329D01*
X16535866Y-20749332D01*
X16535869Y-20749330D01*
X16694305Y-20619305D01*
X16824330Y-20460869D01*
X16824332Y-20460866D01*
X16920946Y-20280113D01*
X16920946Y-20280112D01*
X16920948Y-20280109D01*
X16980445Y-20083974D01*
X17000535Y-19880000D01*
X17449465Y-19880000D01*
X17469554Y-20083972D01*
X17529053Y-20280113D01*
X17625667Y-20460866D01*
X17625669Y-20460869D01*
X17755694Y-20619305D01*
X17914130Y-20749330D01*
X17914133Y-20749332D01*
X18094886Y-20845946D01*
X18094888Y-20845946D01*
X18094891Y-20845948D01*
X18291026Y-20905445D01*
X18495000Y-20925535D01*
X18698974Y-20905445D01*
X18895109Y-20845948D01*
X18954265Y-20814329D01*
X19075866Y-20749332D01*
X19075869Y-20749330D01*
X19234305Y-20619305D01*
X19364330Y-20460869D01*
X19364332Y-20460866D01*
X19460946Y-20280113D01*
X19460946Y-20280112D01*
X19460948Y-20280109D01*
X19479182Y-20220000D01*
X30214970Y-20220000D01*
X30232996Y-20345379D01*
X30285616Y-20460599D01*
X30285617Y-20460601D01*
X30368567Y-20556331D01*
X30437051Y-20600343D01*
X30475129Y-20624815D01*
X30596663Y-20660499D01*
X30596665Y-20660500D01*
X30596666Y-20660500D01*
X30723335Y-20660500D01*
X30723335Y-20660499D01*
X30844869Y-20624815D01*
X30844870Y-20624815D01*
X30853444Y-20619305D01*
X30951433Y-20556331D01*
X31034383Y-20460601D01*
X31087003Y-20345379D01*
X31105030Y-20220000D01*
X31087003Y-20094621D01*
X31034383Y-19979399D01*
X30951433Y-19883669D01*
X30921026Y-19864127D01*
X30844870Y-19815184D01*
X30723336Y-19779500D01*
X30723334Y-19779500D01*
X30596666Y-19779500D01*
X30596664Y-19779500D01*
X30475130Y-19815184D01*
X30475129Y-19815184D01*
X30368568Y-19883668D01*
X30285617Y-19979399D01*
X30285616Y-19979400D01*
X30232996Y-20094620D01*
X30214970Y-20220000D01*
X19479182Y-20220000D01*
X19520445Y-20083974D01*
X19540535Y-19880000D01*
X19520445Y-19676026D01*
X19460948Y-19479891D01*
X19460946Y-19479888D01*
X19460946Y-19479886D01*
X19364332Y-19299133D01*
X19364330Y-19299130D01*
X19234305Y-19140694D01*
X19075869Y-19010669D01*
X19075866Y-19010667D01*
X18895113Y-18914053D01*
X18698972Y-18854554D01*
X18495000Y-18834465D01*
X18291027Y-18854554D01*
X18094886Y-18914053D01*
X17914133Y-19010667D01*
X17914130Y-19010669D01*
X17755694Y-19140694D01*
X17625669Y-19299130D01*
X17625667Y-19299133D01*
X17529053Y-19479886D01*
X17469554Y-19676027D01*
X17449465Y-19880000D01*
X17000535Y-19880000D01*
X16980445Y-19676026D01*
X16920948Y-19479891D01*
X16920946Y-19479888D01*
X16920946Y-19479886D01*
X16824332Y-19299133D01*
X16824330Y-19299130D01*
X16694305Y-19140694D01*
X16535869Y-19010669D01*
X16535866Y-19010667D01*
X16355113Y-18914053D01*
X16158972Y-18854554D01*
X15955000Y-18834465D01*
X15751027Y-18854554D01*
X15554886Y-18914053D01*
X15374133Y-19010667D01*
X15374130Y-19010669D01*
X15215694Y-19140694D01*
X15085669Y-19299130D01*
X15085667Y-19299133D01*
X14989053Y-19479886D01*
X14929554Y-19676027D01*
X14909465Y-19880000D01*
X14455500Y-19880000D01*
X14455500Y-19011238D01*
X14455500Y-19011235D01*
X14455499Y-19011233D01*
X14444447Y-18955671D01*
X14444447Y-18955670D01*
X14402343Y-18892657D01*
X14402342Y-18892656D01*
X14339329Y-18850552D01*
X14283765Y-18839500D01*
X14283762Y-18839500D01*
X12546238Y-18839500D01*
X12546235Y-18839500D01*
X12490671Y-18850552D01*
X12490670Y-18850552D01*
X12427657Y-18892656D01*
X12427656Y-18892657D01*
X12385552Y-18955670D01*
X12385552Y-18955671D01*
X12374500Y-19011233D01*
X8263510Y-19011233D01*
X8254447Y-18965671D01*
X8254447Y-18965670D01*
X8212343Y-18902657D01*
X8212342Y-18902656D01*
X8149329Y-18860552D01*
X8093765Y-18849500D01*
X8093762Y-18849500D01*
X6356238Y-18849500D01*
X6356235Y-18849500D01*
X6300671Y-18860552D01*
X6300670Y-18860552D01*
X6237657Y-18902656D01*
X6237656Y-18902657D01*
X6195552Y-18965670D01*
X6195552Y-18965671D01*
X6184500Y-19021233D01*
X5375500Y-19021233D01*
X5375500Y-18188006D01*
X5395185Y-18120967D01*
X5420838Y-18092151D01*
X5424304Y-18089306D01*
X5447863Y-18060600D01*
X5554331Y-17930868D01*
X5596391Y-17852179D01*
X5650946Y-17750113D01*
X5650946Y-17750112D01*
X5650948Y-17750109D01*
X5710445Y-17553974D01*
X5730535Y-17350000D01*
X5710445Y-17146026D01*
X5650948Y-16949891D01*
X5650946Y-16949888D01*
X5650946Y-16949886D01*
X5554332Y-16769133D01*
X5554330Y-16769130D01*
X5424305Y-16610695D01*
X5424304Y-16610693D01*
X5420831Y-16607843D01*
X5381499Y-16550096D01*
X5375500Y-16511994D01*
X5375500Y-16481233D01*
X6184500Y-16481233D01*
X6184500Y-18218766D01*
X6195552Y-18274328D01*
X6195552Y-18274329D01*
X6237656Y-18337342D01*
X6237657Y-18337343D01*
X6300670Y-18379447D01*
X6356233Y-18390499D01*
X6356236Y-18390500D01*
X6356238Y-18390500D01*
X8093764Y-18390500D01*
X8093765Y-18390499D01*
X8149329Y-18379447D01*
X8212343Y-18337343D01*
X8254447Y-18274329D01*
X8265500Y-18218762D01*
X8265500Y-16481238D01*
X8265500Y-16481235D01*
X8265499Y-16481233D01*
X8254447Y-16425671D01*
X8254447Y-16425670D01*
X8212343Y-16362657D01*
X8212342Y-16362656D01*
X8149329Y-16320552D01*
X8093765Y-16309500D01*
X8093762Y-16309500D01*
X6356238Y-16309500D01*
X6356235Y-16309500D01*
X6300671Y-16320552D01*
X6300670Y-16320552D01*
X6237657Y-16362656D01*
X6237656Y-16362657D01*
X6195552Y-16425670D01*
X6195552Y-16425671D01*
X6184500Y-16481233D01*
X5375500Y-16481233D01*
X5375500Y-15648006D01*
X5395185Y-15580967D01*
X5420838Y-15552151D01*
X5424304Y-15549306D01*
X5452463Y-15514995D01*
X5554331Y-15390868D01*
X5624281Y-15260000D01*
X5650946Y-15210113D01*
X5650946Y-15210112D01*
X5650948Y-15210109D01*
X5710445Y-15013974D01*
X5730535Y-14810000D01*
X5710445Y-14606026D01*
X5650948Y-14409891D01*
X5650946Y-14409888D01*
X5650946Y-14409886D01*
X5554332Y-14229133D01*
X5554330Y-14229130D01*
X5424305Y-14070695D01*
X5424304Y-14070693D01*
X5420831Y-14067843D01*
X5381499Y-14010096D01*
X5375500Y-13971994D01*
X5375500Y-13941233D01*
X6184500Y-13941233D01*
X6184500Y-15678766D01*
X6195552Y-15734328D01*
X6195552Y-15734329D01*
X6237656Y-15797342D01*
X6237657Y-15797343D01*
X6300670Y-15839447D01*
X6356233Y-15850499D01*
X6356236Y-15850500D01*
X6356238Y-15850500D01*
X8093764Y-15850500D01*
X8093765Y-15850499D01*
X8149329Y-15839447D01*
X8212343Y-15797343D01*
X8254447Y-15734329D01*
X8265500Y-15678762D01*
X8265500Y-13941238D01*
X8265500Y-13941235D01*
X8265499Y-13941233D01*
X8254447Y-13885671D01*
X8254447Y-13885670D01*
X8212343Y-13822657D01*
X8212342Y-13822656D01*
X8149329Y-13780552D01*
X8093765Y-13769500D01*
X8093762Y-13769500D01*
X6356238Y-13769500D01*
X6356235Y-13769500D01*
X6300671Y-13780552D01*
X6300670Y-13780552D01*
X6237657Y-13822656D01*
X6237656Y-13822657D01*
X6195552Y-13885670D01*
X6195552Y-13885671D01*
X6184500Y-13941233D01*
X5375500Y-13941233D01*
X5375500Y-13108006D01*
X5395185Y-13040967D01*
X5420838Y-13012151D01*
X5424304Y-13009306D01*
X5440641Y-12989400D01*
X5554331Y-12850868D01*
X5612552Y-12741944D01*
X5650946Y-12670113D01*
X5650946Y-12670112D01*
X5650948Y-12670109D01*
X5710445Y-12473974D01*
X5730535Y-12270000D01*
X5710445Y-12066026D01*
X5650948Y-11869891D01*
X5650946Y-11869888D01*
X5650946Y-11869886D01*
X5554332Y-11689133D01*
X5554330Y-11689130D01*
X5424305Y-11530695D01*
X5424304Y-11530693D01*
X5420831Y-11527843D01*
X5381499Y-11470096D01*
X5375500Y-11431994D01*
X5375500Y-11401233D01*
X6184500Y-11401233D01*
X6184500Y-13138766D01*
X6195552Y-13194328D01*
X6195552Y-13194329D01*
X6237656Y-13257342D01*
X6237657Y-13257343D01*
X6300670Y-13299447D01*
X6356233Y-13310499D01*
X6356236Y-13310500D01*
X6356238Y-13310500D01*
X8093764Y-13310500D01*
X8093765Y-13310499D01*
X8149329Y-13299447D01*
X8212343Y-13257343D01*
X8254447Y-13194329D01*
X8265500Y-13138762D01*
X8265500Y-11401238D01*
X8265500Y-11401235D01*
X8265499Y-11401233D01*
X8254447Y-11345671D01*
X8254447Y-11345670D01*
X8212343Y-11282657D01*
X8212342Y-11282656D01*
X8149329Y-11240552D01*
X8093765Y-11229500D01*
X8093762Y-11229500D01*
X6356238Y-11229500D01*
X6356235Y-11229500D01*
X6300671Y-11240552D01*
X6300670Y-11240552D01*
X6237657Y-11282656D01*
X6237656Y-11282657D01*
X6195552Y-11345670D01*
X6195552Y-11345671D01*
X6184500Y-11401233D01*
X5375500Y-11401233D01*
X5375500Y-10568006D01*
X5395185Y-10500967D01*
X5420838Y-10472151D01*
X5424304Y-10469306D01*
X5436197Y-10454815D01*
X5554331Y-10310868D01*
X5650948Y-10130109D01*
X5710445Y-9933974D01*
X5730535Y-9730000D01*
X5710445Y-9526026D01*
X5650948Y-9329891D01*
X5650946Y-9329888D01*
X5650946Y-9329886D01*
X5554332Y-9149133D01*
X5554330Y-9149130D01*
X5424305Y-8990695D01*
X5424304Y-8990693D01*
X5420831Y-8987843D01*
X5381499Y-8930096D01*
X5375500Y-8891994D01*
X5375500Y-8861233D01*
X6184500Y-8861233D01*
X6184500Y-10598766D01*
X6195552Y-10654328D01*
X6195552Y-10654329D01*
X6237656Y-10717342D01*
X6237657Y-10717343D01*
X6300670Y-10759447D01*
X6356233Y-10770499D01*
X6356236Y-10770500D01*
X6356238Y-10770500D01*
X8093764Y-10770500D01*
X8093765Y-10770499D01*
X8149329Y-10759447D01*
X8212343Y-10717343D01*
X8254447Y-10654329D01*
X8265500Y-10598762D01*
X8265500Y-8861238D01*
X8265500Y-8861235D01*
X8265499Y-8861233D01*
X8254447Y-8805671D01*
X8254447Y-8805670D01*
X8212343Y-8742657D01*
X8212342Y-8742656D01*
X8149329Y-8700552D01*
X8093765Y-8689500D01*
X8093762Y-8689500D01*
X6356238Y-8689500D01*
X6356235Y-8689500D01*
X6300671Y-8700552D01*
X6300670Y-8700552D01*
X6237657Y-8742656D01*
X6237656Y-8742657D01*
X6195552Y-8805670D01*
X6195552Y-8805671D01*
X6184500Y-8861233D01*
X5375500Y-8861233D01*
X5375500Y-8028006D01*
X5395185Y-7960967D01*
X5420838Y-7932151D01*
X5424304Y-7929306D01*
X5473469Y-7869399D01*
X5554331Y-7770868D01*
X5635301Y-7619382D01*
X5650946Y-7590113D01*
X5650946Y-7590112D01*
X5650948Y-7590109D01*
X5710445Y-7393974D01*
X5730535Y-7190000D01*
X5710445Y-6986026D01*
X5650948Y-6789891D01*
X5650946Y-6789888D01*
X5650946Y-6789886D01*
X5554332Y-6609133D01*
X5554330Y-6609130D01*
X5424305Y-6450695D01*
X5424304Y-6450693D01*
X5420831Y-6447843D01*
X5381499Y-6390096D01*
X5375500Y-6351994D01*
X5375500Y-6321233D01*
X6184500Y-6321233D01*
X6184500Y-8058766D01*
X6195552Y-8114328D01*
X6195552Y-8114329D01*
X6237656Y-8177342D01*
X6237657Y-8177343D01*
X6300670Y-8219447D01*
X6356233Y-8230499D01*
X6356236Y-8230500D01*
X6356238Y-8230500D01*
X8093764Y-8230500D01*
X8093765Y-8230499D01*
X8149329Y-8219447D01*
X8212343Y-8177343D01*
X8254447Y-8114329D01*
X8265500Y-8058762D01*
X8265500Y-6808464D01*
X9164500Y-6808464D01*
X9164500Y-15731536D01*
X9177609Y-15780458D01*
X9177608Y-15780458D01*
X9177609Y-15780460D01*
X9185999Y-15811775D01*
X9186000Y-15811778D01*
X9186001Y-15811779D01*
X9223956Y-15877519D01*
X9227536Y-15883720D01*
X9227538Y-15883723D01*
X10705979Y-17362164D01*
X10739464Y-17423487D01*
X10741036Y-17432196D01*
X10752095Y-17509112D01*
X10752997Y-17515379D01*
X10805617Y-17630601D01*
X10888567Y-17726331D01*
X10957051Y-17770343D01*
X10995129Y-17794815D01*
X11094903Y-17824110D01*
X11106479Y-17827509D01*
X11116663Y-17830499D01*
X11116665Y-17830500D01*
X11116666Y-17830500D01*
X11243335Y-17830500D01*
X11243335Y-17830499D01*
X11343961Y-17800954D01*
X11364869Y-17794815D01*
X11364870Y-17794815D01*
X11364872Y-17794814D01*
X11471433Y-17726331D01*
X11554383Y-17630601D01*
X11607003Y-17515379D01*
X11625030Y-17390000D01*
X11607003Y-17264621D01*
X11599534Y-17248267D01*
X11589590Y-17179111D01*
X11618613Y-17115555D01*
X11677390Y-17077779D01*
X11747259Y-17077777D01*
X11800009Y-17109074D01*
X12092291Y-17401356D01*
X12125776Y-17462679D01*
X12120792Y-17532371D01*
X12078920Y-17588304D01*
X12039545Y-17608014D01*
X12015129Y-17615183D01*
X11908568Y-17683666D01*
X11908567Y-17683666D01*
X11908567Y-17683667D01*
X11888841Y-17706432D01*
X11825617Y-17779397D01*
X11825616Y-17779398D01*
X11772996Y-17894618D01*
X11754970Y-18019998D01*
X11761641Y-18066399D01*
X11751697Y-18135557D01*
X11705942Y-18188361D01*
X11638902Y-18208045D01*
X11571863Y-18188360D01*
X11565684Y-18183381D01*
X11565412Y-18183757D01*
X11557514Y-18178019D01*
X11557513Y-18178018D01*
X11454354Y-18125456D01*
X11454352Y-18125455D01*
X11454349Y-18125454D01*
X11340002Y-18107344D01*
X11339998Y-18107344D01*
X11225650Y-18125454D01*
X11122485Y-18178019D01*
X11122481Y-18178022D01*
X11040622Y-18259881D01*
X11040619Y-18259885D01*
X11040618Y-18259887D01*
X10991479Y-18356329D01*
X10988054Y-18363050D01*
X10969944Y-18477397D01*
X10969944Y-18477402D01*
X10988054Y-18591749D01*
X10988055Y-18591752D01*
X10988056Y-18591754D01*
X11012945Y-18640601D01*
X11040619Y-18694914D01*
X11040622Y-18694918D01*
X11122481Y-18776777D01*
X11122485Y-18776780D01*
X11122487Y-18776782D01*
X11225646Y-18829344D01*
X11225648Y-18829344D01*
X11225650Y-18829345D01*
X11339998Y-18847456D01*
X11340000Y-18847456D01*
X11340002Y-18847456D01*
X11454349Y-18829345D01*
X11454349Y-18829344D01*
X11454354Y-18829344D01*
X11557513Y-18776782D01*
X11639382Y-18694913D01*
X11691944Y-18591754D01*
X11706591Y-18499277D01*
X11710056Y-18477402D01*
X11710056Y-18477399D01*
X11709417Y-18473366D01*
X11710056Y-18468419D01*
X11710056Y-18467641D01*
X11710157Y-18467641D01*
X11718368Y-18404072D01*
X11763362Y-18350619D01*
X11830113Y-18329976D01*
X11897427Y-18348698D01*
X11902405Y-18352369D01*
X12015129Y-18424813D01*
X12136663Y-18460497D01*
X12136665Y-18460498D01*
X12136666Y-18460498D01*
X12263335Y-18460498D01*
X12263335Y-18460497D01*
X12384869Y-18424813D01*
X12384870Y-18424813D01*
X12384872Y-18424812D01*
X12491433Y-18356329D01*
X12574383Y-18260599D01*
X12618433Y-18164140D01*
X12664187Y-18111339D01*
X12731226Y-18091654D01*
X12798266Y-18111338D01*
X12818908Y-18127973D01*
X12909697Y-18218762D01*
X13168771Y-18477836D01*
X13220533Y-18499276D01*
X13220534Y-18499277D01*
X13220535Y-18499277D01*
X13267547Y-18518750D01*
X13267548Y-18518750D01*
X13267549Y-18518750D01*
X18745207Y-18518750D01*
X18745208Y-18518750D01*
X18843985Y-18477835D01*
X18919585Y-18402235D01*
X18919585Y-18402234D01*
X18921819Y-18400000D01*
X24257471Y-18400000D01*
X24275497Y-18525379D01*
X24305808Y-18591749D01*
X24328118Y-18640601D01*
X24411068Y-18736331D01*
X24474003Y-18776777D01*
X24517630Y-18804815D01*
X24618613Y-18834465D01*
X24635761Y-18839500D01*
X24639164Y-18840499D01*
X24639166Y-18840500D01*
X24639167Y-18840500D01*
X24765836Y-18840500D01*
X24765836Y-18840499D01*
X24887370Y-18804815D01*
X24887371Y-18804815D01*
X24887373Y-18804814D01*
X24988225Y-18740000D01*
X29464970Y-18740000D01*
X29482996Y-18865379D01*
X29509792Y-18924053D01*
X29535617Y-18980601D01*
X29618567Y-19076331D01*
X29639986Y-19090096D01*
X29725129Y-19144815D01*
X29846663Y-19180499D01*
X29846665Y-19180500D01*
X29846666Y-19180500D01*
X29973335Y-19180500D01*
X29973335Y-19180499D01*
X30094869Y-19144815D01*
X30094870Y-19144815D01*
X30101281Y-19140695D01*
X30201433Y-19076331D01*
X30284383Y-18980601D01*
X30337003Y-18865379D01*
X30355030Y-18740000D01*
X30337003Y-18614621D01*
X30284383Y-18499399D01*
X30253334Y-18463566D01*
X30224310Y-18400012D01*
X30234254Y-18330854D01*
X30280008Y-18278050D01*
X30315374Y-18264865D01*
X30314826Y-18262999D01*
X30444870Y-18224815D01*
X30444871Y-18224815D01*
X30453403Y-18219332D01*
X30551434Y-18156331D01*
X30634384Y-18060601D01*
X30687004Y-17945379D01*
X30704035Y-17826929D01*
X36684500Y-17826929D01*
X36684500Y-19133070D01*
X36687289Y-19162814D01*
X36687291Y-19162826D01*
X36731147Y-19288155D01*
X36731148Y-19288157D01*
X36810001Y-19394999D01*
X36916843Y-19473852D01*
X36955003Y-19487204D01*
X37042173Y-19517708D01*
X37042177Y-19517708D01*
X37042181Y-19517710D01*
X37057057Y-19519105D01*
X37071930Y-19520500D01*
X37071934Y-19520500D01*
X38628070Y-19520500D01*
X38641289Y-19519260D01*
X38657819Y-19517710D01*
X38657823Y-19517708D01*
X38657826Y-19517708D01*
X38706836Y-19500557D01*
X38783157Y-19473852D01*
X38889999Y-19394999D01*
X38968852Y-19288157D01*
X39006523Y-19180500D01*
X39012708Y-19162826D01*
X39012708Y-19162823D01*
X39012710Y-19162819D01*
X39015500Y-19133066D01*
X39015500Y-17826934D01*
X39015235Y-17824110D01*
X39012710Y-17797185D01*
X39012710Y-17797181D01*
X39012708Y-17797177D01*
X39012708Y-17797173D01*
X38972989Y-17683666D01*
X38968852Y-17671843D01*
X38889999Y-17565001D01*
X38783157Y-17486148D01*
X38783155Y-17486147D01*
X38657826Y-17442291D01*
X38657814Y-17442289D01*
X38628070Y-17439500D01*
X38628066Y-17439500D01*
X37071934Y-17439500D01*
X37071930Y-17439500D01*
X37042185Y-17442289D01*
X37042173Y-17442291D01*
X36916844Y-17486147D01*
X36810001Y-17565001D01*
X36731147Y-17671844D01*
X36687291Y-17797173D01*
X36687289Y-17797185D01*
X36684500Y-17826929D01*
X30704035Y-17826929D01*
X30705031Y-17820000D01*
X30688702Y-17706432D01*
X30687004Y-17694620D01*
X30640173Y-17592075D01*
X30634384Y-17579399D01*
X30551434Y-17483669D01*
X30514186Y-17459731D01*
X30444871Y-17415184D01*
X30323337Y-17379500D01*
X30323335Y-17379500D01*
X30196667Y-17379500D01*
X30196665Y-17379500D01*
X30075131Y-17415184D01*
X30075130Y-17415184D01*
X29968569Y-17483668D01*
X29968568Y-17483668D01*
X29968568Y-17483669D01*
X29907649Y-17553974D01*
X29885618Y-17579399D01*
X29885617Y-17579400D01*
X29832997Y-17694620D01*
X29814971Y-17820000D01*
X29832997Y-17945379D01*
X29885617Y-18060599D01*
X29885618Y-18060601D01*
X29912525Y-18091654D01*
X29916665Y-18096431D01*
X29945690Y-18159987D01*
X29935746Y-18229146D01*
X29889991Y-18281949D01*
X29854628Y-18295140D01*
X29855175Y-18297001D01*
X29725130Y-18335184D01*
X29725129Y-18335184D01*
X29618568Y-18403668D01*
X29535617Y-18499399D01*
X29535616Y-18499400D01*
X29482996Y-18614620D01*
X29464970Y-18740000D01*
X24988225Y-18740000D01*
X24993934Y-18736331D01*
X25076884Y-18640601D01*
X25129504Y-18525379D01*
X25147531Y-18400000D01*
X25129504Y-18274621D01*
X25129370Y-18274328D01*
X25085387Y-18178018D01*
X25076884Y-18159399D01*
X24993934Y-18063669D01*
X24955731Y-18039117D01*
X24887371Y-17995184D01*
X24765837Y-17959500D01*
X24765835Y-17959500D01*
X24639167Y-17959500D01*
X24639165Y-17959500D01*
X24517631Y-17995184D01*
X24517630Y-17995184D01*
X24411069Y-18063668D01*
X24411068Y-18063668D01*
X24411068Y-18063669D01*
X24388854Y-18089306D01*
X24328118Y-18159399D01*
X24328117Y-18159400D01*
X24275497Y-18274620D01*
X24257471Y-18400000D01*
X18921819Y-18400000D01*
X18937023Y-18384796D01*
X18937024Y-18384793D01*
X19247910Y-18073908D01*
X19309231Y-18040425D01*
X19316150Y-18039125D01*
X19378854Y-18029194D01*
X19482013Y-17976632D01*
X19563882Y-17894763D01*
X19616444Y-17791604D01*
X19618377Y-17779398D01*
X19634556Y-17677252D01*
X19634556Y-17677250D01*
X19631823Y-17659997D01*
X19627366Y-17631856D01*
X19636320Y-17562565D01*
X19681315Y-17509112D01*
X19693522Y-17501986D01*
X19701610Y-17497865D01*
X20501552Y-17497865D01*
X20501552Y-17497870D01*
X20519662Y-17612217D01*
X20519663Y-17612220D01*
X20519664Y-17612222D01*
X20572226Y-17715381D01*
X20572227Y-17715382D01*
X20572230Y-17715386D01*
X20654089Y-17797245D01*
X20654093Y-17797248D01*
X20654095Y-17797250D01*
X20757254Y-17849812D01*
X20757256Y-17849812D01*
X20757258Y-17849813D01*
X20871606Y-17867924D01*
X20871608Y-17867924D01*
X20871610Y-17867924D01*
X20985957Y-17849813D01*
X20985957Y-17849812D01*
X20985962Y-17849812D01*
X21062666Y-17810729D01*
X21131331Y-17797834D01*
X21196071Y-17824110D01*
X21206638Y-17833534D01*
X21252481Y-17879377D01*
X21252485Y-17879380D01*
X21252487Y-17879382D01*
X21355646Y-17931944D01*
X21355648Y-17931944D01*
X21355650Y-17931945D01*
X21469998Y-17950056D01*
X21470000Y-17950056D01*
X21470002Y-17950056D01*
X21584349Y-17931945D01*
X21584349Y-17931944D01*
X21584354Y-17931944D01*
X21687513Y-17879382D01*
X21687515Y-17879379D01*
X21687518Y-17879378D01*
X21692641Y-17875657D01*
X21758448Y-17852179D01*
X21826501Y-17868006D01*
X21853204Y-17888296D01*
X21856363Y-17891455D01*
X21856367Y-17891458D01*
X21856369Y-17891460D01*
X21959528Y-17944022D01*
X21959530Y-17944022D01*
X21959532Y-17944023D01*
X22073880Y-17962134D01*
X22073882Y-17962134D01*
X22073884Y-17962134D01*
X22188231Y-17944023D01*
X22188231Y-17944022D01*
X22188236Y-17944022D01*
X22291395Y-17891460D01*
X22373264Y-17809591D01*
X22425826Y-17706432D01*
X22431304Y-17671844D01*
X22443938Y-17592080D01*
X22443938Y-17592075D01*
X22425827Y-17477728D01*
X22425826Y-17477726D01*
X22425826Y-17477724D01*
X22373264Y-17374565D01*
X22373262Y-17374563D01*
X22373259Y-17374559D01*
X22291400Y-17292700D01*
X22291396Y-17292697D01*
X22291395Y-17292696D01*
X22188236Y-17240134D01*
X22188234Y-17240133D01*
X22188231Y-17240132D01*
X22073884Y-17222022D01*
X22073880Y-17222022D01*
X21959532Y-17240132D01*
X21856363Y-17292699D01*
X21851241Y-17296421D01*
X21785434Y-17319899D01*
X21717381Y-17304072D01*
X21690678Y-17283782D01*
X21687518Y-17280622D01*
X21687514Y-17280619D01*
X21687513Y-17280618D01*
X21584354Y-17228056D01*
X21584352Y-17228055D01*
X21584349Y-17228054D01*
X21470002Y-17209944D01*
X21469998Y-17209944D01*
X21355648Y-17228054D01*
X21278944Y-17267137D01*
X21210275Y-17280033D01*
X21145534Y-17253756D01*
X21134969Y-17244333D01*
X21089126Y-17198490D01*
X21089122Y-17198487D01*
X21089121Y-17198486D01*
X20985962Y-17145924D01*
X20985960Y-17145923D01*
X20985957Y-17145922D01*
X20871610Y-17127812D01*
X20871606Y-17127812D01*
X20757258Y-17145922D01*
X20757254Y-17145923D01*
X20757254Y-17145924D01*
X20754126Y-17147518D01*
X20654093Y-17198487D01*
X20654089Y-17198490D01*
X20572230Y-17280349D01*
X20572227Y-17280353D01*
X20519662Y-17383518D01*
X20501552Y-17497865D01*
X19701610Y-17497865D01*
X19757513Y-17469382D01*
X19839382Y-17387513D01*
X19891944Y-17284354D01*
X19892536Y-17280618D01*
X19910056Y-17170002D01*
X19910056Y-17169997D01*
X19891945Y-17055650D01*
X19891944Y-17055648D01*
X19891944Y-17055646D01*
X19839382Y-16952487D01*
X19839380Y-16952485D01*
X19839377Y-16952481D01*
X19757518Y-16870622D01*
X19757514Y-16870619D01*
X19757513Y-16870618D01*
X19654354Y-16818056D01*
X19654352Y-16818055D01*
X19654349Y-16818054D01*
X19540002Y-16799944D01*
X19539998Y-16799944D01*
X19425650Y-16818054D01*
X19322485Y-16870619D01*
X19322481Y-16870622D01*
X19240622Y-16952481D01*
X19240619Y-16952485D01*
X19188054Y-17055650D01*
X19169944Y-17169997D01*
X19169944Y-17170002D01*
X19177133Y-17215392D01*
X19168178Y-17284686D01*
X19123182Y-17338138D01*
X19110958Y-17345273D01*
X19046987Y-17377868D01*
X19046986Y-17377869D01*
X19046981Y-17377872D01*
X18965122Y-17459731D01*
X18965119Y-17459736D01*
X18965118Y-17459737D01*
X18951661Y-17486148D01*
X18912554Y-17562898D01*
X18902630Y-17625557D01*
X18872700Y-17688692D01*
X18867839Y-17693839D01*
X18616750Y-17944931D01*
X18555427Y-17978416D01*
X18529068Y-17981250D01*
X18493396Y-17981250D01*
X18426357Y-17961565D01*
X18380602Y-17908761D01*
X18370658Y-17839603D01*
X18382909Y-17800959D01*
X18421944Y-17724350D01*
X18423364Y-17715386D01*
X18440056Y-17609998D01*
X18440056Y-17609993D01*
X18421945Y-17495646D01*
X18421944Y-17495644D01*
X18421944Y-17495642D01*
X18369382Y-17392483D01*
X18369380Y-17392481D01*
X18369377Y-17392477D01*
X18287518Y-17310618D01*
X18287514Y-17310615D01*
X18287513Y-17310614D01*
X18184354Y-17258052D01*
X18184352Y-17258051D01*
X18184349Y-17258050D01*
X18070002Y-17239940D01*
X18069998Y-17239940D01*
X17955650Y-17258050D01*
X17852485Y-17310615D01*
X17852481Y-17310618D01*
X17770622Y-17392477D01*
X17770617Y-17392484D01*
X17730744Y-17470739D01*
X17682770Y-17521534D01*
X17614949Y-17538329D01*
X17548814Y-17515791D01*
X17509777Y-17470739D01*
X17495382Y-17442487D01*
X17495380Y-17442485D01*
X17495377Y-17442481D01*
X17413518Y-17360622D01*
X17413514Y-17360619D01*
X17413513Y-17360618D01*
X17310354Y-17308056D01*
X17310352Y-17308055D01*
X17310349Y-17308054D01*
X17196002Y-17289944D01*
X17195998Y-17289944D01*
X17081650Y-17308054D01*
X16978485Y-17360619D01*
X16978481Y-17360622D01*
X16896622Y-17442481D01*
X16896619Y-17442485D01*
X16844054Y-17545650D01*
X16825944Y-17659997D01*
X16825944Y-17660002D01*
X16844054Y-17774350D01*
X16844055Y-17774353D01*
X16844056Y-17774354D01*
X16857610Y-17800955D01*
X16870507Y-17869624D01*
X16844231Y-17934364D01*
X16787125Y-17974622D01*
X16747126Y-17981250D01*
X13483687Y-17981250D01*
X13416648Y-17961565D01*
X13396006Y-17944931D01*
X12161075Y-16710000D01*
X14264970Y-16710000D01*
X14282996Y-16835379D01*
X14314152Y-16903600D01*
X14335617Y-16950601D01*
X14418567Y-17046331D01*
X14433068Y-17055650D01*
X14525129Y-17114815D01*
X14629123Y-17145349D01*
X14642916Y-17149399D01*
X14646663Y-17150499D01*
X14646665Y-17150500D01*
X14646666Y-17150500D01*
X14773335Y-17150500D01*
X14773335Y-17150499D01*
X14877210Y-17120000D01*
X14894869Y-17114815D01*
X14894870Y-17114815D01*
X14894872Y-17114814D01*
X15001433Y-17046331D01*
X15084383Y-16950601D01*
X15137003Y-16835379D01*
X15155030Y-16710000D01*
X15137003Y-16584621D01*
X15130427Y-16570222D01*
X15103835Y-16511994D01*
X15084383Y-16469399D01*
X15001433Y-16373669D01*
X14925011Y-16324555D01*
X14894870Y-16305184D01*
X14773336Y-16269500D01*
X14773334Y-16269500D01*
X14646666Y-16269500D01*
X14646664Y-16269500D01*
X14525130Y-16305184D01*
X14525129Y-16305184D01*
X14418568Y-16373668D01*
X14418567Y-16373668D01*
X14418567Y-16373669D01*
X14335617Y-16469399D01*
X14335616Y-16469400D01*
X14282996Y-16584620D01*
X14264970Y-16710000D01*
X12161075Y-16710000D01*
X12037319Y-16586244D01*
X12003834Y-16524921D01*
X12001000Y-16498563D01*
X12001000Y-16180000D01*
X26954970Y-16180000D01*
X26972996Y-16305379D01*
X27008926Y-16384053D01*
X27025617Y-16420601D01*
X27108567Y-16516331D01*
X27148682Y-16542111D01*
X27194436Y-16594914D01*
X27204380Y-16664073D01*
X27175355Y-16727628D01*
X27148684Y-16750740D01*
X27128568Y-16763668D01*
X27128567Y-16763668D01*
X27128567Y-16763669D01*
X27083085Y-16816158D01*
X27045617Y-16859399D01*
X27045616Y-16859400D01*
X26992996Y-16974620D01*
X26974970Y-17100000D01*
X26992996Y-17225379D01*
X27044492Y-17338138D01*
X27045617Y-17340601D01*
X27128567Y-17436331D01*
X27179992Y-17469380D01*
X27235129Y-17504815D01*
X27356663Y-17540499D01*
X27356665Y-17540500D01*
X27356666Y-17540500D01*
X27483335Y-17540500D01*
X27483335Y-17540499D01*
X27604869Y-17504815D01*
X27604870Y-17504815D01*
X27609293Y-17501973D01*
X27711433Y-17436331D01*
X27772623Y-17365712D01*
X27831398Y-17327940D01*
X27901268Y-17327940D01*
X27960046Y-17365713D01*
X27960047Y-17365714D01*
X27981091Y-17390000D01*
X28038567Y-17456331D01*
X28103203Y-17497870D01*
X28145129Y-17524815D01*
X28266663Y-17560499D01*
X28266665Y-17560500D01*
X28266666Y-17560500D01*
X28393335Y-17560500D01*
X28393335Y-17560499D01*
X28514869Y-17524815D01*
X28514870Y-17524815D01*
X28514872Y-17524814D01*
X28621433Y-17456331D01*
X28704383Y-17360601D01*
X28704383Y-17360600D01*
X28709952Y-17354174D01*
X28768730Y-17316399D01*
X28838599Y-17316399D01*
X28897376Y-17354171D01*
X28897378Y-17354174D01*
X28957437Y-17423487D01*
X28968567Y-17436331D01*
X29019992Y-17469380D01*
X29075129Y-17504815D01*
X29196663Y-17540499D01*
X29196665Y-17540500D01*
X29196666Y-17540500D01*
X29323335Y-17540500D01*
X29323335Y-17540499D01*
X29444869Y-17504815D01*
X29444870Y-17504815D01*
X29444872Y-17504814D01*
X29551433Y-17436331D01*
X29634383Y-17340601D01*
X29687003Y-17225379D01*
X29705030Y-17100000D01*
X29687851Y-16980516D01*
X29687003Y-16974620D01*
X29646361Y-16885628D01*
X29634383Y-16859399D01*
X29551433Y-16763669D01*
X29539097Y-16755741D01*
X29493342Y-16702936D01*
X29483399Y-16633778D01*
X29512425Y-16570222D01*
X29539090Y-16547116D01*
X29571433Y-16526331D01*
X29654383Y-16430601D01*
X29707003Y-16315379D01*
X29725030Y-16190000D01*
X29708588Y-16075646D01*
X29707003Y-16064620D01*
X29661187Y-15964298D01*
X29654383Y-15949399D01*
X29571433Y-15853669D01*
X29523536Y-15822887D01*
X29477782Y-15770084D01*
X29467839Y-15700926D01*
X29496864Y-15637370D01*
X29523536Y-15614258D01*
X29551433Y-15596331D01*
X29634383Y-15500601D01*
X29687003Y-15385379D01*
X29705030Y-15260000D01*
X29687003Y-15134621D01*
X29677869Y-15114621D01*
X29649806Y-15053171D01*
X29634383Y-15019399D01*
X29551433Y-14923669D01*
X29482956Y-14879661D01*
X29444870Y-14855184D01*
X29323336Y-14819500D01*
X29323334Y-14819500D01*
X29196666Y-14819500D01*
X29196664Y-14819500D01*
X29075130Y-14855184D01*
X29075129Y-14855184D01*
X28968568Y-14923668D01*
X28968564Y-14923671D01*
X28902377Y-15000055D01*
X28843599Y-15037829D01*
X28773729Y-15037829D01*
X28714952Y-15000055D01*
X28667407Y-14945186D01*
X28631433Y-14903669D01*
X28594070Y-14879657D01*
X28524870Y-14835184D01*
X28403336Y-14799500D01*
X28403334Y-14799500D01*
X28276666Y-14799500D01*
X28276664Y-14799500D01*
X28155130Y-14835184D01*
X28155129Y-14835184D01*
X28048568Y-14903668D01*
X28048567Y-14903668D01*
X27965046Y-15000056D01*
X27906268Y-15037829D01*
X27836398Y-15037829D01*
X27777621Y-15000055D01*
X27777053Y-14999399D01*
X27711433Y-14923669D01*
X27642956Y-14879661D01*
X27604870Y-14855184D01*
X27483336Y-14819500D01*
X27483334Y-14819500D01*
X27356666Y-14819500D01*
X27356664Y-14819500D01*
X27235130Y-14855184D01*
X27235129Y-14855184D01*
X27128568Y-14923668D01*
X27128567Y-14923668D01*
X27128567Y-14923669D01*
X27050318Y-15013974D01*
X27045617Y-15019399D01*
X27045616Y-15019400D01*
X26992996Y-15134620D01*
X26974970Y-15260000D01*
X26992996Y-15385379D01*
X27039888Y-15488056D01*
X27045617Y-15500601D01*
X27128567Y-15596331D01*
X27128569Y-15596332D01*
X27128571Y-15596334D01*
X27148681Y-15609258D01*
X27194436Y-15662061D01*
X27204380Y-15731220D01*
X27175355Y-15794776D01*
X27148683Y-15817888D01*
X27108567Y-15843669D01*
X27025617Y-15939399D01*
X27025616Y-15939400D01*
X26972996Y-16054620D01*
X26954970Y-16180000D01*
X12001000Y-16180000D01*
X12001000Y-16163722D01*
X12020685Y-16096683D01*
X12073489Y-16050928D01*
X12142647Y-16040984D01*
X12144312Y-16041235D01*
X12200000Y-16050056D01*
X12200002Y-16050056D01*
X12314349Y-16031945D01*
X12314349Y-16031944D01*
X12314354Y-16031944D01*
X12417513Y-15979382D01*
X12499382Y-15897513D01*
X12551944Y-15794354D01*
X12552443Y-15791202D01*
X12570056Y-15680002D01*
X12570056Y-15679997D01*
X12551945Y-15565650D01*
X12551944Y-15565648D01*
X12551944Y-15565646D01*
X12499382Y-15462487D01*
X12499380Y-15462485D01*
X12499377Y-15462481D01*
X12417518Y-15380622D01*
X12417514Y-15380619D01*
X12417513Y-15380618D01*
X12357422Y-15350000D01*
X24974970Y-15350000D01*
X24992996Y-15475379D01*
X25036239Y-15570066D01*
X25045617Y-15590601D01*
X25128567Y-15686331D01*
X25183333Y-15721527D01*
X25235129Y-15754815D01*
X25356663Y-15790499D01*
X25356665Y-15790500D01*
X25356666Y-15790500D01*
X25483335Y-15790500D01*
X25483335Y-15790499D01*
X25604869Y-15754815D01*
X25604870Y-15754815D01*
X25604872Y-15754814D01*
X25711433Y-15686331D01*
X25794383Y-15590601D01*
X25847003Y-15475379D01*
X25865030Y-15350000D01*
X25847003Y-15224621D01*
X25845845Y-15222086D01*
X25806092Y-15135039D01*
X25794383Y-15109399D01*
X25711433Y-15013669D01*
X25660693Y-14981060D01*
X25604870Y-14945184D01*
X25483336Y-14909500D01*
X25483334Y-14909500D01*
X25356666Y-14909500D01*
X25356664Y-14909500D01*
X25235130Y-14945184D01*
X25235129Y-14945184D01*
X25128568Y-15013668D01*
X25128567Y-15013668D01*
X25128567Y-15013669D01*
X25128303Y-15013974D01*
X25045617Y-15109399D01*
X25045616Y-15109400D01*
X24992996Y-15224620D01*
X24974970Y-15350000D01*
X12357422Y-15350000D01*
X12314354Y-15328056D01*
X12314352Y-15328055D01*
X12314349Y-15328054D01*
X12200002Y-15309944D01*
X12199998Y-15309944D01*
X12144398Y-15318750D01*
X12075104Y-15309795D01*
X12021652Y-15264799D01*
X12001013Y-15198047D01*
X12001000Y-15196277D01*
X12001000Y-14528793D01*
X12001000Y-14528792D01*
X11960085Y-14430015D01*
X11884485Y-14354415D01*
X11877420Y-14347350D01*
X11877413Y-14347344D01*
X10984282Y-13454213D01*
X13490647Y-13454213D01*
X13490647Y-13454218D01*
X13508757Y-13568565D01*
X13508758Y-13568568D01*
X13508759Y-13568570D01*
X13561321Y-13671729D01*
X13617660Y-13728068D01*
X13651144Y-13789389D01*
X13646160Y-13859081D01*
X13640464Y-13872041D01*
X13608054Y-13935649D01*
X13589944Y-14049997D01*
X13589944Y-14050002D01*
X13608054Y-14164349D01*
X13608055Y-14164352D01*
X13608056Y-14164354D01*
X13655530Y-14257527D01*
X13668426Y-14326196D01*
X13642149Y-14390936D01*
X13632727Y-14401501D01*
X13589603Y-14444625D01*
X13589600Y-14444629D01*
X13537035Y-14547794D01*
X13518925Y-14662141D01*
X13518925Y-14662146D01*
X13537035Y-14776493D01*
X13537036Y-14776496D01*
X13537037Y-14776498D01*
X13589599Y-14879657D01*
X13589600Y-14879658D01*
X13589602Y-14879661D01*
X13671462Y-14961521D01*
X13671466Y-14961524D01*
X13671468Y-14961526D01*
X13774627Y-15014088D01*
X13774629Y-15014088D01*
X13774631Y-15014089D01*
X13888979Y-15032200D01*
X13888981Y-15032200D01*
X13888983Y-15032200D01*
X14003330Y-15014089D01*
X14003330Y-15014088D01*
X14003335Y-15014088D01*
X14106494Y-14961526D01*
X14144352Y-14923668D01*
X14188360Y-14879661D01*
X14188360Y-14879659D01*
X14188363Y-14879657D01*
X14240925Y-14776498D01*
X14240926Y-14776493D01*
X14259037Y-14662146D01*
X14259037Y-14662141D01*
X14241275Y-14549997D01*
X21079944Y-14549997D01*
X21079944Y-14550002D01*
X21098054Y-14664349D01*
X21098055Y-14664352D01*
X21098056Y-14664354D01*
X21150618Y-14767513D01*
X21150619Y-14767514D01*
X21150622Y-14767518D01*
X21232481Y-14849377D01*
X21232485Y-14849380D01*
X21232487Y-14849382D01*
X21335646Y-14901944D01*
X21335648Y-14901944D01*
X21335650Y-14901945D01*
X21449998Y-14920056D01*
X21450000Y-14920056D01*
X21450002Y-14920056D01*
X21564349Y-14901945D01*
X21564349Y-14901944D01*
X21564354Y-14901944D01*
X21667513Y-14849382D01*
X21749382Y-14767513D01*
X21801944Y-14664354D01*
X21803069Y-14657250D01*
X21820056Y-14550002D01*
X21820056Y-14549997D01*
X21815305Y-14520000D01*
X25964970Y-14520000D01*
X25982996Y-14645379D01*
X26021417Y-14729507D01*
X26035617Y-14760601D01*
X26118567Y-14856331D01*
X26154869Y-14879661D01*
X26225129Y-14924815D01*
X26346663Y-14960499D01*
X26346665Y-14960500D01*
X26346666Y-14960500D01*
X26473335Y-14960500D01*
X26473335Y-14960499D01*
X26594869Y-14924815D01*
X26594870Y-14924815D01*
X26594872Y-14924814D01*
X26701433Y-14856331D01*
X26784383Y-14760601D01*
X26837003Y-14645379D01*
X26849279Y-14559997D01*
X30709944Y-14559997D01*
X30709944Y-14560002D01*
X30728054Y-14674349D01*
X30728055Y-14674352D01*
X30728056Y-14674354D01*
X30780101Y-14776498D01*
X30780619Y-14777514D01*
X30780622Y-14777518D01*
X30862481Y-14859377D01*
X30862485Y-14859380D01*
X30862487Y-14859382D01*
X30965646Y-14911944D01*
X30965648Y-14911944D01*
X30965650Y-14911945D01*
X31089058Y-14931491D01*
X31152192Y-14961420D01*
X31189124Y-15020731D01*
X31188126Y-15090594D01*
X31167212Y-15125341D01*
X31169688Y-15127140D01*
X31163952Y-15135035D01*
X31163950Y-15135037D01*
X31163949Y-15135039D01*
X31118305Y-15224620D01*
X31111385Y-15238202D01*
X31093275Y-15352549D01*
X31093275Y-15352554D01*
X31111385Y-15466901D01*
X31111386Y-15466904D01*
X31111387Y-15466906D01*
X31163949Y-15570065D01*
X31163950Y-15570066D01*
X31163953Y-15570070D01*
X31245812Y-15651929D01*
X31245816Y-15651932D01*
X31245818Y-15651934D01*
X31348977Y-15704496D01*
X31348980Y-15704496D01*
X31348983Y-15704498D01*
X31358263Y-15707514D01*
X31357602Y-15709545D01*
X31409070Y-15733944D01*
X31446002Y-15793255D01*
X31448118Y-15830241D01*
X31449944Y-15830241D01*
X31449944Y-15840002D01*
X31468054Y-15954349D01*
X31468055Y-15954352D01*
X31468056Y-15954354D01*
X31520618Y-16057513D01*
X31520619Y-16057514D01*
X31520622Y-16057518D01*
X31602481Y-16139377D01*
X31602485Y-16139380D01*
X31602487Y-16139382D01*
X31705646Y-16191944D01*
X31705648Y-16191944D01*
X31705650Y-16191945D01*
X31819998Y-16210056D01*
X31820000Y-16210056D01*
X31820002Y-16210056D01*
X31934349Y-16191945D01*
X31934349Y-16191944D01*
X31934354Y-16191944D01*
X32037513Y-16139382D01*
X32037518Y-16139377D01*
X32082693Y-16094203D01*
X32144016Y-16060718D01*
X32213708Y-16065702D01*
X32269641Y-16107574D01*
X32294058Y-16173038D01*
X32294374Y-16181884D01*
X32294374Y-16190002D01*
X32312484Y-16304349D01*
X32312485Y-16304352D01*
X32312486Y-16304354D01*
X32353095Y-16384053D01*
X32365049Y-16407514D01*
X32365052Y-16407518D01*
X32446911Y-16489377D01*
X32446915Y-16489380D01*
X32446917Y-16489382D01*
X32550076Y-16541944D01*
X32550078Y-16541944D01*
X32550080Y-16541945D01*
X32664428Y-16560056D01*
X32664430Y-16560056D01*
X32664432Y-16560056D01*
X32778779Y-16541945D01*
X32778779Y-16541944D01*
X32778784Y-16541944D01*
X32881943Y-16489382D01*
X32963812Y-16407513D01*
X33016374Y-16304354D01*
X33019676Y-16283505D01*
X33034486Y-16190002D01*
X33034486Y-16189997D01*
X33016375Y-16075650D01*
X33016374Y-16075648D01*
X33016374Y-16075646D01*
X32963812Y-15972487D01*
X32963810Y-15972485D01*
X32963807Y-15972481D01*
X32881948Y-15890622D01*
X32881944Y-15890619D01*
X32881943Y-15890618D01*
X32778784Y-15838056D01*
X32778782Y-15838055D01*
X32778779Y-15838054D01*
X32664432Y-15819944D01*
X32664428Y-15819944D01*
X32550080Y-15838054D01*
X32446915Y-15890619D01*
X32446911Y-15890622D01*
X32401737Y-15935797D01*
X32340414Y-15969282D01*
X32270722Y-15964298D01*
X32214789Y-15922426D01*
X32190372Y-15856962D01*
X32190056Y-15848116D01*
X32190056Y-15839997D01*
X32171945Y-15725650D01*
X32171944Y-15725648D01*
X32171944Y-15725646D01*
X32119382Y-15622487D01*
X32119380Y-15622485D01*
X32119377Y-15622481D01*
X32037518Y-15540622D01*
X32037514Y-15540619D01*
X32037513Y-15540618D01*
X31934354Y-15488056D01*
X31934352Y-15488055D01*
X31934347Y-15488053D01*
X31925068Y-15485038D01*
X31925727Y-15483008D01*
X31874248Y-15458597D01*
X31837324Y-15399281D01*
X31835216Y-15362311D01*
X31833387Y-15362311D01*
X31833387Y-15352549D01*
X31815276Y-15238202D01*
X31815275Y-15238200D01*
X31815275Y-15238198D01*
X31762713Y-15135039D01*
X31762711Y-15135037D01*
X31762710Y-15135035D01*
X31680849Y-15053174D01*
X31680845Y-15053171D01*
X31680844Y-15053170D01*
X31577685Y-15000608D01*
X31577683Y-15000607D01*
X31577680Y-15000606D01*
X31454272Y-14981060D01*
X31391137Y-14951130D01*
X31354206Y-14891819D01*
X31355204Y-14821956D01*
X31376173Y-14787250D01*
X31373643Y-14785412D01*
X31379377Y-14777517D01*
X31379382Y-14777513D01*
X31431944Y-14674354D01*
X31433878Y-14662144D01*
X31450056Y-14560002D01*
X31450056Y-14559997D01*
X31431945Y-14445650D01*
X31431944Y-14445648D01*
X31431944Y-14445646D01*
X31423970Y-14429997D01*
X33269944Y-14429997D01*
X33269944Y-14430002D01*
X33288054Y-14544349D01*
X33288055Y-14544352D01*
X33288056Y-14544354D01*
X33339531Y-14645379D01*
X33340619Y-14647514D01*
X33346357Y-14655412D01*
X33343482Y-14657500D01*
X33368405Y-14703099D01*
X33371250Y-14729507D01*
X33371250Y-16643799D01*
X33353818Y-16703164D01*
X33355049Y-16703792D01*
X33351709Y-16710346D01*
X33351565Y-16710838D01*
X33351148Y-16711447D01*
X33350618Y-16712486D01*
X33350618Y-16712487D01*
X33314350Y-16783668D01*
X33298054Y-16815650D01*
X33279944Y-16929997D01*
X33279944Y-16930002D01*
X33298054Y-17044349D01*
X33298055Y-17044352D01*
X33298056Y-17044354D01*
X33349861Y-17146027D01*
X33350619Y-17147514D01*
X33350622Y-17147518D01*
X33432481Y-17229377D01*
X33432485Y-17229380D01*
X33432487Y-17229382D01*
X33535646Y-17281944D01*
X33535648Y-17281944D01*
X33535650Y-17281945D01*
X33649998Y-17300056D01*
X33650000Y-17300056D01*
X33650002Y-17300056D01*
X33764349Y-17281945D01*
X33764349Y-17281944D01*
X33764354Y-17281944D01*
X33867513Y-17229382D01*
X33949382Y-17147513D01*
X33978686Y-17090000D01*
X35864970Y-17090000D01*
X35882996Y-17215379D01*
X35933199Y-17325306D01*
X35935617Y-17330601D01*
X36018567Y-17426331D01*
X36085552Y-17469380D01*
X36125129Y-17494815D01*
X36246663Y-17530499D01*
X36246665Y-17530500D01*
X36246666Y-17530500D01*
X36373335Y-17530500D01*
X36373335Y-17530499D01*
X36484481Y-17497865D01*
X36494869Y-17494815D01*
X36494870Y-17494815D01*
X36508356Y-17486148D01*
X36601433Y-17426331D01*
X36684383Y-17330601D01*
X36737003Y-17215379D01*
X36755030Y-17090000D01*
X36737003Y-16964621D01*
X36730600Y-16950601D01*
X36700928Y-16885628D01*
X36684383Y-16849399D01*
X36601433Y-16753669D01*
X36571026Y-16734127D01*
X36494870Y-16685184D01*
X36373336Y-16649500D01*
X36373334Y-16649500D01*
X36246666Y-16649500D01*
X36246664Y-16649500D01*
X36125130Y-16685184D01*
X36125129Y-16685184D01*
X36018568Y-16753668D01*
X36018567Y-16753668D01*
X36018567Y-16753669D01*
X35964420Y-16816158D01*
X35935617Y-16849399D01*
X35935616Y-16849400D01*
X35882996Y-16964620D01*
X35864970Y-17090000D01*
X33978686Y-17090000D01*
X34001944Y-17044354D01*
X34005722Y-17020500D01*
X34020056Y-16930002D01*
X34020056Y-16929997D01*
X34001945Y-16815650D01*
X34001944Y-16815648D01*
X34001944Y-16815646D01*
X33949382Y-16712487D01*
X33949380Y-16712485D01*
X33949377Y-16712481D01*
X33945069Y-16708173D01*
X33911584Y-16646850D01*
X33908750Y-16620492D01*
X33908750Y-15877515D01*
X36684500Y-15877515D01*
X36684500Y-16082484D01*
X36724483Y-16283495D01*
X36724486Y-16283505D01*
X36802918Y-16472859D01*
X36916790Y-16643279D01*
X36916793Y-16643283D01*
X37061716Y-16788206D01*
X37061720Y-16788209D01*
X37232138Y-16902080D01*
X37232139Y-16902080D01*
X37232140Y-16902081D01*
X37258938Y-16913181D01*
X37421497Y-16980515D01*
X37622515Y-17020499D01*
X37622519Y-17020500D01*
X37622520Y-17020500D01*
X38077481Y-17020500D01*
X38077482Y-17020499D01*
X38278503Y-16980515D01*
X38467862Y-16902080D01*
X38638280Y-16788209D01*
X38783209Y-16643280D01*
X38897080Y-16472862D01*
X38975515Y-16283503D01*
X39015500Y-16082480D01*
X39015500Y-15877520D01*
X38975515Y-15676497D01*
X38902385Y-15499945D01*
X38897081Y-15487140D01*
X38895676Y-15485038D01*
X38783209Y-15316720D01*
X38783206Y-15316716D01*
X38638283Y-15171793D01*
X38638279Y-15171790D01*
X38467859Y-15057918D01*
X38278505Y-14979486D01*
X38278506Y-14979486D01*
X38278503Y-14979485D01*
X38278499Y-14979484D01*
X38278495Y-14979483D01*
X38077484Y-14939500D01*
X38077480Y-14939500D01*
X37622520Y-14939500D01*
X37622515Y-14939500D01*
X37421504Y-14979483D01*
X37421494Y-14979486D01*
X37232140Y-15057918D01*
X37061720Y-15171790D01*
X37061716Y-15171793D01*
X36916793Y-15316716D01*
X36916789Y-15316721D01*
X36899660Y-15342356D01*
X36889527Y-15350823D01*
X36888827Y-15355696D01*
X36879134Y-15373076D01*
X36802919Y-15487139D01*
X36724486Y-15676494D01*
X36724483Y-15676504D01*
X36684500Y-15877515D01*
X33908750Y-15877515D01*
X33908750Y-14980000D01*
X35864970Y-14980000D01*
X35882996Y-15105379D01*
X35925317Y-15198047D01*
X35935617Y-15220601D01*
X36018567Y-15316331D01*
X36070957Y-15350000D01*
X36125129Y-15384815D01*
X36246663Y-15420499D01*
X36246665Y-15420500D01*
X36246666Y-15420500D01*
X36373335Y-15420500D01*
X36373335Y-15420499D01*
X36494869Y-15384815D01*
X36494870Y-15384815D01*
X36494872Y-15384814D01*
X36601433Y-15316331D01*
X36682319Y-15222983D01*
X36683713Y-15222086D01*
X36683766Y-15221950D01*
X36684381Y-15220603D01*
X36684383Y-15220601D01*
X36737003Y-15105379D01*
X36755030Y-14980000D01*
X36737003Y-14854621D01*
X36734610Y-14849382D01*
X36701789Y-14777513D01*
X36684383Y-14739399D01*
X36601433Y-14643669D01*
X36571026Y-14624127D01*
X36494870Y-14575184D01*
X36373336Y-14539500D01*
X36373334Y-14539500D01*
X36246666Y-14539500D01*
X36246664Y-14539500D01*
X36125130Y-14575184D01*
X36125129Y-14575184D01*
X36018568Y-14643668D01*
X36018567Y-14643668D01*
X36018567Y-14643669D01*
X35988694Y-14678145D01*
X35935617Y-14739399D01*
X35935616Y-14739400D01*
X35882996Y-14854620D01*
X35864970Y-14980000D01*
X33908750Y-14980000D01*
X33908750Y-14729507D01*
X33928435Y-14662468D01*
X33933945Y-14655632D01*
X33933643Y-14655412D01*
X33939377Y-14647517D01*
X33939382Y-14647513D01*
X33991944Y-14544354D01*
X33995722Y-14520500D01*
X34010056Y-14430002D01*
X34010056Y-14429997D01*
X33991945Y-14315648D01*
X33942265Y-14218145D01*
X33928750Y-14161851D01*
X33928750Y-13377515D01*
X36684500Y-13377515D01*
X36684500Y-13582484D01*
X36723022Y-13776149D01*
X36724485Y-13783503D01*
X36724921Y-13784555D01*
X36802918Y-13972859D01*
X36916790Y-14143279D01*
X36916793Y-14143283D01*
X37061716Y-14288206D01*
X37061720Y-14288209D01*
X37232138Y-14402080D01*
X37421497Y-14480515D01*
X37620006Y-14520000D01*
X37622515Y-14520499D01*
X37622519Y-14520500D01*
X37622520Y-14520500D01*
X38077481Y-14520500D01*
X38077482Y-14520499D01*
X38278503Y-14480515D01*
X38467862Y-14402080D01*
X38638280Y-14288209D01*
X38783209Y-14143280D01*
X38897080Y-13972862D01*
X38975515Y-13783503D01*
X39015500Y-13582480D01*
X39015500Y-13377520D01*
X38975515Y-13176497D01*
X38897080Y-12987138D01*
X38783209Y-12816720D01*
X38783206Y-12816716D01*
X38638283Y-12671793D01*
X38638279Y-12671790D01*
X38467859Y-12557918D01*
X38313478Y-12493972D01*
X38278503Y-12479485D01*
X38278499Y-12479484D01*
X38278495Y-12479483D01*
X38077484Y-12439500D01*
X38077480Y-12439500D01*
X37622520Y-12439500D01*
X37622515Y-12439500D01*
X37421504Y-12479483D01*
X37421494Y-12479486D01*
X37232140Y-12557918D01*
X37061720Y-12671790D01*
X37061716Y-12671793D01*
X36916793Y-12816716D01*
X36916789Y-12816721D01*
X36899660Y-12842356D01*
X36889527Y-12850823D01*
X36888827Y-12855696D01*
X36879134Y-12873076D01*
X36802919Y-12987139D01*
X36724486Y-13176494D01*
X36724483Y-13176504D01*
X36684500Y-13377515D01*
X33928750Y-13377515D01*
X33928750Y-12480000D01*
X35864970Y-12480000D01*
X35882996Y-12605379D01*
X35928407Y-12704814D01*
X35935617Y-12720601D01*
X36018567Y-12816331D01*
X36072309Y-12850869D01*
X36125129Y-12884815D01*
X36246663Y-12920499D01*
X36246665Y-12920500D01*
X36246666Y-12920500D01*
X36373335Y-12920500D01*
X36373335Y-12920499D01*
X36494869Y-12884815D01*
X36494870Y-12884815D01*
X36494872Y-12884814D01*
X36601433Y-12816331D01*
X36682319Y-12722983D01*
X36683713Y-12722086D01*
X36683766Y-12721950D01*
X36684381Y-12720603D01*
X36684383Y-12720601D01*
X36737003Y-12605379D01*
X36755030Y-12480000D01*
X36737003Y-12354621D01*
X36712058Y-12300000D01*
X36691051Y-12254000D01*
X36684383Y-12239399D01*
X36601433Y-12143669D01*
X36571026Y-12124127D01*
X36494870Y-12075184D01*
X36373336Y-12039500D01*
X36373334Y-12039500D01*
X36246666Y-12039500D01*
X36246664Y-12039500D01*
X36125130Y-12075184D01*
X36125129Y-12075184D01*
X36018568Y-12143668D01*
X36018567Y-12143668D01*
X36018567Y-12143669D01*
X35941918Y-12232127D01*
X35935617Y-12239399D01*
X35935616Y-12239400D01*
X35882996Y-12354620D01*
X35864970Y-12480000D01*
X33928750Y-12480000D01*
X33928750Y-12139507D01*
X33948435Y-12072468D01*
X33953945Y-12065632D01*
X33953643Y-12065412D01*
X33959377Y-12057517D01*
X33959382Y-12057513D01*
X34011944Y-11954354D01*
X34013825Y-11942481D01*
X34030056Y-11840002D01*
X34030056Y-11839997D01*
X34011945Y-11725650D01*
X34011944Y-11725648D01*
X34011944Y-11725646D01*
X33959382Y-11622487D01*
X33959380Y-11622485D01*
X33954951Y-11613792D01*
X33957386Y-11612551D01*
X33938951Y-11560861D01*
X33938750Y-11553799D01*
X33938750Y-10877515D01*
X36684500Y-10877515D01*
X36684500Y-11082484D01*
X36724483Y-11283495D01*
X36724485Y-11283503D01*
X36732997Y-11304052D01*
X36802918Y-11472859D01*
X36916790Y-11643279D01*
X36916793Y-11643283D01*
X37061716Y-11788206D01*
X37061720Y-11788209D01*
X37232138Y-11902080D01*
X37232139Y-11902080D01*
X37232140Y-11902081D01*
X37251263Y-11910002D01*
X37421497Y-11980515D01*
X37619725Y-12019944D01*
X37622515Y-12020499D01*
X37622519Y-12020500D01*
X37622520Y-12020500D01*
X38077481Y-12020500D01*
X38077482Y-12020499D01*
X38278503Y-11980515D01*
X38467862Y-11902080D01*
X38638280Y-11788209D01*
X38783209Y-11643280D01*
X38897080Y-11472862D01*
X38975515Y-11283503D01*
X39015500Y-11082480D01*
X39015500Y-10877520D01*
X38975515Y-10676497D01*
X38908070Y-10513670D01*
X38897081Y-10487140D01*
X38887015Y-10472076D01*
X38783209Y-10316720D01*
X38783206Y-10316716D01*
X38638283Y-10171793D01*
X38638279Y-10171790D01*
X38467859Y-10057918D01*
X38278505Y-9979486D01*
X38278506Y-9979486D01*
X38278503Y-9979485D01*
X38278499Y-9979484D01*
X38278495Y-9979483D01*
X38077484Y-9939500D01*
X38077480Y-9939500D01*
X37622520Y-9939500D01*
X37622515Y-9939500D01*
X37421504Y-9979483D01*
X37421494Y-9979486D01*
X37232140Y-10057918D01*
X37061720Y-10171790D01*
X37061716Y-10171793D01*
X36916793Y-10316716D01*
X36916789Y-10316721D01*
X36899660Y-10342356D01*
X36889527Y-10350823D01*
X36888827Y-10355696D01*
X36879134Y-10373076D01*
X36802919Y-10487139D01*
X36724486Y-10676494D01*
X36724483Y-10676504D01*
X36684500Y-10877515D01*
X33938750Y-10877515D01*
X33938750Y-9980000D01*
X35864970Y-9980000D01*
X35882996Y-10105379D01*
X35932451Y-10213668D01*
X35935617Y-10220601D01*
X36018567Y-10316331D01*
X36072237Y-10350823D01*
X36125129Y-10384815D01*
X36229123Y-10415349D01*
X36242858Y-10419382D01*
X36246663Y-10420499D01*
X36246665Y-10420500D01*
X36246666Y-10420500D01*
X36373335Y-10420500D01*
X36373335Y-10420499D01*
X36467646Y-10392807D01*
X36494869Y-10384815D01*
X36494870Y-10384815D01*
X36494872Y-10384814D01*
X36601433Y-10316331D01*
X36682319Y-10222983D01*
X36683713Y-10222086D01*
X36683766Y-10221950D01*
X36684381Y-10220603D01*
X36684383Y-10220601D01*
X36737003Y-10105379D01*
X36755030Y-9980000D01*
X36737003Y-9854621D01*
X36735175Y-9850619D01*
X36697469Y-9768054D01*
X36684383Y-9739399D01*
X36601433Y-9643669D01*
X36552884Y-9612468D01*
X36494870Y-9575184D01*
X36373336Y-9539500D01*
X36373334Y-9539500D01*
X36246666Y-9539500D01*
X36246664Y-9539500D01*
X36125130Y-9575184D01*
X36125129Y-9575184D01*
X36018568Y-9643668D01*
X35935617Y-9739399D01*
X35935616Y-9739400D01*
X35882996Y-9854620D01*
X35864970Y-9980000D01*
X33938750Y-9980000D01*
X33938750Y-9679507D01*
X33958435Y-9612468D01*
X33963945Y-9605632D01*
X33963643Y-9605412D01*
X33969377Y-9597517D01*
X33969382Y-9597513D01*
X34021944Y-9494354D01*
X34021945Y-9494349D01*
X34040056Y-9380002D01*
X34040056Y-9379997D01*
X34021945Y-9265650D01*
X34021944Y-9265648D01*
X34021944Y-9265646D01*
X33969382Y-9162487D01*
X33969380Y-9162485D01*
X33969377Y-9162481D01*
X33955069Y-9148173D01*
X33921584Y-9086850D01*
X33918750Y-9060492D01*
X33918750Y-8377515D01*
X36684500Y-8377515D01*
X36684500Y-8582484D01*
X36724483Y-8783495D01*
X36724486Y-8783505D01*
X36802918Y-8972859D01*
X36916790Y-9143279D01*
X36916793Y-9143283D01*
X37061716Y-9288206D01*
X37061720Y-9288209D01*
X37232138Y-9402080D01*
X37421497Y-9480515D01*
X37622515Y-9520499D01*
X37622519Y-9520500D01*
X37622520Y-9520500D01*
X38077481Y-9520500D01*
X38077482Y-9520499D01*
X38278503Y-9480515D01*
X38467862Y-9402080D01*
X38638280Y-9288209D01*
X38783209Y-9143280D01*
X38897080Y-8972862D01*
X38975515Y-8783503D01*
X39015500Y-8582480D01*
X39015500Y-8377520D01*
X38975515Y-8176497D01*
X38911567Y-8022113D01*
X38897081Y-7987140D01*
X38895397Y-7984620D01*
X38783209Y-7816720D01*
X38783206Y-7816716D01*
X38638283Y-7671793D01*
X38638279Y-7671790D01*
X38467859Y-7557918D01*
X38278505Y-7479486D01*
X38278506Y-7479486D01*
X38278503Y-7479485D01*
X38278499Y-7479484D01*
X38278495Y-7479483D01*
X38077484Y-7439500D01*
X38077480Y-7439500D01*
X37622520Y-7439500D01*
X37622515Y-7439500D01*
X37421504Y-7479483D01*
X37421494Y-7479486D01*
X37232140Y-7557918D01*
X37061720Y-7671790D01*
X37061716Y-7671793D01*
X36916793Y-7816716D01*
X36916789Y-7816721D01*
X36899660Y-7842356D01*
X36889527Y-7850823D01*
X36888827Y-7855696D01*
X36879134Y-7873076D01*
X36802919Y-7987139D01*
X36724486Y-8176494D01*
X36724483Y-8176504D01*
X36684500Y-8377515D01*
X33918750Y-8377515D01*
X33918750Y-7480000D01*
X35864970Y-7480000D01*
X35882996Y-7605379D01*
X35923627Y-7694347D01*
X35935617Y-7720601D01*
X36018567Y-7816331D01*
X36064247Y-7845688D01*
X36125129Y-7884815D01*
X36246663Y-7920499D01*
X36246665Y-7920500D01*
X36246666Y-7920500D01*
X36373335Y-7920500D01*
X36373335Y-7920499D01*
X36494869Y-7884815D01*
X36494870Y-7884815D01*
X36503332Y-7879377D01*
X36601433Y-7816331D01*
X36682319Y-7722983D01*
X36683713Y-7722086D01*
X36683766Y-7721950D01*
X36684381Y-7720603D01*
X36684383Y-7720601D01*
X36737003Y-7605379D01*
X36755030Y-7480000D01*
X36737003Y-7354621D01*
X36734610Y-7349382D01*
X36707720Y-7290500D01*
X36684383Y-7239399D01*
X36601433Y-7143669D01*
X36537344Y-7102481D01*
X36494870Y-7075184D01*
X36373336Y-7039500D01*
X36373334Y-7039500D01*
X36246666Y-7039500D01*
X36246664Y-7039500D01*
X36125130Y-7075184D01*
X36125129Y-7075184D01*
X36018568Y-7143668D01*
X36018567Y-7143668D01*
X36018567Y-7143669D01*
X35937419Y-7237319D01*
X35935617Y-7239399D01*
X35935616Y-7239400D01*
X35882996Y-7354620D01*
X35864970Y-7480000D01*
X33918750Y-7480000D01*
X33918750Y-7209507D01*
X33938435Y-7142468D01*
X33943945Y-7135632D01*
X33943643Y-7135412D01*
X33949377Y-7127517D01*
X33949382Y-7127513D01*
X34001944Y-7024354D01*
X34002536Y-7020618D01*
X34020056Y-6910002D01*
X34020056Y-6909997D01*
X34001945Y-6795650D01*
X34001944Y-6795648D01*
X34001944Y-6795646D01*
X33949382Y-6692487D01*
X33949380Y-6692485D01*
X33943643Y-6684588D01*
X33946512Y-6682503D01*
X33921584Y-6636850D01*
X33918750Y-6610492D01*
X33918750Y-5877515D01*
X36684500Y-5877515D01*
X36684500Y-6082484D01*
X36724483Y-6283495D01*
X36724486Y-6283505D01*
X36802918Y-6472859D01*
X36916790Y-6643279D01*
X36916793Y-6643283D01*
X37061716Y-6788206D01*
X37061720Y-6788209D01*
X37232138Y-6902080D01*
X37232139Y-6902080D01*
X37232140Y-6902081D01*
X37251263Y-6910002D01*
X37421497Y-6980515D01*
X37582205Y-7012481D01*
X37622515Y-7020499D01*
X37622519Y-7020500D01*
X37622520Y-7020500D01*
X38077481Y-7020500D01*
X38077482Y-7020499D01*
X38278503Y-6980515D01*
X38467862Y-6902080D01*
X38638280Y-6788209D01*
X38783209Y-6643280D01*
X38897080Y-6472862D01*
X38975515Y-6283503D01*
X39015500Y-6082480D01*
X39015500Y-5877520D01*
X38975515Y-5676497D01*
X38906806Y-5510618D01*
X38897081Y-5487140D01*
X38888431Y-5474195D01*
X38783209Y-5316720D01*
X38783206Y-5316716D01*
X38638283Y-5171793D01*
X38638279Y-5171790D01*
X38467859Y-5057918D01*
X38305337Y-4990600D01*
X38278503Y-4979485D01*
X38278499Y-4979484D01*
X38278495Y-4979483D01*
X38077484Y-4939500D01*
X38077480Y-4939500D01*
X37622520Y-4939500D01*
X37622515Y-4939500D01*
X37421504Y-4979483D01*
X37421494Y-4979486D01*
X37232140Y-5057918D01*
X37061720Y-5171790D01*
X37061716Y-5171793D01*
X36916793Y-5316716D01*
X36916789Y-5316721D01*
X36899660Y-5342356D01*
X36889527Y-5350823D01*
X36888827Y-5355696D01*
X36879134Y-5373076D01*
X36802919Y-5487139D01*
X36724486Y-5676494D01*
X36724483Y-5676504D01*
X36684500Y-5877515D01*
X33918750Y-5877515D01*
X33918750Y-4980000D01*
X35864970Y-4980000D01*
X35882996Y-5105379D01*
X35913326Y-5171791D01*
X35935617Y-5220601D01*
X36018567Y-5316331D01*
X36072237Y-5350823D01*
X36125129Y-5384815D01*
X36246663Y-5420499D01*
X36246665Y-5420500D01*
X36246666Y-5420500D01*
X36373335Y-5420500D01*
X36373335Y-5420499D01*
X36494869Y-5384815D01*
X36494870Y-5384815D01*
X36494872Y-5384814D01*
X36601433Y-5316331D01*
X36682319Y-5222983D01*
X36683713Y-5222086D01*
X36683766Y-5221950D01*
X36684381Y-5220603D01*
X36684383Y-5220601D01*
X36737003Y-5105379D01*
X36755030Y-4980000D01*
X36737003Y-4854621D01*
X36734664Y-4849500D01*
X36698671Y-4770685D01*
X36684383Y-4739399D01*
X36601433Y-4643669D01*
X36531095Y-4598465D01*
X36494870Y-4575184D01*
X36373336Y-4539500D01*
X36373334Y-4539500D01*
X36246666Y-4539500D01*
X36246664Y-4539500D01*
X36125130Y-4575184D01*
X36125129Y-4575184D01*
X36018568Y-4643668D01*
X36018567Y-4643668D01*
X36018567Y-4643669D01*
X36000461Y-4664565D01*
X35935617Y-4739399D01*
X35935616Y-4739400D01*
X35882996Y-4854620D01*
X35864970Y-4980000D01*
X33918750Y-4980000D01*
X33918750Y-4719507D01*
X33938435Y-4652468D01*
X33943945Y-4645632D01*
X33943643Y-4645412D01*
X33949377Y-4637517D01*
X33949382Y-4637513D01*
X34001944Y-4534354D01*
X34004138Y-4520500D01*
X34020056Y-4420002D01*
X34020056Y-4419997D01*
X34001945Y-4305650D01*
X34001944Y-4305648D01*
X34001944Y-4305646D01*
X33949382Y-4202487D01*
X33949380Y-4202485D01*
X33944951Y-4193792D01*
X33947386Y-4192551D01*
X33928951Y-4140861D01*
X33928750Y-4133799D01*
X33928750Y-3377515D01*
X36684500Y-3377515D01*
X36684500Y-3582484D01*
X36724483Y-3783495D01*
X36724486Y-3783505D01*
X36802918Y-3972859D01*
X36916790Y-4143279D01*
X36916793Y-4143283D01*
X37061716Y-4288206D01*
X37061720Y-4288209D01*
X37232138Y-4402080D01*
X37421497Y-4480515D01*
X37622515Y-4520499D01*
X37622519Y-4520500D01*
X37622520Y-4520500D01*
X38077481Y-4520500D01*
X38077482Y-4520499D01*
X38278503Y-4480515D01*
X38467862Y-4402080D01*
X38638280Y-4288209D01*
X38783209Y-4143280D01*
X38897080Y-3972862D01*
X38975515Y-3783503D01*
X39015500Y-3582480D01*
X39015500Y-3377520D01*
X38975515Y-3176497D01*
X38902614Y-3000499D01*
X38897081Y-2987140D01*
X38894567Y-2983378D01*
X38783209Y-2816720D01*
X38783206Y-2816716D01*
X38638283Y-2671793D01*
X38638279Y-2671790D01*
X38467859Y-2557918D01*
X38278505Y-2479486D01*
X38278506Y-2479486D01*
X38278503Y-2479485D01*
X38278499Y-2479484D01*
X38278495Y-2479483D01*
X38077484Y-2439500D01*
X38077480Y-2439500D01*
X37622520Y-2439500D01*
X37622515Y-2439500D01*
X37421504Y-2479483D01*
X37421494Y-2479486D01*
X37232140Y-2557918D01*
X37061720Y-2671790D01*
X37061716Y-2671793D01*
X36916793Y-2816716D01*
X36916787Y-2816724D01*
X36914084Y-2820769D01*
X36865045Y-2861743D01*
X36859633Y-2899388D01*
X36849940Y-2916768D01*
X36802918Y-2987139D01*
X36724486Y-3176494D01*
X36724483Y-3176504D01*
X36684500Y-3377515D01*
X33928750Y-3377515D01*
X33928750Y-2490000D01*
X35864970Y-2490000D01*
X35882996Y-2615379D01*
X35928403Y-2714805D01*
X35935617Y-2730601D01*
X36018567Y-2826331D01*
X36073669Y-2861743D01*
X36125129Y-2894815D01*
X36246663Y-2930499D01*
X36246665Y-2930500D01*
X36246666Y-2930500D01*
X36373335Y-2930500D01*
X36373335Y-2930499D01*
X36479294Y-2899388D01*
X36494869Y-2894815D01*
X36494870Y-2894815D01*
X36494872Y-2894814D01*
X36601433Y-2826331D01*
X36653125Y-2766675D01*
X36692176Y-2741577D01*
X36692657Y-2714805D01*
X36698186Y-2700375D01*
X36737003Y-2615379D01*
X36755030Y-2490000D01*
X36737003Y-2364621D01*
X36735357Y-2361017D01*
X36697369Y-2277834D01*
X36684383Y-2249399D01*
X36601433Y-2153669D01*
X36560734Y-2127513D01*
X36494870Y-2085184D01*
X36373336Y-2049500D01*
X36373334Y-2049500D01*
X36246666Y-2049500D01*
X36246664Y-2049500D01*
X36125130Y-2085184D01*
X36125129Y-2085184D01*
X36018568Y-2153668D01*
X36018567Y-2153668D01*
X36018567Y-2153669D01*
X35976737Y-2201944D01*
X35935617Y-2249399D01*
X35935616Y-2249400D01*
X35882996Y-2364620D01*
X35864970Y-2490000D01*
X33928750Y-2490000D01*
X33928750Y-2209507D01*
X33948435Y-2142468D01*
X33953945Y-2135632D01*
X33953643Y-2135412D01*
X33959377Y-2127517D01*
X33959382Y-2127513D01*
X34011944Y-2024354D01*
X34015220Y-2003669D01*
X34030056Y-1910002D01*
X34030056Y-1909997D01*
X34011945Y-1795650D01*
X34011944Y-1795648D01*
X34011944Y-1795646D01*
X33959382Y-1692487D01*
X33959380Y-1692485D01*
X33959377Y-1692481D01*
X33877518Y-1610622D01*
X33877514Y-1610619D01*
X33877513Y-1610618D01*
X33774354Y-1558056D01*
X33774352Y-1558055D01*
X33774349Y-1558054D01*
X33660002Y-1539944D01*
X33659998Y-1539944D01*
X33545650Y-1558054D01*
X33442485Y-1610619D01*
X33442481Y-1610622D01*
X33360622Y-1692481D01*
X33360619Y-1692485D01*
X33308054Y-1795650D01*
X33289944Y-1909997D01*
X33289944Y-1910002D01*
X33308054Y-2024349D01*
X33308055Y-2024352D01*
X33308056Y-2024354D01*
X33360618Y-2127513D01*
X33360619Y-2127514D01*
X33366357Y-2135412D01*
X33363482Y-2137500D01*
X33388405Y-2183099D01*
X33391250Y-2209507D01*
X33391250Y-4110492D01*
X33371565Y-4177531D01*
X33354931Y-4198173D01*
X33350622Y-4202481D01*
X33350619Y-4202485D01*
X33298054Y-4305650D01*
X33279944Y-4419997D01*
X33279944Y-4420002D01*
X33298054Y-4534349D01*
X33298055Y-4534352D01*
X33298056Y-4534354D01*
X33346220Y-4628881D01*
X33350619Y-4637514D01*
X33356357Y-4645412D01*
X33353482Y-4647500D01*
X33378405Y-4693099D01*
X33381250Y-4719507D01*
X33381250Y-6610492D01*
X33361565Y-6677531D01*
X33356055Y-6684368D01*
X33356357Y-6684588D01*
X33350619Y-6692485D01*
X33350618Y-6692487D01*
X33327400Y-6738056D01*
X33298054Y-6795650D01*
X33279944Y-6909997D01*
X33279944Y-6910002D01*
X33298054Y-7024349D01*
X33298055Y-7024352D01*
X33298056Y-7024354D01*
X33350618Y-7127513D01*
X33350619Y-7127514D01*
X33356357Y-7135412D01*
X33353482Y-7137500D01*
X33378405Y-7183099D01*
X33381250Y-7209507D01*
X33381250Y-9111851D01*
X33367735Y-9168145D01*
X33318054Y-9265648D01*
X33299944Y-9379997D01*
X33299944Y-9380002D01*
X33318054Y-9494349D01*
X33318055Y-9494352D01*
X33318056Y-9494354D01*
X33370618Y-9597513D01*
X33370619Y-9597514D01*
X33376357Y-9605412D01*
X33373482Y-9607500D01*
X33398405Y-9653099D01*
X33401250Y-9679507D01*
X33401250Y-11530492D01*
X33381565Y-11597531D01*
X33364931Y-11618173D01*
X33360622Y-11622481D01*
X33360619Y-11622485D01*
X33308054Y-11725650D01*
X33289944Y-11839997D01*
X33289944Y-11840002D01*
X33308054Y-11954349D01*
X33308055Y-11954352D01*
X33308056Y-11954354D01*
X33356790Y-12050000D01*
X33360619Y-12057514D01*
X33366357Y-12065412D01*
X33363482Y-12067500D01*
X33388405Y-12113099D01*
X33391250Y-12139507D01*
X33391250Y-14110492D01*
X33371565Y-14177531D01*
X33354931Y-14198173D01*
X33340622Y-14212481D01*
X33340619Y-14212485D01*
X33288054Y-14315650D01*
X33269944Y-14429997D01*
X31423970Y-14429997D01*
X31379382Y-14342487D01*
X31379380Y-14342485D01*
X31379377Y-14342481D01*
X31297518Y-14260622D01*
X31297514Y-14260619D01*
X31297513Y-14260618D01*
X31194354Y-14208056D01*
X31194352Y-14208055D01*
X31194349Y-14208054D01*
X31080002Y-14189944D01*
X31079998Y-14189944D01*
X30965650Y-14208054D01*
X30862485Y-14260619D01*
X30862481Y-14260622D01*
X30780622Y-14342481D01*
X30780619Y-14342485D01*
X30728054Y-14445650D01*
X30709944Y-14559997D01*
X26849279Y-14559997D01*
X26855030Y-14520000D01*
X26838076Y-14402081D01*
X26837003Y-14394620D01*
X26808627Y-14332487D01*
X26784383Y-14279399D01*
X26701433Y-14183669D01*
X26638587Y-14143280D01*
X26594870Y-14115184D01*
X26473336Y-14079500D01*
X26473334Y-14079500D01*
X26346666Y-14079500D01*
X26346664Y-14079500D01*
X26225130Y-14115184D01*
X26225129Y-14115184D01*
X26118568Y-14183668D01*
X26118567Y-14183668D01*
X26118567Y-14183669D01*
X26060556Y-14250618D01*
X26035617Y-14279399D01*
X26035616Y-14279400D01*
X25982996Y-14394620D01*
X25964970Y-14520000D01*
X21815305Y-14520000D01*
X21801945Y-14435650D01*
X21801944Y-14435648D01*
X21801944Y-14435646D01*
X21749382Y-14332487D01*
X21749380Y-14332485D01*
X21749377Y-14332481D01*
X21667518Y-14250622D01*
X21667514Y-14250619D01*
X21667513Y-14250618D01*
X21564354Y-14198056D01*
X21564352Y-14198055D01*
X21564349Y-14198054D01*
X21450002Y-14179944D01*
X21449998Y-14179944D01*
X21335650Y-14198054D01*
X21335646Y-14198055D01*
X21335646Y-14198056D01*
X21296219Y-14218145D01*
X21232485Y-14250619D01*
X21232481Y-14250622D01*
X21150622Y-14332481D01*
X21150619Y-14332485D01*
X21098054Y-14435650D01*
X21079944Y-14549997D01*
X14241275Y-14549997D01*
X14240926Y-14547794D01*
X14240925Y-14547792D01*
X14240925Y-14547790D01*
X14193449Y-14454613D01*
X14180554Y-14385948D01*
X14206830Y-14321207D01*
X14216255Y-14310640D01*
X14259378Y-14267517D01*
X14259382Y-14267513D01*
X14311944Y-14164354D01*
X14312340Y-14161855D01*
X14330056Y-14050002D01*
X14330056Y-14049997D01*
X14311945Y-13935650D01*
X14311944Y-13935648D01*
X14311944Y-13935646D01*
X14259382Y-13832487D01*
X14203041Y-13776146D01*
X14169558Y-13714826D01*
X14174542Y-13645134D01*
X14180231Y-13632189D01*
X14212647Y-13568570D01*
X14215931Y-13547835D01*
X14230759Y-13454218D01*
X14230759Y-13454213D01*
X14212648Y-13339866D01*
X14212647Y-13339864D01*
X14212647Y-13339862D01*
X14160085Y-13236703D01*
X14160083Y-13236701D01*
X14160080Y-13236697D01*
X14078221Y-13154838D01*
X14078217Y-13154835D01*
X14078216Y-13154834D01*
X13990224Y-13110000D01*
X17184970Y-13110000D01*
X17202996Y-13235379D01*
X17255616Y-13350599D01*
X17255617Y-13350601D01*
X17338567Y-13446331D01*
X17375491Y-13470061D01*
X17399802Y-13485685D01*
X17445557Y-13538489D01*
X17455500Y-13607648D01*
X17426474Y-13671203D01*
X17399802Y-13694315D01*
X17338568Y-13733668D01*
X17338567Y-13733668D01*
X17338567Y-13733669D01*
X17303294Y-13774377D01*
X17255617Y-13829399D01*
X17255616Y-13829400D01*
X17202996Y-13944620D01*
X17184970Y-14070000D01*
X17202996Y-14195379D01*
X17245391Y-14288209D01*
X17255617Y-14310601D01*
X17338567Y-14406331D01*
X17375400Y-14430002D01*
X17445129Y-14474815D01*
X17566663Y-14510499D01*
X17566665Y-14510500D01*
X17566666Y-14510500D01*
X17693335Y-14510500D01*
X17693335Y-14510499D01*
X17814869Y-14474815D01*
X17814870Y-14474815D01*
X17814872Y-14474814D01*
X17921433Y-14406331D01*
X18004383Y-14310601D01*
X18057003Y-14195379D01*
X18075030Y-14070000D01*
X18057003Y-13944621D01*
X18055198Y-13940669D01*
X18030693Y-13887010D01*
X18004383Y-13829399D01*
X17921433Y-13733669D01*
X17860196Y-13694314D01*
X17814443Y-13641511D01*
X17804499Y-13572353D01*
X17833524Y-13508797D01*
X17860197Y-13485685D01*
X17876823Y-13475000D01*
X17921433Y-13446331D01*
X18004383Y-13350601D01*
X18057003Y-13235379D01*
X18057776Y-13230000D01*
X18754970Y-13230000D01*
X18772996Y-13355379D01*
X18814533Y-13446331D01*
X18825617Y-13470601D01*
X18908567Y-13566331D01*
X18972647Y-13607513D01*
X19015129Y-13634815D01*
X19136663Y-13670499D01*
X19136665Y-13670500D01*
X19136666Y-13670500D01*
X19263335Y-13670500D01*
X19263335Y-13670499D01*
X19384869Y-13634815D01*
X19384870Y-13634815D01*
X19388983Y-13632172D01*
X19491433Y-13566331D01*
X19574383Y-13470601D01*
X19611194Y-13389997D01*
X27009944Y-13389997D01*
X27009944Y-13390002D01*
X27028054Y-13504349D01*
X27028055Y-13504352D01*
X27028056Y-13504354D01*
X27071366Y-13589354D01*
X27080619Y-13607514D01*
X27080622Y-13607518D01*
X27162481Y-13689377D01*
X27162485Y-13689380D01*
X27162487Y-13689382D01*
X27265646Y-13741944D01*
X27265648Y-13741944D01*
X27265650Y-13741945D01*
X27379998Y-13760056D01*
X27380000Y-13760056D01*
X27380002Y-13760056D01*
X27494349Y-13741945D01*
X27494349Y-13741944D01*
X27494354Y-13741944D01*
X27597513Y-13689382D01*
X27679382Y-13607513D01*
X27731944Y-13504354D01*
X27736594Y-13474997D01*
X28464943Y-13474997D01*
X28464943Y-13475002D01*
X28483053Y-13589349D01*
X28483054Y-13589352D01*
X28483055Y-13589354D01*
X28534021Y-13689380D01*
X28535618Y-13692514D01*
X28535621Y-13692518D01*
X28617480Y-13774377D01*
X28617484Y-13774380D01*
X28617486Y-13774382D01*
X28720645Y-13826944D01*
X28720647Y-13826944D01*
X28720649Y-13826945D01*
X28834997Y-13845056D01*
X28834999Y-13845056D01*
X28835001Y-13845056D01*
X28949348Y-13826945D01*
X28949348Y-13826944D01*
X28949353Y-13826944D01*
X29052512Y-13774382D01*
X29134381Y-13692513D01*
X29186943Y-13589354D01*
X29188944Y-13576719D01*
X29205055Y-13475002D01*
X29205055Y-13474997D01*
X29186944Y-13360650D01*
X29186943Y-13360648D01*
X29186943Y-13360646D01*
X29186207Y-13359202D01*
X30241789Y-13359202D01*
X30241789Y-13359207D01*
X30259899Y-13473554D01*
X30259900Y-13473557D01*
X30259901Y-13473559D01*
X30310239Y-13572353D01*
X30312464Y-13576719D01*
X30312467Y-13576723D01*
X30394326Y-13658582D01*
X30394330Y-13658585D01*
X30394332Y-13658587D01*
X30497491Y-13711149D01*
X30497493Y-13711149D01*
X30497495Y-13711150D01*
X30611843Y-13729261D01*
X30611845Y-13729261D01*
X30611847Y-13729261D01*
X30726194Y-13711150D01*
X30726194Y-13711149D01*
X30726199Y-13711149D01*
X30829358Y-13658587D01*
X30911227Y-13576718D01*
X30963789Y-13473559D01*
X30964258Y-13470599D01*
X30981901Y-13359207D01*
X30981901Y-13359202D01*
X30963790Y-13244855D01*
X30963789Y-13244853D01*
X30963789Y-13244851D01*
X30911227Y-13141692D01*
X30911225Y-13141690D01*
X30911222Y-13141686D01*
X30829363Y-13059827D01*
X30829359Y-13059824D01*
X30829358Y-13059823D01*
X30726199Y-13007261D01*
X30726197Y-13007260D01*
X30726194Y-13007259D01*
X30611847Y-12989149D01*
X30611843Y-12989149D01*
X30497495Y-13007259D01*
X30497491Y-13007260D01*
X30497491Y-13007261D01*
X30487894Y-13012151D01*
X30394330Y-13059824D01*
X30394326Y-13059827D01*
X30312467Y-13141686D01*
X30312464Y-13141690D01*
X30259899Y-13244855D01*
X30241789Y-13359202D01*
X29186207Y-13359202D01*
X29134381Y-13257487D01*
X29134379Y-13257485D01*
X29134376Y-13257481D01*
X29052517Y-13175622D01*
X29052513Y-13175619D01*
X29052512Y-13175618D01*
X28949353Y-13123056D01*
X28949351Y-13123055D01*
X28949348Y-13123054D01*
X28835001Y-13104944D01*
X28834997Y-13104944D01*
X28720649Y-13123054D01*
X28720645Y-13123055D01*
X28720645Y-13123056D01*
X28684074Y-13141690D01*
X28617484Y-13175619D01*
X28617480Y-13175622D01*
X28535621Y-13257481D01*
X28535618Y-13257485D01*
X28483053Y-13360650D01*
X28464943Y-13474997D01*
X27736594Y-13474997D01*
X27750056Y-13390002D01*
X27750056Y-13389997D01*
X27731945Y-13275650D01*
X27731944Y-13275648D01*
X27731944Y-13275646D01*
X27679382Y-13172487D01*
X27679380Y-13172485D01*
X27679377Y-13172481D01*
X27597518Y-13090622D01*
X27597514Y-13090619D01*
X27597513Y-13090618D01*
X27494354Y-13038056D01*
X27494352Y-13038055D01*
X27494349Y-13038054D01*
X27380002Y-13019944D01*
X27379998Y-13019944D01*
X27265650Y-13038054D01*
X27162485Y-13090619D01*
X27162481Y-13090622D01*
X27080622Y-13172481D01*
X27080619Y-13172485D01*
X27080618Y-13172487D01*
X27044640Y-13243099D01*
X27028054Y-13275650D01*
X27009944Y-13389997D01*
X19611194Y-13389997D01*
X19627003Y-13355379D01*
X19645030Y-13230000D01*
X19627490Y-13108006D01*
X19627003Y-13104620D01*
X19583474Y-13009306D01*
X19574383Y-12989399D01*
X19491433Y-12893669D01*
X19458536Y-12872527D01*
X19412783Y-12819724D01*
X19402839Y-12750566D01*
X19431864Y-12687010D01*
X19458533Y-12663901D01*
X19501433Y-12636331D01*
X19584383Y-12540601D01*
X19637003Y-12425379D01*
X19655030Y-12300000D01*
X19637003Y-12174621D01*
X19636495Y-12173509D01*
X19630324Y-12159997D01*
X23719944Y-12159997D01*
X23719944Y-12160002D01*
X23738054Y-12274349D01*
X23738055Y-12274352D01*
X23738056Y-12274354D01*
X23778954Y-12354621D01*
X23790619Y-12377514D01*
X23790622Y-12377518D01*
X23872481Y-12459377D01*
X23872485Y-12459380D01*
X23872487Y-12459382D01*
X23975646Y-12511944D01*
X23975648Y-12511944D01*
X23975650Y-12511945D01*
X24089998Y-12530056D01*
X24090000Y-12530056D01*
X24090002Y-12530056D01*
X24204349Y-12511945D01*
X24204349Y-12511944D01*
X24204354Y-12511944D01*
X24307513Y-12459382D01*
X24389382Y-12377513D01*
X24441944Y-12274354D01*
X24442634Y-12270000D01*
X24460056Y-12160002D01*
X24460056Y-12159997D01*
X24441945Y-12045650D01*
X24441944Y-12045648D01*
X24441944Y-12045646D01*
X24389382Y-11942487D01*
X24389380Y-11942485D01*
X24389377Y-11942481D01*
X24356893Y-11909997D01*
X25789944Y-11909997D01*
X25789944Y-11910002D01*
X25808054Y-12024349D01*
X25808055Y-12024352D01*
X25808056Y-12024354D01*
X25860618Y-12127513D01*
X25860619Y-12127514D01*
X25860622Y-12127518D01*
X25942481Y-12209377D01*
X25942485Y-12209380D01*
X25942487Y-12209382D01*
X26045646Y-12261944D01*
X26045648Y-12261944D01*
X26045650Y-12261945D01*
X26159998Y-12280056D01*
X26160000Y-12280056D01*
X26160002Y-12280056D01*
X26274349Y-12261945D01*
X26274349Y-12261944D01*
X26274354Y-12261944D01*
X26377513Y-12209382D01*
X26459382Y-12127513D01*
X26511944Y-12024354D01*
X26512171Y-12022920D01*
X26526453Y-11932747D01*
X26939948Y-11932747D01*
X26939948Y-11932752D01*
X26958058Y-12047099D01*
X26958059Y-12047102D01*
X26958060Y-12047104D01*
X27010622Y-12150263D01*
X27010623Y-12150264D01*
X27010626Y-12150268D01*
X27092485Y-12232127D01*
X27092489Y-12232130D01*
X27092491Y-12232132D01*
X27195650Y-12284694D01*
X27195652Y-12284694D01*
X27195654Y-12284695D01*
X27310002Y-12302806D01*
X27310004Y-12302806D01*
X27310006Y-12302806D01*
X27424353Y-12284695D01*
X27424353Y-12284694D01*
X27424358Y-12284694D01*
X27527517Y-12232132D01*
X27609386Y-12150263D01*
X27661948Y-12047104D01*
X27661949Y-12047099D01*
X27676597Y-11954617D01*
X28529944Y-11954617D01*
X28529944Y-11954622D01*
X28548054Y-12068969D01*
X28548055Y-12068972D01*
X28548056Y-12068974D01*
X28594436Y-12160000D01*
X28600619Y-12172134D01*
X28600622Y-12172138D01*
X28682481Y-12253997D01*
X28682485Y-12254000D01*
X28682487Y-12254002D01*
X28785646Y-12306564D01*
X28785648Y-12306564D01*
X28785650Y-12306565D01*
X28899998Y-12324676D01*
X28900000Y-12324676D01*
X28900002Y-12324676D01*
X29014349Y-12306565D01*
X29014349Y-12306564D01*
X29014354Y-12306564D01*
X29117513Y-12254002D01*
X29199382Y-12172133D01*
X29251944Y-12068974D01*
X29251945Y-12068969D01*
X29270056Y-11954622D01*
X29270056Y-11954617D01*
X29251945Y-11840270D01*
X29251944Y-11840268D01*
X29251944Y-11840266D01*
X29199382Y-11737107D01*
X29199380Y-11737105D01*
X29199377Y-11737101D01*
X29117518Y-11655242D01*
X29117514Y-11655239D01*
X29117513Y-11655238D01*
X29014354Y-11602676D01*
X29014352Y-11602675D01*
X29014349Y-11602674D01*
X28900002Y-11584564D01*
X28899998Y-11584564D01*
X28785650Y-11602674D01*
X28682485Y-11655239D01*
X28682481Y-11655242D01*
X28600622Y-11737101D01*
X28600619Y-11737105D01*
X28600618Y-11737107D01*
X28563784Y-11809399D01*
X28548054Y-11840270D01*
X28529944Y-11954617D01*
X27676597Y-11954617D01*
X27680060Y-11932752D01*
X27680060Y-11932747D01*
X27661949Y-11818400D01*
X27661948Y-11818398D01*
X27661948Y-11818396D01*
X27609386Y-11715237D01*
X27609384Y-11715235D01*
X27609381Y-11715231D01*
X27527522Y-11633372D01*
X27527518Y-11633369D01*
X27527517Y-11633368D01*
X27424358Y-11580806D01*
X27424356Y-11580805D01*
X27424353Y-11580804D01*
X27310006Y-11562694D01*
X27310002Y-11562694D01*
X27195654Y-11580804D01*
X27195650Y-11580805D01*
X27195650Y-11580806D01*
X27162825Y-11597531D01*
X27092489Y-11633369D01*
X27092485Y-11633372D01*
X27010626Y-11715231D01*
X27010623Y-11715235D01*
X27010622Y-11715237D01*
X26963329Y-11808056D01*
X26958058Y-11818400D01*
X26939948Y-11932747D01*
X26526453Y-11932747D01*
X26530056Y-11910002D01*
X26530056Y-11909997D01*
X26511945Y-11795650D01*
X26511944Y-11795648D01*
X26511944Y-11795646D01*
X26459382Y-11692487D01*
X26459380Y-11692485D01*
X26459377Y-11692481D01*
X26377518Y-11610622D01*
X26377514Y-11610619D01*
X26377513Y-11610618D01*
X26274354Y-11558056D01*
X26274352Y-11558055D01*
X26274349Y-11558054D01*
X26160002Y-11539944D01*
X26159998Y-11539944D01*
X26045650Y-11558054D01*
X26045646Y-11558055D01*
X26045646Y-11558056D01*
X25998938Y-11581855D01*
X25942485Y-11610619D01*
X25942481Y-11610622D01*
X25860622Y-11692481D01*
X25860619Y-11692485D01*
X25808054Y-11795650D01*
X25789944Y-11909997D01*
X24356893Y-11909997D01*
X24307518Y-11860622D01*
X24307514Y-11860619D01*
X24307513Y-11860618D01*
X24204354Y-11808056D01*
X24204352Y-11808055D01*
X24204349Y-11808054D01*
X24090002Y-11789944D01*
X24089998Y-11789944D01*
X23975650Y-11808054D01*
X23872485Y-11860619D01*
X23872481Y-11860622D01*
X23790622Y-11942481D01*
X23790619Y-11942485D01*
X23790618Y-11942487D01*
X23750869Y-12020500D01*
X23738054Y-12045650D01*
X23719944Y-12159997D01*
X19630324Y-12159997D01*
X19598642Y-12090622D01*
X19584383Y-12059399D01*
X19501433Y-11963669D01*
X19468464Y-11942481D01*
X19394870Y-11895184D01*
X19273336Y-11859500D01*
X19273334Y-11859500D01*
X19146666Y-11859500D01*
X19146664Y-11859500D01*
X19025130Y-11895184D01*
X19025129Y-11895184D01*
X18918568Y-11963668D01*
X18918567Y-11963668D01*
X18918567Y-11963669D01*
X18847534Y-12045646D01*
X18835617Y-12059399D01*
X18835616Y-12059400D01*
X18782996Y-12174620D01*
X18764970Y-12300000D01*
X18782996Y-12425379D01*
X18830801Y-12530056D01*
X18835617Y-12540601D01*
X18918567Y-12636331D01*
X18951462Y-12657471D01*
X18997216Y-12710274D01*
X19007160Y-12779433D01*
X18978135Y-12842988D01*
X18951463Y-12866100D01*
X18908570Y-12893666D01*
X18908568Y-12893668D01*
X18908567Y-12893668D01*
X18908567Y-12893669D01*
X18829758Y-12984620D01*
X18825617Y-12989399D01*
X18825616Y-12989400D01*
X18772996Y-13104620D01*
X18754970Y-13230000D01*
X18057776Y-13230000D01*
X18075030Y-13110000D01*
X18057003Y-12984621D01*
X18050324Y-12969997D01*
X18027720Y-12920500D01*
X18004383Y-12869399D01*
X17921433Y-12773669D01*
X17814872Y-12705186D01*
X17798727Y-12700445D01*
X17739949Y-12662672D01*
X17710923Y-12599117D01*
X17720866Y-12529958D01*
X17766620Y-12477153D01*
X17798725Y-12462491D01*
X17824872Y-12454814D01*
X17931433Y-12386331D01*
X18014383Y-12290601D01*
X18067003Y-12175379D01*
X18085030Y-12050000D01*
X18067003Y-11924621D01*
X18064918Y-11920056D01*
X18037263Y-11859500D01*
X18014383Y-11809399D01*
X17931433Y-11713669D01*
X17898464Y-11692481D01*
X17824870Y-11645184D01*
X17703336Y-11609500D01*
X17703334Y-11609500D01*
X17576666Y-11609500D01*
X17576664Y-11609500D01*
X17455130Y-11645184D01*
X17455129Y-11645184D01*
X17348568Y-11713668D01*
X17348567Y-11713668D01*
X17348567Y-11713669D01*
X17336735Y-11727324D01*
X17265617Y-11809399D01*
X17265616Y-11809400D01*
X17212996Y-11924620D01*
X17194970Y-12050000D01*
X17212996Y-12175379D01*
X17252530Y-12261944D01*
X17265617Y-12290601D01*
X17348567Y-12386331D01*
X17455128Y-12454814D01*
X17471270Y-12459553D01*
X17530048Y-12497325D01*
X17559075Y-12560879D01*
X17549134Y-12630038D01*
X17503382Y-12682844D01*
X17471275Y-12697508D01*
X17445127Y-12705185D01*
X17338568Y-12773668D01*
X17338567Y-12773668D01*
X17338567Y-12773669D01*
X17298660Y-12819724D01*
X17255617Y-12869399D01*
X17255616Y-12869400D01*
X17202996Y-12984620D01*
X17184970Y-13110000D01*
X13990224Y-13110000D01*
X13975057Y-13102272D01*
X13975055Y-13102271D01*
X13975052Y-13102270D01*
X13860705Y-13084160D01*
X13860701Y-13084160D01*
X13746353Y-13102270D01*
X13643188Y-13154835D01*
X13643184Y-13154838D01*
X13561325Y-13236697D01*
X13561322Y-13236701D01*
X13508757Y-13339866D01*
X13490647Y-13454213D01*
X10984282Y-13454213D01*
X10815601Y-13285532D01*
X10782116Y-13224209D01*
X10787100Y-13154517D01*
X10792789Y-13141573D01*
X10821944Y-13084354D01*
X10825829Y-13059824D01*
X10840056Y-12970002D01*
X10840056Y-12969997D01*
X10821945Y-12855650D01*
X10821944Y-12855648D01*
X10821944Y-12855646D01*
X10769382Y-12752487D01*
X10769380Y-12752485D01*
X10769377Y-12752481D01*
X10687518Y-12670622D01*
X10687514Y-12670619D01*
X10687513Y-12670618D01*
X10584354Y-12618056D01*
X10584352Y-12618055D01*
X10584349Y-12618054D01*
X10470002Y-12599944D01*
X10469998Y-12599944D01*
X10355650Y-12618054D01*
X10252485Y-12670619D01*
X10252481Y-12670622D01*
X10170622Y-12752481D01*
X10170619Y-12752485D01*
X10118054Y-12855650D01*
X10099944Y-12969997D01*
X10099944Y-12970002D01*
X10118054Y-13084349D01*
X10118055Y-13084352D01*
X10118056Y-13084354D01*
X10165009Y-13176504D01*
X10170619Y-13187514D01*
X10176357Y-13195412D01*
X10173482Y-13197500D01*
X10198405Y-13243099D01*
X10201250Y-13269507D01*
X10201250Y-13373458D01*
X10242165Y-13472235D01*
X10242166Y-13472236D01*
X10335201Y-13565271D01*
X10335207Y-13565276D01*
X11427181Y-14657250D01*
X11460666Y-14718573D01*
X11463500Y-14744931D01*
X11463500Y-15246364D01*
X11443815Y-15313403D01*
X11391011Y-15359158D01*
X11321853Y-15369102D01*
X11320102Y-15368837D01*
X11279801Y-15362454D01*
X11279797Y-15362454D01*
X11165449Y-15380564D01*
X11062284Y-15433129D01*
X11062280Y-15433132D01*
X10980421Y-15514991D01*
X10980418Y-15514995D01*
X10927853Y-15618160D01*
X10909743Y-15732507D01*
X10909743Y-15732512D01*
X10927853Y-15846859D01*
X10927854Y-15846862D01*
X10927855Y-15846864D01*
X10980100Y-15949400D01*
X10980418Y-15950024D01*
X10980421Y-15950028D01*
X11062280Y-16031887D01*
X11062284Y-16031890D01*
X11062286Y-16031892D01*
X11165445Y-16084454D01*
X11165447Y-16084454D01*
X11165449Y-16084455D01*
X11279797Y-16102566D01*
X11279799Y-16102566D01*
X11279801Y-16102566D01*
X11320102Y-16096183D01*
X11389396Y-16105138D01*
X11442848Y-16150134D01*
X11463487Y-16216885D01*
X11463500Y-16218656D01*
X11463500Y-16714703D01*
X11504415Y-16813480D01*
X11504416Y-16813481D01*
X11505525Y-16816158D01*
X11512994Y-16885628D01*
X11481720Y-16948107D01*
X11421631Y-16983760D01*
X11356030Y-16982589D01*
X11243336Y-16949500D01*
X11243334Y-16949500D01*
X11237047Y-16949500D01*
X11170008Y-16929815D01*
X11149366Y-16913181D01*
X9831819Y-15595634D01*
X9798334Y-15534311D01*
X9795500Y-15507953D01*
X9795500Y-10857400D01*
X10564970Y-10857400D01*
X10582996Y-10982779D01*
X10635616Y-11097999D01*
X10635617Y-11098001D01*
X10718567Y-11193731D01*
X10787051Y-11237743D01*
X10825129Y-11262215D01*
X10946663Y-11297899D01*
X10946665Y-11297900D01*
X10946666Y-11297900D01*
X11073335Y-11297900D01*
X11073335Y-11297899D01*
X11194869Y-11262215D01*
X11194870Y-11262215D01*
X11194872Y-11262214D01*
X11301433Y-11193731D01*
X11384383Y-11098001D01*
X11437003Y-10982779D01*
X11455030Y-10857400D01*
X11437003Y-10732021D01*
X11430299Y-10717342D01*
X11390129Y-10629382D01*
X11384383Y-10616799D01*
X11377971Y-10609399D01*
X11355862Y-10583883D01*
X11326837Y-10520328D01*
X11336781Y-10451169D01*
X11361890Y-10415004D01*
X11409382Y-10367513D01*
X11461944Y-10264354D01*
X11461945Y-10264349D01*
X11480056Y-10150002D01*
X11480056Y-10149997D01*
X11461945Y-10035650D01*
X11461944Y-10035648D01*
X11461944Y-10035646D01*
X11409382Y-9932487D01*
X11409380Y-9932485D01*
X11409377Y-9932481D01*
X11327518Y-9850622D01*
X11327514Y-9850619D01*
X11327513Y-9850618D01*
X11224354Y-9798056D01*
X11224352Y-9798055D01*
X11224349Y-9798054D01*
X11110002Y-9779944D01*
X11109998Y-9779944D01*
X10995650Y-9798054D01*
X10892485Y-9850619D01*
X10892481Y-9850622D01*
X10810622Y-9932481D01*
X10810619Y-9932485D01*
X10810618Y-9932487D01*
X10787400Y-9978056D01*
X10758054Y-10035650D01*
X10739944Y-10149997D01*
X10739944Y-10150002D01*
X10758054Y-10264351D01*
X10795920Y-10338667D01*
X10808816Y-10407336D01*
X10782539Y-10472076D01*
X10752478Y-10499274D01*
X10718569Y-10521066D01*
X10718568Y-10521068D01*
X10718567Y-10521068D01*
X10718567Y-10521069D01*
X10695649Y-10547518D01*
X10635617Y-10616799D01*
X10635616Y-10616800D01*
X10582996Y-10732020D01*
X10564970Y-10857400D01*
X9795500Y-10857400D01*
X9795500Y-8110000D01*
X10474970Y-8110000D01*
X10492996Y-8235379D01*
X10545616Y-8350599D01*
X10545617Y-8350601D01*
X10628567Y-8446331D01*
X10688446Y-8484813D01*
X10735129Y-8514815D01*
X10856663Y-8550499D01*
X10856665Y-8550500D01*
X10856666Y-8550500D01*
X10983335Y-8550500D01*
X10983335Y-8550499D01*
X11104869Y-8514815D01*
X11104870Y-8514815D01*
X11110579Y-8511146D01*
X11211433Y-8446331D01*
X11294383Y-8350601D01*
X11347003Y-8235379D01*
X11365030Y-8110000D01*
X11349268Y-8000381D01*
X11347003Y-7984620D01*
X11317720Y-7920500D01*
X11294383Y-7869399D01*
X11211433Y-7773669D01*
X11164749Y-7743667D01*
X11104870Y-7705184D01*
X10983336Y-7669500D01*
X10983334Y-7669500D01*
X10856666Y-7669500D01*
X10856664Y-7669500D01*
X10735130Y-7705184D01*
X10735129Y-7705184D01*
X10628568Y-7773668D01*
X10628567Y-7773668D01*
X10628567Y-7773669D01*
X10588942Y-7819399D01*
X10545617Y-7869399D01*
X10545616Y-7869400D01*
X10492996Y-7984620D01*
X10474970Y-8110000D01*
X9795500Y-8110000D01*
X9795500Y-7032046D01*
X9815185Y-6965007D01*
X9831819Y-6944365D01*
X11014365Y-5761819D01*
X11075688Y-5728334D01*
X11102046Y-5725500D01*
X11108335Y-5725500D01*
X11108335Y-5725499D01*
X11229869Y-5689815D01*
X11229870Y-5689815D01*
X11246003Y-5679447D01*
X11336433Y-5621331D01*
X11419383Y-5525601D01*
X11472003Y-5410379D01*
X11490030Y-5285000D01*
X11472722Y-5164620D01*
X11472003Y-5159620D01*
X11430792Y-5069381D01*
X11419383Y-5044399D01*
X11336433Y-4948669D01*
X11306026Y-4929127D01*
X11229870Y-4880184D01*
X11108336Y-4844500D01*
X11108334Y-4844500D01*
X10981666Y-4844500D01*
X10981664Y-4844500D01*
X10860130Y-4880184D01*
X10860129Y-4880184D01*
X10753568Y-4948668D01*
X10670617Y-5044398D01*
X10664443Y-5057918D01*
X10617998Y-5159620D01*
X10617996Y-5159624D01*
X10606036Y-5242803D01*
X10577010Y-5306358D01*
X10570979Y-5312835D01*
X9227538Y-6656276D01*
X9227534Y-6656281D01*
X9186000Y-6728220D01*
X9186001Y-6728220D01*
X9186001Y-6728221D01*
X9166552Y-6800805D01*
X9164500Y-6808464D01*
X8265500Y-6808464D01*
X8265500Y-6321238D01*
X8265500Y-6321235D01*
X8265499Y-6321233D01*
X8254447Y-6265671D01*
X8254447Y-6265670D01*
X8212343Y-6202657D01*
X8212342Y-6202656D01*
X8149329Y-6160552D01*
X8093765Y-6149500D01*
X8093762Y-6149500D01*
X6356238Y-6149500D01*
X6356235Y-6149500D01*
X6300671Y-6160552D01*
X6300670Y-6160552D01*
X6237657Y-6202656D01*
X6237656Y-6202657D01*
X6195552Y-6265670D01*
X6195552Y-6265671D01*
X6184500Y-6321233D01*
X5375500Y-6321233D01*
X5375500Y-5488006D01*
X5395185Y-5420967D01*
X5420838Y-5392151D01*
X5424304Y-5389306D01*
X5427991Y-5384814D01*
X5554331Y-5230868D01*
X5650948Y-5050109D01*
X5710445Y-4853974D01*
X5730535Y-4650000D01*
X5710445Y-4446026D01*
X5650948Y-4249891D01*
X5650946Y-4249888D01*
X5650946Y-4249886D01*
X5554332Y-4069133D01*
X5554330Y-4069130D01*
X5424305Y-3910695D01*
X5424304Y-3910693D01*
X5420831Y-3907843D01*
X5381499Y-3850096D01*
X5375500Y-3811994D01*
X5375500Y-3781233D01*
X6184500Y-3781233D01*
X6184500Y-5518766D01*
X6195552Y-5574328D01*
X6195552Y-5574329D01*
X6237656Y-5637342D01*
X6237657Y-5637343D01*
X6300670Y-5679447D01*
X6356233Y-5690499D01*
X6356236Y-5690500D01*
X6356238Y-5690500D01*
X8093764Y-5690500D01*
X8093765Y-5690499D01*
X8149329Y-5679447D01*
X8212343Y-5637343D01*
X8254447Y-5574329D01*
X8265500Y-5518762D01*
X8265500Y-3781238D01*
X8265500Y-3781235D01*
X8265499Y-3781233D01*
X8254447Y-3725671D01*
X8254447Y-3725670D01*
X8212343Y-3662657D01*
X8212342Y-3662656D01*
X8149329Y-3620552D01*
X8093765Y-3609500D01*
X8093762Y-3609500D01*
X6356238Y-3609500D01*
X6356235Y-3609500D01*
X6300671Y-3620552D01*
X6300670Y-3620552D01*
X6237657Y-3662656D01*
X6237656Y-3662657D01*
X6195552Y-3725670D01*
X6195552Y-3725671D01*
X6184500Y-3781233D01*
X5375500Y-3781233D01*
X5375500Y-2948006D01*
X5395185Y-2880967D01*
X5420838Y-2852151D01*
X5424304Y-2849306D01*
X5451044Y-2816724D01*
X5554331Y-2690868D01*
X5594680Y-2615379D01*
X5650946Y-2510113D01*
X5650946Y-2510112D01*
X5650948Y-2510109D01*
X5710445Y-2313974D01*
X5730535Y-2110000D01*
X5710445Y-1906026D01*
X5685816Y-1824839D01*
X5685192Y-1754974D01*
X5716794Y-1701165D01*
X5972819Y-1445141D01*
X6034142Y-1411656D01*
X6103834Y-1416640D01*
X6159767Y-1458512D01*
X6184184Y-1523976D01*
X6184500Y-1532822D01*
X6184500Y-2978766D01*
X6195552Y-3034328D01*
X6195552Y-3034329D01*
X6237656Y-3097342D01*
X6237657Y-3097343D01*
X6300670Y-3139447D01*
X6356233Y-3150499D01*
X6356236Y-3150500D01*
X6356238Y-3150500D01*
X8093764Y-3150500D01*
X8093765Y-3150499D01*
X8149329Y-3139447D01*
X8212343Y-3097343D01*
X8254447Y-3034329D01*
X8265500Y-2978762D01*
X8265500Y-2880000D01*
X11554970Y-2880000D01*
X11572996Y-3005379D01*
X11607351Y-3080604D01*
X11625617Y-3120601D01*
X11708567Y-3216331D01*
X11777051Y-3260343D01*
X11815129Y-3284815D01*
X11936663Y-3320499D01*
X11936665Y-3320500D01*
X11936666Y-3320500D01*
X12063335Y-3320500D01*
X12063335Y-3320499D01*
X12184869Y-3284815D01*
X12184870Y-3284815D01*
X12193296Y-3279400D01*
X12291433Y-3216331D01*
X12374383Y-3120601D01*
X12427003Y-3005379D01*
X12445030Y-2880000D01*
X12427003Y-2754621D01*
X12422524Y-2744814D01*
X12400693Y-2697010D01*
X12374383Y-2639399D01*
X12291433Y-2543669D01*
X12239213Y-2510109D01*
X12184870Y-2475184D01*
X12063336Y-2439500D01*
X12063334Y-2439500D01*
X11936666Y-2439500D01*
X11936664Y-2439500D01*
X11815130Y-2475184D01*
X11815129Y-2475184D01*
X11708568Y-2543668D01*
X11708567Y-2543668D01*
X11708567Y-2543669D01*
X11673303Y-2584366D01*
X11625617Y-2639399D01*
X11625616Y-2639400D01*
X11572996Y-2754620D01*
X11554970Y-2880000D01*
X8265500Y-2880000D01*
X8265500Y-1330500D01*
X8285185Y-1263461D01*
X8337989Y-1217706D01*
X8389500Y-1206500D01*
X12293679Y-1206500D01*
X12360718Y-1226185D01*
X12406473Y-1278989D01*
X12416417Y-1348147D01*
X12416152Y-1349897D01*
X12412531Y-1372759D01*
X12412531Y-1372765D01*
X12430641Y-1487112D01*
X12430642Y-1487115D01*
X12430643Y-1487117D01*
X12481798Y-1587514D01*
X12483206Y-1590277D01*
X12483209Y-1590281D01*
X12565068Y-1672140D01*
X12565072Y-1672143D01*
X12565074Y-1672145D01*
X12668233Y-1724707D01*
X12668235Y-1724707D01*
X12668237Y-1724708D01*
X12782585Y-1742819D01*
X12782587Y-1742819D01*
X12782589Y-1742819D01*
X12896936Y-1724708D01*
X12896936Y-1724707D01*
X12896941Y-1724707D01*
X13000100Y-1672145D01*
X13004989Y-1667255D01*
X13066306Y-1633768D01*
X13135998Y-1638747D01*
X13180355Y-1667251D01*
X13182481Y-1669377D01*
X13182485Y-1669380D01*
X13182487Y-1669382D01*
X13285646Y-1721944D01*
X13285648Y-1721944D01*
X13285650Y-1721945D01*
X13399998Y-1740056D01*
X13400000Y-1740056D01*
X13400002Y-1740056D01*
X13514349Y-1721945D01*
X13514349Y-1721944D01*
X13514354Y-1721944D01*
X13617513Y-1669382D01*
X13699382Y-1587513D01*
X13751944Y-1484354D01*
X13751945Y-1484349D01*
X13770056Y-1370002D01*
X13770056Y-1370001D01*
X13766872Y-1349896D01*
X13775828Y-1280603D01*
X13820826Y-1227151D01*
X13887577Y-1206513D01*
X13889346Y-1206500D01*
X16868574Y-1206500D01*
X16935613Y-1226185D01*
X16981368Y-1278989D01*
X16991312Y-1348147D01*
X16991047Y-1349898D01*
X16979944Y-1419998D01*
X16979944Y-1420002D01*
X16998054Y-1534349D01*
X16998055Y-1534352D01*
X16998056Y-1534354D01*
X17048710Y-1633768D01*
X17050619Y-1637514D01*
X17050622Y-1637518D01*
X17132482Y-1719378D01*
X17132485Y-1719380D01*
X17132487Y-1719382D01*
X17132488Y-1719382D01*
X17140130Y-1724934D01*
X17182799Y-1780261D01*
X17191250Y-1825256D01*
X17191250Y-2025703D01*
X17171565Y-2092742D01*
X17118761Y-2138497D01*
X17049603Y-2148441D01*
X16986047Y-2119416D01*
X16979569Y-2113384D01*
X16683723Y-1817538D01*
X16683722Y-1817537D01*
X16611779Y-1776001D01*
X16611777Y-1776000D01*
X16594818Y-1771456D01*
X16594818Y-1771455D01*
X16531537Y-1754500D01*
X16531536Y-1754500D01*
X14598464Y-1754500D01*
X14598462Y-1754500D01*
X14535179Y-1771455D01*
X14535180Y-1771456D01*
X14518224Y-1775999D01*
X14518217Y-1776002D01*
X14446281Y-1817534D01*
X14446276Y-1817538D01*
X13849581Y-2414232D01*
X13788258Y-2447717D01*
X13718566Y-2442733D01*
X13662633Y-2400861D01*
X13649108Y-2378067D01*
X13635039Y-2347260D01*
X13552089Y-2251530D01*
X13494658Y-2214621D01*
X13445526Y-2183045D01*
X13323992Y-2147361D01*
X13323990Y-2147361D01*
X13197322Y-2147361D01*
X13197320Y-2147361D01*
X13075786Y-2183045D01*
X13075785Y-2183045D01*
X12969224Y-2251529D01*
X12886273Y-2347260D01*
X12886272Y-2347261D01*
X12833652Y-2462481D01*
X12815626Y-2587861D01*
X12833652Y-2713240D01*
X12880912Y-2816724D01*
X12886273Y-2828462D01*
X12969223Y-2924192D01*
X13004752Y-2947025D01*
X13065263Y-2985914D01*
X13111018Y-3038718D01*
X13120961Y-3107877D01*
X13091935Y-3171432D01*
X13085904Y-3177910D01*
X11817538Y-4446276D01*
X11817534Y-4446281D01*
X11776000Y-4518220D01*
X11772602Y-4530907D01*
X11772601Y-4530912D01*
X11760738Y-4575186D01*
X11754500Y-4598465D01*
X11754500Y-11631536D01*
X11767879Y-11681467D01*
X11767879Y-11681468D01*
X11775999Y-11711775D01*
X11776000Y-11711778D01*
X11776001Y-11711779D01*
X11808181Y-11767517D01*
X11817536Y-11783720D01*
X11817538Y-11783723D01*
X12207324Y-12173509D01*
X12233267Y-12215841D01*
X12233626Y-12215659D01*
X12235947Y-12220215D01*
X12237572Y-12222866D01*
X12238054Y-12224349D01*
X12238055Y-12224352D01*
X12238056Y-12224354D01*
X12290618Y-12327513D01*
X12290620Y-12327515D01*
X12290622Y-12327518D01*
X12372481Y-12409377D01*
X12372485Y-12409380D01*
X12372487Y-12409382D01*
X12475646Y-12461944D01*
X12475648Y-12461944D01*
X12475650Y-12461945D01*
X12589998Y-12480056D01*
X12590000Y-12480056D01*
X12590002Y-12480056D01*
X12704349Y-12461945D01*
X12704349Y-12461944D01*
X12704354Y-12461944D01*
X12807513Y-12409382D01*
X12889382Y-12327513D01*
X12941944Y-12224354D01*
X12942600Y-12220215D01*
X12960056Y-12110002D01*
X12960056Y-12109997D01*
X12941945Y-11995650D01*
X12941944Y-11995648D01*
X12941944Y-11995646D01*
X12889382Y-11892487D01*
X12889380Y-11892485D01*
X12889377Y-11892481D01*
X12807518Y-11810622D01*
X12807515Y-11810620D01*
X12807513Y-11810618D01*
X12704354Y-11758056D01*
X12704352Y-11758055D01*
X12704349Y-11758054D01*
X12702866Y-11757572D01*
X12700215Y-11755947D01*
X12695659Y-11753626D01*
X12695841Y-11753267D01*
X12653509Y-11727324D01*
X12476182Y-11549997D01*
X13569944Y-11549997D01*
X13569944Y-11550002D01*
X13588054Y-11664349D01*
X13588055Y-11664352D01*
X13588056Y-11664354D01*
X13640618Y-11767513D01*
X13640619Y-11767514D01*
X13640622Y-11767518D01*
X13722481Y-11849377D01*
X13722485Y-11849380D01*
X13722487Y-11849382D01*
X13825646Y-11901944D01*
X13825648Y-11901944D01*
X13825650Y-11901945D01*
X13939998Y-11920056D01*
X13940000Y-11920056D01*
X13958789Y-11917080D01*
X14028082Y-11926034D01*
X14081535Y-11971030D01*
X14102175Y-12037781D01*
X14083451Y-12105095D01*
X14065870Y-12127233D01*
X14020622Y-12172481D01*
X14020619Y-12172485D01*
X14020618Y-12172487D01*
X13975038Y-12261944D01*
X13968054Y-12275650D01*
X13949944Y-12389997D01*
X13949944Y-12390002D01*
X13968054Y-12504349D01*
X13968055Y-12504352D01*
X13968056Y-12504354D01*
X14019531Y-12605379D01*
X14020619Y-12607514D01*
X14020622Y-12607518D01*
X14102481Y-12689377D01*
X14102485Y-12689380D01*
X14102487Y-12689382D01*
X14205646Y-12741944D01*
X14205648Y-12741944D01*
X14205650Y-12741945D01*
X14319998Y-12760056D01*
X14320000Y-12760056D01*
X14320002Y-12760056D01*
X14434349Y-12741945D01*
X14434349Y-12741944D01*
X14434354Y-12741944D01*
X14537513Y-12689382D01*
X14619382Y-12607513D01*
X14671944Y-12504354D01*
X14671945Y-12504349D01*
X14690056Y-12390002D01*
X14690056Y-12389997D01*
X14671945Y-12275650D01*
X14671944Y-12275648D01*
X14671944Y-12275646D01*
X14619382Y-12172487D01*
X14619380Y-12172485D01*
X14619377Y-12172481D01*
X14537518Y-12090622D01*
X14537514Y-12090619D01*
X14537513Y-12090618D01*
X14434354Y-12038056D01*
X14434352Y-12038055D01*
X14434349Y-12038054D01*
X14320002Y-12019944D01*
X14319998Y-12019944D01*
X14301205Y-12022920D01*
X14231912Y-12013963D01*
X14178461Y-11968965D01*
X14157824Y-11902213D01*
X14176551Y-11834900D01*
X14194131Y-11812764D01*
X14239378Y-11767517D01*
X14239382Y-11767513D01*
X14291944Y-11664354D01*
X14294980Y-11645184D01*
X14310056Y-11550002D01*
X14310056Y-11549997D01*
X14291945Y-11435650D01*
X14291944Y-11435648D01*
X14291944Y-11435646D01*
X14239382Y-11332487D01*
X14239380Y-11332485D01*
X14239377Y-11332481D01*
X14157518Y-11250622D01*
X14157514Y-11250619D01*
X14157513Y-11250618D01*
X14054354Y-11198056D01*
X14054352Y-11198055D01*
X14054349Y-11198054D01*
X13940002Y-11179944D01*
X13939998Y-11179944D01*
X13825650Y-11198054D01*
X13722485Y-11250619D01*
X13722481Y-11250622D01*
X13640622Y-11332481D01*
X13640619Y-11332485D01*
X13588054Y-11435650D01*
X13569944Y-11549997D01*
X12476182Y-11549997D01*
X12421819Y-11495634D01*
X12388334Y-11434311D01*
X12385500Y-11407953D01*
X12385500Y-10329997D01*
X13329944Y-10329997D01*
X13329944Y-10330002D01*
X13348054Y-10444349D01*
X13348055Y-10444352D01*
X13348056Y-10444354D01*
X13389757Y-10526197D01*
X13400619Y-10547514D01*
X13400622Y-10547518D01*
X13482481Y-10629377D01*
X13482485Y-10629380D01*
X13482487Y-10629382D01*
X13585646Y-10681944D01*
X13585648Y-10681944D01*
X13585650Y-10681945D01*
X13699998Y-10700056D01*
X13700000Y-10700056D01*
X13700002Y-10700056D01*
X13814349Y-10681945D01*
X13814349Y-10681944D01*
X13814354Y-10681944D01*
X13917513Y-10629382D01*
X13996895Y-10550000D01*
X20874970Y-10550000D01*
X20892996Y-10675379D01*
X20945616Y-10790599D01*
X20945617Y-10790601D01*
X21028567Y-10886331D01*
X21097051Y-10930343D01*
X21135129Y-10954815D01*
X21256663Y-10990499D01*
X21256665Y-10990500D01*
X21256666Y-10990500D01*
X21383335Y-10990500D01*
X21383335Y-10990499D01*
X21504869Y-10954815D01*
X21504870Y-10954815D01*
X21504872Y-10954814D01*
X21611433Y-10886331D01*
X21642914Y-10850000D01*
X26134970Y-10850000D01*
X26152996Y-10975379D01*
X26201908Y-11082480D01*
X26205617Y-11090601D01*
X26288567Y-11186331D01*
X26347904Y-11224465D01*
X26395129Y-11254815D01*
X26516663Y-11290499D01*
X26516665Y-11290500D01*
X26516666Y-11290500D01*
X26643335Y-11290500D01*
X26643335Y-11290499D01*
X26764869Y-11254815D01*
X26764870Y-11254815D01*
X26764872Y-11254814D01*
X26871433Y-11186331D01*
X26954383Y-11090601D01*
X27007003Y-10975379D01*
X27025030Y-10850000D01*
X29114970Y-10850000D01*
X29132996Y-10975379D01*
X29181908Y-11082480D01*
X29185617Y-11090601D01*
X29268567Y-11186331D01*
X29327904Y-11224465D01*
X29375129Y-11254815D01*
X29496663Y-11290499D01*
X29496665Y-11290500D01*
X29496666Y-11290500D01*
X29623335Y-11290500D01*
X29623335Y-11290499D01*
X29744869Y-11254815D01*
X29744870Y-11254815D01*
X29744872Y-11254814D01*
X29851433Y-11186331D01*
X29934383Y-11090601D01*
X29987003Y-10975379D01*
X30005030Y-10850000D01*
X29987003Y-10724621D01*
X29983679Y-10717343D01*
X29954901Y-10654328D01*
X29934383Y-10609399D01*
X29851433Y-10513669D01*
X29810150Y-10487138D01*
X29744870Y-10445184D01*
X29623336Y-10409500D01*
X29623334Y-10409500D01*
X29496666Y-10409500D01*
X29496664Y-10409500D01*
X29375130Y-10445184D01*
X29375129Y-10445184D01*
X29268568Y-10513668D01*
X29268566Y-10513670D01*
X29257711Y-10526197D01*
X29198932Y-10563970D01*
X29160180Y-10563968D01*
X29169917Y-10631685D01*
X29159974Y-10665549D01*
X29132996Y-10724621D01*
X29114970Y-10850000D01*
X27025030Y-10850000D01*
X27007003Y-10724621D01*
X26980026Y-10665549D01*
X26970789Y-10601305D01*
X26934797Y-10584868D01*
X26922287Y-10572358D01*
X26915017Y-10563968D01*
X26871433Y-10513669D01*
X26830150Y-10487138D01*
X26764870Y-10445184D01*
X26643336Y-10409500D01*
X26643334Y-10409500D01*
X26516666Y-10409500D01*
X26516664Y-10409500D01*
X26395130Y-10445184D01*
X26395129Y-10445184D01*
X26288568Y-10513668D01*
X26288567Y-10513668D01*
X26288567Y-10513669D01*
X26214342Y-10599330D01*
X26205617Y-10609399D01*
X26205616Y-10609400D01*
X26152996Y-10724620D01*
X26134970Y-10850000D01*
X21642914Y-10850000D01*
X21694383Y-10790601D01*
X21747003Y-10675379D01*
X21765030Y-10550000D01*
X21747003Y-10424621D01*
X21744610Y-10419382D01*
X21707224Y-10337518D01*
X21694383Y-10309399D01*
X21611433Y-10213669D01*
X21551853Y-10175379D01*
X21504870Y-10145184D01*
X21419087Y-10119997D01*
X23589944Y-10119997D01*
X23589944Y-10120002D01*
X23608054Y-10234349D01*
X23608055Y-10234352D01*
X23608056Y-10234354D01*
X23660618Y-10337513D01*
X23660619Y-10337514D01*
X23660622Y-10337518D01*
X23742481Y-10419377D01*
X23742485Y-10419380D01*
X23742487Y-10419382D01*
X23845646Y-10471944D01*
X23845648Y-10471944D01*
X23845650Y-10471945D01*
X23959998Y-10490056D01*
X23960000Y-10490056D01*
X23960002Y-10490056D01*
X24074349Y-10471945D01*
X24074349Y-10471944D01*
X24074354Y-10471944D01*
X24177513Y-10419382D01*
X24259382Y-10337513D01*
X24311944Y-10234354D01*
X24312328Y-10231931D01*
X24330056Y-10120002D01*
X24330056Y-10119997D01*
X24311945Y-10005650D01*
X24311944Y-10005648D01*
X24311944Y-10005646D01*
X24259382Y-9902487D01*
X24259380Y-9902485D01*
X24259377Y-9902481D01*
X24177518Y-9820622D01*
X24177514Y-9820619D01*
X24177513Y-9820618D01*
X24074354Y-9768056D01*
X24074352Y-9768055D01*
X24074349Y-9768054D01*
X23960002Y-9749944D01*
X23959998Y-9749944D01*
X23845650Y-9768054D01*
X23742485Y-9820619D01*
X23742481Y-9820622D01*
X23660622Y-9902481D01*
X23660619Y-9902485D01*
X23608054Y-10005650D01*
X23589944Y-10119997D01*
X21419087Y-10119997D01*
X21383336Y-10109500D01*
X21383334Y-10109500D01*
X21256666Y-10109500D01*
X21256664Y-10109500D01*
X21135130Y-10145184D01*
X21135129Y-10145184D01*
X21028568Y-10213668D01*
X21028567Y-10213668D01*
X21028567Y-10213669D01*
X20981733Y-10267719D01*
X20945617Y-10309399D01*
X20945616Y-10309400D01*
X20892996Y-10424620D01*
X20874970Y-10550000D01*
X13996895Y-10550000D01*
X13999382Y-10547513D01*
X14051944Y-10444354D01*
X14054138Y-10430500D01*
X14070056Y-10330002D01*
X14070056Y-10329997D01*
X14051945Y-10215650D01*
X14051944Y-10215648D01*
X14051944Y-10215646D01*
X13999382Y-10112487D01*
X13999380Y-10112485D01*
X13999377Y-10112481D01*
X13956896Y-10070000D01*
X16474970Y-10070000D01*
X16492996Y-10195379D01*
X16545616Y-10310598D01*
X16545617Y-10310601D01*
X16628567Y-10406331D01*
X16675618Y-10436569D01*
X16735129Y-10474815D01*
X16856663Y-10510499D01*
X16856665Y-10510500D01*
X16856666Y-10510500D01*
X16983335Y-10510500D01*
X16983335Y-10510499D01*
X17104869Y-10474815D01*
X17104870Y-10474815D01*
X17104872Y-10474814D01*
X17211433Y-10406331D01*
X17294383Y-10310601D01*
X17297205Y-10304422D01*
X17342959Y-10251617D01*
X17409998Y-10231931D01*
X17477038Y-10251614D01*
X17522793Y-10304418D01*
X17522795Y-10304422D01*
X17525615Y-10310598D01*
X17525616Y-10310599D01*
X17525617Y-10310601D01*
X17608567Y-10406331D01*
X17655618Y-10436569D01*
X17715129Y-10474815D01*
X17836663Y-10510499D01*
X17836665Y-10510500D01*
X17836666Y-10510500D01*
X17963335Y-10510500D01*
X17963335Y-10510499D01*
X18084869Y-10474815D01*
X18084870Y-10474815D01*
X18084872Y-10474814D01*
X18191433Y-10406331D01*
X18254953Y-10333024D01*
X18313730Y-10295251D01*
X18383600Y-10295251D01*
X18442376Y-10333024D01*
X18488567Y-10386331D01*
X18548147Y-10424621D01*
X18595129Y-10454815D01*
X18699123Y-10485349D01*
X18709837Y-10488495D01*
X18716663Y-10490499D01*
X18716665Y-10490500D01*
X18716666Y-10490500D01*
X18843335Y-10490500D01*
X18843335Y-10490499D01*
X18964869Y-10454815D01*
X18964870Y-10454815D01*
X18964872Y-10454814D01*
X19071433Y-10386331D01*
X19154383Y-10290601D01*
X19154387Y-10290592D01*
X19159177Y-10283141D01*
X19162046Y-10284985D01*
X19196993Y-10244629D01*
X19264025Y-10224922D01*
X19331072Y-10244584D01*
X19357778Y-10267718D01*
X19408567Y-10326331D01*
X19454260Y-10355696D01*
X19515129Y-10394815D01*
X19636663Y-10430499D01*
X19636665Y-10430500D01*
X19636666Y-10430500D01*
X19763335Y-10430500D01*
X19763335Y-10430499D01*
X19884869Y-10394815D01*
X19884870Y-10394815D01*
X19884872Y-10394814D01*
X19991433Y-10326331D01*
X20074383Y-10230601D01*
X20127003Y-10115379D01*
X20145030Y-9990000D01*
X20127003Y-9864621D01*
X20122436Y-9854621D01*
X20095406Y-9795434D01*
X20074383Y-9749399D01*
X19991433Y-9653669D01*
X19951717Y-9628145D01*
X19884870Y-9585184D01*
X19763336Y-9549500D01*
X19763334Y-9549500D01*
X19636666Y-9549500D01*
X19636664Y-9549500D01*
X19515130Y-9585184D01*
X19515129Y-9585184D01*
X19408568Y-9653668D01*
X19325617Y-9749399D01*
X19320823Y-9756859D01*
X19317966Y-9755023D01*
X19282906Y-9795434D01*
X19215855Y-9815077D01*
X19148828Y-9795351D01*
X19122219Y-9772280D01*
X19118559Y-9768056D01*
X19071433Y-9713669D01*
X19041026Y-9694127D01*
X18964870Y-9645184D01*
X18843336Y-9609500D01*
X18843334Y-9609500D01*
X18716666Y-9609500D01*
X18716664Y-9609500D01*
X18595130Y-9645184D01*
X18595129Y-9645184D01*
X18488568Y-9713668D01*
X18488567Y-9713669D01*
X18425046Y-9786975D01*
X18366268Y-9824749D01*
X18296398Y-9824748D01*
X18237621Y-9786973D01*
X18191434Y-9733670D01*
X18191433Y-9733669D01*
X18160311Y-9713668D01*
X18084870Y-9665184D01*
X17963336Y-9629500D01*
X17963334Y-9629500D01*
X17836666Y-9629500D01*
X17836664Y-9629500D01*
X17715130Y-9665184D01*
X17715129Y-9665184D01*
X17608568Y-9733668D01*
X17525617Y-9829399D01*
X17525615Y-9829400D01*
X17522794Y-9835580D01*
X17477039Y-9888384D01*
X17409999Y-9908068D01*
X17342960Y-9888383D01*
X17297206Y-9835580D01*
X17294384Y-9829400D01*
X17294383Y-9829399D01*
X17211433Y-9733669D01*
X17180311Y-9713668D01*
X17104870Y-9665184D01*
X16983336Y-9629500D01*
X16983334Y-9629500D01*
X16856666Y-9629500D01*
X16856664Y-9629500D01*
X16735130Y-9665184D01*
X16735129Y-9665184D01*
X16628568Y-9733668D01*
X16545617Y-9829399D01*
X16545616Y-9829400D01*
X16492996Y-9944620D01*
X16474970Y-10070000D01*
X13956896Y-10070000D01*
X13917518Y-10030622D01*
X13917514Y-10030619D01*
X13917513Y-10030618D01*
X13814354Y-9978056D01*
X13814352Y-9978055D01*
X13814349Y-9978054D01*
X13700002Y-9959944D01*
X13699998Y-9959944D01*
X13585650Y-9978054D01*
X13585646Y-9978055D01*
X13585646Y-9978056D01*
X13581831Y-9980000D01*
X13482485Y-10030619D01*
X13482481Y-10030622D01*
X13400622Y-10112481D01*
X13400619Y-10112485D01*
X13348054Y-10215650D01*
X13329944Y-10329997D01*
X12385500Y-10329997D01*
X12385500Y-9129997D01*
X13999944Y-9129997D01*
X13999944Y-9130002D01*
X14018054Y-9244349D01*
X14018055Y-9244352D01*
X14018056Y-9244354D01*
X14070618Y-9347513D01*
X14070619Y-9347514D01*
X14070622Y-9347518D01*
X14152481Y-9429377D01*
X14152485Y-9429380D01*
X14152487Y-9429382D01*
X14255646Y-9481944D01*
X14255648Y-9481944D01*
X14255650Y-9481945D01*
X14369998Y-9500056D01*
X14370000Y-9500056D01*
X14370002Y-9500056D01*
X14484349Y-9481945D01*
X14484349Y-9481944D01*
X14484354Y-9481944D01*
X14587513Y-9429382D01*
X14669382Y-9347513D01*
X14721944Y-9244354D01*
X14721945Y-9244349D01*
X14740056Y-9130002D01*
X14740056Y-9129997D01*
X14721945Y-9015650D01*
X14721944Y-9015648D01*
X14721944Y-9015646D01*
X14669382Y-8912487D01*
X14669380Y-8912485D01*
X14669377Y-8912481D01*
X14587518Y-8830622D01*
X14587514Y-8830619D01*
X14587513Y-8830618D01*
X14484354Y-8778056D01*
X14484352Y-8778055D01*
X14484349Y-8778054D01*
X14370002Y-8759944D01*
X14369998Y-8759944D01*
X14255650Y-8778054D01*
X14152485Y-8830619D01*
X14152481Y-8830622D01*
X14070622Y-8912481D01*
X14070619Y-8912485D01*
X14018054Y-9015650D01*
X13999944Y-9129997D01*
X12385500Y-9129997D01*
X12385500Y-8086289D01*
X23925899Y-8086289D01*
X23943925Y-8211668D01*
X23993673Y-8320599D01*
X23996546Y-8326890D01*
X24079496Y-8422620D01*
X24116391Y-8446331D01*
X24186058Y-8491104D01*
X24307592Y-8526788D01*
X24307594Y-8526789D01*
X24307595Y-8526789D01*
X24434264Y-8526789D01*
X24434264Y-8526788D01*
X24555798Y-8491104D01*
X24555799Y-8491104D01*
X24563363Y-8486243D01*
X24662362Y-8422620D01*
X24745312Y-8326890D01*
X24797932Y-8211668D01*
X24815959Y-8086289D01*
X24812179Y-8060000D01*
X26494970Y-8060000D01*
X26512996Y-8185379D01*
X26535902Y-8235535D01*
X26565617Y-8300601D01*
X26648567Y-8396331D01*
X26717051Y-8440343D01*
X26755129Y-8464815D01*
X26876663Y-8500499D01*
X26876665Y-8500500D01*
X27012202Y-8500500D01*
X27012202Y-8503211D01*
X27067484Y-8511146D01*
X27120299Y-8556889D01*
X27140000Y-8623923D01*
X27140000Y-10490038D01*
X29047179Y-10490038D01*
X29054796Y-10492274D01*
X29041262Y-10462636D01*
X29040000Y-10444992D01*
X29040000Y-8644499D01*
X29059685Y-8577460D01*
X29112489Y-8531705D01*
X29164000Y-8520499D01*
X29283335Y-8520499D01*
X29283335Y-8520498D01*
X29404869Y-8484814D01*
X29404870Y-8484814D01*
X29404872Y-8484813D01*
X29511433Y-8416330D01*
X29594383Y-8320600D01*
X29647003Y-8205378D01*
X29665030Y-8079999D01*
X29647003Y-7954620D01*
X29637869Y-7934620D01*
X29601826Y-7855696D01*
X29594383Y-7839398D01*
X29511433Y-7743668D01*
X29475537Y-7720599D01*
X29404870Y-7675183D01*
X29283336Y-7639499D01*
X29283334Y-7639499D01*
X29156666Y-7639499D01*
X29156664Y-7639499D01*
X29035130Y-7675183D01*
X29035129Y-7675183D01*
X28928568Y-7743667D01*
X28928567Y-7743667D01*
X28928567Y-7743668D01*
X28865267Y-7816721D01*
X28845617Y-7839398D01*
X28845616Y-7839399D01*
X28792996Y-7954619D01*
X28774970Y-8079999D01*
X28792996Y-8205377D01*
X28801742Y-8224527D01*
X28811685Y-8293686D01*
X28782660Y-8357241D01*
X28723881Y-8395015D01*
X28688947Y-8400038D01*
X27461920Y-8400038D01*
X27394881Y-8380353D01*
X27349126Y-8327549D01*
X27339182Y-8258391D01*
X27349125Y-8224527D01*
X27367003Y-8185378D01*
X27368158Y-8177343D01*
X27385030Y-8060000D01*
X27367003Y-7934621D01*
X27365780Y-7931944D01*
X27324867Y-7842356D01*
X27314383Y-7819399D01*
X27231433Y-7723669D01*
X27185818Y-7694354D01*
X27124870Y-7655184D01*
X27003336Y-7619500D01*
X27003334Y-7619500D01*
X26876666Y-7619500D01*
X26876664Y-7619500D01*
X26755130Y-7655184D01*
X26755129Y-7655184D01*
X26648568Y-7723668D01*
X26648567Y-7723668D01*
X26648567Y-7723669D01*
X26584581Y-7797513D01*
X26565617Y-7819399D01*
X26565616Y-7819400D01*
X26512996Y-7934620D01*
X26494970Y-8060000D01*
X24812179Y-8060000D01*
X24797932Y-7960910D01*
X24795059Y-7954620D01*
X24760699Y-7879382D01*
X24745312Y-7845688D01*
X24662362Y-7749958D01*
X24616682Y-7720601D01*
X24555799Y-7681473D01*
X24434265Y-7645789D01*
X24434263Y-7645789D01*
X24307595Y-7645789D01*
X24307593Y-7645789D01*
X24186059Y-7681473D01*
X24186058Y-7681473D01*
X24079497Y-7749957D01*
X24079496Y-7749957D01*
X24079496Y-7749958D01*
X24041031Y-7794349D01*
X23996546Y-7845688D01*
X23996545Y-7845689D01*
X23943925Y-7960909D01*
X23925899Y-8086289D01*
X12385500Y-8086289D01*
X12385500Y-5709997D01*
X12649944Y-5709997D01*
X12649944Y-5710002D01*
X12668054Y-5824349D01*
X12668055Y-5824350D01*
X12668056Y-5824354D01*
X12720618Y-5927513D01*
X12788846Y-5995741D01*
X12822330Y-6057062D01*
X12817346Y-6126754D01*
X12811649Y-6139715D01*
X12778054Y-6205648D01*
X12759944Y-6319997D01*
X12759944Y-6320002D01*
X12778054Y-6434349D01*
X12778055Y-6434352D01*
X12778056Y-6434354D01*
X12825687Y-6527835D01*
X12830619Y-6537514D01*
X12830622Y-6537518D01*
X12912481Y-6619377D01*
X12912484Y-6619379D01*
X12912487Y-6619382D01*
X13015646Y-6671944D01*
X13015647Y-6671944D01*
X13021066Y-6674705D01*
X13071863Y-6722679D01*
X13088658Y-6790500D01*
X13066121Y-6856635D01*
X13021067Y-6895674D01*
X12952487Y-6930618D01*
X12952486Y-6930619D01*
X12952481Y-6930622D01*
X12870622Y-7012481D01*
X12870619Y-7012485D01*
X12818054Y-7115650D01*
X12799944Y-7229997D01*
X12799944Y-7230002D01*
X12818054Y-7344349D01*
X12818055Y-7344352D01*
X12818056Y-7344354D01*
X12868213Y-7442792D01*
X12870619Y-7447514D01*
X12870622Y-7447518D01*
X12952481Y-7529377D01*
X12952485Y-7529380D01*
X12952487Y-7529382D01*
X13055646Y-7581944D01*
X13055648Y-7581944D01*
X13055650Y-7581945D01*
X13169998Y-7600056D01*
X13170000Y-7600056D01*
X13216410Y-7592705D01*
X13285702Y-7601659D01*
X13339155Y-7646655D01*
X13354215Y-7685335D01*
X13355038Y-7685068D01*
X13358053Y-7694347D01*
X13358055Y-7694352D01*
X13358056Y-7694354D01*
X13410618Y-7797513D01*
X13410619Y-7797514D01*
X13410622Y-7797518D01*
X13492481Y-7879377D01*
X13492485Y-7879380D01*
X13492487Y-7879382D01*
X13595646Y-7931944D01*
X13595648Y-7931944D01*
X13595650Y-7931945D01*
X13709998Y-7950056D01*
X13710000Y-7950056D01*
X13710002Y-7950056D01*
X13824349Y-7931945D01*
X13824349Y-7931944D01*
X13824354Y-7931944D01*
X13927513Y-7879382D01*
X14009382Y-7797513D01*
X14061944Y-7694354D01*
X14062625Y-7690056D01*
X14080056Y-7580002D01*
X14080056Y-7579997D01*
X14061945Y-7465650D01*
X14061944Y-7465648D01*
X14061944Y-7465646D01*
X14009382Y-7362487D01*
X14009380Y-7362485D01*
X14009377Y-7362481D01*
X13927518Y-7280622D01*
X13927514Y-7280619D01*
X13927513Y-7280618D01*
X13824354Y-7228056D01*
X13824352Y-7228055D01*
X13824349Y-7228054D01*
X13710002Y-7209944D01*
X13710000Y-7209944D01*
X13663588Y-7217295D01*
X13594295Y-7208339D01*
X13540843Y-7163342D01*
X13525786Y-7124664D01*
X13524962Y-7124932D01*
X13521946Y-7115652D01*
X13521944Y-7115649D01*
X13521944Y-7115646D01*
X13469382Y-7012487D01*
X13469380Y-7012485D01*
X13469377Y-7012481D01*
X13387518Y-6930622D01*
X13387514Y-6930619D01*
X13387513Y-6930618D01*
X13284354Y-6878056D01*
X13284352Y-6878055D01*
X13278932Y-6875294D01*
X13252150Y-6850000D01*
X14204970Y-6850000D01*
X14222996Y-6975379D01*
X14252280Y-7039500D01*
X14275617Y-7090601D01*
X14358567Y-7186331D01*
X14422345Y-7227319D01*
X14465129Y-7254815D01*
X14586663Y-7290499D01*
X14586665Y-7290500D01*
X14586666Y-7290500D01*
X14713335Y-7290500D01*
X14713335Y-7290499D01*
X14807646Y-7262807D01*
X14834869Y-7254815D01*
X14834870Y-7254815D01*
X14836837Y-7253551D01*
X14941433Y-7186331D01*
X15024383Y-7090601D01*
X15077003Y-6975379D01*
X15095030Y-6850000D01*
X15077521Y-6728221D01*
X15077003Y-6724620D01*
X15045791Y-6656276D01*
X15024383Y-6609399D01*
X14941433Y-6513669D01*
X14903634Y-6489377D01*
X14834870Y-6445184D01*
X14708757Y-6408155D01*
X14649978Y-6370381D01*
X14645736Y-6361092D01*
X14629157Y-6386098D01*
X14584234Y-6410213D01*
X14465130Y-6445184D01*
X14465129Y-6445184D01*
X14358568Y-6513668D01*
X14358567Y-6513668D01*
X14358567Y-6513669D01*
X14346292Y-6527835D01*
X14275617Y-6609399D01*
X14275616Y-6609400D01*
X14222996Y-6724620D01*
X14204970Y-6850000D01*
X13252150Y-6850000D01*
X13228136Y-6827320D01*
X13211341Y-6759499D01*
X13233878Y-6693364D01*
X13278929Y-6654326D01*
X13347513Y-6619382D01*
X13429382Y-6537513D01*
X13481944Y-6434354D01*
X13485866Y-6409590D01*
X13500056Y-6320002D01*
X13500056Y-6319997D01*
X13481945Y-6205650D01*
X13481944Y-6205648D01*
X13481944Y-6205646D01*
X13429382Y-6102487D01*
X13361152Y-6034257D01*
X13327669Y-5972937D01*
X13332653Y-5903245D01*
X13338344Y-5890297D01*
X13371944Y-5824354D01*
X13372643Y-5819944D01*
X13374218Y-5809997D01*
X14269944Y-5809997D01*
X14269944Y-5810002D01*
X14288054Y-5924349D01*
X14288055Y-5924352D01*
X14288056Y-5924354D01*
X14337781Y-6021945D01*
X14340619Y-6027514D01*
X14340622Y-6027518D01*
X14422481Y-6109377D01*
X14422485Y-6109380D01*
X14422487Y-6109382D01*
X14525646Y-6161944D01*
X14568699Y-6168762D01*
X14631832Y-6198691D01*
X14645562Y-6220741D01*
X14676651Y-6184863D01*
X14724292Y-6166705D01*
X14754354Y-6161944D01*
X14857513Y-6109382D01*
X14939382Y-6027513D01*
X14991944Y-5924354D01*
X14991945Y-5924349D01*
X15010056Y-5810002D01*
X15010056Y-5809997D01*
X14991945Y-5695650D01*
X14991944Y-5695648D01*
X14991944Y-5695646D01*
X14978875Y-5669997D01*
X15879944Y-5669997D01*
X15879944Y-5670002D01*
X15898054Y-5784349D01*
X15898055Y-5784352D01*
X15898056Y-5784354D01*
X15950618Y-5887513D01*
X15950619Y-5887514D01*
X15950622Y-5887518D01*
X16032481Y-5969377D01*
X16032485Y-5969380D01*
X16032487Y-5969382D01*
X16135646Y-6021944D01*
X16135648Y-6021944D01*
X16135650Y-6021945D01*
X16249998Y-6040056D01*
X16250000Y-6040056D01*
X16250002Y-6040056D01*
X16364349Y-6021945D01*
X16364349Y-6021944D01*
X16364354Y-6021944D01*
X16467513Y-5969382D01*
X16549382Y-5887513D01*
X16601944Y-5784354D01*
X16611266Y-5725499D01*
X16620056Y-5670002D01*
X16620056Y-5669997D01*
X16601945Y-5555650D01*
X16601944Y-5555648D01*
X16601944Y-5555646D01*
X16549382Y-5452487D01*
X16549380Y-5452485D01*
X16549377Y-5452481D01*
X16467518Y-5370622D01*
X16467514Y-5370619D01*
X16467513Y-5370618D01*
X16364354Y-5318056D01*
X16364352Y-5318055D01*
X16364349Y-5318054D01*
X16250002Y-5299944D01*
X16249998Y-5299944D01*
X16135650Y-5318054D01*
X16032485Y-5370619D01*
X16032481Y-5370622D01*
X15950622Y-5452481D01*
X15950619Y-5452485D01*
X15898054Y-5555650D01*
X15879944Y-5669997D01*
X14978875Y-5669997D01*
X14939382Y-5592487D01*
X14939380Y-5592485D01*
X14939377Y-5592481D01*
X14857518Y-5510622D01*
X14857514Y-5510619D01*
X14857513Y-5510618D01*
X14754354Y-5458056D01*
X14754352Y-5458055D01*
X14754349Y-5458054D01*
X14640002Y-5439944D01*
X14639998Y-5439944D01*
X14525650Y-5458054D01*
X14422485Y-5510619D01*
X14422481Y-5510622D01*
X14340622Y-5592481D01*
X14340619Y-5592485D01*
X14288054Y-5695650D01*
X14269944Y-5809997D01*
X13374218Y-5809997D01*
X13390056Y-5710002D01*
X13390056Y-5709997D01*
X13371945Y-5595650D01*
X13371944Y-5595648D01*
X13371944Y-5595646D01*
X13319382Y-5492487D01*
X13319380Y-5492485D01*
X13319377Y-5492481D01*
X13237518Y-5410622D01*
X13237514Y-5410619D01*
X13237513Y-5410618D01*
X13134354Y-5358056D01*
X13134352Y-5358055D01*
X13134349Y-5358054D01*
X13020002Y-5339944D01*
X13019998Y-5339944D01*
X12905650Y-5358054D01*
X12802485Y-5410619D01*
X12802481Y-5410622D01*
X12720622Y-5492481D01*
X12720619Y-5492485D01*
X12668054Y-5595650D01*
X12649944Y-5709997D01*
X12385500Y-5709997D01*
X12385500Y-4822047D01*
X12405185Y-4755008D01*
X12409221Y-4750000D01*
X14184970Y-4750000D01*
X14202996Y-4875379D01*
X14250541Y-4979486D01*
X14255617Y-4990601D01*
X14338567Y-5086331D01*
X14376192Y-5110511D01*
X14445129Y-5154815D01*
X14566663Y-5190499D01*
X14566665Y-5190500D01*
X14566666Y-5190500D01*
X14693335Y-5190500D01*
X14693335Y-5190499D01*
X14814869Y-5154815D01*
X14814870Y-5154815D01*
X14814872Y-5154814D01*
X14921433Y-5086331D01*
X15004383Y-4990601D01*
X15057003Y-4875379D01*
X15075030Y-4750000D01*
X15057003Y-4624621D01*
X15020937Y-4545648D01*
X15008862Y-4519206D01*
X14998918Y-4450047D01*
X15021962Y-4399586D01*
X15019588Y-4398061D01*
X15024376Y-4390608D01*
X15024383Y-4390601D01*
X15077003Y-4275379D01*
X15095030Y-4150000D01*
X15077003Y-4024621D01*
X15064743Y-3997776D01*
X15050693Y-3967010D01*
X15024383Y-3909399D01*
X15024380Y-3909396D01*
X15019655Y-3902043D01*
X14999968Y-3835005D01*
X15019650Y-3767964D01*
X15019655Y-3767957D01*
X15024378Y-3760606D01*
X15024383Y-3760601D01*
X15077003Y-3645379D01*
X15095030Y-3520000D01*
X15077003Y-3394621D01*
X15069193Y-3377520D01*
X15024383Y-3279400D01*
X15024383Y-3279399D01*
X14941433Y-3183669D01*
X14906186Y-3161017D01*
X14834870Y-3115184D01*
X14713336Y-3079500D01*
X14713334Y-3079500D01*
X14586666Y-3079500D01*
X14586664Y-3079500D01*
X14465130Y-3115184D01*
X14465129Y-3115184D01*
X14358568Y-3183668D01*
X14275617Y-3279399D01*
X14275616Y-3279400D01*
X14222996Y-3394620D01*
X14204970Y-3520000D01*
X14222996Y-3645379D01*
X14275618Y-3760603D01*
X14280349Y-3767965D01*
X14300031Y-3835005D01*
X14280349Y-3902035D01*
X14275618Y-3909396D01*
X14222996Y-4024620D01*
X14204970Y-4150000D01*
X14222997Y-4275380D01*
X14222997Y-4275381D01*
X14271137Y-4380793D01*
X14281081Y-4449951D01*
X14258045Y-4500413D01*
X14260414Y-4501935D01*
X14255616Y-4509400D01*
X14202996Y-4624620D01*
X14184970Y-4750000D01*
X12409221Y-4750000D01*
X12421819Y-4734366D01*
X14734366Y-2421819D01*
X14795689Y-2388334D01*
X14822047Y-2385500D01*
X16307953Y-2385500D01*
X16374992Y-2405185D01*
X16395634Y-2421819D01*
X16558181Y-2584366D01*
X16591666Y-2645689D01*
X16594500Y-2672047D01*
X16594500Y-4444351D01*
X16580985Y-4500645D01*
X16558054Y-4545648D01*
X16539944Y-4659997D01*
X16539944Y-4660002D01*
X16558054Y-4774349D01*
X16558055Y-4774352D01*
X16558056Y-4774354D01*
X16609531Y-4875379D01*
X16610619Y-4877514D01*
X16610622Y-4877518D01*
X16692481Y-4959377D01*
X16692485Y-4959380D01*
X16692487Y-4959382D01*
X16795646Y-5011944D01*
X16795648Y-5011944D01*
X16795650Y-5011945D01*
X16909998Y-5030056D01*
X16910000Y-5030056D01*
X16910002Y-5030056D01*
X16995134Y-5016571D01*
X17024354Y-5011944D01*
X17024360Y-5011940D01*
X17028925Y-5010458D01*
X17098766Y-5008459D01*
X17158601Y-5044536D01*
X17189433Y-5107235D01*
X17191250Y-5128387D01*
X17191250Y-6612968D01*
X17171565Y-6680007D01*
X17118761Y-6725762D01*
X17049603Y-6735706D01*
X17047853Y-6735442D01*
X16998519Y-6727628D01*
X16950000Y-6719944D01*
X16949998Y-6719944D01*
X16949997Y-6719944D01*
X16835650Y-6738054D01*
X16732485Y-6790619D01*
X16732481Y-6790622D01*
X16650622Y-6872481D01*
X16650616Y-6872489D01*
X16640016Y-6893293D01*
X16592041Y-6944088D01*
X16524219Y-6960881D01*
X16510135Y-6959468D01*
X16450002Y-6949944D01*
X16449998Y-6949944D01*
X16335650Y-6968054D01*
X16232485Y-7020619D01*
X16232481Y-7020622D01*
X16150622Y-7102481D01*
X16150619Y-7102485D01*
X16098054Y-7205650D01*
X16079944Y-7319997D01*
X16079944Y-7320002D01*
X16098054Y-7434349D01*
X16098055Y-7434352D01*
X16098056Y-7434354D01*
X16150618Y-7537513D01*
X16150619Y-7537514D01*
X16150622Y-7537518D01*
X16232481Y-7619377D01*
X16232485Y-7619380D01*
X16232487Y-7619382D01*
X16335646Y-7671944D01*
X16335648Y-7671944D01*
X16335650Y-7671945D01*
X16449998Y-7690056D01*
X16450000Y-7690056D01*
X16450002Y-7690056D01*
X16513511Y-7679997D01*
X21689944Y-7679997D01*
X21689944Y-7680002D01*
X21708054Y-7794349D01*
X21708055Y-7794352D01*
X21708056Y-7794354D01*
X21760618Y-7897513D01*
X21760619Y-7897514D01*
X21760622Y-7897518D01*
X21842481Y-7979377D01*
X21842485Y-7979380D01*
X21842487Y-7979382D01*
X21945646Y-8031944D01*
X21945648Y-8031944D01*
X21945650Y-8031945D01*
X22059998Y-8050056D01*
X22060000Y-8050056D01*
X22060002Y-8050056D01*
X22174349Y-8031945D01*
X22174349Y-8031944D01*
X22174354Y-8031944D01*
X22277513Y-7979382D01*
X22359382Y-7897513D01*
X22411944Y-7794354D01*
X22415220Y-7773669D01*
X22430056Y-7680002D01*
X22430056Y-7679997D01*
X22411945Y-7565650D01*
X22411944Y-7565648D01*
X22411944Y-7565646D01*
X22359382Y-7462487D01*
X22359380Y-7462485D01*
X22359377Y-7462481D01*
X22309577Y-7412681D01*
X22276092Y-7351358D01*
X22281076Y-7281666D01*
X22309577Y-7237319D01*
X22369377Y-7177518D01*
X22369382Y-7177513D01*
X22421944Y-7074354D01*
X22421945Y-7074349D01*
X22440056Y-6960002D01*
X22440056Y-6959997D01*
X22421945Y-6845650D01*
X22421944Y-6845648D01*
X22421944Y-6845646D01*
X22369382Y-6742487D01*
X22369380Y-6742485D01*
X22369377Y-6742481D01*
X22287518Y-6660622D01*
X22287514Y-6660619D01*
X22287513Y-6660618D01*
X22184354Y-6608056D01*
X22184352Y-6608055D01*
X22184349Y-6608054D01*
X22070002Y-6589944D01*
X22069998Y-6589944D01*
X21955650Y-6608054D01*
X21852485Y-6660619D01*
X21852481Y-6660622D01*
X21770622Y-6742481D01*
X21770619Y-6742485D01*
X21770618Y-6742487D01*
X21721025Y-6839820D01*
X21718054Y-6845650D01*
X21699944Y-6959997D01*
X21699944Y-6960002D01*
X21718054Y-7074349D01*
X21718055Y-7074352D01*
X21718056Y-7074354D01*
X21770618Y-7177513D01*
X21770619Y-7177514D01*
X21770622Y-7177518D01*
X21820423Y-7227319D01*
X21853908Y-7288642D01*
X21848924Y-7358334D01*
X21820423Y-7402681D01*
X21760622Y-7462481D01*
X21760619Y-7462485D01*
X21708054Y-7565650D01*
X21689944Y-7679997D01*
X16513511Y-7679997D01*
X16564349Y-7671945D01*
X16564349Y-7671944D01*
X16564354Y-7671944D01*
X16667513Y-7619382D01*
X16749382Y-7537513D01*
X16759982Y-7516708D01*
X16807954Y-7465914D01*
X16875775Y-7449118D01*
X16889856Y-7450530D01*
X16950000Y-7460056D01*
X16950002Y-7460056D01*
X17073993Y-7440418D01*
X17074369Y-7442792D01*
X17130353Y-7441181D01*
X17186537Y-7473433D01*
X17242481Y-7529377D01*
X17242485Y-7529380D01*
X17242487Y-7529382D01*
X17345646Y-7581944D01*
X17345648Y-7581944D01*
X17345650Y-7581945D01*
X17459998Y-7600056D01*
X17460000Y-7600056D01*
X17460002Y-7600056D01*
X17574349Y-7581945D01*
X17574349Y-7581944D01*
X17574354Y-7581944D01*
X17677513Y-7529382D01*
X17759382Y-7447513D01*
X17811944Y-7344354D01*
X17812057Y-7343643D01*
X17831583Y-7220361D01*
X17833775Y-7220708D01*
X17849741Y-7166335D01*
X17864211Y-7153796D01*
X17834741Y-7140338D01*
X17823679Y-7126202D01*
X18005788Y-7126202D01*
X18035259Y-7139661D01*
X18064538Y-7177077D01*
X18096293Y-7239399D01*
X18110617Y-7267511D01*
X18110622Y-7267518D01*
X18192481Y-7349377D01*
X18192485Y-7349380D01*
X18192487Y-7349382D01*
X18295646Y-7401944D01*
X18295648Y-7401944D01*
X18295650Y-7401945D01*
X18409998Y-7420056D01*
X18410000Y-7420056D01*
X18410002Y-7420056D01*
X18524349Y-7401945D01*
X18524349Y-7401944D01*
X18524354Y-7401944D01*
X18627513Y-7349382D01*
X18627517Y-7349377D01*
X18635412Y-7343643D01*
X18637372Y-7346341D01*
X18683653Y-7321052D01*
X18753346Y-7326017D01*
X18766331Y-7331721D01*
X18825646Y-7361944D01*
X18825648Y-7361944D01*
X18825650Y-7361945D01*
X18939998Y-7380056D01*
X18940000Y-7380056D01*
X18940002Y-7380056D01*
X19054350Y-7361945D01*
X19054351Y-7361944D01*
X19054354Y-7361944D01*
X19141034Y-7317778D01*
X19209699Y-7304882D01*
X19274440Y-7331158D01*
X19285007Y-7340582D01*
X19293802Y-7349377D01*
X19293806Y-7349380D01*
X19293808Y-7349382D01*
X19396967Y-7401944D01*
X19396969Y-7401944D01*
X19396971Y-7401945D01*
X19511319Y-7420056D01*
X19511321Y-7420056D01*
X19511323Y-7420056D01*
X19625670Y-7401945D01*
X19625670Y-7401944D01*
X19625675Y-7401944D01*
X19666288Y-7381250D01*
X19734954Y-7368355D01*
X19799694Y-7394631D01*
X19810262Y-7404056D01*
X19844785Y-7438580D01*
X19844788Y-7438582D01*
X19844790Y-7438584D01*
X19947949Y-7491146D01*
X19947951Y-7491146D01*
X19947953Y-7491147D01*
X20062301Y-7509258D01*
X20062303Y-7509258D01*
X20062305Y-7509258D01*
X20176652Y-7491147D01*
X20176652Y-7491146D01*
X20176657Y-7491146D01*
X20279816Y-7438584D01*
X20361685Y-7356715D01*
X20414247Y-7253556D01*
X20417978Y-7230000D01*
X20432359Y-7139204D01*
X20432359Y-7139199D01*
X20414248Y-7024852D01*
X20414247Y-7024850D01*
X20414247Y-7024848D01*
X20361685Y-6921689D01*
X20361683Y-6921687D01*
X20361680Y-6921683D01*
X20279821Y-6839824D01*
X20279817Y-6839821D01*
X20279816Y-6839820D01*
X20176657Y-6787258D01*
X20176655Y-6787257D01*
X20176652Y-6787256D01*
X20062305Y-6769146D01*
X20062301Y-6769146D01*
X19947952Y-6787256D01*
X19907336Y-6807951D01*
X19838666Y-6820846D01*
X19773926Y-6794568D01*
X19763361Y-6785145D01*
X19728838Y-6750621D01*
X19728835Y-6750619D01*
X19728834Y-6750618D01*
X19625675Y-6698056D01*
X19625673Y-6698055D01*
X19625670Y-6698054D01*
X19511323Y-6679944D01*
X19511319Y-6679944D01*
X19396970Y-6698054D01*
X19310286Y-6742221D01*
X19241617Y-6755116D01*
X19176877Y-6728838D01*
X19166312Y-6719416D01*
X19157518Y-6710622D01*
X19157514Y-6710619D01*
X19157513Y-6710618D01*
X19054354Y-6658056D01*
X19054352Y-6658055D01*
X19054349Y-6658054D01*
X18940002Y-6639944D01*
X18939998Y-6639944D01*
X18825650Y-6658054D01*
X18722485Y-6710619D01*
X18714588Y-6716357D01*
X18712633Y-6713666D01*
X18666277Y-6738962D01*
X18596586Y-6733957D01*
X18583659Y-6728273D01*
X18524351Y-6698054D01*
X18410002Y-6679944D01*
X18409998Y-6679944D01*
X18295650Y-6698054D01*
X18192485Y-6750619D01*
X18192481Y-6750622D01*
X18110622Y-6832481D01*
X18110619Y-6832485D01*
X18110618Y-6832487D01*
X18065171Y-6921683D01*
X18058054Y-6935650D01*
X18038417Y-7059639D01*
X18036224Y-7059291D01*
X18020259Y-7113664D01*
X18005788Y-7126202D01*
X17823679Y-7126202D01*
X17805461Y-7102922D01*
X17759382Y-7012487D01*
X17759380Y-7012485D01*
X17753643Y-7004588D01*
X17756512Y-7002503D01*
X17731584Y-6956850D01*
X17728750Y-6930492D01*
X17728750Y-6189997D01*
X24779944Y-6189997D01*
X24779944Y-6190002D01*
X24798054Y-6304349D01*
X24798055Y-6304352D01*
X24798056Y-6304354D01*
X24832084Y-6371137D01*
X24850619Y-6407514D01*
X24850622Y-6407518D01*
X24932481Y-6489377D01*
X24932485Y-6489380D01*
X24932487Y-6489382D01*
X25035646Y-6541944D01*
X25035648Y-6541944D01*
X25035650Y-6541945D01*
X25149998Y-6560056D01*
X25150000Y-6560056D01*
X25150002Y-6560056D01*
X25264349Y-6541945D01*
X25264349Y-6541944D01*
X25264354Y-6541944D01*
X25292046Y-6527833D01*
X25360710Y-6514938D01*
X25425451Y-6541213D01*
X25465709Y-6598318D01*
X25470812Y-6657716D01*
X25470758Y-6658056D01*
X25462695Y-6708968D01*
X25462694Y-6708973D01*
X25480804Y-6823320D01*
X25480805Y-6823323D01*
X25480806Y-6823325D01*
X25530922Y-6921683D01*
X25533369Y-6926485D01*
X25533372Y-6926489D01*
X25615231Y-7008348D01*
X25615235Y-7008351D01*
X25615237Y-7008353D01*
X25718396Y-7060915D01*
X25718398Y-7060915D01*
X25718400Y-7060916D01*
X25832748Y-7079027D01*
X25832750Y-7079027D01*
X25832752Y-7079027D01*
X25947099Y-7060916D01*
X25947099Y-7060915D01*
X25947104Y-7060915D01*
X26050263Y-7008353D01*
X26132132Y-6926484D01*
X26184694Y-6823325D01*
X26188261Y-6800805D01*
X26202806Y-6708973D01*
X26202806Y-6708968D01*
X26184695Y-6594621D01*
X26184694Y-6594619D01*
X26184694Y-6594617D01*
X26132132Y-6491458D01*
X26132130Y-6491456D01*
X26132127Y-6491452D01*
X26050268Y-6409593D01*
X26050264Y-6409590D01*
X26050263Y-6409589D01*
X25947104Y-6357027D01*
X25947102Y-6357026D01*
X25947099Y-6357025D01*
X25832752Y-6338915D01*
X25832748Y-6338915D01*
X25718399Y-6357025D01*
X25700492Y-6366149D01*
X25690703Y-6371137D01*
X25622035Y-6384032D01*
X25557295Y-6357755D01*
X25517039Y-6300648D01*
X25511938Y-6241252D01*
X25514663Y-6224053D01*
X25520056Y-6190000D01*
X25519242Y-6184863D01*
X25501945Y-6075650D01*
X25501944Y-6075648D01*
X25501944Y-6075646D01*
X25449382Y-5972487D01*
X25449380Y-5972485D01*
X25449377Y-5972481D01*
X25367518Y-5890622D01*
X25367514Y-5890619D01*
X25367513Y-5890618D01*
X25264354Y-5838056D01*
X25264352Y-5838055D01*
X25264349Y-5838054D01*
X25150002Y-5819944D01*
X25149998Y-5819944D01*
X25035650Y-5838054D01*
X24932485Y-5890619D01*
X24932481Y-5890622D01*
X24850622Y-5972481D01*
X24850619Y-5972485D01*
X24798054Y-6075650D01*
X24779944Y-6189997D01*
X17728750Y-6189997D01*
X17728750Y-5069381D01*
X18046723Y-5069381D01*
X18064749Y-5194760D01*
X18112786Y-5299944D01*
X18117370Y-5309982D01*
X18200320Y-5405712D01*
X18237114Y-5429358D01*
X18306882Y-5474196D01*
X18428416Y-5509880D01*
X18428418Y-5509881D01*
X18428419Y-5509881D01*
X18555088Y-5509881D01*
X18555088Y-5509880D01*
X18676622Y-5474196D01*
X18676623Y-5474196D01*
X18676625Y-5474195D01*
X18783186Y-5405712D01*
X18866136Y-5309982D01*
X18875261Y-5290000D01*
X19534970Y-5290000D01*
X19552996Y-5415379D01*
X19605616Y-5530599D01*
X19605617Y-5530601D01*
X19688567Y-5626331D01*
X19756512Y-5669997D01*
X19795129Y-5694815D01*
X19916663Y-5730499D01*
X19916665Y-5730500D01*
X19916666Y-5730500D01*
X20043335Y-5730500D01*
X20043335Y-5730499D01*
X20162025Y-5695650D01*
X20164869Y-5694815D01*
X20164870Y-5694815D01*
X20164872Y-5694814D01*
X20271433Y-5626331D01*
X20354383Y-5530601D01*
X20407003Y-5415379D01*
X20425030Y-5290000D01*
X22484970Y-5290000D01*
X22502996Y-5415379D01*
X22555616Y-5530599D01*
X22555617Y-5530601D01*
X22638567Y-5626331D01*
X22706512Y-5669997D01*
X22745129Y-5694815D01*
X22866663Y-5730499D01*
X22866665Y-5730500D01*
X22866666Y-5730500D01*
X22993335Y-5730500D01*
X22993335Y-5730499D01*
X23112025Y-5695650D01*
X23114869Y-5694815D01*
X23114870Y-5694815D01*
X23114872Y-5694814D01*
X23221433Y-5626331D01*
X23304383Y-5530601D01*
X23357003Y-5415379D01*
X23375030Y-5290000D01*
X23357003Y-5164621D01*
X23354719Y-5159620D01*
X23321249Y-5086331D01*
X23304383Y-5049399D01*
X23221433Y-4953669D01*
X23191026Y-4934127D01*
X23114870Y-4885184D01*
X22993336Y-4849500D01*
X22993334Y-4849500D01*
X22866666Y-4849500D01*
X22866664Y-4849500D01*
X22745130Y-4885184D01*
X22745129Y-4885184D01*
X22638568Y-4953668D01*
X22638566Y-4953670D01*
X22627711Y-4966197D01*
X22568932Y-5003970D01*
X22524656Y-5003968D01*
X22527707Y-5007489D01*
X22537651Y-5076647D01*
X22527708Y-5110511D01*
X22502996Y-5164621D01*
X22484970Y-5290000D01*
X20425030Y-5290000D01*
X20407003Y-5164621D01*
X20382292Y-5110511D01*
X20372349Y-5041352D01*
X20383422Y-5017104D01*
X20368353Y-5019271D01*
X20304797Y-4990246D01*
X20292288Y-4977737D01*
X20283928Y-4968089D01*
X20271433Y-4953669D01*
X20271432Y-4953668D01*
X20164870Y-4885184D01*
X20043336Y-4849500D01*
X20043334Y-4849500D01*
X19916666Y-4849500D01*
X19916664Y-4849500D01*
X19795130Y-4885184D01*
X19795129Y-4885184D01*
X19688568Y-4953668D01*
X19688567Y-4953668D01*
X19688567Y-4953669D01*
X19609949Y-5044400D01*
X19605617Y-5049399D01*
X19605616Y-5049400D01*
X19552996Y-5164620D01*
X19534970Y-5290000D01*
X18875261Y-5290000D01*
X18918756Y-5194760D01*
X18936783Y-5069381D01*
X18918756Y-4944002D01*
X18866136Y-4828780D01*
X18783186Y-4733050D01*
X18752779Y-4713508D01*
X18676623Y-4664565D01*
X18555089Y-4628881D01*
X18555087Y-4628881D01*
X18428419Y-4628881D01*
X18428417Y-4628881D01*
X18306883Y-4664565D01*
X18306882Y-4664565D01*
X18200321Y-4733049D01*
X18200320Y-4733049D01*
X18200320Y-4733050D01*
X18164530Y-4774354D01*
X18117370Y-4828780D01*
X18117369Y-4828781D01*
X18064749Y-4944001D01*
X18046723Y-5069381D01*
X17728750Y-5069381D01*
X17728750Y-2560000D01*
X19894970Y-2560000D01*
X19912996Y-2685379D01*
X19956437Y-2780500D01*
X19965617Y-2800601D01*
X20048567Y-2896331D01*
X20101733Y-2930499D01*
X20155129Y-2964815D01*
X20276663Y-3000499D01*
X20276665Y-3000500D01*
X20386000Y-3000500D01*
X20453039Y-3020185D01*
X20498794Y-3072989D01*
X20510000Y-3124500D01*
X20510000Y-4896533D01*
X20498705Y-4935000D01*
X22414913Y-4935000D01*
X22427764Y-4938773D01*
X22411262Y-4902636D01*
X22410000Y-4884992D01*
X22410000Y-4649997D01*
X26479944Y-4649997D01*
X26479944Y-4650002D01*
X26498054Y-4764349D01*
X26498055Y-4764352D01*
X26498056Y-4764354D01*
X26550618Y-4867513D01*
X26550619Y-4867514D01*
X26550622Y-4867518D01*
X26632481Y-4949377D01*
X26632485Y-4949380D01*
X26632487Y-4949382D01*
X26735646Y-5001944D01*
X26735648Y-5001944D01*
X26735650Y-5001945D01*
X26849998Y-5020056D01*
X26850000Y-5020056D01*
X26850002Y-5020056D01*
X26964349Y-5001945D01*
X26964349Y-5001944D01*
X26964354Y-5001944D01*
X27067513Y-4949382D01*
X27149382Y-4867513D01*
X27201944Y-4764354D01*
X27203424Y-4755008D01*
X27220056Y-4650002D01*
X27220056Y-4649997D01*
X27729944Y-4649997D01*
X27729944Y-4650002D01*
X27748054Y-4764349D01*
X27748055Y-4764352D01*
X27748056Y-4764354D01*
X27800618Y-4867513D01*
X27800619Y-4867514D01*
X27800622Y-4867518D01*
X27882481Y-4949377D01*
X27882485Y-4949380D01*
X27882487Y-4949382D01*
X27985646Y-5001944D01*
X27985648Y-5001944D01*
X27985650Y-5001945D01*
X28099998Y-5020056D01*
X28100000Y-5020056D01*
X28100002Y-5020056D01*
X28214349Y-5001945D01*
X28214349Y-5001944D01*
X28214354Y-5001944D01*
X28317513Y-4949382D01*
X28399382Y-4867513D01*
X28451944Y-4764354D01*
X28453424Y-4755008D01*
X28470056Y-4650002D01*
X28470056Y-4649997D01*
X28451945Y-4535650D01*
X28451944Y-4535648D01*
X28451944Y-4535646D01*
X28399382Y-4432487D01*
X28399380Y-4432485D01*
X28399377Y-4432481D01*
X28317518Y-4350622D01*
X28317514Y-4350619D01*
X28317513Y-4350618D01*
X28214354Y-4298056D01*
X28214352Y-4298055D01*
X28214349Y-4298054D01*
X28100002Y-4279944D01*
X28099998Y-4279944D01*
X27985650Y-4298054D01*
X27882485Y-4350619D01*
X27882481Y-4350622D01*
X27800622Y-4432481D01*
X27800619Y-4432485D01*
X27800618Y-4432487D01*
X27761430Y-4509399D01*
X27748054Y-4535650D01*
X27729944Y-4649997D01*
X27220056Y-4649997D01*
X27201945Y-4535650D01*
X27201944Y-4535648D01*
X27201944Y-4535646D01*
X27149382Y-4432487D01*
X27149380Y-4432485D01*
X27149377Y-4432481D01*
X27067518Y-4350622D01*
X27067514Y-4350619D01*
X27067513Y-4350618D01*
X26964354Y-4298056D01*
X26964352Y-4298055D01*
X26964349Y-4298054D01*
X26850002Y-4279944D01*
X26849998Y-4279944D01*
X26735650Y-4298054D01*
X26632485Y-4350619D01*
X26632481Y-4350622D01*
X26550622Y-4432481D01*
X26550619Y-4432485D01*
X26550618Y-4432487D01*
X26511430Y-4509399D01*
X26498054Y-4535650D01*
X26479944Y-4649997D01*
X22410000Y-4649997D01*
X22410000Y-3175194D01*
X22429685Y-3108155D01*
X22482489Y-3062400D01*
X22534000Y-3051194D01*
X22560519Y-3051194D01*
X22560519Y-3051193D01*
X22682053Y-3015509D01*
X22682054Y-3015509D01*
X22682056Y-3015508D01*
X22788617Y-2947025D01*
X22871567Y-2851295D01*
X22924187Y-2736073D01*
X22942214Y-2610694D01*
X22924187Y-2485315D01*
X22919561Y-2475186D01*
X22895189Y-2421819D01*
X22871567Y-2370093D01*
X22845491Y-2340000D01*
X23644970Y-2340000D01*
X23662996Y-2465379D01*
X23705258Y-2557918D01*
X23715617Y-2580601D01*
X23798567Y-2676331D01*
X23840614Y-2703353D01*
X23905129Y-2744815D01*
X24026663Y-2780499D01*
X24026665Y-2780500D01*
X24026666Y-2780500D01*
X24153335Y-2780500D01*
X24153335Y-2780499D01*
X24274869Y-2744815D01*
X24274870Y-2744815D01*
X24274872Y-2744814D01*
X24381433Y-2676331D01*
X24464383Y-2580601D01*
X24517003Y-2465379D01*
X24535030Y-2340000D01*
X24518304Y-2223668D01*
X24517003Y-2214620D01*
X24487209Y-2149382D01*
X24464383Y-2099399D01*
X24381433Y-2003669D01*
X24320258Y-1964354D01*
X24274870Y-1935184D01*
X24153336Y-1899500D01*
X24153334Y-1899500D01*
X24026666Y-1899500D01*
X24026664Y-1899500D01*
X23905130Y-1935184D01*
X23905129Y-1935184D01*
X23798568Y-2003668D01*
X23798567Y-2003668D01*
X23798567Y-2003669D01*
X23743246Y-2067513D01*
X23715617Y-2099399D01*
X23715616Y-2099400D01*
X23662996Y-2214620D01*
X23644970Y-2340000D01*
X22845491Y-2340000D01*
X22788617Y-2274363D01*
X22749774Y-2249400D01*
X22682054Y-2205878D01*
X22560520Y-2170194D01*
X22560518Y-2170194D01*
X22433850Y-2170194D01*
X22433848Y-2170194D01*
X22312314Y-2205878D01*
X22312313Y-2205878D01*
X22205752Y-2274362D01*
X22205751Y-2274362D01*
X22205751Y-2274363D01*
X22148877Y-2340000D01*
X22122801Y-2370093D01*
X22122800Y-2370094D01*
X22070180Y-2485314D01*
X22052154Y-2610694D01*
X22065476Y-2703353D01*
X22055532Y-2772512D01*
X22009777Y-2825316D01*
X21942738Y-2845000D01*
X20885779Y-2845000D01*
X20818740Y-2825315D01*
X20772985Y-2772511D01*
X20763041Y-2703353D01*
X20766802Y-2686064D01*
X20767003Y-2685378D01*
X20768956Y-2671793D01*
X20785030Y-2560000D01*
X20767003Y-2434621D01*
X20751585Y-2400861D01*
X20727107Y-2347261D01*
X20714383Y-2319399D01*
X20631433Y-2223669D01*
X20580872Y-2191175D01*
X20524870Y-2155184D01*
X20403336Y-2119500D01*
X20403334Y-2119500D01*
X20276666Y-2119500D01*
X20276664Y-2119500D01*
X20155130Y-2155184D01*
X20155129Y-2155184D01*
X20048568Y-2223668D01*
X20048567Y-2223668D01*
X20048567Y-2223669D01*
X19970318Y-2313974D01*
X19965617Y-2319399D01*
X19965616Y-2319400D01*
X19912996Y-2434620D01*
X19894970Y-2560000D01*
X17728750Y-2560000D01*
X17728750Y-2303969D01*
X17748435Y-2236930D01*
X17801239Y-2191175D01*
X17870397Y-2181231D01*
X17909039Y-2193482D01*
X17925646Y-2201944D01*
X17925648Y-2201944D01*
X17925650Y-2201945D01*
X18039998Y-2220056D01*
X18040000Y-2220056D01*
X18040002Y-2220056D01*
X18154349Y-2201945D01*
X18154349Y-2201944D01*
X18154354Y-2201944D01*
X18257513Y-2149382D01*
X18339382Y-2067513D01*
X18391944Y-1964354D01*
X18400553Y-1910000D01*
X18410056Y-1850002D01*
X18410056Y-1849997D01*
X18391945Y-1735650D01*
X18391944Y-1735648D01*
X18391944Y-1735646D01*
X18339382Y-1632487D01*
X18339380Y-1632485D01*
X18339377Y-1632481D01*
X18257518Y-1550622D01*
X18257514Y-1550619D01*
X18257513Y-1550618D01*
X18154354Y-1498056D01*
X18154352Y-1498055D01*
X18154349Y-1498054D01*
X18040002Y-1479944D01*
X18039998Y-1479944D01*
X17925648Y-1498055D01*
X17898914Y-1511676D01*
X17830245Y-1524571D01*
X17765505Y-1498293D01*
X17725249Y-1441186D01*
X17720149Y-1420588D01*
X17708953Y-1349898D01*
X17717908Y-1280604D01*
X17762904Y-1227152D01*
X17829656Y-1206513D01*
X17831426Y-1206500D01*
X26652177Y-1206500D01*
X26719216Y-1226185D01*
X26739858Y-1242819D01*
X28347110Y-2850071D01*
X28380595Y-2911394D01*
X28377360Y-2976069D01*
X28374986Y-2983375D01*
X28374984Y-2983380D01*
X28356890Y-3155534D01*
X28354319Y-3180000D01*
X28374984Y-3376618D01*
X28374985Y-3376621D01*
X28436074Y-3564637D01*
X28436077Y-3564643D01*
X28534928Y-3735857D01*
X28667216Y-3882778D01*
X28827159Y-3998984D01*
X29007768Y-4079396D01*
X29201149Y-4120500D01*
X29201150Y-4120500D01*
X29398849Y-4120500D01*
X29398851Y-4120500D01*
X29592232Y-4079396D01*
X29772841Y-3998984D01*
X29772845Y-3998980D01*
X29778474Y-3995732D01*
X29779654Y-3997776D01*
X29835330Y-3977902D01*
X29903386Y-3993718D01*
X29952088Y-4043817D01*
X29965747Y-4088734D01*
X29974984Y-4176618D01*
X29974985Y-4176621D01*
X30036074Y-4364637D01*
X30036077Y-4364643D01*
X30134928Y-4535857D01*
X30267216Y-4682778D01*
X30427159Y-4798984D01*
X30607768Y-4879396D01*
X30801149Y-4920500D01*
X30801150Y-4920500D01*
X30998849Y-4920500D01*
X30998851Y-4920500D01*
X31192232Y-4879396D01*
X31372841Y-4798984D01*
X31532784Y-4682778D01*
X31665072Y-4535857D01*
X31763923Y-4364643D01*
X31825016Y-4176618D01*
X31845681Y-3980000D01*
X31825016Y-3783382D01*
X31772110Y-3620553D01*
X31763925Y-3595362D01*
X31763922Y-3595356D01*
X31665072Y-3424143D01*
X31532784Y-3277222D01*
X31372841Y-3161016D01*
X31192232Y-3080604D01*
X31192230Y-3080603D01*
X31051048Y-3050594D01*
X30998851Y-3039500D01*
X30801149Y-3039500D01*
X30767251Y-3046705D01*
X30607768Y-3080603D01*
X30607762Y-3080605D01*
X30427160Y-3161016D01*
X30421527Y-3164268D01*
X30420352Y-3162233D01*
X30364609Y-3182101D01*
X30296560Y-3166253D01*
X30247883Y-3116130D01*
X30234252Y-3071267D01*
X30225016Y-2983382D01*
X30223700Y-2979331D01*
X30163925Y-2795362D01*
X30163922Y-2795356D01*
X30155345Y-2780500D01*
X30065072Y-2624143D01*
X29932784Y-2477222D01*
X29772841Y-2361016D01*
X29592232Y-2280604D01*
X29592230Y-2280603D01*
X29445427Y-2249400D01*
X29398851Y-2239500D01*
X29201149Y-2239500D01*
X29201144Y-2239500D01*
X29086649Y-2263836D01*
X29016982Y-2258520D01*
X28973188Y-2230227D01*
X27455142Y-712181D01*
X27421657Y-650858D01*
X27426641Y-581166D01*
X27468513Y-525233D01*
X27533977Y-500816D01*
X27542823Y-500500D01*
X45375500Y-500500D01*
X45442539Y-520185D01*
X45488294Y-572989D01*
X45499500Y-624500D01*
X45499500Y-21375500D01*
X45479815Y-21442539D01*
X45427011Y-21488294D01*
X45375500Y-21499500D01*
X624500Y-21499500D01*
X557461Y-21479815D01*
X511706Y-21427011D01*
X500500Y-21375500D01*
X500500Y-19890000D01*
X1099465Y-19890000D01*
X1119554Y-20093972D01*
X1179053Y-20290113D01*
X1275667Y-20470866D01*
X1275669Y-20470869D01*
X1405694Y-20629305D01*
X1564130Y-20759330D01*
X1564133Y-20759332D01*
X1744886Y-20855946D01*
X1744888Y-20855946D01*
X1744891Y-20855948D01*
X1941026Y-20915445D01*
X2145000Y-20935535D01*
X2348974Y-20915445D01*
X2545109Y-20855948D01*
X2725868Y-20759331D01*
X2884305Y-20629305D01*
X3014331Y-20470868D01*
X3110948Y-20290109D01*
X3170445Y-20093974D01*
X3190535Y-19890000D01*
X3170445Y-19686026D01*
X3110948Y-19489891D01*
X3110946Y-19489888D01*
X3110946Y-19489886D01*
X3014332Y-19309133D01*
X3014330Y-19309130D01*
X2884305Y-19150694D01*
X2725869Y-19020669D01*
X2725866Y-19020667D01*
X2545113Y-18924053D01*
X2348972Y-18864554D01*
X2145000Y-18844465D01*
X1941027Y-18864554D01*
X1744886Y-18924053D01*
X1564133Y-19020667D01*
X1564130Y-19020669D01*
X1405694Y-19150694D01*
X1275669Y-19309130D01*
X1275667Y-19309133D01*
X1179053Y-19489886D01*
X1119554Y-19686027D01*
X1099465Y-19890000D01*
X500500Y-19890000D01*
X500500Y-17350000D01*
X1099465Y-17350000D01*
X1119554Y-17553972D01*
X1179053Y-17750113D01*
X1275667Y-17930866D01*
X1275669Y-17930869D01*
X1405694Y-18089305D01*
X1564130Y-18219330D01*
X1564133Y-18219332D01*
X1744886Y-18315946D01*
X1744888Y-18315946D01*
X1744891Y-18315948D01*
X1941026Y-18375445D01*
X2145000Y-18395535D01*
X2348974Y-18375445D01*
X2545109Y-18315948D01*
X2725868Y-18219331D01*
X2884305Y-18089305D01*
X3014331Y-17930868D01*
X3056391Y-17852179D01*
X3110946Y-17750113D01*
X3110946Y-17750112D01*
X3110948Y-17750109D01*
X3170445Y-17553974D01*
X3190535Y-17350000D01*
X3170445Y-17146026D01*
X3110948Y-16949891D01*
X3110946Y-16949888D01*
X3110946Y-16949886D01*
X3014332Y-16769133D01*
X3014330Y-16769130D01*
X2884305Y-16610694D01*
X2725869Y-16480669D01*
X2725866Y-16480667D01*
X2545113Y-16384053D01*
X2348972Y-16324554D01*
X2145000Y-16304465D01*
X1941027Y-16324554D01*
X1744886Y-16384053D01*
X1564133Y-16480667D01*
X1564130Y-16480669D01*
X1405694Y-16610694D01*
X1275669Y-16769130D01*
X1275667Y-16769133D01*
X1179053Y-16949886D01*
X1119554Y-17146027D01*
X1099465Y-17350000D01*
X500500Y-17350000D01*
X500500Y-14810000D01*
X1099465Y-14810000D01*
X1119554Y-15013972D01*
X1179053Y-15210113D01*
X1275667Y-15390866D01*
X1275669Y-15390869D01*
X1405694Y-15549305D01*
X1564130Y-15679330D01*
X1564133Y-15679332D01*
X1744886Y-15775946D01*
X1744888Y-15775946D01*
X1744891Y-15775948D01*
X1941026Y-15835445D01*
X2145000Y-15855535D01*
X2348974Y-15835445D01*
X2545109Y-15775948D01*
X2546537Y-15775185D01*
X2673141Y-15707514D01*
X2725868Y-15679331D01*
X2884305Y-15549305D01*
X3014331Y-15390868D01*
X3084281Y-15260000D01*
X3110946Y-15210113D01*
X3110946Y-15210112D01*
X3110948Y-15210109D01*
X3170445Y-15013974D01*
X3190535Y-14810000D01*
X3170445Y-14606026D01*
X3110948Y-14409891D01*
X3110946Y-14409888D01*
X3110946Y-14409886D01*
X3014332Y-14229133D01*
X3014330Y-14229130D01*
X2884305Y-14070694D01*
X2725869Y-13940669D01*
X2725866Y-13940667D01*
X2545113Y-13844053D01*
X2348972Y-13784554D01*
X2145000Y-13764465D01*
X1941027Y-13784554D01*
X1744886Y-13844053D01*
X1564133Y-13940667D01*
X1564130Y-13940669D01*
X1405694Y-14070694D01*
X1275669Y-14229130D01*
X1275667Y-14229133D01*
X1179053Y-14409886D01*
X1119554Y-14606027D01*
X1099465Y-14810000D01*
X500500Y-14810000D01*
X500500Y-12270000D01*
X1099465Y-12270000D01*
X1119554Y-12473972D01*
X1179053Y-12670113D01*
X1275667Y-12850866D01*
X1275669Y-12850869D01*
X1405694Y-13009305D01*
X1564130Y-13139330D01*
X1564133Y-13139332D01*
X1744886Y-13235946D01*
X1744888Y-13235946D01*
X1744891Y-13235948D01*
X1941026Y-13295445D01*
X2145000Y-13315535D01*
X2348974Y-13295445D01*
X2545109Y-13235948D01*
X2725868Y-13139331D01*
X2884305Y-13009305D01*
X3014331Y-12850868D01*
X3072552Y-12741944D01*
X3110946Y-12670113D01*
X3110946Y-12670112D01*
X3110948Y-12670109D01*
X3170445Y-12473974D01*
X3190535Y-12270000D01*
X3170445Y-12066026D01*
X3110948Y-11869891D01*
X3110946Y-11869888D01*
X3110946Y-11869886D01*
X3014332Y-11689133D01*
X3014330Y-11689130D01*
X2884305Y-11530694D01*
X2725869Y-11400669D01*
X2725866Y-11400667D01*
X2545113Y-11304053D01*
X2348972Y-11244554D01*
X2145000Y-11224465D01*
X1941027Y-11244554D01*
X1744886Y-11304053D01*
X1564133Y-11400667D01*
X1564130Y-11400669D01*
X1405694Y-11530694D01*
X1275669Y-11689130D01*
X1275667Y-11689133D01*
X1179053Y-11869886D01*
X1119554Y-12066027D01*
X1099465Y-12270000D01*
X500500Y-12270000D01*
X500500Y-9730000D01*
X1099465Y-9730000D01*
X1119554Y-9933972D01*
X1179053Y-10130113D01*
X1275667Y-10310866D01*
X1275669Y-10310869D01*
X1405694Y-10469305D01*
X1564130Y-10599330D01*
X1564133Y-10599332D01*
X1744886Y-10695946D01*
X1744888Y-10695946D01*
X1744891Y-10695948D01*
X1941026Y-10755445D01*
X2145000Y-10775535D01*
X2348974Y-10755445D01*
X2545109Y-10695948D01*
X2581487Y-10676504D01*
X2725866Y-10599332D01*
X2725869Y-10599330D01*
X2758735Y-10572358D01*
X2884305Y-10469305D01*
X3014331Y-10310868D01*
X3110948Y-10130109D01*
X3170445Y-9933974D01*
X3190535Y-9730000D01*
X3170445Y-9526026D01*
X3110948Y-9329891D01*
X3110946Y-9329888D01*
X3110946Y-9329886D01*
X3014332Y-9149133D01*
X3014330Y-9149130D01*
X2884305Y-8990694D01*
X2725869Y-8860669D01*
X2725866Y-8860667D01*
X2545113Y-8764053D01*
X2348972Y-8704554D01*
X2145000Y-8684465D01*
X1941027Y-8704554D01*
X1744886Y-8764053D01*
X1564133Y-8860667D01*
X1564130Y-8860669D01*
X1405694Y-8990694D01*
X1275669Y-9149130D01*
X1275667Y-9149133D01*
X1179053Y-9329886D01*
X1119554Y-9526027D01*
X1099465Y-9730000D01*
X500500Y-9730000D01*
X500500Y-7190000D01*
X1099465Y-7190000D01*
X1119554Y-7393972D01*
X1179053Y-7590113D01*
X1275667Y-7770866D01*
X1275669Y-7770869D01*
X1405694Y-7929305D01*
X1564130Y-8059330D01*
X1564133Y-8059332D01*
X1744886Y-8155946D01*
X1744888Y-8155946D01*
X1744891Y-8155948D01*
X1941026Y-8215445D01*
X2145000Y-8235535D01*
X2348974Y-8215445D01*
X2545109Y-8155948D01*
X2725868Y-8059331D01*
X2884305Y-7929305D01*
X3014331Y-7770868D01*
X3095301Y-7619382D01*
X3110946Y-7590113D01*
X3110946Y-7590112D01*
X3110948Y-7590109D01*
X3170445Y-7393974D01*
X3190535Y-7190000D01*
X3170445Y-6986026D01*
X3110948Y-6789891D01*
X3110946Y-6789888D01*
X3110946Y-6789886D01*
X3014332Y-6609133D01*
X3014330Y-6609130D01*
X2884305Y-6450694D01*
X2725869Y-6320669D01*
X2725866Y-6320667D01*
X2545113Y-6224053D01*
X2348972Y-6164554D01*
X2145000Y-6144465D01*
X1941027Y-6164554D01*
X1744886Y-6224053D01*
X1564133Y-6320667D01*
X1564130Y-6320669D01*
X1405694Y-6450694D01*
X1275669Y-6609130D01*
X1275667Y-6609133D01*
X1179053Y-6789886D01*
X1119554Y-6986027D01*
X1099465Y-7190000D01*
X500500Y-7190000D01*
X500500Y-4650000D01*
X1099465Y-4650000D01*
X1119554Y-4853972D01*
X1179053Y-5050113D01*
X1275667Y-5230866D01*
X1275669Y-5230869D01*
X1405694Y-5389305D01*
X1564130Y-5519330D01*
X1564133Y-5519332D01*
X1744886Y-5615946D01*
X1744888Y-5615946D01*
X1744891Y-5615948D01*
X1941026Y-5675445D01*
X2145000Y-5695535D01*
X2348974Y-5675445D01*
X2545109Y-5615948D01*
X2725868Y-5519331D01*
X2884305Y-5389305D01*
X3014331Y-5230868D01*
X3110948Y-5050109D01*
X3170445Y-4853974D01*
X3190535Y-4650000D01*
X3170445Y-4446026D01*
X3110948Y-4249891D01*
X3110946Y-4249888D01*
X3110946Y-4249886D01*
X3014332Y-4069133D01*
X3014330Y-4069130D01*
X2884305Y-3910694D01*
X2725869Y-3780669D01*
X2725866Y-3780667D01*
X2545113Y-3684053D01*
X2348972Y-3624554D01*
X2145000Y-3604465D01*
X1941027Y-3624554D01*
X1744886Y-3684053D01*
X1564133Y-3780667D01*
X1564130Y-3780669D01*
X1405694Y-3910694D01*
X1275669Y-4069130D01*
X1275667Y-4069133D01*
X1179053Y-4249886D01*
X1119554Y-4446027D01*
X1099465Y-4650000D01*
X500500Y-4650000D01*
X500500Y-2110000D01*
X1099465Y-2110000D01*
X1119554Y-2313972D01*
X1179053Y-2510113D01*
X1275667Y-2690866D01*
X1275669Y-2690869D01*
X1405694Y-2849305D01*
X1564130Y-2979330D01*
X1564133Y-2979332D01*
X1744886Y-3075946D01*
X1744888Y-3075946D01*
X1744891Y-3075948D01*
X1941026Y-3135445D01*
X2145000Y-3155535D01*
X2348974Y-3135445D01*
X2545109Y-3075948D01*
X2725868Y-2979331D01*
X2884305Y-2849305D01*
X3014331Y-2690868D01*
X3054680Y-2615379D01*
X3110946Y-2510113D01*
X3110946Y-2510112D01*
X3110948Y-2510109D01*
X3170445Y-2313974D01*
X3190535Y-2110000D01*
X3170445Y-1906026D01*
X3110948Y-1709891D01*
X3110946Y-1709888D01*
X3110946Y-1709886D01*
X3014332Y-1529133D01*
X3014330Y-1529130D01*
X2884305Y-1370694D01*
X2725869Y-1240669D01*
X2725866Y-1240667D01*
X2545113Y-1144053D01*
X2348972Y-1084554D01*
X2145000Y-1064465D01*
X1941027Y-1084554D01*
X1744886Y-1144053D01*
X1564133Y-1240667D01*
X1564130Y-1240669D01*
X1405694Y-1370694D01*
X1275669Y-1529130D01*
X1275667Y-1529133D01*
X1179053Y-1709886D01*
X1119554Y-1906027D01*
X1099465Y-2110000D01*
X500500Y-2110000D01*
X500500Y-624500D01*
X520185Y-557461D01*
X572989Y-511706D01*
X624500Y-500500D01*
X5372177Y-500500D01*
X5439216Y-520185D01*
G37*
%TD.AperFunction*%
%TD*%
M02*
