M48
; DRILL file {KiCad 9.0.7-9.0.7~ubuntu22.04.1} date 2026-03-09T22:25:18-0500
; FORMAT={-:-/ absolute / metric / decimal}
; #@! TF.CreationDate,2026-03-09T22:25:18-05:00
; #@! TF.GenerationSoftware,Kicad,Pcbnew,9.0.7-9.0.7~ubuntu22.04.1
; #@! TF.FileFunction,Plated,1,4,PTH
FMAT,2
METRIC
; #@! TA.AperFunction,Plated,PTH,ViaDrill
T1C0.300
; #@! TA.AperFunction,Plated,PTH,ComponentDrill
T2C0.950
; #@! TA.AperFunction,Plated,PTH,ComponentDrill
T3C1.000
%
G90
G05
T1
X8.69Y-5.94
X10.0Y-5.44
X10.01Y-11.55
X10.01Y-19.17
X10.02Y-16.66
X10.03Y-10.45
X10.57Y-1.4
X10.71Y-14.8
X10.91Y-5.02
X11.03Y-13.31
X11.05Y-11.24
X11.18Y-17.59
X11.18Y-18.42
X12.03Y-13.45
X12.35Y-1.4
X13.22Y-18.54
X13.25Y-12.36
X13.52Y-9.85
X13.74Y-10.73
X13.83Y-17.64
X14.38Y-9.8
X14.48Y-1.41
X14.55Y-15.88
X14.6Y-2.27
X15.27Y-9.95
X15.45Y-8.84
X15.45Y-11.91
X15.5Y-13.42
X15.89Y-17.77
X16.1Y-6.16
X16.101Y-2.63
X16.29Y-15.19
X17.84Y-7.56
X18.09Y-16.04
X18.65Y-1.14
X18.65Y-1.769
X18.89Y-7.53
X19.04Y-6.65
X19.33Y-2.44
X19.59Y-11.66
X20.3Y-7.24
X20.75Y-6.45
X20.83Y-16.99
X21.5Y-19.0
X21.56Y-6.64
X21.58Y-19.84
X21.91Y-16.89
X22.157Y-7.344
X22.4Y-16.16
X22.44Y-1.87
X22.94Y-15.1
X23.04Y-8.47
X23.36Y-5.13
X23.5Y-17.64
X23.84Y-10.88
X23.896Y-11.687
X23.96Y-1.86
X24.02Y-18.282
X24.1Y-7.66
X24.1Y-9.81
X24.36Y-5.08
X24.36Y-16.84
X24.62Y-7.05
X24.62Y-12.85
X24.78Y-14.29
X24.9Y-15.12
X24.97Y-19.86
X25.05Y-3.79
X25.13Y-16.28
X25.76Y-13.3
X25.76Y-15.21
X26.07Y-12.03
X26.31Y-2.61
X26.315Y-3.74
X26.37Y-16.42
X26.54Y-8.06
X26.68Y-10.28
X27.4Y-17.75
X27.44Y-7.07
X27.9Y-9.68
X28.15Y-15.09
X28.51Y-8.0
X28.65Y-12.25
X29.342Y-9.37
X29.66Y-15.06
X29.88Y-1.86
X30.26Y-5.89
X30.41Y-10.28
X30.43Y-17.63
X31.14Y-15.13
X31.22Y-13.0
X31.42Y-1.87
X31.66Y-12.23
X32.08Y-18.27
X32.28Y-5.88
X32.61Y-16.08
X32.62Y-4.49
X32.62Y-17.0
X32.74Y-9.73
X32.77Y-7.0
X33.16Y-13.26
X33.19Y-14.0
X33.29Y-2.82
X33.29Y-5.3
X33.29Y-7.86
X33.29Y-10.33
X33.58Y-12.53
X33.59Y-17.99
X33.91Y-20.0
X34.29Y-5.31
X34.3Y-2.79
X34.3Y-10.25
X34.3Y-15.29
X34.31Y-7.77
X34.66Y-13.02
X36.31Y-7.74
X36.31Y-10.21
X36.31Y-15.2
X36.31Y-17.71
X36.32Y-5.19
X36.32Y-12.7
T2
X37.85Y-3.48
X37.85Y-5.98
X37.85Y-8.48
X37.85Y-10.98
X37.85Y-13.48
X37.85Y-15.98
X37.85Y-18.48
T3
X2.145Y-2.11
X2.145Y-4.65
X2.145Y-7.19
X2.145Y-9.73
X2.145Y-12.27
X2.145Y-14.81
X2.145Y-17.35
X2.145Y-19.89
X4.685Y-2.11
X4.685Y-4.65
X4.685Y-7.19
X4.685Y-9.73
X4.685Y-12.27
X4.685Y-14.81
X4.685Y-17.35
X4.685Y-19.89
X7.225Y-2.11
X7.225Y-4.65
X7.225Y-7.19
X7.225Y-9.73
X7.225Y-12.27
X7.225Y-14.81
X7.225Y-17.35
X7.225Y-19.89
M30
