%TF.GenerationSoftware,KiCad,Pcbnew,8.0.7-8.0.7-0~ubuntu22.04.1*%
%TF.CreationDate,2024-12-11T19:39:49-06:00*%
%TF.ProjectId,elrs-lvs,656c7273-2d6c-4767-932e-6b696361645f,1*%
%TF.SameCoordinates,Original*%
%TF.FileFunction,Legend,Top*%
%TF.FilePolarity,Positive*%
%FSLAX46Y46*%
G04 Gerber Fmt 4.6, Leading zero omitted, Abs format (unit mm)*
G04 Created by KiCad (PCBNEW 8.0.7-8.0.7-0~ubuntu22.04.1) date 2024-12-11 19:39:49*
%MOMM*%
%LPD*%
G01*
G04 APERTURE LIST*
G04 Aperture macros list*
%AMRoundRect*
0 Rectangle with rounded corners*
0 $1 Rounding radius*
0 $2 $3 $4 $5 $6 $7 $8 $9 X,Y pos of 4 corners*
0 Add a 4 corners polygon primitive as box body*
4,1,4,$2,$3,$4,$5,$6,$7,$8,$9,$2,$3,0*
0 Add four circle primitives for the rounded corners*
1,1,$1+$1,$2,$3*
1,1,$1+$1,$4,$5*
1,1,$1+$1,$6,$7*
1,1,$1+$1,$8,$9*
0 Add four rect primitives between the rounded corners*
20,1,$1+$1,$2,$3,$4,$5,0*
20,1,$1+$1,$4,$5,$6,$7,0*
20,1,$1+$1,$6,$7,$8,$9,0*
20,1,$1+$1,$8,$9,$2,$3,0*%
G04 Aperture macros list end*
%ADD10C,0.152400*%
%ADD11C,0.150000*%
%ADD12C,0.120000*%
%ADD13C,0.275000*%
%ADD14C,0.000000*%
%ADD15RoundRect,0.218750X0.381250X-0.218750X0.381250X0.218750X-0.381250X0.218750X-0.381250X-0.218750X0*%
%ADD16RoundRect,0.075000X-0.075000X-0.075000X0.075000X-0.075000X0.075000X0.075000X-0.075000X0.075000X0*%
%ADD17C,0.250000*%
%ADD18RoundRect,0.075000X0.075000X-0.075000X0.075000X0.075000X-0.075000X0.075000X-0.075000X-0.075000X0*%
%ADD19RoundRect,0.075000X0.075000X0.075000X-0.075000X0.075000X-0.075000X-0.075000X0.075000X-0.075000X0*%
%ADD20RoundRect,0.218750X0.256250X-0.218750X0.256250X0.218750X-0.256250X0.218750X-0.256250X-0.218750X0*%
%ADD21RoundRect,0.250000X0.475000X-0.250000X0.475000X0.250000X-0.475000X0.250000X-0.475000X-0.250000X0*%
%ADD22RoundRect,0.250000X1.100000X-0.325000X1.100000X0.325000X-1.100000X0.325000X-1.100000X-0.325000X0*%
%ADD23RoundRect,0.135000X0.185000X-0.135000X0.185000X0.135000X-0.185000X0.135000X-0.185000X-0.135000X0*%
%ADD24RoundRect,0.075000X-0.075000X0.075000X-0.075000X-0.075000X0.075000X-0.075000X0.075000X0.075000X0*%
%ADD25R,1.100000X2.000000*%
%ADD26R,1.100000X0.800000*%
%ADD27RoundRect,0.250000X0.250000X-0.275000X0.250000X0.275000X-0.250000X0.275000X-0.250000X-0.275000X0*%
%ADD28RoundRect,0.250000X0.000000X-0.353553X0.353553X0.000000X0.000000X0.353553X-0.353553X0.000000X0*%
%ADD29RoundRect,0.250000X0.275000X-0.850000X0.275000X0.850000X-0.275000X0.850000X-0.275000X-0.850000X0*%
%ADD30RoundRect,0.337500X0.000000X-0.477297X0.477297X0.000000X0.000000X0.477297X-0.477297X0.000000X0*%
%ADD31R,1.700000X1.700000*%
%ADD32O,1.700000X1.700000*%
%ADD33RoundRect,0.100000X0.275000X-0.275000X0.275000X0.275000X-0.275000X0.275000X-0.275000X-0.275000X0*%
%ADD34RoundRect,0.100000X0.250000X-0.150000X0.250000X0.150000X-0.250000X0.150000X-0.250000X-0.150000X0*%
%ADD35R,0.533400X0.558800*%
%ADD36R,0.533400X0.279400*%
%ADD37R,0.939800X2.844800*%
%ADD38RoundRect,0.140000X-0.140000X-0.170000X0.140000X-0.170000X0.140000X0.170000X-0.140000X0.170000X0*%
%ADD39RoundRect,0.135000X0.135000X0.185000X-0.135000X0.185000X-0.135000X-0.185000X0.135000X-0.185000X0*%
%ADD40RoundRect,0.112500X0.112500X-0.187500X0.112500X0.187500X-0.112500X0.187500X-0.112500X-0.187500X0*%
%ADD41R,0.508000X0.457200*%
%ADD42R,0.700000X0.700000*%
%ADD43RoundRect,0.250000X0.250000X0.475000X-0.250000X0.475000X-0.250000X-0.475000X0.250000X-0.475000X0*%
%ADD44R,0.457200X0.508000*%
%ADD45RoundRect,0.140000X-0.170000X0.140000X-0.170000X-0.140000X0.170000X-0.140000X0.170000X0.140000X0*%
%ADD46RoundRect,0.150000X0.150000X0.700000X-0.150000X0.700000X-0.150000X-0.700000X0.150000X-0.700000X0*%
%ADD47RoundRect,0.250000X0.250000X1.100000X-0.250000X1.100000X-0.250000X-1.100000X0.250000X-1.100000X0*%
%ADD48RoundRect,0.140000X0.170000X-0.140000X0.170000X0.140000X-0.170000X0.140000X-0.170000X-0.140000X0*%
%ADD49R,0.800000X0.900000*%
%ADD50RoundRect,0.062500X-0.062500X0.337500X-0.062500X-0.337500X0.062500X-0.337500X0.062500X0.337500X0*%
%ADD51RoundRect,0.062500X-0.337500X0.062500X-0.337500X-0.062500X0.337500X-0.062500X0.337500X0.062500X0*%
%ADD52R,5.300000X5.300000*%
%ADD53RoundRect,0.250000X0.725000X-0.600000X0.725000X0.600000X-0.725000X0.600000X-0.725000X-0.600000X0*%
%ADD54O,1.950000X1.700000*%
%ADD55RoundRect,0.062500X-0.350000X-0.062500X0.350000X-0.062500X0.350000X0.062500X-0.350000X0.062500X0*%
%ADD56RoundRect,0.062500X-0.062500X-0.350000X0.062500X-0.350000X0.062500X0.350000X-0.062500X0.350000X0*%
%ADD57R,2.600000X2.600000*%
G04 APERTURE END LIST*
D10*
X9114548Y-11769694D02*
X8638358Y-11769694D01*
X8638358Y-11769694D02*
X8590739Y-12245884D01*
X8590739Y-12245884D02*
X8638358Y-12198265D01*
X8638358Y-12198265D02*
X8733596Y-12150646D01*
X8733596Y-12150646D02*
X8971691Y-12150646D01*
X8971691Y-12150646D02*
X9066929Y-12198265D01*
X9066929Y-12198265D02*
X9114548Y-12245884D01*
X9114548Y-12245884D02*
X9162167Y-12341122D01*
X9162167Y-12341122D02*
X9162167Y-12579217D01*
X9162167Y-12579217D02*
X9114548Y-12674455D01*
X9114548Y-12674455D02*
X9066929Y-12722075D01*
X9066929Y-12722075D02*
X8971691Y-12769694D01*
X8971691Y-12769694D02*
X8733596Y-12769694D01*
X8733596Y-12769694D02*
X8638358Y-12722075D01*
X8638358Y-12722075D02*
X8590739Y-12674455D01*
X29018358Y-7388741D02*
X29780263Y-7388741D01*
X29399310Y-7769694D02*
X29399310Y-7007789D01*
X9066929Y-9503027D02*
X9066929Y-10169694D01*
X8828834Y-9122075D02*
X8590739Y-9836360D01*
X8590739Y-9836360D02*
X9209786Y-9836360D01*
X28409786Y-4169694D02*
X28076453Y-3693503D01*
X27838358Y-4169694D02*
X27838358Y-3169694D01*
X27838358Y-3169694D02*
X28219310Y-3169694D01*
X28219310Y-3169694D02*
X28314548Y-3217313D01*
X28314548Y-3217313D02*
X28362167Y-3264932D01*
X28362167Y-3264932D02*
X28409786Y-3360170D01*
X28409786Y-3360170D02*
X28409786Y-3503027D01*
X28409786Y-3503027D02*
X28362167Y-3598265D01*
X28362167Y-3598265D02*
X28314548Y-3645884D01*
X28314548Y-3645884D02*
X28219310Y-3693503D01*
X28219310Y-3693503D02*
X27838358Y-3693503D01*
X838358Y-888741D02*
X1600263Y-888741D01*
X8781215Y-19798265D02*
X8685977Y-19750646D01*
X8685977Y-19750646D02*
X8638358Y-19703027D01*
X8638358Y-19703027D02*
X8590739Y-19607789D01*
X8590739Y-19607789D02*
X8590739Y-19560170D01*
X8590739Y-19560170D02*
X8638358Y-19464932D01*
X8638358Y-19464932D02*
X8685977Y-19417313D01*
X8685977Y-19417313D02*
X8781215Y-19369694D01*
X8781215Y-19369694D02*
X8971691Y-19369694D01*
X8971691Y-19369694D02*
X9066929Y-19417313D01*
X9066929Y-19417313D02*
X9114548Y-19464932D01*
X9114548Y-19464932D02*
X9162167Y-19560170D01*
X9162167Y-19560170D02*
X9162167Y-19607789D01*
X9162167Y-19607789D02*
X9114548Y-19703027D01*
X9114548Y-19703027D02*
X9066929Y-19750646D01*
X9066929Y-19750646D02*
X8971691Y-19798265D01*
X8971691Y-19798265D02*
X8781215Y-19798265D01*
X8781215Y-19798265D02*
X8685977Y-19845884D01*
X8685977Y-19845884D02*
X8638358Y-19893503D01*
X8638358Y-19893503D02*
X8590739Y-19988741D01*
X8590739Y-19988741D02*
X8590739Y-20179217D01*
X8590739Y-20179217D02*
X8638358Y-20274455D01*
X8638358Y-20274455D02*
X8685977Y-20322075D01*
X8685977Y-20322075D02*
X8781215Y-20369694D01*
X8781215Y-20369694D02*
X8971691Y-20369694D01*
X8971691Y-20369694D02*
X9066929Y-20322075D01*
X9066929Y-20322075D02*
X9114548Y-20274455D01*
X9114548Y-20274455D02*
X9162167Y-20179217D01*
X9162167Y-20179217D02*
X9162167Y-19988741D01*
X9162167Y-19988741D02*
X9114548Y-19893503D01*
X9114548Y-19893503D02*
X9066929Y-19845884D01*
X9066929Y-19845884D02*
X8971691Y-19798265D01*
X9066929Y-14269694D02*
X8876453Y-14269694D01*
X8876453Y-14269694D02*
X8781215Y-14317313D01*
X8781215Y-14317313D02*
X8733596Y-14364932D01*
X8733596Y-14364932D02*
X8638358Y-14507789D01*
X8638358Y-14507789D02*
X8590739Y-14698265D01*
X8590739Y-14698265D02*
X8590739Y-15079217D01*
X8590739Y-15079217D02*
X8638358Y-15174455D01*
X8638358Y-15174455D02*
X8685977Y-15222075D01*
X8685977Y-15222075D02*
X8781215Y-15269694D01*
X8781215Y-15269694D02*
X8971691Y-15269694D01*
X8971691Y-15269694D02*
X9066929Y-15222075D01*
X9066929Y-15222075D02*
X9114548Y-15174455D01*
X9114548Y-15174455D02*
X9162167Y-15079217D01*
X9162167Y-15079217D02*
X9162167Y-14841122D01*
X9162167Y-14841122D02*
X9114548Y-14745884D01*
X9114548Y-14745884D02*
X9066929Y-14698265D01*
X9066929Y-14698265D02*
X8971691Y-14650646D01*
X8971691Y-14650646D02*
X8781215Y-14650646D01*
X8781215Y-14650646D02*
X8685977Y-14698265D01*
X8685977Y-14698265D02*
X8638358Y-14745884D01*
X8638358Y-14745884D02*
X8590739Y-14841122D01*
X34430305Y-4238358D02*
X35430305Y-4238358D01*
X34430305Y-4809786D02*
X35001734Y-4381215D01*
X35430305Y-4809786D02*
X34858877Y-4238358D01*
X34954115Y-5238358D02*
X34954115Y-5571691D01*
X34430305Y-5714548D02*
X34430305Y-5238358D01*
X34430305Y-5238358D02*
X35430305Y-5238358D01*
X35430305Y-5238358D02*
X35430305Y-5714548D01*
X34430305Y-6143120D02*
X35430305Y-6143120D01*
X35430305Y-6143120D02*
X34716020Y-6476453D01*
X34716020Y-6476453D02*
X35430305Y-6809786D01*
X35430305Y-6809786D02*
X34430305Y-6809786D01*
X34954115Y-8047882D02*
X34954115Y-8381215D01*
X34430305Y-8524072D02*
X34430305Y-8047882D01*
X34430305Y-8047882D02*
X35430305Y-8047882D01*
X35430305Y-8047882D02*
X35430305Y-8524072D01*
X34430305Y-9428834D02*
X34430305Y-8952644D01*
X34430305Y-8952644D02*
X35430305Y-8952644D01*
X34430305Y-10333596D02*
X34906496Y-10000263D01*
X34430305Y-9762168D02*
X35430305Y-9762168D01*
X35430305Y-9762168D02*
X35430305Y-10143120D01*
X35430305Y-10143120D02*
X35382686Y-10238358D01*
X35382686Y-10238358D02*
X35335067Y-10285977D01*
X35335067Y-10285977D02*
X35239829Y-10333596D01*
X35239829Y-10333596D02*
X35096972Y-10333596D01*
X35096972Y-10333596D02*
X35001734Y-10285977D01*
X35001734Y-10285977D02*
X34954115Y-10238358D01*
X34954115Y-10238358D02*
X34906496Y-10143120D01*
X34906496Y-10143120D02*
X34906496Y-9762168D01*
X34477925Y-10714549D02*
X34430305Y-10857406D01*
X34430305Y-10857406D02*
X34430305Y-11095501D01*
X34430305Y-11095501D02*
X34477925Y-11190739D01*
X34477925Y-11190739D02*
X34525544Y-11238358D01*
X34525544Y-11238358D02*
X34620782Y-11285977D01*
X34620782Y-11285977D02*
X34716020Y-11285977D01*
X34716020Y-11285977D02*
X34811258Y-11238358D01*
X34811258Y-11238358D02*
X34858877Y-11190739D01*
X34858877Y-11190739D02*
X34906496Y-11095501D01*
X34906496Y-11095501D02*
X34954115Y-10905025D01*
X34954115Y-10905025D02*
X35001734Y-10809787D01*
X35001734Y-10809787D02*
X35049353Y-10762168D01*
X35049353Y-10762168D02*
X35144591Y-10714549D01*
X35144591Y-10714549D02*
X35239829Y-10714549D01*
X35239829Y-10714549D02*
X35335067Y-10762168D01*
X35335067Y-10762168D02*
X35382686Y-10809787D01*
X35382686Y-10809787D02*
X35430305Y-10905025D01*
X35430305Y-10905025D02*
X35430305Y-11143120D01*
X35430305Y-11143120D02*
X35382686Y-11285977D01*
X34811258Y-11714549D02*
X34811258Y-12476454D01*
X34430305Y-13428834D02*
X34430305Y-12952644D01*
X34430305Y-12952644D02*
X35430305Y-12952644D01*
X35430305Y-13619311D02*
X34430305Y-13952644D01*
X34430305Y-13952644D02*
X35430305Y-14285977D01*
X34477925Y-14571692D02*
X34430305Y-14714549D01*
X34430305Y-14714549D02*
X34430305Y-14952644D01*
X34430305Y-14952644D02*
X34477925Y-15047882D01*
X34477925Y-15047882D02*
X34525544Y-15095501D01*
X34525544Y-15095501D02*
X34620782Y-15143120D01*
X34620782Y-15143120D02*
X34716020Y-15143120D01*
X34716020Y-15143120D02*
X34811258Y-15095501D01*
X34811258Y-15095501D02*
X34858877Y-15047882D01*
X34858877Y-15047882D02*
X34906496Y-14952644D01*
X34906496Y-14952644D02*
X34954115Y-14762168D01*
X34954115Y-14762168D02*
X35001734Y-14666930D01*
X35001734Y-14666930D02*
X35049353Y-14619311D01*
X35049353Y-14619311D02*
X35144591Y-14571692D01*
X35144591Y-14571692D02*
X35239829Y-14571692D01*
X35239829Y-14571692D02*
X35335067Y-14619311D01*
X35335067Y-14619311D02*
X35382686Y-14666930D01*
X35382686Y-14666930D02*
X35430305Y-14762168D01*
X35430305Y-14762168D02*
X35430305Y-15000263D01*
X35430305Y-15000263D02*
X35382686Y-15143120D01*
X35430305Y-16190740D02*
X34430305Y-16524073D01*
X34430305Y-16524073D02*
X35430305Y-16857406D01*
X34430305Y-17714549D02*
X34430305Y-17143121D01*
X34430305Y-17428835D02*
X35430305Y-17428835D01*
X35430305Y-17428835D02*
X35287448Y-17333597D01*
X35287448Y-17333597D02*
X35192210Y-17238359D01*
X35192210Y-17238359D02*
X35144591Y-17143121D01*
X15243120Y-17369694D02*
X15862167Y-17369694D01*
X15862167Y-17369694D02*
X15528834Y-17750646D01*
X15528834Y-17750646D02*
X15671691Y-17750646D01*
X15671691Y-17750646D02*
X15766929Y-17798265D01*
X15766929Y-17798265D02*
X15814548Y-17845884D01*
X15814548Y-17845884D02*
X15862167Y-17941122D01*
X15862167Y-17941122D02*
X15862167Y-18179217D01*
X15862167Y-18179217D02*
X15814548Y-18274455D01*
X15814548Y-18274455D02*
X15766929Y-18322075D01*
X15766929Y-18322075D02*
X15671691Y-18369694D01*
X15671691Y-18369694D02*
X15385977Y-18369694D01*
X15385977Y-18369694D02*
X15290739Y-18322075D01*
X15290739Y-18322075D02*
X15243120Y-18274455D01*
X16147882Y-17369694D02*
X16481215Y-18369694D01*
X16481215Y-18369694D02*
X16814548Y-17369694D01*
X8590739Y-4264932D02*
X8638358Y-4217313D01*
X8638358Y-4217313D02*
X8733596Y-4169694D01*
X8733596Y-4169694D02*
X8971691Y-4169694D01*
X8971691Y-4169694D02*
X9066929Y-4217313D01*
X9066929Y-4217313D02*
X9114548Y-4264932D01*
X9114548Y-4264932D02*
X9162167Y-4360170D01*
X9162167Y-4360170D02*
X9162167Y-4455408D01*
X9162167Y-4455408D02*
X9114548Y-4598265D01*
X9114548Y-4598265D02*
X8543120Y-5169694D01*
X8543120Y-5169694D02*
X9162167Y-5169694D01*
X26345501Y-6859694D02*
X26916929Y-6859694D01*
X26631215Y-7859694D02*
X26631215Y-6859694D01*
X18138358Y-17888741D02*
X18900263Y-17888741D01*
X30872167Y-6917313D02*
X30776929Y-6869694D01*
X30776929Y-6869694D02*
X30634072Y-6869694D01*
X30634072Y-6869694D02*
X30491215Y-6917313D01*
X30491215Y-6917313D02*
X30395977Y-7012551D01*
X30395977Y-7012551D02*
X30348358Y-7107789D01*
X30348358Y-7107789D02*
X30300739Y-7298265D01*
X30300739Y-7298265D02*
X30300739Y-7441122D01*
X30300739Y-7441122D02*
X30348358Y-7631598D01*
X30348358Y-7631598D02*
X30395977Y-7726836D01*
X30395977Y-7726836D02*
X30491215Y-7822075D01*
X30491215Y-7822075D02*
X30634072Y-7869694D01*
X30634072Y-7869694D02*
X30729310Y-7869694D01*
X30729310Y-7869694D02*
X30872167Y-7822075D01*
X30872167Y-7822075D02*
X30919786Y-7774455D01*
X30919786Y-7774455D02*
X30919786Y-7441122D01*
X30919786Y-7441122D02*
X30729310Y-7441122D01*
X9162167Y-2569694D02*
X8590739Y-2569694D01*
X8876453Y-2569694D02*
X8876453Y-1569694D01*
X8876453Y-1569694D02*
X8781215Y-1712551D01*
X8781215Y-1712551D02*
X8685977Y-1807789D01*
X8685977Y-1807789D02*
X8590739Y-1855408D01*
X11148358Y-13165884D02*
X11481691Y-13165884D01*
X11624548Y-13689694D02*
X11148358Y-13689694D01*
X11148358Y-13689694D02*
X11148358Y-12689694D01*
X11148358Y-12689694D02*
X11624548Y-12689694D01*
X12053120Y-13689694D02*
X12053120Y-12689694D01*
X12053120Y-12689694D02*
X12624548Y-13689694D01*
X12624548Y-13689694D02*
X12624548Y-12689694D01*
X8543120Y-6669694D02*
X9162167Y-6669694D01*
X9162167Y-6669694D02*
X8828834Y-7050646D01*
X8828834Y-7050646D02*
X8971691Y-7050646D01*
X8971691Y-7050646D02*
X9066929Y-7098265D01*
X9066929Y-7098265D02*
X9114548Y-7145884D01*
X9114548Y-7145884D02*
X9162167Y-7241122D01*
X9162167Y-7241122D02*
X9162167Y-7479217D01*
X9162167Y-7479217D02*
X9114548Y-7574455D01*
X9114548Y-7574455D02*
X9066929Y-7622075D01*
X9066929Y-7622075D02*
X8971691Y-7669694D01*
X8971691Y-7669694D02*
X8685977Y-7669694D01*
X8685977Y-7669694D02*
X8590739Y-7622075D01*
X8590739Y-7622075D02*
X8543120Y-7574455D01*
X9909786Y-21269694D02*
X9576453Y-20793503D01*
X9338358Y-21269694D02*
X9338358Y-20269694D01*
X9338358Y-20269694D02*
X9719310Y-20269694D01*
X9719310Y-20269694D02*
X9814548Y-20317313D01*
X9814548Y-20317313D02*
X9862167Y-20364932D01*
X9862167Y-20364932D02*
X9909786Y-20460170D01*
X9909786Y-20460170D02*
X9909786Y-20603027D01*
X9909786Y-20603027D02*
X9862167Y-20698265D01*
X9862167Y-20698265D02*
X9814548Y-20745884D01*
X9814548Y-20745884D02*
X9719310Y-20793503D01*
X9719310Y-20793503D02*
X9338358Y-20793503D01*
X10862167Y-20317313D02*
X10766929Y-20269694D01*
X10766929Y-20269694D02*
X10624072Y-20269694D01*
X10624072Y-20269694D02*
X10481215Y-20317313D01*
X10481215Y-20317313D02*
X10385977Y-20412551D01*
X10385977Y-20412551D02*
X10338358Y-20507789D01*
X10338358Y-20507789D02*
X10290739Y-20698265D01*
X10290739Y-20698265D02*
X10290739Y-20841122D01*
X10290739Y-20841122D02*
X10338358Y-21031598D01*
X10338358Y-21031598D02*
X10385977Y-21126836D01*
X10385977Y-21126836D02*
X10481215Y-21222075D01*
X10481215Y-21222075D02*
X10624072Y-21269694D01*
X10624072Y-21269694D02*
X10719310Y-21269694D01*
X10719310Y-21269694D02*
X10862167Y-21222075D01*
X10862167Y-21222075D02*
X10909786Y-21174455D01*
X10909786Y-21174455D02*
X10909786Y-20841122D01*
X10909786Y-20841122D02*
X10719310Y-20841122D01*
X11671691Y-20745884D02*
X11814548Y-20793503D01*
X11814548Y-20793503D02*
X11862167Y-20841122D01*
X11862167Y-20841122D02*
X11909786Y-20936360D01*
X11909786Y-20936360D02*
X11909786Y-21079217D01*
X11909786Y-21079217D02*
X11862167Y-21174455D01*
X11862167Y-21174455D02*
X11814548Y-21222075D01*
X11814548Y-21222075D02*
X11719310Y-21269694D01*
X11719310Y-21269694D02*
X11338358Y-21269694D01*
X11338358Y-21269694D02*
X11338358Y-20269694D01*
X11338358Y-20269694D02*
X11671691Y-20269694D01*
X11671691Y-20269694D02*
X11766929Y-20317313D01*
X11766929Y-20317313D02*
X11814548Y-20364932D01*
X11814548Y-20364932D02*
X11862167Y-20460170D01*
X11862167Y-20460170D02*
X11862167Y-20555408D01*
X11862167Y-20555408D02*
X11814548Y-20650646D01*
X11814548Y-20650646D02*
X11766929Y-20698265D01*
X11766929Y-20698265D02*
X11671691Y-20745884D01*
X11671691Y-20745884D02*
X11338358Y-20745884D01*
X5238358Y-888741D02*
X6000263Y-888741D01*
X5619310Y-1269694D02*
X5619310Y-507789D01*
X8543120Y-16869694D02*
X9209786Y-16869694D01*
X9209786Y-16869694D02*
X8781215Y-17869694D01*
X10941691Y-14905884D02*
X11084548Y-14953503D01*
X11084548Y-14953503D02*
X11132167Y-15001122D01*
X11132167Y-15001122D02*
X11179786Y-15096360D01*
X11179786Y-15096360D02*
X11179786Y-15239217D01*
X11179786Y-15239217D02*
X11132167Y-15334455D01*
X11132167Y-15334455D02*
X11084548Y-15382075D01*
X11084548Y-15382075D02*
X10989310Y-15429694D01*
X10989310Y-15429694D02*
X10608358Y-15429694D01*
X10608358Y-15429694D02*
X10608358Y-14429694D01*
X10608358Y-14429694D02*
X10941691Y-14429694D01*
X10941691Y-14429694D02*
X11036929Y-14477313D01*
X11036929Y-14477313D02*
X11084548Y-14524932D01*
X11084548Y-14524932D02*
X11132167Y-14620170D01*
X11132167Y-14620170D02*
X11132167Y-14715408D01*
X11132167Y-14715408D02*
X11084548Y-14810646D01*
X11084548Y-14810646D02*
X11036929Y-14858265D01*
X11036929Y-14858265D02*
X10941691Y-14905884D01*
X10941691Y-14905884D02*
X10608358Y-14905884D01*
X11751215Y-15429694D02*
X11655977Y-15382075D01*
X11655977Y-15382075D02*
X11608358Y-15334455D01*
X11608358Y-15334455D02*
X11560739Y-15239217D01*
X11560739Y-15239217D02*
X11560739Y-14953503D01*
X11560739Y-14953503D02*
X11608358Y-14858265D01*
X11608358Y-14858265D02*
X11655977Y-14810646D01*
X11655977Y-14810646D02*
X11751215Y-14763027D01*
X11751215Y-14763027D02*
X11894072Y-14763027D01*
X11894072Y-14763027D02*
X11989310Y-14810646D01*
X11989310Y-14810646D02*
X12036929Y-14858265D01*
X12036929Y-14858265D02*
X12084548Y-14953503D01*
X12084548Y-14953503D02*
X12084548Y-15239217D01*
X12084548Y-15239217D02*
X12036929Y-15334455D01*
X12036929Y-15334455D02*
X11989310Y-15382075D01*
X11989310Y-15382075D02*
X11894072Y-15429694D01*
X11894072Y-15429694D02*
X11751215Y-15429694D01*
X12655977Y-15429694D02*
X12560739Y-15382075D01*
X12560739Y-15382075D02*
X12513120Y-15334455D01*
X12513120Y-15334455D02*
X12465501Y-15239217D01*
X12465501Y-15239217D02*
X12465501Y-14953503D01*
X12465501Y-14953503D02*
X12513120Y-14858265D01*
X12513120Y-14858265D02*
X12560739Y-14810646D01*
X12560739Y-14810646D02*
X12655977Y-14763027D01*
X12655977Y-14763027D02*
X12798834Y-14763027D01*
X12798834Y-14763027D02*
X12894072Y-14810646D01*
X12894072Y-14810646D02*
X12941691Y-14858265D01*
X12941691Y-14858265D02*
X12989310Y-14953503D01*
X12989310Y-14953503D02*
X12989310Y-15239217D01*
X12989310Y-15239217D02*
X12941691Y-15334455D01*
X12941691Y-15334455D02*
X12894072Y-15382075D01*
X12894072Y-15382075D02*
X12798834Y-15429694D01*
X12798834Y-15429694D02*
X12655977Y-15429694D01*
X13275025Y-14763027D02*
X13655977Y-14763027D01*
X13417882Y-14429694D02*
X13417882Y-15286836D01*
X13417882Y-15286836D02*
X13465501Y-15382075D01*
X13465501Y-15382075D02*
X13560739Y-15429694D01*
X13560739Y-15429694D02*
X13655977Y-15429694D01*
D11*
X32254819Y-20936666D02*
X32254819Y-21412856D01*
X32254819Y-21412856D02*
X31254819Y-21412856D01*
X32254819Y-20079523D02*
X32254819Y-20650951D01*
X32254819Y-20365237D02*
X31254819Y-20365237D01*
X31254819Y-20365237D02*
X31397676Y-20460475D01*
X31397676Y-20460475D02*
X31492914Y-20555713D01*
X31492914Y-20555713D02*
X31540533Y-20650951D01*
X17311905Y-1584819D02*
X17311905Y-584819D01*
X17311905Y-584819D02*
X17550000Y-584819D01*
X17550000Y-584819D02*
X17692857Y-632438D01*
X17692857Y-632438D02*
X17788095Y-727676D01*
X17788095Y-727676D02*
X17835714Y-822914D01*
X17835714Y-822914D02*
X17883333Y-1013390D01*
X17883333Y-1013390D02*
X17883333Y-1156247D01*
X17883333Y-1156247D02*
X17835714Y-1346723D01*
X17835714Y-1346723D02*
X17788095Y-1441961D01*
X17788095Y-1441961D02*
X17692857Y-1537200D01*
X17692857Y-1537200D02*
X17550000Y-1584819D01*
X17550000Y-1584819D02*
X17311905Y-1584819D01*
X18216667Y-584819D02*
X18835714Y-584819D01*
X18835714Y-584819D02*
X18502381Y-965771D01*
X18502381Y-965771D02*
X18645238Y-965771D01*
X18645238Y-965771D02*
X18740476Y-1013390D01*
X18740476Y-1013390D02*
X18788095Y-1061009D01*
X18788095Y-1061009D02*
X18835714Y-1156247D01*
X18835714Y-1156247D02*
X18835714Y-1394342D01*
X18835714Y-1394342D02*
X18788095Y-1489580D01*
X18788095Y-1489580D02*
X18740476Y-1537200D01*
X18740476Y-1537200D02*
X18645238Y-1584819D01*
X18645238Y-1584819D02*
X18359524Y-1584819D01*
X18359524Y-1584819D02*
X18264286Y-1537200D01*
X18264286Y-1537200D02*
X18216667Y-1489580D01*
X11773333Y-1149580D02*
X11725714Y-1197200D01*
X11725714Y-1197200D02*
X11582857Y-1244819D01*
X11582857Y-1244819D02*
X11487619Y-1244819D01*
X11487619Y-1244819D02*
X11344762Y-1197200D01*
X11344762Y-1197200D02*
X11249524Y-1101961D01*
X11249524Y-1101961D02*
X11201905Y-1006723D01*
X11201905Y-1006723D02*
X11154286Y-816247D01*
X11154286Y-816247D02*
X11154286Y-673390D01*
X11154286Y-673390D02*
X11201905Y-482914D01*
X11201905Y-482914D02*
X11249524Y-387676D01*
X11249524Y-387676D02*
X11344762Y-292438D01*
X11344762Y-292438D02*
X11487619Y-244819D01*
X11487619Y-244819D02*
X11582857Y-244819D01*
X11582857Y-244819D02*
X11725714Y-292438D01*
X11725714Y-292438D02*
X11773333Y-340057D01*
X12154286Y-340057D02*
X12201905Y-292438D01*
X12201905Y-292438D02*
X12297143Y-244819D01*
X12297143Y-244819D02*
X12535238Y-244819D01*
X12535238Y-244819D02*
X12630476Y-292438D01*
X12630476Y-292438D02*
X12678095Y-340057D01*
X12678095Y-340057D02*
X12725714Y-435295D01*
X12725714Y-435295D02*
X12725714Y-530533D01*
X12725714Y-530533D02*
X12678095Y-673390D01*
X12678095Y-673390D02*
X12106667Y-1244819D01*
X12106667Y-1244819D02*
X12725714Y-1244819D01*
X13391009Y-9453333D02*
X13391009Y-9786666D01*
X13914819Y-9786666D02*
X12914819Y-9786666D01*
X12914819Y-9786666D02*
X12914819Y-9310476D01*
X13914819Y-8405714D02*
X13914819Y-8977142D01*
X13914819Y-8691428D02*
X12914819Y-8691428D01*
X12914819Y-8691428D02*
X13057676Y-8786666D01*
X13057676Y-8786666D02*
X13152914Y-8881904D01*
X13152914Y-8881904D02*
X13200533Y-8977142D01*
X9281905Y-1234819D02*
X9281905Y-234819D01*
X9281905Y-234819D02*
X9520000Y-234819D01*
X9520000Y-234819D02*
X9662857Y-282438D01*
X9662857Y-282438D02*
X9758095Y-377676D01*
X9758095Y-377676D02*
X9805714Y-472914D01*
X9805714Y-472914D02*
X9853333Y-663390D01*
X9853333Y-663390D02*
X9853333Y-806247D01*
X9853333Y-806247D02*
X9805714Y-996723D01*
X9805714Y-996723D02*
X9758095Y-1091961D01*
X9758095Y-1091961D02*
X9662857Y-1187200D01*
X9662857Y-1187200D02*
X9520000Y-1234819D01*
X9520000Y-1234819D02*
X9281905Y-1234819D01*
X10805714Y-1234819D02*
X10234286Y-1234819D01*
X10520000Y-1234819D02*
X10520000Y-234819D01*
X10520000Y-234819D02*
X10424762Y-377676D01*
X10424762Y-377676D02*
X10329524Y-472914D01*
X10329524Y-472914D02*
X10234286Y-520533D01*
X30990476Y-8154819D02*
X30990476Y-8869104D01*
X30990476Y-8869104D02*
X30942857Y-9011961D01*
X30942857Y-9011961D02*
X30847619Y-9107200D01*
X30847619Y-9107200D02*
X30704762Y-9154819D01*
X30704762Y-9154819D02*
X30609524Y-9154819D01*
X31990476Y-9154819D02*
X31419048Y-9154819D01*
X31704762Y-9154819D02*
X31704762Y-8154819D01*
X31704762Y-8154819D02*
X31609524Y-8297676D01*
X31609524Y-8297676D02*
X31514286Y-8392914D01*
X31514286Y-8392914D02*
X31419048Y-8440533D01*
X32323810Y-8154819D02*
X32942857Y-8154819D01*
X32942857Y-8154819D02*
X32609524Y-8535771D01*
X32609524Y-8535771D02*
X32752381Y-8535771D01*
X32752381Y-8535771D02*
X32847619Y-8583390D01*
X32847619Y-8583390D02*
X32895238Y-8631009D01*
X32895238Y-8631009D02*
X32942857Y-8726247D01*
X32942857Y-8726247D02*
X32942857Y-8964342D01*
X32942857Y-8964342D02*
X32895238Y-9059580D01*
X32895238Y-9059580D02*
X32847619Y-9107200D01*
X32847619Y-9107200D02*
X32752381Y-9154819D01*
X32752381Y-9154819D02*
X32466667Y-9154819D01*
X32466667Y-9154819D02*
X32371429Y-9107200D01*
X32371429Y-9107200D02*
X32323810Y-9059580D01*
X13898095Y-7214819D02*
X13898095Y-8024342D01*
X13898095Y-8024342D02*
X13945714Y-8119580D01*
X13945714Y-8119580D02*
X13993333Y-8167200D01*
X13993333Y-8167200D02*
X14088571Y-8214819D01*
X14088571Y-8214819D02*
X14279047Y-8214819D01*
X14279047Y-8214819D02*
X14374285Y-8167200D01*
X14374285Y-8167200D02*
X14421904Y-8119580D01*
X14421904Y-8119580D02*
X14469523Y-8024342D01*
X14469523Y-8024342D02*
X14469523Y-7214819D01*
X14850476Y-7214819D02*
X15469523Y-7214819D01*
X15469523Y-7214819D02*
X15136190Y-7595771D01*
X15136190Y-7595771D02*
X15279047Y-7595771D01*
X15279047Y-7595771D02*
X15374285Y-7643390D01*
X15374285Y-7643390D02*
X15421904Y-7691009D01*
X15421904Y-7691009D02*
X15469523Y-7786247D01*
X15469523Y-7786247D02*
X15469523Y-8024342D01*
X15469523Y-8024342D02*
X15421904Y-8119580D01*
X15421904Y-8119580D02*
X15374285Y-8167200D01*
X15374285Y-8167200D02*
X15279047Y-8214819D01*
X15279047Y-8214819D02*
X14993333Y-8214819D01*
X14993333Y-8214819D02*
X14898095Y-8167200D01*
X14898095Y-8167200D02*
X14850476Y-8119580D01*
X24375834Y-15729580D02*
X24328215Y-15777200D01*
X24328215Y-15777200D02*
X24185358Y-15824819D01*
X24185358Y-15824819D02*
X24090120Y-15824819D01*
X24090120Y-15824819D02*
X23947263Y-15777200D01*
X23947263Y-15777200D02*
X23852025Y-15681961D01*
X23852025Y-15681961D02*
X23804406Y-15586723D01*
X23804406Y-15586723D02*
X23756787Y-15396247D01*
X23756787Y-15396247D02*
X23756787Y-15253390D01*
X23756787Y-15253390D02*
X23804406Y-15062914D01*
X23804406Y-15062914D02*
X23852025Y-14967676D01*
X23852025Y-14967676D02*
X23947263Y-14872438D01*
X23947263Y-14872438D02*
X24090120Y-14824819D01*
X24090120Y-14824819D02*
X24185358Y-14824819D01*
X24185358Y-14824819D02*
X24328215Y-14872438D01*
X24328215Y-14872438D02*
X24375834Y-14920057D01*
X24852025Y-15824819D02*
X25042501Y-15824819D01*
X25042501Y-15824819D02*
X25137739Y-15777200D01*
X25137739Y-15777200D02*
X25185358Y-15729580D01*
X25185358Y-15729580D02*
X25280596Y-15586723D01*
X25280596Y-15586723D02*
X25328215Y-15396247D01*
X25328215Y-15396247D02*
X25328215Y-15015295D01*
X25328215Y-15015295D02*
X25280596Y-14920057D01*
X25280596Y-14920057D02*
X25232977Y-14872438D01*
X25232977Y-14872438D02*
X25137739Y-14824819D01*
X25137739Y-14824819D02*
X24947263Y-14824819D01*
X24947263Y-14824819D02*
X24852025Y-14872438D01*
X24852025Y-14872438D02*
X24804406Y-14920057D01*
X24804406Y-14920057D02*
X24756787Y-15015295D01*
X24756787Y-15015295D02*
X24756787Y-15253390D01*
X24756787Y-15253390D02*
X24804406Y-15348628D01*
X24804406Y-15348628D02*
X24852025Y-15396247D01*
X24852025Y-15396247D02*
X24947263Y-15443866D01*
X24947263Y-15443866D02*
X25137739Y-15443866D01*
X25137739Y-15443866D02*
X25232977Y-15396247D01*
X25232977Y-15396247D02*
X25280596Y-15348628D01*
X25280596Y-15348628D02*
X25328215Y-15253390D01*
X25854819Y-13268094D02*
X24854819Y-13268094D01*
X24854819Y-13268094D02*
X24854819Y-13029999D01*
X24854819Y-13029999D02*
X24902438Y-12887142D01*
X24902438Y-12887142D02*
X24997676Y-12791904D01*
X24997676Y-12791904D02*
X25092914Y-12744285D01*
X25092914Y-12744285D02*
X25283390Y-12696666D01*
X25283390Y-12696666D02*
X25426247Y-12696666D01*
X25426247Y-12696666D02*
X25616723Y-12744285D01*
X25616723Y-12744285D02*
X25711961Y-12791904D01*
X25711961Y-12791904D02*
X25807200Y-12887142D01*
X25807200Y-12887142D02*
X25854819Y-13029999D01*
X25854819Y-13029999D02*
X25854819Y-13268094D01*
X24950057Y-12315713D02*
X24902438Y-12268094D01*
X24902438Y-12268094D02*
X24854819Y-12172856D01*
X24854819Y-12172856D02*
X24854819Y-11934761D01*
X24854819Y-11934761D02*
X24902438Y-11839523D01*
X24902438Y-11839523D02*
X24950057Y-11791904D01*
X24950057Y-11791904D02*
X25045295Y-11744285D01*
X25045295Y-11744285D02*
X25140533Y-11744285D01*
X25140533Y-11744285D02*
X25283390Y-11791904D01*
X25283390Y-11791904D02*
X25854819Y-12363332D01*
X25854819Y-12363332D02*
X25854819Y-11744285D01*
X19576666Y-584819D02*
X19576666Y-1299104D01*
X19576666Y-1299104D02*
X19529047Y-1441961D01*
X19529047Y-1441961D02*
X19433809Y-1537200D01*
X19433809Y-1537200D02*
X19290952Y-1584819D01*
X19290952Y-1584819D02*
X19195714Y-1584819D01*
X20100476Y-1584819D02*
X20290952Y-1584819D01*
X20290952Y-1584819D02*
X20386190Y-1537200D01*
X20386190Y-1537200D02*
X20433809Y-1489580D01*
X20433809Y-1489580D02*
X20529047Y-1346723D01*
X20529047Y-1346723D02*
X20576666Y-1156247D01*
X20576666Y-1156247D02*
X20576666Y-775295D01*
X20576666Y-775295D02*
X20529047Y-680057D01*
X20529047Y-680057D02*
X20481428Y-632438D01*
X20481428Y-632438D02*
X20386190Y-584819D01*
X20386190Y-584819D02*
X20195714Y-584819D01*
X20195714Y-584819D02*
X20100476Y-632438D01*
X20100476Y-632438D02*
X20052857Y-680057D01*
X20052857Y-680057D02*
X20005238Y-775295D01*
X20005238Y-775295D02*
X20005238Y-1013390D01*
X20005238Y-1013390D02*
X20052857Y-1108628D01*
X20052857Y-1108628D02*
X20100476Y-1156247D01*
X20100476Y-1156247D02*
X20195714Y-1203866D01*
X20195714Y-1203866D02*
X20386190Y-1203866D01*
X20386190Y-1203866D02*
X20481428Y-1156247D01*
X20481428Y-1156247D02*
X20529047Y-1108628D01*
X20529047Y-1108628D02*
X20576666Y-1013390D01*
X15133333Y-1249580D02*
X15085714Y-1297200D01*
X15085714Y-1297200D02*
X14942857Y-1344819D01*
X14942857Y-1344819D02*
X14847619Y-1344819D01*
X14847619Y-1344819D02*
X14704762Y-1297200D01*
X14704762Y-1297200D02*
X14609524Y-1201961D01*
X14609524Y-1201961D02*
X14561905Y-1106723D01*
X14561905Y-1106723D02*
X14514286Y-916247D01*
X14514286Y-916247D02*
X14514286Y-773390D01*
X14514286Y-773390D02*
X14561905Y-582914D01*
X14561905Y-582914D02*
X14609524Y-487676D01*
X14609524Y-487676D02*
X14704762Y-392438D01*
X14704762Y-392438D02*
X14847619Y-344819D01*
X14847619Y-344819D02*
X14942857Y-344819D01*
X14942857Y-344819D02*
X15085714Y-392438D01*
X15085714Y-392438D02*
X15133333Y-440057D01*
X15990476Y-344819D02*
X15800000Y-344819D01*
X15800000Y-344819D02*
X15704762Y-392438D01*
X15704762Y-392438D02*
X15657143Y-440057D01*
X15657143Y-440057D02*
X15561905Y-582914D01*
X15561905Y-582914D02*
X15514286Y-773390D01*
X15514286Y-773390D02*
X15514286Y-1154342D01*
X15514286Y-1154342D02*
X15561905Y-1249580D01*
X15561905Y-1249580D02*
X15609524Y-1297200D01*
X15609524Y-1297200D02*
X15704762Y-1344819D01*
X15704762Y-1344819D02*
X15895238Y-1344819D01*
X15895238Y-1344819D02*
X15990476Y-1297200D01*
X15990476Y-1297200D02*
X16038095Y-1249580D01*
X16038095Y-1249580D02*
X16085714Y-1154342D01*
X16085714Y-1154342D02*
X16085714Y-916247D01*
X16085714Y-916247D02*
X16038095Y-821009D01*
X16038095Y-821009D02*
X15990476Y-773390D01*
X15990476Y-773390D02*
X15895238Y-725771D01*
X15895238Y-725771D02*
X15704762Y-725771D01*
X15704762Y-725771D02*
X15609524Y-773390D01*
X15609524Y-773390D02*
X15561905Y-821009D01*
X15561905Y-821009D02*
X15514286Y-916247D01*
X29359580Y-21042857D02*
X29407200Y-21090476D01*
X29407200Y-21090476D02*
X29454819Y-21233333D01*
X29454819Y-21233333D02*
X29454819Y-21328571D01*
X29454819Y-21328571D02*
X29407200Y-21471428D01*
X29407200Y-21471428D02*
X29311961Y-21566666D01*
X29311961Y-21566666D02*
X29216723Y-21614285D01*
X29216723Y-21614285D02*
X29026247Y-21661904D01*
X29026247Y-21661904D02*
X28883390Y-21661904D01*
X28883390Y-21661904D02*
X28692914Y-21614285D01*
X28692914Y-21614285D02*
X28597676Y-21566666D01*
X28597676Y-21566666D02*
X28502438Y-21471428D01*
X28502438Y-21471428D02*
X28454819Y-21328571D01*
X28454819Y-21328571D02*
X28454819Y-21233333D01*
X28454819Y-21233333D02*
X28502438Y-21090476D01*
X28502438Y-21090476D02*
X28550057Y-21042857D01*
X29454819Y-20090476D02*
X29454819Y-20661904D01*
X29454819Y-20376190D02*
X28454819Y-20376190D01*
X28454819Y-20376190D02*
X28597676Y-20471428D01*
X28597676Y-20471428D02*
X28692914Y-20566666D01*
X28692914Y-20566666D02*
X28740533Y-20661904D01*
X28454819Y-19757142D02*
X28454819Y-19138095D01*
X28454819Y-19138095D02*
X28835771Y-19471428D01*
X28835771Y-19471428D02*
X28835771Y-19328571D01*
X28835771Y-19328571D02*
X28883390Y-19233333D01*
X28883390Y-19233333D02*
X28931009Y-19185714D01*
X28931009Y-19185714D02*
X29026247Y-19138095D01*
X29026247Y-19138095D02*
X29264342Y-19138095D01*
X29264342Y-19138095D02*
X29359580Y-19185714D01*
X29359580Y-19185714D02*
X29407200Y-19233333D01*
X29407200Y-19233333D02*
X29454819Y-19328571D01*
X29454819Y-19328571D02*
X29454819Y-19614285D01*
X29454819Y-19614285D02*
X29407200Y-19709523D01*
X29407200Y-19709523D02*
X29359580Y-19757142D01*
X31750476Y-5954819D02*
X31750476Y-6669104D01*
X31750476Y-6669104D02*
X31702857Y-6811961D01*
X31702857Y-6811961D02*
X31607619Y-6907200D01*
X31607619Y-6907200D02*
X31464762Y-6954819D01*
X31464762Y-6954819D02*
X31369524Y-6954819D01*
X32750476Y-6954819D02*
X32179048Y-6954819D01*
X32464762Y-6954819D02*
X32464762Y-5954819D01*
X32464762Y-5954819D02*
X32369524Y-6097676D01*
X32369524Y-6097676D02*
X32274286Y-6192914D01*
X32274286Y-6192914D02*
X32179048Y-6240533D01*
X33369524Y-5954819D02*
X33464762Y-5954819D01*
X33464762Y-5954819D02*
X33560000Y-6002438D01*
X33560000Y-6002438D02*
X33607619Y-6050057D01*
X33607619Y-6050057D02*
X33655238Y-6145295D01*
X33655238Y-6145295D02*
X33702857Y-6335771D01*
X33702857Y-6335771D02*
X33702857Y-6573866D01*
X33702857Y-6573866D02*
X33655238Y-6764342D01*
X33655238Y-6764342D02*
X33607619Y-6859580D01*
X33607619Y-6859580D02*
X33560000Y-6907200D01*
X33560000Y-6907200D02*
X33464762Y-6954819D01*
X33464762Y-6954819D02*
X33369524Y-6954819D01*
X33369524Y-6954819D02*
X33274286Y-6907200D01*
X33274286Y-6907200D02*
X33226667Y-6859580D01*
X33226667Y-6859580D02*
X33179048Y-6764342D01*
X33179048Y-6764342D02*
X33131429Y-6573866D01*
X33131429Y-6573866D02*
X33131429Y-6335771D01*
X33131429Y-6335771D02*
X33179048Y-6145295D01*
X33179048Y-6145295D02*
X33226667Y-6050057D01*
X33226667Y-6050057D02*
X33274286Y-6002438D01*
X33274286Y-6002438D02*
X33369524Y-5954819D01*
X22131127Y-18876190D02*
X22607318Y-18876190D01*
X21607318Y-19209523D02*
X22131127Y-18876190D01*
X22131127Y-18876190D02*
X21607318Y-18542857D01*
X22607318Y-17685714D02*
X22607318Y-18257142D01*
X22607318Y-17971428D02*
X21607318Y-17971428D01*
X21607318Y-17971428D02*
X21750175Y-18066666D01*
X21750175Y-18066666D02*
X21845413Y-18161904D01*
X21845413Y-18161904D02*
X21893032Y-18257142D01*
X20620476Y-19564819D02*
X20620476Y-20279104D01*
X20620476Y-20279104D02*
X20572857Y-20421961D01*
X20572857Y-20421961D02*
X20477619Y-20517200D01*
X20477619Y-20517200D02*
X20334762Y-20564819D01*
X20334762Y-20564819D02*
X20239524Y-20564819D01*
X21620476Y-20564819D02*
X21049048Y-20564819D01*
X21334762Y-20564819D02*
X21334762Y-19564819D01*
X21334762Y-19564819D02*
X21239524Y-19707676D01*
X21239524Y-19707676D02*
X21144286Y-19802914D01*
X21144286Y-19802914D02*
X21049048Y-19850533D01*
X22572857Y-20564819D02*
X22001429Y-20564819D01*
X22287143Y-20564819D02*
X22287143Y-19564819D01*
X22287143Y-19564819D02*
X22191905Y-19707676D01*
X22191905Y-19707676D02*
X22096667Y-19802914D01*
X22096667Y-19802914D02*
X22001429Y-19850533D01*
X31394819Y-12472857D02*
X30918628Y-12806190D01*
X31394819Y-13044285D02*
X30394819Y-13044285D01*
X30394819Y-13044285D02*
X30394819Y-12663333D01*
X30394819Y-12663333D02*
X30442438Y-12568095D01*
X30442438Y-12568095D02*
X30490057Y-12520476D01*
X30490057Y-12520476D02*
X30585295Y-12472857D01*
X30585295Y-12472857D02*
X30728152Y-12472857D01*
X30728152Y-12472857D02*
X30823390Y-12520476D01*
X30823390Y-12520476D02*
X30871009Y-12568095D01*
X30871009Y-12568095D02*
X30918628Y-12663333D01*
X30918628Y-12663333D02*
X30918628Y-13044285D01*
X31394819Y-11520476D02*
X31394819Y-12091904D01*
X31394819Y-11806190D02*
X30394819Y-11806190D01*
X30394819Y-11806190D02*
X30537676Y-11901428D01*
X30537676Y-11901428D02*
X30632914Y-11996666D01*
X30632914Y-11996666D02*
X30680533Y-12091904D01*
X30394819Y-10901428D02*
X30394819Y-10806190D01*
X30394819Y-10806190D02*
X30442438Y-10710952D01*
X30442438Y-10710952D02*
X30490057Y-10663333D01*
X30490057Y-10663333D02*
X30585295Y-10615714D01*
X30585295Y-10615714D02*
X30775771Y-10568095D01*
X30775771Y-10568095D02*
X31013866Y-10568095D01*
X31013866Y-10568095D02*
X31204342Y-10615714D01*
X31204342Y-10615714D02*
X31299580Y-10663333D01*
X31299580Y-10663333D02*
X31347200Y-10710952D01*
X31347200Y-10710952D02*
X31394819Y-10806190D01*
X31394819Y-10806190D02*
X31394819Y-10901428D01*
X31394819Y-10901428D02*
X31347200Y-10996666D01*
X31347200Y-10996666D02*
X31299580Y-11044285D01*
X31299580Y-11044285D02*
X31204342Y-11091904D01*
X31204342Y-11091904D02*
X31013866Y-11139523D01*
X31013866Y-11139523D02*
X30775771Y-11139523D01*
X30775771Y-11139523D02*
X30585295Y-11091904D01*
X30585295Y-11091904D02*
X30490057Y-11044285D01*
X30490057Y-11044285D02*
X30442438Y-10996666D01*
X30442438Y-10996666D02*
X30394819Y-10901428D01*
X22378095Y-7054819D02*
X22378095Y-7864342D01*
X22378095Y-7864342D02*
X22425714Y-7959580D01*
X22425714Y-7959580D02*
X22473333Y-8007200D01*
X22473333Y-8007200D02*
X22568571Y-8054819D01*
X22568571Y-8054819D02*
X22759047Y-8054819D01*
X22759047Y-8054819D02*
X22854285Y-8007200D01*
X22854285Y-8007200D02*
X22901904Y-7959580D01*
X22901904Y-7959580D02*
X22949523Y-7864342D01*
X22949523Y-7864342D02*
X22949523Y-7054819D01*
X23949523Y-8054819D02*
X23378095Y-8054819D01*
X23663809Y-8054819D02*
X23663809Y-7054819D01*
X23663809Y-7054819D02*
X23568571Y-7197676D01*
X23568571Y-7197676D02*
X23473333Y-7292914D01*
X23473333Y-7292914D02*
X23378095Y-7340533D01*
X32204819Y-11789524D02*
X32919104Y-11789524D01*
X32919104Y-11789524D02*
X33061961Y-11837143D01*
X33061961Y-11837143D02*
X33157200Y-11932381D01*
X33157200Y-11932381D02*
X33204819Y-12075238D01*
X33204819Y-12075238D02*
X33204819Y-12170476D01*
X33204819Y-10789524D02*
X33204819Y-11360952D01*
X33204819Y-11075238D02*
X32204819Y-11075238D01*
X32204819Y-11075238D02*
X32347676Y-11170476D01*
X32347676Y-11170476D02*
X32442914Y-11265714D01*
X32442914Y-11265714D02*
X32490533Y-11360952D01*
X32300057Y-10408571D02*
X32252438Y-10360952D01*
X32252438Y-10360952D02*
X32204819Y-10265714D01*
X32204819Y-10265714D02*
X32204819Y-10027619D01*
X32204819Y-10027619D02*
X32252438Y-9932381D01*
X32252438Y-9932381D02*
X32300057Y-9884762D01*
X32300057Y-9884762D02*
X32395295Y-9837143D01*
X32395295Y-9837143D02*
X32490533Y-9837143D01*
X32490533Y-9837143D02*
X32633390Y-9884762D01*
X32633390Y-9884762D02*
X33204819Y-10456190D01*
X33204819Y-10456190D02*
X33204819Y-9837143D01*
X31338095Y-13964819D02*
X31338095Y-14774342D01*
X31338095Y-14774342D02*
X31385714Y-14869580D01*
X31385714Y-14869580D02*
X31433333Y-14917200D01*
X31433333Y-14917200D02*
X31528571Y-14964819D01*
X31528571Y-14964819D02*
X31719047Y-14964819D01*
X31719047Y-14964819D02*
X31814285Y-14917200D01*
X31814285Y-14917200D02*
X31861904Y-14869580D01*
X31861904Y-14869580D02*
X31909523Y-14774342D01*
X31909523Y-14774342D02*
X31909523Y-13964819D01*
X32338095Y-14060057D02*
X32385714Y-14012438D01*
X32385714Y-14012438D02*
X32480952Y-13964819D01*
X32480952Y-13964819D02*
X32719047Y-13964819D01*
X32719047Y-13964819D02*
X32814285Y-14012438D01*
X32814285Y-14012438D02*
X32861904Y-14060057D01*
X32861904Y-14060057D02*
X32909523Y-14155295D01*
X32909523Y-14155295D02*
X32909523Y-14250533D01*
X32909523Y-14250533D02*
X32861904Y-14393390D01*
X32861904Y-14393390D02*
X32290476Y-14964819D01*
X32290476Y-14964819D02*
X32909523Y-14964819D01*
D12*
%TO.C,L1*%
X31240000Y-18749623D02*
X31240000Y-17950379D01*
X32360000Y-18749623D02*
X32360000Y-17950379D01*
%TO.C,D3*%
X17305000Y-2479999D02*
X17305000Y-4764999D01*
X17305000Y-4764999D02*
X18775000Y-4764999D01*
X18775000Y-4764999D02*
X18775000Y-2479999D01*
%TO.C,C2*%
X11225000Y-3351252D02*
X11225000Y-2828748D01*
X12695000Y-3351252D02*
X12695000Y-2828748D01*
%TO.C,F1*%
X9940000Y-8391252D02*
X9940000Y-6968748D01*
X12660000Y-8391252D02*
X12660000Y-6968748D01*
%TO.C,R3*%
X16450000Y-5833641D02*
X16450000Y-5526359D01*
X17210000Y-5833641D02*
X17210000Y-5526359D01*
D10*
%TO.C,D1*%
X10147000Y-5534300D02*
G75*
G02*
X9893000Y-5534300I-127000J0D01*
G01*
X9893000Y-5534300D02*
G75*
G02*
X10147000Y-5534300I127000J0D01*
G01*
D12*
%TO.C,U4*%
X27640000Y-13332836D02*
X27640000Y-13117164D01*
X28540000Y-13332836D02*
X28540000Y-13117164D01*
%TO.C,U3*%
D13*
X13138000Y-3430000D02*
G75*
G02*
X12863000Y-3430000I-137500J0D01*
G01*
X12863000Y-3430000D02*
G75*
G02*
X13138000Y-3430000I137500J0D01*
G01*
D12*
%TO.C,C9*%
X24434665Y-16170000D02*
X24650337Y-16170000D01*
X24434665Y-16890000D02*
X24650337Y-16890000D01*
%TO.C,R1*%
X19613641Y-5840000D02*
X19306359Y-5840000D01*
X19613641Y-6600000D02*
X19306359Y-6600000D01*
%TO.C,D2*%
X23730000Y-11440000D02*
X23730000Y-8780000D01*
X23730000Y-11440000D02*
X25430000Y-11440000D01*
X25430000Y-11440000D02*
X25430000Y-8780000D01*
D10*
%TO.C,SW2*%
X9600001Y-18752801D02*
X9600001Y-15848801D01*
X11200001Y-15848801D02*
X11200001Y-18752801D01*
D12*
%TO.C,C6*%
X15561252Y-1655000D02*
X15038748Y-1655000D01*
X15561252Y-3125000D02*
X15038748Y-3125000D01*
D10*
%TO.C,SW1*%
X10348000Y-10880000D02*
X13252000Y-10880000D01*
X13252000Y-12480000D02*
X10348000Y-12480000D01*
D12*
%TO.C,C13*%
X29750000Y-19632165D02*
X29750000Y-19847837D01*
X30470000Y-19632165D02*
X30470000Y-19847837D01*
%TO.C,J10*%
X24490000Y-4190000D02*
X24490000Y-5640000D01*
X24490000Y-5640000D02*
X26290000Y-5640000D01*
X31160000Y-5640000D02*
X31160000Y-6630000D01*
X31690000Y-1370000D02*
X25760000Y-1370000D01*
X32960000Y-4190000D02*
X32960000Y-5640000D01*
X32960000Y-5640000D02*
X31160000Y-5640000D01*
%TO.C,C1*%
X17640000Y-5887836D02*
X17640000Y-5672164D01*
X18360000Y-5887836D02*
X18360000Y-5672164D01*
%TO.C,Y1*%
X23002500Y-19750000D02*
X25302500Y-19750000D01*
X25302500Y-19750000D02*
X25302500Y-17050000D01*
%TO.C,J11*%
X12085000Y-21210000D02*
X12085000Y-19880000D01*
X13415000Y-21210000D02*
X12085000Y-21210000D01*
X14685000Y-18550000D02*
X19825000Y-18550000D01*
X14685000Y-21210000D02*
X14685000Y-18550000D01*
X14685000Y-21210000D02*
X19825000Y-21210000D01*
X19825000Y-21210000D02*
X19825000Y-18550000D01*
%TO.C,R10*%
X29270000Y-12793640D02*
X29270000Y-12486358D01*
X30030000Y-12793640D02*
X30030000Y-12486358D01*
%TO.C,U1*%
X15600000Y-8690000D02*
X16075000Y-8690000D01*
X15600000Y-9165000D02*
X15600000Y-8690000D01*
X15600000Y-15435000D02*
X15600000Y-15910000D01*
X15600000Y-15910000D02*
X16075000Y-15910000D01*
X22345000Y-8690000D02*
X22580000Y-8690000D01*
X22820000Y-9165000D02*
X22820000Y-8990000D01*
X22820000Y-15435000D02*
X22820000Y-15910000D01*
X22820000Y-15910000D02*
X22345000Y-15910000D01*
X23150000Y-8930000D02*
X22820000Y-8690000D01*
X23150000Y-8450000D01*
X23150000Y-8930000D01*
G36*
X23150000Y-8930000D02*
G01*
X22820000Y-8690000D01*
X23150000Y-8450000D01*
X23150000Y-8930000D01*
G37*
%TO.C,J12*%
X33840000Y-920000D02*
X33840000Y-2340000D01*
X33840000Y-2340000D02*
X38340000Y-2340000D01*
X33840000Y-19620000D02*
X38340000Y-19620000D01*
X33840000Y-21040000D02*
X33840000Y-19620000D01*
X35750000Y-18180000D02*
X36350000Y-18480000D01*
X35750000Y-18780000D02*
X35750000Y-18180000D01*
X36350000Y-18480000D02*
X35750000Y-18780000D01*
X39450000Y-3230000D02*
X39450000Y-3730000D01*
X39450000Y-3730000D02*
X44950000Y-3730000D01*
X39450000Y-5730000D02*
X39450000Y-6230000D01*
X39450000Y-6230000D02*
X44950000Y-6230000D01*
X39450000Y-8230000D02*
X39450000Y-8730000D01*
X39450000Y-8730000D02*
X44950000Y-8730000D01*
X39450000Y-10730000D02*
X39450000Y-11230000D01*
X39450000Y-11230000D02*
X44950000Y-11230000D01*
X39450000Y-13230000D02*
X39450000Y-13730000D01*
X39450000Y-13730000D02*
X44950000Y-13730000D01*
X39450000Y-15730000D02*
X39450000Y-16230000D01*
X39450000Y-16230000D02*
X44950000Y-16230000D01*
X39450000Y-18230000D02*
X39450000Y-18730000D01*
X39450000Y-18730000D02*
X44950000Y-18730000D01*
X44950000Y-3230000D02*
X39450000Y-3230000D01*
X44950000Y-3730000D02*
X44950000Y-3230000D01*
X44950000Y-5730000D02*
X39450000Y-5730000D01*
X44950000Y-6230000D02*
X44950000Y-5730000D01*
X44950000Y-8230000D02*
X39450000Y-8230000D01*
X44950000Y-8730000D02*
X44950000Y-8230000D01*
X44950000Y-10730000D02*
X39450000Y-10730000D01*
X44950000Y-11230000D02*
X44950000Y-10730000D01*
X44950000Y-13230000D02*
X39450000Y-13230000D01*
X44950000Y-13730000D02*
X44950000Y-13230000D01*
X44950000Y-15730000D02*
X39450000Y-15730000D01*
X44950000Y-16230000D02*
X44950000Y-15730000D01*
X44950000Y-18230000D02*
X39450000Y-18230000D01*
X44950000Y-18730000D02*
X44950000Y-18230000D01*
X45560000Y-920000D02*
X33840000Y-920000D01*
X45560000Y-10980000D02*
X45560000Y-920000D01*
X45560000Y-10980000D02*
X45560000Y-21040000D01*
X45560000Y-21040000D02*
X33840000Y-21040000D01*
%TO.C,U2*%
X26230000Y-14544999D02*
X26230000Y-14309999D01*
X26230000Y-18289999D02*
X26230000Y-17814999D01*
X26705000Y-14069999D02*
X26530000Y-14069999D01*
X26705000Y-18289999D02*
X26230000Y-18289999D01*
X29975000Y-14069999D02*
X30450000Y-14069999D01*
X29975000Y-18289999D02*
X30450000Y-18289999D01*
X30450000Y-14069999D02*
X30450000Y-14544999D01*
X30450000Y-18289999D02*
X30450000Y-17814999D01*
X26230000Y-14069999D02*
X25990000Y-13739999D01*
X26470000Y-13739999D01*
X26230000Y-14069999D01*
G36*
X26230000Y-14069999D02*
G01*
X25990000Y-13739999D01*
X26470000Y-13739999D01*
X26230000Y-14069999D01*
G37*
%TD*%
%LPC*%
%TO.C,J13*%
G36*
X27150000Y-10490038D02*
G01*
X29030000Y-10490038D01*
X29030000Y-8400038D01*
X27150000Y-8400038D01*
X27150000Y-10490038D01*
G37*
D14*
%TO.C,J9*%
G36*
X22400000Y-4935000D02*
G01*
X20520000Y-4935000D01*
X20520000Y-2845000D01*
X22400000Y-2845000D01*
X22400000Y-4935000D01*
G37*
%TD*%
D15*
%TO.C,L1*%
X31800000Y-19412501D03*
X31800000Y-17287501D03*
%TD*%
D16*
%TO.C,JP26*%
X23490000Y-12550000D03*
X24090000Y-12550000D03*
%TD*%
D17*
%TO.C,TP9*%
X25592501Y-16930000D03*
%TD*%
D18*
%TO.C,JP34*%
X17460000Y-8020000D03*
X17460000Y-7420000D03*
%TD*%
D19*
%TO.C,JP12*%
X14930000Y-14550000D03*
X14330000Y-14550000D03*
%TD*%
D20*
%TO.C,D3*%
X18040000Y-4067499D03*
X18040000Y-2492499D03*
%TD*%
D17*
%TO.C,TP13*%
X23450000Y-9550000D03*
%TD*%
D21*
%TO.C,C2*%
X11960000Y-4040000D03*
X11960000Y-2140000D03*
%TD*%
D17*
%TO.C,TP16*%
X27592500Y-18920000D03*
%TD*%
D16*
%TO.C,C23*%
X21460000Y-6640000D03*
X22060000Y-6640000D03*
%TD*%
D17*
%TO.C,TP4*%
X19460000Y-16540000D03*
%TD*%
D22*
%TO.C,F1*%
X11300000Y-9155000D03*
X11300000Y-6205000D03*
%TD*%
D23*
%TO.C,R3*%
X16830000Y-6190000D03*
X16830000Y-5170000D03*
%TD*%
D17*
%TO.C,TP15*%
X27092500Y-18920000D03*
%TD*%
D18*
%TO.C,JP35*%
X16960000Y-8020000D03*
X16960000Y-7420000D03*
%TD*%
D24*
%TO.C,JP4*%
X18460000Y-7420000D03*
X18460000Y-8020000D03*
%TD*%
D25*
%TO.C,D1*%
X10020000Y-4032700D03*
D26*
X10020000Y-2132700D03*
%TD*%
D19*
%TO.C,JP21*%
X14930000Y-13050000D03*
X14330000Y-13050000D03*
%TD*%
%TO.C,JP23*%
X14930000Y-13550001D03*
X14330000Y-13550001D03*
%TD*%
D27*
%TO.C,J13*%
X28090000Y-11025038D03*
D28*
X28090000Y-10995318D03*
D29*
X26615000Y-9500038D03*
X29565000Y-9500038D03*
D30*
X26569720Y-9475038D03*
X29610280Y-9475038D03*
X28090000Y-7954758D03*
%TD*%
D31*
%TO.C,J7*%
X7225000Y-17350000D03*
D32*
X4685000Y-17350000D03*
X2145000Y-17350000D03*
%TD*%
D19*
%TO.C,JP31*%
X14930000Y-11050001D03*
X14330000Y-11050001D03*
%TD*%
D24*
%TO.C,JP36*%
X16960000Y-16580000D03*
X16960000Y-17180000D03*
%TD*%
%TO.C,JP5*%
X17960001Y-7420000D03*
X17960001Y-8020000D03*
%TD*%
D17*
%TO.C,TP11*%
X23450000Y-11050000D03*
%TD*%
D33*
%TO.C,U4*%
X28090000Y-13400000D03*
D34*
X28440000Y-12800000D03*
D33*
X28090000Y-12200000D03*
D34*
X27740000Y-12800000D03*
%TD*%
D17*
%TO.C,TP12*%
X23450000Y-10050000D03*
%TD*%
D24*
%TO.C,JP19*%
X18460000Y-16580000D03*
X18460000Y-17180000D03*
%TD*%
D17*
%TO.C,TP8*%
X28592500Y-18919999D03*
%TD*%
D24*
%TO.C,JP24*%
X21460000Y-16580000D03*
X21460000Y-17180000D03*
%TD*%
D19*
%TO.C,JP16*%
X14930000Y-15050000D03*
X14330000Y-15050000D03*
%TD*%
%TO.C,JP20*%
X14930000Y-12049999D03*
X14330000Y-12049999D03*
%TD*%
D31*
%TO.C,J8*%
X7225000Y-19890000D03*
D32*
X4685000Y-19890000D03*
X2145000Y-19890000D03*
%TD*%
D35*
%TO.C,U3*%
X13571000Y-4042499D03*
D36*
X13571000Y-4679874D03*
X13571000Y-5180000D03*
X13571000Y-5680126D03*
D35*
X13571000Y-6317501D03*
X15730000Y-6317501D03*
D36*
X15730000Y-5680126D03*
X15730000Y-5180000D03*
X15730000Y-4679874D03*
D35*
X15730000Y-4042499D03*
D37*
X14650500Y-5180000D03*
%TD*%
D38*
%TO.C,C9*%
X24062501Y-16530000D03*
X25022501Y-16530000D03*
%TD*%
D39*
%TO.C,R1*%
X19970000Y-6220000D03*
X18950000Y-6220000D03*
%TD*%
D31*
%TO.C,J2*%
X7225000Y-4650000D03*
D32*
X4685000Y-4650000D03*
X2145000Y-4650000D03*
%TD*%
D18*
%TO.C,L2*%
X21460000Y-7620000D03*
X21460000Y-7020000D03*
%TD*%
D17*
%TO.C,TP20*%
X31082500Y-15930000D03*
%TD*%
D16*
%TO.C,JP15*%
X23490001Y-13550000D03*
X24090001Y-13550000D03*
%TD*%
D18*
%TO.C,JP32*%
X16459999Y-8020000D03*
X16459999Y-7420000D03*
%TD*%
D40*
%TO.C,D2*%
X24580000Y-10880000D03*
X24580000Y-8780000D03*
%TD*%
D27*
%TO.C,J9*%
X21460000Y-5470000D03*
D28*
X21460000Y-5440281D03*
D30*
X19939720Y-3920000D03*
D29*
X19985000Y-3944999D03*
X22935000Y-3944999D03*
D30*
X21460000Y-2399720D03*
X22980280Y-3920000D03*
%TD*%
D31*
%TO.C,J1*%
X7225000Y-2110000D03*
D32*
X4685000Y-2110000D03*
X2145000Y-2110000D03*
%TD*%
D24*
%TO.C,JP1*%
X19960000Y-7420000D03*
X19960000Y-8020000D03*
%TD*%
%TO.C,JP18*%
X17960000Y-16580001D03*
X17960000Y-17180001D03*
%TD*%
D16*
%TO.C,C22*%
X21460000Y-8000000D03*
X22060000Y-8000000D03*
%TD*%
D19*
%TO.C,JP33*%
X14930000Y-9549999D03*
X14330000Y-9549999D03*
%TD*%
D31*
%TO.C,J3*%
X7225000Y-7190000D03*
D32*
X4685000Y-7190000D03*
X2145000Y-7190000D03*
%TD*%
D17*
%TO.C,TP18*%
X31082500Y-14930000D03*
%TD*%
D31*
%TO.C,J4*%
X7225000Y-9730000D03*
D32*
X4685000Y-9730000D03*
X2145000Y-9730000D03*
%TD*%
D24*
%TO.C,JP3*%
X18960000Y-7420000D03*
X18960000Y-8020000D03*
%TD*%
D16*
%TO.C,JP25*%
X23490000Y-14550000D03*
X24090000Y-14550000D03*
%TD*%
D41*
%TO.C,SW2*%
X10800000Y-15980001D03*
X10000002Y-15980001D03*
X10800000Y-18621601D03*
X10000002Y-18621601D03*
%TD*%
D17*
%TO.C,TP6*%
X25592500Y-17430000D03*
%TD*%
D31*
%TO.C,J6*%
X7225000Y-14810000D03*
D32*
X4685000Y-14810000D03*
X2145000Y-14810000D03*
%TD*%
D42*
%TO.C,D4*%
X14000000Y-17380000D03*
X14000000Y-16280000D03*
X12200000Y-16280000D03*
X12200000Y-17380000D03*
%TD*%
D19*
%TO.C,JP14*%
X14930000Y-14050000D03*
X14330000Y-14050000D03*
%TD*%
D43*
%TO.C,C6*%
X16250000Y-2390000D03*
X14350000Y-2390000D03*
%TD*%
D17*
%TO.C,TP10*%
X23450000Y-11550000D03*
%TD*%
D18*
%TO.C,JP7*%
X17460000Y-17180000D03*
X17460000Y-16580000D03*
%TD*%
D44*
%TO.C,SW1*%
X13120800Y-12079999D03*
X13120800Y-11280001D03*
X10479200Y-12079999D03*
X10479200Y-11280001D03*
%TD*%
D24*
%TO.C,JP2*%
X19460000Y-7420000D03*
X19460000Y-8020000D03*
%TD*%
D17*
%TO.C,TP7*%
X28092500Y-18920000D03*
%TD*%
D16*
%TO.C,JP13*%
X23490000Y-13050000D03*
X24090000Y-13050000D03*
%TD*%
D17*
%TO.C,TP14*%
X25592500Y-15930000D03*
%TD*%
%TO.C,TP19*%
X31082499Y-15430000D03*
%TD*%
D45*
%TO.C,C13*%
X30110000Y-19260001D03*
X30110000Y-20220001D03*
%TD*%
D19*
%TO.C,JP22*%
X14930000Y-11550000D03*
X14330000Y-11550000D03*
%TD*%
D18*
%TO.C,JP8*%
X19960000Y-17180000D03*
X19960000Y-16580000D03*
%TD*%
D17*
%TO.C,TP5*%
X18960000Y-16540000D03*
%TD*%
D24*
%TO.C,JP28*%
X21960000Y-16580000D03*
X21960000Y-17180000D03*
%TD*%
%TO.C,JP17*%
X20960000Y-16580000D03*
X20960000Y-17180000D03*
%TD*%
D17*
%TO.C,TP3*%
X20460000Y-16540000D03*
%TD*%
D19*
%TO.C,JP29*%
X14930000Y-10050000D03*
X14330000Y-10050000D03*
%TD*%
D17*
%TO.C,TP2*%
X16460000Y-16540000D03*
%TD*%
D46*
%TO.C,J10*%
X30600000Y-5780000D03*
X29350000Y-5780000D03*
X28100000Y-5780000D03*
X26850000Y-5780000D03*
D47*
X32450000Y-2580000D03*
X25000000Y-2580000D03*
%TD*%
D48*
%TO.C,C1*%
X18000000Y-6260000D03*
X18000000Y-5300000D03*
%TD*%
D49*
%TO.C,Y1*%
X24702500Y-19100000D03*
X24702500Y-17700000D03*
X23602500Y-17700000D03*
X23602500Y-19100000D03*
%TD*%
D31*
%TO.C,J11*%
X13415000Y-19880000D03*
D32*
X15955000Y-19880000D03*
X18495000Y-19880000D03*
%TD*%
D23*
%TO.C,R10*%
X29650000Y-13149999D03*
X29650000Y-12129999D03*
%TD*%
D50*
%TO.C,U1*%
X21960000Y-8850000D03*
X21460000Y-8850000D03*
X20960000Y-8850000D03*
X20460000Y-8850000D03*
X19960000Y-8850000D03*
X19460000Y-8850000D03*
X18960000Y-8850000D03*
X18460000Y-8850000D03*
X17960000Y-8850000D03*
X17460000Y-8850000D03*
X16960000Y-8850000D03*
X16460000Y-8850000D03*
D51*
X15760000Y-9550000D03*
X15760000Y-10050000D03*
X15760000Y-10550000D03*
X15760000Y-11050000D03*
X15760000Y-11550000D03*
X15760000Y-12050000D03*
X15760000Y-12550000D03*
X15760000Y-13050000D03*
X15760000Y-13550000D03*
X15760000Y-14050000D03*
X15760000Y-14550000D03*
X15760000Y-15050000D03*
D50*
X16460000Y-15750000D03*
X16960000Y-15750000D03*
X17460000Y-15750000D03*
X17960000Y-15750000D03*
X18460000Y-15750000D03*
X18960000Y-15750000D03*
X19460000Y-15750000D03*
X19960000Y-15750000D03*
X20460000Y-15750000D03*
X20960000Y-15750000D03*
X21460000Y-15750000D03*
X21960000Y-15750000D03*
D51*
X22660000Y-15050000D03*
X22660000Y-14550000D03*
X22660000Y-14050000D03*
X22660000Y-13550000D03*
X22660000Y-13050000D03*
X22660000Y-12550000D03*
X22660000Y-12050000D03*
X22660000Y-11550000D03*
X22660000Y-11050000D03*
X22660000Y-10550000D03*
X22660000Y-10050000D03*
X22660000Y-9550000D03*
D52*
X19210000Y-12300000D03*
%TD*%
D53*
%TO.C,J12*%
X37850000Y-18480000D03*
D54*
X37850000Y-15980000D03*
X37850000Y-13480000D03*
X37850000Y-10980000D03*
X37850000Y-8480000D03*
X37850000Y-5980000D03*
X37850000Y-3480000D03*
%TD*%
D19*
%TO.C,JP30*%
X14930000Y-10550000D03*
X14330000Y-10550000D03*
%TD*%
D16*
%TO.C,JP27*%
X23490000Y-14050000D03*
X24090000Y-14050000D03*
%TD*%
D31*
%TO.C,J5*%
X7225000Y-12270000D03*
D32*
X4685000Y-12270000D03*
X2145000Y-12270000D03*
%TD*%
D55*
%TO.C,U2*%
X26402500Y-14929999D03*
X26402500Y-15429999D03*
X26402500Y-15929999D03*
X26402500Y-16429999D03*
X26402500Y-16929999D03*
X26402500Y-17429999D03*
D56*
X27090000Y-18117499D03*
X27590000Y-18117499D03*
X28090000Y-18117499D03*
X28590000Y-18117499D03*
X29090000Y-18117499D03*
X29590000Y-18117499D03*
D55*
X30277500Y-17429999D03*
X30277500Y-16929999D03*
X30277500Y-16429999D03*
X30277500Y-15929999D03*
X30277500Y-15429999D03*
X30277500Y-14929999D03*
D56*
X29590000Y-14242499D03*
X29090000Y-14242499D03*
X28590000Y-14242499D03*
X28090000Y-14242499D03*
X27590000Y-14242499D03*
X27090000Y-14242499D03*
D57*
X28340000Y-16179999D03*
%TD*%
%LPD*%
M02*
