%TF.GenerationSoftware,KiCad,Pcbnew,8.0.7-8.0.7-0~ubuntu22.04.1*%
%TF.CreationDate,2024-12-11T19:39:49-06:00*%
%TF.ProjectId,elrs-lvs,656c7273-2d6c-4767-932e-6b696361645f,1*%
%TF.SameCoordinates,Original*%
%TF.FileFunction,Copper,L4,Bot*%
%TF.FilePolarity,Positive*%
%FSLAX46Y46*%
G04 Gerber Fmt 4.6, Leading zero omitted, Abs format (unit mm)*
G04 Created by KiCad (PCBNEW 8.0.7-8.0.7-0~ubuntu22.04.1) date 2024-12-11 19:39:49*
%MOMM*%
%LPD*%
G01*
G04 APERTURE LIST*
G04 Aperture macros list*
%AMRoundRect*
0 Rectangle with rounded corners*
0 $1 Rounding radius*
0 $2 $3 $4 $5 $6 $7 $8 $9 X,Y pos of 4 corners*
0 Add a 4 corners polygon primitive as box body*
4,1,4,$2,$3,$4,$5,$6,$7,$8,$9,$2,$3,0*
0 Add four circle primitives for the rounded corners*
1,1,$1+$1,$2,$3*
1,1,$1+$1,$4,$5*
1,1,$1+$1,$6,$7*
1,1,$1+$1,$8,$9*
0 Add four rect primitives between the rounded corners*
20,1,$1+$1,$2,$3,$4,$5,0*
20,1,$1+$1,$4,$5,$6,$7,0*
20,1,$1+$1,$6,$7,$8,$9,0*
20,1,$1+$1,$8,$9,$2,$3,0*%
G04 Aperture macros list end*
%TA.AperFunction,ComponentPad*%
%ADD10R,1.700000X1.700000*%
%TD*%
%TA.AperFunction,ComponentPad*%
%ADD11O,1.700000X1.700000*%
%TD*%
%TA.AperFunction,ComponentPad*%
%ADD12RoundRect,0.250000X0.725000X-0.600000X0.725000X0.600000X-0.725000X0.600000X-0.725000X-0.600000X0*%
%TD*%
%TA.AperFunction,ComponentPad*%
%ADD13O,1.950000X1.700000*%
%TD*%
%TA.AperFunction,SMDPad,CuDef*%
%ADD14RoundRect,0.135000X-0.135000X-0.185000X0.135000X-0.185000X0.135000X0.185000X-0.135000X0.185000X0*%
%TD*%
%TA.AperFunction,SMDPad,CuDef*%
%ADD15RoundRect,0.140000X0.140000X0.170000X-0.140000X0.170000X-0.140000X-0.170000X0.140000X-0.170000X0*%
%TD*%
%TA.AperFunction,SMDPad,CuDef*%
%ADD16RoundRect,0.140000X0.170000X-0.140000X0.170000X0.140000X-0.170000X0.140000X-0.170000X-0.140000X0*%
%TD*%
%TA.AperFunction,SMDPad,CuDef*%
%ADD17RoundRect,0.135000X0.135000X0.185000X-0.135000X0.185000X-0.135000X-0.185000X0.135000X-0.185000X0*%
%TD*%
%TA.AperFunction,SMDPad,CuDef*%
%ADD18RoundRect,0.135000X0.185000X-0.135000X0.185000X0.135000X-0.185000X0.135000X-0.185000X-0.135000X0*%
%TD*%
%TA.AperFunction,SMDPad,CuDef*%
%ADD19RoundRect,0.135000X-0.185000X0.135000X-0.185000X-0.135000X0.185000X-0.135000X0.185000X0.135000X0*%
%TD*%
%TA.AperFunction,SMDPad,CuDef*%
%ADD20RoundRect,0.140000X-0.170000X0.140000X-0.170000X-0.140000X0.170000X-0.140000X0.170000X0.140000X0*%
%TD*%
%TA.AperFunction,SMDPad,CuDef*%
%ADD21RoundRect,0.075000X0.075000X0.075000X-0.075000X0.075000X-0.075000X-0.075000X0.075000X-0.075000X0*%
%TD*%
%TA.AperFunction,SMDPad,CuDef*%
%ADD22RoundRect,0.140000X-0.140000X-0.170000X0.140000X-0.170000X0.140000X0.170000X-0.140000X0.170000X0*%
%TD*%
%TA.AperFunction,ViaPad*%
%ADD23C,0.500000*%
%TD*%
%TA.AperFunction,ViaPad*%
%ADD24C,0.350000*%
%TD*%
%TA.AperFunction,ViaPad*%
%ADD25C,1.500000*%
%TD*%
%TA.AperFunction,Conductor*%
%ADD26C,0.156500*%
%TD*%
%TA.AperFunction,Conductor*%
%ADD27C,0.250000*%
%TD*%
%TA.AperFunction,Conductor*%
%ADD28C,1.000000*%
%TD*%
%TA.AperFunction,Conductor*%
%ADD29C,0.500000*%
%TD*%
G04 APERTURE END LIST*
%TA.AperFunction,EtchedComponent*%
%TO.C,JP41*%
G36*
X32530000Y-10040000D02*
G01*
X32830000Y-10040000D01*
X32830000Y-9900000D01*
X32530000Y-9900000D01*
X32530000Y-10040000D01*
G37*
%TD.AperFunction*%
%TA.AperFunction,EtchedComponent*%
%TO.C,JP37*%
G36*
X12340000Y-17460000D02*
G01*
X12640000Y-17460000D01*
X12640000Y-17320000D01*
X12340000Y-17320000D01*
X12340000Y-17460000D01*
G37*
%TD.AperFunction*%
%TD*%
D10*
%TO.P,J7,1,Pin_1*%
%TO.N,Net-(J7-Pin_1)*%
X7225000Y-17350000D03*
D11*
%TO.P,J7,2,Pin_2*%
%TO.N,+5V*%
X4685000Y-17350000D03*
%TO.P,J7,3,Pin_3*%
%TO.N,GND*%
X2145000Y-17350000D03*
%TD*%
D10*
%TO.P,J8,1,Pin_1*%
%TO.N,Net-(J8-Pin_1)*%
X7225000Y-19890000D03*
D11*
%TO.P,J8,2,Pin_2*%
%TO.N,+5V*%
X4685000Y-19890000D03*
%TO.P,J8,3,Pin_3*%
%TO.N,GND*%
X2145000Y-19890000D03*
%TD*%
D10*
%TO.P,J2,1,Pin_1*%
%TO.N,Net-(J2-Pin_1)*%
X7225000Y-4650000D03*
D11*
%TO.P,J2,2,Pin_2*%
%TO.N,+5V*%
X4685000Y-4650000D03*
%TO.P,J2,3,Pin_3*%
%TO.N,GND*%
X2145000Y-4650000D03*
%TD*%
D10*
%TO.P,J1,1,Pin_1*%
%TO.N,Net-(J1-Pin_1)*%
X7225000Y-2110000D03*
D11*
%TO.P,J1,2,Pin_2*%
%TO.N,+5V*%
X4685000Y-2110000D03*
%TO.P,J1,3,Pin_3*%
%TO.N,GND*%
X2145000Y-2110000D03*
%TD*%
D10*
%TO.P,J3,1,Pin_1*%
%TO.N,Net-(J3-Pin_1)*%
X7225000Y-7190000D03*
D11*
%TO.P,J3,2,Pin_2*%
%TO.N,+5V*%
X4685000Y-7190000D03*
%TO.P,J3,3,Pin_3*%
%TO.N,GND*%
X2145000Y-7190000D03*
%TD*%
D10*
%TO.P,J4,1,Pin_1*%
%TO.N,Net-(J4-Pin_1)*%
X7225000Y-9730000D03*
D11*
%TO.P,J4,2,Pin_2*%
%TO.N,+5V*%
X4685000Y-9730000D03*
%TO.P,J4,3,Pin_3*%
%TO.N,GND*%
X2145000Y-9730000D03*
%TD*%
D10*
%TO.P,J6,1,Pin_1*%
%TO.N,Net-(J6-Pin_1)*%
X7225000Y-14810000D03*
D11*
%TO.P,J6,2,Pin_2*%
%TO.N,+5V*%
X4685000Y-14810000D03*
%TO.P,J6,3,Pin_3*%
%TO.N,GND*%
X2145000Y-14810000D03*
%TD*%
D10*
%TO.P,J11,1,Pin_1*%
%TO.N,/RGB*%
X13415000Y-19880000D03*
D11*
%TO.P,J11,2,Pin_2*%
%TO.N,/LEDPWR*%
X15955000Y-19880000D03*
%TO.P,J11,3,Pin_3*%
%TO.N,GND*%
X18495000Y-19880000D03*
%TD*%
D12*
%TO.P,J12,1,Pin_1*%
%TO.N,Net-(J12-Pin_1)*%
X37850000Y-18480000D03*
D13*
%TO.P,J12,2,Pin_2*%
%TO.N,Net-(J12-Pin_2)*%
X37850000Y-15980000D03*
%TO.P,J12,3,Pin_3*%
%TO.N,Net-(J12-Pin_3)*%
X37850000Y-13480000D03*
%TO.P,J12,4,Pin_4*%
%TO.N,Net-(J12-Pin_4)*%
X37850000Y-10980000D03*
%TO.P,J12,5,Pin_5*%
%TO.N,Net-(J12-Pin_5)*%
X37850000Y-8480000D03*
%TO.P,J12,6,Pin_6*%
%TO.N,Net-(J12-Pin_6)*%
X37850000Y-5980000D03*
%TO.P,J12,7,Pin_7*%
%TO.N,Net-(J12-Pin_7)*%
X37850000Y-3480000D03*
%TD*%
D10*
%TO.P,J5,1,Pin_1*%
%TO.N,Net-(J5-Pin_1)*%
X7225000Y-12270000D03*
D11*
%TO.P,J5,2,Pin_2*%
%TO.N,+5V*%
X4685000Y-12270000D03*
%TO.P,J5,3,Pin_3*%
%TO.N,GND*%
X2145000Y-12270000D03*
%TD*%
D14*
%TO.P,R2,1*%
%TO.N,Net-(U3-MODE)*%
X13640000Y-5320000D03*
%TO.P,R2,2*%
%TO.N,GND*%
X14660000Y-5320000D03*
%TD*%
D15*
%TO.P,C8,1*%
%TO.N,GND*%
X26900000Y-15500000D03*
%TO.P,C8,2*%
%TO.N,/V_DCC*%
X25940000Y-15500000D03*
%TD*%
D16*
%TO.P,C18,1*%
%TO.N,GND*%
X16080000Y-8740000D03*
%TO.P,C18,2*%
%TO.N,/LVS5*%
X16080000Y-7780000D03*
%TD*%
D14*
%TO.P,R45,1*%
%TO.N,/LVS7*%
X34640000Y-2480000D03*
%TO.P,R45,2*%
%TO.N,GND*%
X35660000Y-2480000D03*
%TD*%
D16*
%TO.P,C21,1*%
%TO.N,GND*%
X17000000Y-8740000D03*
%TO.P,C21,2*%
%TO.N,/VS_5V*%
X17000000Y-7780000D03*
%TD*%
D15*
%TO.P,C7,1*%
%TO.N,GND*%
X27919999Y-14570000D03*
%TO.P,C7,2*%
%TO.N,Net-(U2-VR_PA)*%
X26959999Y-14570000D03*
%TD*%
D14*
%TO.P,R40,1*%
%TO.N,/LVS2*%
X34640000Y-14980000D03*
%TO.P,R40,2*%
%TO.N,GND*%
X35660000Y-14980000D03*
%TD*%
D17*
%TO.P,R22,1*%
%TO.N,/PWM8*%
X10475001Y-19890000D03*
%TO.P,R22,2*%
%TO.N,Net-(J8-Pin_1)*%
X9455001Y-19890000D03*
%TD*%
D18*
%TO.P,R35,1*%
%TO.N,/LVS5*%
X33650000Y-8490000D03*
%TO.P,R35,2*%
%TO.N,/VBAT_DET*%
X33650000Y-7470000D03*
%TD*%
D19*
%TO.P,R38,1*%
%TO.N,/VS_5V*%
X13690001Y-8070000D03*
%TO.P,R38,2*%
%TO.N,/VBAT_DET*%
X13690001Y-9090000D03*
%TD*%
D17*
%TO.P,R29,1*%
%TO.N,Net-(J12-Pin_7)*%
X35660000Y-3480000D03*
%TO.P,R29,2*%
%TO.N,/LVS7*%
X34640000Y-3480000D03*
%TD*%
%TO.P,R16,1*%
%TO.N,/PWM2*%
X10475000Y-4650000D03*
%TO.P,R16,2*%
%TO.N,Net-(J2-Pin_1)*%
X9455000Y-4650000D03*
%TD*%
D16*
%TO.P,C20,1*%
%TO.N,GND*%
X17920000Y-8740000D03*
%TO.P,C20,2*%
%TO.N,/LVS7*%
X17920000Y-7780000D03*
%TD*%
D20*
%TO.P,C17,1*%
%TO.N,GND*%
X18040000Y-5300000D03*
%TO.P,C17,2*%
%TO.N,/LVS4*%
X18040000Y-6260000D03*
%TD*%
D17*
%TO.P,R24,1*%
%TO.N,Net-(J12-Pin_2)*%
X35660000Y-15980000D03*
%TO.P,R24,2*%
%TO.N,/LVS2*%
X34640000Y-15980000D03*
%TD*%
%TO.P,R21,1*%
%TO.N,/PWM7*%
X10475001Y-17350000D03*
%TO.P,R21,2*%
%TO.N,Net-(J7-Pin_1)*%
X9455001Y-17350000D03*
%TD*%
D18*
%TO.P,R32,1*%
%TO.N,/LVS2*%
X33650000Y-15990000D03*
%TO.P,R32,2*%
%TO.N,/VBAT_DET*%
X33650000Y-14970000D03*
%TD*%
D14*
%TO.P,R41,1*%
%TO.N,/LVS3*%
X34640000Y-12480000D03*
%TO.P,R41,2*%
%TO.N,GND*%
X35660000Y-12480000D03*
%TD*%
D17*
%TO.P,R46,1*%
%TO.N,/VS_5V*%
X12700001Y-9080000D03*
%TO.P,R46,2*%
%TO.N,GND*%
X11680001Y-9080000D03*
%TD*%
D21*
%TO.P,JP41,1,A*%
%TO.N,/VBAT_DET*%
X32980000Y-9970000D03*
%TO.P,JP41,2,B*%
%TO.N,+3.3V*%
X32380000Y-9970000D03*
%TD*%
D14*
%TO.P,R9,1*%
%TO.N,/RADIO_SCK*%
X15999999Y-12060000D03*
%TO.P,R9,2*%
%TO.N,GND*%
X17019999Y-12060000D03*
%TD*%
D17*
%TO.P,R18,1*%
%TO.N,/PWM4*%
X10475001Y-9730000D03*
%TO.P,R18,2*%
%TO.N,Net-(J4-Pin_1)*%
X9455001Y-9730000D03*
%TD*%
%TO.P,R28,1*%
%TO.N,Net-(J12-Pin_6)*%
X35660000Y-5980000D03*
%TO.P,R28,2*%
%TO.N,/LVS6*%
X34640000Y-5980000D03*
%TD*%
D20*
%TO.P,C16,1*%
%TO.N,GND*%
X18960000Y-5300000D03*
%TO.P,C16,2*%
%TO.N,/LVS3*%
X18960000Y-6260000D03*
%TD*%
D16*
%TO.P,C15,1*%
%TO.N,GND*%
X18840000Y-8740000D03*
%TO.P,C15,2*%
%TO.N,/LVS2*%
X18840000Y-7780000D03*
%TD*%
D14*
%TO.P,R13,1*%
%TO.N,+3.3V*%
X12360000Y-14550000D03*
%TO.P,R13,2*%
%TO.N,/BOOT*%
X13380000Y-14550000D03*
%TD*%
D22*
%TO.P,C4,1*%
%TO.N,GND*%
X21860000Y-10550000D03*
%TO.P,C4,2*%
%TO.N,+3.3V*%
X22820000Y-10550000D03*
%TD*%
%TO.P,C3,1*%
%TO.N,GND*%
X21830000Y-14980000D03*
%TO.P,C3,2*%
%TO.N,+3.3V*%
X22790000Y-14980000D03*
%TD*%
D20*
%TO.P,C10,1*%
%TO.N,GND*%
X29180000Y-17600000D03*
%TO.P,C10,2*%
%TO.N,+3.3V*%
X29180000Y-18560000D03*
%TD*%
D17*
%TO.P,R17,1*%
%TO.N,/PWM3*%
X10475001Y-7190000D03*
%TO.P,R17,2*%
%TO.N,Net-(J3-Pin_1)*%
X9455001Y-7190000D03*
%TD*%
%TO.P,R26,1*%
%TO.N,Net-(J12-Pin_4)*%
X35660000Y-10980000D03*
%TO.P,R26,2*%
%TO.N,/LVS4*%
X34640000Y-10980000D03*
%TD*%
D21*
%TO.P,JP37,1,A*%
%TO.N,+3.3V*%
X12790000Y-17390000D03*
%TO.P,JP37,2,C*%
%TO.N,/LEDPWR*%
X12190000Y-17390000D03*
%TO.P,JP37,3,B*%
%TO.N,VIN*%
X11590000Y-17390000D03*
%TD*%
D17*
%TO.P,R19,1*%
%TO.N,/PWM5*%
X10475001Y-12270000D03*
%TO.P,R19,2*%
%TO.N,Net-(J5-Pin_1)*%
X9455001Y-12270000D03*
%TD*%
D22*
%TO.P,C12,1*%
%TO.N,GND*%
X29909999Y-16190000D03*
%TO.P,C12,2*%
%TO.N,+3.3V*%
X30869999Y-16190000D03*
%TD*%
D14*
%TO.P,R12,1*%
%TO.N,/RADIO_MISO*%
X15990000Y-13110000D03*
%TO.P,R12,2*%
%TO.N,GND*%
X17010000Y-13110000D03*
%TD*%
D17*
%TO.P,R15,1*%
%TO.N,/PWM1*%
X10475000Y-2110000D03*
%TO.P,R15,2*%
%TO.N,Net-(J1-Pin_1)*%
X9455000Y-2110000D03*
%TD*%
D18*
%TO.P,R31,1*%
%TO.N,/LVS1*%
X33650000Y-18490000D03*
%TO.P,R31,2*%
%TO.N,/VBAT_DET*%
X33650000Y-17470000D03*
%TD*%
%TO.P,R14,1*%
%TO.N,+3.3V*%
X18050000Y-3800000D03*
%TO.P,R14,2*%
%TO.N,Net-(D3-A)*%
X18050000Y-2780000D03*
%TD*%
D15*
%TO.P,C19,1*%
%TO.N,GND*%
X16190000Y-10070000D03*
%TO.P,C19,2*%
%TO.N,/LVS6*%
X15230000Y-10070000D03*
%TD*%
D17*
%TO.P,R25,1*%
%TO.N,Net-(J12-Pin_3)*%
X35660000Y-13480000D03*
%TO.P,R25,2*%
%TO.N,/LVS3*%
X34640000Y-13480000D03*
%TD*%
D18*
%TO.P,R33,1*%
%TO.N,/LVS3*%
X33650000Y-13490000D03*
%TO.P,R33,2*%
%TO.N,/VBAT_DET*%
X33650000Y-12470000D03*
%TD*%
D17*
%TO.P,R27,1*%
%TO.N,Net-(J12-Pin_5)*%
X35660000Y-8480000D03*
%TO.P,R27,2*%
%TO.N,/LVS5*%
X34640000Y-8480000D03*
%TD*%
D14*
%TO.P,R6,1*%
%TO.N,/RADIO_MOSI*%
X15990000Y-14050000D03*
%TO.P,R6,2*%
%TO.N,GND*%
X17010000Y-14050000D03*
%TD*%
%TO.P,R44,1*%
%TO.N,/LVS6*%
X34640000Y-4980000D03*
%TO.P,R44,2*%
%TO.N,GND*%
X35660000Y-4980000D03*
%TD*%
%TO.P,R47,1*%
%TO.N,Net-(J10-Pin_3)*%
X25170000Y-4500000D03*
%TO.P,R47,2*%
%TO.N,/SERIAL_RX*%
X26190000Y-4500000D03*
%TD*%
D22*
%TO.P,C5,1*%
%TO.N,Net-(U3-SS{slash}TR)*%
X13690000Y-6290000D03*
%TO.P,C5,2*%
%TO.N,GND*%
X14650000Y-6290000D03*
%TD*%
D17*
%TO.P,R20,1*%
%TO.N,/PWM6*%
X10475001Y-14810000D03*
%TO.P,R20,2*%
%TO.N,Net-(J6-Pin_1)*%
X9455001Y-14810000D03*
%TD*%
%TO.P,R11,1*%
%TO.N,/RADIO_MISO*%
X13370000Y-13550000D03*
%TO.P,R11,2*%
%TO.N,+3.3V*%
X12350000Y-13550000D03*
%TD*%
D14*
%TO.P,R30,1*%
%TO.N,+5V*%
X11680001Y-8080000D03*
%TO.P,R30,2*%
%TO.N,/VS_5V*%
X12700001Y-8080000D03*
%TD*%
D18*
%TO.P,R36,1*%
%TO.N,/LVS6*%
X33650000Y-5990000D03*
%TO.P,R36,2*%
%TO.N,/VBAT_DET*%
X33650000Y-4970000D03*
%TD*%
D16*
%TO.P,C14,1*%
%TO.N,GND*%
X19760000Y-8740000D03*
%TO.P,C14,2*%
%TO.N,/LVS1*%
X19760000Y-7780000D03*
%TD*%
D18*
%TO.P,R37,1*%
%TO.N,/LVS7*%
X33650000Y-3490000D03*
%TO.P,R37,2*%
%TO.N,/VBAT_DET*%
X33650000Y-2470000D03*
%TD*%
D19*
%TO.P,R4,1*%
%TO.N,+3.3V*%
X15570000Y-3950000D03*
%TO.P,R4,2*%
%TO.N,Net-(U3-FB)*%
X15570000Y-4970000D03*
%TD*%
D18*
%TO.P,R34,1*%
%TO.N,/LVS4*%
X33650000Y-10990000D03*
%TO.P,R34,2*%
%TO.N,/VBAT_DET*%
X33650000Y-9970000D03*
%TD*%
D14*
%TO.P,R43,1*%
%TO.N,/LVS5*%
X34640000Y-7480000D03*
%TO.P,R43,2*%
%TO.N,GND*%
X35660000Y-7480000D03*
%TD*%
D19*
%TO.P,R5,1*%
%TO.N,Net-(U3-FB)*%
X15570000Y-5820000D03*
%TO.P,R5,2*%
%TO.N,GND*%
X15570000Y-6840000D03*
%TD*%
D17*
%TO.P,R48,1*%
%TO.N,Net-(J10-Pin_4)*%
X26190000Y-5500000D03*
%TO.P,R48,2*%
%TO.N,/SERIAL_TX*%
X25170000Y-5500000D03*
%TD*%
%TO.P,R23,1*%
%TO.N,Net-(J12-Pin_1)*%
X35660000Y-18480000D03*
%TO.P,R23,2*%
%TO.N,/LVS1*%
X34640000Y-18480000D03*
%TD*%
D14*
%TO.P,R7,1*%
%TO.N,/RADIO_RST*%
X21820001Y-15910000D03*
%TO.P,R7,2*%
%TO.N,+3.3V*%
X22840001Y-15910000D03*
%TD*%
%TO.P,R42,1*%
%TO.N,/LVS4*%
X34640000Y-9980000D03*
%TO.P,R42,2*%
%TO.N,GND*%
X35660000Y-9980000D03*
%TD*%
D18*
%TO.P,R8,1*%
%TO.N,/RADIO_RST*%
X20930000Y-15590001D03*
%TO.P,R8,2*%
%TO.N,GND*%
X20930000Y-14570001D03*
%TD*%
D22*
%TO.P,C11,1*%
%TO.N,+3.3V*%
X23690000Y-19240000D03*
%TO.P,C11,2*%
%TO.N,GND*%
X24650000Y-19240000D03*
%TD*%
D14*
%TO.P,R39,1*%
%TO.N,/LVS1*%
X34640000Y-17480000D03*
%TO.P,R39,2*%
%TO.N,GND*%
X35660000Y-17480000D03*
%TD*%
D23*
%TO.N,GND*%
X36310000Y-7480000D03*
X17630000Y-14070000D03*
X14650000Y-6850000D03*
X26940000Y-8060000D03*
X27400000Y-16180000D03*
X28330000Y-17120000D03*
X19700000Y-9990000D03*
X19210000Y-12300000D03*
X29260000Y-17100000D03*
X36310000Y-17090000D03*
X29280000Y-16190000D03*
X24090000Y-2340000D03*
X29260000Y-15260000D03*
X18780000Y-10050000D03*
X20340000Y-2560000D03*
X17640000Y-12050000D03*
X29220000Y-8079999D03*
X14630000Y-4750000D03*
X21320000Y-10550000D03*
X36310000Y-4980000D03*
D24*
X28900000Y-11954620D03*
D23*
X14650000Y-4150000D03*
X27420000Y-17100000D03*
X22497184Y-2610694D03*
X30260001Y-17820000D03*
X28340000Y-16179999D03*
X28340000Y-15240000D03*
X30660000Y-20220000D03*
X36310000Y-14980000D03*
D24*
X22060000Y-7680000D03*
D23*
X14710000Y-16710000D03*
D25*
X30900000Y-3980000D03*
D23*
X16920000Y-10070000D03*
X29560000Y-10850000D03*
X17900000Y-10070000D03*
X36310000Y-2490000D03*
X18491753Y-5069381D03*
D24*
X11340000Y-18477400D03*
D23*
X13260656Y-2587861D03*
D24*
X28834999Y-13475000D03*
X14640000Y-5810000D03*
X22070000Y-6960000D03*
D23*
X36310000Y-9980000D03*
X24370929Y-8086289D03*
D24*
X27380000Y-13390000D03*
X21450000Y-14550000D03*
D23*
X19980000Y-5290000D03*
X14650000Y-3520000D03*
X17630000Y-13110000D03*
X26580000Y-10850000D03*
D24*
X27310004Y-11932750D03*
D23*
X24702501Y-18400000D03*
X27420000Y-15260000D03*
X11010000Y-10857400D03*
X12000000Y-2880000D03*
X36310000Y-12480000D03*
X19200000Y-13230000D03*
X22930000Y-5290000D03*
%TO.N,Net-(U2-VR_PA)*%
X26410000Y-14520000D03*
%TO.N,/V_DCC*%
X29910000Y-18740000D03*
X25420000Y-15350000D03*
D24*
%TO.N,+3.3V*%
X23280000Y-10550000D03*
X20960000Y-8240000D03*
D23*
X13067213Y-17184794D03*
D24*
X15180000Y-12560000D03*
D23*
X12700000Y-15100000D03*
X30290000Y-12110000D03*
D24*
X23280000Y-12050000D03*
D23*
X31840000Y-9980000D03*
D24*
X22300000Y-8840000D03*
X16669381Y-17364210D03*
D23*
X15910000Y-3440000D03*
D24*
X20450000Y-8240000D03*
D23*
X23600000Y-19839990D03*
X29180000Y-19070000D03*
X16226359Y-4301556D03*
X31511281Y-16406512D03*
X23520004Y-15180000D03*
D24*
%TO.N,/LED_RGB*%
X12200000Y-15680000D03*
X24090000Y-12160000D03*
D23*
%TO.N,/LEDPWR*%
X12200000Y-18019998D03*
%TO.N,VIN*%
X11180000Y-17390000D03*
X11045000Y-5285000D03*
D24*
%TO.N,/RESET*%
X16910000Y-4660000D03*
X12590000Y-12110000D03*
%TO.N,/SERIAL_RX*%
X25832750Y-6708971D03*
%TO.N,/LVS6*%
X14370000Y-9130000D03*
%TO.N,/LVS2*%
X19511321Y-7050000D03*
%TO.N,/SERIAL_TX*%
X25150000Y-6190000D03*
%TO.N,/LVS1*%
X20062303Y-7139202D03*
%TO.N,/LVS3*%
X18940000Y-7010000D03*
%TO.N,/LVS5*%
X16450000Y-7320000D03*
%TO.N,/BOOT*%
X11279799Y-15732510D03*
X13888981Y-14662144D03*
%TO.N,/LVS4*%
X18410000Y-7050000D03*
%TO.N,/LVS7*%
X17350000Y-1420000D03*
X17460000Y-7230000D03*
%TO.N,/VS_5V*%
X13710000Y-7580000D03*
X16950000Y-7090000D03*
%TO.N,/RADIO_NSS*%
X13940000Y-11550000D03*
X30611845Y-13359205D03*
%TO.N,/RADIO_MOSI*%
X31463331Y-15352552D03*
X13960000Y-14050000D03*
%TO.N,/RADIO_MISO*%
X31820000Y-15840000D03*
X13860703Y-13454216D03*
%TO.N,/RADIO_SCK*%
X31080000Y-14560000D03*
X14320000Y-12390000D03*
%TO.N,/RADIO_RST*%
X20871608Y-17497868D03*
%TO.N,Net-(D3-A)*%
X18040000Y-1850000D03*
%TO.N,/PWM1*%
X23960000Y-10120000D03*
X12782587Y-1372763D03*
X26160000Y-11910000D03*
D23*
%TO.N,+5V*%
X10920000Y-8110000D03*
D25*
X29300000Y-3180000D03*
D24*
%TO.N,/PWM2*%
X13400000Y-1370000D03*
%TO.N,/PWM3*%
X13170000Y-7230000D03*
%TO.N,/PWM4*%
X11110000Y-10150000D03*
%TO.N,/PWM5*%
X19264500Y-17677250D03*
X10470000Y-12970000D03*
%TO.N,/PWM6*%
X18070000Y-17609996D03*
%TO.N,/PWM7*%
X19540000Y-17170000D03*
X22073882Y-17592078D03*
%TO.N,/PWM8*%
X21470000Y-17580000D03*
X17196000Y-17660000D03*
%TO.N,/VBAT_DET*%
X33660000Y-1910000D03*
X33650000Y-4420000D03*
X33660000Y-11840000D03*
X33650000Y-6910000D03*
X33670000Y-9380000D03*
X32664430Y-16190000D03*
X13700000Y-10330000D03*
X33650000Y-16930000D03*
X33640000Y-14430000D03*
%TO.N,Net-(U3-MODE)*%
X13020000Y-5710000D03*
%TO.N,Net-(U3-FB)*%
X16250000Y-5670000D03*
%TO.N,Net-(U3-SS{slash}TR)*%
X13130000Y-6320000D03*
%TO.N,Net-(J10-Pin_4)*%
X26850000Y-4650000D03*
%TO.N,Net-(J10-Pin_3)*%
X28100000Y-4650000D03*
%TD*%
D26*
%TO.N,Net-(J7-Pin_1)*%
X7225000Y-17350000D02*
X9455002Y-17350000D01*
D27*
%TO.N,GND*%
X35659999Y-7480000D02*
X36310000Y-7480000D01*
X17000000Y-8740000D02*
X17000000Y-9990000D01*
D26*
X17630000Y-12060000D02*
X17640000Y-12050000D01*
D27*
X21429998Y-14570002D02*
X21450000Y-14550000D01*
D28*
X2145000Y-2110000D02*
X2145000Y-19889999D01*
D27*
X29260000Y-17099999D02*
X28340000Y-16179999D01*
X19760000Y-9930000D02*
X19700000Y-9990000D01*
X26910000Y-16180000D02*
X26890000Y-16160000D01*
X17000000Y-9990000D02*
X16920000Y-10070000D01*
X18270619Y-5069381D02*
X18491753Y-5069381D01*
X24650000Y-19240000D02*
X24650000Y-18452501D01*
X29280000Y-17080000D02*
X29260000Y-17100000D01*
X14640000Y-5339999D02*
X14659999Y-5320000D01*
X35920000Y-17480000D02*
X36310000Y-17090000D01*
X14659999Y-5320000D02*
X14659999Y-4779999D01*
X14630000Y-4750000D02*
X14630000Y-4170000D01*
X17920000Y-8740000D02*
X17920000Y-10050000D01*
D26*
X17610000Y-14050000D02*
X17630000Y-14070000D01*
D27*
X11680002Y-9080000D02*
X11680002Y-10363473D01*
X18960000Y-5300000D02*
X18040000Y-5300000D01*
X27420000Y-15260000D02*
X27140000Y-15260000D01*
X20930000Y-14570002D02*
X21429998Y-14570002D01*
X14640000Y-5810000D02*
X14640000Y-5339999D01*
X18960000Y-5300000D02*
X19970000Y-5300000D01*
X27920000Y-14720000D02*
X28340000Y-15140000D01*
X27140000Y-15260000D02*
X26900000Y-15500000D01*
D28*
X2145000Y-19889999D02*
X2145001Y-19890000D01*
D27*
X35659999Y-12480000D02*
X36310000Y-12480000D01*
X21830000Y-14930000D02*
X21450000Y-14550000D01*
X36300000Y-2480000D02*
X36310000Y-2490000D01*
X18840000Y-8740000D02*
X18840000Y-9990000D01*
X21830000Y-14980000D02*
X21830000Y-14930000D01*
X11186075Y-10857400D02*
X11010000Y-10857400D01*
X18840000Y-9990000D02*
X18780000Y-10050000D01*
X16190000Y-10070000D02*
X16920000Y-10070000D01*
X14650000Y-5820000D02*
X14640000Y-5810000D01*
X26900000Y-16000000D02*
X26900000Y-15500000D01*
X35659999Y-2480000D02*
X36300000Y-2480000D01*
X11680002Y-10363473D02*
X11186075Y-10857400D01*
X14659999Y-4779999D02*
X14630000Y-4750000D01*
X19760000Y-8740000D02*
X19760000Y-9930000D01*
X14650000Y-6290000D02*
X14650000Y-5820000D01*
X29180000Y-17600000D02*
X29180000Y-17180000D01*
X27920000Y-14570000D02*
X27920000Y-14720000D01*
X35659999Y-4980000D02*
X36310000Y-4980000D01*
X17019998Y-12060000D02*
X17630000Y-12060000D01*
X35659999Y-17480000D02*
X35920000Y-17480000D01*
X29260000Y-17100000D02*
X29260000Y-17099999D01*
X17009999Y-14050000D02*
X17610000Y-14050000D01*
D26*
X14650000Y-6850000D02*
X15559999Y-6850000D01*
D27*
X35659999Y-14980000D02*
X36310000Y-14980000D01*
X27400000Y-16180000D02*
X26910000Y-16180000D01*
X29180000Y-17180000D02*
X29260000Y-17100000D01*
X35659999Y-9980000D02*
X36310000Y-9980000D01*
X16190000Y-8850000D02*
X16080000Y-8740000D01*
X26890000Y-16010000D02*
X26900000Y-16000000D01*
X29280000Y-16190000D02*
X29910000Y-16190000D01*
X26890000Y-16160000D02*
X26890000Y-16010000D01*
X17920000Y-10050000D02*
X17900000Y-10070000D01*
X28340000Y-15140000D02*
X28340000Y-15240000D01*
X19970000Y-5300000D02*
X19980000Y-5290000D01*
D26*
X15559999Y-6850000D02*
X15570000Y-6839999D01*
D27*
X24650000Y-18452501D02*
X24702501Y-18400000D01*
X14630000Y-4170000D02*
X14650000Y-4150000D01*
X21860000Y-10550000D02*
X21320000Y-10550000D01*
X18040000Y-5300000D02*
X18270619Y-5069381D01*
X14650000Y-6850000D02*
X14650000Y-6290000D01*
X16190000Y-10070000D02*
X16190000Y-8850000D01*
X17009999Y-13110000D02*
X17630000Y-13110000D01*
X14650000Y-3520000D02*
X14650000Y-4150000D01*
%TO.N,Net-(U2-VR_PA)*%
X26460000Y-14570000D02*
X26410000Y-14520000D01*
X26960000Y-14570000D02*
X26460000Y-14570000D01*
%TO.N,/V_DCC*%
X29910000Y-18740000D02*
X29910000Y-19230000D01*
X29390001Y-19750000D02*
X28810000Y-19750000D01*
X25790000Y-15350000D02*
X25940000Y-15500000D01*
X25420000Y-15350000D02*
X25790000Y-15350000D01*
X29910000Y-19230000D02*
X29390001Y-19750000D01*
X28810000Y-19750000D02*
X25420000Y-16360000D01*
X25420000Y-16360000D02*
X25420000Y-15350000D01*
%TO.N,+3.3V*%
X12360001Y-14550000D02*
X12360001Y-14760001D01*
X23600000Y-19839990D02*
X23600000Y-19330000D01*
X18050000Y-3799999D02*
X16727916Y-3799999D01*
X12360001Y-14760001D02*
X12700000Y-15100000D01*
X15910000Y-3610001D02*
X15910000Y-3440000D01*
X22820000Y-10550000D02*
X23280000Y-10550000D01*
X12995206Y-17184794D02*
X13067213Y-17184794D01*
X16061556Y-4301556D02*
X16226359Y-4301556D01*
X23320004Y-14980000D02*
X23520004Y-15180000D01*
X32380000Y-9970000D02*
X31850000Y-9970000D01*
X31850000Y-9970000D02*
X31840000Y-9980000D01*
X31086512Y-16406512D02*
X31511281Y-16406512D01*
X12350001Y-13550000D02*
X12350001Y-14540000D01*
X16727916Y-3799999D02*
X16226359Y-4301556D01*
X12350001Y-14540000D02*
X12360001Y-14550000D01*
X15570000Y-3950001D02*
X15710001Y-3950001D01*
X29180000Y-18560000D02*
X29180000Y-19070000D01*
X23600000Y-19330000D02*
X23690000Y-19240001D01*
X22790000Y-14980000D02*
X23320004Y-14980000D01*
X22840000Y-15860004D02*
X23520004Y-15180000D01*
X12790000Y-17390000D02*
X12995206Y-17184794D01*
X15570000Y-3950001D02*
X15910000Y-3610001D01*
X15710001Y-3950001D02*
X16061556Y-4301556D01*
X22840000Y-15910000D02*
X22840000Y-15860004D01*
X30870000Y-16190000D02*
X31086512Y-16406512D01*
D26*
%TO.N,/LED_RGB*%
X12896070Y-10823930D02*
X20561285Y-10823930D01*
X12200000Y-15680000D02*
X11860000Y-15340000D01*
X23487940Y-11557940D02*
X24090000Y-12160000D01*
X21295295Y-11557940D02*
X23487940Y-11557940D01*
X11860000Y-11860000D02*
X12896070Y-10823930D01*
X20561285Y-10823930D02*
X21295295Y-11557940D01*
X11860000Y-15340000D02*
X11860000Y-11860000D01*
D27*
%TO.N,/LEDPWR*%
X12190000Y-18009998D02*
X12200000Y-18019998D01*
X12190000Y-17390000D02*
X12190000Y-18009998D01*
D29*
X14094998Y-18019998D02*
X12200000Y-18019998D01*
X15955000Y-19880000D02*
X14094998Y-18019998D01*
D27*
%TO.N,VIN*%
X11590000Y-17390000D02*
X11180000Y-17390000D01*
D26*
%TO.N,Net-(J1-Pin_1)*%
X7225000Y-2110000D02*
X9455001Y-2110000D01*
%TO.N,Net-(J3-Pin_1)*%
X7225000Y-7190000D02*
X9455002Y-7190000D01*
%TO.N,/SERIAL_RX*%
X26189999Y-4500000D02*
X25680000Y-5009999D01*
X25680000Y-5009999D02*
X25680000Y-6556221D01*
X25680000Y-6556221D02*
X25832750Y-6708971D01*
%TO.N,/LVS6*%
X33650000Y-5989999D02*
X34630001Y-5989999D01*
X19570000Y-2160000D02*
X20020000Y-1710000D01*
X16170000Y-6361294D02*
X16702060Y-5829234D01*
X20020000Y-1710000D02*
X25771294Y-1710000D01*
X16059690Y-7099016D02*
X16170000Y-6988706D01*
X15230000Y-7860000D02*
X15810311Y-7279689D01*
X17946245Y-4239689D02*
X18364948Y-4239689D01*
X15884948Y-7279689D02*
X16059690Y-7104947D01*
X19570000Y-3034637D02*
X19570000Y-2160000D01*
X18364948Y-4239689D02*
X19570000Y-3034637D01*
X15230000Y-9210000D02*
X14450000Y-9210000D01*
X34640001Y-5979999D02*
X34640000Y-5980000D01*
X16702060Y-5483874D02*
X17946245Y-4239689D01*
X15230000Y-9210000D02*
X15230000Y-7860000D01*
X14450000Y-9210000D02*
X14370000Y-9130000D01*
X25771294Y-1710000D02*
X30051293Y-5989999D01*
X15230000Y-10070000D02*
X15230000Y-9210000D01*
X30051293Y-5989999D02*
X33650000Y-5989999D01*
X16702060Y-5829234D02*
X16702060Y-5483874D01*
X16059690Y-7104947D02*
X16059690Y-7099016D01*
X15810311Y-7279689D02*
X15884948Y-7279689D01*
X34640001Y-4980000D02*
X34640001Y-5979999D01*
X34630001Y-5989999D02*
X34640000Y-5980000D01*
X16170000Y-6988706D02*
X16170000Y-6361294D01*
%TO.N,/LVS2*%
X34640001Y-15979999D02*
X34640000Y-15980000D01*
X21830000Y-9370000D02*
X21830000Y-8061294D01*
X21830000Y-8061294D02*
X20391456Y-6622750D01*
X23412000Y-9590000D02*
X22050000Y-9590000D01*
X19938571Y-6622750D02*
X19511321Y-7050000D01*
X29946124Y-11279810D02*
X29776124Y-11449810D01*
X33650000Y-15989999D02*
X33160310Y-15500309D01*
X34630001Y-15989999D02*
X34640000Y-15980000D01*
X29212810Y-11199430D02*
X27644684Y-11199430D01*
X20391456Y-6622750D02*
X19938571Y-6622750D01*
X33160310Y-15500309D02*
X33160310Y-13806244D01*
X22050000Y-9590000D02*
X21830000Y-9370000D01*
X23647190Y-9354810D02*
X23412000Y-9590000D01*
X19511321Y-7108679D02*
X19511321Y-7050000D01*
X27644684Y-11199430D02*
X25800064Y-9354810D01*
X25800064Y-9354810D02*
X23647190Y-9354810D01*
X30633876Y-11279810D02*
X29946124Y-11279810D01*
X34640001Y-14980000D02*
X34640001Y-15979999D01*
X33650000Y-15989999D02*
X34630001Y-15989999D01*
X33160310Y-13806244D02*
X30633876Y-11279810D01*
X29776124Y-11449810D02*
X29463190Y-11449810D01*
X18840000Y-7780000D02*
X19511321Y-7108679D01*
X29463190Y-11449810D02*
X29212810Y-11199430D01*
%TO.N,/SERIAL_TX*%
X25170001Y-6169999D02*
X25150000Y-6190000D01*
X25170001Y-5500000D02*
X25170001Y-6169999D01*
%TO.N,/LVS1*%
X30048824Y-11527750D02*
X29878824Y-11697750D01*
X32912370Y-13908944D02*
X30531176Y-11527750D01*
X33160310Y-18000309D02*
X33160310Y-15968520D01*
X19760000Y-7441505D02*
X20062303Y-7139202D01*
X34640000Y-18480000D02*
X34640000Y-17480001D01*
X29110110Y-11447370D02*
X26048010Y-11447370D01*
X33160310Y-15968520D02*
X32912370Y-15720580D01*
X30531176Y-11527750D02*
X30048824Y-11527750D01*
X34630001Y-18489999D02*
X34640000Y-18480000D01*
X34640000Y-17480001D02*
X34640001Y-17480000D01*
X33650000Y-18489999D02*
X34630001Y-18489999D01*
X29360490Y-11697750D02*
X29110110Y-11447370D01*
X21582060Y-9472700D02*
X21582060Y-8250766D01*
X19760000Y-7780000D02*
X19760000Y-7441505D01*
X23749890Y-9602750D02*
X23500580Y-9852060D01*
X32912370Y-15720580D02*
X32912370Y-13908944D01*
X33650000Y-18489999D02*
X33160310Y-18000309D01*
X23500580Y-9852060D02*
X21961420Y-9852060D01*
X24203390Y-9602750D02*
X23749890Y-9602750D01*
X29878824Y-11697750D02*
X29360490Y-11697750D01*
X26048010Y-11447370D02*
X24203390Y-9602750D01*
X21961420Y-9852060D02*
X21582060Y-9472700D01*
X20470496Y-7139202D02*
X20062303Y-7139202D01*
X21582060Y-8250766D02*
X20470496Y-7139202D01*
%TO.N,Net-(J4-Pin_1)*%
X7225000Y-9730000D02*
X9455002Y-9730000D01*
%TO.N,Net-(J5-Pin_1)*%
X7225000Y-12270000D02*
X9455002Y-12270000D01*
%TO.N,/LVS3*%
X34640001Y-12480000D02*
X34640001Y-13479999D01*
X18940000Y-7010000D02*
X18940000Y-6280000D01*
X30670000Y-10509999D02*
X30670000Y-8570640D01*
X29677110Y-7577750D02*
X26740245Y-7577750D01*
X24666850Y-7688130D02*
X24124600Y-7145880D01*
X26629865Y-7688130D02*
X24666850Y-7688130D01*
X34640001Y-13479999D02*
X34640000Y-13480000D01*
X34630001Y-13489999D02*
X34640000Y-13480000D01*
X33650000Y-13489999D02*
X34630001Y-13489999D01*
X33650000Y-13489999D02*
X30670000Y-10509999D01*
X23134600Y-7145880D02*
X22248720Y-6260000D01*
X24124600Y-7145880D02*
X23134600Y-7145880D01*
X30670000Y-8570640D02*
X29677110Y-7577750D01*
X18940000Y-6280000D02*
X18960000Y-6260000D01*
X22248720Y-6260000D02*
X18960000Y-6260000D01*
X26740245Y-7577750D02*
X26629865Y-7688130D01*
%TO.N,Net-(J6-Pin_1)*%
X7225000Y-14810000D02*
X9455002Y-14810000D01*
%TO.N,Net-(J2-Pin_1)*%
X7225000Y-4650000D02*
X9455001Y-4650000D01*
%TO.N,/LVS5*%
X24872250Y-7192250D02*
X23910000Y-6230000D01*
X16450000Y-7410000D02*
X16080000Y-7780000D01*
X21703250Y-5013250D02*
X20403250Y-5013250D01*
X27030000Y-6730000D02*
X26700000Y-7060000D01*
X22920000Y-6230000D02*
X21703250Y-5013250D01*
X34640001Y-8479999D02*
X34640000Y-8480000D01*
X31879999Y-8489999D02*
X30120000Y-6730000D01*
X26361294Y-7060000D02*
X26229044Y-7192250D01*
X16450000Y-7320000D02*
X16450000Y-7410000D01*
X19928818Y-4538818D02*
X18049334Y-4538818D01*
X23910000Y-6230000D02*
X22920000Y-6230000D01*
X33650000Y-8489999D02*
X34630001Y-8489999D01*
X26229044Y-7192250D02*
X24872250Y-7192250D01*
X33650000Y-8489999D02*
X31879999Y-8489999D01*
X26700000Y-7060000D02*
X26361294Y-7060000D01*
X30120000Y-6730000D02*
X27030000Y-6730000D01*
X18049334Y-4538818D02*
X17240000Y-5348152D01*
X34640001Y-7480000D02*
X34640001Y-8479999D01*
X17240000Y-5348152D02*
X17240000Y-6188706D01*
X17240000Y-6188706D02*
X16450000Y-6978706D01*
X16450000Y-6978706D02*
X16450000Y-7320000D01*
X34630001Y-8489999D02*
X34640000Y-8480000D01*
X20403250Y-5013250D02*
X19928818Y-4538818D01*
%TO.N,Net-(J8-Pin_1)*%
X7225000Y-19890000D02*
X9455002Y-19890000D01*
%TO.N,/BOOT*%
X12379044Y-16112250D02*
X12020956Y-16112250D01*
X13379999Y-14550000D02*
X13776837Y-14550000D01*
X12020956Y-16112250D02*
X11641216Y-15732510D01*
X13379999Y-15111295D02*
X12379044Y-16112250D01*
X11641216Y-15732510D02*
X11279799Y-15732510D01*
X13776837Y-14550000D02*
X13888981Y-14662144D01*
X13379999Y-14550000D02*
X13379999Y-15111295D01*
D27*
%TO.N,Net-(J12-Pin_4)*%
X35660000Y-10980000D02*
X37850000Y-10980000D01*
%TO.N,Net-(J12-Pin_7)*%
X35660000Y-3480000D02*
X37850000Y-3480000D01*
%TO.N,Net-(J12-Pin_2)*%
X35660000Y-15980000D02*
X37850000Y-15980000D01*
%TO.N,Net-(J12-Pin_6)*%
X35660000Y-5980000D02*
X37850000Y-5980000D01*
D26*
%TO.N,/LVS4*%
X34640001Y-9980000D02*
X34640001Y-10979999D01*
X34640001Y-10979999D02*
X34640000Y-10980000D01*
X18040000Y-6260000D02*
X18489690Y-5810310D01*
X34630001Y-10989999D02*
X34640000Y-10980000D01*
X31070000Y-9892005D02*
X32167994Y-10989999D01*
X31070000Y-8620000D02*
X31070000Y-9892005D01*
X23237300Y-6897940D02*
X24227300Y-6897940D01*
X24769550Y-7440190D02*
X26527165Y-7440190D01*
X26527165Y-7440190D02*
X26637545Y-7329810D01*
X22149670Y-5810310D02*
X23237300Y-6897940D01*
X18489690Y-5810310D02*
X22149670Y-5810310D01*
X18040000Y-6260000D02*
X18040000Y-6680000D01*
X32167994Y-10989999D02*
X33650000Y-10989999D01*
X18040000Y-6680000D02*
X18410000Y-7050000D01*
X29779810Y-7329810D02*
X31070000Y-8620000D01*
X24227300Y-6897940D02*
X24769550Y-7440190D01*
X33650000Y-10989999D02*
X34630001Y-10989999D01*
X26637545Y-7329810D02*
X29779810Y-7329810D01*
D27*
%TO.N,Net-(J12-Pin_5)*%
X35660000Y-8480000D02*
X37850000Y-8480000D01*
D26*
%TO.N,/LVS7*%
X31900000Y-5170000D02*
X30550000Y-5170000D01*
X30000000Y-4620000D02*
X29730000Y-4620000D01*
X33650000Y-3489999D02*
X34630001Y-3489999D01*
X17352250Y-1417750D02*
X17350000Y-1420000D01*
X29730000Y-4620000D02*
X29031934Y-4620000D01*
X30550000Y-5170000D02*
X30420000Y-5040000D01*
X29031934Y-4620000D02*
X25829684Y-1417750D01*
X33580001Y-3489999D02*
X31900000Y-5170000D01*
X34640001Y-2480000D02*
X34640001Y-3479999D01*
X25829684Y-1417750D02*
X17352250Y-1417750D01*
X34640001Y-3479999D02*
X34640000Y-3480000D01*
X33650000Y-3489999D02*
X33580001Y-3489999D01*
X17460000Y-7320000D02*
X17920000Y-7780000D01*
X30420000Y-5040000D02*
X30000000Y-4620000D01*
X34630001Y-3489999D02*
X34640000Y-3480000D01*
X17460000Y-7230000D02*
X17460000Y-7320000D01*
%TO.N,/VS_5V*%
X13710000Y-8050002D02*
X13690001Y-8070001D01*
X16950000Y-7730000D02*
X17000000Y-7780000D01*
X12700000Y-9080000D02*
X12700000Y-8080000D01*
X13680002Y-8080000D02*
X13690001Y-8070001D01*
X13710000Y-7580000D02*
X13710000Y-8050002D01*
X16950000Y-7090000D02*
X16950000Y-7730000D01*
X12700000Y-8080000D02*
X13680002Y-8080000D01*
D27*
%TO.N,Net-(J12-Pin_3)*%
X35660000Y-13480000D02*
X37850000Y-13480000D01*
D26*
%TO.N,/RADIO_NSS*%
X20382510Y-11071870D02*
X21992700Y-12682060D01*
X13940000Y-11550000D02*
X14461280Y-11550000D01*
X21992700Y-12682060D02*
X29761420Y-12682060D01*
X29761420Y-12682060D02*
X30438565Y-13359205D01*
X30438565Y-13359205D02*
X30611845Y-13359205D01*
X14461280Y-11550000D02*
X14939410Y-11071870D01*
X14939410Y-11071870D02*
X20382510Y-11071870D01*
%TO.N,/RADIO_MOSI*%
X28281847Y-14180000D02*
X28862005Y-14180000D01*
X30034557Y-15352552D02*
X31463331Y-15352552D01*
X15990001Y-14050000D02*
X16670001Y-14730000D01*
X26601176Y-13967750D02*
X26703616Y-14070190D01*
X26703616Y-14070190D02*
X28172037Y-14070190D01*
X18422250Y-13967750D02*
X26601176Y-13967750D01*
X28172037Y-14070190D02*
X28281847Y-14180000D01*
X15990001Y-14050000D02*
X13960000Y-14050000D01*
X16670001Y-14730000D02*
X17660000Y-14730000D01*
X17660000Y-14730000D02*
X18422250Y-13967750D01*
X28862005Y-14180000D02*
X30034557Y-15352552D01*
%TO.N,/RADIO_MISO*%
X14530289Y-11839071D02*
X14262223Y-11839071D01*
X13369999Y-13550000D02*
X13764919Y-13550000D01*
X15220000Y-13490000D02*
X13896487Y-13490000D01*
X20279810Y-11319810D02*
X15049550Y-11319810D01*
X13764919Y-13550000D02*
X13860703Y-13454216D01*
X21890000Y-12930000D02*
X20279810Y-11319810D01*
X15600000Y-13110000D02*
X15220000Y-13490000D01*
X30401735Y-13866455D02*
X29465280Y-12930000D01*
X31005975Y-13866455D02*
X30401735Y-13866455D01*
X31820000Y-15840000D02*
X31895581Y-15764419D01*
X14262223Y-11839071D02*
X14119044Y-11982250D01*
X31895581Y-14756061D02*
X31005975Y-13866455D01*
X14119044Y-11982250D02*
X14010390Y-11982250D01*
X15049550Y-11319810D02*
X14530289Y-11839071D01*
X13860703Y-12131937D02*
X13860703Y-13454216D01*
X15990001Y-13110000D02*
X15600000Y-13110000D01*
X14010390Y-11982250D02*
X13860703Y-12131937D01*
X13896487Y-13490000D02*
X13860703Y-13454216D01*
X31895581Y-15764419D02*
X31895581Y-14756061D01*
X29465280Y-12930000D02*
X21890000Y-12930000D01*
D27*
%TO.N,Net-(J12-Pin_1)*%
X35660000Y-18480000D02*
X37850000Y-18480000D01*
D26*
%TO.N,/RADIO_SCK*%
X30116700Y-13932060D02*
X28384547Y-13932060D01*
X16000000Y-12060000D02*
X15972989Y-12087011D01*
X30634395Y-14114395D02*
X30299035Y-14114395D01*
X21127440Y-13430000D02*
X19265190Y-11567750D01*
X28274737Y-13822250D02*
X26806316Y-13822250D01*
X26806316Y-13822250D02*
X26414066Y-13430000D01*
X15972989Y-12087011D02*
X14622989Y-12087011D01*
X19265190Y-11567750D02*
X16492250Y-11567750D01*
X30299035Y-14114395D02*
X30116700Y-13932060D01*
X26414066Y-13430000D02*
X21127440Y-13430000D01*
X28384547Y-13932060D02*
X28274737Y-13822250D01*
X14622989Y-12087011D02*
X14320000Y-12390000D01*
X31080000Y-14560000D02*
X30634395Y-14114395D01*
X16492250Y-11567750D02*
X16000000Y-12060000D01*
%TO.N,/RADIO_RST*%
X21500002Y-15590000D02*
X21820002Y-15910000D01*
X20930000Y-17439476D02*
X20871608Y-17497868D01*
X20930000Y-15590000D02*
X21500002Y-15590000D01*
X20930000Y-15590000D02*
X20930000Y-17439476D01*
%TO.N,Net-(D3-A)*%
X18040000Y-1850000D02*
X18040000Y-2770001D01*
X18040000Y-2770001D02*
X18050000Y-2780001D01*
%TO.N,/PWM1*%
X26110000Y-11860000D02*
X25700000Y-11860000D01*
X10474999Y-2110000D02*
X10474999Y-1790001D01*
X10892237Y-1372763D02*
X12782587Y-1372763D01*
X10474999Y-1790001D02*
X10892237Y-1372763D01*
X25700000Y-11860000D02*
X23960000Y-10120000D01*
X26160000Y-11910000D02*
X26110000Y-11860000D01*
D29*
%TO.N,+5V*%
X6035000Y-760000D02*
X26880000Y-760000D01*
D28*
X4685000Y-19889999D02*
X4685000Y-18630000D01*
D29*
X4685000Y-2110000D02*
X6035000Y-760000D01*
X26880000Y-760000D02*
X29300000Y-3180000D01*
D28*
X4685000Y-18630000D02*
X4685000Y-2110000D01*
D27*
X11680002Y-8080000D02*
X10950000Y-8080000D01*
X10950000Y-8080000D02*
X10920000Y-8110000D01*
D26*
%TO.N,/PWM2*%
X12961631Y-1805013D02*
X12264987Y-1805013D01*
X13400000Y-1370000D02*
X13396644Y-1370000D01*
X12264987Y-1805013D02*
X10474999Y-3595001D01*
X13396644Y-1370000D02*
X12961631Y-1805013D01*
X10474999Y-3595001D02*
X10474999Y-4650000D01*
%TO.N,/PWM3*%
X13130000Y-7190000D02*
X10475000Y-7190000D01*
X13170000Y-7230000D02*
X13130000Y-7190000D01*
%TO.N,/PWM4*%
X11110000Y-10150000D02*
X10895000Y-10150000D01*
X10895000Y-10150000D02*
X10475000Y-9730000D01*
%TO.N,/PWM5*%
X10470000Y-12970000D02*
X10470000Y-12275000D01*
X10470000Y-12275000D02*
X10475000Y-12270000D01*
%TO.N,/PWM6*%
X18070000Y-17466000D02*
X18070000Y-17609996D01*
X14317995Y-16420000D02*
X14517995Y-16220000D01*
X14517995Y-16220000D02*
X16824000Y-16220000D01*
X10950000Y-16420000D02*
X14317995Y-16420000D01*
X16824000Y-16220000D02*
X18070000Y-17466000D01*
X10475000Y-15945000D02*
X10950000Y-16420000D01*
X10475000Y-14810000D02*
X10475000Y-15945000D01*
%TO.N,/PWM7*%
X21680110Y-18087250D02*
X22073882Y-17693478D01*
X20457250Y-18087250D02*
X21680110Y-18087250D01*
X19540000Y-17170000D02*
X20457250Y-18087250D01*
X16142297Y-17280000D02*
X16490337Y-16931960D01*
X17637750Y-17430952D02*
X17637750Y-17789040D01*
X17890956Y-18042246D02*
X18288210Y-18042246D01*
X10475000Y-17350000D02*
X11157060Y-16667940D01*
X18288210Y-18042246D02*
X19160456Y-17170000D01*
X13277300Y-16667940D02*
X13889360Y-17280000D01*
X16490337Y-16931960D02*
X17138758Y-16931960D01*
X19160456Y-17170000D02*
X19540000Y-17170000D01*
X11157060Y-16667940D02*
X13277300Y-16667940D01*
X17637750Y-17789040D02*
X17890956Y-18042246D01*
X17138758Y-16931960D02*
X17637750Y-17430952D01*
X22073882Y-17693478D02*
X22073882Y-17592078D01*
X13889360Y-17280000D02*
X16142297Y-17280000D01*
%TO.N,/PWM8*%
X10475000Y-19890000D02*
X11555000Y-20970000D01*
X16840000Y-20970000D02*
X17196000Y-20614000D01*
X22640000Y-18030000D02*
X22054810Y-18615190D01*
X21470000Y-17570000D02*
X22010000Y-17030000D01*
X17196000Y-20614000D02*
X17196000Y-17660000D01*
X22640000Y-17430000D02*
X22640000Y-18030000D01*
X22010000Y-17030000D02*
X22240000Y-17030000D01*
X22240000Y-17030000D02*
X22640000Y-17430000D01*
X11555000Y-20970000D02*
X16840000Y-20970000D01*
X17196000Y-18615190D02*
X17196000Y-17660000D01*
X22054810Y-18615190D02*
X17196000Y-18615190D01*
X21470000Y-17580000D02*
X21470000Y-17570000D01*
%TO.N,/VBAT_DET*%
X14245990Y-10575990D02*
X20663985Y-10575990D01*
X13700000Y-9099998D02*
X13690001Y-9089999D01*
X33650000Y-9970001D02*
X32980001Y-9970001D01*
X33650000Y-14970001D02*
X33650000Y-14440000D01*
X33650000Y-11850000D02*
X33660000Y-11840000D01*
X29870000Y-12420000D02*
X30240000Y-12790000D01*
X33650000Y-9400000D02*
X33670000Y-9380000D01*
X33650000Y-4970001D02*
X33650000Y-4420000D01*
X33650000Y-14440000D02*
X33640000Y-14430000D01*
X33650000Y-17470001D02*
X33650000Y-16930000D01*
X30240000Y-12790000D02*
X30760000Y-12790000D01*
X21397995Y-11310000D02*
X24720000Y-11310000D01*
X25830000Y-12420000D02*
X29870000Y-12420000D01*
X13700000Y-10330000D02*
X13700000Y-9099998D01*
X32664430Y-14694430D02*
X32664430Y-16190000D01*
X32980001Y-9970001D02*
X32980000Y-9970000D01*
X13700000Y-10330000D02*
X14000000Y-10330000D01*
X24720000Y-11310000D02*
X25830000Y-12420000D01*
X30760000Y-12790000D02*
X32664430Y-14694430D01*
X14000000Y-10330000D02*
X14245990Y-10575990D01*
X33650000Y-2470001D02*
X33650000Y-1920000D01*
X33650000Y-9970001D02*
X33650000Y-9400000D01*
X20663985Y-10575990D02*
X21397995Y-11310000D01*
X33650000Y-12470001D02*
X33650000Y-11850000D01*
X33650000Y-7470001D02*
X33650000Y-6910000D01*
X33650000Y-1920000D02*
X33660000Y-1910000D01*
%TO.N,Net-(U3-MODE)*%
X13020000Y-5710000D02*
X13250001Y-5710000D01*
X13250001Y-5710000D02*
X13640001Y-5320000D01*
%TO.N,Net-(U3-FB)*%
X15720001Y-5670000D02*
X15570000Y-5820001D01*
X15570000Y-4969999D02*
X15570000Y-5820001D01*
X16250000Y-5670000D02*
X15720001Y-5670000D01*
%TO.N,Net-(U3-SS{slash}TR)*%
X13660000Y-6320000D02*
X13690000Y-6290000D01*
X13130000Y-6320000D02*
X13660000Y-6320000D01*
%TO.N,Net-(J10-Pin_4)*%
X26500000Y-5500000D02*
X26850000Y-5150000D01*
X26850000Y-5150000D02*
X26850000Y-4650000D01*
X26189999Y-5500000D02*
X26500000Y-5500000D01*
%TO.N,Net-(J10-Pin_3)*%
X27220000Y-3770000D02*
X28100000Y-4650000D01*
X25170001Y-4500000D02*
X25170001Y-4439999D01*
X25170001Y-4439999D02*
X25840000Y-3770000D01*
X25840000Y-3770000D02*
X27220000Y-3770000D01*
%TD*%
%TA.AperFunction,Conductor*%
%TO.N,GND*%
G36*
X5425074Y-520185D02*
G01*
X5470829Y-572989D01*
X5480773Y-642147D01*
X5451748Y-705703D01*
X5445716Y-712181D01*
X5091002Y-1066893D01*
X5029679Y-1100378D01*
X4967327Y-1097873D01*
X4890932Y-1074699D01*
X4890933Y-1074699D01*
X4705282Y-1056414D01*
X4685000Y-1054417D01*
X4684999Y-1054417D01*
X4479067Y-1074699D01*
X4281043Y-1134769D01*
X4170898Y-1193643D01*
X4098550Y-1232315D01*
X4098548Y-1232316D01*
X4098547Y-1232317D01*
X3938589Y-1363589D01*
X3807317Y-1523547D01*
X3807315Y-1523550D01*
X3789455Y-1556964D01*
X3709769Y-1706043D01*
X3709768Y-1706045D01*
X3709768Y-1706046D01*
X3704321Y-1724002D01*
X3649699Y-1904067D01*
X3629417Y-2110000D01*
X3649699Y-2315932D01*
X3670096Y-2383173D01*
X3709768Y-2513954D01*
X3807315Y-2696450D01*
X3938590Y-2856410D01*
X3939159Y-2856877D01*
X3939379Y-2857199D01*
X3942893Y-2860713D01*
X3942226Y-2861379D01*
X3978496Y-2914618D01*
X3984500Y-2952734D01*
X3984500Y-3807265D01*
X3964815Y-3874304D01*
X3942729Y-3899115D01*
X3942897Y-3899283D01*
X3940021Y-3902158D01*
X3939173Y-3903110D01*
X3938590Y-3903590D01*
X3938588Y-3903592D01*
X3807317Y-4063546D01*
X3709769Y-4246043D01*
X3649699Y-4444067D01*
X3629417Y-4650000D01*
X3649699Y-4855932D01*
X3671788Y-4928750D01*
X3709768Y-5053954D01*
X3807315Y-5236450D01*
X3938590Y-5396410D01*
X3939159Y-5396877D01*
X3939379Y-5397199D01*
X3942893Y-5400713D01*
X3942226Y-5401379D01*
X3978496Y-5454618D01*
X3984500Y-5492734D01*
X3984500Y-6347265D01*
X3964815Y-6414304D01*
X3942729Y-6439115D01*
X3942897Y-6439283D01*
X3940021Y-6442158D01*
X3939173Y-6443110D01*
X3938590Y-6443590D01*
X3938588Y-6443592D01*
X3807317Y-6603546D01*
X3709769Y-6786043D01*
X3709768Y-6786045D01*
X3709768Y-6786046D01*
X3705288Y-6800815D01*
X3649699Y-6984067D01*
X3629417Y-7190000D01*
X3649699Y-7395932D01*
X3674584Y-7477967D01*
X3709768Y-7593954D01*
X3807315Y-7776450D01*
X3938590Y-7936410D01*
X3939159Y-7936877D01*
X3939379Y-7937199D01*
X3942893Y-7940713D01*
X3942226Y-7941379D01*
X3978496Y-7994618D01*
X3984500Y-8032734D01*
X3984500Y-8887265D01*
X3964815Y-8954304D01*
X3942729Y-8979115D01*
X3942897Y-8979283D01*
X3940021Y-8982158D01*
X3939173Y-8983110D01*
X3938590Y-8983590D01*
X3938588Y-8983592D01*
X3807317Y-9143546D01*
X3709769Y-9326043D01*
X3649699Y-9524067D01*
X3629417Y-9730000D01*
X3649699Y-9935932D01*
X3659994Y-9969870D01*
X3709768Y-10133954D01*
X3807315Y-10316450D01*
X3938590Y-10476410D01*
X3939159Y-10476877D01*
X3939379Y-10477199D01*
X3942893Y-10480713D01*
X3942226Y-10481379D01*
X3978496Y-10534618D01*
X3984500Y-10572734D01*
X3984500Y-11427265D01*
X3964815Y-11494304D01*
X3942729Y-11519115D01*
X3942897Y-11519283D01*
X3940021Y-11522158D01*
X3939173Y-11523110D01*
X3938590Y-11523590D01*
X3938588Y-11523592D01*
X3807317Y-11683546D01*
X3709769Y-11866043D01*
X3649699Y-12064067D01*
X3629417Y-12270000D01*
X3649699Y-12475932D01*
X3666175Y-12530247D01*
X3709768Y-12673954D01*
X3807315Y-12856450D01*
X3938590Y-13016410D01*
X3939159Y-13016877D01*
X3939379Y-13017199D01*
X3942893Y-13020713D01*
X3942226Y-13021379D01*
X3978496Y-13074618D01*
X3984500Y-13112734D01*
X3984500Y-13967265D01*
X3964815Y-14034304D01*
X3942729Y-14059115D01*
X3942897Y-14059283D01*
X3940021Y-14062158D01*
X3939173Y-14063110D01*
X3938590Y-14063590D01*
X3938588Y-14063592D01*
X3807317Y-14223546D01*
X3709769Y-14406043D01*
X3649699Y-14604067D01*
X3629417Y-14810000D01*
X3649699Y-15015932D01*
X3662898Y-15059444D01*
X3709768Y-15213954D01*
X3807315Y-15396450D01*
X3938590Y-15556410D01*
X3939159Y-15556877D01*
X3939379Y-15557199D01*
X3942893Y-15560713D01*
X3942226Y-15561379D01*
X3978496Y-15614618D01*
X3984500Y-15652734D01*
X3984500Y-16507265D01*
X3964815Y-16574304D01*
X3942729Y-16599115D01*
X3942897Y-16599283D01*
X3940021Y-16602158D01*
X3939173Y-16603110D01*
X3938590Y-16603590D01*
X3938588Y-16603592D01*
X3807317Y-16763546D01*
X3709769Y-16946043D01*
X3709768Y-16946045D01*
X3709768Y-16946046D01*
X3709620Y-16946533D01*
X3649699Y-17144067D01*
X3629417Y-17350000D01*
X3649699Y-17555932D01*
X3655276Y-17574316D01*
X3709768Y-17753954D01*
X3807315Y-17936450D01*
X3938590Y-18096410D01*
X3939159Y-18096877D01*
X3939379Y-18097199D01*
X3942893Y-18100713D01*
X3942226Y-18101379D01*
X3978496Y-18154618D01*
X3984500Y-18192734D01*
X3984500Y-19047265D01*
X3964815Y-19114304D01*
X3942729Y-19139115D01*
X3942897Y-19139283D01*
X3940021Y-19142158D01*
X3939173Y-19143110D01*
X3938590Y-19143590D01*
X3938588Y-19143592D01*
X3807317Y-19303546D01*
X3709769Y-19486043D01*
X3649699Y-19684067D01*
X3629417Y-19890000D01*
X3649699Y-20095932D01*
X3663067Y-20140000D01*
X3709768Y-20293954D01*
X3807315Y-20476450D01*
X3807317Y-20476452D01*
X3938589Y-20636410D01*
X3987330Y-20676410D01*
X4098550Y-20767685D01*
X4281046Y-20865232D01*
X4479066Y-20925300D01*
X4479065Y-20925300D01*
X4497529Y-20927118D01*
X4685000Y-20945583D01*
X4890934Y-20925300D01*
X5088954Y-20865232D01*
X5271450Y-20767685D01*
X5431410Y-20636410D01*
X5562685Y-20476450D01*
X5660232Y-20293954D01*
X5720300Y-20095934D01*
X5740583Y-19890000D01*
X5720300Y-19684066D01*
X5660232Y-19486046D01*
X5562685Y-19303550D01*
X5553928Y-19292880D01*
X5513633Y-19243780D01*
X5431410Y-19143590D01*
X5430827Y-19143112D01*
X5430604Y-19142784D01*
X5427103Y-19139283D01*
X5427767Y-19138618D01*
X5391498Y-19085365D01*
X5385500Y-19047265D01*
X5385500Y-18192734D01*
X5405185Y-18125695D01*
X5427275Y-18100881D01*
X5427107Y-18100713D01*
X5430003Y-18097816D01*
X5430838Y-18096879D01*
X5431410Y-18096410D01*
X5562685Y-17936450D01*
X5660232Y-17753954D01*
X5720300Y-17555934D01*
X5740583Y-17350000D01*
X5720300Y-17144066D01*
X5660232Y-16946046D01*
X5562685Y-16763550D01*
X5539402Y-16735180D01*
X5513775Y-16703953D01*
X5431410Y-16603590D01*
X5430827Y-16603112D01*
X5430604Y-16602784D01*
X5427103Y-16599283D01*
X5427767Y-16598618D01*
X5391498Y-16545365D01*
X5385500Y-16507265D01*
X5385500Y-15652734D01*
X5405185Y-15585695D01*
X5427275Y-15560881D01*
X5427107Y-15560713D01*
X5430003Y-15557816D01*
X5430838Y-15556879D01*
X5431410Y-15556410D01*
X5562685Y-15396450D01*
X5660232Y-15213954D01*
X5720300Y-15015934D01*
X5740583Y-14810000D01*
X5720300Y-14604066D01*
X5660232Y-14406046D01*
X5562685Y-14223550D01*
X5431410Y-14063590D01*
X5430827Y-14063112D01*
X5430604Y-14062784D01*
X5427103Y-14059283D01*
X5427767Y-14058618D01*
X5391498Y-14005365D01*
X5385500Y-13967265D01*
X5385500Y-13112734D01*
X5405185Y-13045695D01*
X5427275Y-13020881D01*
X5427107Y-13020713D01*
X5430003Y-13017816D01*
X5430838Y-13016879D01*
X5431410Y-13016410D01*
X5562685Y-12856450D01*
X5660232Y-12673954D01*
X5720300Y-12475934D01*
X5740583Y-12270000D01*
X5720300Y-12064066D01*
X5660232Y-11866046D01*
X5562685Y-11683550D01*
X5559136Y-11679226D01*
X5509091Y-11618245D01*
X5431410Y-11523590D01*
X5430827Y-11523112D01*
X5430604Y-11522784D01*
X5427103Y-11519283D01*
X5427767Y-11518618D01*
X5391498Y-11465365D01*
X5385500Y-11427265D01*
X5385500Y-11400247D01*
X6174500Y-11400247D01*
X6174500Y-13139752D01*
X6186131Y-13198229D01*
X6186132Y-13198230D01*
X6230447Y-13264552D01*
X6296769Y-13308867D01*
X6296770Y-13308868D01*
X6355247Y-13320499D01*
X6355250Y-13320500D01*
X6355252Y-13320500D01*
X8094750Y-13320500D01*
X8094751Y-13320499D01*
X8109568Y-13317552D01*
X8153229Y-13308868D01*
X8153229Y-13308867D01*
X8153231Y-13308867D01*
X8219552Y-13264552D01*
X8263867Y-13198231D01*
X8263867Y-13198229D01*
X8263868Y-13198229D01*
X8275499Y-13139752D01*
X8275500Y-13139750D01*
X8275500Y-12672750D01*
X8295185Y-12605711D01*
X8347989Y-12559956D01*
X8399500Y-12548750D01*
X8914537Y-12548750D01*
X8981576Y-12568435D01*
X9026918Y-12620343D01*
X9040936Y-12650404D01*
X9124597Y-12734065D01*
X9231828Y-12784068D01*
X9280684Y-12790500D01*
X9280685Y-12790500D01*
X9629318Y-12790500D01*
X9645602Y-12788356D01*
X9678174Y-12784068D01*
X9785405Y-12734065D01*
X9869066Y-12650404D01*
X9869066Y-12650403D01*
X9876737Y-12642733D01*
X9879565Y-12645561D01*
X9917978Y-12614843D01*
X9987475Y-12607635D01*
X10049836Y-12639143D01*
X10053094Y-12642903D01*
X10053265Y-12642733D01*
X10096913Y-12686381D01*
X10130398Y-12747704D01*
X10125414Y-12817396D01*
X10119719Y-12830353D01*
X10108425Y-12852519D01*
X10108424Y-12852522D01*
X10089819Y-12969996D01*
X10089819Y-12970003D01*
X10108424Y-13087477D01*
X10108424Y-13087478D01*
X10108425Y-13087481D01*
X10108426Y-13087482D01*
X10154089Y-13177101D01*
X10162428Y-13193466D01*
X10162431Y-13193470D01*
X10246529Y-13277568D01*
X10246533Y-13277571D01*
X10246535Y-13277573D01*
X10352518Y-13331574D01*
X10352520Y-13331574D01*
X10352522Y-13331575D01*
X10469997Y-13350181D01*
X10470000Y-13350181D01*
X10470003Y-13350181D01*
X10587477Y-13331575D01*
X10587478Y-13331575D01*
X10587479Y-13331574D01*
X10587482Y-13331574D01*
X10693465Y-13277573D01*
X10777573Y-13193465D01*
X10831574Y-13087482D01*
X10833403Y-13075935D01*
X10850181Y-12970003D01*
X10850181Y-12969996D01*
X10831575Y-12852522D01*
X10831574Y-12852519D01*
X10831574Y-12852518D01*
X10823658Y-12836983D01*
X10810762Y-12768315D01*
X10837038Y-12703575D01*
X10846462Y-12693008D01*
X10866720Y-12672750D01*
X10889066Y-12650404D01*
X10939069Y-12543173D01*
X10945501Y-12494316D01*
X10945501Y-12045684D01*
X10939069Y-11996827D01*
X10889066Y-11889596D01*
X10805405Y-11805935D01*
X10698174Y-11755932D01*
X10698172Y-11755931D01*
X10698173Y-11755931D01*
X10649318Y-11749500D01*
X10649317Y-11749500D01*
X10300685Y-11749500D01*
X10300684Y-11749500D01*
X10251829Y-11755931D01*
X10144596Y-11805935D01*
X10053265Y-11897267D01*
X10050441Y-11894443D01*
X10011959Y-11925183D01*
X9942459Y-11932352D01*
X9880115Y-11900808D01*
X9876902Y-11897101D01*
X9876737Y-11897267D01*
X9785405Y-11805935D01*
X9734186Y-11782051D01*
X9678174Y-11755932D01*
X9678172Y-11755931D01*
X9678173Y-11755931D01*
X9629318Y-11749500D01*
X9629317Y-11749500D01*
X9280685Y-11749500D01*
X9280684Y-11749500D01*
X9231829Y-11755931D01*
X9124596Y-11805935D01*
X9040937Y-11889594D01*
X9040936Y-11889595D01*
X9040936Y-11889596D01*
X9031422Y-11910000D01*
X9026919Y-11919656D01*
X8980746Y-11972095D01*
X8914537Y-11991250D01*
X8399500Y-11991250D01*
X8332461Y-11971565D01*
X8286706Y-11918761D01*
X8275500Y-11867250D01*
X8275500Y-11400249D01*
X8275499Y-11400247D01*
X8263868Y-11341770D01*
X8263867Y-11341769D01*
X8219552Y-11275447D01*
X8153230Y-11231132D01*
X8153229Y-11231131D01*
X8094752Y-11219500D01*
X8094748Y-11219500D01*
X6355252Y-11219500D01*
X6355247Y-11219500D01*
X6296770Y-11231131D01*
X6296769Y-11231132D01*
X6230447Y-11275447D01*
X6186132Y-11341769D01*
X6186131Y-11341770D01*
X6174500Y-11400247D01*
X5385500Y-11400247D01*
X5385500Y-10572734D01*
X5405185Y-10505695D01*
X5427275Y-10480881D01*
X5427107Y-10480713D01*
X5430003Y-10477816D01*
X5430838Y-10476879D01*
X5431410Y-10476410D01*
X5562685Y-10316450D01*
X5660232Y-10133954D01*
X5720300Y-9935934D01*
X5740583Y-9730000D01*
X5720300Y-9524066D01*
X5660232Y-9326046D01*
X5562685Y-9143550D01*
X5553004Y-9131754D01*
X5504316Y-9072427D01*
X5431410Y-8983590D01*
X5430827Y-8983112D01*
X5430604Y-8982784D01*
X5427103Y-8979283D01*
X5427767Y-8978618D01*
X5391498Y-8925365D01*
X5385500Y-8887265D01*
X5385500Y-8860247D01*
X6174500Y-8860247D01*
X6174500Y-10599752D01*
X6186131Y-10658229D01*
X6186132Y-10658230D01*
X6230447Y-10724552D01*
X6296769Y-10768867D01*
X6296770Y-10768868D01*
X6355247Y-10780499D01*
X6355250Y-10780500D01*
X6355252Y-10780500D01*
X8094750Y-10780500D01*
X8094751Y-10780499D01*
X8109568Y-10777552D01*
X8153229Y-10768868D01*
X8153229Y-10768867D01*
X8153231Y-10768867D01*
X8219552Y-10724552D01*
X8263867Y-10658231D01*
X8263867Y-10658229D01*
X8263868Y-10658229D01*
X8275499Y-10599752D01*
X8275500Y-10599750D01*
X8275500Y-10132750D01*
X8295185Y-10065711D01*
X8347989Y-10019956D01*
X8399500Y-10008750D01*
X8914537Y-10008750D01*
X8981576Y-10028435D01*
X9026918Y-10080343D01*
X9040936Y-10110404D01*
X9124597Y-10194065D01*
X9231828Y-10244068D01*
X9280684Y-10250500D01*
X9280685Y-10250500D01*
X9629318Y-10250500D01*
X9645602Y-10248356D01*
X9678174Y-10244068D01*
X9785405Y-10194065D01*
X9869066Y-10110404D01*
X9869066Y-10110403D01*
X9876737Y-10102733D01*
X9879565Y-10105561D01*
X9917978Y-10074843D01*
X9987475Y-10067635D01*
X10049836Y-10099143D01*
X10053094Y-10102903D01*
X10053265Y-10102733D01*
X10060936Y-10110404D01*
X10144597Y-10194065D01*
X10251828Y-10244068D01*
X10300684Y-10250500D01*
X10300685Y-10250500D01*
X10549926Y-10250500D01*
X10616965Y-10270185D01*
X10637607Y-10286819D01*
X10723844Y-10373056D01*
X10723845Y-10373057D01*
X10723847Y-10373058D01*
X10764254Y-10396386D01*
X10778885Y-10404833D01*
X10787407Y-10409753D01*
X10825403Y-10419934D01*
X10880988Y-10452027D01*
X10886529Y-10457568D01*
X10886533Y-10457571D01*
X10886535Y-10457573D01*
X10992518Y-10511574D01*
X10992520Y-10511574D01*
X10992522Y-10511575D01*
X11109997Y-10530181D01*
X11110000Y-10530181D01*
X11110003Y-10530181D01*
X11227477Y-10511575D01*
X11227478Y-10511575D01*
X11227479Y-10511574D01*
X11227482Y-10511574D01*
X11333465Y-10457573D01*
X11417573Y-10373465D01*
X11471574Y-10267482D01*
X11472613Y-10260921D01*
X11490181Y-10150003D01*
X11490181Y-10149996D01*
X11471575Y-10032522D01*
X11471575Y-10032521D01*
X11471574Y-10032519D01*
X11471574Y-10032518D01*
X11417573Y-9926535D01*
X11417571Y-9926533D01*
X11417568Y-9926529D01*
X11354572Y-9863533D01*
X11321087Y-9802210D01*
X11326071Y-9732518D01*
X11367943Y-9676585D01*
X11376591Y-9670664D01*
X11430001Y-9637323D01*
X11430001Y-9330000D01*
X11164148Y-9330000D01*
X11171582Y-9381028D01*
X11161767Y-9450205D01*
X11116111Y-9503094D01*
X11049109Y-9522904D01*
X10982033Y-9503345D01*
X10936495Y-9451308D01*
X10930599Y-9438665D01*
X10889066Y-9349596D01*
X10805405Y-9265935D01*
X10698174Y-9215932D01*
X10698172Y-9215931D01*
X10698173Y-9215931D01*
X10649318Y-9209500D01*
X10649317Y-9209500D01*
X10300685Y-9209500D01*
X10300684Y-9209500D01*
X10251829Y-9215931D01*
X10144596Y-9265935D01*
X10053265Y-9357267D01*
X10050441Y-9354443D01*
X10011959Y-9385183D01*
X9942459Y-9392352D01*
X9880115Y-9360808D01*
X9876902Y-9357101D01*
X9876737Y-9357267D01*
X9785405Y-9265935D01*
X9760964Y-9254538D01*
X9678174Y-9215932D01*
X9678172Y-9215931D01*
X9678173Y-9215931D01*
X9629318Y-9209500D01*
X9629317Y-9209500D01*
X9280685Y-9209500D01*
X9280684Y-9209500D01*
X9231829Y-9215931D01*
X9124596Y-9265935D01*
X9040937Y-9349594D01*
X9026919Y-9379656D01*
X8980746Y-9432095D01*
X8914537Y-9451250D01*
X8399500Y-9451250D01*
X8332461Y-9431565D01*
X8286706Y-9378761D01*
X8275500Y-9327250D01*
X8275500Y-8860249D01*
X8275499Y-8860247D01*
X8263868Y-8801770D01*
X8263867Y-8801769D01*
X8219552Y-8735447D01*
X8153230Y-8691132D01*
X8153229Y-8691131D01*
X8094752Y-8679500D01*
X8094748Y-8679500D01*
X6355252Y-8679500D01*
X6355247Y-8679500D01*
X6296770Y-8691131D01*
X6296769Y-8691132D01*
X6230447Y-8735447D01*
X6186132Y-8801769D01*
X6186131Y-8801770D01*
X6174500Y-8860247D01*
X5385500Y-8860247D01*
X5385500Y-8032734D01*
X5405185Y-7965695D01*
X5427275Y-7940881D01*
X5427107Y-7940713D01*
X5430003Y-7937816D01*
X5430838Y-7936879D01*
X5431410Y-7936410D01*
X5562685Y-7776450D01*
X5660232Y-7593954D01*
X5720300Y-7395934D01*
X5740583Y-7190000D01*
X5720300Y-6984066D01*
X5660232Y-6786046D01*
X5562685Y-6603550D01*
X5561763Y-6602427D01*
X5487401Y-6511816D01*
X5431410Y-6443590D01*
X5430827Y-6443112D01*
X5430604Y-6442784D01*
X5427103Y-6439283D01*
X5427767Y-6438618D01*
X5391498Y-6385365D01*
X5385500Y-6347265D01*
X5385500Y-5492734D01*
X5405185Y-5425695D01*
X5427275Y-5400881D01*
X5427107Y-5400713D01*
X5430003Y-5397816D01*
X5430838Y-5396879D01*
X5431410Y-5396410D01*
X5562685Y-5236450D01*
X5660232Y-5053954D01*
X5720300Y-4855934D01*
X5740583Y-4650000D01*
X5720300Y-4444066D01*
X5660232Y-4246046D01*
X5562685Y-4063550D01*
X5561735Y-4062393D01*
X5522383Y-4014442D01*
X5431410Y-3903590D01*
X5430827Y-3903112D01*
X5430604Y-3902784D01*
X5427103Y-3899283D01*
X5427767Y-3898618D01*
X5391498Y-3845365D01*
X5385500Y-3807265D01*
X5385500Y-2952734D01*
X5405185Y-2885695D01*
X5427275Y-2860881D01*
X5427107Y-2860713D01*
X5430003Y-2857816D01*
X5430838Y-2856879D01*
X5431410Y-2856410D01*
X5562685Y-2696450D01*
X5660232Y-2513954D01*
X5720300Y-2315934D01*
X5740583Y-2110000D01*
X5720300Y-1904066D01*
X5697125Y-1827670D01*
X5696503Y-1757804D01*
X5728104Y-1703997D01*
X5962820Y-1469282D01*
X6024142Y-1435798D01*
X6093834Y-1440782D01*
X6149767Y-1482654D01*
X6174184Y-1548118D01*
X6174500Y-1556964D01*
X6174500Y-2979752D01*
X6186131Y-3038229D01*
X6186132Y-3038230D01*
X6230447Y-3104552D01*
X6296769Y-3148867D01*
X6296770Y-3148868D01*
X6355247Y-3160499D01*
X6355250Y-3160500D01*
X6355252Y-3160500D01*
X8094750Y-3160500D01*
X8094751Y-3160499D01*
X8109568Y-3157552D01*
X8153229Y-3148868D01*
X8153229Y-3148867D01*
X8153231Y-3148867D01*
X8219552Y-3104552D01*
X8263867Y-3038231D01*
X8263867Y-3038229D01*
X8263868Y-3038229D01*
X8275499Y-2979752D01*
X8275500Y-2979750D01*
X8275500Y-2512750D01*
X8295185Y-2445711D01*
X8347989Y-2399956D01*
X8399500Y-2388750D01*
X8914536Y-2388750D01*
X8981575Y-2408435D01*
X9026917Y-2460343D01*
X9040935Y-2490404D01*
X9124596Y-2574065D01*
X9231827Y-2624068D01*
X9280683Y-2630500D01*
X9280684Y-2630500D01*
X9629317Y-2630500D01*
X9645601Y-2628356D01*
X9678173Y-2624068D01*
X9785404Y-2574065D01*
X9869065Y-2490404D01*
X9869065Y-2490403D01*
X9876736Y-2482733D01*
X9879564Y-2485561D01*
X9917977Y-2454843D01*
X9987474Y-2447635D01*
X10049835Y-2479143D01*
X10053093Y-2482903D01*
X10053264Y-2482733D01*
X10060935Y-2490404D01*
X10144596Y-2574065D01*
X10251827Y-2624068D01*
X10300683Y-2630500D01*
X10300684Y-2630500D01*
X10649317Y-2630500D01*
X10661530Y-2628892D01*
X10698173Y-2624068D01*
X10723279Y-2612360D01*
X10792353Y-2601868D01*
X10856137Y-2630386D01*
X10894378Y-2688861D01*
X10894934Y-2758729D01*
X10863364Y-2812423D01*
X10251943Y-3423844D01*
X10231387Y-3459449D01*
X10224336Y-3471665D01*
X10222700Y-3474498D01*
X10222698Y-3474501D01*
X10215246Y-3487406D01*
X10203161Y-3532508D01*
X10199293Y-3546945D01*
X10196249Y-3558304D01*
X10196249Y-4085216D01*
X10176564Y-4152255D01*
X10151911Y-4177908D01*
X10152267Y-4178264D01*
X10053264Y-4277267D01*
X10050440Y-4274443D01*
X10011958Y-4305183D01*
X9942458Y-4312352D01*
X9880114Y-4280808D01*
X9876901Y-4277101D01*
X9876736Y-4277267D01*
X9785404Y-4185935D01*
X9781415Y-4184075D01*
X9678173Y-4135932D01*
X9678171Y-4135931D01*
X9678172Y-4135931D01*
X9629317Y-4129500D01*
X9629316Y-4129500D01*
X9280684Y-4129500D01*
X9280683Y-4129500D01*
X9231828Y-4135931D01*
X9124595Y-4185935D01*
X9040936Y-4269594D01*
X9040935Y-4269595D01*
X9040935Y-4269596D01*
X9027492Y-4298426D01*
X9026918Y-4299656D01*
X8980745Y-4352095D01*
X8914536Y-4371250D01*
X8399500Y-4371250D01*
X8332461Y-4351565D01*
X8286706Y-4298761D01*
X8275500Y-4247250D01*
X8275500Y-3780249D01*
X8275499Y-3780247D01*
X8263868Y-3721770D01*
X8263867Y-3721769D01*
X8219552Y-3655447D01*
X8153230Y-3611132D01*
X8153229Y-3611131D01*
X8094752Y-3599500D01*
X8094748Y-3599500D01*
X6355252Y-3599500D01*
X6355247Y-3599500D01*
X6296770Y-3611131D01*
X6296769Y-3611132D01*
X6230447Y-3655447D01*
X6186132Y-3721769D01*
X6186131Y-3721770D01*
X6174500Y-3780247D01*
X6174500Y-5519752D01*
X6186131Y-5578229D01*
X6186132Y-5578230D01*
X6230447Y-5644552D01*
X6296769Y-5688867D01*
X6296770Y-5688868D01*
X6355247Y-5700499D01*
X6355250Y-5700500D01*
X6355252Y-5700500D01*
X8094750Y-5700500D01*
X8094751Y-5700499D01*
X8109568Y-5697552D01*
X8153229Y-5688868D01*
X8153229Y-5688867D01*
X8153231Y-5688867D01*
X8219552Y-5644552D01*
X8263867Y-5578231D01*
X8263867Y-5578229D01*
X8263868Y-5578229D01*
X8273249Y-5531063D01*
X8275500Y-5519748D01*
X8275500Y-5052750D01*
X8295185Y-4985711D01*
X8347989Y-4939956D01*
X8399500Y-4928750D01*
X8914536Y-4928750D01*
X8981575Y-4948435D01*
X9026917Y-5000343D01*
X9040935Y-5030404D01*
X9124596Y-5114065D01*
X9231827Y-5164068D01*
X9280683Y-5170500D01*
X9280684Y-5170500D01*
X9629317Y-5170500D01*
X9645601Y-5168356D01*
X9678173Y-5164068D01*
X9785404Y-5114065D01*
X9869065Y-5030404D01*
X9869065Y-5030403D01*
X9876736Y-5022733D01*
X9879564Y-5025561D01*
X9917977Y-4994843D01*
X9987474Y-4987635D01*
X10049835Y-5019143D01*
X10053093Y-5022903D01*
X10053264Y-5022733D01*
X10060935Y-5030404D01*
X10144596Y-5114065D01*
X10251827Y-5164068D01*
X10300683Y-5170500D01*
X10300684Y-5170500D01*
X10465958Y-5170500D01*
X10532997Y-5190185D01*
X10578752Y-5242989D01*
X10588696Y-5276853D01*
X10589867Y-5284999D01*
X10589867Y-5285000D01*
X10590980Y-5292741D01*
X10608302Y-5413225D01*
X10656951Y-5519750D01*
X10662118Y-5531063D01*
X10746951Y-5628967D01*
X10855931Y-5699004D01*
X10942138Y-5724316D01*
X10980225Y-5735499D01*
X10980227Y-5735500D01*
X10980228Y-5735500D01*
X11109773Y-5735500D01*
X11109773Y-5735499D01*
X11234069Y-5699004D01*
X11343049Y-5628967D01*
X11427882Y-5531063D01*
X11481697Y-5413226D01*
X11500133Y-5285000D01*
X11481697Y-5156774D01*
X11427882Y-5038937D01*
X11343049Y-4941033D01*
X11234069Y-4870996D01*
X11234065Y-4870994D01*
X11234064Y-4870994D01*
X11109774Y-4834500D01*
X11109772Y-4834500D01*
X11069500Y-4834500D01*
X11002461Y-4814815D01*
X10956706Y-4762011D01*
X10945500Y-4710500D01*
X10945500Y-4425683D01*
X10939068Y-4376828D01*
X10936467Y-4371250D01*
X10889065Y-4269596D01*
X10805404Y-4185935D01*
X10797733Y-4178264D01*
X10798886Y-4177110D01*
X10762997Y-4132204D01*
X10753749Y-4085215D01*
X10753749Y-3761825D01*
X10773434Y-3694786D01*
X10790068Y-3674144D01*
X12344130Y-2120082D01*
X12405453Y-2086597D01*
X12431811Y-2083763D01*
X12998327Y-2083763D01*
X12998329Y-2083763D01*
X13069224Y-2064766D01*
X13084520Y-2055935D01*
X13132788Y-2028068D01*
X13384196Y-1776658D01*
X13445515Y-1743176D01*
X13452434Y-1741876D01*
X13517482Y-1731574D01*
X13623465Y-1677573D01*
X13707573Y-1593465D01*
X13761574Y-1487482D01*
X13762339Y-1482654D01*
X13780181Y-1370003D01*
X13780181Y-1369995D01*
X13777631Y-1353898D01*
X13786586Y-1284605D01*
X13831582Y-1231153D01*
X13898333Y-1210513D01*
X13900104Y-1210500D01*
X16857815Y-1210500D01*
X16924854Y-1230185D01*
X16970609Y-1282989D01*
X16980553Y-1352147D01*
X16980288Y-1353898D01*
X16969819Y-1419997D01*
X16969819Y-1420003D01*
X16988424Y-1537477D01*
X16988424Y-1537478D01*
X16988425Y-1537481D01*
X16988426Y-1537482D01*
X17018207Y-1595931D01*
X17042428Y-1643466D01*
X17042431Y-1643470D01*
X17126529Y-1727568D01*
X17126533Y-1727571D01*
X17126535Y-1727573D01*
X17232518Y-1781574D01*
X17232520Y-1781574D01*
X17232522Y-1781575D01*
X17349997Y-1800181D01*
X17350000Y-1800181D01*
X17350003Y-1800181D01*
X17467477Y-1781575D01*
X17467477Y-1781574D01*
X17467482Y-1781574D01*
X17483359Y-1773484D01*
X17552024Y-1760587D01*
X17616765Y-1786861D01*
X17657024Y-1843966D01*
X17662126Y-1864570D01*
X17678424Y-1967478D01*
X17678425Y-1967481D01*
X17678426Y-1967482D01*
X17732112Y-2072847D01*
X17732429Y-2073468D01*
X17737568Y-2080541D01*
X17761048Y-2146347D01*
X17761250Y-2153426D01*
X17761250Y-2244198D01*
X17741565Y-2311237D01*
X17689658Y-2356579D01*
X17669596Y-2365934D01*
X17585935Y-2449595D01*
X17535931Y-2556828D01*
X17529500Y-2605683D01*
X17529500Y-2954316D01*
X17535931Y-3003171D01*
X17585935Y-3110404D01*
X17677267Y-3201736D01*
X17674443Y-3204559D01*
X17705183Y-3243042D01*
X17712352Y-3312542D01*
X17680808Y-3374886D01*
X17677101Y-3378098D01*
X17677267Y-3378264D01*
X17617351Y-3438180D01*
X17556028Y-3471665D01*
X17529670Y-3474499D01*
X16778381Y-3474499D01*
X16778365Y-3474498D01*
X16770769Y-3474498D01*
X16685063Y-3474498D01*
X16650074Y-3483873D01*
X16602278Y-3496680D01*
X16567607Y-3516698D01*
X16567604Y-3516699D01*
X16549494Y-3527154D01*
X16481594Y-3543624D01*
X16415568Y-3520770D01*
X16372379Y-3465847D01*
X16364761Y-3437417D01*
X16346697Y-3311774D01*
X16292882Y-3193937D01*
X16208049Y-3096033D01*
X16099069Y-3025996D01*
X16099065Y-3025994D01*
X16099064Y-3025994D01*
X15974774Y-2989500D01*
X15974772Y-2989500D01*
X15845228Y-2989500D01*
X15845226Y-2989500D01*
X15720935Y-3025994D01*
X15720932Y-3025995D01*
X15720931Y-3025996D01*
X15669677Y-3058934D01*
X15611950Y-3096033D01*
X15527118Y-3193937D01*
X15527117Y-3193938D01*
X15473302Y-3311774D01*
X15464479Y-3373147D01*
X15435454Y-3436702D01*
X15376676Y-3474477D01*
X15349677Y-3478358D01*
X15349735Y-3479234D01*
X15345689Y-3479499D01*
X15296828Y-3485931D01*
X15189595Y-3535935D01*
X15105935Y-3619595D01*
X15055931Y-3726828D01*
X15049500Y-3775683D01*
X15049500Y-4124316D01*
X15055931Y-4173171D01*
X15105935Y-4280404D01*
X15197267Y-4371736D01*
X15194443Y-4374559D01*
X15225183Y-4413042D01*
X15232352Y-4482542D01*
X15200808Y-4544886D01*
X15197101Y-4548098D01*
X15197267Y-4548264D01*
X15105936Y-4639594D01*
X15105935Y-4639595D01*
X15105935Y-4639596D01*
X15101084Y-4650000D01*
X15076199Y-4703365D01*
X15030026Y-4755804D01*
X14962832Y-4774955D01*
X14910189Y-4762556D01*
X14910000Y-4762674D01*
X14910000Y-5958638D01*
X14900000Y-5992693D01*
X14900000Y-6837438D01*
X14917213Y-6852141D01*
X14925894Y-6853263D01*
X14979346Y-6898258D01*
X14999987Y-6965009D01*
X15000000Y-6966779D01*
X15000000Y-7011533D01*
X15010903Y-7086374D01*
X15067336Y-7201810D01*
X15158188Y-7292662D01*
X15166669Y-7296808D01*
X15218253Y-7343934D01*
X15236170Y-7411468D01*
X15214732Y-7477967D01*
X15199895Y-7495892D01*
X15103038Y-7592750D01*
X15006945Y-7688843D01*
X14977643Y-7739596D01*
X14972953Y-7747718D01*
X14970246Y-7752408D01*
X14951250Y-7823299D01*
X14951250Y-8807250D01*
X14931565Y-8874289D01*
X14878761Y-8920044D01*
X14827250Y-8931250D01*
X14753651Y-8931250D01*
X14686612Y-8911565D01*
X14665970Y-8894931D01*
X14593470Y-8822431D01*
X14593466Y-8822428D01*
X14593465Y-8822427D01*
X14487482Y-8768426D01*
X14487480Y-8768425D01*
X14487477Y-8768424D01*
X14370003Y-8749819D01*
X14369997Y-8749819D01*
X14242879Y-8769952D01*
X14242466Y-8767344D01*
X14187290Y-8768915D01*
X14131143Y-8736673D01*
X14062734Y-8668264D01*
X14065562Y-8665435D01*
X14034844Y-8627023D01*
X14027636Y-8557526D01*
X14059144Y-8495165D01*
X14062904Y-8491906D01*
X14062734Y-8491736D01*
X14105627Y-8448843D01*
X14154066Y-8400404D01*
X14204069Y-8293173D01*
X14210501Y-8244316D01*
X14210501Y-7895684D01*
X14209770Y-7890135D01*
X14207285Y-7871255D01*
X14204069Y-7846827D01*
X14154066Y-7739596D01*
X14121770Y-7707300D01*
X14088285Y-7645977D01*
X14086978Y-7600221D01*
X14090181Y-7580000D01*
X14090181Y-7579998D01*
X14090181Y-7579996D01*
X14071575Y-7462522D01*
X14071575Y-7462521D01*
X14071574Y-7462519D01*
X14071574Y-7462518D01*
X14017573Y-7356535D01*
X14017571Y-7356533D01*
X14017568Y-7356529D01*
X13933470Y-7272431D01*
X13933466Y-7272428D01*
X13933465Y-7272427D01*
X13827482Y-7218426D01*
X13827480Y-7218425D01*
X13827477Y-7218424D01*
X13710003Y-7199819D01*
X13709996Y-7199819D01*
X13671885Y-7205855D01*
X13602592Y-7196900D01*
X13549140Y-7151903D01*
X13534557Y-7121700D01*
X13531574Y-7112520D01*
X13531574Y-7112518D01*
X13477573Y-7006535D01*
X13477571Y-7006533D01*
X13471834Y-6998636D01*
X13474690Y-6996560D01*
X13449734Y-6950857D01*
X13454718Y-6881165D01*
X13496590Y-6825232D01*
X13562054Y-6800815D01*
X13570876Y-6800499D01*
X13869900Y-6800499D01*
X13919487Y-6793972D01*
X14028316Y-6743224D01*
X14047319Y-6724220D01*
X14108638Y-6690737D01*
X14178329Y-6695720D01*
X14222679Y-6724222D01*
X14277901Y-6779444D01*
X14277906Y-6779447D01*
X14387983Y-6835535D01*
X14400000Y-6837438D01*
X14400000Y-5661362D01*
X14410000Y-5627306D01*
X14410000Y-4762674D01*
X14298193Y-4817333D01*
X14202678Y-4912848D01*
X14141355Y-4946332D01*
X14071663Y-4941348D01*
X14027316Y-4912847D01*
X13970404Y-4855935D01*
X13942650Y-4842993D01*
X13863173Y-4805932D01*
X13863171Y-4805931D01*
X13863172Y-4805931D01*
X13814317Y-4799500D01*
X13814316Y-4799500D01*
X13465684Y-4799500D01*
X13465683Y-4799500D01*
X13416828Y-4805931D01*
X13309595Y-4855935D01*
X13225935Y-4939595D01*
X13175931Y-5046828D01*
X13169500Y-5095683D01*
X13169500Y-5208312D01*
X13149815Y-5275351D01*
X13097011Y-5321106D01*
X13027853Y-5331050D01*
X13026155Y-5330793D01*
X13020000Y-5329819D01*
X13019998Y-5329819D01*
X13019997Y-5329819D01*
X12902522Y-5348424D01*
X12902521Y-5348424D01*
X12796533Y-5402428D01*
X12796529Y-5402431D01*
X12712431Y-5486529D01*
X12712428Y-5486533D01*
X12658424Y-5592521D01*
X12658424Y-5592522D01*
X12639819Y-5709996D01*
X12639819Y-5710003D01*
X12658424Y-5827477D01*
X12658424Y-5827478D01*
X12658425Y-5827481D01*
X12658426Y-5827482D01*
X12706424Y-5921684D01*
X12712428Y-5933466D01*
X12712431Y-5933470D01*
X12776636Y-5997675D01*
X12810121Y-6058998D01*
X12805137Y-6128690D01*
X12799444Y-6141640D01*
X12794608Y-6151133D01*
X12768424Y-6202521D01*
X12768424Y-6202522D01*
X12749819Y-6319996D01*
X12749819Y-6320003D01*
X12768424Y-6437477D01*
X12768424Y-6437478D01*
X12768425Y-6437481D01*
X12768426Y-6437482D01*
X12800535Y-6500500D01*
X12822428Y-6543466D01*
X12822431Y-6543470D01*
X12906529Y-6627568D01*
X12906531Y-6627569D01*
X12906535Y-6627573D01*
X12999039Y-6674706D01*
X13049834Y-6722680D01*
X13066629Y-6790501D01*
X13044092Y-6856635D01*
X12999049Y-6895669D01*
X12995007Y-6897729D01*
X12938701Y-6911250D01*
X11015465Y-6911250D01*
X10948426Y-6891565D01*
X10903083Y-6839656D01*
X10902666Y-6838761D01*
X10889066Y-6809596D01*
X10805405Y-6725935D01*
X10698174Y-6675932D01*
X10698172Y-6675931D01*
X10698173Y-6675931D01*
X10649318Y-6669500D01*
X10649317Y-6669500D01*
X10300685Y-6669500D01*
X10300684Y-6669500D01*
X10251829Y-6675931D01*
X10144596Y-6725935D01*
X10053265Y-6817267D01*
X10050441Y-6814443D01*
X10011959Y-6845183D01*
X9942459Y-6852352D01*
X9880115Y-6820808D01*
X9876902Y-6817101D01*
X9876737Y-6817267D01*
X9785405Y-6725935D01*
X9749026Y-6708971D01*
X9678174Y-6675932D01*
X9678172Y-6675931D01*
X9678173Y-6675931D01*
X9629318Y-6669500D01*
X9629317Y-6669500D01*
X9280685Y-6669500D01*
X9280684Y-6669500D01*
X9231829Y-6675931D01*
X9124596Y-6725935D01*
X9040937Y-6809594D01*
X9040936Y-6809595D01*
X9040936Y-6809596D01*
X9027645Y-6838100D01*
X9026919Y-6839656D01*
X8980746Y-6892095D01*
X8914537Y-6911250D01*
X8399500Y-6911250D01*
X8332461Y-6891565D01*
X8286706Y-6838761D01*
X8275500Y-6787250D01*
X8275500Y-6320249D01*
X8275499Y-6320247D01*
X8263868Y-6261770D01*
X8263867Y-6261769D01*
X8219552Y-6195447D01*
X8153230Y-6151132D01*
X8153229Y-6151131D01*
X8094752Y-6139500D01*
X8094748Y-6139500D01*
X6355252Y-6139500D01*
X6355247Y-6139500D01*
X6296770Y-6151131D01*
X6296769Y-6151132D01*
X6230447Y-6195447D01*
X6186132Y-6261769D01*
X6186131Y-6261770D01*
X6174500Y-6320247D01*
X6174500Y-8059752D01*
X6186131Y-8118229D01*
X6186132Y-8118230D01*
X6230447Y-8184552D01*
X6296769Y-8228867D01*
X6296770Y-8228868D01*
X6355247Y-8240499D01*
X6355250Y-8240500D01*
X6355252Y-8240500D01*
X8094750Y-8240500D01*
X8094751Y-8240499D01*
X8109568Y-8237552D01*
X8153229Y-8228868D01*
X8153229Y-8228867D01*
X8153231Y-8228867D01*
X8219552Y-8184552D01*
X8263867Y-8118231D01*
X8263867Y-8118229D01*
X8263868Y-8118229D01*
X8275499Y-8059752D01*
X8275500Y-8059750D01*
X8275500Y-7592750D01*
X8295185Y-7525711D01*
X8347989Y-7479956D01*
X8399500Y-7468750D01*
X8914537Y-7468750D01*
X8981576Y-7488435D01*
X9026918Y-7540343D01*
X9040936Y-7570404D01*
X9124597Y-7654065D01*
X9231828Y-7704068D01*
X9280684Y-7710500D01*
X9280685Y-7710500D01*
X9629318Y-7710500D01*
X9645602Y-7708356D01*
X9678174Y-7704068D01*
X9785405Y-7654065D01*
X9869066Y-7570404D01*
X9869066Y-7570403D01*
X9876737Y-7562733D01*
X9879565Y-7565561D01*
X9917978Y-7534843D01*
X9987475Y-7527635D01*
X10049836Y-7559143D01*
X10053094Y-7562903D01*
X10053265Y-7562733D01*
X10060936Y-7570404D01*
X10144597Y-7654065D01*
X10251828Y-7704068D01*
X10300684Y-7710500D01*
X10414242Y-7710500D01*
X10481281Y-7730185D01*
X10527036Y-7782989D01*
X10536980Y-7852147D01*
X10527036Y-7886011D01*
X10483303Y-7981772D01*
X10483302Y-7981773D01*
X10464867Y-8110000D01*
X10483302Y-8238225D01*
X10532031Y-8344924D01*
X10537118Y-8356063D01*
X10621951Y-8453967D01*
X10730931Y-8524004D01*
X10855225Y-8560499D01*
X10855227Y-8560500D01*
X10855228Y-8560500D01*
X10984772Y-8560500D01*
X10985835Y-8560188D01*
X11059600Y-8538529D01*
X11129470Y-8538529D01*
X11188248Y-8576304D01*
X11217273Y-8639859D01*
X11207329Y-8709018D01*
X11205936Y-8711966D01*
X11170904Y-8783625D01*
X11170902Y-8783629D01*
X11164146Y-8829999D01*
X11164147Y-8830000D01*
X11556001Y-8830000D01*
X11623040Y-8849685D01*
X11668795Y-8902489D01*
X11680001Y-8954000D01*
X11680001Y-9080000D01*
X11806001Y-9080000D01*
X11873040Y-9099685D01*
X11918795Y-9152489D01*
X11930001Y-9204000D01*
X11930001Y-9637323D01*
X12041809Y-9582664D01*
X12137321Y-9487152D01*
X12198644Y-9453667D01*
X12268336Y-9458651D01*
X12312684Y-9487152D01*
X12369597Y-9544065D01*
X12476828Y-9594068D01*
X12525684Y-9600500D01*
X12525685Y-9600500D01*
X12874318Y-9600500D01*
X12890602Y-9598356D01*
X12923174Y-9594068D01*
X13030405Y-9544065D01*
X13102320Y-9472150D01*
X13163643Y-9438665D01*
X13233335Y-9443649D01*
X13277682Y-9472150D01*
X13309597Y-9504065D01*
X13349654Y-9522744D01*
X13402094Y-9568916D01*
X13421250Y-9635126D01*
X13421250Y-10026573D01*
X13401565Y-10093612D01*
X13397571Y-10099455D01*
X13392428Y-10106533D01*
X13338424Y-10212521D01*
X13338424Y-10212522D01*
X13319819Y-10329996D01*
X13319819Y-10329997D01*
X13319819Y-10330000D01*
X13326638Y-10373054D01*
X13331188Y-10401783D01*
X13322232Y-10471077D01*
X13277235Y-10524528D01*
X13210483Y-10545167D01*
X13208714Y-10545180D01*
X12859372Y-10545180D01*
X12803459Y-10560161D01*
X12803458Y-10560162D01*
X12788476Y-10564177D01*
X12724913Y-10600874D01*
X11636944Y-11688843D01*
X11608042Y-11738906D01*
X11608041Y-11738907D01*
X11600247Y-11752405D01*
X11581250Y-11823303D01*
X11581250Y-15262323D01*
X11561565Y-15329362D01*
X11508761Y-15375117D01*
X11439603Y-15385061D01*
X11400961Y-15372811D01*
X11400617Y-15372636D01*
X11397281Y-15370936D01*
X11397279Y-15370935D01*
X11397276Y-15370934D01*
X11279802Y-15352329D01*
X11279796Y-15352329D01*
X11162321Y-15370934D01*
X11162320Y-15370934D01*
X11056332Y-15424938D01*
X11056328Y-15424941D01*
X10965431Y-15515839D01*
X10904108Y-15549324D01*
X10834416Y-15544340D01*
X10778483Y-15502468D01*
X10754066Y-15437004D01*
X10753750Y-15428158D01*
X10753750Y-15374784D01*
X10773435Y-15307745D01*
X10798089Y-15282091D01*
X10797734Y-15281736D01*
X10839983Y-15239487D01*
X10889066Y-15190404D01*
X10939069Y-15083173D01*
X10945501Y-15034316D01*
X10945501Y-14585684D01*
X10944911Y-14581206D01*
X10940564Y-14548181D01*
X10939069Y-14536827D01*
X10889066Y-14429596D01*
X10805405Y-14345935D01*
X10698174Y-14295932D01*
X10698172Y-14295931D01*
X10698173Y-14295931D01*
X10649318Y-14289500D01*
X10649317Y-14289500D01*
X10300685Y-14289500D01*
X10300684Y-14289500D01*
X10251829Y-14295931D01*
X10144596Y-14345935D01*
X10053265Y-14437267D01*
X10050441Y-14434443D01*
X10011959Y-14465183D01*
X9942459Y-14472352D01*
X9880115Y-14440808D01*
X9876902Y-14437101D01*
X9876737Y-14437267D01*
X9785405Y-14345935D01*
X9767207Y-14337449D01*
X9678174Y-14295932D01*
X9678172Y-14295931D01*
X9678173Y-14295931D01*
X9629318Y-14289500D01*
X9629317Y-14289500D01*
X9280685Y-14289500D01*
X9280684Y-14289500D01*
X9231829Y-14295931D01*
X9124596Y-14345935D01*
X9040937Y-14429594D01*
X9040936Y-14429595D01*
X9040936Y-14429596D01*
X9030628Y-14451703D01*
X9026919Y-14459656D01*
X8980746Y-14512095D01*
X8914537Y-14531250D01*
X8399500Y-14531250D01*
X8332461Y-14511565D01*
X8286706Y-14458761D01*
X8275500Y-14407250D01*
X8275500Y-13940249D01*
X8275499Y-13940247D01*
X8263868Y-13881770D01*
X8263867Y-13881769D01*
X8219552Y-13815447D01*
X8153230Y-13771132D01*
X8153229Y-13771131D01*
X8094752Y-13759500D01*
X8094748Y-13759500D01*
X6355252Y-13759500D01*
X6355247Y-13759500D01*
X6296770Y-13771131D01*
X6296769Y-13771132D01*
X6230447Y-13815447D01*
X6186132Y-13881769D01*
X6186131Y-13881770D01*
X6174500Y-13940247D01*
X6174500Y-15679752D01*
X6186131Y-15738229D01*
X6186132Y-15738230D01*
X6230447Y-15804552D01*
X6296769Y-15848867D01*
X6296770Y-15848868D01*
X6355247Y-15860499D01*
X6355250Y-15860500D01*
X6355252Y-15860500D01*
X8094750Y-15860500D01*
X8094751Y-15860499D01*
X8109568Y-15857552D01*
X8153229Y-15848868D01*
X8153229Y-15848867D01*
X8153231Y-15848867D01*
X8219552Y-15804552D01*
X8263867Y-15738231D01*
X8263867Y-15738229D01*
X8263868Y-15738229D01*
X8275499Y-15679752D01*
X8275500Y-15679750D01*
X8275500Y-15212750D01*
X8295185Y-15145711D01*
X8347989Y-15099956D01*
X8399500Y-15088750D01*
X8914537Y-15088750D01*
X8981576Y-15108435D01*
X9026918Y-15160343D01*
X9040936Y-15190404D01*
X9124597Y-15274065D01*
X9231828Y-15324068D01*
X9280684Y-15330500D01*
X9280685Y-15330500D01*
X9629318Y-15330500D01*
X9645602Y-15328356D01*
X9678174Y-15324068D01*
X9785405Y-15274065D01*
X9869066Y-15190404D01*
X9869066Y-15190403D01*
X9876737Y-15182733D01*
X9879565Y-15185561D01*
X9917978Y-15154843D01*
X9987475Y-15147635D01*
X10049836Y-15179143D01*
X10053094Y-15182903D01*
X10053265Y-15182733D01*
X10152268Y-15281736D01*
X10151112Y-15282891D01*
X10186996Y-15327777D01*
X10196250Y-15374782D01*
X10196250Y-15981698D01*
X10206970Y-16021705D01*
X10212721Y-16043164D01*
X10212721Y-16043171D01*
X10212723Y-16043171D01*
X10215247Y-16052593D01*
X10251942Y-16116153D01*
X10251946Y-16116158D01*
X10695606Y-16559819D01*
X10729091Y-16621142D01*
X10724107Y-16690834D01*
X10695607Y-16735180D01*
X10637608Y-16793180D01*
X10576285Y-16826666D01*
X10549926Y-16829500D01*
X10300684Y-16829500D01*
X10251829Y-16835931D01*
X10144596Y-16885935D01*
X10053265Y-16977267D01*
X10050441Y-16974443D01*
X10011959Y-17005183D01*
X9942459Y-17012352D01*
X9880115Y-16980808D01*
X9876902Y-16977101D01*
X9876737Y-16977267D01*
X9785405Y-16885935D01*
X9781416Y-16884075D01*
X9678174Y-16835932D01*
X9678172Y-16835931D01*
X9678173Y-16835931D01*
X9629318Y-16829500D01*
X9629317Y-16829500D01*
X9280685Y-16829500D01*
X9280684Y-16829500D01*
X9231829Y-16835931D01*
X9124596Y-16885935D01*
X9040937Y-16969594D01*
X9040936Y-16969595D01*
X9040936Y-16969596D01*
X9031361Y-16990131D01*
X9026919Y-16999656D01*
X8980746Y-17052095D01*
X8914537Y-17071250D01*
X8399500Y-17071250D01*
X8332461Y-17051565D01*
X8286706Y-16998761D01*
X8275500Y-16947250D01*
X8275500Y-16480249D01*
X8275499Y-16480247D01*
X8263868Y-16421770D01*
X8263867Y-16421769D01*
X8219552Y-16355447D01*
X8153230Y-16311132D01*
X8153229Y-16311131D01*
X8094752Y-16299500D01*
X8094748Y-16299500D01*
X6355252Y-16299500D01*
X6355247Y-16299500D01*
X6296770Y-16311131D01*
X6296769Y-16311132D01*
X6230447Y-16355447D01*
X6186132Y-16421769D01*
X6186131Y-16421770D01*
X6174500Y-16480247D01*
X6174500Y-18219752D01*
X6186131Y-18278229D01*
X6186132Y-18278230D01*
X6230447Y-18344552D01*
X6296769Y-18388867D01*
X6296770Y-18388868D01*
X6355247Y-18400499D01*
X6355250Y-18400500D01*
X6355252Y-18400500D01*
X8094750Y-18400500D01*
X8094751Y-18400499D01*
X8109568Y-18397552D01*
X8153229Y-18388868D01*
X8153229Y-18388867D01*
X8153231Y-18388867D01*
X8219552Y-18344552D01*
X8263867Y-18278231D01*
X8263867Y-18278229D01*
X8263868Y-18278229D01*
X8275499Y-18219752D01*
X8275500Y-18219750D01*
X8275500Y-17752750D01*
X8295185Y-17685711D01*
X8347989Y-17639956D01*
X8399500Y-17628750D01*
X8914537Y-17628750D01*
X8981576Y-17648435D01*
X9026918Y-17700343D01*
X9040936Y-17730404D01*
X9124597Y-17814065D01*
X9231828Y-17864068D01*
X9280684Y-17870500D01*
X9280685Y-17870500D01*
X9629318Y-17870500D01*
X9645602Y-17868356D01*
X9678174Y-17864068D01*
X9785405Y-17814065D01*
X9869066Y-17730404D01*
X9869066Y-17730403D01*
X9876737Y-17722733D01*
X9879565Y-17725561D01*
X9917978Y-17694843D01*
X9987475Y-17687635D01*
X10049836Y-17719143D01*
X10053094Y-17722903D01*
X10053265Y-17722733D01*
X10060936Y-17730404D01*
X10144597Y-17814065D01*
X10251828Y-17864068D01*
X10300684Y-17870500D01*
X10300685Y-17870500D01*
X10649318Y-17870500D01*
X10665602Y-17868356D01*
X10698174Y-17864068D01*
X10805405Y-17814065D01*
X10813453Y-17806016D01*
X10874770Y-17772530D01*
X10944462Y-17777510D01*
X10968176Y-17789380D01*
X10990932Y-17804005D01*
X11115225Y-17840499D01*
X11115227Y-17840500D01*
X11115228Y-17840500D01*
X11244773Y-17840500D01*
X11244773Y-17840499D01*
X11362084Y-17806055D01*
X11369066Y-17804005D01*
X11369066Y-17804004D01*
X11369069Y-17804004D01*
X11437252Y-17760184D01*
X11504286Y-17740499D01*
X11642075Y-17740499D01*
X11709114Y-17760184D01*
X11754869Y-17812988D01*
X11764813Y-17882146D01*
X11764437Y-17883874D01*
X11758952Y-17922021D01*
X11755990Y-17936462D01*
X11749501Y-17960681D01*
X11749500Y-17960689D01*
X11749500Y-17978904D01*
X11748238Y-17996550D01*
X11744867Y-18019997D01*
X11744867Y-18019998D01*
X11748238Y-18043443D01*
X11749500Y-18061090D01*
X11749500Y-18079308D01*
X11755991Y-18103535D01*
X11758952Y-18117974D01*
X11763301Y-18148220D01*
X11763302Y-18148223D01*
X11770286Y-18163516D01*
X11777264Y-18182925D01*
X11780200Y-18193882D01*
X11796169Y-18221541D01*
X11801574Y-18232025D01*
X11817118Y-18266061D01*
X11823612Y-18273556D01*
X11837291Y-18292765D01*
X11839510Y-18296610D01*
X11866920Y-18324020D01*
X11872952Y-18330498D01*
X11901951Y-18363965D01*
X11904485Y-18365593D01*
X11916897Y-18375596D01*
X11916941Y-18375540D01*
X11923381Y-18380481D01*
X11923387Y-18380487D01*
X11958049Y-18400499D01*
X11962878Y-18403287D01*
X11967918Y-18406359D01*
X12010930Y-18434002D01*
X12012226Y-18434593D01*
X12021171Y-18437749D01*
X12026107Y-18439793D01*
X12026114Y-18439797D01*
X12074940Y-18452879D01*
X12076778Y-18453372D01*
X12079580Y-18454158D01*
X12135228Y-18470498D01*
X12140691Y-18470498D01*
X13857033Y-18470498D01*
X13924072Y-18490183D01*
X13944714Y-18506817D01*
X14055716Y-18617819D01*
X14089201Y-18679142D01*
X14084217Y-18748834D01*
X14042345Y-18804767D01*
X13976881Y-18829184D01*
X13968035Y-18829500D01*
X12545247Y-18829500D01*
X12486770Y-18841131D01*
X12486769Y-18841132D01*
X12420447Y-18885447D01*
X12376132Y-18951769D01*
X12376131Y-18951770D01*
X12364500Y-19010247D01*
X12364500Y-20567250D01*
X12344815Y-20634289D01*
X12292011Y-20680044D01*
X12240500Y-20691250D01*
X11721824Y-20691250D01*
X11654785Y-20671565D01*
X11634143Y-20654931D01*
X10981820Y-20002608D01*
X10948335Y-19941285D01*
X10945501Y-19914927D01*
X10945501Y-19665683D01*
X10939069Y-19616828D01*
X10930965Y-19599449D01*
X10889066Y-19509596D01*
X10805405Y-19425935D01*
X10698174Y-19375932D01*
X10698172Y-19375931D01*
X10698173Y-19375931D01*
X10649318Y-19369500D01*
X10649317Y-19369500D01*
X10300685Y-19369500D01*
X10300684Y-19369500D01*
X10251829Y-19375931D01*
X10144596Y-19425935D01*
X10053265Y-19517267D01*
X10050441Y-19514443D01*
X10011959Y-19545183D01*
X9942459Y-19552352D01*
X9880115Y-19520808D01*
X9876902Y-19517101D01*
X9876737Y-19517267D01*
X9785405Y-19425935D01*
X9734396Y-19402149D01*
X9678174Y-19375932D01*
X9678172Y-19375931D01*
X9678173Y-19375931D01*
X9629318Y-19369500D01*
X9629317Y-19369500D01*
X9280685Y-19369500D01*
X9280684Y-19369500D01*
X9231829Y-19375931D01*
X9124596Y-19425935D01*
X9040937Y-19509594D01*
X9026919Y-19539656D01*
X8980746Y-19592095D01*
X8914537Y-19611250D01*
X8399500Y-19611250D01*
X8332461Y-19591565D01*
X8286706Y-19538761D01*
X8275500Y-19487250D01*
X8275500Y-19020249D01*
X8275499Y-19020247D01*
X8263868Y-18961770D01*
X8263867Y-18961769D01*
X8219552Y-18895447D01*
X8153230Y-18851132D01*
X8153229Y-18851131D01*
X8094752Y-18839500D01*
X8094748Y-18839500D01*
X6355252Y-18839500D01*
X6355247Y-18839500D01*
X6296770Y-18851131D01*
X6296769Y-18851132D01*
X6230447Y-18895447D01*
X6186132Y-18961769D01*
X6186131Y-18961770D01*
X6174500Y-19020247D01*
X6174500Y-20759752D01*
X6186131Y-20818229D01*
X6186132Y-20818230D01*
X6230447Y-20884552D01*
X6296769Y-20928867D01*
X6296770Y-20928868D01*
X6355247Y-20940499D01*
X6355250Y-20940500D01*
X6355252Y-20940500D01*
X8094750Y-20940500D01*
X8094751Y-20940499D01*
X8109568Y-20937552D01*
X8153229Y-20928868D01*
X8153229Y-20928867D01*
X8153231Y-20928867D01*
X8219552Y-20884552D01*
X8263867Y-20818231D01*
X8263867Y-20818229D01*
X8263868Y-20818229D01*
X8275499Y-20759752D01*
X8275500Y-20759750D01*
X8275500Y-20292750D01*
X8295185Y-20225711D01*
X8347989Y-20179956D01*
X8399500Y-20168750D01*
X8914537Y-20168750D01*
X8981576Y-20188435D01*
X9026918Y-20240343D01*
X9040936Y-20270404D01*
X9124597Y-20354065D01*
X9231828Y-20404068D01*
X9280684Y-20410500D01*
X9280685Y-20410500D01*
X9629318Y-20410500D01*
X9645602Y-20408356D01*
X9678174Y-20404068D01*
X9785405Y-20354065D01*
X9869066Y-20270404D01*
X9869066Y-20270403D01*
X9876737Y-20262733D01*
X9879565Y-20265561D01*
X9917978Y-20234843D01*
X9987475Y-20227635D01*
X10049836Y-20259143D01*
X10053094Y-20262903D01*
X10053265Y-20262733D01*
X10060936Y-20270404D01*
X10144597Y-20354065D01*
X10251828Y-20404068D01*
X10300684Y-20410500D01*
X10300685Y-20410500D01*
X10549926Y-20410500D01*
X10616965Y-20430185D01*
X10637607Y-20446819D01*
X11383844Y-21193056D01*
X11447407Y-21229753D01*
X11518302Y-21248750D01*
X11518303Y-21248750D01*
X16876696Y-21248750D01*
X16876698Y-21248750D01*
X16947593Y-21229753D01*
X17011157Y-21193055D01*
X17419055Y-20785157D01*
X17455753Y-20721593D01*
X17458793Y-20710247D01*
X17467860Y-20676406D01*
X17504225Y-20616750D01*
X17567073Y-20586222D01*
X17636448Y-20594519D01*
X17673758Y-20621048D01*
X17674370Y-20620378D01*
X17829260Y-20761578D01*
X18002584Y-20868897D01*
X18192678Y-20942539D01*
X18245000Y-20952320D01*
X18245000Y-20313012D01*
X18302007Y-20345925D01*
X18429174Y-20380000D01*
X18560826Y-20380000D01*
X18687993Y-20345925D01*
X18745000Y-20313012D01*
X18745000Y-20952320D01*
X18797321Y-20942539D01*
X18987415Y-20868897D01*
X19160739Y-20761578D01*
X19311391Y-20624242D01*
X19434245Y-20461556D01*
X19525109Y-20279078D01*
X19525114Y-20279065D01*
X19567528Y-20130000D01*
X18928012Y-20130000D01*
X18960925Y-20072993D01*
X18995000Y-19945826D01*
X18995000Y-19839990D01*
X23144867Y-19839990D01*
X23163302Y-19968215D01*
X23217063Y-20085932D01*
X23217118Y-20086053D01*
X23301951Y-20183957D01*
X23410931Y-20253994D01*
X23535225Y-20290489D01*
X23535227Y-20290490D01*
X23535228Y-20290490D01*
X23664773Y-20290490D01*
X23664773Y-20290489D01*
X23789069Y-20253994D01*
X23898049Y-20183957D01*
X23982882Y-20086053D01*
X24036697Y-19968216D01*
X24055133Y-19839990D01*
X24052183Y-19819472D01*
X24062127Y-19750315D01*
X24107881Y-19697511D01*
X24174921Y-19677826D01*
X24241960Y-19697511D01*
X24262602Y-19714145D01*
X24277901Y-19729444D01*
X24277906Y-19729447D01*
X24387983Y-19785535D01*
X24400000Y-19787438D01*
X24400000Y-19787437D01*
X24900000Y-19787437D01*
X24912016Y-19785535D01*
X25022093Y-19729447D01*
X25022098Y-19729444D01*
X25109444Y-19642098D01*
X25109448Y-19642093D01*
X25165536Y-19532015D01*
X25172191Y-19490000D01*
X24900000Y-19490000D01*
X24900000Y-19787437D01*
X24400000Y-19787437D01*
X24400000Y-18990000D01*
X24900000Y-18990000D01*
X25172190Y-18990000D01*
X25165536Y-18947984D01*
X25109448Y-18837906D01*
X25109444Y-18837901D01*
X25022098Y-18750555D01*
X25022091Y-18750550D01*
X24912022Y-18694466D01*
X24912019Y-18694465D01*
X24900000Y-18692561D01*
X24900000Y-18990000D01*
X24400000Y-18990000D01*
X24400000Y-18692561D01*
X24399999Y-18692561D01*
X24387980Y-18694465D01*
X24387977Y-18694466D01*
X24277908Y-18750550D01*
X24277904Y-18750552D01*
X24222679Y-18805778D01*
X24161355Y-18839262D01*
X24091664Y-18834277D01*
X24047317Y-18805777D01*
X24028316Y-18786776D01*
X23950640Y-18750555D01*
X23919487Y-18736028D01*
X23919485Y-18736027D01*
X23919486Y-18736027D01*
X23869902Y-18729500D01*
X23510105Y-18729500D01*
X23494386Y-18731569D01*
X23460513Y-18736028D01*
X23460511Y-18736029D01*
X23460509Y-18736029D01*
X23351683Y-18786776D01*
X23266776Y-18871683D01*
X23216027Y-18980514D01*
X23209500Y-19030098D01*
X23209500Y-19449894D01*
X23210772Y-19459560D01*
X23216028Y-19499487D01*
X23216029Y-19499491D01*
X23218684Y-19508599D01*
X23216273Y-19509301D01*
X23224677Y-19564600D01*
X23214596Y-19599449D01*
X23163302Y-19711764D01*
X23144867Y-19839990D01*
X18995000Y-19839990D01*
X18995000Y-19814174D01*
X18960925Y-19687007D01*
X18928012Y-19630000D01*
X19567528Y-19630000D01*
X19567528Y-19629999D01*
X19525114Y-19480934D01*
X19525109Y-19480921D01*
X19434245Y-19298443D01*
X19311391Y-19135758D01*
X19282672Y-19109577D01*
X19246390Y-19049866D01*
X19248151Y-18980019D01*
X19287394Y-18922211D01*
X19351661Y-18894796D01*
X19366210Y-18893940D01*
X22091506Y-18893940D01*
X22091508Y-18893940D01*
X22162403Y-18874943D01*
X22169966Y-18870575D01*
X22174013Y-18868240D01*
X22174015Y-18868238D01*
X22174037Y-18868226D01*
X22225967Y-18838245D01*
X22863056Y-18201156D01*
X22899753Y-18137593D01*
X22918750Y-18066698D01*
X22918750Y-17993302D01*
X22918750Y-17393302D01*
X22900006Y-17323351D01*
X22899753Y-17322405D01*
X22863057Y-17258846D01*
X22863053Y-17258841D01*
X22411156Y-16806944D01*
X22363474Y-16779416D01*
X22347593Y-16770247D01*
X22276698Y-16751250D01*
X21973302Y-16751250D01*
X21917389Y-16766231D01*
X21917388Y-16766232D01*
X21902406Y-16770247D01*
X21838843Y-16806944D01*
X21838841Y-16806946D01*
X21469935Y-17175851D01*
X21408612Y-17209336D01*
X21401650Y-17210644D01*
X21352146Y-17218484D01*
X21282853Y-17209528D01*
X21229402Y-17164531D01*
X21208763Y-17097779D01*
X21208750Y-17096010D01*
X21208750Y-16392580D01*
X21228435Y-16325541D01*
X21281239Y-16279786D01*
X21350397Y-16269842D01*
X21413953Y-16298867D01*
X21420431Y-16304899D01*
X21489597Y-16374065D01*
X21596828Y-16424068D01*
X21645684Y-16430500D01*
X21645685Y-16430500D01*
X21994318Y-16430500D01*
X22010602Y-16428356D01*
X22043174Y-16424068D01*
X22150405Y-16374065D01*
X22234066Y-16290404D01*
X22234066Y-16290403D01*
X22241737Y-16282733D01*
X22244565Y-16285561D01*
X22282978Y-16254843D01*
X22352475Y-16247635D01*
X22414836Y-16279143D01*
X22418094Y-16282903D01*
X22418265Y-16282733D01*
X22425936Y-16290404D01*
X22509597Y-16374065D01*
X22616828Y-16424068D01*
X22665684Y-16430500D01*
X22665685Y-16430500D01*
X23014318Y-16430500D01*
X23030602Y-16428356D01*
X23063174Y-16424068D01*
X23170405Y-16374065D01*
X23254066Y-16290404D01*
X23304069Y-16183173D01*
X23310501Y-16134316D01*
X23310501Y-15901192D01*
X23330186Y-15834153D01*
X23346820Y-15813511D01*
X23493512Y-15666819D01*
X23554835Y-15633334D01*
X23581193Y-15630500D01*
X23584777Y-15630500D01*
X23584777Y-15630499D01*
X23709073Y-15594004D01*
X23818053Y-15523967D01*
X23902886Y-15426063D01*
X23956701Y-15308226D01*
X23975137Y-15180000D01*
X23956701Y-15051774D01*
X23902886Y-14933937D01*
X23818053Y-14836033D01*
X23709073Y-14765996D01*
X23709069Y-14765994D01*
X23709068Y-14765994D01*
X23584778Y-14729500D01*
X23584776Y-14729500D01*
X23570352Y-14729500D01*
X23508351Y-14712887D01*
X23445644Y-14676682D01*
X23404250Y-14665591D01*
X23362857Y-14654500D01*
X23362856Y-14654500D01*
X23307402Y-14654500D01*
X23240363Y-14634815D01*
X23219721Y-14618181D01*
X23128316Y-14526776D01*
X23101055Y-14514064D01*
X23034184Y-14482881D01*
X22981746Y-14436710D01*
X22962594Y-14369516D01*
X22982810Y-14302635D01*
X23035975Y-14257300D01*
X23086590Y-14246500D01*
X25851086Y-14246500D01*
X25918125Y-14266185D01*
X25963880Y-14318989D01*
X25973824Y-14388146D01*
X25955720Y-14514064D01*
X25954867Y-14520000D01*
X25957286Y-14536827D01*
X25973302Y-14648225D01*
X26018333Y-14746827D01*
X26027118Y-14766063D01*
X26038870Y-14779626D01*
X26042918Y-14784297D01*
X26071943Y-14847853D01*
X26061999Y-14917012D01*
X26016244Y-14969815D01*
X25949206Y-14989500D01*
X25760102Y-14989500D01*
X25750951Y-14990705D01*
X25748864Y-14990979D01*
X25679830Y-14980211D01*
X25665651Y-14972358D01*
X25609069Y-14935996D01*
X25609065Y-14935994D01*
X25609064Y-14935994D01*
X25484774Y-14899500D01*
X25484772Y-14899500D01*
X25355228Y-14899500D01*
X25355226Y-14899500D01*
X25230935Y-14935994D01*
X25230932Y-14935995D01*
X25230931Y-14935996D01*
X25193090Y-14960315D01*
X25121950Y-15006033D01*
X25037118Y-15103937D01*
X25037117Y-15103938D01*
X24983302Y-15221774D01*
X24964867Y-15350000D01*
X24983302Y-15478225D01*
X25037117Y-15596061D01*
X25037118Y-15596063D01*
X25064213Y-15627333D01*
X25093238Y-15690888D01*
X25094500Y-15708535D01*
X25094500Y-16317147D01*
X25094500Y-16402853D01*
X25101908Y-16430500D01*
X25116682Y-16485640D01*
X25135617Y-16518435D01*
X25159535Y-16559862D01*
X28610138Y-20010465D01*
X28684361Y-20053318D01*
X28767147Y-20075500D01*
X28767149Y-20075500D01*
X29432852Y-20075500D01*
X29432854Y-20075500D01*
X29515640Y-20053318D01*
X29589863Y-20010465D01*
X30170465Y-19429862D01*
X30213318Y-19355639D01*
X30235500Y-19272853D01*
X30235500Y-19187147D01*
X30235500Y-19098535D01*
X30255185Y-19031496D01*
X30265783Y-19017336D01*
X30292882Y-18986063D01*
X30346697Y-18868226D01*
X30365133Y-18740000D01*
X30346697Y-18611774D01*
X30292882Y-18493937D01*
X30208049Y-18396033D01*
X30099069Y-18325996D01*
X30099065Y-18325994D01*
X30099064Y-18325994D01*
X29974774Y-18289500D01*
X29974772Y-18289500D01*
X29845228Y-18289500D01*
X29845226Y-18289500D01*
X29788840Y-18306056D01*
X29718970Y-18306056D01*
X29660193Y-18268281D01*
X29641524Y-18239484D01*
X29638047Y-18232027D01*
X29633224Y-18221684D01*
X29614221Y-18202681D01*
X29580737Y-18141359D01*
X29585721Y-18071667D01*
X29614222Y-18027319D01*
X29669447Y-17972094D01*
X29669449Y-17972091D01*
X29725533Y-17862022D01*
X29725534Y-17862019D01*
X29727438Y-17850000D01*
X28632562Y-17850000D01*
X28634464Y-17862016D01*
X28690552Y-17972093D01*
X28690555Y-17972098D01*
X28745777Y-18027320D01*
X28779262Y-18088643D01*
X28774278Y-18158335D01*
X28745779Y-18202681D01*
X28726775Y-18221684D01*
X28676027Y-18330514D01*
X28669500Y-18380097D01*
X28669500Y-18739894D01*
X28669501Y-18739900D01*
X28676028Y-18789487D01*
X28676029Y-18789489D01*
X28676029Y-18789490D01*
X28698802Y-18838326D01*
X28709294Y-18907403D01*
X28680774Y-18971187D01*
X28622298Y-19009427D01*
X28552431Y-19009982D01*
X28498739Y-18978412D01*
X26870326Y-17349999D01*
X28632561Y-17349999D01*
X28632561Y-17350000D01*
X28930000Y-17350000D01*
X29430000Y-17350000D01*
X29727438Y-17350000D01*
X29725535Y-17337983D01*
X29669447Y-17227906D01*
X29669444Y-17227901D01*
X29582098Y-17140555D01*
X29582093Y-17140551D01*
X29472018Y-17084465D01*
X29430000Y-17077809D01*
X29430000Y-17350000D01*
X28930000Y-17350000D01*
X28930000Y-17077809D01*
X28887984Y-17084463D01*
X28777906Y-17140551D01*
X28777901Y-17140555D01*
X28690555Y-17227901D01*
X28690550Y-17227908D01*
X28634466Y-17337977D01*
X28634465Y-17337980D01*
X28632561Y-17349999D01*
X26870326Y-17349999D01*
X25960327Y-16440000D01*
X29387808Y-16440000D01*
X29394462Y-16482015D01*
X29450550Y-16592093D01*
X29450554Y-16592098D01*
X29537900Y-16679444D01*
X29537905Y-16679447D01*
X29647982Y-16735535D01*
X29659999Y-16737438D01*
X29659999Y-16440000D01*
X29387808Y-16440000D01*
X25960327Y-16440000D01*
X25781819Y-16261492D01*
X25748334Y-16200169D01*
X25745500Y-16173811D01*
X25745500Y-16134499D01*
X25765185Y-16067460D01*
X25817989Y-16021705D01*
X25869496Y-16010499D01*
X26119900Y-16010499D01*
X26169487Y-16003972D01*
X26278316Y-15953224D01*
X26297319Y-15934220D01*
X26358638Y-15900737D01*
X26428329Y-15905720D01*
X26472679Y-15934222D01*
X26527901Y-15989444D01*
X26527906Y-15989447D01*
X26637983Y-16045535D01*
X26650000Y-16047438D01*
X26650000Y-16047437D01*
X27150000Y-16047437D01*
X27162016Y-16045535D01*
X27272093Y-15989447D01*
X27272098Y-15989444D01*
X27359444Y-15902098D01*
X27359448Y-15902093D01*
X27415536Y-15792015D01*
X27422191Y-15750000D01*
X27150000Y-15750000D01*
X27150000Y-16047437D01*
X26650000Y-16047437D01*
X26650000Y-15624000D01*
X26669685Y-15556961D01*
X26722489Y-15511206D01*
X26774000Y-15500000D01*
X26900000Y-15500000D01*
X26900000Y-15374000D01*
X26919685Y-15306961D01*
X26972489Y-15261206D01*
X27024000Y-15250000D01*
X27422190Y-15250000D01*
X27416395Y-15213410D01*
X27425349Y-15144117D01*
X27470346Y-15090665D01*
X27537097Y-15070025D01*
X27595164Y-15083528D01*
X27657979Y-15115534D01*
X27657982Y-15115535D01*
X27669999Y-15117438D01*
X27669999Y-15117437D01*
X28169999Y-15117437D01*
X28182015Y-15115535D01*
X28292092Y-15059447D01*
X28292097Y-15059444D01*
X28379443Y-14972098D01*
X28379447Y-14972093D01*
X28435535Y-14862015D01*
X28442190Y-14820000D01*
X28169999Y-14820000D01*
X28169999Y-15117437D01*
X27669999Y-15117437D01*
X27669999Y-14694000D01*
X27689684Y-14626961D01*
X27742488Y-14581206D01*
X27793999Y-14570000D01*
X27919999Y-14570000D01*
X27919999Y-14507733D01*
X27939684Y-14440694D01*
X27992488Y-14394939D01*
X28061646Y-14384995D01*
X28105997Y-14400345D01*
X28110688Y-14403053D01*
X28110691Y-14403056D01*
X28158061Y-14430404D01*
X28158062Y-14430405D01*
X28158063Y-14430405D01*
X28174252Y-14439752D01*
X28174253Y-14439752D01*
X28174254Y-14439753D01*
X28245149Y-14458750D01*
X28695181Y-14458750D01*
X28762220Y-14478435D01*
X28782862Y-14495069D01*
X29721305Y-15433512D01*
X29754790Y-15494835D01*
X29749806Y-15564527D01*
X29707934Y-15620460D01*
X29653021Y-15643666D01*
X29647984Y-15644463D01*
X29647983Y-15644463D01*
X29537905Y-15700552D01*
X29537900Y-15700555D01*
X29450554Y-15787901D01*
X29450550Y-15787906D01*
X29394462Y-15897984D01*
X29387808Y-15940000D01*
X29785999Y-15940000D01*
X29853038Y-15959685D01*
X29898793Y-16012489D01*
X29909999Y-16064000D01*
X29909999Y-16190000D01*
X30035999Y-16190000D01*
X30103038Y-16209685D01*
X30148793Y-16262489D01*
X30159999Y-16314000D01*
X30159999Y-16737437D01*
X30172015Y-16735535D01*
X30282092Y-16679447D01*
X30282093Y-16679447D01*
X30337318Y-16624222D01*
X30398641Y-16590737D01*
X30468333Y-16595721D01*
X30512681Y-16624222D01*
X30531683Y-16643224D01*
X30640512Y-16693972D01*
X30690098Y-16700500D01*
X30913681Y-16700499D01*
X30952870Y-16708293D01*
X30953023Y-16707726D01*
X30960870Y-16709828D01*
X30960873Y-16709830D01*
X31043659Y-16732012D01*
X31129365Y-16732012D01*
X31148087Y-16732012D01*
X31215125Y-16751695D01*
X31322212Y-16820516D01*
X31419590Y-16849108D01*
X31446506Y-16857011D01*
X31446508Y-16857012D01*
X31446509Y-16857012D01*
X31576054Y-16857012D01*
X31576054Y-16857011D01*
X31700350Y-16820516D01*
X31809330Y-16750479D01*
X31894163Y-16652575D01*
X31947978Y-16534738D01*
X31966414Y-16406512D01*
X31949614Y-16289666D01*
X31959557Y-16220511D01*
X32005312Y-16167707D01*
X32016049Y-16161541D01*
X32043465Y-16147573D01*
X32073441Y-16117597D01*
X32134763Y-16084111D01*
X32204455Y-16089095D01*
X32260389Y-16130965D01*
X32283596Y-16185880D01*
X32302854Y-16307477D01*
X32302854Y-16307478D01*
X32302855Y-16307481D01*
X32302856Y-16307482D01*
X32353314Y-16406512D01*
X32356858Y-16413466D01*
X32356861Y-16413470D01*
X32440959Y-16497568D01*
X32440963Y-16497571D01*
X32440965Y-16497573D01*
X32546948Y-16551574D01*
X32546950Y-16551574D01*
X32546952Y-16551575D01*
X32664427Y-16570181D01*
X32664430Y-16570181D01*
X32664432Y-16570181D01*
X32709644Y-16563019D01*
X32738162Y-16558503D01*
X32807455Y-16567457D01*
X32860907Y-16612453D01*
X32881547Y-16679205D01*
X32881560Y-16680976D01*
X32881560Y-18037007D01*
X32892947Y-18079501D01*
X32900557Y-18107902D01*
X32900558Y-18107903D01*
X32937254Y-18171465D01*
X33093181Y-18327392D01*
X33126666Y-18388715D01*
X33129500Y-18415073D01*
X33129500Y-18664316D01*
X33135931Y-18713171D01*
X33146590Y-18736029D01*
X33185935Y-18820404D01*
X33269596Y-18904065D01*
X33376827Y-18954068D01*
X33425683Y-18960500D01*
X33425684Y-18960500D01*
X33874317Y-18960500D01*
X33890601Y-18958356D01*
X33923173Y-18954068D01*
X34030404Y-18904065D01*
X34062319Y-18872150D01*
X34123642Y-18838665D01*
X34193334Y-18843649D01*
X34237681Y-18872150D01*
X34309596Y-18944065D01*
X34416827Y-18994068D01*
X34465683Y-19000500D01*
X34465684Y-19000500D01*
X34814317Y-19000500D01*
X34830601Y-18998356D01*
X34863173Y-18994068D01*
X34970404Y-18944065D01*
X35054065Y-18860404D01*
X35054065Y-18860403D01*
X35061736Y-18852733D01*
X35064564Y-18855561D01*
X35102977Y-18824843D01*
X35172474Y-18817635D01*
X35234835Y-18849143D01*
X35238093Y-18852903D01*
X35238264Y-18852733D01*
X35245935Y-18860404D01*
X35329596Y-18944065D01*
X35436827Y-18994068D01*
X35485683Y-19000500D01*
X35485684Y-19000500D01*
X35834317Y-19000500D01*
X35850601Y-18998356D01*
X35883173Y-18994068D01*
X35990404Y-18944065D01*
X36074065Y-18860404D01*
X36074067Y-18860398D01*
X36075484Y-18858377D01*
X36078513Y-18855955D01*
X36081736Y-18852733D01*
X36082095Y-18853092D01*
X36130061Y-18814752D01*
X36177059Y-18805500D01*
X36550500Y-18805500D01*
X36617539Y-18825185D01*
X36663294Y-18877989D01*
X36674500Y-18929500D01*
X36674500Y-19134269D01*
X36677353Y-19164699D01*
X36677353Y-19164701D01*
X36722206Y-19292880D01*
X36722207Y-19292882D01*
X36802850Y-19402150D01*
X36912118Y-19482793D01*
X36932432Y-19489901D01*
X37040299Y-19527646D01*
X37070730Y-19530500D01*
X37070734Y-19530500D01*
X38629270Y-19530500D01*
X38659699Y-19527646D01*
X38659701Y-19527646D01*
X38740173Y-19499487D01*
X38787882Y-19482793D01*
X38897150Y-19402150D01*
X38977793Y-19292882D01*
X39008815Y-19204227D01*
X39022646Y-19164701D01*
X39022646Y-19164699D01*
X39025500Y-19134269D01*
X39025500Y-17825730D01*
X39022646Y-17795300D01*
X39022646Y-17795298D01*
X38979425Y-17671783D01*
X38977793Y-17667118D01*
X38897150Y-17557850D01*
X38787882Y-17477207D01*
X38787880Y-17477206D01*
X38659700Y-17432353D01*
X38629270Y-17429500D01*
X38629266Y-17429500D01*
X37070734Y-17429500D01*
X37070730Y-17429500D01*
X37040300Y-17432353D01*
X37040298Y-17432353D01*
X36912119Y-17477206D01*
X36912117Y-17477207D01*
X36802850Y-17557850D01*
X36722207Y-17667117D01*
X36722206Y-17667119D01*
X36677353Y-17795298D01*
X36677353Y-17795300D01*
X36674500Y-17825730D01*
X36674500Y-18030500D01*
X36654815Y-18097539D01*
X36602011Y-18143294D01*
X36550500Y-18154500D01*
X36177059Y-18154500D01*
X36110020Y-18134815D01*
X36075484Y-18101623D01*
X36067842Y-18090709D01*
X36069847Y-18089305D01*
X36043667Y-18041360D01*
X36048651Y-17971668D01*
X36077153Y-17927320D01*
X36112663Y-17891810D01*
X36169096Y-17776373D01*
X36169098Y-17776370D01*
X36175854Y-17730000D01*
X35784000Y-17730000D01*
X35716961Y-17710315D01*
X35671206Y-17657511D01*
X35660000Y-17606000D01*
X35660000Y-17480000D01*
X35534000Y-17480000D01*
X35466961Y-17460315D01*
X35421206Y-17407511D01*
X35410000Y-17356000D01*
X35410000Y-17230000D01*
X35910000Y-17230000D01*
X36175852Y-17230000D01*
X36169096Y-17183625D01*
X36112663Y-17068189D01*
X36021808Y-16977334D01*
X35910000Y-16922674D01*
X35910000Y-17230000D01*
X35410000Y-17230000D01*
X35410000Y-16922674D01*
X35298193Y-16977333D01*
X35202678Y-17072848D01*
X35141355Y-17106332D01*
X35071663Y-17101348D01*
X35027316Y-17072847D01*
X34970404Y-17015935D01*
X34935494Y-16999656D01*
X34863173Y-16965932D01*
X34863171Y-16965931D01*
X34863172Y-16965931D01*
X34814317Y-16959500D01*
X34814316Y-16959500D01*
X34465684Y-16959500D01*
X34465683Y-16959500D01*
X34416828Y-16965931D01*
X34309597Y-17015934D01*
X34237681Y-17087850D01*
X34176357Y-17121334D01*
X34106666Y-17116349D01*
X34062319Y-17087849D01*
X34057668Y-17083198D01*
X34024183Y-17021875D01*
X34022876Y-16976120D01*
X34030181Y-16930000D01*
X34030181Y-16929999D01*
X34030181Y-16929996D01*
X34011575Y-16812522D01*
X34011575Y-16812521D01*
X34011574Y-16812519D01*
X34011574Y-16812518D01*
X33957573Y-16706535D01*
X33957571Y-16706533D01*
X33957568Y-16706529D01*
X33899676Y-16648637D01*
X33866191Y-16587314D01*
X33871175Y-16517622D01*
X33913047Y-16461689D01*
X33934946Y-16448577D01*
X34030404Y-16404065D01*
X34062319Y-16372150D01*
X34123642Y-16338665D01*
X34193334Y-16343649D01*
X34237681Y-16372150D01*
X34309596Y-16444065D01*
X34416827Y-16494068D01*
X34465683Y-16500500D01*
X34465684Y-16500500D01*
X34814317Y-16500500D01*
X34836587Y-16497568D01*
X34863173Y-16494068D01*
X34970404Y-16444065D01*
X35054065Y-16360404D01*
X35054065Y-16360403D01*
X35061736Y-16352733D01*
X35064564Y-16355561D01*
X35102977Y-16324843D01*
X35172474Y-16317635D01*
X35234835Y-16349143D01*
X35238093Y-16352903D01*
X35238264Y-16352733D01*
X35245935Y-16360404D01*
X35329596Y-16444065D01*
X35436827Y-16494068D01*
X35485683Y-16500500D01*
X35485684Y-16500500D01*
X35834317Y-16500500D01*
X35856587Y-16497568D01*
X35883173Y-16494068D01*
X35990404Y-16444065D01*
X36074065Y-16360404D01*
X36074067Y-16360398D01*
X36075484Y-16358377D01*
X36078513Y-16355955D01*
X36081736Y-16352733D01*
X36082095Y-16353092D01*
X36130061Y-16314752D01*
X36177059Y-16305500D01*
X36639919Y-16305500D01*
X36706958Y-16325185D01*
X36752713Y-16377989D01*
X36754480Y-16382047D01*
X36794057Y-16477596D01*
X36909024Y-16649657D01*
X37055342Y-16795975D01*
X37055345Y-16795977D01*
X37227402Y-16910941D01*
X37418580Y-16990130D01*
X37578174Y-17021875D01*
X37621530Y-17030499D01*
X37621534Y-17030500D01*
X37621535Y-17030500D01*
X38078466Y-17030500D01*
X38078467Y-17030499D01*
X38281420Y-16990130D01*
X38472598Y-16910941D01*
X38644655Y-16795977D01*
X38790977Y-16649655D01*
X38905941Y-16477598D01*
X38985130Y-16286420D01*
X39025500Y-16083465D01*
X39025500Y-15876535D01*
X38985130Y-15673580D01*
X38905941Y-15482402D01*
X38790977Y-15310345D01*
X38790975Y-15310342D01*
X38644657Y-15164024D01*
X38524185Y-15083528D01*
X38472598Y-15049059D01*
X38467086Y-15046776D01*
X38281420Y-14969870D01*
X38281412Y-14969868D01*
X38078469Y-14929500D01*
X38078465Y-14929500D01*
X37621535Y-14929500D01*
X37621530Y-14929500D01*
X37418587Y-14969868D01*
X37418579Y-14969870D01*
X37227403Y-15049058D01*
X37055342Y-15164024D01*
X36909024Y-15310342D01*
X36794057Y-15482403D01*
X36754480Y-15577953D01*
X36710639Y-15632356D01*
X36644345Y-15654421D01*
X36639919Y-15654500D01*
X36177059Y-15654500D01*
X36110020Y-15634815D01*
X36075484Y-15601623D01*
X36067842Y-15590709D01*
X36069847Y-15589305D01*
X36043667Y-15541360D01*
X36048651Y-15471668D01*
X36077153Y-15427320D01*
X36112663Y-15391810D01*
X36169096Y-15276373D01*
X36169098Y-15276370D01*
X36175854Y-15230000D01*
X35784000Y-15230000D01*
X35716961Y-15210315D01*
X35671206Y-15157511D01*
X35660000Y-15106000D01*
X35660000Y-14980000D01*
X35534000Y-14980000D01*
X35466961Y-14960315D01*
X35421206Y-14907511D01*
X35410000Y-14856000D01*
X35410000Y-14730000D01*
X35910000Y-14730000D01*
X36175852Y-14730000D01*
X36169096Y-14683625D01*
X36112663Y-14568189D01*
X36021808Y-14477334D01*
X35910000Y-14422674D01*
X35910000Y-14730000D01*
X35410000Y-14730000D01*
X35410000Y-14422674D01*
X35298193Y-14477333D01*
X35202678Y-14572848D01*
X35141355Y-14606332D01*
X35071663Y-14601348D01*
X35027316Y-14572847D01*
X34970404Y-14515935D01*
X34962169Y-14512095D01*
X34863173Y-14465932D01*
X34863171Y-14465931D01*
X34863172Y-14465931D01*
X34814317Y-14459500D01*
X34814316Y-14459500D01*
X34465684Y-14459500D01*
X34465683Y-14459500D01*
X34416828Y-14465931D01*
X34309595Y-14515935D01*
X34237681Y-14587850D01*
X34176358Y-14621335D01*
X34106666Y-14616351D01*
X34062319Y-14587850D01*
X34049035Y-14574566D01*
X34015550Y-14513243D01*
X34014243Y-14467490D01*
X34020181Y-14430000D01*
X34020181Y-14429998D01*
X34020181Y-14429996D01*
X34001575Y-14312522D01*
X34001575Y-14312521D01*
X34001574Y-14312519D01*
X34001574Y-14312518D01*
X33947573Y-14206535D01*
X33947571Y-14206533D01*
X33947568Y-14206529D01*
X33892856Y-14151817D01*
X33859371Y-14090494D01*
X33864355Y-14020802D01*
X33906227Y-13964869D01*
X33928117Y-13951762D01*
X34030404Y-13904065D01*
X34062319Y-13872150D01*
X34123642Y-13838665D01*
X34193334Y-13843649D01*
X34237681Y-13872150D01*
X34309596Y-13944065D01*
X34416827Y-13994068D01*
X34465683Y-14000500D01*
X34465684Y-14000500D01*
X34814317Y-14000500D01*
X34830601Y-13998356D01*
X34863173Y-13994068D01*
X34970404Y-13944065D01*
X35054065Y-13860404D01*
X35054065Y-13860403D01*
X35061736Y-13852733D01*
X35064564Y-13855561D01*
X35102977Y-13824843D01*
X35172474Y-13817635D01*
X35234835Y-13849143D01*
X35238093Y-13852903D01*
X35238264Y-13852733D01*
X35245935Y-13860404D01*
X35329596Y-13944065D01*
X35436827Y-13994068D01*
X35485683Y-14000500D01*
X35485684Y-14000500D01*
X35834317Y-14000500D01*
X35850601Y-13998356D01*
X35883173Y-13994068D01*
X35990404Y-13944065D01*
X36074065Y-13860404D01*
X36074067Y-13860398D01*
X36075484Y-13858377D01*
X36078513Y-13855955D01*
X36081736Y-13852733D01*
X36082095Y-13853092D01*
X36130061Y-13814752D01*
X36177059Y-13805500D01*
X36639919Y-13805500D01*
X36706958Y-13825185D01*
X36752713Y-13877989D01*
X36754480Y-13882047D01*
X36794057Y-13977596D01*
X36909024Y-14149657D01*
X37055342Y-14295975D01*
X37055345Y-14295977D01*
X37227402Y-14410941D01*
X37418580Y-14490130D01*
X37568743Y-14519999D01*
X37621530Y-14530499D01*
X37621534Y-14530500D01*
X37621535Y-14530500D01*
X38078466Y-14530500D01*
X38078467Y-14530499D01*
X38281420Y-14490130D01*
X38472598Y-14410941D01*
X38644655Y-14295977D01*
X38790977Y-14149655D01*
X38905941Y-13977598D01*
X38985130Y-13786420D01*
X39025500Y-13583465D01*
X39025500Y-13376535D01*
X38985130Y-13173580D01*
X38905941Y-12982402D01*
X38790977Y-12810345D01*
X38790975Y-12810342D01*
X38644657Y-12664024D01*
X38542749Y-12595932D01*
X38472598Y-12549059D01*
X38466818Y-12546665D01*
X38281420Y-12469870D01*
X38281412Y-12469868D01*
X38078469Y-12429500D01*
X38078465Y-12429500D01*
X37621535Y-12429500D01*
X37621530Y-12429500D01*
X37418587Y-12469868D01*
X37418579Y-12469870D01*
X37227403Y-12549058D01*
X37055342Y-12664024D01*
X36909024Y-12810342D01*
X36794057Y-12982403D01*
X36754480Y-13077953D01*
X36710639Y-13132356D01*
X36644345Y-13154421D01*
X36639919Y-13154500D01*
X36177059Y-13154500D01*
X36110020Y-13134815D01*
X36075484Y-13101623D01*
X36067842Y-13090709D01*
X36069847Y-13089305D01*
X36043667Y-13041360D01*
X36048651Y-12971668D01*
X36077153Y-12927320D01*
X36112663Y-12891810D01*
X36169096Y-12776373D01*
X36169098Y-12776370D01*
X36175854Y-12730000D01*
X35784000Y-12730000D01*
X35716961Y-12710315D01*
X35671206Y-12657511D01*
X35660000Y-12606000D01*
X35660000Y-12480000D01*
X35534000Y-12480000D01*
X35466961Y-12460315D01*
X35421206Y-12407511D01*
X35410000Y-12356000D01*
X35410000Y-12230000D01*
X35910000Y-12230000D01*
X36175852Y-12230000D01*
X36169096Y-12183625D01*
X36112663Y-12068189D01*
X36021808Y-11977334D01*
X35910000Y-11922674D01*
X35910000Y-12230000D01*
X35410000Y-12230000D01*
X35410000Y-11922674D01*
X35298193Y-11977333D01*
X35202678Y-12072848D01*
X35141355Y-12106332D01*
X35071663Y-12101348D01*
X35027316Y-12072847D01*
X34970404Y-12015935D01*
X34863173Y-11965932D01*
X34863171Y-11965931D01*
X34863172Y-11965931D01*
X34814317Y-11959500D01*
X34814316Y-11959500D01*
X34465684Y-11959500D01*
X34465683Y-11959500D01*
X34416828Y-11965931D01*
X34309595Y-12015935D01*
X34237681Y-12087850D01*
X34176358Y-12121335D01*
X34106666Y-12116351D01*
X34062319Y-12087850D01*
X34053326Y-12078857D01*
X34019841Y-12017534D01*
X34022348Y-11967486D01*
X34020048Y-11967122D01*
X34040181Y-11840003D01*
X34040181Y-11839996D01*
X34021575Y-11722522D01*
X34021575Y-11722521D01*
X34021574Y-11722519D01*
X34021574Y-11722518D01*
X33967573Y-11616535D01*
X33967571Y-11616533D01*
X33961834Y-11608636D01*
X33962953Y-11607822D01*
X33934390Y-11555513D01*
X33939374Y-11485821D01*
X33981246Y-11429888D01*
X34003148Y-11416774D01*
X34030404Y-11404065D01*
X34062319Y-11372150D01*
X34123642Y-11338665D01*
X34193334Y-11343649D01*
X34237681Y-11372150D01*
X34309596Y-11444065D01*
X34416827Y-11494068D01*
X34465683Y-11500500D01*
X34465684Y-11500500D01*
X34814317Y-11500500D01*
X34830601Y-11498356D01*
X34863173Y-11494068D01*
X34970404Y-11444065D01*
X35054065Y-11360404D01*
X35054065Y-11360403D01*
X35061736Y-11352733D01*
X35064564Y-11355561D01*
X35102977Y-11324843D01*
X35172474Y-11317635D01*
X35234835Y-11349143D01*
X35238093Y-11352903D01*
X35238264Y-11352733D01*
X35245935Y-11360404D01*
X35329596Y-11444065D01*
X35436827Y-11494068D01*
X35485683Y-11500500D01*
X35485684Y-11500500D01*
X35834317Y-11500500D01*
X35850601Y-11498356D01*
X35883173Y-11494068D01*
X35990404Y-11444065D01*
X36074065Y-11360404D01*
X36074067Y-11360398D01*
X36075484Y-11358377D01*
X36078513Y-11355955D01*
X36081736Y-11352733D01*
X36082095Y-11353092D01*
X36130061Y-11314752D01*
X36177059Y-11305500D01*
X36639919Y-11305500D01*
X36706958Y-11325185D01*
X36752713Y-11377989D01*
X36754480Y-11382047D01*
X36794057Y-11477596D01*
X36909024Y-11649657D01*
X37055342Y-11795975D01*
X37055345Y-11795977D01*
X37227402Y-11910941D01*
X37418580Y-11990130D01*
X37621530Y-12030499D01*
X37621534Y-12030500D01*
X37621535Y-12030500D01*
X38078466Y-12030500D01*
X38078467Y-12030499D01*
X38281420Y-11990130D01*
X38472598Y-11910941D01*
X38644655Y-11795977D01*
X38790977Y-11649655D01*
X38905941Y-11477598D01*
X38985130Y-11286420D01*
X39025500Y-11083465D01*
X39025500Y-10876535D01*
X38985130Y-10673580D01*
X38905941Y-10482402D01*
X38790977Y-10310345D01*
X38790975Y-10310342D01*
X38644657Y-10164024D01*
X38548021Y-10099455D01*
X38472598Y-10049059D01*
X38432674Y-10032522D01*
X38281420Y-9969870D01*
X38281412Y-9969868D01*
X38078469Y-9929500D01*
X38078465Y-9929500D01*
X37621535Y-9929500D01*
X37621530Y-9929500D01*
X37418587Y-9969868D01*
X37418579Y-9969870D01*
X37227403Y-10049058D01*
X37055342Y-10164024D01*
X36909024Y-10310342D01*
X36794057Y-10482403D01*
X36754480Y-10577953D01*
X36710639Y-10632356D01*
X36644345Y-10654421D01*
X36639919Y-10654500D01*
X36177059Y-10654500D01*
X36110020Y-10634815D01*
X36075484Y-10601623D01*
X36067842Y-10590709D01*
X36069847Y-10589305D01*
X36043667Y-10541360D01*
X36048651Y-10471668D01*
X36077153Y-10427320D01*
X36112663Y-10391810D01*
X36169096Y-10276373D01*
X36169098Y-10276370D01*
X36175854Y-10230000D01*
X35784000Y-10230000D01*
X35716961Y-10210315D01*
X35671206Y-10157511D01*
X35660000Y-10106000D01*
X35660000Y-9980000D01*
X35534000Y-9980000D01*
X35466961Y-9960315D01*
X35421206Y-9907511D01*
X35410000Y-9856000D01*
X35410000Y-9730000D01*
X35910000Y-9730000D01*
X36175852Y-9730000D01*
X36169096Y-9683625D01*
X36112663Y-9568189D01*
X36021808Y-9477334D01*
X35910000Y-9422674D01*
X35910000Y-9730000D01*
X35410000Y-9730000D01*
X35410000Y-9422674D01*
X35298193Y-9477333D01*
X35202678Y-9572848D01*
X35141355Y-9606332D01*
X35071663Y-9601348D01*
X35027316Y-9572847D01*
X34970404Y-9515935D01*
X34958783Y-9510516D01*
X34863173Y-9465932D01*
X34863171Y-9465931D01*
X34863172Y-9465931D01*
X34814317Y-9459500D01*
X34814316Y-9459500D01*
X34465684Y-9459500D01*
X34465683Y-9459500D01*
X34416828Y-9465931D01*
X34309597Y-9515934D01*
X34245635Y-9579896D01*
X34184311Y-9613380D01*
X34114620Y-9608395D01*
X34058686Y-9566524D01*
X34034270Y-9501059D01*
X34035481Y-9472816D01*
X34050181Y-9380002D01*
X34050181Y-9379996D01*
X34031575Y-9262522D01*
X34031575Y-9262521D01*
X34031574Y-9262519D01*
X34031574Y-9262518D01*
X33977573Y-9156535D01*
X33977571Y-9156533D01*
X33977568Y-9156529D01*
X33947415Y-9126376D01*
X33913930Y-9065053D01*
X33918914Y-8995361D01*
X33960786Y-8939428D01*
X33982679Y-8926319D01*
X34030404Y-8904065D01*
X34062319Y-8872150D01*
X34123642Y-8838665D01*
X34193334Y-8843649D01*
X34237681Y-8872150D01*
X34309596Y-8944065D01*
X34416827Y-8994068D01*
X34465683Y-9000500D01*
X34465684Y-9000500D01*
X34814317Y-9000500D01*
X34830601Y-8998356D01*
X34863173Y-8994068D01*
X34970404Y-8944065D01*
X35054065Y-8860404D01*
X35054065Y-8860403D01*
X35061736Y-8852733D01*
X35064564Y-8855561D01*
X35102977Y-8824843D01*
X35172474Y-8817635D01*
X35234835Y-8849143D01*
X35238093Y-8852903D01*
X35238264Y-8852733D01*
X35245935Y-8860404D01*
X35329596Y-8944065D01*
X35436827Y-8994068D01*
X35485683Y-9000500D01*
X35485684Y-9000500D01*
X35834317Y-9000500D01*
X35850601Y-8998356D01*
X35883173Y-8994068D01*
X35990404Y-8944065D01*
X36074065Y-8860404D01*
X36074067Y-8860398D01*
X36075484Y-8858377D01*
X36078513Y-8855955D01*
X36081736Y-8852733D01*
X36082095Y-8853092D01*
X36130061Y-8814752D01*
X36177059Y-8805500D01*
X36639919Y-8805500D01*
X36706958Y-8825185D01*
X36752713Y-8877989D01*
X36754480Y-8882047D01*
X36794057Y-8977596D01*
X36909024Y-9149657D01*
X37055342Y-9295975D01*
X37055345Y-9295977D01*
X37227402Y-9410941D01*
X37418580Y-9490130D01*
X37575344Y-9521312D01*
X37621530Y-9530499D01*
X37621534Y-9530500D01*
X37621535Y-9530500D01*
X38078466Y-9530500D01*
X38078467Y-9530499D01*
X38281420Y-9490130D01*
X38472598Y-9410941D01*
X38644655Y-9295977D01*
X38790977Y-9149655D01*
X38905941Y-8977598D01*
X38985130Y-8786420D01*
X39025500Y-8583465D01*
X39025500Y-8376535D01*
X38985130Y-8173580D01*
X38905941Y-7982402D01*
X38790977Y-7810345D01*
X38790975Y-7810342D01*
X38644657Y-7664024D01*
X38548987Y-7600100D01*
X38472598Y-7549059D01*
X38451558Y-7540344D01*
X38281420Y-7469870D01*
X38281412Y-7469868D01*
X38078469Y-7429500D01*
X38078465Y-7429500D01*
X37621535Y-7429500D01*
X37621530Y-7429500D01*
X37418587Y-7469868D01*
X37418579Y-7469870D01*
X37227403Y-7549058D01*
X37055342Y-7664024D01*
X36909024Y-7810342D01*
X36794057Y-7982403D01*
X36754480Y-8077953D01*
X36710639Y-8132356D01*
X36644345Y-8154421D01*
X36639919Y-8154500D01*
X36177059Y-8154500D01*
X36110020Y-8134815D01*
X36075484Y-8101623D01*
X36067842Y-8090709D01*
X36069847Y-8089305D01*
X36043667Y-8041360D01*
X36048651Y-7971668D01*
X36077153Y-7927320D01*
X36112663Y-7891810D01*
X36169096Y-7776373D01*
X36169098Y-7776370D01*
X36175854Y-7730000D01*
X35784000Y-7730000D01*
X35716961Y-7710315D01*
X35671206Y-7657511D01*
X35660000Y-7606000D01*
X35660000Y-7480000D01*
X35534000Y-7480000D01*
X35466961Y-7460315D01*
X35421206Y-7407511D01*
X35410000Y-7356000D01*
X35410000Y-7230000D01*
X35910000Y-7230000D01*
X36175852Y-7230000D01*
X36169096Y-7183625D01*
X36112663Y-7068189D01*
X36021808Y-6977334D01*
X35910000Y-6922674D01*
X35910000Y-7230000D01*
X35410000Y-7230000D01*
X35410000Y-6922674D01*
X35298193Y-6977333D01*
X35202678Y-7072848D01*
X35141355Y-7106332D01*
X35071663Y-7101348D01*
X35027316Y-7072847D01*
X34970404Y-7015935D01*
X34928854Y-6996560D01*
X34863173Y-6965932D01*
X34863171Y-6965931D01*
X34863172Y-6965931D01*
X34814317Y-6959500D01*
X34814316Y-6959500D01*
X34465684Y-6959500D01*
X34465683Y-6959500D01*
X34416828Y-6965931D01*
X34309595Y-7015935D01*
X34237681Y-7087850D01*
X34176358Y-7121335D01*
X34106666Y-7116351D01*
X34062319Y-7087850D01*
X34054934Y-7080465D01*
X34021449Y-7019142D01*
X34020142Y-6973386D01*
X34030181Y-6910002D01*
X34030181Y-6909996D01*
X34011575Y-6792522D01*
X34011575Y-6792521D01*
X34011574Y-6792519D01*
X34011574Y-6792518D01*
X33957573Y-6686535D01*
X33957571Y-6686533D01*
X33957568Y-6686529D01*
X33913316Y-6642277D01*
X33879831Y-6580954D01*
X33884815Y-6511262D01*
X33926687Y-6455329D01*
X33948590Y-6442215D01*
X34030404Y-6404065D01*
X34062319Y-6372150D01*
X34123642Y-6338665D01*
X34193334Y-6343649D01*
X34237681Y-6372150D01*
X34309596Y-6444065D01*
X34416827Y-6494068D01*
X34465683Y-6500500D01*
X34465684Y-6500500D01*
X34814317Y-6500500D01*
X34836587Y-6497568D01*
X34863173Y-6494068D01*
X34970404Y-6444065D01*
X35054065Y-6360404D01*
X35054065Y-6360403D01*
X35061736Y-6352733D01*
X35064564Y-6355561D01*
X35102977Y-6324843D01*
X35172474Y-6317635D01*
X35234835Y-6349143D01*
X35238093Y-6352903D01*
X35238264Y-6352733D01*
X35245935Y-6360404D01*
X35329596Y-6444065D01*
X35436827Y-6494068D01*
X35485683Y-6500500D01*
X35485684Y-6500500D01*
X35834317Y-6500500D01*
X35856587Y-6497568D01*
X35883173Y-6494068D01*
X35990404Y-6444065D01*
X36074065Y-6360404D01*
X36074067Y-6360398D01*
X36075484Y-6358377D01*
X36078513Y-6355955D01*
X36081736Y-6352733D01*
X36082095Y-6353092D01*
X36130061Y-6314752D01*
X36177059Y-6305500D01*
X36639919Y-6305500D01*
X36706958Y-6325185D01*
X36752713Y-6377989D01*
X36754480Y-6382047D01*
X36794057Y-6477596D01*
X36909024Y-6649657D01*
X37055342Y-6795975D01*
X37055345Y-6795977D01*
X37227402Y-6910941D01*
X37418580Y-6990130D01*
X37621530Y-7030499D01*
X37621534Y-7030500D01*
X37621535Y-7030500D01*
X38078466Y-7030500D01*
X38078467Y-7030499D01*
X38281420Y-6990130D01*
X38472598Y-6910941D01*
X38644655Y-6795977D01*
X38790977Y-6649655D01*
X38905941Y-6477598D01*
X38985130Y-6286420D01*
X39025500Y-6083465D01*
X39025500Y-5876535D01*
X38985130Y-5673580D01*
X38905941Y-5482402D01*
X38790977Y-5310345D01*
X38790975Y-5310342D01*
X38644657Y-5164024D01*
X38530400Y-5087681D01*
X38472598Y-5049059D01*
X38448161Y-5038937D01*
X38281420Y-4969870D01*
X38281412Y-4969868D01*
X38078469Y-4929500D01*
X38078465Y-4929500D01*
X37621535Y-4929500D01*
X37621530Y-4929500D01*
X37418587Y-4969868D01*
X37418579Y-4969870D01*
X37227403Y-5049058D01*
X37055342Y-5164024D01*
X36909024Y-5310342D01*
X36794057Y-5482403D01*
X36754480Y-5577953D01*
X36710639Y-5632356D01*
X36644345Y-5654421D01*
X36639919Y-5654500D01*
X36177059Y-5654500D01*
X36110020Y-5634815D01*
X36075484Y-5601623D01*
X36067842Y-5590709D01*
X36069847Y-5589305D01*
X36043667Y-5541360D01*
X36048651Y-5471668D01*
X36077153Y-5427320D01*
X36112663Y-5391810D01*
X36169096Y-5276373D01*
X36169098Y-5276370D01*
X36175854Y-5230000D01*
X35784000Y-5230000D01*
X35716961Y-5210315D01*
X35671206Y-5157511D01*
X35660000Y-5106000D01*
X35660000Y-4980000D01*
X35534000Y-4980000D01*
X35466961Y-4960315D01*
X35421206Y-4907511D01*
X35410000Y-4856000D01*
X35410000Y-4730000D01*
X35910000Y-4730000D01*
X36175852Y-4730000D01*
X36169096Y-4683625D01*
X36112663Y-4568189D01*
X36021808Y-4477334D01*
X35910000Y-4422674D01*
X35910000Y-4730000D01*
X35410000Y-4730000D01*
X35410000Y-4422674D01*
X35298193Y-4477333D01*
X35202678Y-4572848D01*
X35141355Y-4606332D01*
X35071663Y-4601348D01*
X35027316Y-4572847D01*
X34970404Y-4515935D01*
X34966484Y-4514107D01*
X34863173Y-4465932D01*
X34863171Y-4465931D01*
X34863172Y-4465931D01*
X34814317Y-4459500D01*
X34814316Y-4459500D01*
X34465684Y-4459500D01*
X34465683Y-4459500D01*
X34416828Y-4465931D01*
X34309595Y-4515935D01*
X34237681Y-4587850D01*
X34176358Y-4621335D01*
X34106666Y-4616351D01*
X34062319Y-4587850D01*
X34056301Y-4581832D01*
X34022816Y-4520509D01*
X34021509Y-4474753D01*
X34030181Y-4420001D01*
X34030181Y-4419996D01*
X34011575Y-4302522D01*
X34011575Y-4302521D01*
X34011574Y-4302519D01*
X34011574Y-4302518D01*
X33957573Y-4196535D01*
X33957571Y-4196533D01*
X33957568Y-4196529D01*
X33906496Y-4145457D01*
X33873011Y-4084134D01*
X33877995Y-4014442D01*
X33919867Y-3958509D01*
X33941768Y-3945396D01*
X34030404Y-3904065D01*
X34062319Y-3872150D01*
X34123642Y-3838665D01*
X34193334Y-3843649D01*
X34237681Y-3872150D01*
X34309596Y-3944065D01*
X34416827Y-3994068D01*
X34465683Y-4000500D01*
X34465684Y-4000500D01*
X34814317Y-4000500D01*
X34830601Y-3998356D01*
X34863173Y-3994068D01*
X34970404Y-3944065D01*
X35054065Y-3860404D01*
X35054065Y-3860403D01*
X35061736Y-3852733D01*
X35064564Y-3855561D01*
X35102977Y-3824843D01*
X35172474Y-3817635D01*
X35234835Y-3849143D01*
X35238093Y-3852903D01*
X35238264Y-3852733D01*
X35245935Y-3860404D01*
X35329596Y-3944065D01*
X35436827Y-3994068D01*
X35485683Y-4000500D01*
X35485684Y-4000500D01*
X35834317Y-4000500D01*
X35850601Y-3998356D01*
X35883173Y-3994068D01*
X35990404Y-3944065D01*
X36074065Y-3860404D01*
X36074067Y-3860398D01*
X36075484Y-3858377D01*
X36078513Y-3855955D01*
X36081736Y-3852733D01*
X36082095Y-3853092D01*
X36130061Y-3814752D01*
X36177059Y-3805500D01*
X36639919Y-3805500D01*
X36706958Y-3825185D01*
X36752713Y-3877989D01*
X36754480Y-3882047D01*
X36794057Y-3977596D01*
X36909024Y-4149657D01*
X37055342Y-4295975D01*
X37055345Y-4295977D01*
X37227402Y-4410941D01*
X37418580Y-4490130D01*
X37571307Y-4520509D01*
X37621530Y-4530499D01*
X37621534Y-4530500D01*
X37621535Y-4530500D01*
X38078466Y-4530500D01*
X38078467Y-4530499D01*
X38281420Y-4490130D01*
X38472598Y-4410941D01*
X38644655Y-4295977D01*
X38790977Y-4149655D01*
X38905941Y-3977598D01*
X38985130Y-3786420D01*
X39025500Y-3583465D01*
X39025500Y-3376535D01*
X38985130Y-3173580D01*
X38905941Y-2982402D01*
X38790977Y-2810345D01*
X38790975Y-2810342D01*
X38644657Y-2664024D01*
X38484225Y-2556828D01*
X38472598Y-2549059D01*
X38470920Y-2548364D01*
X38281420Y-2469870D01*
X38281412Y-2469868D01*
X38078469Y-2429500D01*
X38078465Y-2429500D01*
X37621535Y-2429500D01*
X37621530Y-2429500D01*
X37418587Y-2469868D01*
X37418579Y-2469870D01*
X37227403Y-2549058D01*
X37055342Y-2664024D01*
X36909024Y-2810342D01*
X36794057Y-2982403D01*
X36754480Y-3077953D01*
X36710639Y-3132356D01*
X36644345Y-3154421D01*
X36639919Y-3154500D01*
X36177059Y-3154500D01*
X36110020Y-3134815D01*
X36075484Y-3101623D01*
X36067842Y-3090709D01*
X36069847Y-3089305D01*
X36043667Y-3041360D01*
X36048651Y-2971668D01*
X36077153Y-2927320D01*
X36112663Y-2891810D01*
X36169096Y-2776373D01*
X36169098Y-2776370D01*
X36175854Y-2730000D01*
X35784000Y-2730000D01*
X35716961Y-2710315D01*
X35671206Y-2657511D01*
X35660000Y-2606000D01*
X35660000Y-2480000D01*
X35534000Y-2480000D01*
X35466961Y-2460315D01*
X35421206Y-2407511D01*
X35410000Y-2356000D01*
X35410000Y-2230000D01*
X35910000Y-2230000D01*
X36175852Y-2230000D01*
X36169096Y-2183625D01*
X36112663Y-2068189D01*
X36021808Y-1977334D01*
X35910000Y-1922674D01*
X35910000Y-2230000D01*
X35410000Y-2230000D01*
X35410000Y-1922674D01*
X35298193Y-1977333D01*
X35202678Y-2072848D01*
X35141355Y-2106332D01*
X35071663Y-2101348D01*
X35027316Y-2072847D01*
X34970404Y-2015935D01*
X34918183Y-1991584D01*
X34863173Y-1965932D01*
X34863171Y-1965931D01*
X34863172Y-1965931D01*
X34814317Y-1959500D01*
X34814316Y-1959500D01*
X34465684Y-1959500D01*
X34465683Y-1959500D01*
X34416828Y-1965931D01*
X34309597Y-2015934D01*
X34239398Y-2086133D01*
X34178074Y-2119617D01*
X34108383Y-2114632D01*
X34052449Y-2072761D01*
X34028033Y-2007296D01*
X34029244Y-1979053D01*
X34029517Y-1977334D01*
X34040181Y-1910000D01*
X34040181Y-1909997D01*
X34040181Y-1909996D01*
X34021575Y-1792522D01*
X34021575Y-1792521D01*
X34021574Y-1792519D01*
X34021574Y-1792518D01*
X33967573Y-1686535D01*
X33967571Y-1686533D01*
X33967568Y-1686529D01*
X33883470Y-1602431D01*
X33883466Y-1602428D01*
X33883465Y-1602427D01*
X33777482Y-1548426D01*
X33777480Y-1548425D01*
X33777477Y-1548424D01*
X33660003Y-1529819D01*
X33659997Y-1529819D01*
X33542522Y-1548424D01*
X33542521Y-1548424D01*
X33436533Y-1602428D01*
X33436529Y-1602431D01*
X33352431Y-1686529D01*
X33352428Y-1686533D01*
X33298424Y-1792521D01*
X33298424Y-1792522D01*
X33279819Y-1909996D01*
X33279819Y-1909997D01*
X33279819Y-1910000D01*
X33287659Y-1959500D01*
X33288491Y-1964753D01*
X33279535Y-2034046D01*
X33253699Y-2071830D01*
X33185935Y-2139595D01*
X33135931Y-2246828D01*
X33129500Y-2295683D01*
X33129500Y-2644316D01*
X33135931Y-2693171D01*
X33185935Y-2800404D01*
X33277267Y-2891736D01*
X33274443Y-2894559D01*
X33305183Y-2933042D01*
X33312352Y-3002542D01*
X33280808Y-3064886D01*
X33277101Y-3068098D01*
X33277267Y-3068264D01*
X33185935Y-3159595D01*
X33135931Y-3266828D01*
X33129500Y-3315683D01*
X33129500Y-3494926D01*
X33109815Y-3561965D01*
X33093181Y-3582607D01*
X31820857Y-4854931D01*
X31759534Y-4888416D01*
X31733176Y-4891250D01*
X30716824Y-4891250D01*
X30649785Y-4871565D01*
X30629143Y-4854931D01*
X30171156Y-4396944D01*
X30107593Y-4360247D01*
X30105283Y-4359628D01*
X30077171Y-4352095D01*
X30036700Y-4341250D01*
X30036698Y-4341250D01*
X29766698Y-4341250D01*
X29582183Y-4341250D01*
X29515144Y-4321565D01*
X29469389Y-4268761D01*
X29459445Y-4199603D01*
X29488470Y-4136047D01*
X29546184Y-4098590D01*
X29665501Y-4062396D01*
X29672929Y-4058426D01*
X29808558Y-3985931D01*
X29830625Y-3974136D01*
X29975357Y-3855357D01*
X30094136Y-3710625D01*
X30182396Y-3545501D01*
X30236747Y-3366331D01*
X30255099Y-3180000D01*
X30236747Y-2993669D01*
X30182396Y-2814499D01*
X30174862Y-2800404D01*
X30094137Y-2649376D01*
X30094135Y-2649373D01*
X29975357Y-2504642D01*
X29830626Y-2385864D01*
X29830623Y-2385862D01*
X29665502Y-2297604D01*
X29486333Y-2243253D01*
X29486331Y-2243252D01*
X29300000Y-2224901D01*
X29113669Y-2243252D01*
X29097847Y-2248052D01*
X29027980Y-2248673D01*
X28974175Y-2217071D01*
X28226387Y-1469283D01*
X27469283Y-712180D01*
X27435799Y-650858D01*
X27440783Y-581166D01*
X27482655Y-525233D01*
X27548119Y-500816D01*
X27556965Y-500500D01*
X45375500Y-500500D01*
X45442539Y-520185D01*
X45488294Y-572989D01*
X45499500Y-624500D01*
X45499500Y-21375500D01*
X45479815Y-21442539D01*
X45427011Y-21488294D01*
X45375500Y-21499500D01*
X624500Y-21499500D01*
X557461Y-21479815D01*
X511706Y-21427011D01*
X500500Y-21375500D01*
X500500Y-19639999D01*
X1072471Y-19639999D01*
X1072472Y-19640000D01*
X1711988Y-19640000D01*
X1679075Y-19697007D01*
X1645000Y-19824174D01*
X1645000Y-19955826D01*
X1679075Y-20082993D01*
X1711988Y-20140000D01*
X1072472Y-20140000D01*
X1114885Y-20289065D01*
X1114890Y-20289078D01*
X1205754Y-20471556D01*
X1328608Y-20634242D01*
X1479260Y-20771578D01*
X1652584Y-20878897D01*
X1842678Y-20952539D01*
X1895000Y-20962320D01*
X1895000Y-20323012D01*
X1952007Y-20355925D01*
X2079174Y-20390000D01*
X2210826Y-20390000D01*
X2337993Y-20355925D01*
X2395000Y-20323012D01*
X2395000Y-20962320D01*
X2447321Y-20952539D01*
X2637415Y-20878897D01*
X2810739Y-20771578D01*
X2961391Y-20634242D01*
X3084245Y-20471556D01*
X3175109Y-20289078D01*
X3175114Y-20289065D01*
X3217528Y-20140000D01*
X2578012Y-20140000D01*
X2610925Y-20082993D01*
X2645000Y-19955826D01*
X2645000Y-19824174D01*
X2610925Y-19697007D01*
X2578012Y-19640000D01*
X3217528Y-19640000D01*
X3217528Y-19639999D01*
X3175114Y-19490934D01*
X3175109Y-19490921D01*
X3084245Y-19308443D01*
X2961391Y-19145757D01*
X2810739Y-19008421D01*
X2637413Y-18901101D01*
X2447315Y-18827458D01*
X2447309Y-18827456D01*
X2395001Y-18817677D01*
X2395000Y-18817679D01*
X2395000Y-19456988D01*
X2337993Y-19424075D01*
X2210826Y-19390000D01*
X2079174Y-19390000D01*
X1952007Y-19424075D01*
X1895000Y-19456988D01*
X1895000Y-18817679D01*
X1894998Y-18817677D01*
X1842690Y-18827456D01*
X1842684Y-18827458D01*
X1652586Y-18901101D01*
X1479260Y-19008421D01*
X1328608Y-19145757D01*
X1205754Y-19308443D01*
X1114890Y-19490921D01*
X1114885Y-19490934D01*
X1072471Y-19639999D01*
X500500Y-19639999D01*
X500500Y-17099999D01*
X1072471Y-17099999D01*
X1072472Y-17100000D01*
X1711988Y-17100000D01*
X1679075Y-17157007D01*
X1645000Y-17284174D01*
X1645000Y-17415826D01*
X1679075Y-17542993D01*
X1711988Y-17600000D01*
X1072472Y-17600000D01*
X1114885Y-17749065D01*
X1114890Y-17749078D01*
X1205754Y-17931556D01*
X1328608Y-18094242D01*
X1479260Y-18231578D01*
X1652584Y-18338897D01*
X1842678Y-18412539D01*
X1895000Y-18422320D01*
X1895000Y-17783012D01*
X1952007Y-17815925D01*
X2079174Y-17850000D01*
X2210826Y-17850000D01*
X2337993Y-17815925D01*
X2395000Y-17783012D01*
X2395000Y-18422320D01*
X2447321Y-18412539D01*
X2637415Y-18338897D01*
X2810739Y-18231578D01*
X2961391Y-18094242D01*
X3084245Y-17931556D01*
X3175109Y-17749078D01*
X3175114Y-17749065D01*
X3217528Y-17600000D01*
X2578012Y-17600000D01*
X2610925Y-17542993D01*
X2645000Y-17415826D01*
X2645000Y-17284174D01*
X2610925Y-17157007D01*
X2578012Y-17100000D01*
X3217528Y-17100000D01*
X3217528Y-17099999D01*
X3175114Y-16950934D01*
X3175109Y-16950921D01*
X3084245Y-16768443D01*
X2961391Y-16605757D01*
X2810739Y-16468421D01*
X2637413Y-16361101D01*
X2447315Y-16287458D01*
X2447309Y-16287456D01*
X2395001Y-16277677D01*
X2395000Y-16277679D01*
X2395000Y-16916988D01*
X2337993Y-16884075D01*
X2210826Y-16850000D01*
X2079174Y-16850000D01*
X1952007Y-16884075D01*
X1895000Y-16916988D01*
X1895000Y-16277679D01*
X1894998Y-16277677D01*
X1842690Y-16287456D01*
X1842684Y-16287458D01*
X1652586Y-16361101D01*
X1479260Y-16468421D01*
X1328608Y-16605757D01*
X1205754Y-16768443D01*
X1114890Y-16950921D01*
X1114885Y-16950934D01*
X1072471Y-17099999D01*
X500500Y-17099999D01*
X500500Y-14559999D01*
X1072471Y-14559999D01*
X1072472Y-14560000D01*
X1711988Y-14560000D01*
X1679075Y-14617007D01*
X1645000Y-14744174D01*
X1645000Y-14875826D01*
X1679075Y-15002993D01*
X1711988Y-15060000D01*
X1072472Y-15060000D01*
X1114885Y-15209065D01*
X1114890Y-15209078D01*
X1205754Y-15391556D01*
X1328608Y-15554242D01*
X1479260Y-15691578D01*
X1652584Y-15798897D01*
X1842678Y-15872539D01*
X1895000Y-15882320D01*
X1895000Y-15243012D01*
X1952007Y-15275925D01*
X2079174Y-15310000D01*
X2210826Y-15310000D01*
X2337993Y-15275925D01*
X2395000Y-15243012D01*
X2395000Y-15882320D01*
X2447321Y-15872539D01*
X2637415Y-15798897D01*
X2810739Y-15691578D01*
X2961391Y-15554242D01*
X3084245Y-15391556D01*
X3175109Y-15209078D01*
X3175114Y-15209065D01*
X3217528Y-15060000D01*
X2578012Y-15060000D01*
X2610925Y-15002993D01*
X2645000Y-14875826D01*
X2645000Y-14744174D01*
X2610925Y-14617007D01*
X2578012Y-14560000D01*
X3217528Y-14560000D01*
X3217528Y-14559999D01*
X3175114Y-14410934D01*
X3175109Y-14410921D01*
X3084245Y-14228443D01*
X2961391Y-14065757D01*
X2810739Y-13928421D01*
X2637413Y-13821101D01*
X2447315Y-13747458D01*
X2447309Y-13747456D01*
X2395001Y-13737677D01*
X2395000Y-13737679D01*
X2395000Y-14376988D01*
X2337993Y-14344075D01*
X2210826Y-14310000D01*
X2079174Y-14310000D01*
X1952007Y-14344075D01*
X1895000Y-14376988D01*
X1895000Y-13737679D01*
X1894998Y-13737677D01*
X1842690Y-13747456D01*
X1842684Y-13747458D01*
X1652586Y-13821101D01*
X1479260Y-13928421D01*
X1328608Y-14065757D01*
X1205754Y-14228443D01*
X1114890Y-14410921D01*
X1114885Y-14410934D01*
X1072471Y-14559999D01*
X500500Y-14559999D01*
X500500Y-12019999D01*
X1072471Y-12019999D01*
X1072472Y-12020000D01*
X1711988Y-12020000D01*
X1679075Y-12077007D01*
X1645000Y-12204174D01*
X1645000Y-12335826D01*
X1679075Y-12462993D01*
X1711988Y-12520000D01*
X1072472Y-12520000D01*
X1114885Y-12669065D01*
X1114890Y-12669078D01*
X1205754Y-12851556D01*
X1328608Y-13014242D01*
X1479260Y-13151578D01*
X1652584Y-13258897D01*
X1842678Y-13332539D01*
X1895000Y-13342320D01*
X1895000Y-12703012D01*
X1952007Y-12735925D01*
X2079174Y-12770000D01*
X2210826Y-12770000D01*
X2337993Y-12735925D01*
X2395000Y-12703012D01*
X2395000Y-13342320D01*
X2447321Y-13332539D01*
X2637415Y-13258897D01*
X2810739Y-13151578D01*
X2961391Y-13014242D01*
X3084245Y-12851556D01*
X3175109Y-12669078D01*
X3175114Y-12669065D01*
X3217528Y-12520000D01*
X2578012Y-12520000D01*
X2610925Y-12462993D01*
X2645000Y-12335826D01*
X2645000Y-12204174D01*
X2610925Y-12077007D01*
X2578012Y-12020000D01*
X3217528Y-12020000D01*
X3217528Y-12019999D01*
X3175114Y-11870934D01*
X3175109Y-11870921D01*
X3084245Y-11688443D01*
X2961391Y-11525757D01*
X2810739Y-11388421D01*
X2637413Y-11281101D01*
X2447315Y-11207458D01*
X2447309Y-11207456D01*
X2395001Y-11197677D01*
X2395000Y-11197679D01*
X2395000Y-11836988D01*
X2337993Y-11804075D01*
X2210826Y-11770000D01*
X2079174Y-11770000D01*
X1952007Y-11804075D01*
X1895000Y-11836988D01*
X1895000Y-11197679D01*
X1894998Y-11197677D01*
X1842690Y-11207456D01*
X1842684Y-11207458D01*
X1652586Y-11281101D01*
X1479260Y-11388421D01*
X1328608Y-11525757D01*
X1205754Y-11688443D01*
X1114890Y-11870921D01*
X1114885Y-11870934D01*
X1072471Y-12019999D01*
X500500Y-12019999D01*
X500500Y-9479999D01*
X1072471Y-9479999D01*
X1072472Y-9480000D01*
X1711988Y-9480000D01*
X1679075Y-9537007D01*
X1645000Y-9664174D01*
X1645000Y-9795826D01*
X1679075Y-9922993D01*
X1711988Y-9980000D01*
X1072472Y-9980000D01*
X1114885Y-10129065D01*
X1114890Y-10129078D01*
X1205754Y-10311556D01*
X1328608Y-10474242D01*
X1479260Y-10611578D01*
X1652584Y-10718897D01*
X1842678Y-10792539D01*
X1895000Y-10802320D01*
X1895000Y-10163012D01*
X1952007Y-10195925D01*
X2079174Y-10230000D01*
X2210826Y-10230000D01*
X2337993Y-10195925D01*
X2395000Y-10163012D01*
X2395000Y-10802320D01*
X2447321Y-10792539D01*
X2637415Y-10718897D01*
X2810739Y-10611578D01*
X2961391Y-10474242D01*
X3084245Y-10311556D01*
X3175109Y-10129078D01*
X3175114Y-10129065D01*
X3217528Y-9980000D01*
X2578012Y-9980000D01*
X2610925Y-9922993D01*
X2645000Y-9795826D01*
X2645000Y-9664174D01*
X2610925Y-9537007D01*
X2578012Y-9480000D01*
X3217528Y-9480000D01*
X3217528Y-9479999D01*
X3175114Y-9330934D01*
X3175109Y-9330921D01*
X3084245Y-9148443D01*
X2961391Y-8985757D01*
X2810739Y-8848421D01*
X2637413Y-8741101D01*
X2447315Y-8667458D01*
X2447309Y-8667456D01*
X2395001Y-8657677D01*
X2395000Y-8657679D01*
X2395000Y-9296988D01*
X2337993Y-9264075D01*
X2210826Y-9230000D01*
X2079174Y-9230000D01*
X1952007Y-9264075D01*
X1895000Y-9296988D01*
X1895000Y-8657679D01*
X1894998Y-8657677D01*
X1842690Y-8667456D01*
X1842684Y-8667458D01*
X1652586Y-8741101D01*
X1479260Y-8848421D01*
X1328608Y-8985757D01*
X1205754Y-9148443D01*
X1114890Y-9330921D01*
X1114885Y-9330934D01*
X1072471Y-9479999D01*
X500500Y-9479999D01*
X500500Y-6939999D01*
X1072471Y-6939999D01*
X1072472Y-6940000D01*
X1711988Y-6940000D01*
X1679075Y-6997007D01*
X1645000Y-7124174D01*
X1645000Y-7255826D01*
X1679075Y-7382993D01*
X1711988Y-7440000D01*
X1072472Y-7440000D01*
X1114885Y-7589065D01*
X1114890Y-7589078D01*
X1205754Y-7771556D01*
X1328608Y-7934242D01*
X1479260Y-8071578D01*
X1652584Y-8178897D01*
X1842678Y-8252539D01*
X1895000Y-8262320D01*
X1895000Y-7623012D01*
X1952007Y-7655925D01*
X2079174Y-7690000D01*
X2210826Y-7690000D01*
X2337993Y-7655925D01*
X2395000Y-7623012D01*
X2395000Y-8262320D01*
X2447321Y-8252539D01*
X2637415Y-8178897D01*
X2810739Y-8071578D01*
X2961391Y-7934242D01*
X3084245Y-7771556D01*
X3175109Y-7589078D01*
X3175114Y-7589065D01*
X3217528Y-7440000D01*
X2578012Y-7440000D01*
X2610925Y-7382993D01*
X2645000Y-7255826D01*
X2645000Y-7124174D01*
X2610925Y-6997007D01*
X2578012Y-6940000D01*
X3217528Y-6940000D01*
X3217528Y-6939999D01*
X3175114Y-6790934D01*
X3175109Y-6790921D01*
X3084245Y-6608443D01*
X2961391Y-6445757D01*
X2810739Y-6308421D01*
X2637413Y-6201101D01*
X2447315Y-6127458D01*
X2447309Y-6127456D01*
X2395001Y-6117677D01*
X2395000Y-6117679D01*
X2395000Y-6756988D01*
X2337993Y-6724075D01*
X2210826Y-6690000D01*
X2079174Y-6690000D01*
X1952007Y-6724075D01*
X1895000Y-6756988D01*
X1895000Y-6117679D01*
X1894998Y-6117677D01*
X1842690Y-6127456D01*
X1842684Y-6127458D01*
X1652586Y-6201101D01*
X1479260Y-6308421D01*
X1328608Y-6445757D01*
X1205754Y-6608443D01*
X1114890Y-6790921D01*
X1114885Y-6790934D01*
X1072471Y-6939999D01*
X500500Y-6939999D01*
X500500Y-4399999D01*
X1072471Y-4399999D01*
X1072472Y-4400000D01*
X1711988Y-4400000D01*
X1679075Y-4457007D01*
X1645000Y-4584174D01*
X1645000Y-4715826D01*
X1679075Y-4842993D01*
X1711988Y-4900000D01*
X1072472Y-4900000D01*
X1114885Y-5049065D01*
X1114890Y-5049078D01*
X1205754Y-5231556D01*
X1328608Y-5394242D01*
X1479260Y-5531578D01*
X1652584Y-5638897D01*
X1842678Y-5712539D01*
X1895000Y-5722320D01*
X1895000Y-5083012D01*
X1952007Y-5115925D01*
X2079174Y-5150000D01*
X2210826Y-5150000D01*
X2337993Y-5115925D01*
X2395000Y-5083012D01*
X2395000Y-5722320D01*
X2447321Y-5712539D01*
X2637415Y-5638897D01*
X2810739Y-5531578D01*
X2961391Y-5394242D01*
X3084245Y-5231556D01*
X3175109Y-5049078D01*
X3175114Y-5049065D01*
X3217528Y-4900000D01*
X2578012Y-4900000D01*
X2610925Y-4842993D01*
X2645000Y-4715826D01*
X2645000Y-4584174D01*
X2610925Y-4457007D01*
X2578012Y-4400000D01*
X3217528Y-4400000D01*
X3217528Y-4399999D01*
X3175114Y-4250934D01*
X3175109Y-4250921D01*
X3084245Y-4068443D01*
X2961391Y-3905757D01*
X2810739Y-3768421D01*
X2637413Y-3661101D01*
X2447315Y-3587458D01*
X2447309Y-3587456D01*
X2395001Y-3577677D01*
X2395000Y-3577679D01*
X2395000Y-4216988D01*
X2337993Y-4184075D01*
X2210826Y-4150000D01*
X2079174Y-4150000D01*
X1952007Y-4184075D01*
X1895000Y-4216988D01*
X1895000Y-3577679D01*
X1894998Y-3577677D01*
X1842690Y-3587456D01*
X1842684Y-3587458D01*
X1652586Y-3661101D01*
X1479260Y-3768421D01*
X1328608Y-3905757D01*
X1205754Y-4068443D01*
X1114890Y-4250921D01*
X1114885Y-4250934D01*
X1072471Y-4399999D01*
X500500Y-4399999D01*
X500500Y-1859999D01*
X1072471Y-1859999D01*
X1072472Y-1860000D01*
X1711988Y-1860000D01*
X1679075Y-1917007D01*
X1645000Y-2044174D01*
X1645000Y-2175826D01*
X1679075Y-2302993D01*
X1711988Y-2360000D01*
X1072472Y-2360000D01*
X1114885Y-2509065D01*
X1114890Y-2509078D01*
X1205754Y-2691556D01*
X1328608Y-2854242D01*
X1479260Y-2991578D01*
X1652584Y-3098897D01*
X1842678Y-3172539D01*
X1895000Y-3182320D01*
X1895000Y-2543012D01*
X1952007Y-2575925D01*
X2079174Y-2610000D01*
X2210826Y-2610000D01*
X2337993Y-2575925D01*
X2395000Y-2543012D01*
X2395000Y-3182320D01*
X2447321Y-3172539D01*
X2637415Y-3098897D01*
X2810739Y-2991578D01*
X2961391Y-2854242D01*
X3084245Y-2691556D01*
X3175109Y-2509078D01*
X3175114Y-2509065D01*
X3217528Y-2360000D01*
X2578012Y-2360000D01*
X2610925Y-2302993D01*
X2645000Y-2175826D01*
X2645000Y-2044174D01*
X2610925Y-1917007D01*
X2578012Y-1860000D01*
X3217528Y-1860000D01*
X3217528Y-1859999D01*
X3175114Y-1710934D01*
X3175109Y-1710921D01*
X3084245Y-1528443D01*
X2961391Y-1365757D01*
X2810739Y-1228421D01*
X2637413Y-1121101D01*
X2447315Y-1047458D01*
X2447309Y-1047456D01*
X2395001Y-1037677D01*
X2395000Y-1037679D01*
X2395000Y-1676988D01*
X2337993Y-1644075D01*
X2210826Y-1610000D01*
X2079174Y-1610000D01*
X1952007Y-1644075D01*
X1895000Y-1676988D01*
X1895000Y-1037679D01*
X1894998Y-1037677D01*
X1842690Y-1047456D01*
X1842684Y-1047458D01*
X1652586Y-1121101D01*
X1479260Y-1228421D01*
X1328608Y-1365757D01*
X1205754Y-1528443D01*
X1114890Y-1710921D01*
X1114885Y-1710934D01*
X1072471Y-1859999D01*
X500500Y-1859999D01*
X500500Y-624500D01*
X520185Y-557461D01*
X572989Y-511706D01*
X624500Y-500500D01*
X5358035Y-500500D01*
X5425074Y-520185D01*
G37*
%TD.AperFunction*%
%TA.AperFunction,Conductor*%
G36*
X20325062Y-14266185D02*
G01*
X20363211Y-14304838D01*
X20372676Y-14320001D01*
X20806000Y-14320001D01*
X20873039Y-14339686D01*
X20918794Y-14392490D01*
X20930000Y-14444001D01*
X20930000Y-14696001D01*
X20910315Y-14763040D01*
X20857511Y-14808795D01*
X20806000Y-14820001D01*
X20372676Y-14820001D01*
X20427336Y-14931811D01*
X20522847Y-15027322D01*
X20556332Y-15088645D01*
X20551348Y-15158337D01*
X20522848Y-15202684D01*
X20465934Y-15259598D01*
X20415931Y-15366829D01*
X20409500Y-15415684D01*
X20409500Y-15764317D01*
X20415931Y-15813172D01*
X20433025Y-15849830D01*
X20465935Y-15920405D01*
X20549596Y-16004066D01*
X20579657Y-16018083D01*
X20632093Y-16064253D01*
X20651250Y-16130464D01*
X20651250Y-17135825D01*
X20631565Y-17202864D01*
X20614931Y-17223506D01*
X20564039Y-17274397D01*
X20564036Y-17274401D01*
X20510032Y-17380389D01*
X20510032Y-17380390D01*
X20498138Y-17455489D01*
X20468209Y-17518624D01*
X20408897Y-17555555D01*
X20339034Y-17554557D01*
X20287984Y-17523772D01*
X19946029Y-17181817D01*
X19912544Y-17120494D01*
X19911242Y-17113567D01*
X19901574Y-17052518D01*
X19847573Y-16946535D01*
X19847571Y-16946533D01*
X19847568Y-16946529D01*
X19763470Y-16862431D01*
X19763466Y-16862428D01*
X19763465Y-16862427D01*
X19657482Y-16808426D01*
X19657480Y-16808425D01*
X19657477Y-16808424D01*
X19540003Y-16789819D01*
X19539997Y-16789819D01*
X19422522Y-16808424D01*
X19422521Y-16808424D01*
X19316533Y-16862428D01*
X19309455Y-16867571D01*
X19243648Y-16891048D01*
X19236573Y-16891250D01*
X19123758Y-16891250D01*
X19052863Y-16910247D01*
X19052862Y-16910247D01*
X18989299Y-16946944D01*
X18551324Y-17384919D01*
X18490001Y-17418404D01*
X18420309Y-17413420D01*
X18375962Y-17384919D01*
X18314394Y-17323351D01*
X18294688Y-17297670D01*
X18293057Y-17294845D01*
X18293053Y-17294840D01*
X16995158Y-15996946D01*
X16995156Y-15996944D01*
X16931593Y-15960247D01*
X16931591Y-15960246D01*
X16915791Y-15956012D01*
X16915788Y-15956012D01*
X16860698Y-15941250D01*
X14481297Y-15941250D01*
X14426207Y-15956012D01*
X14426206Y-15956011D01*
X14412499Y-15959685D01*
X14410402Y-15960247D01*
X14410399Y-15960248D01*
X14410398Y-15960249D01*
X14346842Y-15996941D01*
X14346837Y-15996945D01*
X14238852Y-16104931D01*
X14177529Y-16138416D01*
X14151171Y-16141250D01*
X13043618Y-16141250D01*
X12976579Y-16121565D01*
X12930824Y-16068761D01*
X12920880Y-15999603D01*
X12949905Y-15936047D01*
X12955937Y-15929569D01*
X13273201Y-15612305D01*
X13603054Y-15282452D01*
X13639752Y-15218888D01*
X13643657Y-15204316D01*
X13658749Y-15147993D01*
X13658749Y-15147990D01*
X13659810Y-15139934D01*
X13661929Y-15140213D01*
X13678434Y-15084006D01*
X13731238Y-15038251D01*
X13800396Y-15028307D01*
X13802135Y-15028570D01*
X13820112Y-15031417D01*
X13888979Y-15042325D01*
X13888981Y-15042325D01*
X13888984Y-15042325D01*
X14006458Y-15023719D01*
X14006459Y-15023719D01*
X14006460Y-15023718D01*
X14006463Y-15023718D01*
X14112446Y-14969717D01*
X14196554Y-14885609D01*
X14250555Y-14779626D01*
X14252703Y-14766063D01*
X14269162Y-14662147D01*
X14269162Y-14662140D01*
X14250556Y-14544666D01*
X14250555Y-14544663D01*
X14250555Y-14544662D01*
X14232406Y-14509043D01*
X14219510Y-14440377D01*
X14245786Y-14375636D01*
X14302892Y-14335378D01*
X14342891Y-14328750D01*
X15449536Y-14328750D01*
X15516575Y-14348435D01*
X15561917Y-14400343D01*
X15575935Y-14430404D01*
X15659596Y-14514065D01*
X15766827Y-14564068D01*
X15815683Y-14570500D01*
X15815684Y-14570500D01*
X16064927Y-14570500D01*
X16131966Y-14590185D01*
X16152608Y-14606819D01*
X16498844Y-14953055D01*
X16562407Y-14989753D01*
X16562406Y-14989753D01*
X16566979Y-14990978D01*
X16576888Y-14993633D01*
X16633303Y-15008750D01*
X16633305Y-15008750D01*
X17696697Y-15008750D01*
X17696698Y-15008750D01*
X17767593Y-14989753D01*
X17767992Y-14989522D01*
X17768037Y-14989511D01*
X17768031Y-14989500D01*
X17784120Y-14980211D01*
X17831157Y-14953055D01*
X18501393Y-14282819D01*
X18562716Y-14249334D01*
X18589074Y-14246500D01*
X20258023Y-14246500D01*
X20325062Y-14266185D01*
G37*
%TD.AperFunction*%
%TA.AperFunction,Conductor*%
G36*
X16297012Y-16518435D02*
G01*
X16342767Y-16571239D01*
X16352711Y-16640397D01*
X16323686Y-16703953D01*
X16317654Y-16710431D01*
X16063154Y-16964931D01*
X16001831Y-16998416D01*
X15975473Y-17001250D01*
X14056184Y-17001250D01*
X13989145Y-16981565D01*
X13968503Y-16964931D01*
X13914003Y-16910431D01*
X13880518Y-16849108D01*
X13885502Y-16779416D01*
X13927374Y-16723483D01*
X13992838Y-16699066D01*
X14001684Y-16698750D01*
X14354691Y-16698750D01*
X14354693Y-16698750D01*
X14425588Y-16679753D01*
X14447717Y-16666977D01*
X14489152Y-16643055D01*
X14597138Y-16535069D01*
X14658461Y-16501584D01*
X14684819Y-16498750D01*
X16229973Y-16498750D01*
X16297012Y-16518435D01*
G37*
%TD.AperFunction*%
%TA.AperFunction,Conductor*%
G36*
X19165405Y-11866185D02*
G01*
X19186047Y-11882819D01*
X20780547Y-13477319D01*
X20814032Y-13538642D01*
X20809048Y-13608334D01*
X20767176Y-13664267D01*
X20701712Y-13688684D01*
X20692866Y-13689000D01*
X18385552Y-13689000D01*
X18333104Y-13703053D01*
X18314656Y-13707997D01*
X18314653Y-13707998D01*
X18251096Y-13744692D01*
X18251091Y-13744696D01*
X17698929Y-14296858D01*
X17637606Y-14330343D01*
X17567914Y-14325359D01*
X17531427Y-14300000D01*
X17134000Y-14300000D01*
X17066961Y-14280315D01*
X17021206Y-14227511D01*
X17010000Y-14176000D01*
X17010000Y-14050000D01*
X16884000Y-14050000D01*
X16816961Y-14030315D01*
X16771206Y-13977511D01*
X16760000Y-13926000D01*
X16760000Y-13800000D01*
X17260000Y-13800000D01*
X17525852Y-13800000D01*
X17519096Y-13753625D01*
X17460840Y-13634460D01*
X17449081Y-13565587D01*
X17460841Y-13525540D01*
X17519095Y-13406379D01*
X17519098Y-13406370D01*
X17525854Y-13360000D01*
X17260000Y-13360000D01*
X17260000Y-13800000D01*
X16760000Y-13800000D01*
X16760000Y-12732691D01*
X17260000Y-12732691D01*
X17260000Y-12860000D01*
X17525852Y-12860000D01*
X17519096Y-12813625D01*
X17462663Y-12698189D01*
X17442154Y-12677680D01*
X17408669Y-12616357D01*
X17413653Y-12546665D01*
X17442155Y-12502317D01*
X17472662Y-12471810D01*
X17529095Y-12356373D01*
X17529097Y-12356370D01*
X17535853Y-12310000D01*
X17269999Y-12310000D01*
X17269999Y-12698639D01*
X17260000Y-12732691D01*
X16760000Y-12732691D01*
X16760000Y-12471361D01*
X16769999Y-12437308D01*
X16769999Y-12184000D01*
X16789684Y-12116961D01*
X16842488Y-12071206D01*
X16893999Y-12060000D01*
X17019999Y-12060000D01*
X17019999Y-11970500D01*
X17039684Y-11903461D01*
X17092488Y-11857706D01*
X17143999Y-11846500D01*
X19098366Y-11846500D01*
X19165405Y-11866185D01*
G37*
%TD.AperFunction*%
%TA.AperFunction,Conductor*%
G36*
X29365495Y-13228435D02*
G01*
X29386137Y-13245069D01*
X29582697Y-13441629D01*
X29616182Y-13502952D01*
X29611198Y-13572644D01*
X29569326Y-13628577D01*
X29503862Y-13652994D01*
X29495016Y-13653310D01*
X28551371Y-13653310D01*
X28484332Y-13633625D01*
X28463690Y-13616991D01*
X28445895Y-13599196D01*
X28445894Y-13599195D01*
X28382330Y-13562497D01*
X28379762Y-13561809D01*
X28379758Y-13561807D01*
X28379755Y-13561807D01*
X28311437Y-13543500D01*
X28311435Y-13543500D01*
X26973140Y-13543500D01*
X26906101Y-13523815D01*
X26885459Y-13507181D01*
X26798709Y-13420431D01*
X26765224Y-13359108D01*
X26770208Y-13289416D01*
X26812080Y-13233483D01*
X26877544Y-13209066D01*
X26886390Y-13208750D01*
X29298456Y-13208750D01*
X29365495Y-13228435D01*
G37*
%TD.AperFunction*%
%TA.AperFunction,Conductor*%
G36*
X29010325Y-11745805D02*
G01*
X29030962Y-11762434D01*
X29115028Y-11846500D01*
X29195082Y-11926554D01*
X29193544Y-11928091D01*
X29228015Y-11975291D01*
X29232177Y-12045037D01*
X29197970Y-12105960D01*
X29136256Y-12138719D01*
X29111330Y-12141250D01*
X26648740Y-12141250D01*
X26581701Y-12121565D01*
X26535946Y-12068761D01*
X26526002Y-11999603D01*
X26526267Y-11997852D01*
X26540181Y-11910002D01*
X26536464Y-11886535D01*
X26533769Y-11869516D01*
X26542725Y-11800224D01*
X26587722Y-11746772D01*
X26654473Y-11726133D01*
X26656243Y-11726120D01*
X28943286Y-11726120D01*
X29010325Y-11745805D01*
G37*
%TD.AperFunction*%
%TA.AperFunction,Conductor*%
G36*
X25700279Y-9653245D02*
G01*
X25720921Y-9669879D01*
X27007981Y-10956939D01*
X27041466Y-11018262D01*
X27036482Y-11087954D01*
X26994610Y-11143887D01*
X26929146Y-11168304D01*
X26920300Y-11168620D01*
X26214834Y-11168620D01*
X26147795Y-11148935D01*
X26127153Y-11132301D01*
X24840093Y-9845241D01*
X24806608Y-9783918D01*
X24811592Y-9714226D01*
X24853464Y-9658293D01*
X24918928Y-9633876D01*
X24927774Y-9633560D01*
X25633240Y-9633560D01*
X25700279Y-9653245D01*
G37*
%TD.AperFunction*%
%TA.AperFunction,Conductor*%
G36*
X22148935Y-6558435D02*
G01*
X22169577Y-6575069D01*
X22963444Y-7368936D01*
X23015440Y-7398955D01*
X23027007Y-7405633D01*
X23097902Y-7424630D01*
X23957776Y-7424630D01*
X24024815Y-7444315D01*
X24045457Y-7460949D01*
X24495693Y-7911185D01*
X24546468Y-7940500D01*
X24559253Y-7947881D01*
X24559256Y-7947883D01*
X24571475Y-7951157D01*
X24571477Y-7951158D01*
X24594241Y-7957257D01*
X24630152Y-7966880D01*
X24630153Y-7966880D01*
X26666561Y-7966880D01*
X26666563Y-7966880D01*
X26737458Y-7947883D01*
X26757330Y-7936410D01*
X26801022Y-7911185D01*
X26819388Y-7892819D01*
X26880711Y-7859334D01*
X26907069Y-7856500D01*
X29510286Y-7856500D01*
X29577325Y-7876185D01*
X29597967Y-7892819D01*
X30354931Y-8649783D01*
X30388416Y-8711106D01*
X30391250Y-8737464D01*
X30391250Y-10546697D01*
X30403618Y-10592852D01*
X30403618Y-10592857D01*
X30410246Y-10617589D01*
X30410247Y-10617592D01*
X30446944Y-10681155D01*
X30555168Y-10789379D01*
X30588653Y-10850702D01*
X30583669Y-10920394D01*
X30541797Y-10976327D01*
X30476333Y-11000744D01*
X30467487Y-11001060D01*
X29909426Y-11001060D01*
X29853513Y-11016041D01*
X29853512Y-11016042D01*
X29838530Y-11020057D01*
X29774967Y-11056754D01*
X29774965Y-11056756D01*
X29707338Y-11124384D01*
X29646015Y-11157869D01*
X29576323Y-11152885D01*
X29531976Y-11124384D01*
X29383966Y-10976374D01*
X29320403Y-10939677D01*
X29310962Y-10937147D01*
X29310961Y-10937147D01*
X29249508Y-10920680D01*
X29249505Y-10920680D01*
X27811508Y-10920680D01*
X27744469Y-10900995D01*
X27723827Y-10884361D01*
X27541185Y-10701719D01*
X27507700Y-10640396D01*
X27512684Y-10570704D01*
X27554556Y-10514771D01*
X27620020Y-10490354D01*
X27628866Y-10490038D01*
X29040000Y-10490038D01*
X29040000Y-8400038D01*
X27140000Y-8400038D01*
X27140000Y-10001172D01*
X27120315Y-10068211D01*
X27067511Y-10113966D01*
X26998353Y-10123910D01*
X26934797Y-10094885D01*
X26928319Y-10088853D01*
X25971220Y-9131754D01*
X25937161Y-9112091D01*
X25907657Y-9095057D01*
X25836762Y-9076060D01*
X23610492Y-9076060D01*
X23539597Y-9095057D01*
X23539596Y-9095057D01*
X23476033Y-9131754D01*
X23476031Y-9131756D01*
X23332857Y-9274931D01*
X23271534Y-9308416D01*
X23245176Y-9311250D01*
X22659151Y-9311250D01*
X22592112Y-9291565D01*
X22546357Y-9238761D01*
X22536413Y-9169603D01*
X22565438Y-9106047D01*
X22571470Y-9099569D01*
X22607568Y-9063470D01*
X22607573Y-9063465D01*
X22661574Y-8957482D01*
X22661575Y-8957477D01*
X22680181Y-8840003D01*
X22680181Y-8839996D01*
X22661575Y-8722521D01*
X22661574Y-8722519D01*
X22661574Y-8722518D01*
X22607573Y-8616535D01*
X22607571Y-8616533D01*
X22607568Y-8616529D01*
X22523470Y-8532431D01*
X22523466Y-8532428D01*
X22523465Y-8532427D01*
X22417482Y-8478426D01*
X22417480Y-8478425D01*
X22417477Y-8478424D01*
X22300003Y-8459819D01*
X22300001Y-8459819D01*
X22300000Y-8459819D01*
X22278753Y-8463184D01*
X22252146Y-8467398D01*
X22182853Y-8458442D01*
X22129402Y-8413445D01*
X22108763Y-8346693D01*
X22108750Y-8344924D01*
X22108750Y-8024597D01*
X22108750Y-8024596D01*
X22093767Y-7968682D01*
X22093284Y-7966880D01*
X22089753Y-7953700D01*
X22053057Y-7890140D01*
X22053053Y-7890135D01*
X20913349Y-6750431D01*
X20879864Y-6689108D01*
X20884848Y-6619416D01*
X20926720Y-6563483D01*
X20992184Y-6539066D01*
X21001030Y-6538750D01*
X22081896Y-6538750D01*
X22148935Y-6558435D01*
G37*
%TD.AperFunction*%
%TA.AperFunction,Conductor*%
G36*
X20184638Y-8509685D02*
G01*
X20205280Y-8526319D01*
X20226529Y-8547568D01*
X20226533Y-8547571D01*
X20226535Y-8547573D01*
X20332518Y-8601574D01*
X20332520Y-8601574D01*
X20332522Y-8601575D01*
X20449997Y-8620181D01*
X20450000Y-8620181D01*
X20450003Y-8620181D01*
X20567477Y-8601575D01*
X20567478Y-8601575D01*
X20567479Y-8601574D01*
X20567482Y-8601574D01*
X20648707Y-8560187D01*
X20717374Y-8547292D01*
X20761291Y-8560186D01*
X20842518Y-8601574D01*
X20842520Y-8601574D01*
X20842522Y-8601575D01*
X20959997Y-8620181D01*
X20960000Y-8620181D01*
X20960003Y-8620181D01*
X21077477Y-8601575D01*
X21077478Y-8601575D01*
X21077479Y-8601574D01*
X21077482Y-8601574D01*
X21123017Y-8578372D01*
X21191684Y-8565477D01*
X21256425Y-8591753D01*
X21296682Y-8648860D01*
X21303310Y-8688858D01*
X21303310Y-9509398D01*
X21309663Y-9533106D01*
X21318475Y-9565994D01*
X21322305Y-9580289D01*
X21322307Y-9580293D01*
X21359004Y-9643856D01*
X21557875Y-9842727D01*
X21591360Y-9904050D01*
X21586376Y-9973742D01*
X21544504Y-10029675D01*
X21526489Y-10040893D01*
X21487906Y-10060552D01*
X21487901Y-10060555D01*
X21400555Y-10147901D01*
X21400551Y-10147906D01*
X21344463Y-10257984D01*
X21337809Y-10300000D01*
X21736000Y-10300000D01*
X21803039Y-10319685D01*
X21848794Y-10372489D01*
X21860000Y-10424000D01*
X21860000Y-10676000D01*
X21840315Y-10743039D01*
X21787511Y-10788794D01*
X21736000Y-10800000D01*
X21333569Y-10800000D01*
X21266530Y-10780315D01*
X21245888Y-10763681D01*
X20835141Y-10352934D01*
X20771578Y-10316237D01*
X20771574Y-10316236D01*
X20770921Y-10316061D01*
X20770914Y-10316059D01*
X20700683Y-10297240D01*
X20700681Y-10297240D01*
X16314000Y-10297240D01*
X16246961Y-10277555D01*
X16201206Y-10224751D01*
X16190000Y-10173240D01*
X16190000Y-10070000D01*
X16064000Y-10070000D01*
X15996961Y-10050315D01*
X15951206Y-9997511D01*
X15940000Y-9946000D01*
X15940000Y-9820000D01*
X16440000Y-9820000D01*
X16712190Y-9820000D01*
X16705536Y-9777984D01*
X16649448Y-9667906D01*
X16649444Y-9667901D01*
X16562098Y-9580555D01*
X16562091Y-9580550D01*
X16452022Y-9524466D01*
X16452019Y-9524465D01*
X16440000Y-9522561D01*
X16440000Y-9820000D01*
X15940000Y-9820000D01*
X15940000Y-9522561D01*
X15939999Y-9522561D01*
X15927980Y-9524465D01*
X15927977Y-9524466D01*
X15817908Y-9580550D01*
X15817904Y-9580552D01*
X15762679Y-9635778D01*
X15701355Y-9669262D01*
X15631664Y-9664277D01*
X15587317Y-9635777D01*
X15568313Y-9616773D01*
X15561620Y-9612086D01*
X15517998Y-9557506D01*
X15508750Y-9510516D01*
X15508750Y-9315608D01*
X15528435Y-9248569D01*
X15581239Y-9202814D01*
X15650397Y-9192870D01*
X15689046Y-9205124D01*
X15787981Y-9255535D01*
X15787984Y-9255536D01*
X15830000Y-9262190D01*
X15830000Y-9262188D01*
X16330000Y-9262188D01*
X16372022Y-9255533D01*
X16483704Y-9198628D01*
X16552373Y-9185731D01*
X16596295Y-9198627D01*
X16707984Y-9255536D01*
X16750000Y-9262190D01*
X16750000Y-9262188D01*
X17250000Y-9262188D01*
X17292022Y-9255533D01*
X17403704Y-9198628D01*
X17472373Y-9185731D01*
X17516295Y-9198627D01*
X17627984Y-9255536D01*
X17670000Y-9262190D01*
X17670000Y-9262188D01*
X18170000Y-9262188D01*
X18212022Y-9255533D01*
X18323704Y-9198628D01*
X18392373Y-9185731D01*
X18436295Y-9198627D01*
X18547984Y-9255536D01*
X18590000Y-9262190D01*
X18590000Y-9262188D01*
X19090000Y-9262188D01*
X19132022Y-9255533D01*
X19243704Y-9198628D01*
X19312373Y-9185731D01*
X19356295Y-9198627D01*
X19467984Y-9255536D01*
X19510000Y-9262190D01*
X19510000Y-9262188D01*
X20010000Y-9262188D01*
X20052022Y-9255533D01*
X20162091Y-9199449D01*
X20162098Y-9199444D01*
X20249444Y-9112098D01*
X20249449Y-9112091D01*
X20305533Y-9002022D01*
X20305534Y-9002019D01*
X20307438Y-8990000D01*
X20010000Y-8990000D01*
X20010000Y-9262188D01*
X19510000Y-9262188D01*
X19510000Y-8990000D01*
X19090000Y-8990000D01*
X19090000Y-9262188D01*
X18590000Y-9262188D01*
X18590000Y-8990000D01*
X18170000Y-8990000D01*
X18170000Y-9262188D01*
X17670000Y-9262188D01*
X17670000Y-8990000D01*
X17250000Y-8990000D01*
X17250000Y-9262188D01*
X16750000Y-9262188D01*
X16750000Y-8990000D01*
X16330000Y-8990000D01*
X16330000Y-9262188D01*
X15830000Y-9262188D01*
X15830000Y-8864000D01*
X15849685Y-8796961D01*
X15902489Y-8751206D01*
X15954000Y-8740000D01*
X16080000Y-8740000D01*
X16080000Y-8614000D01*
X16099685Y-8546961D01*
X16152489Y-8501206D01*
X16204000Y-8490000D01*
X20117599Y-8490000D01*
X20184638Y-8509685D01*
G37*
%TD.AperFunction*%
%TA.AperFunction,Conductor*%
G36*
X25671509Y-2008435D02*
G01*
X25692151Y-2025069D01*
X26946651Y-3279569D01*
X26980136Y-3340892D01*
X26975152Y-3410584D01*
X26933280Y-3466517D01*
X26867816Y-3490934D01*
X26858970Y-3491250D01*
X25803299Y-3491250D01*
X25732411Y-3510245D01*
X25732402Y-3510249D01*
X25668847Y-3546941D01*
X25668842Y-3546945D01*
X25272607Y-3943181D01*
X25211284Y-3976666D01*
X25184926Y-3979500D01*
X24995683Y-3979500D01*
X24946828Y-3985931D01*
X24839595Y-4035935D01*
X24755935Y-4119595D01*
X24705931Y-4226828D01*
X24699500Y-4275683D01*
X24699500Y-4724316D01*
X24705931Y-4773171D01*
X24755935Y-4880404D01*
X24787850Y-4912319D01*
X24821335Y-4973642D01*
X24816351Y-5043334D01*
X24787850Y-5087681D01*
X24755935Y-5119595D01*
X24705931Y-5226828D01*
X24699500Y-5275683D01*
X24699500Y-5724316D01*
X24705931Y-5773171D01*
X24755935Y-5880404D01*
X24778601Y-5903070D01*
X24812086Y-5964393D01*
X24807102Y-6034085D01*
X24801405Y-6047045D01*
X24788426Y-6072518D01*
X24788424Y-6072522D01*
X24769819Y-6189996D01*
X24769819Y-6190003D01*
X24788424Y-6307477D01*
X24788424Y-6307478D01*
X24788425Y-6307481D01*
X24788426Y-6307482D01*
X24837637Y-6404065D01*
X24842428Y-6413466D01*
X24842431Y-6413470D01*
X24926529Y-6497568D01*
X24926533Y-6497571D01*
X24926535Y-6497573D01*
X25032518Y-6551574D01*
X25032520Y-6551574D01*
X25032522Y-6551575D01*
X25149997Y-6570181D01*
X25150000Y-6570181D01*
X25150002Y-6570181D01*
X25274902Y-6550399D01*
X25344196Y-6559354D01*
X25397648Y-6604350D01*
X25414072Y-6640768D01*
X25414748Y-6643290D01*
X25414749Y-6643304D01*
X25414751Y-6643304D01*
X25420245Y-6663810D01*
X25420246Y-6663813D01*
X25420247Y-6663814D01*
X25435791Y-6690737D01*
X25443442Y-6703989D01*
X25458527Y-6746590D01*
X25462251Y-6770102D01*
X25453297Y-6839395D01*
X25408300Y-6892847D01*
X25341549Y-6913487D01*
X25339778Y-6913500D01*
X25039074Y-6913500D01*
X24972035Y-6893815D01*
X24951393Y-6877181D01*
X24081156Y-6006944D01*
X24017592Y-5970246D01*
X24016141Y-5969858D01*
X24015749Y-5969753D01*
X24015742Y-5969751D01*
X23946700Y-5951250D01*
X23946698Y-5951250D01*
X23086824Y-5951250D01*
X23019785Y-5931565D01*
X22999143Y-5914931D01*
X22230893Y-5146681D01*
X22197408Y-5085358D01*
X22202392Y-5015666D01*
X22244264Y-4959733D01*
X22309728Y-4935316D01*
X22318574Y-4935000D01*
X22410000Y-4935000D01*
X22410000Y-2845000D01*
X20510000Y-2845000D01*
X20510000Y-4426426D01*
X20490315Y-4493465D01*
X20437511Y-4539220D01*
X20368353Y-4549164D01*
X20304797Y-4520139D01*
X20298319Y-4514107D01*
X20099974Y-4315762D01*
X20065704Y-4295977D01*
X20036411Y-4279065D01*
X19965516Y-4260068D01*
X19965514Y-4260068D01*
X19038143Y-4260068D01*
X18971104Y-4240383D01*
X18925349Y-4187579D01*
X18915405Y-4118421D01*
X18944430Y-4054865D01*
X18950462Y-4048387D01*
X19272022Y-3726828D01*
X19793056Y-3205794D01*
X19829753Y-3142230D01*
X19831837Y-3134452D01*
X19848750Y-3071335D01*
X19848750Y-2326824D01*
X19868435Y-2259785D01*
X19885069Y-2239143D01*
X20099143Y-2025069D01*
X20160466Y-1991584D01*
X20186824Y-1988750D01*
X25604470Y-1988750D01*
X25671509Y-2008435D01*
G37*
%TD.AperFunction*%
%TA.AperFunction,Conductor*%
G36*
X19829033Y-4837253D02*
G01*
X19849675Y-4853887D01*
X20232093Y-5236305D01*
X20278428Y-5263056D01*
X20278427Y-5263056D01*
X20292826Y-5271368D01*
X20295657Y-5273003D01*
X20350825Y-5287785D01*
X20410484Y-5324151D01*
X20441013Y-5386998D01*
X20432718Y-5456373D01*
X20388232Y-5510251D01*
X20321680Y-5531525D01*
X20318730Y-5531560D01*
X18452989Y-5531560D01*
X18399947Y-5545774D01*
X18367852Y-5550000D01*
X18164000Y-5550000D01*
X18096961Y-5530315D01*
X18051206Y-5477511D01*
X18040000Y-5426000D01*
X18040000Y-5174000D01*
X18059685Y-5106961D01*
X18112489Y-5061206D01*
X18164000Y-5050000D01*
X19507438Y-5050000D01*
X19505535Y-5037983D01*
X19505534Y-5037980D01*
X19485094Y-4997864D01*
X19472197Y-4929195D01*
X19498473Y-4864454D01*
X19555579Y-4824197D01*
X19595578Y-4817568D01*
X19761994Y-4817568D01*
X19829033Y-4837253D01*
G37*
%TD.AperFunction*%
%TD*%
M02*
